<svg width="37" height="32" viewBox="0 0 37 32" fill="none" xmlns="http://www.w3.org/2000/svg">
<path d="M36 4.00001L32.8 0.800011C32.4 0.40001 31.6 0.40001 31.2 0.800011C30.9 1.10001 30.9 1.40002 30.9 1.70002C30.7 1.70002 30.4 1.80002 30.2 1.90002L22 10.1C22.1 10.8 21.9 11.6 21.5 12.2L22.4 13.1L22.5 13.2L20.7 15L14.8 9.10001C15.5 6.70001 14.9 4.00002 13 2.20002C11.1 0.30002 8.5 -0.299983 6.1 0.400017L10.1 4.40002L9.00001 8.30001L5.1 9.40002L1.1 5.40002C0.5 7.80002 1.1 10.4 2.9 12.3C4.9 14.3 7.7 14.8 10.1 14L15.9 19.8L10.4 25.3L10.1 25L8.50001 26.3L5.9 30.4L6.6 31.1L10.7 28.5L12 26.9L11.7 26.6L17.2 21.1L26.7 30.6C27.4 31.3 28.2 31.6 29.1 31.6C30 31.6 30.8 31.3 31.5 30.6C32.8 29.3 32.8 27.2 31.5 25.9L22 16.4L23.8 14.6L24.6 15.4C25.2 15 26 14.8 26.7 14.9L34.8 6.80001L34.9 6.70002C35.1 6.50002 35.1 6.30001 35.1 6.00001C35.4 6.00001 35.8 6.00002 36 5.70002C36.4 5.10002 36.4 4.40001 36 4.00001ZM29.3 27.4C30 27.4 30.6 28 30.6 28.7C30.6 29.4 30 30 29.3 30C28.6 30 28 29.4 28 28.7C28 28 28.6 27.4 29.3 27.4ZM24.7 10.6L24.2 10.1L30.3 4.00001L30.8 4.50001L24.7 10.6ZM26.7 12.6L26.2 12.1L32.3 6.00001L32.8 6.50001L26.7 12.6Z" fill="white"/>
</svg>
