<svg width="39" height="32" viewBox="0 0 39 32" fill="none" xmlns="http://www.w3.org/2000/svg">
<path d="M38.7012 29.5999V4.8999C38.7012 4.0999 38.1012 3.49989 37.3012 3.49989H19.8012C19.3012 3.49989 18.8012 2.4999 18.8012 2.0999V1.8999C18.8012 1.0999 18.1012 0.399902 17.3012 0.399902H8.20119C7.40119 0.399902 6.70119 1.0999 6.70119 1.8999V2.0999C6.70119 2.4999 6.30119 3.49989 5.70119 3.49989C4.90119 3.49989 4.3012 4.0999 4.3012 4.8999V12.0999H1.3012C1.3012 12.0999 0.00118157 11.9999 0.501182 13.5999L3.60119 29.6999C3.60119 30.4999 4.20118 31.1999 5.00118 31.1999H38.0012C38.8012 31.0999 38.7012 29.5999 38.7012 29.5999ZM37.0012 14.0999V30.2999L33.9012 12.9999C33.6012 11.9999 32.6012 12.0999 32.6012 12.0999H6.10119V6.5999H37.0012V14.0999Z" fill="white"/>
</svg>
