<svg width="30" height="34" viewBox="0 0 30 34" fill="none" xmlns="http://www.w3.org/2000/svg">
<path d="M15.3523 0.799805C10.6808 0.799805 6.86215 4.61849 6.86215 9.28995C6.86215 13.9614 10.6808 17.7801 15.3523 17.7801C20.0238 17.7801 23.8424 13.9614 23.8424 9.28995C23.8424 4.61849 20.0238 0.799805 15.3523 0.799805ZM29.9227 24.5648C29.7003 24.0086 29.4037 23.4896 29.0701 23.0076C27.3646 20.4865 24.7323 18.8182 21.7663 18.4103C21.3956 18.3733 20.9878 18.4474 20.6912 18.6698C19.134 19.8192 17.2803 20.4124 15.3524 20.4124C13.4244 20.4124 11.5707 19.8192 10.0136 18.6698C9.71694 18.4474 9.30912 18.3362 8.9384 18.4103C5.97241 18.8182 3.30305 20.4865 1.63469 23.0076C1.30102 23.4896 1.00439 24.0458 0.781995 24.5648C0.670795 24.7873 0.707838 25.0468 0.819038 25.2692C1.11567 25.7883 1.48638 26.3074 1.82005 26.7522C2.33908 27.4567 2.89522 28.0869 3.52552 28.6801C4.04454 29.1991 4.63773 29.6811 5.23098 30.1631C8.15986 32.3506 11.682 33.4998 15.3153 33.4998C18.9487 33.4998 22.4708 32.3505 25.3997 30.1631C25.9929 29.7182 26.586 29.1991 27.1051 28.6801C27.6983 28.0869 28.2915 27.4566 28.8106 26.7522C29.1813 26.2703 29.5151 25.7883 29.8116 25.2692C29.9969 25.0468 30.0339 24.7872 29.9227 24.5648Z" fill="white"/>
</svg>
