<svg width="37" height="37" viewBox="0 0 37 37" fill="none" xmlns="http://www.w3.org/2000/svg">
<g clip-path="url(#clip0_476_13960)">
<path d="M18.3433 10.7783C16.8083 10.7783 15.3077 11.2335 14.0314 12.0863C12.755 12.9391 11.7603 14.1513 11.1728 15.5695C10.5854 16.9877 10.4317 18.5482 10.7312 20.0537C11.0306 21.5593 11.7698 22.9422 12.8553 24.0276C13.9407 25.113 15.3236 25.8522 16.8291 26.1517C18.3347 26.4512 19.8952 26.2975 21.3134 25.71C22.7316 25.1226 23.9437 24.1278 24.7965 22.8515C25.6493 21.5752 26.1045 20.0746 26.1045 18.5396C26.1022 16.4819 25.2837 14.5091 23.8287 13.0541C22.3737 11.5991 20.401 10.7807 18.3433 10.7783ZM22.4534 17.106L18.0184 21.541C17.8105 21.7488 17.5285 21.8656 17.2345 21.8656C16.9405 21.8656 16.6586 21.7488 16.4506 21.541L14.2331 19.3235C14.0312 19.1143 13.9194 18.8343 13.922 18.5436C13.9245 18.2529 14.0411 17.9748 14.2467 17.7692C14.4522 17.5636 14.7303 17.447 15.021 17.4445C15.3117 17.442 15.5918 17.5537 15.8009 17.7557L17.2345 19.1893L20.8856 15.5382C21.0948 15.3362 21.3748 15.2245 21.6655 15.227C21.9563 15.2295 22.2343 15.3461 22.4399 15.5517C22.6455 15.7573 22.7621 16.0354 22.7646 16.3261C22.7671 16.6168 22.6554 16.8968 22.4534 17.106Z" fill="white"/>
<path d="M34.4007 15.0362L32.1588 14.4751C31.8696 13.4922 31.4756 12.5432 30.9835 11.6445L32.1743 9.65983C32.4292 9.23599 32.5349 8.73906 32.4746 8.24819C32.4144 7.75731 32.1915 7.30072 31.8417 6.95115L29.928 5.03967C29.5785 4.68965 29.1219 4.46673 28.631 4.40644C28.1401 4.34615 27.6431 4.45198 27.2193 4.70704L25.2347 5.89673C24.3359 5.40526 23.3869 5.01197 22.404 4.72367L21.843 2.47956C21.7239 1.99982 21.4476 1.57377 21.0581 1.26933C20.6687 0.964895 20.1885 0.799602 19.6942 0.799806H16.9889C16.4942 0.7993 16.0137 0.964438 15.6238 1.26888C15.234 1.57333 14.9573 1.99955 14.8379 2.47956L14.2769 4.72367C13.2936 5.01204 12.3443 5.40532 11.4451 5.89673L9.46048 4.70593C9.03653 4.4512 8.53953 4.34567 8.04864 4.40615C7.55776 4.46663 7.10124 4.68965 6.7518 5.03967L4.84142 6.95337C4.49158 7.30294 4.26878 7.75953 4.2085 8.25041C4.14822 8.74128 4.25393 9.23821 4.5088 9.66204L5.6996 11.6467C5.2075 12.5454 4.81347 13.4944 4.52432 14.4773L2.28132 15.0384C1.80167 15.1577 1.37573 15.434 1.07133 15.8234C0.76692 16.2128 0.601555 16.6929 0.601565 17.1871V19.8903C0.600812 20.3851 0.765836 20.8659 1.0703 21.256C1.37476 21.6461 1.80112 21.9229 2.28132 22.0423L4.52543 22.6034C4.8139 23.5862 5.20718 24.5352 5.69849 25.434L4.50769 27.4187C4.25296 27.8426 4.14743 28.3396 4.20791 28.8305C4.26839 29.3214 4.49141 29.7779 4.84142 30.1274L6.75402 32.0399C7.10349 32.39 7.56009 32.6129 8.05102 32.6732C8.54194 32.7335 9.03892 32.6276 9.4627 32.3726L11.4474 31.1818C12.3461 31.6731 13.2951 32.0664 14.278 32.3548L14.839 34.5989C14.9582 35.079 15.2346 35.5053 15.6242 35.81C16.0139 36.1146 16.4943 36.28 16.9889 36.2798H19.692C20.1867 36.2805 20.6674 36.1154 21.0573 35.811C21.4472 35.5065 21.7238 35.0802 21.843 34.6001L22.404 32.3559C23.3869 32.0676 24.3359 31.6744 25.2347 31.1829L27.2193 32.3737C27.6432 32.6286 28.1403 32.7342 28.6312 32.6738C29.1221 32.6133 29.5787 32.3901 29.928 32.0399L31.8406 30.1274C32.1904 29.7778 32.4132 29.3212 32.4735 28.8303C32.5338 28.3394 32.4281 27.8425 32.1732 27.4187L30.9824 25.434C31.4745 24.5353 31.8685 23.5863 32.1577 22.6034L34.4007 22.0435C34.8809 21.9243 35.3074 21.6477 35.612 21.2578C35.9167 20.868 36.082 20.3873 36.0816 19.8925V17.1871C36.082 16.6923 35.9167 16.2117 35.612 15.8218C35.3074 15.4319 34.8809 15.1553 34.4007 15.0362ZM18.3416 28.5186C16.368 28.5186 14.4387 27.9333 12.7977 26.8368C11.1567 25.7404 9.87767 24.1819 9.1224 22.3585C8.36713 20.5351 8.16952 18.5287 8.55455 16.593C8.93959 14.6574 9.88997 12.8793 11.2855 11.4838C12.6811 10.0882 14.4591 9.13783 16.3948 8.75279C18.3305 8.36776 20.3369 8.56537 22.1603 9.32064C23.9836 10.0759 25.5421 11.3549 26.6386 12.9959C27.7351 14.6369 28.3203 16.5662 28.3203 18.5398C28.3174 21.1854 27.2651 23.7219 25.3944 25.5926C23.5236 27.4634 20.9872 28.5156 18.3416 28.5186Z" fill="white"/>
</g>
<defs>
<clipPath id="clip0_476_13960">
<rect width="35.48" height="35.48" fill="white" transform="translate(0.601562 0.799805)"/>
</clipPath>
</defs>
</svg>
