<svg width="964" height="1328" viewBox="0 0 964 1328" fill="none" xmlns="http://www.w3.org/2000/svg">
<path d="M585.855 146.151L661.151 161.364L685.628 234.19L634.805 291.792L559.509 276.579L535.032 203.753L560.444 174.955L585.855 146.151Z" fill="white" fill-opacity="0.2"/>
<path d="M560.819 175.286L560.819 175.286L535.598 203.867L559.891 276.146L634.621 291.245L685.062 234.076L660.769 161.797L586.039 146.698L560.819 175.286Z" stroke="#2673B8" stroke-opacity="0.1"/>
<path d="M421.025 332.979L458.674 340.588L496.329 348.196L520.804 421.016L469.977 478.626L394.679 463.407L370.204 390.587L395.614 361.783L421.025 332.979Z" fill="white" fill-opacity="0.2"/>
<path d="M458.575 341.078L458.574 341.078L421.208 333.526L395.989 362.114L370.77 390.701L395.061 462.974L469.793 478.079L520.238 420.902L495.947 348.629L458.575 341.078Z" stroke="#2673B8" stroke-opacity="0.1"/>
<path d="M423.162 322.406L398.684 249.579L424.097 220.782L449.507 191.978L487.156 199.587L524.803 207.19L549.28 280.017L498.458 337.619L460.811 330.015L423.162 322.406Z" fill="white" fill-opacity="0.2"/>
<path d="M424.472 221.112L424.472 221.112L399.25 249.694L423.544 321.973L460.91 329.525L498.274 337.071L548.714 279.903L524.421 207.623L487.057 200.077L487.057 200.077L449.691 192.525L424.472 221.112Z" stroke="#2673B8" stroke-opacity="0.1"/>
<path d="M390.598 242.444L352.949 234.835L315.3 227.225L290.825 154.405L341.646 96.7971L416.95 112.014L441.425 184.834L416.009 213.64L390.598 242.444Z" fill="white" fill-opacity="0.2"/>
<path d="M353.048 234.345L390.414 241.897L415.634 213.309L440.859 184.72L416.568 112.447L341.83 97.3444L291.391 154.519L315.682 226.792L353.048 234.345Z" stroke="#2673B8" stroke-opacity="0.1"/>
<path d="M207.439 132.043L182.964 59.2223L233.784 1.61453L309.082 16.8332L333.558 89.6537L282.737 147.262L207.439 132.043Z" fill="white" fill-opacity="0.2"/>
<path d="M233.968 2.16182L183.53 59.3366L207.821 131.61L282.553 146.714L332.992 89.5394L308.7 17.2661L233.968 2.16182Z" stroke="#2673B8" stroke-opacity="0.1"/>
<path d="M71.0953 177.87L46.62 105.049L97.4407 47.4414L172.739 62.6601L197.214 135.481L146.393 193.088L71.0953 177.87Z" fill="white" fill-opacity="0.2"/>
<path d="M97.6246 47.9887L47.1859 105.164L71.4773 177.437L146.209 192.541L196.648 135.366L172.357 63.093L97.6246 47.9887Z" stroke="#2673B8" stroke-opacity="0.1"/>
<path d="M-65.2545 223.696L-89.7298 150.875L-38.9031 93.2657L36.3949 108.484L60.8702 181.305L10.0496 238.913L-65.2545 223.696Z" fill="white" fill-opacity="0.2"/>
<path d="M-38.7191 93.8129L-89.1639 150.99L-64.8725 223.263L9.86562 238.365L60.3043 181.191L36.0129 108.917L-38.7191 93.8129Z" stroke="#2673B8" stroke-opacity="0.1"/>
<path d="M305.077 230.661L258.653 283.283L254.257 288.269L216.608 280.659L178.959 273.05L154.483 200.23L205.304 142.622L280.602 157.84L305.077 230.661Z" fill="white" fill-opacity="0.2"/>
<path d="M258.278 282.953L304.511 230.547L280.22 158.273L205.488 143.169L155.049 200.344L179.341 272.617L216.707 280.169L254.073 287.721L258.278 282.953L258.653 283.283L258.278 282.953Z" stroke="#2673B8" stroke-opacity="0.1"/>
<path d="M451.646 181.399L427.171 108.578L477.991 50.9705L553.289 66.1892L577.765 139.01L552.354 167.814L526.944 196.617L489.295 189.008L451.646 181.399Z" fill="white" fill-opacity="0.2"/>
<path d="M478.175 51.5178L427.737 108.693L452.028 180.966L489.394 188.518L526.76 196.07L551.98 167.483L577.199 138.895L552.907 66.6221L478.175 51.5178Z" stroke="#2673B8" stroke-opacity="0.1"/>
<path d="M-93.7289 364.701L-118.204 291.881L-67.3835 234.273L7.91445 249.492L32.3898 322.312L6.97943 351.116L-18.4308 379.92L-56.0799 372.311L-93.7289 364.701Z" fill="white" fill-opacity="0.2"/>
<path d="M-67.1996 234.82L-117.638 291.995L-93.3469 364.268L-55.9808 371.821L-18.6148 379.373L6.60448 350.785L31.8239 322.198L7.53247 249.925L-67.1996 234.82Z" stroke="#2673B8" stroke-opacity="0.1"/>
<path d="M40.4836 329.454L78.1326 337.063L115.78 344.667L140.257 417.493L89.4343 475.095L14.1383 459.882L-10.3391 387.056L15.0733 358.258L40.4836 329.454Z" fill="white" fill-opacity="0.2"/>
<path d="M78.0336 337.554L78.0336 337.554L40.6676 330.001L15.4482 358.589L15.4482 358.589L-9.77314 387.17L14.5202 459.449L89.2504 474.548L139.691 417.379L115.398 345.1L78.0336 337.554Z" stroke="#2673B8" stroke-opacity="0.1"/>
<path d="M-58.2111 382.89L-20.5641 390.493L3.91321 463.319L-46.9095 520.921L-122.205 505.709L-146.683 432.882L-95.8601 375.28L-58.2111 382.89Z" fill="white" fill-opacity="0.2"/>
<path d="M-58.3101 383.38L-58.3102 383.38L-95.6762 375.828L-146.117 432.996L-121.823 505.276L-47.0934 520.374L3.34729 463.205L-20.9461 390.926L-58.3101 383.38Z" stroke="#2673B8" stroke-opacity="0.1"/>
<path d="M42.611 318.877L18.1356 246.056L68.9563 188.449L144.254 203.667L168.73 276.488L143.319 305.292L117.909 334.096L80.2599 326.486L42.611 318.877Z" fill="white" fill-opacity="0.2"/>
<path d="M69.1402 188.996L18.7015 246.171L42.9929 318.444L80.359 325.996L117.725 333.548L142.944 304.961L168.164 276.374L143.872 204.1L69.1402 188.996Z" stroke="#2673B8" stroke-opacity="0.1"/>
<path d="M284.687 378.804L291.202 380.121L359.985 394.022L384.46 466.843L333.639 524.451L258.341 509.232L233.866 436.412L259.276 407.608L284.687 378.804Z" fill="white" fill-opacity="0.2"/>
<path d="M291.103 380.612L291.103 380.612L284.871 379.351L259.651 407.938L234.432 436.526L258.723 508.799L333.455 523.903L383.894 466.729L359.603 394.455L291.103 380.612Z" stroke="#2673B8" stroke-opacity="0.1"/>
<path d="M176.823 283.629L214.472 291.238L252.119 298.842L276.597 371.668L251.186 400.472L225.774 429.27L150.478 414.057L126.001 341.231L151.413 312.433L176.823 283.629Z" fill="white" fill-opacity="0.2"/>
<path d="M214.374 291.729L214.373 291.729L177.007 284.176L151.788 312.764L151.788 312.764L126.567 341.345L150.86 413.624L225.59 428.723L250.812 400.141L276.031 371.554L251.737 299.275L214.374 291.729Z" stroke="#2673B8" stroke-opacity="0.1"/>
<path d="M262.345 295.404L313.167 237.802L350.816 245.412L388.463 253.015L412.941 325.842L387.53 354.646L362.118 383.443L286.822 368.231L262.345 295.404Z" fill="white" fill-opacity="0.2"/>
<path d="M350.717 245.902L350.717 245.902L313.351 238.35L262.91 295.519L287.204 367.798L361.934 382.896L387.155 354.315L412.375 325.727L388.081 253.448L350.717 245.902Z" stroke="#2673B8" stroke-opacity="0.1"/>
<path d="M498.644 568.892L573.94 584.105L598.417 656.931L547.594 714.533L472.298 699.32L447.821 626.494L473.233 597.696L498.644 568.892Z" fill="white" fill-opacity="0.2"/>
<path d="M473.608 598.027L473.608 598.027L448.387 626.608L472.68 698.887L547.411 713.986L597.851 656.817L573.558 584.538L498.828 569.439L473.608 598.027Z" stroke="#2673B8" stroke-opacity="0.1"/>
<path d="M333.814 755.72L371.463 763.329L409.118 770.937L433.593 843.757L382.766 901.367L307.468 886.148L282.993 813.328L308.403 784.524L333.814 755.72Z" fill="white" fill-opacity="0.2"/>
<path d="M371.364 763.819L371.364 763.819L333.998 756.267L308.778 784.855L283.559 813.442L307.85 885.715L382.582 900.82L433.027 843.643L408.736 771.37L371.364 763.819Z" stroke="#2673B8" stroke-opacity="0.1"/>
<path d="M335.951 745.147L311.473 672.321L336.886 643.523L362.296 614.719L399.945 622.328L437.592 629.931L462.069 702.758L411.247 760.36L373.6 752.756L335.951 745.147Z" fill="white" fill-opacity="0.2"/>
<path d="M337.261 643.853L337.261 643.853L312.039 672.435L336.333 744.714L373.699 752.266L411.063 759.813L461.504 702.644L437.21 630.364L399.846 622.818L399.846 622.818L362.48 615.266L337.261 643.853Z" stroke="#2673B8" stroke-opacity="0.1"/>
<path d="M303.387 665.185L265.738 657.576L228.089 649.966L203.614 577.146L254.435 519.538L329.739 534.755L354.214 607.575L328.798 636.381L303.387 665.185Z" fill="white" fill-opacity="0.2"/>
<path d="M265.837 657.086L303.203 664.638L328.423 636.05L353.648 607.461L329.357 535.188L254.619 520.085L204.18 577.26L228.471 649.533L265.837 657.086Z" stroke="#2673B8" stroke-opacity="0.1"/>
<path d="M120.228 554.784L95.7528 481.963L146.573 424.355L221.871 439.574L246.347 512.395L195.526 570.003L120.228 554.784Z" fill="white" fill-opacity="0.2"/>
<path d="M146.757 424.903L96.3187 482.078L120.61 554.351L195.342 569.455L245.781 512.28L221.489 440.007L146.757 424.903Z" stroke="#2673B8" stroke-opacity="0.1"/>
<path d="M-16.1156 600.611L-40.5909 527.79L10.2297 470.182L85.5277 485.401L110.003 558.221L59.1824 615.829L-16.1156 600.611Z" fill="white" fill-opacity="0.2"/>
<path d="M10.4137 470.73L-40.025 527.904L-15.7336 600.178L58.9985 615.282L109.437 558.107L85.1457 485.834L10.4137 470.73Z" stroke="#2673B8" stroke-opacity="0.1"/>
<path d="M217.866 653.402L171.442 706.025L167.046 711.01L129.397 703.4L91.7477 695.791L67.2724 622.971L118.093 565.363L193.391 580.581L217.866 653.402Z" fill="white" fill-opacity="0.2"/>
<path d="M171.068 705.694L217.3 653.288L193.009 581.014L118.277 565.91L67.8383 623.085L92.1297 695.358L129.496 702.91L166.862 710.463L171.067 705.694L171.442 706.025L171.068 705.694Z" stroke="#2673B8" stroke-opacity="0.1"/>
<path d="M364.435 604.14L339.96 531.319L390.781 473.711L466.079 488.93L490.554 561.75L465.144 590.554L439.733 619.358L402.084 611.749L364.435 604.14Z" fill="white" fill-opacity="0.2"/>
<path d="M390.964 474.258L340.526 531.433L364.817 603.707L402.183 611.259L439.549 618.811L464.769 590.224L489.988 561.636L465.697 489.363L390.964 474.258Z" stroke="#2673B8" stroke-opacity="0.1"/>
<path d="M-46.7273 752.195L-9.07832 759.804L28.5687 767.408L53.046 840.234L2.22336 897.836L-73.0727 882.623L-97.55 809.797L-72.1376 780.999L-46.7273 752.195Z" fill="white" fill-opacity="0.2"/>
<path d="M-9.1773 760.294L-9.17737 760.294L-46.5433 752.742L-71.7627 781.33L-71.7627 781.33L-96.9841 809.911L-72.6907 882.19L2.03942 897.289L52.4801 840.12L28.1867 767.841L-9.1773 760.294Z" stroke="#2673B8" stroke-opacity="0.1"/>
<path d="M-44.6 741.618L-69.0753 668.797L-18.2546 611.189L57.0434 626.408L81.5187 699.229L56.1083 728.033L30.698 756.836L-6.95099 749.227L-44.6 741.618Z" fill="white" fill-opacity="0.2"/>
<path d="M-18.0707 611.737L-68.5094 668.912L-44.218 741.185L-6.85194 748.737L30.5141 756.289L55.7334 727.702L80.9528 699.114L56.6614 626.841L-18.0707 611.737Z" stroke="#2673B8" stroke-opacity="0.1"/>
<path d="M197.476 801.545L203.991 802.862L272.774 816.763L297.249 889.584L246.428 947.192L171.13 931.973L146.655 859.152L172.066 830.348L197.476 801.545Z" fill="white" fill-opacity="0.2"/>
<path d="M203.892 803.352L203.892 803.352L197.66 802.092L172.44 830.679L147.221 859.267L171.512 931.54L246.245 946.644L296.683 889.469L272.392 817.196L203.892 803.352Z" stroke="#2673B8" stroke-opacity="0.1"/>
<path d="M89.6125 706.37L127.262 713.979L164.909 721.583L189.386 794.409L163.976 823.213L138.563 852.011L63.2672 836.798L38.7899 763.972L64.2022 735.174L89.6125 706.37Z" fill="white" fill-opacity="0.2"/>
<path d="M127.163 714.469L127.163 714.469L89.7965 706.917L64.5772 735.505L64.5771 735.505L39.3558 764.086L63.6492 836.365L138.379 851.464L163.601 822.882L188.82 794.295L164.527 722.016L127.163 714.469Z" stroke="#2673B8" stroke-opacity="0.1"/>
<path d="M175.134 718.145L225.956 660.544L263.605 668.153L301.252 675.756L325.73 748.583L300.319 777.387L274.907 806.185L199.611 790.972L175.134 718.145Z" fill="white" fill-opacity="0.2"/>
<path d="M263.506 668.643L263.506 668.643L226.14 661.091L175.7 718.26L199.993 790.539L274.723 805.637L299.944 777.056L325.164 748.468L300.87 676.189L263.506 668.643Z" stroke="#2673B8" stroke-opacity="0.1"/>
</svg>
