<svg width="1920" height="612" viewBox="0 0 1920 612" fill="none" xmlns="http://www.w3.org/2000/svg">
<mask id="mask0_2001_5040" style="mask-type:alpha" maskUnits="userSpaceOnUse" x="0" y="0" width="1920" height="612">
<rect width="1920" height="612" fill="#D9D9D9"/>
</mask>
<g mask="url(#mask0_2001_5040)">
<path d="M1538.4 497.864L1488.99 463.64L1493.93 403.728L1548.27 378.05L1597.68 412.275L1592.75 472.187L1565.57 485.023L1538.4 497.864Z" fill="white" fill-opacity="0.05"/>
<path d="M1565.36 484.571L1565.36 484.571L1592.27 471.858L1597.16 412.521L1548.22 378.626L1494.4 404.056L1489.51 463.393L1538.45 497.289L1565.36 484.571Z" stroke="#2673B8" stroke-opacity="0.1"/>
<path d="M1714.65 414.575L1689.95 397.46L1665.24 380.345L1670.17 320.438L1724.52 294.756L1773.93 328.985L1769 388.892L1741.82 401.733L1714.65 414.575Z" fill="white" fill-opacity="0.05"/>
<path d="M1690.23 397.049L1690.23 397.049L1714.7 413.999L1741.61 401.281L1768.52 388.563L1773.41 329.232L1724.47 295.331L1670.65 320.766L1665.76 380.098L1690.23 397.049Z" stroke="#2673B8" stroke-opacity="0.1"/>
<path d="M1709.85 421.513L1704.91 481.425L1677.74 494.261L1650.57 507.103L1625.86 489.988L1601.16 472.878L1606.09 412.966L1660.44 387.288L1685.14 404.398L1709.85 421.513Z" fill="white" fill-opacity="0.05"/>
<path d="M1677.52 493.809L1677.53 493.809L1704.44 481.096L1709.32 421.76L1684.86 404.809L1684.86 404.809L1660.39 387.864L1606.57 413.295L1601.68 472.631L1626.15 489.577L1626.15 489.577L1650.61 506.527L1677.52 493.809Z" stroke="#2673B8" stroke-opacity="0.1"/>
<path d="M1708.51 489.053L1733.22 506.168L1757.92 523.283L1752.99 583.19L1698.64 608.872L1649.23 574.643L1654.16 514.736L1681.34 501.895L1708.51 489.053Z" fill="white" fill-opacity="0.05"/>
<path d="M1681.56 502.347L1681.34 501.895L1681.56 502.347L1654.64 515.064L1649.75 574.396L1698.69 608.297L1752.51 582.861L1757.4 523.529L1732.93 506.579L1708.47 489.629L1681.56 502.347Z" stroke="#2673B8" stroke-opacity="0.1"/>
<path d="M1806 625.055L1801.06 684.962L1746.72 710.645L1697.31 676.415L1702.24 616.508L1756.59 590.825L1806 625.055Z" fill="white" fill-opacity="0.05"/>
<path d="M1746.77 710.069L1800.59 684.633L1805.48 625.302L1756.54 591.401L1702.72 616.837L1697.83 676.168L1746.77 710.069Z" stroke="#2673B8" stroke-opacity="0.1"/>
<path d="M1918.17 634.295L1913.24 694.202L1858.89 719.885L1809.48 685.655L1814.42 625.748L1868.76 600.066L1918.17 634.295Z" fill="white" fill-opacity="0.05"/>
<path d="M1858.94 719.309L1912.76 693.873L1917.65 634.542L1868.71 600.641L1814.89 626.077L1810 685.409L1858.94 719.309Z" stroke="#2673B8" stroke-opacity="0.1"/>
<path d="M2030.33 643.534L2025.4 703.441L1971.05 729.123L1921.64 694.894L1926.57 634.987L1980.92 609.304L2030.33 643.534Z" fill="white" fill-opacity="0.05"/>
<path d="M1971.09 728.548L2024.92 703.112L2029.81 643.78L1980.87 609.879L1927.05 635.315L1922.16 694.647L1971.09 728.548Z" stroke="#2673B8" stroke-opacity="0.1"/>
<path d="M1766.34 523.978L1815.98 500.518L1820.68 498.295L1845.39 515.41L1870.09 532.525L1865.16 592.432L1810.81 618.114L1761.4 583.885L1766.34 523.978Z" fill="white" fill-opacity="0.05"/>
<path d="M1816.19 500.97L1816.19 500.97L1766.81 524.306L1761.92 583.638L1810.86 617.539L1864.68 592.103L1869.57 532.771L1845.1 515.821L1820.63 498.871L1816.19 500.97Z" stroke="#2673B8" stroke-opacity="0.1"/>
<path d="M1645.75 514.041L1640.82 573.948L1586.47 599.631L1537.06 565.401L1542 505.494L1569.17 492.653L1596.34 479.812L1621.05 496.926L1645.75 514.041Z" fill="white" fill-opacity="0.05"/>
<path d="M1586.52 599.055L1640.34 573.62L1645.23 514.288L1620.76 497.338L1596.29 480.387L1569.38 493.105L1542.47 505.823L1537.58 565.155L1586.52 599.055Z" stroke="#2673B8" stroke-opacity="0.1"/>
<path d="M1982.25 541.762L1977.32 601.669L1922.97 627.352L1873.56 593.122L1878.5 533.215L1905.67 520.374L1932.84 507.532L1957.55 524.647L1982.25 541.762Z" fill="white" fill-opacity="0.05"/>
<path d="M1923.02 626.776L1976.84 601.34L1981.73 542.009L1957.26 525.058L1932.79 508.108L1905.88 520.826L1878.97 533.544L1874.08 592.875L1923.02 626.776Z" stroke="#2673B8" stroke-opacity="0.1"/>
<path d="M1826.81 423.815L1822.54 420.853L1777.41 389.586L1782.34 329.679L1836.68 303.996L1886.09 338.226L1881.16 398.133L1853.99 410.974L1826.81 423.815Z" fill="white" fill-opacity="0.05"/>
<path d="M1822.82 420.442L1822.82 420.442L1826.86 423.24L1853.77 410.522L1880.68 397.804L1885.57 338.472L1836.64 304.572L1782.81 330.008L1777.93 389.339L1822.82 420.442Z" stroke="#2673B8" stroke-opacity="0.1"/>
<path d="M1874.89 525.579L1850.19 508.464L1825.48 491.355L1830.42 431.443L1857.59 418.601L1884.76 405.765L1934.17 439.989L1929.24 499.901L1902.06 512.738L1874.89 525.579Z" fill="white" fill-opacity="0.05"/>
<path d="M1850.47 508.053L1850.47 508.053L1874.94 525.004L1901.85 512.286L1901.85 512.286L1928.76 499.573L1933.65 440.236L1884.71 406.34L1857.8 419.053L1857.8 419.053L1830.89 431.771L1826 491.108L1850.47 508.053Z" stroke="#2673B8" stroke-opacity="0.1"/>
<path d="M1817.07 490.661L1762.72 516.339L1738.02 499.224L1713.31 482.114L1718.25 422.202L1745.42 409.361L1772.59 396.525L1822 430.749L1817.07 490.661Z" fill="white" fill-opacity="0.05"/>
<path d="M1738.3 498.813L1738.3 498.813L1762.77 515.763L1816.59 490.333L1821.48 430.996L1772.55 397.1L1745.63 409.813L1745.63 409.813L1718.72 422.531L1713.83 481.868L1738.3 498.813Z" stroke="#2673B8" stroke-opacity="0.1"/>
<path d="M1731.85 221.016L1682.44 186.791L1687.37 126.879L1741.72 101.201L1791.13 135.426L1786.19 195.338L1759.02 208.174L1731.85 221.016Z" fill="white" fill-opacity="0.05"/>
<path d="M1758.81 207.722L1758.81 207.722L1785.72 195.009L1790.61 135.673L1741.67 101.777L1687.85 127.208L1682.96 186.544L1731.89 220.44L1758.81 207.722Z" stroke="#2673B8" stroke-opacity="0.1"/>
<path d="M1908.1 137.726L1883.39 120.611L1858.68 103.496L1863.62 43.589L1917.97 17.9069L1967.38 52.1363L1962.44 112.043L1935.27 124.885L1908.1 137.726Z" fill="white" fill-opacity="0.05"/>
<path d="M1883.68 120.2L1883.68 120.2L1908.14 137.151L1935.06 124.433L1961.97 111.715L1966.85 52.383L1917.92 18.4823L1864.09 43.9178L1859.2 103.249L1883.68 120.2Z" stroke="#2673B8" stroke-opacity="0.1"/>
<path d="M1903.29 144.663L1898.36 204.575L1871.18 217.412L1844.01 230.253L1819.31 213.138L1794.6 196.028L1799.54 136.116L1853.88 110.439L1878.59 127.549L1903.29 144.663Z" fill="white" fill-opacity="0.05"/>
<path d="M1870.97 216.96L1870.97 216.96L1897.88 204.247L1902.77 144.91L1878.3 127.96L1878.3 127.96L1853.83 111.014L1800.01 136.445L1795.12 195.782L1819.59 212.727L1819.59 212.727L1844.06 229.678L1870.97 216.96Z" stroke="#2673B8" stroke-opacity="0.1"/>
<path d="M1901.96 212.205L1926.66 229.319L1951.37 246.434L1946.43 306.341L1892.09 332.024L1842.67 297.794L1847.61 237.887L1874.79 225.046L1901.96 212.205Z" fill="white" fill-opacity="0.05"/>
<path d="M1875 225.498L1874.79 225.046L1875 225.498L1848.08 238.216L1843.2 297.547L1892.14 331.448L1945.96 306.013L1950.85 246.681L1926.38 229.73L1901.91 212.78L1875 225.498Z" stroke="#2673B8" stroke-opacity="0.1"/>
<path d="M1999.44 348.206L1994.51 408.113L1940.16 433.796L1890.75 399.566L1895.69 339.659L1950.03 313.977L1999.44 348.206Z" fill="white" fill-opacity="0.05"/>
<path d="M1940.21 433.22L1994.03 407.785L1998.92 348.453L1949.99 314.552L1896.16 339.988L1891.28 399.32L1940.21 433.22Z" stroke="#2673B8" stroke-opacity="0.1"/>
<path d="M1839.2 237.193L1834.26 297.1L1779.92 322.782L1730.51 288.553L1735.44 228.646L1762.61 215.804L1789.79 202.963L1814.49 220.078L1839.2 237.193Z" fill="white" fill-opacity="0.05"/>
<path d="M1779.96 322.207L1833.79 296.771L1838.67 237.439L1814.21 220.489L1789.74 203.539L1762.83 216.256L1735.92 228.974L1731.03 288.306L1779.96 322.207Z" stroke="#2673B8" stroke-opacity="0.1"/>
<path d="M2010.51 213.813L1956.17 239.49L1931.46 222.376L1906.76 205.266L1911.69 145.354L1938.87 132.512L1966.04 119.676L2015.45 153.901L2010.51 213.813Z" fill="white" fill-opacity="0.05"/>
<path d="M1931.75 221.964L1931.75 221.965L1956.22 238.915L2010.04 213.484L2014.93 154.147L1965.99 120.251L1939.08 132.965L1939.08 132.965L1912.17 145.682L1907.28 205.019L1931.75 221.964Z" stroke="#2673B8" stroke-opacity="0.1"/>
</g>
</svg>
