<svg width="105" height="79" viewBox="0 0 105 79" fill="none" xmlns="http://www.w3.org/2000/svg">
<path d="M37.2314 68.7916C37.2314 68.7916 28.407 71.2425 28.407 66.8261C28.407 62.4098 30.2047 55.215 32.4934 57.505C34.782 59.7951 37.2314 68.7916 37.2314 68.7916Z" fill="url(#paint0_linear_1073_79706)"/>
<path opacity="0.5" d="M42.3789 67.3502C42.3789 67.3502 38.0277 69.9679 35.7122 69.0566C33.3968 68.1453 27.5991 61.0369 30.8968 56.2304C34.1944 51.4269 33.6259 52.8951 34.3075 53.6396C34.989 54.3841 42.3789 67.3502 42.3789 67.3502Z" fill="#201414"/>
<path d="M46.6152 67.3263C46.6152 67.3263 40.8236 70.8075 37.7402 69.5985C34.6599 68.3864 26.9426 58.9224 31.3325 52.5257C35.7194 46.129 34.9634 48.0855 35.8712 49.0772C36.7789 50.0689 46.6152 67.3293 46.6152 67.3293L46.6152 67.3263Z" fill="url(#paint1_linear_1073_79706)"/>
<path opacity="0.5" d="M50.5674 66.0309C50.5674 66.0309 47.3204 69.673 43.5823 68.1959C38.2251 66.0785 32.8948 55.7062 33.0704 51.5311C33.246 47.356 37.7817 44.4375 40.1299 44.9438C42.4811 45.4501 50.5674 66.0309 50.5674 66.0309Z" fill="#201414"/>
<path d="M52.5849 65.7421C52.5849 65.7421 49.0194 69.7832 44.9212 68.1542C39.0492 65.8195 33.2248 54.3304 33.4242 49.7026C33.6236 45.0749 38.6028 41.8348 41.1802 42.3887C43.7575 42.9456 52.5879 65.7421 52.5879 65.7421L52.5849 65.7421Z" fill="url(#paint2_linear_1073_79706)"/>
<path opacity="0.5" d="M58.3574 54.5926C58.3574 54.5926 55.5984 64.1072 52.2383 65.9119C48.8782 67.7136 35.3336 45.9326 38.1163 42.6538C40.899 39.378 51.5032 42.5972 52.9675 43.1631C54.4288 43.7289 58.3604 54.5926 58.3604 54.5926L58.3574 54.5926Z" fill="#201414"/>
<path d="M60.7764 59.3512C60.7764 59.3512 54.9014 67.6598 52.1276 65.8671C49.3538 64.0743 34.5948 44.1814 39.2287 41.5221C43.8627 38.8627 50.7139 39.3154 51.1752 40.3398C51.6365 41.3642 60.7764 59.3483 60.7764 59.3483L60.7764 59.3512Z" fill="url(#paint3_linear_1073_79706)"/>
<path opacity="0.5" d="M65.0244 50.8611C65.0244 50.8611 62.3548 60.4026 59.0125 62.237C55.6703 64.0714 41.9173 42.4185 44.6673 39.1159C47.4173 35.8133 58.0542 38.9313 59.5214 39.4822C60.9887 40.0331 65.0244 50.8581 65.0244 50.8581L65.0244 50.8611Z" fill="#201414"/>
<path d="M65.9326 50.2536C65.9326 50.2536 63.263 59.7951 59.9207 61.6295C56.5784 63.4639 42.8255 41.811 45.5755 38.5084C48.3255 35.2058 58.9624 38.3238 60.4296 38.8747C61.8969 39.4256 65.9326 50.2506 65.9326 50.2506L65.9326 50.2536Z" fill="url(#paint4_linear_1073_79706)"/>
<path style="mix-blend-mode:screen" opacity="0.3" d="M64.3369 47.7431C64.3369 47.7431 57.084 59.4615 47.7387 61.8856C38.3935 64.3097 33.1107 62.3025 34.5661 57.5169C36.0215 52.7313 42.6078 41.0099 59.5125 41.0844C76.4173 41.1588 64.3369 47.7431 64.3369 47.7431Z" fill="url(#paint5_linear_1073_79706)"/>
<path opacity="0.5" d="M66.2581 52.8414L65.779 56.1797L66.9456 52.9933L66.8147 56.3763L67.6421 53.1064L67.8623 56.5132L68.3415 53.1779L68.9129 56.5877L69.0409 53.2047L69.9575 56.5996L69.7343 53.1928L70.9933 56.549L70.4189 53.1362L72.0111 56.4358L71.0915 53.0409L73.0052 56.2601L71.7462 52.9039L73.9724 56.0249L72.3772 52.7282L74.901 55.73L72.9843 52.5108L75.7909 55.3757L73.5617 52.2577L76.6331 54.9677L74.1064 51.9659L77.4248 54.5091L74.6153 51.6442L78.1599 53.9968L75.0855 51.2869L78.8325 53.44L75.5141 50.8997L79.4397 52.8384L75.895 50.4858L79.9784 52.1981L76.2314 50.048L80.4456 51.5221L76.5171 49.5865L80.8385 50.8164L76.7522 49.104L81.151 50.0808L76.9367 48.6067L81.3861 49.3244L77.0647 48.0945L81.5409 48.5471L77.1391 47.5733L81.6123 47.758L77.1599 47.0462L81.6004 46.9628L77.1272 46.5132L81.5081 46.1618L77.0379 45.9801L81.3325 45.3637L76.8921 45.4471L81.0766 44.5715L76.6956 44.9229L80.7433 43.7913L76.4486 44.4077L80.3296 43.026L76.148 43.9045L79.8444 42.2815L75.7998 43.4161L79.2879 41.5638L75.404 42.9485L78.6599 40.8758L74.9665 42.5018L77.9724 40.2207L74.4843 42.076L77.2224 39.6042L73.9665 41.6799L76.4159 39.0325L73.4129 41.3106L75.5617 38.5024L72.8266 40.9741L74.6599 38.0229L72.2135 40.6733L73.7194 37.5941L71.5736 40.4053L72.7462 37.2219L70.9159 40.173L71.7462 36.9032L70.2403 39.9825L70.7224 36.6471L69.5528 39.8306L69.6837 36.4476L68.8564 39.7174L68.6361 36.3106L68.1569 39.6489L67.5855 36.2361L67.4575 39.6191L66.5409 36.2242L66.7641 39.631L65.5052 36.2749L66.0796 39.6876L64.4873 36.388L65.4069 39.7829L63.4933 36.5637L64.7552 39.9199L62.529 36.799L64.1212 40.0986L61.5974 37.0968L63.5141 40.313L60.7075 37.4482L62.9367 40.5661L59.8653 37.8562L62.3921 40.858L59.0736 38.3178L61.8831 41.1826L58.3415 38.827L61.4129 41.537L57.6659 39.3839L60.9873 41.9241L57.0587 39.9854L60.6034 42.338L56.52 40.6257L60.2671 42.7758L56.0528 41.3017L59.9814 43.2374L55.6629 42.0105L59.7462 43.7198L55.3474 42.743L59.5647 44.2171L55.1123 43.5024L59.4337 44.7294L54.9605 44.2767L59.3593 45.2505L54.8891 45.0659L59.3385 45.7806L54.898 45.861L59.3742 46.3107L54.9933 46.6621L59.4635 46.8467L55.1659 47.4602L59.6064 47.3768L55.4218 48.2523L59.8028 47.9009L55.7581 49.0325L60.0528 48.4161L56.1689 49.7979L60.3504 48.9194L56.654 50.5424L60.6986 49.4078L57.2135 51.2601L61.0944 49.8753L57.8385 51.948L61.5319 50.325L58.529 52.6032L62.0141 50.7479L59.279 53.2196L62.5319 51.1439L60.0825 53.7943L63.0855 51.5132L60.9397 54.3214L63.6718 51.8497L61.8385 54.8009L64.2849 52.1535L62.779 55.2297L64.9248 52.4185L63.7522 55.602L65.5825 52.6508L64.7552 55.9206L66.2581 52.8414Z" fill="#F7C800"/>
<path d="M58.2792 44.5866L55.6572 45.7153L58.434 45.1137L55.9102 46.4985L58.6185 45.6289L56.2137 47.2608L58.8387 46.1292L56.5649 47.9994L59.0858 46.6116L56.9578 48.7052L59.3625 47.0702L57.3953 49.3782L59.6661 47.508L57.8685 50.0095L59.9965 47.916L58.3804 50.6021L60.3477 48.2942L58.925 51.1471L60.7227 48.6426L59.4994 51.6415L61.1125 48.9553L60.1006 52.0852L61.5203 49.2323L60.7227 52.4753L61.9429 49.4705L61.3655 52.8029L62.3744 49.673L62.0203 53.0739L62.8179 49.8308L62.6869 53.2823L63.2643 49.95L63.3596 53.4312L63.7137 50.0274L64.0352 53.5146L64.1631 50.0601L64.7108 53.5325L64.6125 50.0512L65.3774 53.4878L65.053 50.0006L66.0352 53.3776L65.4875 49.9083L66.681 53.2049L65.9131 49.7713L67.306 52.9696L66.3209 49.5956L67.9102 52.6748L66.7167 49.3782L68.4875 52.3204L67.0917 49.1221L69.0352 51.9095L67.4488 48.8302L69.553 51.4449L67.7792 48.5027L70.0322 50.9297L68.0887 48.1423L70.4756 50.3639L68.3685 47.7522L70.8744 49.7564L68.6215 47.3323L71.2316 49.1042L68.8417 46.8856L71.5411 48.4193L69.0352 46.4151L71.803 47.6986L69.1929 45.9267L72.0143 46.9511L69.3179 45.4204L72.178 46.1798L69.4072 44.8993L72.2852 45.3907L69.4637 44.3662L72.3417 44.5866L69.4816 43.8272L72.3477 43.7706L69.4667 43.2823L72.2971 42.9547L69.4161 42.7373L72.1959 42.1387L69.3328 42.1953L72.0411 41.3287L69.2108 41.6593L71.8358 40.5306L69.059 41.1321L71.5798 39.7474L68.8715 40.617L71.2762 38.985L68.6542 40.1167L70.928 38.2465L68.4072 39.6342L70.5322 37.5407L68.1304 39.1756L70.0977 36.8677L67.8238 38.7378L69.6215 36.2363L67.4965 38.3299L69.1125 35.6437L67.1453 37.9517L68.5679 35.0988L66.7703 37.6032L67.9935 34.6014L66.3774 37.2905L67.3923 34.1607L65.9697 37.0136L66.7703 33.7706L65.55 36.7724L66.1274 33.443L65.1155 36.5729L65.4727 33.172L64.675 36.412L64.806 32.9606L64.2286 36.2959L64.1304 32.8146L63.7792 36.2185L63.4548 32.7313L63.3268 36.1857L62.7822 32.7134L62.8804 36.1917L62.1155 32.7581L62.4369 36.2453L61.4548 32.8682L62.0024 36.3376L60.8119 33.041L61.5798 36.4746L60.1869 33.2762L61.1691 36.6503L59.5828 33.571L60.7762 36.8677L59.0054 33.9254L60.3982 37.1238L58.4548 34.3364L60.0441 37.4156L57.9399 34.801L59.7107 37.7432L57.4578 35.3161L59.4042 38.1035L57.0173 35.882L59.1244 38.4937L56.6185 36.4895L58.8715 38.9136L56.2613 37.1417L58.6483 39.3602L55.9518 37.8266L58.4578 39.8308L55.6899 38.5473L58.3 40.3192L55.4756 39.2947L58.175 40.8254L55.3149 40.066L58.0858 41.3466L55.2048 40.8552L58.0292 41.8796L55.1482 41.6593L58.0084 42.4186L55.1453 42.4722L58.0232 42.9636L55.1959 43.2912L58.0738 43.5086L55.2971 44.1072L58.1602 44.0506L55.4518 44.9172L58.2792 44.5866Z" fill="#702C00"/>
<path d="M69.2726 49.253L72.4154 50.7569L75.5672 52.2459C77.6654 53.2405 79.7696 54.2292 81.8767 55.2089L81.5374 54.4079C80.4452 56.9987 79.3946 59.6044 78.3142 62.1983L78.2339 62.3918L78.2696 62.6539C78.4571 64.0178 78.6297 65.3877 78.8083 66.7516C78.9035 67.4336 78.9987 68.1155 79.1089 68.7975C79.1595 69.137 79.219 69.4765 79.2815 69.816C79.344 70.1554 79.3946 70.4949 79.466 70.8314L79.5017 70.9982L79.5434 71.0816C79.6803 71.3615 79.7993 71.5789 79.9333 71.8142C80.0642 72.0435 80.2011 72.2698 80.347 72.4872C80.4868 72.7106 80.6416 72.919 80.7904 73.1334C80.9422 73.3478 81.1059 73.5503 81.2636 73.7588C81.4273 73.9613 81.597 74.1608 81.7636 74.3604C81.9333 74.5569 82.1178 74.7415 82.2964 74.9321C82.469 75.1257 82.6654 75.3014 82.8559 75.4771C83.0434 75.6558 83.2339 75.8345 83.4392 75.9953C83.6446 76.1591 83.838 76.3288 84.0493 76.4807L84.6892 76.9274C84.8976 77.0793 85.1357 77.1954 85.3559 77.3294C85.5791 77.4604 85.8023 77.5885 86.0404 77.6927C86.2726 77.8059 86.5107 77.9101 86.7428 78.0143L87.472 78.2675L87.8351 78.3836L88.2101 78.47C88.4601 78.5236 88.7071 78.5772 88.9541 78.6219L89.0166 78.4223C88.8023 78.2943 88.5851 78.1722 88.3737 78.0501L88.0553 77.8744L87.7517 77.6689L87.1476 77.2699C86.9571 77.121 86.7696 76.9691 86.5791 76.8261C86.3857 76.6891 86.2071 76.5283 86.0315 76.3675C85.8559 76.2067 85.6743 76.0578 85.5077 75.8881L85.0077 75.3848C84.841 75.218 84.6922 75.0334 84.5315 74.8607C84.3708 74.6879 84.222 74.5063 84.0761 74.3216C83.9303 74.137 83.7785 73.9613 83.6416 73.7677C83.5047 73.5771 83.3589 73.3955 83.2279 73.1989C83.097 73.0024 82.9601 72.8118 82.8351 72.6153C82.5851 72.2192 82.338 71.8231 82.1148 71.4122C82.0047 71.2067 81.8916 71.0042 81.7874 70.7987C81.6862 70.5992 81.5791 70.3758 81.5077 70.2061L81.5821 70.4562C81.5345 70.1138 81.472 69.7772 81.4184 69.4378C81.3618 69.0983 81.3053 68.7588 81.2398 68.4193C81.1178 67.7403 80.9809 67.0673 80.841 66.3913C80.5523 65.0422 80.2577 63.6962 79.9809 62.3472L79.9362 62.8028C80.8559 60.1464 81.8053 57.502 82.713 54.8427L82.9124 54.253L82.3708 54.0416C80.2071 53.1958 78.0404 52.359 75.8708 51.5311L72.6178 50.2834L69.3589 49.0505L69.2755 49.2411L69.2726 49.253Z" fill="url(#paint6_linear_1073_79706)"/>
<path d="M76.749 50.7868C77.6567 51.0935 78.5615 51.4062 79.4692 51.704L82.1954 52.6034L84.9216 53.4997L87.6537 54.3812L87.1865 53.592C86.8472 54.7952 86.5287 56.0042 86.2014 57.2103L85.7073 59.0209C85.5406 59.6225 85.365 60.224 85.1895 60.8256L85.124 61.0519L85.2192 61.3646C85.4037 61.9691 85.5823 62.5736 85.7728 63.1752C85.9603 63.7768 86.1597 64.3753 86.365 64.9739L86.6865 65.8643C86.7936 66.1621 86.9127 66.454 87.0258 66.7488C87.1389 67.0436 87.2549 67.3354 87.374 67.6273L87.7341 68.5028L87.7787 68.613L87.7906 68.6338C87.871 68.7679 87.9186 68.8304 87.9811 68.9168C88.0406 69.0001 88.1002 69.0716 88.1597 69.1461C88.2817 69.292 88.4037 69.4319 88.5347 69.563C88.7906 69.828 89.0615 70.0663 89.3442 70.2866C89.4811 70.3998 89.6299 70.501 89.7758 70.6023C89.9186 70.7095 90.0704 70.7988 90.2222 70.8882C90.371 70.9805 90.5228 71.0728 90.6776 71.1502C90.8353 71.2277 90.9871 71.314 91.1448 71.3855C91.3025 71.457 91.4633 71.5255 91.621 71.591C91.7787 71.6625 91.9454 71.7101 92.1061 71.7697C92.2698 71.8233 92.4276 71.8888 92.5912 71.9305L93.0853 72.0615C93.4127 72.1479 93.749 72.1985 94.0793 72.2581C94.4127 72.3027 94.749 72.3295 95.0793 72.3533L95.127 72.1508L94.6835 71.9335C94.5377 71.859 94.3889 71.7994 94.243 71.725C94.1002 71.6505 93.9573 71.5701 93.8145 71.4987C93.6716 71.4242 93.5287 71.3557 93.3948 71.2694L92.9841 71.0281C92.8442 70.9537 92.7192 70.8584 92.5853 70.778C92.4573 70.6887 92.3204 70.6142 92.1984 70.5159C92.0734 70.4236 91.9484 70.3313 91.8234 70.242C91.6984 70.1526 91.5853 70.0484 91.4662 69.9561C91.3442 69.8638 91.2311 69.7625 91.121 69.6613C91.0079 69.56 90.8948 69.4617 90.7906 69.3545C90.6865 69.2503 90.5764 69.149 90.4781 69.0359C90.2787 68.8185 90.0853 68.5981 89.9186 68.3688C89.8323 68.2556 89.7549 68.1365 89.6805 68.0234C89.6448 67.9668 89.6061 67.9102 89.5793 67.8536C89.5496 67.806 89.5109 67.7285 89.5109 67.7226L89.5674 67.8536L89.2936 66.9453C89.2043 66.6416 89.1091 66.3408 89.0109 66.043C88.9127 65.7422 88.8204 65.4414 88.7162 65.1436L88.4037 64.2503C88.1865 63.6576 87.9662 63.068 87.7311 62.4813C87.499 61.8947 87.2549 61.311 87.0168 60.7273L87.0466 61.2663C87.1567 60.6499 87.2668 60.0334 87.3829 59.42L87.743 57.5796C87.9841 56.3526 88.2341 55.1287 88.4662 53.8988L88.5883 53.2466L87.999 53.1096L85.2043 52.4634L82.4037 51.8321L79.6031 51.2037C78.6716 50.9893 77.7341 50.7957 76.7966 50.5932L76.74 50.7927L76.749 50.7868Z" fill="url(#paint7_linear_1073_79706)"/>
<path d="M75.7484 51.4805L73.2543 52.1982L70.7662 52.9308C69.1115 53.4311 67.4537 53.9225 65.8049 54.4347L65.3525 54.5746L65.2662 55.1315C65.0728 56.3823 64.8644 57.6301 64.6889 58.8808L64.1353 62.6331L64.2097 62.3204C63.671 63.5682 63.0847 64.801 62.5192 66.0399C62.3734 66.3496 62.2424 66.6623 62.1055 66.972C61.9656 67.2817 61.8377 67.5974 61.7067 67.913C61.4508 68.5414 61.2097 69.1787 60.9894 69.8219L61.1264 69.5509L60.9894 69.7743L60.8317 70.0214L60.4984 70.5217C60.2692 70.8523 60.0281 71.1799 59.7841 71.5045C59.5341 71.8261 59.2841 72.1448 59.0192 72.4545C58.7573 72.7642 58.4835 73.0649 58.2037 73.3627C57.6383 73.9464 57.043 74.5063 56.3853 75.0036C56.2186 75.1257 56.0549 75.2538 55.8793 75.3669C55.7097 75.489 55.5311 75.5933 55.3496 75.7094C55.168 75.8166 54.9835 75.9298 54.79 76.0221C54.6025 76.1323 54.4031 76.2127 54.2037 76.3169L54.2514 76.6117C54.4805 76.6296 54.7127 76.6475 54.9448 76.6415C55.177 76.6415 55.4091 76.6177 55.6442 76.5939C55.8764 76.5611 56.1115 76.5313 56.3406 76.4747C56.5728 76.4241 56.802 76.3646 57.0281 76.2961C57.2514 76.2246 57.4805 76.1531 57.6978 76.0608C57.918 75.9744 58.1383 75.8821 58.3525 75.7809C58.5639 75.6766 58.7781 75.5724 58.9865 75.4563C59.1948 75.3431 59.3942 75.218 59.5966 75.0959C60.3942 74.5867 61.1383 74.003 61.8168 73.3538C62.1591 73.0322 62.4835 72.6927 62.796 72.3383C62.9537 72.1626 63.1085 71.9839 63.2543 71.7933L63.4775 71.5075C63.5549 71.4062 63.6144 71.3198 63.7067 71.1858L63.7633 71.1025L63.8436 70.9148C64.1085 70.2895 64.3585 69.6552 64.5877 69.0149C64.7037 68.6962 64.8168 68.3746 64.921 68.05C65.0252 67.7254 65.1383 67.4038 65.2365 67.0792C65.6442 65.7778 66.0341 64.4735 66.4686 63.184L66.5371 62.9815L66.543 62.8713L66.7454 59.0833C66.8198 57.8206 66.8615 56.555 66.921 55.2923L66.3823 55.9892C67.9686 55.3042 69.546 54.5955 71.1264 53.8986L73.4924 52.8325L75.8525 51.7515L75.7484 51.4716L75.7484 51.4805Z" fill="url(#paint8_linear_1073_79706)"/>
<path opacity="0.5" d="M66.0661 45.9591C66.0661 45.9591 53.0613 31.0737 47.6545 22.9429C42.2477 14.8122 26.2948 1.29674 24.6789 6.15768C23.063 11.0186 21.6861 16.0629 35.45 23.7183C49.2138 31.3737 61.1008 45.977 62.3902 47.5313C63.6796 49.0857 66.0671 45.9563 66.0671 45.9563L66.0661 45.9591Z" fill="url(#paint9_linear_1073_79706)" stroke="#42210B" stroke-miterlimit="10"/>
<path opacity="0.5" d="M64.2545 47.6396C64.2545 47.6396 57.6205 39.315 55.7587 37.5126C53.8969 35.7102 52.7829 29.9284 52.7829 29.9284" stroke="#42210B" stroke-miterlimit="10"/>
<path opacity="0.5" d="M53.8829 33.9874C53.8829 33.9874 41.2102 26.4001 43.2597 23.9668C45.3101 21.5307 47.6563 22.9428 47.6563 22.9428C47.6563 22.9428 29.3953 14.4053 31.1506 7.13501" stroke="#42210B" stroke-miterlimit="10"/>
<path opacity="0.5" d="M48.9266 30.7521C48.9266 30.7521 46.4745 29.4735 45.6772 30.7703" stroke="#42210B" stroke-miterlimit="10"/>
<path opacity="0.5" d="M44.2044 26.7286C44.2044 26.7286 37.2519 18.6153 33.9871 18.4046C30.7213 18.1966 32.7022 22.0975 32.7022 22.0975" stroke="#42210B" stroke-miterlimit="10"/>
<path opacity="0.5" d="M32.3738 11.8426C32.3738 11.8426 27.0319 5.93965 24.54 7.5207C22.048 9.10175 30.4156 18.3055 34.1979 18.3579" stroke="#42210B" stroke-miterlimit="10"/>
<path opacity="0.5" d="M62.5417 43.6173C62.5417 43.6173 50.1261 34.3829 44.6442 29.0586C39.1624 23.7343 24.7175 16.0359 24.286 20.0204C23.8544 24.0049 23.6354 28.0944 35.4354 31.672C47.2353 35.2496 58.7486 44.4529 59.9888 45.4294C61.2318 46.4069 62.5417 43.6173 62.5417 43.6173Z" fill="url(#paint10_linear_1073_79706)" stroke="#42210B" stroke-miterlimit="10"/>
<path opacity="0.5" d="M61.4325 45.2065C61.4325 45.2065 54.9777 39.9368 53.2566 38.8667C51.5355 37.7965 49.7249 33.5574 49.7249 33.5574" stroke="#42210B" stroke-miterlimit="10"/>
<path opacity="0.5" d="M51.2355 36.4768C51.2355 36.4768 40.2822 32.7725 41.4491 30.57C42.6131 28.3665 44.6443 29.0586 44.6443 29.0586C44.6443 29.0586 29.2592 25.5502 29.4007 19.698" stroke="#42210B" stroke-miterlimit="10"/>
<path opacity="0.5" d="M46.9111 34.8224C46.9111 34.8224 44.8259 34.2503 44.4286 35.3733" stroke="#42210B" stroke-miterlimit="10"/>
<path opacity="0.5" d="M42.6302 32.5281C42.6302 32.5281 35.967 27.47 33.4327 27.8518C30.8984 28.2336 33.0605 30.8896 33.0605 30.8896" stroke="#42210B" stroke-miterlimit="10"/>
<path opacity="0.5" d="M31.1136 23.0997C31.1136 23.0997 26.048 19.4693 24.4056 21.0885C22.7623 22.7106 30.6868 28.365 33.5877 27.779" stroke="#42210B" stroke-miterlimit="10"/>
<path opacity="0.5" d="M59.2101 39.8103C59.2101 39.8103 41.0434 32.03 32.6474 27.0477C24.2514 22.0653 4.02117 16.7954 4.66849 21.8772C5.31582 26.959 6.25992 32.1023 21.9829 33.0367C37.706 33.9712 54.7453 41.9797 56.5791 42.8241C58.4128 43.6685 59.2119 39.8141 59.2119 39.8141L59.2101 39.8103Z" fill="url(#paint11_linear_1073_79706)" stroke="#42210B" stroke-miterlimit="10"/>
<path opacity="0.5" d="M58.3074 42.1097C58.3074 42.1097 48.7215 37.482 46.2644 36.6649C43.8072 35.8478 40.2983 31.1198 40.2983 31.1198" stroke="#42210B" stroke-miterlimit="10"/>
<path opacity="0.5" d="M43.0422 34.3019C43.0422 34.3019 28.3337 32.9554 29.1271 29.874C29.9206 26.7927 32.6474 27.0477 32.6474 27.0477C32.6474 27.0477 12.4897 27.2659 10.9246 19.9547" stroke="#42210B" stroke-miterlimit="10"/>
<path opacity="0.5" d="M37.1758 33.5306C37.1758 33.5306 34.4142 33.4401 34.2535 34.9536" stroke="#42210B" stroke-miterlimit="10"/>
<path opacity="0.5" d="M31.1772 31.9553C31.1772 31.9553 21.3967 27.6542 18.3627 28.8811C15.3287 30.1079 18.8029 32.7666 18.8029 32.7666" stroke="#42210B" stroke-miterlimit="10"/>
<path opacity="0.5" d="M14.0663 23.6674C14.0663 23.6674 6.69435 20.6613 5.13353 23.1657C3.5727 25.6701 15.1 30.3382 18.5305 28.7473" stroke="#42210B" stroke-miterlimit="10"/>
<path opacity="0.5" d="M55.0191 39.2289C55.0191 39.2289 39.8293 36.2858 32.5827 33.8649C25.3371 31.4412 8.98154 30.7609 10.3171 34.5429C11.6526 38.3249 13.2264 42.101 25.4121 40.2132C37.5977 38.3254 51.961 41.6289 53.5018 41.9721C55.0465 42.3134 55.0182 39.2318 55.0182 39.2318L55.0191 39.2289Z" fill="url(#paint12_linear_1073_79706)" stroke="#42210B" stroke-miterlimit="10"/>
<path opacity="0.5" d="M54.7081 41.1384C54.7081 41.1384 46.6073 39.1849 44.5916 38.9676C42.5759 38.7503 39.1096 35.7132 39.1096 35.7132" stroke="#42210B" stroke-miterlimit="10"/>
<path opacity="0.5" d="M41.7382 37.6924C41.7382 37.6924 30.26 39.0998 30.358 36.61C30.4559 34.1202 32.585 33.8631 32.585 33.8631C32.585 33.8631 17.1982 37.3706 14.7907 32.0337" stroke="#42210B" stroke-miterlimit="10"/>
<path opacity="0.5" d="M37.1221 38.0766C37.1221 38.0766 34.9915 38.4655 35.1216 39.6478" stroke="#42210B" stroke-miterlimit="10"/>
<path opacity="0.5" d="M32.2695 37.8621C32.2695 37.8621 24.0744 36.1911 21.9548 37.6329C19.8353 39.0748 22.9339 40.5325 22.9339 40.5325" stroke="#42210B" stroke-miterlimit="10"/>
<path opacity="0.5" d="M17.8062 34.3541C17.8062 34.3541 11.6697 33.2775 10.8881 35.4493C10.1084 37.6249 19.7014 39.2872 22.0629 37.5004" stroke="#42210B" stroke-miterlimit="10"/>
<path opacity="0.7" d="M66.7914 32.5822L66.2646 28.1152L66.092 32.609L65.214 28.1986L65.3926 32.6924L64.1723 28.3624L64.7051 32.8293L63.1485 28.6095L64.0265 33.0199L62.1455 28.9341L63.3688 33.2641L61.1723 29.3391L62.7289 33.559L60.2348 29.8186L62.1158 33.9014L59.336 30.3695L61.5325 34.2915L58.4819 30.989L60.9819 34.7263L57.6813 31.6739L60.464 35.2058L56.9342 32.4184L59.9878 35.721L56.2497 33.2224L59.5533 36.2719L55.6307 34.0741L59.1634 36.8586L55.0801 34.9735L58.8182 37.472L54.6039 35.9145L58.5265 38.1093L54.1991 36.8883L58.2825 38.7704L53.8747 37.8889L58.092 39.4464L53.6277 38.9163L57.9551 40.1343L53.461 39.9586L57.8717 40.8342L53.3807 41.0099L57.845 41.537L53.3807 42.0641L57.8717 42.2398L53.461 43.1153L57.9551 42.9366L53.6277 44.1576L58.092 43.6275L53.8747 45.182L58.2825 44.3035L54.1991 46.1856L58.5265 44.9617L54.6039 47.1594L58.8182 45.6019L55.0801 48.0975L59.1634 46.2154L55.6307 48.9968L59.5533 46.7991L56.2497 49.8515L59.9878 47.353L56.9342 50.6526L60.464 47.8682L57.6813 51.4001L60.9819 48.3446L58.4819 52.085L61.5325 48.7794L59.336 52.7044L62.1158 49.1695L60.2348 53.2553L62.7289 49.515L61.1723 53.7348L63.3688 49.8098L62.1456 54.1368L64.0265 50.051L63.1485 54.4644L64.7051 50.2446L64.1723 54.7086L65.3926 50.3816L65.214 54.8754L66.092 50.462L66.2646 54.9588L66.7914 50.4918L67.3212 54.9588L67.4938 50.462L68.3717 54.8754L68.1932 50.3816L69.4104 54.7086L68.8807 50.2446L70.4372 54.4644L69.5592 50.051L71.4402 54.1368L70.217 49.8098L72.4134 53.7348L70.8539 49.515L73.3509 53.2553L71.467 49.1695L74.2497 52.7044L72.0533 48.7794L75.1039 52.085L72.6039 48.3446L75.9045 51.4001L73.1217 47.8682L76.6485 50.6526L73.5979 47.353L77.3331 49.8515L74.0325 46.7991L77.9521 48.9968L74.4223 46.2154L78.5057 48.0975L74.7646 45.6019L78.9819 47.1594L75.0592 44.9617L79.3866 46.1856L75.3033 44.3035L79.711 45.182L75.4938 43.6275L79.9581 44.1576L75.6307 42.9366L80.1217 43.1153L75.714 42.2398L80.2051 42.0641L75.7408 41.537L80.2051 41.0099L75.714 40.8342L80.1217 39.9586L75.6307 40.1343L79.9581 38.9163L75.4938 39.4464L79.711 37.8889L75.3033 38.7704L79.3866 36.8883L75.0592 38.1093L78.9819 35.9145L74.7646 37.472L78.5057 34.9735L74.4223 36.8586L77.9521 34.0741L74.0325 36.2719L77.3331 33.2224L73.5979 35.721L76.6485 32.4184L73.1217 35.2058L75.9045 31.6739L72.6039 34.7263L75.1039 30.989L72.0533 34.2915L74.2497 30.3695L71.467 33.9014L73.3509 29.8186L70.8539 33.559L72.4134 29.3391L70.217 33.2641L71.4402 28.9341L69.5592 33.0199L70.4372 28.6095L68.8807 32.8293L69.4104 28.3624L68.1932 32.6924L68.3717 28.1986L67.4938 32.609L67.3211 28.1152L66.7914 32.5822Z" fill="url(#paint13_linear_1073_79706)"/>
<path d="M70.1935 32.3767L69.5685 28.3207L69.3602 32.4035L68.3215 28.3981L68.5328 32.4779L67.0864 28.547L67.7143 32.603L65.8691 28.7704L66.9108 32.7757L64.6786 29.0652L66.128 32.9961L63.5209 29.4315L65.3721 33.2641L62.4078 29.8663L64.6429 33.5768L61.3393 30.3666L63.9495 33.9312L60.3274 30.9324L63.2947 34.3273L59.375 31.5518L62.6816 34.7591L58.4911 32.2308L62.1131 35.2296L57.6786 32.9574L61.5983 35.7299L56.9405 33.7347L61.134 36.26L56.2887 34.5506L60.7262 36.8169L55.7203 35.4023L60.378 37.3976L55.2411 36.2868L60.0893 37.9962L54.8542 37.1981L59.8631 38.6126L54.5625 38.1302L59.6995 39.238L54.3661 39.0772L59.6012 39.8723L54.2679 40.0301L59.5685 40.5096L54.2679 40.989L59.6012 41.1469L54.3661 41.945L59.6995 41.7812L54.5625 42.889L59.8631 42.4065L54.8542 43.8211L60.0893 43.023L55.2411 44.7324L60.378 43.6216L55.7203 45.6168L60.7262 44.2023L56.2887 46.4685L61.134 44.7592L56.9405 47.2875L61.5983 45.2892L57.6786 48.0617L62.1131 45.7895L58.4911 48.7884L62.6816 46.2601L59.375 49.4673L63.2947 46.6919L60.3274 50.0897L63.9495 47.0879L61.3393 50.6526L64.6429 47.4423L62.4078 51.1529L65.3721 47.755L63.5209 51.5877L66.128 48.023L64.6786 51.954L66.9108 48.2434L65.8691 52.2488L67.7143 48.4161L67.0864 52.4721L68.5328 48.5412L68.3215 52.624L69.3602 48.6156L69.5685 52.6985L70.1935 48.6424L70.8215 52.6985L71.0298 48.6156L72.0685 52.624L71.8572 48.5412L73.3036 52.4721L72.6756 48.4161L74.5209 52.2488L73.4792 48.2434L75.7114 51.954L74.262 48.023L76.8691 51.5877L75.0179 47.755L77.9822 51.1529L75.7471 47.4423L79.0506 50.6526L76.4405 47.0879L80.0625 50.0897L77.0953 46.6919L81.0149 49.4673L77.7084 46.2601L81.8989 48.7884L78.2739 45.7895L82.7114 48.0617L78.7917 45.2892L83.4465 47.2875L79.256 44.7592L84.1012 46.4685L79.6637 44.2023L84.6697 45.6168L80.012 43.6216L85.1489 44.7323L80.3006 43.023L85.5358 43.8211L80.5268 42.4065L85.8274 42.889L80.6905 41.7812L86.0239 41.945L80.7887 41.1469L86.1221 40.989L80.8215 40.5096L86.1221 40.0301L80.7887 39.8723L86.0239 39.0772L80.6905 39.238L85.8274 38.1302L80.5268 38.6126L85.5358 37.198L80.3006 37.9961L85.1489 36.2868L80.012 37.3976L84.6697 35.4023L79.6637 36.8169L84.1012 34.5506L79.256 36.26L83.4465 33.7347L78.7917 35.7299L82.7114 32.9574L78.2739 35.2296L81.8989 32.2308L77.7084 34.7591L81.0149 31.5518L77.0953 34.3273L80.0625 30.9324L76.4405 33.9312L79.0506 30.3666L75.7471 33.5768L77.9822 29.8663L75.0179 33.2641L76.8691 29.4315L74.262 32.9961L75.7114 29.0652L73.4792 32.7757L74.5209 28.7704L72.6756 32.603L73.3036 28.547L71.8572 32.4779L72.0685 28.3981L71.0298 32.4035L70.8215 28.3207L70.1935 32.3767Z" fill="url(#paint14_linear_1073_79706)"/>
<path d="M82.8867 37.8979L85.4671 35.7925L82.5266 37.3231L84.9046 34.9497L82.1337 36.7722L84.2915 34.1456L81.7111 36.2511L83.6367 33.3862L81.2617 35.7597L82.9403 32.6745L80.7855 35.3041L82.2081 32.0164L80.2885 34.8812L81.4462 31.4118L79.7707 34.5L80.6605 30.8698L79.2379 34.1605L79.851 30.3934L78.6933 33.8627L79.0266 29.9824L78.1397 33.6126L78.1873 29.6399L77.5772 33.4071L77.3451 29.3689L77.0147 33.2522L76.5028 29.1724L76.4552 33.145L75.6635 29.0503L75.8956 33.0884L74.8331 29.0026L75.348 33.0825L74.0177 29.0294L74.8123 33.1242L73.2201 29.1307L74.2885 33.2195L72.4492 29.3094L73.7826 33.3624L71.7081 29.5595L73.3004 33.553L70.9998 29.8841L72.8391 33.7912L70.3302 30.2772L72.4076 34.0771L69.7022 30.7358L72.0028 34.4047L69.1218 31.2629L71.6337 34.777L68.5891 31.8496L71.2945 35.1879L68.1099 32.4928L70.9939 35.6346L67.6903 33.1927L70.732 36.1171L67.3242 33.9401L70.5117 36.6322L67.0236 34.7323L70.3302 37.1742L66.7826 35.5661L70.1903 37.7401L66.607 36.4327L70.0951 38.3297L66.4968 37.3321L70.0445 38.9372L66.4522 38.2523L70.0355 39.5596L66.473 39.1933L70.0712 40.1909L66.5623 40.1463L70.1516 40.8282L66.7141 41.1052L70.2766 41.4685L66.9314 42.0641L70.4433 42.1058L67.2141 43.02L70.6516 42.7401L67.5564 43.964L70.9016 43.3655L67.9582 44.8902L71.1873 43.976L68.4195 45.7955L71.5117 44.5686L68.9314 46.671L71.8718 45.1433L69.4968 47.5138L72.2647 45.6913L70.1099 48.3179L72.6873 46.2154L70.7647 49.0802L73.1367 46.7068L71.4582 49.792L73.6129 47.1624L72.1903 50.4501L74.1129 47.5853L72.9522 51.0516L74.6278 47.9665L73.7409 51.5966L75.1605 48.3059L74.5504 52.0731L75.7052 48.6037L75.3748 52.4841L76.2617 48.8539L76.2111 52.8265L76.8212 49.0594L77.0534 53.0975L77.3837 49.2142L77.8986 53.2941L77.9462 49.3214L78.7379 53.4162L78.5028 49.378L79.5683 53.4638L79.0504 49.384L80.3837 53.437L79.5891 49.3393L81.1784 53.3328L80.1129 49.247L81.9492 53.1571L80.6159 49.104L82.6903 52.904L81.101 48.9135L83.3986 52.5823L81.5593 48.6752L84.0683 52.1892L81.9939 48.3893L84.6962 51.7276L82.3957 48.0617L85.2796 51.2035L82.7677 47.6895L85.8093 50.6169L83.104 47.2785L86.2885 49.9736L83.4046 46.8318L86.7111 49.2738L83.6665 46.3494L87.0742 48.5263L83.8897 45.8342L87.3778 47.7342L84.0712 45.2922L87.6189 46.9003L84.2081 44.7234L87.7945 46.0308L84.3034 44.1368L87.9046 45.1344L84.357 43.5293L87.9492 44.2142L84.3629 42.9069L87.9254 43.2731L84.3272 42.2755L87.8391 42.3202L84.2468 41.6382L87.6843 41.3613L84.1218 40.998L87.4671 40.3994L83.9552 40.3577L87.1873 39.4464L83.7468 39.7264L86.8421 38.5024L83.4998 39.101L86.4403 37.5763L83.2111 38.4905L85.982 36.671L82.8867 37.8979Z" fill="url(#paint15_linear_1073_79706)"/>
<path d="M70.4074 36.7156L69.7794 32.6596L69.5741 36.7424L68.5324 32.734L68.7437 36.8169L67.2973 32.8859L67.9253 36.9419L66.08 33.1093L67.1217 37.1147L64.8896 33.4041L66.339 37.335L63.7348 33.7704L65.583 37.603L62.6187 34.2052L64.8538 37.9127L61.5503 34.7055L64.1604 38.2701L60.5384 35.2683L63.5056 38.6632L59.586 35.8907L62.8925 39.098L58.7021 36.5667L62.3271 39.5655L57.8896 37.2963L61.8092 40.0688L57.1544 38.0706L61.3449 40.5989L56.4997 38.8866L60.9372 41.1558L55.9312 39.7412L60.589 41.7365L55.4521 40.6257L60.3003 42.3351L55.0652 41.537L60.0741 42.9485L54.7735 42.4691L59.9104 43.5769L54.5771 43.4131L59.8122 44.2082L54.4788 44.369L59.7794 44.8485L54.4788 45.3279L59.8122 45.4858L54.5771 46.2809L59.9104 46.1201L54.7735 47.2279L60.0741 46.7455L55.0652 48.16L60.3003 47.3589L55.4521 49.0683L60.589 47.9605L55.9312 49.9527L60.9372 48.5382L56.4997 50.8074L61.3449 49.0951L57.1544 51.6234L61.8092 49.6281L57.8896 52.3977L62.3271 50.1284L58.7021 53.1273L62.8925 50.596L59.586 53.8033L63.5056 51.0308L60.5384 54.4257L64.1604 51.4268L61.5503 54.9885L64.8538 51.7812L62.6187 55.4888L65.583 52.0939L63.7348 55.9236L66.339 52.3589L64.8896 56.2899L67.1217 52.5823L66.08 56.5877L67.9253 52.755L67.2973 56.811L68.7437 52.8801L68.5324 56.9599L69.5741 52.9545L69.7794 57.0344L70.4074 52.9784L71.0324 57.0344L71.2407 52.9545L72.2794 56.9599L72.0681 52.8801L73.5175 56.811L72.8866 52.755L74.7318 56.5877L73.6902 52.5823L75.9223 56.2899L74.4729 52.3589L77.08 55.9236L75.2318 52.0939L78.1961 55.4888L75.958 51.7812L79.2616 54.9885L76.6515 51.4268L80.2735 54.4257L77.3062 51.0308L81.2259 53.8033L77.9193 50.596L82.1098 53.1273L78.4878 50.1284L82.9223 52.3977L79.0027 49.6281L83.6604 51.6234L79.4669 49.0951L84.3122 50.8074L79.8747 48.5382L84.8806 49.9527L80.2229 47.9605L85.3598 49.0683L80.5116 47.3589L85.7467 48.16L80.7378 46.7455L86.0384 47.2279L80.9015 46.1201L86.2348 46.2809L80.9997 45.4858L86.333 45.3279L81.0324 44.8485L86.333 44.369L80.9997 44.2082L86.2348 43.4131L80.9015 43.5769L86.0384 42.4691L80.7378 42.9485L85.7467 41.537L80.5116 42.3351L85.3598 40.6257L80.2229 41.7365L84.8806 39.7412L79.8747 41.1558L84.3122 38.8865L79.4669 40.5989L83.6604 38.0706L79.0027 40.0688L82.9223 37.2963L78.4878 39.5655L82.1098 36.5667L77.9193 39.098L81.2259 35.8907L77.3062 38.6632L80.2735 35.2683L76.6515 38.2701L79.2616 34.7055L75.958 37.9127L78.1961 34.2052L75.2318 37.603L77.08 33.7704L74.4729 37.335L75.9223 33.4041L73.6902 37.1146L74.7318 33.1093L72.8866 36.9419L73.5175 32.8859L72.0681 36.8169L72.2794 32.734L71.2407 36.7424L71.0324 32.6596L70.4074 36.7156Z" fill="url(#paint16_radial_1073_79706)"/>
<path d="M72.5759 50.3609L71.9747 53.6664L73.1027 50.471L72.7723 53.8034L73.6414 50.5425L73.5818 53.8808L74.183 50.5753L74.3973 53.8957L74.7277 50.5634L75.2158 53.8511L75.2693 50.5127L76.0283 53.7438L75.808 50.4204L76.8318 53.5771L76.3408 50.2894L77.6205 53.3478L76.8616 50.1196L78.3914 53.0649L77.3676 49.9112L79.1384 52.7224L77.8557 49.664L79.8586 52.3263L78.3259 49.3841L80.5432 51.8796L78.7723 49.0684L81.1949 51.3823L79.192 48.72L81.8021 50.8403L79.5818 48.3448L82.3676 50.2536L79.942 47.9427L82.8824 49.6313L80.2693 47.5139L83.3467 48.9731L80.561 47.0642L83.7574 48.2822L80.817 46.5937L84.1116 47.5645L81.0342 46.1083L84.4063 46.826L81.2098 45.608L84.6414 46.0666L81.3467 45.0988L84.814 45.2983L81.439 44.5836L84.9241 44.5181L81.4926 44.0624L84.9688 43.7348L81.5015 43.5413L84.9479 42.9546L81.4658 43.0201L84.8676 42.1803L81.3914 42.5079L84.7188 41.415L81.2723 42.0017L84.5104 40.6645L81.1116 41.5103L84.2426 39.9379L80.9122 41.0308L83.9122 39.2321L80.6711 40.5722L83.5253 38.5561L80.3943 40.1315L83.0818 37.9159L80.0818 39.7146L82.5848 37.3113L79.7366 39.3244L82.0402 36.7455L79.3557 38.9641L81.4509 36.2273L78.9479 38.6336L80.817 35.7538L78.5134 38.3328L80.1443 35.331L78.0521 38.0707L79.439 34.9617L77.5729 37.8414L78.7039 34.649L77.0729 37.6538L77.942 34.3929L76.558 37.5019L77.1592 34.1934L76.0313 37.3888L76.3616 34.0564L75.4926 37.3173L75.5521 33.979L74.9509 37.2875L74.7366 33.9641L74.4063 37.2964L73.9182 34.0117L73.8646 37.3471L73.1057 34.1189L73.3259 37.4394L72.3021 34.2857L72.7932 37.5704L71.5134 34.512L72.2723 37.7431L70.7426 34.7979L71.7664 37.9516L69.9955 35.1404L71.2783 38.1988L69.2753 35.5364L70.808 38.4787L68.5908 35.9831L70.3616 38.7944L67.939 36.4805L69.942 39.1398L67.3318 37.0225L69.5521 39.515L66.7664 37.6062L69.192 39.92L66.2515 38.2315L68.8646 40.3489L65.7872 38.8897L68.5729 40.7985L65.3765 39.5806L68.317 41.2661L65.0223 40.2982L68.0997 41.7545L64.7277 41.0368L67.9241 42.2518L64.4926 41.7932L67.7872 42.761L64.3199 42.5645L67.6949 43.2792L64.2098 43.3447L67.6414 43.8004L64.1652 44.125L67.6324 44.3215L64.186 44.9082L67.6682 44.8397L64.2664 45.6824L67.7455 45.3549L64.4152 46.4478L67.8616 45.8581L64.6235 47.1953L68.0223 46.3525L64.8943 47.9249L68.2217 46.8319L65.2217 48.6277L68.4628 47.2906L65.6116 49.3037L68.7396 47.7313L66.0521 49.9469L69.0521 48.1452L66.5491 50.5514L69.3973 48.5354L67.0938 51.1143L69.7783 48.8987L67.683 51.6354L70.186 49.2292L68.317 52.1089L70.6205 49.527L68.9896 52.5288L71.0818 49.7921L69.6949 52.8981L71.561 50.0184L70.4301 53.2138L72.061 50.209L71.192 53.4699L72.5759 50.3609Z" fill="#FBB03B"/>
<path opacity="0.6" d="M68.9859 46.5429L68.4561 50.2177L69.7418 46.7127L69.599 50.4381L70.5097 46.8348L70.7507 50.587L71.2805 46.9122L71.9085 50.6704L72.0484 46.9449L73.0603 50.6823L72.8132 46.93L74.1972 50.6257L73.5662 46.8705L75.3192 50.5006L74.3073 46.7633L76.4144 50.3071L75.0275 46.6114L77.4769 50.048L75.724 46.4178L78.5037 49.7234L76.3906 46.1796L79.4829 49.3363L77.0275 45.8997L80.4085 48.8866L77.6287 45.581L81.2805 48.3773L78.1882 45.2237L82.09 47.8145L78.7061 44.8306L82.8311 47.201L79.1763 44.4047L83.5007 46.5399L79.596 43.9491L84.093 45.8341L79.968 43.4667L84.6079 45.0897L80.2835 42.9574L85.0394 44.3124L80.5424 42.4273L85.3847 43.5024L80.7418 41.8794L85.6436 42.6686L80.8847 41.3165L85.8132 41.8168L80.968 40.7418L85.8906 40.9473L80.9888 40.1611L85.8787 40.0688L80.9531 39.5744L85.7775 39.1903L80.8549 38.9878L85.5841 38.3088L80.6942 38.4041L85.3013 37.4362L80.4799 37.8234L84.9353 36.5786L80.2031 37.2576L84.4799 35.7358L79.8757 36.7036L83.9442 34.9169L79.4918 36.1676L83.3311 34.1247L79.0573 35.6494L82.6436 33.3683L78.5722 35.1551L81.8817 32.6476L78.0454 34.6905L81.0573 31.9687L77.474 34.2528L80.1704 31.3373L76.8638 33.8478L79.2269 30.7536L76.218 33.4755L78.2359 30.2265L75.5424 33.145L77.2031 29.756L74.84 32.8501L76.1287 29.3421L74.1138 32.594L75.0275 28.9936L73.3698 32.3826L73.8996 28.7107L72.6138 32.2158L72.7567 28.4904L71.846 32.0937L71.6019 28.3415L71.0751 32.0163L70.4472 28.2581L70.3073 31.9835L69.2954 28.2462L69.5424 31.9984L68.1555 28.3028L68.7894 32.058L67.0365 28.4278L68.0484 32.1652L65.9412 28.6184L67.3281 32.3141L64.8787 28.8805L66.6317 32.5106L63.8519 29.2051L65.965 32.7489L62.8728 29.5922L65.3281 33.0288L61.9472 30.0419L64.7269 33.3475L61.0751 30.5511L64.1674 33.7048L60.2656 31.111L63.6496 34.0949L59.5246 31.7245L63.1793 34.5208L58.8549 32.3886L62.7597 34.9764L58.2627 33.0914L62.3877 35.4618L57.7478 33.8359L62.0722 35.9681L57.3162 34.6161L61.8132 36.4982L56.971 35.4261L61.6138 37.0461L56.7121 36.2599L61.471 37.609L56.5424 37.1116L61.3877 38.1837L56.465 37.9812L61.3638 38.7674L56.4769 38.8567L61.4025 39.3541L56.5781 39.7382L61.5007 39.9407L56.7716 40.6197L61.6615 40.5244L57.0543 41.4893L61.8757 41.1021L57.4204 42.3499L62.1496 41.6709L57.8757 43.1927L62.4799 42.2248L58.4115 44.0116L62.8638 42.7609L59.0246 44.8008L63.2984 43.279L59.7121 45.5602L63.7835 43.7704L60.474 46.2808L64.3103 44.2379L61.2984 46.9598L64.8817 44.6757L62.1853 47.5912L65.4918 45.0807L63.1257 48.1719L66.1376 45.45L64.1198 48.7019L66.8132 45.7835L65.1525 49.1725L67.5156 46.0783L66.2269 49.5834L68.2418 46.3315L67.3281 49.9348L68.9859 46.5429Z" fill="#702C00"/>
<path d="M75.1224 48.7498L75.542 51.439L75.5539 48.6933L76.1908 51.3288L75.9855 48.6069L76.8278 51.1739L76.4081 48.4848L77.4557 50.9684L76.8218 48.3329L78.0688 50.7153L77.2236 48.1483L78.6611 50.4175L77.6105 47.9339L79.2325 50.075L77.9825 47.6926L79.7742 49.6909L78.3337 47.4217L80.2891 49.265L78.6641 47.1268L80.7682 48.8064L78.9736 46.8082L81.2117 48.3121L79.2593 46.4687L81.6194 47.7879L79.5153 46.1113L81.9825 47.234L79.7444 45.7331L82.3039 46.6563L79.9438 45.34L82.5807 46.0577L80.1105 44.938L82.8069 45.4443L80.2474 44.5211L82.9885 44.8159L80.3516 44.1012L83.1164 44.1786L80.42 43.6724L83.1968 43.5354L80.4557 43.2435L83.2266 42.8921L80.4587 42.8147L83.2028 42.2519L80.426 42.3889L83.1313 41.6176L80.3605 41.969L83.0063 40.9922L80.2623 41.558L82.8337 40.3817L80.1284 41.156L82.6105 39.7891L79.9647 40.7688L82.3397 39.2173L79.7712 40.3966L82.0272 38.6723L79.545 40.0422L81.667 38.1542L79.292 39.7057L81.2653 37.6717L79.0123 39.396L80.8248 37.2191L78.7057 39.1071L80.3516 36.8081L78.3783 38.8451L79.8397 36.4329L78.0272 38.6098L79.301 36.1023L77.6581 38.4043L78.7355 35.8164L77.2712 38.2286L78.1432 35.5782L76.8724 38.0827L77.5331 35.3846L76.4587 37.9725L76.9081 35.2417L76.0391 37.8921L76.2712 35.1464L75.6105 37.8474L75.6254 35.1017L75.176 37.8355L74.9736 35.1107L74.7414 37.8564L74.3218 35.1672L74.3099 37.91L73.676 35.2745L73.8813 37.9993L73.0361 35.4323L73.4587 38.1214L72.4081 35.6378L73.045 38.2733L71.795 35.8909L72.6432 38.4579L71.2028 36.1887L72.2533 38.6694L70.6343 36.5312L71.8843 38.9136L70.0897 36.9153L71.5301 39.1816L69.5778 37.3382L71.1998 39.4764L69.0956 37.7998L70.8903 39.795L68.6522 38.2941L70.6075 40.1345L68.2474 38.8183L70.3486 40.4949L67.8813 39.3722L70.1224 40.8731L67.5599 39.9499L69.923 41.2632L67.2861 40.5455L69.7533 41.6682L67.0569 41.1619L69.6194 42.0821L66.8783 41.7873L69.5153 42.505L66.7474 42.4246L69.4438 42.9309L66.667 43.0678L69.4081 43.3627L66.6373 43.7141L69.4051 43.7915L66.6611 44.3543L69.4379 44.2173L66.7355 44.9886L69.5033 44.6372L66.8575 45.614L69.6045 45.0482L67.0331 46.2245L69.7355 45.4502L67.2534 46.8171L69.8992 45.8374L67.5242 47.3859L70.0956 46.2096L67.8397 47.9339L70.3188 46.564L68.1998 48.4491L70.5718 46.8975L68.5986 48.9345L70.8545 47.2102L69.0391 49.3871L71.1581 47.4991L69.5153 49.7981L71.4885 47.7611L70.0242 50.1703L71.8367 47.9964L70.5629 50.5009L72.2057 48.2019L71.1313 50.7898L72.5926 48.3776L71.7206 51.028L72.9944 48.5205L72.3307 51.2216L73.4051 48.6337L72.9557 51.3645L73.8278 48.7141L73.5956 51.4598L74.2563 48.7588L74.2414 51.5015L74.6879 48.7707L74.8903 51.4955L75.1224 48.7498Z" fill="#200E0C"/>
<path d="M70.6998 50.8612L71.2206 53.5414L71.2653 50.7957L72.0658 53.4163L71.8278 50.6945L72.9051 53.2406L72.3813 50.5605L73.7266 53.0173L72.923 50.3967L74.5272 52.7493L73.4498 50.2031L75.3069 52.4336L73.9587 49.9768L76.0539 52.0763L74.4468 49.7266L76.7682 51.6772L74.9111 49.4467L77.4438 51.2394L75.3456 49.1429L78.0778 50.7659L75.7533 48.8154L78.6611 50.2567L76.1283 48.4669L79.1968 49.7207L76.4676 48.1006L79.6789 49.1578L76.7712 47.7165L80.1045 48.5712L77.0331 47.3204L80.4736 47.9666L77.2593 46.9094L80.7772 47.3442L77.4408 46.4925L81.0182 46.7129L77.5807 46.0667L81.1968 46.0697L77.676 45.6379L81.3069 45.4264L77.7295 45.206L81.3516 44.7802L77.7355 44.7772L81.3278 44.1369L77.6998 44.3514L81.2414 43.5056L77.6164 43.9315L81.0837 42.8832L77.4914 43.5235L80.8635 42.2757L77.3248 43.1244L80.5807 41.689L77.1135 42.7403L80.2325 41.1262L76.8605 42.374L79.8278 40.5872L76.5718 42.0256L79.3635 40.0809L76.2444 41.698L78.8456 39.6045L75.8813 41.3912L78.2772 39.1667L75.4855 41.1113L77.6581 38.7647L75.0569 40.8582L76.9974 38.4073L74.6045 40.6319L76.295 38.0887L74.1224 40.4383L75.5569 37.8177L73.6224 40.2715L74.7891 37.5943L73.0986 40.1375L73.9944 37.4186L72.5629 40.0363L73.1789 37.2906L72.0123 39.9707L72.3456 37.2161L71.4528 39.935L71.5004 37.1893L70.8873 39.935L70.6522 37.2131L70.3188 39.9678L69.801 37.2876L69.7533 40.0333L68.9528 37.4127L69.1908 40.1345L68.1164 37.5884L68.6373 40.2656L67.295 37.8117L68.0956 40.4323L66.4914 38.0797L67.5688 40.6259L65.7147 38.3954L67.0599 40.8493L64.9647 38.7528L66.5718 41.1024L64.2504 39.1518L66.1105 41.3823L63.5748 39.5896L65.673 41.6861L62.9438 40.0631L65.2653 42.0136L62.3575 40.5693L64.8932 42.3621L61.8218 41.1083L64.5539 42.7284L61.3397 41.6712L64.2504 43.1125L60.9141 42.2578L63.9855 43.5086L60.548 42.8624L63.7623 43.9196L60.2414 43.4848L63.5778 44.3365L60.0004 44.1161L63.4408 44.7623L59.8248 44.7593L63.3426 45.1912L59.7117 45.4026L63.292 45.623L59.667 46.0488L63.2831 46.0518L59.6909 46.6921L63.3218 46.4776L59.7801 47.3234L63.4022 46.8946L59.9349 47.9458L63.5272 47.3055L60.1551 48.5533L63.6968 47.7046L60.4408 49.14L63.9081 48.0887L60.7861 49.7028L64.1581 48.455L61.1938 50.2418L64.4468 48.8035L61.6551 50.7481L64.7772 49.131L62.173 51.2245L65.1373 49.4378L62.7444 51.6623L65.5361 49.7177L63.3605 52.0643L65.9617 49.9708L64.0242 52.4217L66.417 50.1971L64.7266 52.7403L66.8962 50.3907L65.4617 53.0113L67.3992 50.5575L66.2295 53.2347L67.92 50.6915L67.0242 53.4104L68.4587 50.7927L67.8426 53.5384L69.0063 50.8583L68.676 53.6129L69.5658 50.894L69.5182 53.6397L70.1313 50.894L70.3694 53.6159L70.6998 50.8612Z" fill="#200E0C"/>
<path d="M69.5474 45.6079L70.0683 48.2851L70.1159 45.5394L70.9165 48.1601L70.6754 45.4412L71.7528 47.9873L71.229 45.3071L72.5742 47.764L71.7736 45.1434L73.3778 47.493L72.3004 44.9468L74.1546 47.1803L72.8093 44.7235L74.9046 46.82L73.2974 44.4703L75.6159 46.4209L73.7587 44.1904L76.2915 45.9831L74.1962 43.8866L76.9254 45.5096L74.601 43.562L77.5117 45.0034L74.976 43.2136L78.0474 44.4674L75.3153 42.8473L78.5296 43.9045L75.6189 42.4632L78.9552 43.3178L75.8837 42.0641L79.3212 42.7133L76.107 41.6561L79.6248 42.0909L76.2885 41.2362L79.8689 41.4566L76.4284 40.8104L80.0445 40.8163L76.5266 40.3816L80.1546 40.1701L76.5772 39.9527L80.1992 39.5239L76.5831 39.5239L80.1784 38.8836L76.5474 39.098L80.0891 38.2493L76.4671 38.6781L79.9343 37.6269L76.3421 38.2672L79.7141 37.0224L76.1724 37.8711L79.4284 36.4357L75.9611 37.487L79.0831 35.8699L75.7111 37.1177L78.6754 35.3339L75.4195 36.7693L78.2141 34.8246L75.0921 36.4417L77.6933 34.3511L74.729 36.1379L77.1248 33.9134L74.3331 35.858L76.5058 33.5113L73.9076 35.6049L75.8451 33.151L73.4522 35.3785L75.1427 32.8353L72.973 35.182L74.4076 32.5643L72.4701 35.0182L73.6367 32.341L71.9492 34.8842L72.8421 32.1653L71.4105 34.7829L72.0266 32.0372L70.8599 34.7145L71.1933 31.9598L70.3004 34.6817L70.351 31.933L69.7379 34.6787L69.4998 31.9598L69.1695 34.7145L68.6486 32.0343L68.604 34.78L67.8034 32.1593L68.0415 34.8812L66.9641 32.3321L67.4879 35.0123L66.1427 32.5554L66.9462 35.176L65.3391 32.8264L66.4195 35.3726L64.5623 33.1391L65.9105 35.5959L63.8153 33.4994L65.4224 35.8491L63.101 33.8985L64.9582 36.129L62.4254 34.3362L64.5207 36.4327L61.7915 34.8097L64.1159 36.7603L61.2081 35.316L63.7409 37.1058L60.6695 35.852L63.4016 37.475L60.1903 36.4149L63.098 37.8562L59.7617 37.0015L62.8332 38.2553L59.3956 37.6091L62.6099 38.6633L59.0921 38.2285L62.4284 39.0832L58.851 38.8628L62.2885 39.509L58.6724 39.5031L62.1933 39.9378L58.5623 40.1493L62.1397 40.3696L58.5177 40.7955L62.1337 40.7985L58.5385 41.4358L62.1695 41.2243L58.6278 42.0701L62.2528 41.6412L58.7855 42.6925L62.3778 42.0522L59.0058 43.297L62.5445 42.4483L59.2885 43.8837L62.7558 42.8324L59.6337 44.4495L63.0058 43.2017L60.0415 44.9855L63.2974 43.5501L60.5058 45.4948L63.6248 43.8777L61.0236 45.9683L63.9879 44.1815L61.5921 46.409L64.3837 44.4614L62.2111 46.808L64.8093 44.7145L62.8718 47.1684L65.2647 44.9409L63.5742 47.484L65.7468 45.1374L64.3123 47.755L66.2468 45.3012L65.0802 47.9814L66.7677 45.4352L65.8748 48.1571L67.3064 45.5364L66.6903 48.2822L67.857 45.6049L67.5236 48.3596L68.4165 45.6407L68.3689 48.3864L68.982 45.6407L69.2171 48.3626L69.5474 45.6079Z" fill="#200E0C"/>
<path d="M61.0979 47.3917L59.3926 48.9522L61.3569 47.752L59.7944 49.4852L61.6366 48.0975L60.2319 49.9855L61.9342 48.4221L60.6932 50.456L62.2527 48.7229L61.1842 50.8908L62.586 49.0028L61.6961 51.2899L62.9342 49.2529L62.2289 51.6472L63.2973 49.4793L62.7765 51.9629L63.6664 49.6758L63.339 52.2339L64.0444 49.8396L63.9104 52.4602L64.4283 49.9766L64.4848 52.6389L64.8122 50.0778L65.0652 52.7699L65.1991 50.1493L65.6426 52.8503L65.5831 50.188L66.217 52.8831L65.964 50.191L66.7825 52.8652L66.336 50.1642L67.336 52.7967L66.7021 50.1017L67.8747 52.6806L67.0533 50.0093L68.3956 52.5168L67.3956 49.8813L68.8956 52.3024L67.72 49.7235L69.3688 52.0433L68.0265 49.5358L69.8152 51.7425L68.3152 49.3214L70.2319 51.3941L68.5801 49.0772L70.6128 51.007L68.8241 48.8062L70.961 50.5841L69.0444 48.5084L71.2706 50.1225L69.2378 48.1928L71.5414 49.6311L69.4045 47.8533L71.7735 49.107L69.5444 47.4959L71.961 48.5591L69.6545 47.1207L72.1039 47.9843L69.7348 46.7336L72.2021 47.3947L69.7854 46.3315L72.2557 46.7842L69.8063 45.9235L72.2676 46.1648L69.7973 45.5066L72.2289 45.5364L69.7587 45.0867L72.1485 44.9051L69.6902 44.6639L72.0206 44.2708L69.589 44.241L71.8509 43.6424L69.461 43.8241L71.6366 43.017L69.3063 43.4131L71.3807 42.4065L69.1217 43.0081L71.086 41.8109L68.9104 42.618L70.7527 41.2302L68.6783 42.2368L70.3836 40.6763L68.4194 41.8765L69.9789 40.1433L68.1396 41.531L69.5444 39.643L67.839 41.2064L69.0801 39.1725L67.5206 40.9056L68.592 38.7377L67.1872 40.6257L68.0801 38.3386L66.839 40.3756L67.5473 37.9813L66.4789 40.1492L66.9997 37.6656L66.1098 39.9557L66.4372 37.3946L65.7319 39.7889L65.8658 37.1683L65.3479 39.6519L65.2884 36.9896L64.961 39.5507L64.7081 36.8586L64.5771 39.4792L64.1307 36.7782L64.1902 39.4405L63.5563 36.7454L63.8122 39.4375L62.9908 36.7633L63.4372 39.4643L62.4372 36.8318L63.0741 39.5268L61.8985 36.9479L62.72 39.6221L61.3807 37.1117L62.3807 39.7472L60.8807 37.3261L62.0563 39.905L60.4075 37.5852L61.7497 40.0927L59.961 37.886L61.461 40.3071L59.5444 38.2344L61.1962 40.5513L59.1604 38.6186L60.9521 40.8223L58.8122 39.0444L60.7319 41.1201L58.5027 39.506L60.5384 41.4357L58.2319 39.9974L60.3717 41.7752L58.0027 40.5215L60.2319 42.1326L57.8152 41.0694L60.1217 42.5078L57.6723 41.6442L60.0414 42.8949L57.5711 42.2338L59.9878 43.297L57.5176 42.8443L59.967 43.7049L57.5086 43.4637L59.9759 44.1219L57.5444 44.0921L60.0176 44.5418L57.6277 44.7234L60.086 44.9646L57.7557 45.3577L60.1842 45.3875L57.9253 45.9891L60.3122 45.8044L58.1396 46.6115L60.47 46.2154L58.3926 47.2219L60.6545 46.6204L58.6902 47.8175L60.8628 47.0105L59.0235 48.3983L61.0979 47.3917Z" fill="#200E0C"/>
<path d="M73.5096 32.3856C73.5096 32.3856 53.9947 29.5952 58.3757 43.7436C62.7566 57.892 76.0989 52.3113 78.6882 50.5185C81.2775 48.7258 91.0334 36.5696 73.5096 32.3856Z" fill="url(#paint17_linear_1073_79706)"/>
<path style="mix-blend-mode:screen" opacity="0.5" d="M72.7885 32.3706C72.7885 32.3706 59.0891 30.4111 62.1635 40.3426C65.2379 50.2742 74.604 46.3582 76.4225 45.0985C78.2409 43.8388 85.0891 35.3069 72.7885 32.3706Z" fill="url(#paint18_linear_1073_79706)"/>
<path opacity="0.5" d="M91.6353 30.3488L93.3198 28.7913L91.4151 30.0689L92.9687 28.3833L91.171 29.8038L92.5907 28.0022L90.9062 29.5626L92.18 27.6537L90.6264 29.3393L91.7454 27.3381L90.3288 29.1397L91.2871 27.0581L90.0163 28.967L90.8079 26.8139L89.6889 28.8151L90.3109 26.6085L89.3526 28.693L89.799 26.4417L89.0073 28.5948L89.2752 26.3166L88.6562 28.5263L88.7454 26.2332L88.302 28.4846L88.2097 26.1915L87.9419 28.4697L87.671 26.1915L87.5847 28.4846L87.1353 26.2332L87.2276 28.5263L86.6056 26.3196L86.8764 28.5977L86.0818 26.4447L86.5312 28.693L85.5698 26.6114L86.1948 28.8181L85.0758 26.8169L85.8704 28.97L84.5966 27.0611L85.5579 29.1457L84.1383 27.344L85.2603 29.3452L83.7038 27.6597L84.9776 29.5656L83.2931 28.0111L84.7157 29.8098L82.9151 28.3893L84.4716 30.0748L82.5669 28.8003L84.2514 30.3548L82.2514 29.235L84.052 30.6526L81.9687 29.6936L83.8764 30.9652L81.7246 30.1731L83.7276 31.2928L81.5193 30.6704L83.6026 31.6293L81.3556 31.1826L83.5073 31.9748L81.2306 31.7068L83.4359 32.3262L81.1472 32.2368L83.3943 32.6835L81.1056 32.7729L83.3823 33.0409L81.1056 33.3119L83.3972 33.3983L81.1472 33.8479L83.4389 33.7556L81.2335 34.378L83.5073 34.107L81.3585 34.9021L83.6056 34.4525L81.5252 35.4144L83.7306 34.789L81.7306 35.9087L83.8794 35.1136L81.9746 36.3882L84.055 35.4263L82.2573 36.8468L84.2544 35.7241L82.5728 37.2815L84.4776 36.007L82.921 37.6925L84.7216 36.269L83.302 38.0707L84.9835 36.5132L83.7127 38.4191L85.2663 36.7336L84.1472 38.7348L85.5639 36.9331L84.6056 39.0177L85.8764 37.1088L85.0847 39.2619L86.2038 37.2577L85.5818 39.4674L86.5401 37.3828L86.0937 39.6312L86.8853 37.4781L86.6145 39.7563L87.2365 37.5496L87.1472 39.8396L87.5907 37.5913L87.6829 39.8813L87.9508 37.6032L88.2216 39.8813L88.3079 37.5883L88.7573 39.8396L88.6621 37.5466L89.2871 39.7563L89.0163 37.4781L89.8109 39.6282L89.3585 37.3798L90.3198 39.4614L89.6948 37.2547L90.8169 39.256L90.0222 37.1058L91.296 39.0118L90.3347 36.9301L91.7544 38.7288L90.6323 36.7306L92.1889 38.4132L90.9121 36.5073L92.5966 38.0648L91.177 36.2631L92.9776 37.6836L91.4181 36.001L93.3258 37.2726L91.6413 35.7181L93.6413 36.8378L91.8407 35.4203L93.921 36.3792L92.0133 35.1076L94.1651 35.8998L92.1651 34.78L94.3704 35.4024L92.2871 34.4435L94.5371 34.8902L92.3853 34.1011L94.6621 34.3691L92.4538 33.7467L94.7454 33.836L92.4954 33.3923L94.7871 33.3L92.5103 33.032L94.7871 32.7639L92.4954 32.6746L94.7454 32.2279L92.4538 32.3202L94.6591 31.6949L92.3823 31.9688L94.5341 31.1737L92.2871 31.6234L94.3675 30.6615L92.1621 31.2869L94.1621 30.1642L92.0103 30.9593L93.9181 29.6847L91.8347 30.6466L93.6353 29.2261L91.6353 30.3488Z" fill="url(#paint19_radial_1073_79706)"/>
<path d="M94.9793 30.6822L96.6132 29.0562L94.6936 30.3099L96.1668 28.5142L94.3841 29.9585L95.6906 28.002L94.0567 29.628L95.1876 27.5226L93.7144 29.3213L94.6609 27.0788L93.3543 29.0383L94.1103 26.6738L92.9823 28.7822L93.5448 26.3135L92.6013 28.5529L92.9644 25.9919L92.2114 28.3564L92.3751 25.7179L91.8156 28.1896L91.7769 25.4916L91.4168 28.0526L91.1787 25.3129L91.015 27.9514L90.5805 25.1848L90.6162 27.8829L89.9853 25.1074L90.2234 27.8472L89.399 25.0806L89.8364 27.8472L88.8216 25.1044L89.4555 27.8799L88.262 25.1789L89.0894 27.9454L87.7204 25.304L88.7353 28.0467L87.2025 25.4797L88.3989 28.1777L86.7085 25.703L88.0775 28.3445L86.2442 25.974L87.7769 28.541L85.8067 26.2897L87.4972 28.7644L85.4079 26.65L87.2442 29.0205L85.0418 27.052L87.012 29.3004L84.7174 27.4928L86.8097 29.6071L84.4317 27.9693L86.6311 29.9347L84.1876 28.4785L86.4853 30.2861L83.9882 29.0175L86.3662 30.6554L83.8335 29.5863L86.2799 31.0425L83.7263 30.1759L86.2204 31.4416L83.6638 30.7864L86.1966 31.8555L83.649 31.4118L86.2025 32.2754L83.6817 32.0491L86.2382 32.7043L83.7591 32.6953L86.3067 33.1361L83.8841 33.3475L86.4049 33.5708L84.0567 33.9967L86.5359 34.0027L84.271 34.6429L86.6936 34.4315L84.5299 35.2832L86.8811 34.8544L84.8335 35.9086L87.0954 35.2683L85.1728 36.519L87.3335 35.6673L85.5507 37.1117L87.5984 36.0545L85.9644 37.6805L87.8841 36.4267L86.4109 38.2225L88.1936 36.7781L86.887 38.7347L88.521 37.1087L87.39 39.2141L88.8632 37.4154L87.9198 39.6578L89.2234 37.6983L88.4674 40.0628L89.5954 37.9544L89.0329 40.4232L89.9763 38.1837L89.6132 40.7448L90.3662 38.3803L90.2025 41.0188L90.765 38.5471L90.8007 41.2451L91.1638 38.684L91.399 41.4238L91.5626 38.7853L92.0001 41.5518L91.9615 38.8538L92.5924 41.6293L92.3543 38.8895L93.1817 41.6561L92.7442 38.8895L93.7561 41.6322L93.1222 38.8568L94.3156 41.5578L93.4882 38.7912L94.8573 41.4327L93.8424 38.69L95.3751 41.26L94.1817 38.559L95.8692 41.0337L94.5001 38.3922L96.3365 40.7627L94.8007 38.1957L96.771 40.447L95.0805 37.9723L97.1698 40.0867L95.3365 37.7162L97.5359 39.6846L95.5656 37.4363L97.8632 39.2439L95.768 37.1295L98.149 38.7674L95.9466 36.802L98.39 38.2582L96.0924 36.4506L98.5894 37.7192L96.2115 36.0813L98.7442 37.1504L96.3007 35.6941L98.8543 36.5607L96.3573 35.2951L98.9138 35.9503L96.3811 34.8812L98.9287 35.3249L96.3751 34.4613L98.8989 34.6876L96.3394 34.0324L98.8186 34.0414L96.271 33.6006L98.6936 33.3892L96.1728 33.1658L98.521 32.74L96.0418 32.734L98.3067 32.0938L95.8841 32.3052L98.0478 31.4535L95.6966 31.8823L97.7472 30.8281L95.4823 31.4684L97.4049 30.2176L95.2442 31.0693L97.0269 29.625L94.9793 30.6822Z" fill="#E5B701"/>
<path d="M91.8279 33.9611L93.4648 32.3381L91.5422 33.5918L93.0184 31.7961L91.2356 33.2404L92.5392 31.2839L90.9082 32.9099L92.0362 30.8044L90.563 32.6001L91.5094 30.3607L90.2059 32.3202L90.9618 29.9557L89.8338 32.0641L90.3963 29.5924L89.4499 31.8348L89.816 29.2737L89.06 31.6383L89.2237 28.9998L88.6642 31.4715L88.6285 28.7734L88.2654 31.3345L88.0273 28.5948L87.8666 31.2333L87.4291 28.4667L87.4678 31.1648L86.8338 28.3863L87.0719 31.129L86.2475 28.3595L86.685 31.126L85.6731 28.3833L86.3071 31.1588L85.1136 28.4578L85.938 31.2273L84.5719 28.5858L85.5838 31.3256L84.0511 28.7585L85.2475 31.4596L83.5571 28.9819L84.9261 31.6263L83.0928 29.2529L84.6255 31.8199L82.6583 29.5715L84.3487 32.0462L82.2565 29.9319L84.0928 32.3024L81.8934 30.3309L83.8636 32.5823L81.566 30.7717L83.6583 32.889L81.2803 31.2481L83.4827 33.2166L81.0362 31.7604L83.3338 33.568L80.8368 32.2994L83.2148 33.9373L80.6821 32.8682L83.1285 34.3214L80.5749 33.4578L83.0719 34.7235L80.5124 34.0683L83.0452 35.1344L80.4975 34.6937L83.0511 35.5573L80.5303 35.331L83.0898 35.9861L80.6106 35.9772L83.1583 36.4179L80.7356 36.6264L83.2565 36.8527L80.9053 37.2786L83.3844 37.2845L81.1225 37.9248L83.5422 37.7133L81.3815 38.5621L83.7297 38.1362L81.6821 39.1904L83.944 38.5472L82.0213 39.8009L84.185 38.9492L82.3993 40.3935L84.4469 39.3363L82.813 40.9623L84.7356 39.7086L83.2594 41.5043L85.0422 40.06L83.7386 42.0165L85.3696 40.3906L84.2416 42.496L85.7148 40.6973L84.7684 42.9397L86.0719 40.9802L85.316 43.3417L86.444 41.2363L85.8815 43.7051L86.8279 41.4626L86.4618 44.0267L87.2178 41.6622L87.0541 44.3006L87.6136 41.8289L87.6493 44.527L88.0124 41.9629L88.2505 44.7057L88.4112 42.0672L88.8487 44.8337L88.81 42.1357L89.444 44.9111L89.2059 42.1714L90.0303 44.9379L89.5928 42.1714L90.6047 44.9141L89.9708 42.1386L91.1642 44.8397L90.3368 42.0731L91.7059 44.7146L90.691 41.9719L92.2267 44.5389L91.0303 41.8379L92.7208 44.3155L91.3517 41.6741L93.185 44.0445L91.6493 41.4775L93.6196 43.7289L91.9291 41.2512L94.0213 43.3685L92.185 40.9981L94.3844 42.9665L92.4142 40.7181L94.7118 42.5258L92.6196 40.4114L94.9975 42.0493L92.7952 40.0808L95.2416 41.5401L92.944 39.7324L95.441 40.9981L93.063 39.3632L95.5958 40.4322L93.1493 38.976L95.7029 39.8426L93.2059 38.577L95.7654 39.2321L93.2327 38.163L95.7803 38.6067L93.2267 37.7431L95.7475 37.9665L93.188 37.3143L95.6672 37.3203L93.1196 36.8825L95.5422 36.6711L93.0213 36.4477L95.3725 36.0219L92.8934 36.0129L95.1553 35.3756L92.7327 35.5871L94.8963 34.7354L92.5481 35.1642L94.5958 34.11L92.3338 34.7503L94.2565 33.4965L92.0928 34.3482L93.8785 32.9069L91.8279 33.9611Z" fill="#E5B701"/>
<path d="M96.6558 39.1219L98.4623 39.6013L96.7957 38.7705L98.6588 39.0653L96.9177 38.4102L98.8225 38.5203L97.0129 38.0439L98.9504 37.9724L97.0873 37.6776L99.0427 37.4215L97.1379 37.3113L99.1022 36.8705L97.1647 36.945L99.123 36.3256L97.1677 36.5847L99.1082 35.7895L97.1469 36.2303L99.0576 35.2624L97.0992 35.8848L98.9713 34.7532L97.0308 35.5483L98.8492 34.2588L96.9385 35.2267L98.6945 33.7853L96.8225 34.92L98.504 33.3386L96.6855 34.6281L98.2838 32.9158L96.5278 34.3571L98.0308 32.5227L96.3492 34.104L97.748 32.1623L96.1528 33.8747L97.4385 31.8348L95.9355 33.6692L97.1052 31.5429L95.7064 33.4875L96.7451 31.2868L95.4594 33.3297L96.3641 31.0724L95.1975 33.2017L95.9653 30.8967L94.9266 33.0974L95.5486 30.7657L94.6439 33.023L95.1171 30.6734L94.3522 32.9783L94.6766 30.6257L94.0546 32.9604L94.2242 30.6227L93.751 32.9724L93.7689 30.6614L93.4475 33.0111L93.3076 30.7448L93.1379 33.0796L92.8492 30.8669L92.8344 33.1778L92.3909 31.0337L92.5308 33.3029L91.9385 31.2421L92.2302 33.4548L91.4951 31.4863L91.9385 33.6305L91.0605 31.7722L91.6528 33.833L90.6439 32.0909L91.379 34.0563L90.2391 32.4482L91.1171 34.3035L89.8552 32.8354L90.8671 34.5715L89.4921 33.2493L90.632 34.8604L89.1498 33.693L90.4147 35.1642L88.8344 34.1606L90.2123 35.4828L88.5486 34.6519L90.0308 35.8163L88.2897 35.1582L89.8671 36.1588L88.0605 35.6823L89.7272 36.5132L87.8641 36.2154L89.6082 36.8705L87.7034 36.7604L89.51 37.2368L87.5725 37.3113L89.4355 37.6031L87.4802 37.8622L89.385 37.9724L87.4236 38.4102L89.3582 38.3357L87.3998 38.9551L89.3552 38.699L87.4147 39.4941L89.379 39.0534L87.4653 40.0183L89.4236 39.3988L87.5516 40.5305L89.4921 39.7324L87.6736 41.0248L89.5844 40.054L87.8284 41.4953L89.7004 40.3637L88.0189 41.945L89.8373 40.6526L88.2391 42.3649L89.9951 40.9236L88.4921 42.758L90.1736 41.1767L88.7748 43.1213L90.373 41.406L89.0844 43.4489L90.5873 41.6115L89.4207 43.7407L90.8195 41.7961L89.7778 43.9939L91.0665 41.951L90.1588 44.2083L91.3254 42.082L90.5605 44.384L91.5992 42.1833L90.9772 44.518L91.879 42.2577L91.4058 44.6073L92.1707 42.3054L91.8492 44.655L92.4683 42.3232L92.2986 44.658L92.7719 42.3113L92.757 44.6193L93.0784 42.2696L93.2153 44.5388L93.385 42.2011L93.6766 44.4138L93.6915 42.1058L94.132 44.247L93.9921 41.9808L94.5844 44.0415L94.2927 41.8289L95.0278 43.7944L94.5844 41.6502L95.4623 43.5085L94.8701 41.4507L95.882 43.1898L95.1439 41.2244L96.2838 42.8354L95.4058 40.9772L96.6707 42.4483L95.6558 40.7092L97.0338 42.0314L95.8909 40.4233L97.373 41.5877L96.1111 40.1195L97.6885 41.1201L96.3105 39.7979L97.9772 40.6317L96.4921 39.4673L98.2361 40.1225L96.6558 39.1219Z" fill="#E5B701"/>
<path d="M87.1039 39.3335L85.4045 40.1524L87.2259 39.6104L85.6039 40.5604L87.3717 39.8755L85.839 40.9535L87.5354 40.1345L86.1009 41.3287L87.72 40.3787L86.3896 41.6861L87.9253 40.608L86.7081 42.0196L88.1426 40.8225L87.0503 42.3293L88.3807 41.019L87.4134 42.6122L88.6277 41.2007L87.7973 42.8683L88.8926 41.3615L88.1991 43.0947L89.1634 41.5014L88.6188 43.2912L89.4462 41.6235L89.0473 43.455L89.7378 41.7218L89.4878 43.586L90.0325 41.7963L89.9342 43.6843L90.3331 41.8499L90.3866 43.7468L90.6366 41.8796L90.842 43.7736L90.9372 41.8886L91.2944 43.7677L91.2378 41.8707L91.7408 43.726L91.5354 41.832L92.1842 43.6515L91.8271 41.7695L92.6188 43.5414L92.1128 41.6861L93.0384 43.3954L92.3896 41.5789L93.4462 43.2197L92.6545 41.4508L93.836 43.0113L92.9075 41.3019L94.2051 42.773L93.1485 41.1351L94.5533 42.508L93.3717 40.9475L94.8777 42.2132L93.5801 40.742L95.1783 41.8945L93.7706 40.5217L95.4491 41.5521L93.9402 40.2864L95.6902 41.1887L94.092 40.0363L95.8985 40.8046L94.2229 39.7772L96.0771 40.4055L94.3301 39.5062L96.2229 39.9946L94.4164 39.2263L96.3331 39.5687L94.4789 38.9374L96.4104 39.1339L94.5176 38.6485L96.4521 38.6932L94.5325 38.3537L96.4551 38.2495L94.5235 38.0559L96.4253 37.8058L94.4908 37.7611L96.3598 37.362L94.4372 37.4663L96.2586 36.9243L94.3569 37.1774L96.1247 36.4925L94.2557 36.8915L95.9551 36.0726L94.1307 36.6146L95.7527 35.6646L93.9878 36.3495L95.5206 35.2715L93.8211 36.0904L95.2586 34.8963L93.6366 35.8462L94.967 34.5389L93.4342 35.6169L94.6515 34.2054L93.214 35.4025L94.3092 33.8957L92.9789 35.206L93.9432 33.6128L92.7289 35.0243L93.5592 33.3566L92.467 34.8635L93.1575 33.1303L92.1932 34.7235L92.7408 32.9338L91.9104 34.6014L92.3122 32.77L91.6217 34.5032L91.8717 32.639L91.3241 34.4287L91.4253 32.5407L91.0265 34.3751L90.9729 32.4781L90.7229 34.3453L90.5176 32.4513L90.4194 34.3364L90.0652 32.4573L90.1188 34.3513L89.6158 32.499L89.8241 34.393L89.1753 32.5734L89.5295 34.4555L88.7408 32.6836L89.2467 34.5389L88.3182 32.8295L88.97 34.6461L87.9134 33.0052L88.7051 34.7742L87.5235 33.2137L88.4491 34.9231L87.1545 33.4519L88.211 35.0898L86.8063 33.717L87.9848 35.2774L86.4789 34.0118L87.7795 35.4829L86.1813 34.3304L87.589 35.7033L85.9104 34.6729L87.4164 35.9386L85.6694 35.0362L87.2676 36.1887L85.4581 35.4204L87.1366 36.4478L85.2795 35.8194L87.0295 36.7188L85.1366 36.2304L86.9432 36.9987L85.0235 36.6563L86.8807 37.2846L84.9491 37.091L86.842 37.5765L84.9075 37.5318L86.8271 37.8713L84.9015 37.9755L86.836 38.1691L84.9313 38.4192L86.8688 38.4639L84.9997 38.8629L86.9223 38.7587L85.1009 39.3007L87.0027 39.0476L85.2348 39.7325L87.1039 39.3335Z" fill="#702C00"/>
<path d="M84.8114 36.8201L83.1388 37.7016L84.9721 37.1804L83.3918 38.2406L85.1507 37.5348L83.6775 38.7617L85.3501 37.8773L83.99 39.262L85.5674 38.2019L84.3293 39.7415L85.8025 38.5146L84.6954 40.1941L86.0525 38.8064L85.0823 40.62L86.3204 39.0804L85.49 41.0131L86.5971 39.3335L85.9186 41.3764L86.8858 39.5598L86.3591 41.701L87.1864 39.7653L86.8114 41.9869L87.493 39.944L87.2757 42.237L87.8025 40.0959L87.746 42.4425L88.118 40.2209L88.2221 42.6093L88.4364 40.3162L88.6983 42.7284L88.7519 40.3817L89.1716 42.8088L89.0674 40.4205L89.6388 42.8416L89.3769 40.4264L90.1001 42.8297L89.6805 40.4056L90.5495 42.7731L89.9781 40.352L90.987 42.6748L90.2638 40.2716L91.4096 42.5289L90.5376 40.1614L91.8114 42.3442L90.7995 40.0214L92.1924 42.1149L91.0466 39.8576L92.5525 41.8469L91.2757 39.6641L92.8829 41.5402L91.49 39.4496L93.1894 41.1977L91.6835 39.2084L93.4632 40.8195L91.8561 38.9434L93.7073 40.4085L92.0079 38.6605L93.9186 39.9678L92.1358 38.3597L94.0942 39.5032L92.243 38.0381L94.237 39.0119L92.3263 37.7045L94.3412 38.4997L92.3829 37.3561L94.4126 37.9696L92.4186 36.9988L94.4424 37.4246L92.4275 36.6325L94.4364 36.8707L92.4096 36.2602L94.3948 36.3079L92.368 35.882L94.3144 35.7391L92.3025 35.5038L94.1983 35.1703L92.2132 35.1226L94.0465 34.6045L92.1001 34.7474L93.8591 34.0446L91.9662 34.3781L93.6388 33.4937L91.8055 34.0148L93.3858 32.9576L91.6269 33.6634L93.1001 32.4365L91.4275 33.3209L92.7876 31.9332L91.2102 32.9934L92.4483 31.4567L90.9751 32.6837L92.0823 31.0011L90.7251 32.3888L91.6954 30.5782L90.4573 32.1178L91.2876 30.1822L90.1805 31.8647L90.859 29.8218L89.8918 31.6354L90.4186 29.4972L89.5912 31.4329L89.9662 29.2084L89.2846 31.2542L89.5019 28.9612L88.9751 31.1023L89.0317 28.7557L88.6596 30.9773L88.5555 28.5889L88.3412 30.882L88.0793 28.4668L88.0257 30.8135L87.6061 28.3894L87.7102 30.7777L87.1388 28.3566L87.4007 30.7718L86.6775 28.3686L87.0971 30.7926L86.2251 28.4222L86.7995 30.8462L85.7906 28.5234L86.5138 30.9266L85.368 28.6664L86.24 31.0368L84.9662 28.854L85.9781 31.1738L84.5852 29.0833L85.7311 31.3406L84.2251 29.3513L85.5019 31.5312L83.8948 29.658L85.2876 31.7486L83.5882 30.0005L85.0942 31.9898L83.3144 30.3787L84.9216 32.2519L83.0704 30.7897L84.7698 32.5348L82.8591 31.2274L84.6418 32.8385L82.6835 31.695L84.5346 33.1572L82.5406 32.1863L84.4513 33.4937L82.4364 32.6985L84.3948 33.8391L82.365 33.2257L84.3591 34.1995L82.3352 33.7706L84.3501 34.5657L82.3412 34.3275L84.368 34.938L82.3829 34.8903L84.4096 35.3162L82.4632 35.4591L84.4751 35.6944L82.5793 36.0279L84.5644 36.0726L82.7311 36.5938L84.6775 36.4478L82.9186 37.1536L84.8114 36.8201Z" fill="#702C00"/>
<path d="M88.0673 34.9976L86.3947 35.882L88.225 35.3609L86.6476 36.4181L88.4036 35.7123L86.9304 36.9392L88.603 36.0547L87.2429 37.4395L88.8203 36.3823L87.5851 37.919L89.0554 36.692L87.9482 38.3746L89.3084 36.9839L88.3381 38.7975L89.5732 37.2578L88.7459 39.1935L89.853 37.511L89.1715 39.5539L90.1417 37.7403L89.6119 39.8785L90.4393 37.9428L90.0673 40.1673L90.7459 38.1215L90.5316 40.4145L91.0584 38.2733L91.0018 40.62L91.3738 38.3984L91.475 40.7868L91.6893 38.4937L91.9512 40.9089L92.0078 38.5592L92.4244 40.9863L92.3203 38.5979L92.8947 41.019L92.6328 38.6039L93.356 41.0071L92.9363 38.5831L93.8054 40.9505L93.231 38.5294L94.2429 40.8523L93.5197 38.449L94.6625 40.7093L93.7935 38.3389L95.0673 40.5217L94.0554 38.2019L95.4482 40.2924L94.3024 38.0351L95.8054 40.0244L94.5316 37.8445L96.1387 39.7177L94.7429 37.6271L96.4423 39.3752L94.9363 37.3859L96.7191 38.997L95.109 37.1238L96.9631 38.586L95.2607 36.838L97.1715 38.1483L95.3917 36.5372L97.35 37.6807L95.4988 36.2185L97.4899 37.1894L95.5792 35.882L97.5971 36.6771L95.6387 35.5366L97.6655 36.1471L95.6715 35.1762L97.6982 35.6051L95.6804 34.8099L97.6923 35.0482L95.6655 34.4377L97.6506 34.4853L95.6238 34.0595L97.5703 33.9165L95.5584 33.6813L97.4542 33.3478L95.4691 33.3031L97.3024 32.7819L95.356 32.9279L97.1149 32.2221L95.2191 32.5556L96.8917 31.6711L95.0613 32.1923L96.6387 31.1351L94.8828 31.8409L96.356 30.614L94.6834 31.4984L96.0435 30.1137L94.4661 31.1708L95.7012 29.6342L94.231 30.8611L95.3381 29.1786L93.978 30.5693L94.9482 28.7557L93.7131 30.2953L94.5405 28.3596L93.4334 30.0422L94.1149 27.9993L93.1447 29.8129L93.6744 27.6747L92.8471 29.6104L93.2191 27.3888L92.5405 29.4317L92.7548 27.1387L92.228 29.2798L92.2846 26.9332L91.9125 29.1548L91.8113 26.7664L91.5971 29.0595L91.3351 26.6443L91.2786 28.9939L90.8619 26.5669L90.9661 28.9552L90.3917 26.5341L90.6566 28.9493L89.9304 26.546L90.35 28.9701L89.481 26.6026L90.0554 29.0237L89.0435 26.7009L89.7697 29.1041L88.6238 26.8438L89.4929 29.2143L88.2191 27.0314L89.231 29.3513L87.8381 27.2608L88.9869 29.5181L87.481 27.5288L88.7548 29.7087L87.1476 27.8355L88.5435 29.9261L86.8441 28.178L88.35 30.1673L86.5673 28.5562L88.1774 30.4293L86.3262 28.9671L88.0256 30.7152L86.1149 29.4049L87.8947 31.016L85.9363 29.8724L87.7905 31.3346L85.7965 30.3638L87.7072 31.6712L85.6893 30.876L87.6476 32.0166L85.6209 31.4061L87.6149 32.3769L85.5881 31.9481L87.606 32.7432L85.5941 32.505L87.6209 33.1155L85.6387 33.0678L87.6625 33.4937L85.7161 33.6366L87.728 33.8719L85.8322 34.2054L87.8173 34.2501L85.9869 34.7712L87.9304 34.6253L86.1715 35.3311L88.0673 34.9976Z" fill="#702C00"/>
<path d="M85.1856 29.7414L83.8047 28.9225L84.9952 29.9856L83.5339 29.2977L84.8225 30.2417L83.2898 29.6878L84.6678 30.5038L83.0696 30.0899L84.5339 30.7778L82.8791 30.5008L84.4148 31.0547L82.7184 30.9207L84.3166 31.3376L82.5874 31.3466L84.2422 31.6205L82.4892 31.7754L84.1856 31.9064L82.4208 32.2042L84.1499 32.1923L82.385 32.6271L84.138 32.4723L82.3821 33.047L84.1469 32.7492L82.4118 33.458L84.1797 33.0202L82.4743 33.857L84.2303 33.2823L82.5696 34.2471L84.3047 33.5354L82.6946 34.6194L84.397 33.7796L82.8493 34.9738L84.513 34.0089L83.0368 35.3073L84.644 34.2233L83.2511 35.62L84.7958 34.4258L83.4922 35.9088L84.9654 34.6104L83.7571 36.1709L85.1529 34.7742L84.0487 36.4062L85.3553 34.9231L84.3612 36.6146L85.5696 35.0512L84.6975 36.7903L85.7987 35.1584L85.0487 36.9362L86.0398 35.2448L85.4148 37.0494L86.2898 35.3103L85.7987 37.1298L86.5487 35.352L86.1916 37.1775L86.8136 35.3728L86.5934 37.1924L87.0845 35.3728L87.0011 37.1715L87.3583 35.346L87.4148 37.1209L87.6321 35.3013L87.8285 37.0345L87.9089 35.2328L88.2422 36.9154L88.1827 35.1435L88.6499 36.7635L88.4535 35.0333L89.0547 36.5819L88.7214 34.8993L89.4505 36.3704L88.9803 34.7504L89.8345 36.1322L89.2333 34.5807L90.2035 35.8642L89.4743 34.3931L90.5577 35.5723L89.7035 34.1905L90.894 35.2567L89.9237 33.9732L91.2124 34.9172L90.1261 33.7409L91.5071 34.5598L90.3166 33.4967L91.7779 34.1846L90.4892 33.2435L92.022 33.7945L90.644 32.9785L92.2422 33.3924L90.7779 32.7045L92.4327 32.9815L90.897 32.4276L92.5934 32.5616L90.9952 32.1447L92.7243 32.1357L91.0696 31.8618L92.8225 31.7069L91.1261 31.5759L92.891 31.2811L91.1618 31.293L92.9267 30.8552L91.1737 31.0101L92.9297 30.4353L91.1648 30.7331L92.8999 30.0243L91.1321 30.4621L92.8374 29.6253L91.0815 30.2L92.7422 29.2352L91.0071 29.9469L92.6172 28.8629L90.9148 29.7027L92.4624 28.5086L90.7987 29.4734L92.2749 28.175L90.6678 29.259L92.0606 27.8623L90.516 29.0565L91.8196 27.5735L90.3464 28.8748L91.5547 27.3114L90.1589 28.7081L91.263 27.0761L89.9565 28.5592L90.9505 26.8677L89.7422 28.4311L90.6142 26.692L89.513 28.3239L90.263 26.5461L89.272 28.2376L89.8969 26.4329L89.022 28.172L89.513 26.3525L88.766 28.1303L89.1202 26.3048L88.4981 28.1095L88.7184 26.29L88.2273 28.1095L88.3106 26.3108L87.9535 28.1363L87.8969 26.3614L87.6797 28.181L87.4833 26.4478L87.4029 28.2495L87.0696 26.5669L87.1291 28.3388L86.6618 26.7188L86.8583 28.452L86.2571 26.9004L86.5904 28.583L85.8612 27.1119L86.3315 28.7319L85.4773 27.3501L86.0785 28.9016L85.1083 27.6181L85.8374 29.0893L84.7541 27.91L85.6083 29.2918L84.4178 28.2256L85.388 29.5092L84.0993 28.5651L85.1856 29.7414Z" fill="#702C00"/>
<path d="M89.1647 39.1815L88.0843 40.2625L89.3313 39.3602L88.3462 40.5186L89.5159 39.5269L88.629 40.7598L89.7093 39.6788L88.9295 40.9772L89.9147 39.8158L89.245 41.1708L90.1319 39.9379L89.5784 41.3405L90.3581 40.0421L89.9206 41.4864L90.5903 40.1315L90.2748 41.6056L90.8284 40.2029L90.6379 41.7009L91.0724 40.2565L91.004 41.7664L91.3194 40.2923L91.376 41.8051L91.5665 40.3072L91.748 41.817L91.8135 40.3072L92.12 41.7991L92.0605 40.2863L92.4891 41.7545L92.3045 40.2446L92.8492 41.683L92.5426 40.188L93.2034 41.5817L92.7778 40.1136L93.5486 41.4567L93.001 40.0213L93.8819 41.3048L93.2182 39.9111L94.2004 41.1291L93.4266 39.786L94.501 40.9296L93.62 39.6461L94.7837 40.7062L93.8045 39.4912L95.0486 40.465L93.9742 39.3215L95.2926 40.2L94.129 39.1398L95.5099 39.92L94.2659 38.9492L95.7063 39.6222L94.3879 38.7437L95.876 39.3125L94.492 38.5323L96.0188 38.9879L94.5784 38.3149L96.1349 38.6544L94.6468 38.0886L96.2242 38.3119L94.6944 37.8563L96.2837 37.9635L94.7242 37.624L96.3135 37.6121L94.7361 37.3887L96.3135 37.2547L94.7272 37.1505L96.2867 36.9003L94.6974 36.9152L96.2272 36.5489L94.6498 36.683L96.1409 36.2005L94.5843 36.4537L96.0278 35.861L94.498 36.2273L95.8849 35.5305L94.3938 36.0099L95.7182 35.2089L94.2748 35.8015L95.5248 34.8991L94.1379 35.599L95.3045 34.6073L93.9831 35.4084L95.0635 34.3303L93.8165 35.2297L94.8016 34.0713L93.6319 35.0659L94.5188 33.833L93.4385 34.914L94.2182 33.6156L93.2331 34.7741L93.9028 33.4221L93.0159 34.6549L93.5694 33.2493L92.7897 34.5477L93.2272 33.1034L92.5575 34.4584L92.873 32.9843L92.3194 34.3869L92.5099 32.892L92.0754 34.3363L92.1438 32.8265L91.8284 34.3006L91.7718 32.7878L91.5813 34.2827L91.3998 32.7758L91.3343 34.2857L91.0278 32.7937L91.0873 34.3065L90.6587 32.8384L90.8432 34.3452L90.2986 32.9098L90.6051 34.4018L89.9444 33.0081L90.37 34.4792L89.5992 33.1362L90.1468 34.5716L89.2659 33.2851L89.9295 34.6788L88.9474 33.4638L89.7212 34.8038L88.6468 33.6633L89.5278 34.9468L88.3641 33.8837L89.3432 35.1016L88.0992 34.1278L89.1736 35.2684L87.8551 34.3899L89.0218 35.4501L87.6379 34.6698L88.8819 35.6436L87.4415 34.9676L88.7599 35.8461L87.2718 35.2803L88.6557 36.0576L87.129 35.6019L88.5694 36.278L87.0129 35.9385L88.501 36.5043L86.9236 36.278L88.4534 36.7336L86.8641 36.6294L88.4236 36.9688L86.8343 36.9808L88.4117 37.2041L86.8343 37.3351L88.4206 37.4394L86.8641 37.6895L88.4504 37.6776L86.9206 38.0409L88.498 37.9099L87.0069 38.3893L88.5635 38.1392L87.12 38.7318L88.6498 38.3625L87.2629 39.0624L88.754 38.5829L87.4295 39.384L88.873 38.7914L87.623 39.6907L89.0099 38.9909L87.8432 39.9855L89.1647 39.1815Z" fill="#200E0C"/>
<path d="M86.7461 37.8711L85.7015 38.9908L86.9634 38.1063L86.0378 39.3363L87.1955 38.3267L86.3949 39.6579L87.4366 38.5352L86.7669 39.9587L87.6895 38.7287L87.1538 40.2326L87.9544 38.9015L87.5556 40.4828L88.2253 39.0593L87.9634 40.7061L88.4991 39.1993L88.38 40.8967L88.7788 39.3154L88.8026 41.0605L89.0616 39.4137L89.2282 41.1915L89.3443 39.4911L89.6509 41.2898L89.627 39.5447L90.0705 41.3553L89.9038 39.5775L90.4872 41.3881L90.1776 39.5894L90.8919 41.3881L90.4455 39.5775L91.2878 41.3553L90.7074 39.5447L91.6717 41.2868L90.9574 39.4881L92.0378 41.1886L91.1955 39.4137L92.389 41.0575L91.4217 39.3124L92.7193 40.8937L91.636 39.1963L93.0259 40.7002L91.8324 39.0563L93.3086 40.4798L92.014 38.8985L93.5675 40.2296L92.1776 38.7228L93.7997 39.9527L92.3205 38.5322L94.002 39.6519L92.4455 38.3237L94.1747 39.3273L92.5497 38.1004L94.3145 38.9848L92.633 37.8651L94.4247 38.6215L92.6955 37.618L94.502 38.2433L92.7372 37.3618L94.5467 37.8532L92.755 37.0968L94.5586 37.4482L92.752 36.8228L94.5348 37.0343L92.7253 36.5459L94.4782 36.6144L92.6776 36.263L94.3919 36.1915L92.6092 35.9801L94.2699 35.7686L92.5169 35.6972L94.1181 35.3428L92.4068 35.4172L93.9366 34.9259L92.2729 35.1403L93.7223 34.5119L92.1241 34.8663L93.4842 34.1069L91.9544 34.6013L93.2163 33.7168L91.7669 34.3452L92.9247 33.3386L91.5645 34.098L92.6092 32.9753L91.3473 33.8627L92.2729 32.6328L91.1151 33.6394L91.9157 32.3082L90.8741 33.4309L91.5437 32.0104L90.6181 33.2403L91.1568 31.7335L90.3562 33.0646L90.755 31.4833L90.0854 32.9098L90.3473 31.2629L89.8116 32.7698L89.9276 31.0694L89.5288 32.6507L89.508 30.9086L89.2491 32.5554L89.0824 30.7775L88.9663 32.478L88.6598 30.6793L88.6836 32.4214L88.2372 30.6137L88.4038 32.3886L87.8235 30.581L88.13 32.3797L87.4157 30.581L87.8622 32.3886L87.0199 30.6137L87.6032 32.4244L86.639 30.6793L87.3532 32.478L86.2699 30.7805L87.1151 32.5554L85.9217 30.9115L86.889 32.6537L85.5913 31.0753L86.6747 32.7728L85.2848 31.2659L86.4782 32.9098L84.9991 31.4893L86.2967 33.0676L84.7431 31.7394L86.133 33.2433L84.511 32.0164L85.9901 33.4369L84.3086 32.3171L85.8651 33.6453L84.136 32.6388L85.758 33.8657L83.9961 32.9842L85.6747 34.1039L83.886 33.3446L85.6122 34.3511L83.8086 33.7228L85.5735 34.6072L83.764 34.1158L85.5556 34.8723L83.752 34.5209L85.5586 35.1462L83.7759 34.9348L85.5854 35.4232L83.8294 35.3517L85.633 35.7031L83.9187 35.7776L85.7015 35.986L84.0407 36.2004L85.7937 36.2689L84.1925 36.6233L85.9038 36.5518L84.3741 37.0432L86.0348 36.8288L84.5854 37.4571L86.1866 37.0998L84.8265 37.8592L86.3562 37.3678L85.0943 38.2523L86.5437 37.6239L85.386 38.6305L86.7461 37.8711Z" fill="#200E0C"/>
<path d="M88.748 35.6109L87.7034 36.7306L88.9653 35.8461L88.0397 37.076L89.1975 36.0665L88.3969 37.3977L89.4385 36.275L88.7689 37.6984L89.6945 36.4685L89.1558 37.9724L89.9564 36.6412L89.5576 38.2226L90.2272 36.7991L89.9653 38.4459L90.501 36.9361L90.385 38.6365L90.7808 37.0552L90.8046 38.8003L91.0635 37.1535L91.2302 38.9283L91.3463 37.2309L91.6528 39.0296L91.629 37.2845L92.0725 39.0951L91.9088 37.3172L92.4891 39.1279L92.1826 37.3292L92.8969 39.1279L92.4504 37.3172L93.2927 39.0951L92.7094 37.2845L93.6736 39.0266L92.9594 37.2279L94.0427 38.9283L93.1975 37.1505L94.3909 38.7973L93.4236 37.0522L94.7213 38.6335L93.6379 36.9361L95.0278 38.4399L93.8344 36.7961L95.3135 38.2166L94.0159 36.6383L95.5695 37.9694L94.1796 36.4626L95.8016 37.6925L94.3225 36.272L96.004 37.3917L94.4475 36.0635L96.1766 37.0671L94.5516 35.8402L96.3165 36.7246L94.6379 35.6049L96.4266 36.3613L94.7004 35.3577L96.504 35.9831L94.7391 35.1016L96.5486 35.59L94.757 34.8336L96.5605 35.188L94.754 34.5626L96.5367 34.774L94.7272 34.2857L96.4832 34.3542L94.6796 34.0027L96.3939 33.9313L94.6111 33.7198L96.2719 33.5054L94.5189 33.4369L96.1201 33.0826L94.4088 33.157L95.9385 32.6627L94.2748 32.88L95.7272 32.2517L94.126 32.6061L95.4861 31.8467L93.9564 32.341L95.2183 31.4566L93.7689 32.0849L94.9266 31.0754L93.5665 31.8378L94.6111 30.7151L93.3492 31.6025L94.2748 30.3726L93.1171 31.3791L93.9177 30.048L92.876 31.1707L93.5457 29.7502L92.6201 30.9801L93.1588 29.4732L92.3582 30.8044L92.757 29.2231L92.0873 30.6466L92.3492 29.0027L91.8135 30.5096L91.9326 28.8091L91.5338 30.3905L91.51 28.6483L91.251 30.2922L91.0844 28.5173L90.9683 30.2177L90.6617 28.419L90.6855 30.1611L90.2421 28.3535L90.4088 30.1284L89.8254 28.3178L90.132 30.1165L89.4177 28.3208L89.8641 30.1284L89.0219 28.3535L89.6052 30.1641L88.6409 28.419L89.3552 30.2177L88.2719 28.5203L89.1171 30.2952L87.9236 28.6513L88.8909 30.3934L87.5933 28.8151L88.6766 30.5126L87.2867 29.0057L88.4802 30.6495L87.001 29.229L88.2986 30.8074L86.7451 29.4792L88.135 30.9831L86.5129 29.7561L87.9921 31.1766L86.3105 30.0569L87.8671 31.3851L86.1379 30.3785L87.7629 31.6055L85.998 30.721L87.6766 31.8407L85.8879 31.0843L87.6171 32.0879L85.8105 31.4625L87.5754 32.347L85.7659 31.8556L87.5576 32.612L85.754 32.2606L87.5605 32.886L85.7778 32.6716L87.5873 33.163L85.8344 33.0915L87.635 33.4429L85.9207 33.5144L87.7034 33.7258L86.0427 33.9402L87.7957 34.0087L86.1945 34.3631L87.9058 34.2916L86.376 34.783L88.0397 34.5686L86.5903 35.1969L88.1885 34.8396L86.8284 35.599L88.3582 35.1046L87.0963 35.992L88.5457 35.3637L87.3879 36.3702L88.748 35.6109Z" fill="#200E0C"/>
<path d="M85.1488 32.3588L83.875 32.0997L85.0685 32.597L83.7679 32.46L85.006 32.8382L83.6815 32.8233L84.9554 33.0795L83.622 33.1896L84.9256 33.3236L83.5863 33.5559L84.9077 33.5678L83.5744 33.9192L84.9107 33.8091L83.5893 34.2796L84.9256 34.0473L83.628 34.634L84.9613 34.2826L83.6905 34.9794L85.0089 34.5089L83.7768 35.3129L85.0744 34.7263L83.8839 35.6346L85.1548 34.9347L84.0179 35.9383L85.25 35.1343L84.1726 36.2302L85.3601 35.3219L84.3452 36.5012L85.4851 35.4946L84.5417 36.7513L85.619 35.6554L84.756 36.9806L85.7679 35.8013L84.9851 37.1891L85.9286 35.9324L85.2321 37.3707L86.0982 36.0425L85.494 37.5256L86.2768 36.1378L85.7679 37.6566L86.4643 36.2153L86.0536 37.7579L86.6577 36.2748L86.3482 37.8323L86.8542 36.3165L86.6518 37.88L87.0595 36.3374L86.9583 37.8978L87.2649 36.3403L87.2708 37.8859L87.4732 36.3225L87.5833 37.8442L87.6845 36.2867L87.8958 37.7757L87.8929 36.2302L88.2083 37.6804L88.0982 36.1587L88.5149 37.5554L88.3006 36.0664L88.8155 37.4065L88.5 35.9562L89.1101 37.2308L88.6935 35.8311L89.3958 37.0283L88.878 35.6911L89.6667 36.8049L89.0565 35.5333L89.9286 36.5577L89.2232 35.3606L90.1726 36.2927L89.3839 35.176L90.4018 36.0068L89.5298 34.9794L90.6161 35.7031L89.6667 34.7739L90.8095 35.3844L89.7887 34.5565L90.9821 35.0539L89.8958 34.3332L91.1339 34.7114L89.9911 34.1009L91.2649 34.36L90.0714 33.8627L91.372 33.9997L90.1339 33.6214L91.4554 33.6363L90.1815 33.3802L91.5149 33.27L90.2143 33.136L91.5506 32.9038L90.2292 32.8918L91.5625 32.5404L90.2292 32.6506L91.5506 32.1801L90.2113 32.4124L91.5119 31.8257L90.1786 32.1771L91.4494 31.4803L90.128 31.9508L91.3631 31.1467L90.0625 31.7334L91.253 30.8251L89.9821 31.5249L91.122 30.5184L89.8869 31.3254L90.9673 30.2295L89.7768 31.1378L90.7917 29.9585L89.6548 30.9621L90.5982 29.7084L89.5179 30.8043L90.3839 29.4791L89.369 30.6584L90.1518 29.2706L89.2113 30.5273L89.9048 29.089L89.0417 30.4171L89.6429 28.9341L88.8631 30.3189L89.369 28.8031L88.6756 30.2414L89.0833 28.7018L88.4821 30.1849L88.7887 28.6274L88.2827 30.1432L88.4881 28.5797L88.0804 30.1223L88.1815 28.5619L87.872 30.1193L87.869 28.5738L87.6637 30.1372L87.5565 28.6155L87.4554 30.1729L87.2411 28.681L87.247 30.2295L86.9315 28.7792L87.0417 30.301L86.622 28.9013L86.8363 30.3933L86.3214 29.0532L86.6399 30.5035L86.0268 29.2289L86.4464 30.6286L85.744 29.4314L86.2589 30.7685L85.4702 29.6548L86.0833 30.9264L85.2113 29.9019L85.9137 31.0991L84.9643 30.167L85.756 31.2837L84.7351 30.4529L85.6071 31.4773L84.5238 30.7566L85.4732 31.6858L84.3304 31.0753L85.3512 31.9032L84.1577 31.4058L85.2411 32.1265L84.006 31.7483L85.1488 32.3588Z" fill="#200E0C"/>
<path d="M94.5196 31.1081C94.722 31.1141 94.8738 31.0902 95.0345 31.0694C95.1922 31.0426 95.344 31.0128 95.4928 30.9741C95.7905 30.8997 96.0732 30.7924 96.35 30.6823L96.7518 30.4946L97.1387 30.2862C97.2666 30.2177 97.3857 30.1343 97.5107 30.0569C97.6357 29.9824 97.7547 29.899 97.8678 29.8127C98.1059 29.6489 98.3262 29.4672 98.5434 29.2826C98.7666 29.1039 98.9631 28.8984 99.1714 28.7079C99.3708 28.5083 99.5613 28.2999 99.7547 28.0974L100.299 27.4571L99.8649 27.332C99.8946 27.4601 99.9274 27.5673 99.9631 27.6805C99.9988 27.7936 100.04 27.9008 100.079 28.008C100.165 28.2224 100.255 28.4339 100.359 28.6394C100.46 28.8448 100.573 29.0444 100.692 29.2409C100.811 29.4345 100.939 29.6251 101.073 29.8067C101.139 29.902 101.21 29.9884 101.282 30.0777C101.356 30.1641 101.421 30.2564 101.499 30.3398C101.651 30.5066 101.802 30.6763 101.969 30.8282C102.052 30.9056 102.13 30.989 102.216 31.0575L102.475 31.2749C102.648 31.4178 102.835 31.5429 103.014 31.6769C102.847 31.525 102.674 31.388 102.517 31.2272L102.282 30.989C102.201 30.9116 102.133 30.8252 102.058 30.7418C101.91 30.578 101.776 30.3994 101.645 30.2236C101.576 30.1373 101.52 30.042 101.457 29.9497C101.398 29.8574 101.332 29.768 101.279 29.6697C101.162 29.4821 101.061 29.2886 100.963 29.092C100.868 28.8955 100.779 28.6959 100.701 28.4905C100.621 28.288 100.555 28.0795 100.493 27.871C100.466 27.7668 100.436 27.6626 100.415 27.5584C100.392 27.4571 100.371 27.3439 100.359 27.2516L100.29 26.7751L99.9214 27.1265L99.3351 27.6864C99.1297 27.8621 98.9274 28.0378 98.719 28.2076C98.5018 28.3654 98.2994 28.5381 98.0762 28.6811C97.8559 28.83 97.6357 28.9759 97.4065 29.101C97.2934 29.1694 97.1803 29.232 97.0613 29.2856C96.9422 29.3422 96.8291 29.4077 96.7101 29.4553L96.353 29.6042L95.9928 29.7293C95.7488 29.7978 95.5077 29.8633 95.2666 29.8961C95.1476 29.9169 95.0286 29.9259 94.9125 29.9318C94.7994 29.9348 94.6774 29.9348 94.6059 29.9229L94.5196 31.1111L94.5196 31.1081Z" fill="url(#paint20_linear_1073_79706)"/>
<path d="M98.6011 35.9176C98.6011 35.9176 91.7559 22.3083 85.5892 28.6514C77.997 36.4596 86.6964 44.4287 88.8243 45.7212C90.9523 47.0136 102.464 50.0928 98.5981 35.9176L98.6011 35.9176Z" fill="url(#paint21_linear_1073_79706)"/>
<path d="M94.6414 33.8926C94.6414 33.8926 92.564 27.6418 88.9926 31.0605C85.4211 34.4792 89.0759 37.6359 89.9985 38.1421C90.9211 38.6484 96.0045 39.7532 94.6414 33.8896L94.6414 33.8926Z" fill="url(#paint22_radial_1073_79706)"/>
<path d="M93.2132 29.8186C93.5555 29.5089 93.8323 29.2022 94.112 28.8776C94.3858 28.553 94.6477 28.2224 94.8888 27.877C95.0108 27.7073 95.1329 27.5345 95.246 27.3588C95.3591 27.1831 95.4781 27.0104 95.5823 26.8287C95.6864 26.6471 95.7995 26.4714 95.9007 26.2868L96.1954 25.7358C96.2936 25.5512 96.3769 25.3606 96.4692 25.173C96.5614 24.9854 96.6477 24.7978 96.7251 24.6042L96.9662 24.0294L97.1775 23.4428C97.2489 23.2492 97.3204 23.0527 97.3739 22.8531L97.5525 22.2575C97.618 22.061 97.6537 21.8585 97.7073 21.656L97.8531 21.0544L97.4483 21.1855C97.7013 21.3731 97.9454 21.5428 98.2073 21.7007C98.4602 21.8644 98.7251 22.0104 98.987 22.1533C99.121 22.2248 99.2489 22.3022 99.3829 22.3648L99.7906 22.5553L100.198 22.7459C100.332 22.8114 100.478 22.8561 100.615 22.9127L101.035 23.0735C101.175 23.1241 101.311 23.1837 101.454 23.2284L102.317 23.4726C102.46 23.5113 102.603 23.5619 102.749 23.5857L103.189 23.6632L104.067 23.818L103.204 23.6006L102.773 23.4934C102.63 23.4577 102.493 23.3951 102.353 23.3505L101.52 23.0497C101.383 22.9961 101.252 22.9276 101.118 22.868L100.716 22.6834C100.585 22.6179 100.445 22.5673 100.32 22.4928L99.9364 22.2784L99.5525 22.064C99.4245 21.9925 99.3055 21.9061 99.1805 21.8287C98.9335 21.6709 98.6864 21.513 98.4543 21.3373C98.2162 21.1706 97.984 20.9859 97.7727 20.8043L97.487 20.5571L97.368 20.9353L97.1864 21.5101C97.121 21.7007 97.0733 21.8942 96.996 22.0818L96.7817 22.6447C96.7162 22.8323 96.6329 23.0169 96.5525 23.1986L96.3085 23.7465L96.0406 24.2796C95.9543 24.4583 95.8561 24.634 95.7579 24.8067C95.6567 24.9794 95.5644 25.1551 95.4602 25.3249L95.1418 25.8281C95.0346 25.9949 94.9186 26.1557 94.8055 26.3195C94.6954 26.4833 94.5733 26.6382 94.4543 26.796C94.3382 26.9568 94.2132 27.1087 94.0852 27.2606C93.8382 27.5673 93.5704 27.8562 93.2995 28.1361C93.0287 28.4101 92.737 28.687 92.4573 28.9044L93.2162 29.8216L93.2132 29.8186Z" fill="url(#paint23_linear_1073_79706)"/>
<path style="mix-blend-mode:screen" opacity="0.3" d="M94.1935 36.3345C94.1935 36.3345 94.9256 33.3059 92.8304 33.7735C90.7352 34.244 91.3036 36.4298 91.5149 36.8676C91.7262 37.3024 93.2947 39.0296 94.1935 36.3345Z" fill="url(#paint24_linear_1073_79706)"/>
<defs>
<linearGradient id="paint0_linear_1073_79706" x1="37.2314" y1="63.2704" x2="28.407" y2="63.2704" gradientUnits="userSpaceOnUse">
<stop offset="0.43" stop-color="#201414"/>
<stop offset="0.62" stop-color="#221616"/>
<stop offset="0.72" stop-color="#2A1D1D"/>
<stop offset="0.8" stop-color="#372B2B"/>
<stop offset="0.87" stop-color="#4A3D3D"/>
<stop offset="0.93" stop-color="#635555"/>
<stop offset="0.98" stop-color="#817373"/>
<stop offset="1" stop-color="#8C7D7D"/>
</linearGradient>
<linearGradient id="paint1_linear_1073_79706" x1="41.9754" y1="70.0094" x2="30.6854" y2="50.4619" gradientUnits="userSpaceOnUse">
<stop stop-color="#F7931E"/>
<stop offset="0.67" stop-color="#F7B50A"/>
<stop offset="1" stop-color="#F7C800"/>
</linearGradient>
<linearGradient id="paint2_linear_1073_79706" x1="53.9139" y1="56.9849" x2="32.7722" y2="53.7932" gradientUnits="userSpaceOnUse">
<stop offset="0.28" stop-color="#201414"/>
<stop offset="0.52" stop-color="#221616"/>
<stop offset="0.65" stop-color="#2A1D1D"/>
<stop offset="0.75" stop-color="#372B2B"/>
<stop offset="0.83" stop-color="#4A3D3D"/>
<stop offset="0.91" stop-color="#635555"/>
<stop offset="0.98" stop-color="#817373"/>
<stop offset="1" stop-color="#8C7D7D"/>
</linearGradient>
<linearGradient id="paint3_linear_1073_79706" x1="56.1568" y1="64.8209" x2="42.9326" y2="39.5746" gradientUnits="userSpaceOnUse">
<stop stop-color="#F7931E"/>
<stop offset="0.67" stop-color="#F7B50A"/>
<stop offset="1" stop-color="#F7C800"/>
</linearGradient>
<linearGradient id="paint4_linear_1073_79706" x1="65.9326" y1="49.3781" x2="45.2154" y2="49.3781" gradientUnits="userSpaceOnUse">
<stop offset="0.3" stop-color="#201414"/>
<stop offset="0.44" stop-color="#231717"/>
<stop offset="0.57" stop-color="#2F2222"/>
<stop offset="0.71" stop-color="#423535"/>
<stop offset="0.84" stop-color="#5D5050"/>
<stop offset="0.96" stop-color="#807171"/>
<stop offset="1" stop-color="#8C7D7D"/>
</linearGradient>
<linearGradient id="paint5_linear_1073_79706" x1="47.4709" y1="42.892" x2="54.1978" y2="57.5853" gradientUnits="userSpaceOnUse">
<stop stop-color="white"/>
<stop offset="0.28" stop-color="#B1B1B1"/>
<stop offset="0.63" stop-color="#525252"/>
<stop offset="0.88" stop-color="#171717"/>
<stop offset="1"/>
</linearGradient>
<linearGradient id="paint6_linear_1073_79706" x1="79.1416" y1="79.5212" x2="79.1416" y2="48.1988" gradientUnits="userSpaceOnUse">
<stop stop-color="#201414"/>
<stop offset="0.17" stop-color="#241818"/>
<stop offset="0.37" stop-color="#322626"/>
<stop offset="0.59" stop-color="#493C3C"/>
<stop offset="0.81" stop-color="#6A5B5B"/>
<stop offset="1" stop-color="#8C7D7D"/>
</linearGradient>
<linearGradient id="paint7_linear_1073_79706" x1="95.3472" y1="61.4688" x2="76.499" y2="61.4688" gradientUnits="userSpaceOnUse">
<stop stop-color="#201414"/>
<stop offset="0.17" stop-color="#241818"/>
<stop offset="0.37" stop-color="#322626"/>
<stop offset="0.59" stop-color="#493C3C"/>
<stop offset="0.81" stop-color="#6A5B5B"/>
<stop offset="1" stop-color="#8C7D7D"/>
</linearGradient>
<linearGradient id="paint8_linear_1073_79706" x1="61.3406" y1="79.5689" x2="68.6913" y2="48.6564" gradientUnits="userSpaceOnUse">
<stop stop-color="#201414"/>
<stop offset="0.17" stop-color="#241818"/>
<stop offset="0.37" stop-color="#322626"/>
<stop offset="0.59" stop-color="#493C3C"/>
<stop offset="0.81" stop-color="#6A5B5B"/>
<stop offset="1" stop-color="#8C7D7D"/>
</linearGradient>
<linearGradient id="paint9_linear_1073_79706" x1="67.9758" y1="43.4489" x2="22.5545" y2="8.78023" gradientUnits="userSpaceOnUse">
<stop stop-color="#603813"/>
<stop offset="0.12" stop-color="#653D18"/>
<stop offset="0.27" stop-color="#734E28"/>
<stop offset="0.45" stop-color="#8B6A42"/>
<stop offset="0.64" stop-color="#AB9167"/>
<stop offset="0.85" stop-color="#D5C395"/>
<stop offset="1" stop-color="#F9EDBD"/>
</linearGradient>
<linearGradient id="paint10_linear_1073_79706" x1="63.5875" y1="41.3812" x2="23.0958" y2="22.3703" gradientUnits="userSpaceOnUse">
<stop stop-color="#603813"/>
<stop offset="0.12" stop-color="#653D18"/>
<stop offset="0.27" stop-color="#734E28"/>
<stop offset="0.45" stop-color="#8B6A42"/>
<stop offset="0.64" stop-color="#AB9167"/>
<stop offset="0.85" stop-color="#D5C395"/>
<stop offset="1" stop-color="#F9EDBD"/>
</linearGradient>
<linearGradient id="paint11_linear_1073_79706" x1="59.8499" y1="36.7194" x2="3.9021" y2="25.1352" gradientUnits="userSpaceOnUse">
<stop stop-color="#603813"/>
<stop offset="0.12" stop-color="#653D18"/>
<stop offset="0.27" stop-color="#734E28"/>
<stop offset="0.45" stop-color="#8B6A42"/>
<stop offset="0.64" stop-color="#AB9167"/>
<stop offset="0.85" stop-color="#D5C395"/>
<stop offset="1" stop-color="#F9EDBD"/>
</linearGradient>
<linearGradient id="paint12_linear_1073_79706" x1="54.9963" y1="36.7635" x2="10.2629" y2="37.1581" gradientUnits="userSpaceOnUse">
<stop stop-color="#603813"/>
<stop offset="0.12" stop-color="#653D18"/>
<stop offset="0.27" stop-color="#734E28"/>
<stop offset="0.45" stop-color="#8B6A42"/>
<stop offset="0.64" stop-color="#AB9167"/>
<stop offset="0.85" stop-color="#D5C395"/>
<stop offset="1" stop-color="#F9EDBD"/>
</linearGradient>
<linearGradient id="paint13_linear_1073_79706" x1="80.2051" y1="41.537" x2="53.3807" y2="41.537" gradientUnits="userSpaceOnUse">
<stop stop-color="#603813"/>
<stop offset="0.25" stop-color="#82521B"/>
<stop offset="0.8" stop-color="#DA9632"/>
<stop offset="1" stop-color="#FBB03B"/>
</linearGradient>
<linearGradient id="paint14_linear_1073_79706" x1="70.1935" y1="52.6985" x2="70.1935" y2="28.3207" gradientUnits="userSpaceOnUse">
<stop stop-color="#FBB03B"/>
<stop offset="1" stop-color="#603813"/>
</linearGradient>
<linearGradient id="paint15_linear_1073_79706" x1="87.9492" y1="41.2332" x2="66.4522" y2="41.2332" gradientUnits="userSpaceOnUse">
<stop stop-color="#603813"/>
<stop offset="0.25" stop-color="#82521B"/>
<stop offset="0.8" stop-color="#DA9632"/>
<stop offset="1" stop-color="#FBB03B"/>
</linearGradient>
<radialGradient id="paint16_radial_1073_79706" cx="0" cy="0" r="1" gradientUnits="userSpaceOnUse" gradientTransform="translate(70.4074 44.8485) rotate(180) scale(14.1786 14.1871)">
<stop stop-color="#FBB03B"/>
<stop offset="1" stop-color="#603813"/>
</radialGradient>
<linearGradient id="paint17_linear_1073_79706" x1="70.7328" y1="53.1153" x2="70.7328" y2="32.1622" gradientUnits="userSpaceOnUse">
<stop stop-color="#201414"/>
<stop offset="0.17" stop-color="#241818"/>
<stop offset="0.37" stop-color="#322626"/>
<stop offset="0.59" stop-color="#493C3C"/>
<stop offset="0.81" stop-color="#6A5B5B"/>
<stop offset="1" stop-color="#8C7D7D"/>
</linearGradient>
<linearGradient id="paint18_linear_1073_79706" x1="70.8391" y1="46.924" x2="70.8391" y2="32.2157" gradientUnits="userSpaceOnUse">
<stop/>
<stop offset="0.18" stop-color="#020202"/>
<stop offset="0.32" stop-color="#0C0C0C"/>
<stop offset="0.44" stop-color="#1C1C1C"/>
<stop offset="0.55" stop-color="#333333"/>
<stop offset="0.66" stop-color="#505050"/>
<stop offset="0.76" stop-color="#747474"/>
<stop offset="0.86" stop-color="#9F9F9F"/>
<stop offset="0.95" stop-color="#CFCFCF"/>
<stop offset="1" stop-color="#EDEDED"/>
</linearGradient>
<radialGradient id="paint19_radial_1073_79706" cx="0" cy="0" r="1" gradientUnits="userSpaceOnUse" gradientTransform="translate(87.9448 33.0379) rotate(180) scale(6.84226 6.84639)">
<stop stop-color="#FBB03B"/>
<stop offset="1" stop-color="#603813"/>
</radialGradient>
<linearGradient id="paint20_linear_1073_79706" x1="97.7577" y1="32.8056" x2="101.163" y2="26.3093" gradientUnits="userSpaceOnUse">
<stop stop-color="#201414"/>
<stop offset="0.17" stop-color="#241818"/>
<stop offset="0.37" stop-color="#322626"/>
<stop offset="0.59" stop-color="#493C3C"/>
<stop offset="0.81" stop-color="#6A5B5B"/>
<stop offset="1" stop-color="#8C7D7D"/>
</linearGradient>
<linearGradient id="paint21_linear_1073_79706" x1="84.2424" y1="40.8556" x2="97.646" y2="33.9683" gradientUnits="userSpaceOnUse">
<stop stop-color="#201414"/>
<stop offset="0.17" stop-color="#241818"/>
<stop offset="0.37" stop-color="#322626"/>
<stop offset="0.59" stop-color="#493C3C"/>
<stop offset="0.81" stop-color="#6A5B5B"/>
<stop offset="1" stop-color="#8C7D7D"/>
</linearGradient>
<radialGradient id="paint22_radial_1073_79706" cx="0" cy="0" r="1" gradientUnits="userSpaceOnUse" gradientTransform="translate(92.9328 35.568) rotate(-116.506) scale(3.94238 3.94095)">
<stop stop-color="#8C7D7D"/>
<stop offset="0.22" stop-color="#796A6A"/>
<stop offset="0.66" stop-color="#493C3C"/>
<stop offset="1" stop-color="#201414"/>
</radialGradient>
<linearGradient id="paint23_linear_1073_79706" x1="98.2608" y1="29.8186" x2="98.2608" y2="19.9198" gradientUnits="userSpaceOnUse">
<stop stop-color="#201414"/>
<stop offset="0.17" stop-color="#241818"/>
<stop offset="0.37" stop-color="#322626"/>
<stop offset="0.59" stop-color="#493C3C"/>
<stop offset="0.81" stop-color="#6A5B5B"/>
<stop offset="1" stop-color="#8C7D7D"/>
</linearGradient>
<linearGradient id="paint24_linear_1073_79706" x1="91.2424" y1="35.5711" x2="94.2387" y2="35.8974" gradientUnits="userSpaceOnUse">
<stop/>
<stop offset="0.21" stop-color="#020202"/>
<stop offset="0.35" stop-color="#0B0B0B"/>
<stop offset="0.47" stop-color="#1A1A1A"/>
<stop offset="0.57" stop-color="#2F2F2F"/>
<stop offset="0.67" stop-color="#4B4B4B"/>
<stop offset="0.76" stop-color="#6C6C6C"/>
<stop offset="0.85" stop-color="#949494"/>
<stop offset="0.93" stop-color="#C1C1C1"/>
<stop offset="1" stop-color="#EDEDED"/>
</linearGradient>
</defs>
</svg>
