<svg width="40" height="40" viewBox="0 0 40 40" fill="none" xmlns="http://www.w3.org/2000/svg">
<path d="M40.0018 9.7175V29.3038C40.0018 30.2455 39.3483 31.035 38.4694 31.2419C22.4972 28.4358 17.2755 17.7546 22.5137 8.49414C28.3414 8.44187 34.1708 8.84992 40.0018 9.7175Z" fill="#7888AF"/>
<path d="M38.4695 31.2419C38.3222 31.2773 38.1684 31.2958 38.0099 31.2958H8.99586C7.8957 31.2958 7.00391 30.4041 7.00391 29.3038V9.7175C12.1725 8.94805 17.3427 8.54 22.5138 8.49414C23.3089 16.2262 26.6288 27.3891 38.4695 31.2419Z" fill="#687DAA"/>
<path d="M36.0161 9.05353V28.6406C36.0161 28.6406 31.5181 31.2958 30.2745 29.6284C20.7301 25.9616 20.4338 16.7292 22.5722 9.05353H36.0161Z" fill="#FFF8E6"/>
<path d="M33.0552 28.6406L31.3674 33.2877H12.9763C11.8762 33.2877 10.9844 32.396 10.9844 31.2958V9.05353H22.5707C23.3095 15.3899 25.7691 23.7738 33.0552 28.6406Z" fill="#FFEAB7"/>
<path d="M36.0148 28.6402L31.3672 33.2878V29.9681C31.3672 29.2348 31.9617 28.6402 32.6951 28.6402H36.0148Z" fill="#FFBE73"/>
<path d="M40.0012 4.40641V9.71751H22.6571C19.8595 7.51876 19.9396 4.86462 22.3295 2.41446H38.0092C39.1095 2.41446 40.0012 3.30626 40.0012 4.40641Z" fill="#FF938A"/>
<path d="M22.6578 9.71751H7.00391V4.40641C7.00391 3.30626 7.89563 2.41446 8.99586 2.41446H22.3302C22.2514 4.05876 22.2537 6.68415 22.6578 9.71751Z" fill="#FD7A6E"/>
<path d="M35.9741 3.62172V1.20727C35.9741 0.540469 35.4336 0 34.7668 0C34.1001 0 33.5595 0.540469 33.5595 1.20727V3.62172C33.5595 4.28844 34.1 4.82898 34.7668 4.82898C35.4336 4.82898 35.9741 4.28844 35.9741 3.62172ZM30.3402 3.62172V1.20727C30.3402 0.540469 29.7998 0 29.133 0C28.4663 0 27.9258 0.540469 27.9258 1.20727V3.62172C27.9258 4.28844 28.4663 4.82898 29.133 4.82898C29.7998 4.82898 30.3402 4.28844 30.3402 3.62172Z" fill="#F9EE80"/>
<path d="M19.0717 3.62172V1.20727C19.0717 0.540469 18.5312 0 17.8645 0C17.1977 0 16.6572 0.540469 16.6572 1.20727V3.62172C16.6572 4.28844 17.1977 4.82898 17.8645 4.82898C18.5312 4.82898 19.0717 4.28844 19.0717 3.62172ZM13.4379 3.62172V1.20727C13.4379 0.540469 12.8974 0 12.2307 0C11.564 0 11.0234 0.540469 11.0234 1.20727V3.62172C11.0234 4.28844 11.5639 4.82898 12.2307 4.82898C12.8974 4.82898 13.4379 4.28844 13.4379 3.62172Z" fill="#F9D171"/>
<path d="M32.797 16.7598H30.7848C30.6248 16.7598 30.4712 16.6962 30.358 16.583C30.2448 16.4698 30.1813 16.3163 30.1813 16.1562C30.1813 15.9961 30.2448 15.8426 30.358 15.7294C30.4712 15.6162 30.6248 15.5526 30.7848 15.5526H32.797C32.957 15.5526 33.1106 15.6162 33.2238 15.7294C33.337 15.8426 33.4005 15.9961 33.4005 16.1562C33.4005 16.3163 33.337 16.4698 33.2238 16.583C33.1106 16.6962 32.957 16.7598 32.797 16.7598ZM28.3704 16.7598H26.3583C26.1982 16.7598 26.0447 16.6962 25.9315 16.583C25.8183 16.4698 25.7547 16.3163 25.7547 16.1562C25.7547 15.9961 25.8183 15.8426 25.9315 15.7294C26.0447 15.6162 26.1982 15.5526 26.3583 15.5526H28.3704C28.5305 15.5526 28.684 15.6162 28.7972 15.7294C28.9104 15.8426 28.974 15.9961 28.974 16.1562C28.974 16.3163 28.9104 16.4698 28.7972 16.583C28.684 16.6962 28.5305 16.7598 28.3704 16.7598ZM32.797 19.9791H30.7848C30.6248 19.9791 30.4712 19.9155 30.358 19.8023C30.2448 19.6891 30.1813 19.5356 30.1813 19.3755C30.1813 19.2154 30.2448 19.0619 30.358 18.9487C30.4712 18.8355 30.6248 18.7719 30.7848 18.7719H32.797C32.957 18.7719 33.1106 18.8355 33.2238 18.9487C33.337 19.0619 33.4005 19.2154 33.4005 19.3755C33.4005 19.5356 33.337 19.6891 33.2238 19.8023C33.1106 19.9155 32.957 19.9791 32.797 19.9791ZM28.3704 19.9791H26.3583C26.1982 19.9791 26.0447 19.9155 25.9315 19.8023C25.8183 19.6891 25.7547 19.5356 25.7547 19.3755C25.7547 19.2154 25.8183 19.0619 25.9315 18.9487C26.0447 18.8355 26.1982 18.7719 26.3583 18.7719H28.3704C28.5305 18.7719 28.684 18.8355 28.7972 18.9487C28.9104 19.0619 28.974 19.2154 28.974 19.3755C28.974 19.5356 28.9104 19.6891 28.7972 19.8023C28.684 19.9155 28.5305 19.9791 28.3704 19.9791ZM23.9438 16.7598H21.9317C21.7716 16.7598 21.6181 16.6962 21.5049 16.583C21.3917 16.4698 21.3281 16.3163 21.3281 16.1562C21.3281 15.9961 21.3917 15.8426 21.5049 15.7294C21.6181 15.6162 21.7716 15.5526 21.9317 15.5526H23.9438C24.2773 15.5526 24.5474 15.8228 24.5474 16.1562C24.5474 16.4895 24.2773 16.7598 23.9438 16.7598ZM23.9438 19.9791H21.9317C21.7716 19.9791 21.6181 19.9155 21.5049 19.8023C21.3917 19.6891 21.3281 19.5356 21.3281 19.3755C21.3281 19.2154 21.3917 19.0619 21.5049 18.9487C21.6181 18.8355 21.7716 18.7719 21.9317 18.7719H23.9438C24.2773 18.7719 24.5474 19.0421 24.5474 19.3755C24.5474 19.7088 24.2773 19.9791 23.9438 19.9791ZM32.797 13.5405H30.7848C30.6248 13.5405 30.4712 13.4769 30.358 13.3637C30.2448 13.2505 30.1813 13.097 30.1813 12.9369C30.1813 12.7768 30.2448 12.6233 30.358 12.5101C30.4712 12.3969 30.6248 12.3333 30.7848 12.3333H32.797C32.957 12.3333 33.1106 12.3969 33.2238 12.5101C33.337 12.6233 33.4005 12.7768 33.4005 12.9369C33.4005 13.097 33.337 13.2505 33.2238 13.3637C33.1106 13.4769 32.957 13.5405 32.797 13.5405ZM28.3704 13.5405H26.3583C26.1982 13.5405 26.0447 13.4769 25.9315 13.3637C25.8183 13.2505 25.7547 13.097 25.7547 12.9369C25.7547 12.7768 25.8183 12.6233 25.9315 12.5101C26.0447 12.3969 26.1982 12.3333 26.3583 12.3333H28.3704C28.5305 12.3333 28.684 12.3969 28.7972 12.5101C28.9104 12.6233 28.974 12.7768 28.974 12.9369C28.974 13.097 28.9104 13.2505 28.7972 13.3637C28.684 13.4769 28.5305 13.5405 28.3704 13.5405ZM23.9438 13.5405H21.9317C21.7716 13.5405 21.6181 13.4769 21.5049 13.3637C21.3917 13.2505 21.3281 13.097 21.3281 12.9369C21.3281 12.7768 21.3917 12.6233 21.5049 12.5101C21.6181 12.3969 21.7716 12.3333 21.9317 12.3333H23.9438C24.2773 12.3333 24.5474 12.6035 24.5474 12.9369C24.5474 13.2702 24.2773 13.5405 23.9438 13.5405ZM28.3704 23.1984H26.3583C26.279 23.1984 26.2005 23.1828 26.1273 23.1525C26.054 23.1222 25.9875 23.0777 25.9315 23.0217C25.8754 22.9656 25.8309 22.8991 25.8006 22.8258C25.7703 22.7526 25.7547 22.6741 25.7547 22.5948C25.7547 22.5156 25.7703 22.4371 25.8006 22.3638C25.8309 22.2906 25.8754 22.2241 25.9315 22.168C25.9875 22.112 26.054 22.0675 26.1273 22.0372C26.2005 22.0068 26.279 21.9912 26.3583 21.9913H28.3704C28.5305 21.9913 28.684 22.0548 28.7972 22.168C28.9104 22.2812 28.974 22.4348 28.974 22.5948C28.974 22.7549 28.9104 22.9085 28.7972 23.0216C28.684 23.1348 28.5305 23.1984 28.3704 23.1984ZM23.9438 23.1984H21.9317C21.8524 23.1984 21.774 23.1828 21.7007 23.1525C21.6275 23.1222 21.5609 23.0777 21.5049 23.0217C21.4488 22.9656 21.4044 22.8991 21.374 22.8258C21.3437 22.7526 21.3281 22.6741 21.3281 22.5948C21.3281 22.5156 21.3437 22.4371 21.374 22.3638C21.4044 22.2906 21.4488 22.2241 21.5049 22.168C21.5609 22.112 21.6275 22.0675 21.7007 22.0372C21.774 22.0068 21.8524 21.9912 21.9317 21.9913H23.9438C24.2773 21.9913 24.5474 22.2615 24.5474 22.5948C24.5474 22.9282 24.2773 23.1984 23.9438 23.1984Z" fill="#7888AF"/>
<path d="M2.01211 13.1889C0.900859 13.1889 0 14.0898 0 15.201V16.6014C0 17.0459 0.360313 17.4062 0.804844 17.4062H4.82898V15.201C4.82898 14.0898 3.12328 13.1889 2.01211 13.1889Z" fill="#93BCE8"/>
<path d="M19.3175 16.4082V33.5197C7.6475 31.5795 4.60836 20.674 6.36945 13.1889H16.0982C17.8761 13.1889 19.3175 14.6303 19.3175 16.4082Z" fill="#B0F0EF"/>
<path d="M19.3152 33.5197V39.3812C19.3152 39.7241 18.9136 39.91 18.652 39.6887L17.9245 39.0706C17.7791 38.9471 17.5945 38.8792 17.4037 38.8792C17.213 38.8792 17.0284 38.9471 16.883 39.0706L16.013 39.8087C15.8677 39.9322 15.6831 40 15.4923 40C15.3016 40 15.117 39.9322 14.9716 39.8087L14.1016 39.0706C13.9563 38.9471 13.7717 38.8792 13.5809 38.8792C13.3902 38.8792 13.2056 38.9471 13.0602 39.0706L12.1902 39.8087C12.0449 39.9322 11.8603 40 11.6695 40C11.4788 40 11.2942 39.9322 11.1488 39.8087L10.2788 39.0706C10.1335 38.9471 9.9489 38.8792 9.75812 38.8792C9.56735 38.8792 9.38279 38.9471 9.23742 39.0706L8.36742 39.8087C8.22205 39.9322 8.03749 40 7.84672 40C7.65594 40 7.47138 39.9322 7.32601 39.8087L6.45602 39.0706C6.31065 38.9471 6.12609 38.8792 5.93531 38.8792C5.74454 38.8792 5.55998 38.9471 5.41461 39.0706L4.68703 39.6887C4.42547 39.91 4.02383 39.7241 4.02383 39.3812V15.201C4.02383 14.0895 3.1232 13.1889 2.01172 13.1889H6.36742C6.43719 18.7922 8.08789 30.3415 19.3152 33.5197Z" fill="#93ECEA"/>
<path d="M15.6948 30.3723H14.0852C13.9251 30.3723 13.7715 30.3087 13.6584 30.1955C13.5452 30.0823 13.4816 29.9287 13.4816 29.7687C13.4816 29.6086 13.5452 29.4551 13.6584 29.3419C13.7715 29.2287 13.9251 29.1651 14.0852 29.1651H15.6948C15.8549 29.1651 16.0085 29.2287 16.1216 29.3419C16.2348 29.4551 16.2984 29.6086 16.2984 29.7687C16.2984 29.9287 16.2348 30.0823 16.1216 30.1955C16.0085 30.3087 15.8549 30.3723 15.6948 30.3723ZM11.6707 30.3723H7.64656C7.48648 30.3723 7.33295 30.3087 7.21976 30.1955C7.10656 30.0823 7.04297 29.9287 7.04297 29.7687C7.04297 29.6086 7.10656 29.4551 7.21976 29.3419C7.33295 29.2287 7.48648 29.1651 7.64656 29.1651H11.6707C11.8308 29.1651 11.9843 29.2287 12.0975 29.3419C12.2107 29.4551 12.2743 29.6086 12.2743 29.7687C12.2743 29.9287 12.2107 30.0823 12.0975 30.1955C11.9843 30.3087 11.8308 30.3723 11.6707 30.3723ZM15.6948 27.9577H7.64656C7.48648 27.9577 7.33295 27.8941 7.21976 27.7809C7.10656 27.6677 7.04297 27.5142 7.04297 27.3541C7.04297 27.1941 7.10656 27.0405 7.21976 26.9273C7.33295 26.8141 7.48648 26.7505 7.64656 26.7505H15.6948C15.8549 26.7505 16.0085 26.8141 16.1216 26.9273C16.2348 27.0405 16.2984 27.1941 16.2984 27.3541C16.2984 27.5142 16.2348 27.6677 16.1216 27.7809C16.0085 27.8941 15.8549 27.9577 15.6948 27.9577ZM15.6948 32.7867H14.0852C13.9251 32.7867 13.7715 32.7231 13.6584 32.6099C13.5452 32.4967 13.4816 32.3432 13.4816 32.1831C13.4816 32.023 13.5452 31.8695 13.6584 31.7563C13.7715 31.6431 13.9251 31.5795 14.0852 31.5795H15.6948C15.8549 31.5795 16.0085 31.6431 16.1216 31.7563C16.2348 31.8695 16.2984 32.023 16.2984 32.1831C16.2984 32.3432 16.2348 32.4967 16.1216 32.6099C16.0085 32.7231 15.8549 32.7867 15.6948 32.7867ZM11.6707 32.7867H7.64656C7.48648 32.7867 7.33295 32.7231 7.21976 32.6099C7.10656 32.4967 7.04297 32.3432 7.04297 32.1831C7.04297 32.023 7.10656 31.8695 7.21976 31.7563C7.33295 31.6431 7.48648 31.5795 7.64656 31.5795H11.6707C11.8308 31.5795 11.9843 31.6431 12.0975 31.7563C12.2107 31.8695 12.2743 32.023 12.2743 32.1831C12.2743 32.3432 12.2107 32.4967 12.0975 32.6099C11.9843 32.7231 11.8308 32.7867 11.6707 32.7867ZM15.6948 35.2012H14.0852C13.9251 35.2012 13.7715 35.1377 13.6584 35.0245C13.5452 34.9113 13.4816 34.7577 13.4816 34.5977C13.4816 34.4376 13.5452 34.284 13.6584 34.1708C13.7715 34.0576 13.9251 33.9941 14.0852 33.9941H15.6948C15.8549 33.9941 16.0085 34.0576 16.1216 34.1708C16.2348 34.284 16.2984 34.4376 16.2984 34.5977C16.2984 34.7577 16.2348 34.9113 16.1216 35.0245C16.0085 35.1377 15.8549 35.2012 15.6948 35.2012ZM11.6707 35.2012H7.64656C7.48648 35.2012 7.33295 35.1377 7.21976 35.0245C7.10656 34.9113 7.04297 34.7577 7.04297 34.5977C7.04297 34.4376 7.10656 34.284 7.21976 34.1708C7.33295 34.0576 7.48648 33.9941 7.64656 33.9941H11.6707C11.8308 33.9941 11.9843 34.0576 12.0975 34.1708C12.2107 34.284 12.2743 34.4376 12.2743 34.5977C12.2743 34.7577 12.2107 34.9113 12.0975 35.0245C11.9843 35.1377 11.8308 35.2012 11.6707 35.2012ZM11.6707 24.7384C11.5106 24.7384 11.3571 24.6748 11.2439 24.5616C11.1307 24.4484 11.0671 24.2949 11.0671 24.1348V23.2536C11.0671 23.0935 11.1307 22.94 11.2439 22.8268C11.3571 22.7136 11.5106 22.65 11.6707 22.65C11.8308 22.65 11.9843 22.7136 12.0975 22.8268C12.2107 22.94 12.2743 23.0935 12.2743 23.2536V24.1348C12.2743 24.2949 12.2107 24.4484 12.0975 24.5616C11.9843 24.6748 11.8308 24.7384 11.6707 24.7384ZM11.6707 18.698C11.5106 18.698 11.3571 18.6344 11.2439 18.5213C11.1307 18.4081 11.0671 18.2545 11.0671 18.0944V17.2133C11.0671 17.0532 11.1307 16.8997 11.2439 16.7865C11.3571 16.6733 11.5106 16.6097 11.6707 16.6097C11.8308 16.6097 11.9843 16.6733 12.0975 16.7865C12.2107 16.8997 12.2743 17.0532 12.2743 17.2133V18.0944C12.2743 18.2545 12.2107 18.4081 12.0975 18.5213C11.9843 18.6344 11.8308 18.698 11.6707 18.698Z" fill="#7888AF"/>
<path d="M11.6701 23.8571C11.1644 23.8571 10.6905 23.661 10.3319 23.3024C10.0974 23.0678 9.92865 22.7757 9.84242 22.4555C9.80088 22.3009 9.82243 22.1361 9.90235 21.9974C9.98227 21.8587 10.114 21.7574 10.2686 21.7158C10.4232 21.6743 10.588 21.6958 10.7267 21.7758C10.8653 21.8557 10.9666 21.9874 11.0082 22.142C11.0394 22.258 11.1005 22.3638 11.1855 22.4487C11.3189 22.5822 11.4977 22.6521 11.6854 22.6497C12.0561 22.6423 12.3576 22.3216 12.3576 21.9346C12.3576 21.8277 12.3247 21.7234 12.2633 21.6359C12.2017 21.5485 12.1147 21.482 12.0141 21.4455L10.9136 21.045C10.2341 20.7983 9.77734 20.1463 9.77734 19.4227V19.4133C9.77734 18.374 10.6095 17.5117 11.6325 17.4912C12.1452 17.4773 12.6476 17.6828 13.0097 18.0448C13.2446 18.2796 13.4136 18.5721 13.4995 18.893C13.5214 18.97 13.5277 19.0507 13.5182 19.1302C13.5086 19.2097 13.4833 19.2866 13.4437 19.3562C13.4042 19.4259 13.3511 19.487 13.2877 19.536C13.2243 19.5849 13.1518 19.6208 13.0744 19.6414C12.997 19.662 12.9162 19.6671 12.8369 19.6562C12.7575 19.6453 12.6811 19.6188 12.6121 19.5781C12.5431 19.5373 12.4829 19.4833 12.435 19.4191C12.3871 19.3549 12.3524 19.2818 12.333 19.2041C12.3019 19.0884 12.2409 18.9831 12.1561 18.8986C12.0908 18.833 12.0129 18.7815 11.927 18.747C11.8412 18.7126 11.7492 18.696 11.6567 18.6983C11.2862 18.7058 10.9847 19.0265 10.9847 19.4134V19.4228C10.9849 19.5293 11.0177 19.6331 11.0788 19.7203C11.1399 19.8075 11.2262 19.8738 11.3262 19.9104L12.4286 20.3116C12.7613 20.4327 13.0488 20.6532 13.252 20.9432C13.456 21.2335 13.5653 21.5798 13.5648 21.9346C13.5648 22.9741 12.7326 23.8362 11.7097 23.8566C11.6964 23.8569 11.6832 23.8571 11.6701 23.8571Z" fill="#7888AF"/>
</svg>
