<svg width="40" height="40" viewBox="0 0 40 40" fill="none" xmlns="http://www.w3.org/2000/svg">
<g clip-path="url(#clip0_389_3179)">
<path d="M30.4645 31.3744C30.4645 36.9305 10.3438 36.9305 10.3438 31.3744C10.3438 25.8182 14.8479 21.3141 20.4041 21.3141C25.9602 21.3141 30.4645 25.8182 30.4645 31.3744Z" fill="#DF8A57"/>
<path d="M18.9922 6.71445H21.8091V18.7869H18.9922V6.71445Z" fill="#8DD470"/>
<path d="M26.4389 17.9637C26.4389 19.7102 25.6969 21.2837 24.5106 22.3862H24.5098C17.3973 21.7755 17.3923 15.2009 18.5162 12.2285C19.1093 12.033 19.7436 11.9275 20.4027 11.9275C23.7364 11.9276 26.4389 14.6301 26.4389 17.9637Z" fill="#F9EE80"/>
<path d="M24.5112 22.3863C23.4344 23.3875 21.9905 24 20.4034 24C17.0698 24 14.3672 21.2973 14.3672 17.9638C14.3672 15.2893 16.1073 13.0205 18.5169 12.2285C18.434 14.4314 18.8002 20.7396 24.5112 22.3863Z" fill="#F9D171"/>
<path d="M22.4 19.3252C22.4 18.9509 22.2865 18.5907 22.071 18.2823C21.8572 17.9772 21.5547 17.7452 21.2046 17.6178L20.0141 17.1845C19.8968 17.1416 19.7955 17.0638 19.7239 16.9615C19.6522 16.8592 19.6137 16.7374 19.6134 16.6126V16.6024C19.6134 16.1584 19.9602 15.7903 20.3866 15.7818C20.493 15.779 20.5989 15.798 20.6977 15.8376C20.7964 15.8773 20.8861 15.9367 20.961 16.0123C21.0586 16.1096 21.1289 16.2309 21.1647 16.3641C21.2075 16.5171 21.3088 16.647 21.4468 16.7258C21.5848 16.8045 21.7483 16.8257 21.9018 16.7847C22.0553 16.7438 22.1864 16.6439 22.2668 16.5069C22.3472 16.3698 22.3703 16.2066 22.3311 16.0527C22.2405 15.7144 22.0624 15.4061 21.8147 15.1586C21.5884 14.9329 21.3114 14.7648 21.0067 14.6682V14.342C21.0067 14.1819 20.9431 14.0284 20.8299 13.9152C20.7167 13.802 20.5632 13.7384 20.4031 13.7384C20.243 13.7384 20.0895 13.802 19.9763 13.9152C19.8631 14.0284 19.7995 14.1819 19.7995 14.342V14.67C18.9944 14.9324 18.4062 15.7048 18.4062 16.6024V16.6126C18.4062 17.3737 18.8868 18.0596 19.6016 18.3191L20.7903 18.7517C20.9081 18.7945 21.01 18.8724 21.0822 18.9748C21.1543 19.0774 21.1929 19.1998 21.1928 19.3252C21.1928 19.7691 20.846 20.1373 20.4196 20.1458C20.3131 20.1483 20.2072 20.1291 20.1083 20.0894C20.0095 20.0496 19.9198 19.9902 19.8446 19.9147C19.7469 19.8169 19.6765 19.6952 19.6405 19.5616C19.5975 19.4087 19.4959 19.2789 19.3577 19.2004C19.2196 19.1219 19.056 19.101 18.9026 19.1423C18.7491 19.1836 18.6182 19.2837 18.5381 19.421C18.458 19.5582 18.4352 19.7215 18.4748 19.8754C18.5658 20.213 18.7437 20.5209 18.9909 20.7683C19.2218 20.9992 19.498 21.1662 19.7995 21.2612V21.5855C19.7995 21.7455 19.8631 21.8991 19.9763 22.0123C20.0895 22.1255 20.243 22.1891 20.4031 22.1891C20.5632 22.1891 20.7167 22.1255 20.8299 22.0123C20.9431 21.8991 21.0067 21.7455 21.0067 21.5855V21.2577C21.8119 20.9953 22.4 20.2229 22.4 19.3252Z" fill="#7888AF"/>
<path d="M30.865 0.804844V1.60969C30.865 4.15781 29.3849 6.35977 27.2376 7.40367C21.155 6.88609 21.9788 2.64867 23.5346 0.912734C24.5012 0.333203 25.632 0 26.8408 0H30.0601C30.5044 0 30.865 0.360547 30.865 0.804844Z" fill="#BBE5A7"/>
<path d="M27.2377 7.40359C26.3887 7.81648 25.4341 8.04828 24.4265 8.04828H20.4023V6.43859C20.4023 4.09172 21.6579 2.03781 23.5348 0.912655C23.4792 2.29055 23.6941 6.28008 27.2377 7.40359Z" fill="#9CDA82"/>
<path d="M20.4032 6.43859V8.04828H17.7746C11.4731 6.61367 10.9224 1.62539 13.2837 0H13.9645C17.5203 0 20.4032 2.88289 20.4032 6.43859Z" fill="#BBE5A7"/>
<path d="M17.7755 8.04828H16.38C12.8243 8.04828 9.94141 5.16539 9.94141 1.60969V0.804844C9.94133 0.360547 10.302 0 10.7462 0H13.2846C13.2073 1.62492 13.4174 6.61328 17.7755 8.04828Z" fill="#9CDA82"/>
<path d="M39.2025 29.0286L31.7256 36.5047C30.5181 37.7121 28.8804 38.3904 27.1728 38.3904H15.9486C9.60205 37.8601 7.18471 35.2478 8.07158 32.3336L21.4544 33.7667C21.4544 33.7667 30.0902 33.6251 31.7835 28.7824C31.7852 28.7768 31.7771 28.7727 31.7731 28.768L35.357 25.1833C36.4185 24.1217 38.1401 24.1217 39.2024 25.1833C40.2641 26.2447 40.2641 27.9662 39.2025 29.0286Z" fill="#FFDDCF"/>
<path d="M32.4366 31.7159C32.105 33.5959 30.4809 34.9609 28.5734 34.9609C28.3456 34.9609 28.1146 34.9408 27.8884 34.9005L21.457 33.7665H26.777L31.7758 28.7677C31.7798 28.7726 31.783 28.7774 31.7862 28.7823C32.3882 29.6418 32.6192 30.6833 32.4366 31.7159Z" fill="#FFCBBE"/>
<path d="M31.2891 31.0471C31.2891 32.5489 30.0722 33.7666 28.5703 33.7666H9.26488C5.9905 33.1838 5.60793 30.5481 7.79043 28.5787H9.39605C9.75261 28.5787 10.0986 28.4604 10.3803 28.2431L10.5727 28.0949C11.9816 27.0054 13.7123 26.4144 15.4934 26.4145H18.0375C19.6962 26.4145 21.3147 26.9271 22.6709 27.8816L22.8882 28.0354C23.1597 28.2261 23.4835 28.3284 23.8153 28.3284H28.5703C28.9275 28.3278 29.2812 28.3979 29.6112 28.5347C29.9412 28.6714 30.2409 28.8721 30.493 29.1252C30.9849 29.6169 31.2891 30.297 31.2891 31.0471Z" fill="#FFDDCF"/>
<path d="M15.9499 38.3903H3.21914C1.88555 38.3903 0.804688 37.3094 0.804688 35.9759V30.9931C0.804688 29.6595 1.88555 28.5787 3.21914 28.5787H7.78977C7.90562 33.7594 11.331 37.2893 15.9499 38.3903Z" fill="#FFCBBE"/>
<path d="M0.804844 40H4.82898C5.71797 40 6.43867 39.2793 6.43867 38.3903V28.5788C6.43867 27.6898 5.71797 26.9691 4.82898 26.9691H0.804844C0.360312 26.9691 0 27.3294 0 27.7739V39.1952C0 39.6397 0.360312 40 0.804844 40Z" fill="#93BCE8"/>
<path d="M3.22078 37.1063C3.14151 37.1063 3.06302 37.0907 2.98978 37.0603C2.91655 37.03 2.85 36.9855 2.79395 36.9295C2.7379 36.8734 2.69344 36.8069 2.66311 36.7337C2.63278 36.6604 2.61718 36.5819 2.61719 36.5027V35.2954C2.61719 35.1353 2.68078 34.9818 2.79398 34.8686C2.90717 34.7554 3.0607 34.6918 3.22078 34.6918C3.38086 34.6918 3.53439 34.7554 3.64759 34.8686C3.76078 34.9818 3.82437 35.1353 3.82437 35.2954V36.5027C3.82439 36.5819 3.80878 36.6604 3.77845 36.7337C3.74812 36.8069 3.70366 36.8734 3.64761 36.9295C3.59156 36.9855 3.52501 37.03 3.45178 37.0603C3.37854 37.0907 3.30005 37.1063 3.22078 37.1063Z" fill="#FFF8E6"/>
</g>
<defs>
<clipPath id="clip0_389_3179">
<rect width="40" height="40" fill="white"/>
</clipPath>
</defs>
</svg>
