<svg width="40" height="40" viewBox="0 0 40 40" fill="none" xmlns="http://www.w3.org/2000/svg">
<g clip-path="url(#clip0_389_3105)">
<path d="M39.9993 18.227V21.773C39.9993 22.3727 39.5599 22.8813 38.9667 22.9674L36.2818 23.3594C35.9583 23.4069 35.6975 23.6459 35.617 23.963C35.2353 25.4653 34.6376 26.9044 33.8424 28.235C33.6742 28.5167 33.6895 28.8708 33.8851 29.1332L35.51 31.3134C35.8681 31.7939 35.8191 32.4644 35.3949 32.8885L32.8879 35.3955C32.4638 35.8197 31.7934 35.8688 31.3128 35.5106L29.1325 33.8857C28.8702 33.6902 28.516 33.6748 28.2343 33.843C27.6493 34.1926 27.0426 34.5044 26.4178 34.7766C8.97564 32.3293 8.75658 15.0513 11.8126 6.12875C13.1296 5.34739 14.5521 4.75922 16.0363 4.38227C16.3535 4.3018 16.5925 4.04102 16.6399 3.71742L17.0319 1.0325C17.1181 0.439453 17.6267 0 18.2263 0H21.7724C22.372 0 22.8806 0.439453 22.9667 1.03258L23.3587 3.7175C23.4062 4.04102 23.6452 4.3018 23.9623 4.38234C25.4647 4.76406 26.9037 5.36183 28.2343 6.15695C28.516 6.32516 28.8701 6.30984 29.1325 6.1143L31.3128 4.48938C31.7933 4.13125 32.4638 4.18031 32.8879 4.60445L35.3949 7.11148C35.8191 7.53562 35.8681 8.20609 35.51 8.68656L33.8851 10.8668C33.6895 11.1291 33.6742 11.4833 33.8424 11.765C34.6376 13.0956 35.2354 14.5346 35.617 16.037C35.6975 16.3541 35.9583 16.5932 36.2818 16.6406L38.9667 17.0326C39.5599 17.1187 39.9993 17.6273 39.9993 18.227Z" fill="#7FB0E4"/>
<path d="M26.4185 34.7766C25.6242 35.1232 24.803 35.4044 23.963 35.6177C23.6459 35.6981 23.4068 35.9589 23.3594 36.2825L22.9674 38.9674C22.8813 39.5605 22.3727 40 21.773 40H18.227C17.6273 40 17.1187 39.5605 17.0326 38.9674L16.6406 36.2825C16.5931 35.959 16.3541 35.6982 16.037 35.6177C14.5347 35.2359 13.0956 34.6382 11.765 33.843C11.4833 33.6748 11.1292 33.6902 10.8668 33.8857L8.68648 35.5106C8.20602 35.8688 7.53555 35.8197 7.11141 35.3955L4.60437 32.8885C4.18023 32.4644 4.13117 31.7939 4.4893 31.3134L6.11422 29.1332C6.30977 28.8708 6.32508 28.5167 6.15687 28.235C5.36168 26.9044 4.7639 25.4654 4.38227 23.963C4.3018 23.6459 4.04102 23.4068 3.7175 23.3594L1.03258 22.9674C0.439453 22.8812 0 22.3727 0 21.773V18.2269C0 17.6273 0.439453 17.1187 1.03258 17.0326L3.7175 16.6406C4.04102 16.5931 4.3018 16.3541 4.38227 16.037C4.76399 14.5347 5.36175 13.0956 6.15687 11.765C6.32508 11.4833 6.30977 11.1291 6.11422 10.8668L4.4893 8.68656C4.13117 8.20609 4.18023 7.53562 4.60437 7.11148L7.11141 4.60445C7.53555 4.18031 8.20594 4.13125 8.68648 4.48937L10.8668 6.11429C11.1291 6.30992 11.4833 6.32515 11.765 6.15695C11.7811 6.14726 11.7972 6.13765 11.8133 6.12875C11.5936 12.2302 12.5634 28.7613 26.4185 34.7766Z" fill="#68A2DF"/>
<path d="M12.053 12.3396H12.0523C10.1384 14.3243 8.96094 17.0245 8.96094 20C8.96094 26.0958 13.9026 31.0374 19.9984 31.0374C20.1827 31.0374 20.3654 31.0326 20.5473 31.0237C14.754 25.8109 12.7009 18.1891 12.053 12.3396Z" fill="#FD7A6E"/>
<path d="M19.9994 8.96257C16.8791 8.96257 14.0606 10.2576 12.0542 12.3396C11.0296 19.1959 12.9667 26.8875 20.5483 31.0237C26.3889 30.738 31.0368 25.9114 31.0368 19.9999C31.0368 13.9042 26.0952 8.96257 19.9994 8.96257Z" fill="#FF938A"/>
<path d="M11.5564 17.623C11.4487 17.5047 11.2983 17.434 11.1384 17.4265C10.9785 17.419 10.8221 17.4753 10.7037 17.583L9.65106 18.5415C10.3635 13.4761 14.7314 9.566 19.9964 9.566C22.7873 9.566 25.4107 10.6515 27.3834 12.6227C27.4968 12.735 27.6501 12.7977 27.8097 12.7973C27.9693 12.7968 28.1222 12.7332 28.2351 12.6203C28.3479 12.5074 28.4114 12.3544 28.4117 12.1948C28.412 12.0352 28.3491 11.882 28.2368 11.7687C26.0361 9.56975 23.1097 8.35873 19.9965 8.35873C14.1093 8.35873 9.2277 12.7417 8.4502 18.4124L7.5909 17.3366C7.54143 17.2747 7.48025 17.2231 7.41084 17.1848C7.34143 17.1465 7.26516 17.1223 7.18638 17.1135C7.1076 17.1046 7.02786 17.1114 6.95171 17.1334C6.87555 17.1554 6.80448 17.1922 6.74254 17.2417C6.6806 17.2912 6.62901 17.3524 6.59072 17.4218C6.55243 17.4912 6.52818 17.5674 6.51937 17.6462C6.51055 17.725 6.51734 17.8047 6.53935 17.8809C6.56135 17.9571 6.59815 18.0281 6.64762 18.0901L8.4741 20.3767C8.52562 20.4412 8.58982 20.4944 8.66273 20.5331C8.73565 20.5718 8.81572 20.5952 8.89801 20.6017C8.9803 20.6082 9.06305 20.5978 9.14115 20.5711C9.21925 20.5443 9.29104 20.5019 9.35207 20.4463L11.5164 18.4758C11.6348 18.368 11.7055 18.2176 11.713 18.0577C11.7205 17.8978 11.6642 17.7414 11.5564 17.623ZM33.3454 21.9099L31.5189 19.6233C31.4674 19.5588 31.4032 19.5055 31.3302 19.4668C31.2573 19.4281 31.1773 19.4048 31.095 19.3983C31.0127 19.3917 30.9299 19.4022 30.8518 19.4289C30.7737 19.4556 30.7019 19.4981 30.6409 19.5537L28.4765 21.5242C28.3608 21.6327 28.2924 21.7823 28.2862 21.9408C28.2799 22.0992 28.3362 22.2538 28.443 22.371C28.5498 22.4883 28.6984 22.5589 28.8567 22.5674C29.0151 22.576 29.1705 22.5219 29.2893 22.4169L30.3419 21.4584C29.6294 26.5239 25.2615 30.434 19.9964 30.434C17.2056 30.434 14.5822 29.3484 12.6095 27.3772C12.4961 27.265 12.3428 27.2022 12.1832 27.2027C12.0236 27.2031 11.8706 27.2668 11.7578 27.3797C11.645 27.4926 11.5815 27.6455 11.5812 27.8051C11.5809 27.9647 11.6438 28.118 11.7561 28.2313C13.9568 30.4302 16.8832 31.6412 19.9964 31.6412C25.8836 31.6412 30.7652 27.2583 31.5427 21.5876L32.402 22.6633C32.4585 22.7342 32.5303 22.7915 32.6121 22.8308C32.6938 22.87 32.7833 22.8904 32.874 22.8902C32.9877 22.8902 33.099 22.858 33.1952 22.7975C33.2913 22.737 33.3685 22.6506 33.4177 22.5482C33.467 22.4458 33.4863 22.3315 33.4735 22.2186C33.4607 22.1057 33.4163 21.9987 33.3454 21.9099Z" fill="#FFF8E6"/>
<path d="M24.0248 22.7252C24.0248 21.9702 23.7956 21.2433 23.3613 20.6222C22.929 20.0061 22.3253 19.5429 21.6143 19.2823L19.231 18.4148C18.762 18.2445 18.4468 17.7945 18.4468 17.295V17.2747C18.4468 16.4005 19.1293 15.6756 19.9694 15.6589L20.0049 15.6585C20.4175 15.6585 20.8059 15.8197 21.0986 16.1123C21.2906 16.3038 21.4288 16.5425 21.4992 16.8044C21.6434 17.3442 22.1339 17.7213 22.6923 17.7213C22.7996 17.7213 22.9067 17.7072 23.0109 17.6795C23.6691 17.5039 24.0616 16.8258 23.8861 16.1677C23.705 15.4887 23.3451 14.8656 22.8453 14.3656C22.387 13.9073 21.8368 13.5734 21.2359 13.3806V12.75C21.2359 12.0689 20.6818 11.5148 20.0007 11.5148C19.3196 11.5148 18.7655 12.0689 18.7655 12.75V13.3872C17.1527 13.9218 15.9766 15.473 15.9766 17.2748V17.2951C15.9766 18.8301 16.9455 20.2131 18.3871 20.7365L20.7667 21.6026C20.9975 21.6863 21.1969 21.8388 21.3382 22.0395C21.4792 22.2403 21.5548 22.4798 21.5546 22.7252C21.5546 23.5994 20.8721 24.3242 20.033 24.3409L19.9998 24.3413C19.7957 24.3418 19.5935 24.3018 19.405 24.2237C19.2165 24.1456 19.0453 24.0308 18.9014 23.8861C18.7092 23.6937 18.5709 23.4543 18.5002 23.1918C18.3554 22.6533 17.8651 22.2773 17.3077 22.2773C17.1997 22.2773 17.0917 22.2916 16.9866 22.3198C16.329 22.4966 15.9378 23.1756 16.1146 23.8333C16.2978 24.5138 16.6565 25.1343 17.1547 25.6328C17.614 26.0921 18.1647 26.4266 18.7655 26.6195V27.2496C18.7655 27.9307 19.3196 28.4848 20.0007 28.4848C20.6818 28.4848 21.2359 27.9307 21.2359 27.2496V26.6127C22.8488 26.0782 24.0248 24.527 24.0248 22.7252Z" fill="#F9EE80"/>
</g>
<defs>
<clipPath id="clip0_389_3105">
<rect width="40" height="40" fill="white"/>
</clipPath>
</defs>
</svg>
