<svg width="40" height="40" viewBox="0 0 40 40" fill="none" xmlns="http://www.w3.org/2000/svg">
<g clip-path="url(#clip0_389_3071)">
<path d="M36.2184 28.8942V34.5281C36.2184 35.8616 35.1375 36.9425 33.8039 36.9425H22.4269C17.144 35.7442 8.33594 28.8942 8.33594 28.8942H36.2184Z" fill="#FFBE73"/>
<path d="M22.4258 36.9426H4.02414C1.80203 36.9426 0 35.1413 0 32.9184C0 31.8069 0.450703 30.8008 1.17906 30.0733C1.90742 29.3449 2.91344 28.8942 4.02414 28.8942H8.33484L20.1634 32.6093C20.1159 33.3973 20.1738 36.0878 22.4258 36.9426Z" fill="#FFA93F"/>
<path d="M4.02414 9.57851C6.24664 9.57851 8.04828 11.3801 8.04828 13.6026C9.9193 19.0358 9.46016 25.7212 8.04828 32.9185C8.04828 30.6964 6.24625 28.8944 4.02414 28.8944C1.80203 28.8944 0 30.6964 0 32.9186V13.6026C0 11.3801 1.80164 9.57851 4.02414 9.57851Z" fill="#F9D171"/>
<path d="M40.0014 16.0169V30.5039C40.0014 31.8375 38.9205 32.9184 37.5869 32.9184H31.5515C18.4137 31.1743 17.0081 19.7771 19.8518 13.6025H37.587C38.9205 13.6025 40.0014 14.6834 40.0014 16.0169Z" fill="#FCF6E4"/>
<path d="M31.5487 32.9186H8.04688V13.6026H19.8489C19.7531 18.2151 20.7567 29.8409 31.5487 32.9186Z" fill="#FFEAB7"/>
<path d="M15.7747 27.8884H11.2677C11.1076 27.8884 10.954 27.8248 10.8409 27.7116C10.7277 27.5984 10.6641 27.4448 10.6641 27.2848C10.6641 27.1247 10.7277 26.9712 10.8409 26.858C10.954 26.7448 11.1076 26.6812 11.2677 26.6812H15.7747C16.1081 26.6812 16.3783 26.9514 16.3783 27.2848C16.3783 27.6181 16.1081 27.8884 15.7747 27.8884ZM20.5232 27.8884H18.1892C18.0291 27.8884 17.8756 27.8248 17.7624 27.7116C17.6492 27.5984 17.5856 27.4448 17.5856 27.2848C17.5856 27.1247 17.6492 26.9712 17.7624 26.858C17.8756 26.7448 18.0291 26.6812 18.1892 26.6812H20.5232C20.8566 26.6812 21.1268 26.9514 21.1268 27.2848C21.1268 27.6181 20.8566 27.8884 20.5232 27.8884ZM23.0182 30.3028H11.2677C11.1076 30.3028 10.954 30.2392 10.8409 30.126C10.7277 30.0128 10.6641 29.8593 10.6641 29.6992C10.6641 29.5391 10.7277 29.3856 10.8409 29.2724C10.954 29.1592 11.1076 29.0956 11.2677 29.0956H23.0181C23.3516 29.0956 23.6217 29.3659 23.6217 29.6992C23.6217 30.0326 23.3516 30.3028 23.0182 30.3028Z" fill="#7888AF"/>
<path d="M36.7802 22.2545H23.42C23.3407 22.2545 23.2622 22.2389 23.189 22.2086C23.1158 22.1783 23.0492 22.1338 22.9932 22.0778C22.9371 22.0217 22.8927 21.9552 22.8623 21.8819C22.832 21.8087 22.8164 21.7302 22.8164 21.6509C22.8164 21.5717 22.832 21.4932 22.8623 21.4199C22.8927 21.3467 22.9371 21.2802 22.9932 21.2241C23.0492 21.1681 23.1158 21.1236 23.189 21.0933C23.2622 21.0629 23.3407 21.0473 23.42 21.0473H36.7802C36.9402 21.0473 37.0938 21.1109 37.207 21.2241C37.3202 21.3373 37.3838 21.4909 37.3838 21.6509C37.3838 21.811 37.3202 21.9645 37.207 22.0777C37.0938 22.1909 36.9402 22.2545 36.7802 22.2545ZM36.7802 19.0352H23.42C23.2599 19.0352 23.1064 18.9716 22.9932 18.8584C22.88 18.7453 22.8164 18.5917 22.8164 18.4316C22.8164 18.2716 22.88 18.118 22.9932 18.0048C23.1064 17.8916 23.2599 17.828 23.42 17.828H36.7802C36.9402 17.828 37.0938 17.8916 37.207 18.0048C37.3202 18.118 37.3838 18.2716 37.3838 18.4316C37.3838 18.5917 37.3202 18.7453 37.207 18.8584C37.0938 18.9716 36.9402 19.0352 36.7802 19.0352Z" fill="#7888AF"/>
<path d="M19.2955 21.9564C19.296 21.5555 19.1726 21.1643 18.9422 20.8363C18.7119 20.5081 18.3905 20.2615 18.0115 20.1224L16.6886 19.6409C16.5454 19.5885 16.4216 19.4935 16.3341 19.3685C16.2466 19.2436 16.1996 19.0949 16.1993 18.9423V18.931C16.1993 18.4014 16.6141 17.9624 17.1241 17.9522C17.383 17.9495 17.6281 18.0449 17.8111 18.2279C17.9279 18.3444 18.0119 18.4896 18.0548 18.6488C18.0979 18.8015 18.1994 18.931 18.3372 19.0095C18.475 19.0879 18.6382 19.109 18.7915 19.0681C18.9447 19.0272 19.0757 18.9277 19.1561 18.791C19.2365 18.6543 19.2599 18.4914 19.2213 18.3376C19.1236 17.9731 18.9317 17.6409 18.6648 17.3741C18.4092 17.1195 18.0938 16.9331 17.7475 16.832V16.4194C17.7475 16.2593 17.6839 16.1058 17.5707 15.9926C17.4575 15.8794 17.304 15.8158 17.1439 15.8158C16.9838 15.8158 16.8303 15.8794 16.7171 15.9926C16.6039 16.1058 16.5403 16.2593 16.5403 16.4194V16.833C15.6488 17.1008 14.9922 17.9459 14.9922 18.9309V18.9423C14.9922 19.76 15.5084 20.4967 16.2763 20.7755L17.5973 21.2563C17.7411 21.3085 17.8655 21.4036 17.9534 21.5288C18.0414 21.654 18.0885 21.8033 18.0884 21.9563C18.0884 22.4859 17.6735 22.9249 17.1634 22.9352C16.9021 22.9368 16.6591 22.8422 16.4757 22.6587C16.3589 22.5417 16.2747 22.3962 16.2317 22.2366C16.1887 22.0836 16.087 21.9538 15.9489 21.8753C15.8107 21.7968 15.6472 21.7759 15.4938 21.8172C15.3403 21.8585 15.2093 21.9587 15.1293 22.0959C15.0492 22.2331 15.0264 22.3964 15.0659 22.5503C15.164 22.9141 15.3557 23.2458 15.622 23.5124C15.8827 23.7731 16.197 23.9582 16.5402 24.0577V24.4678C16.5402 24.6279 16.6038 24.7814 16.717 24.8946C16.8302 25.0078 16.9837 25.0714 17.1438 25.0714C17.3039 25.0714 17.4574 25.0078 17.5706 24.8946C17.6838 24.7814 17.7474 24.6279 17.7474 24.4678V24.0543C18.6389 23.7866 19.2955 22.9415 19.2955 21.9564Z" fill="#9CDA82"/>
<path d="M31.2969 12.403C31.9995 14.1015 33.1622 14.8948 34.9284 14.5003L39.0885 7.29133L35.457 5.19398L31.2969 12.403Z" fill="#FF938A"/>
<path d="M35.4584 5.19375L39.0911 7.29179L39.7191 6.20374C40.298 5.2007 39.9544 3.9182 38.9515 3.33898C37.9481 2.75953 36.665 3.10335 36.0859 4.10679L35.4584 5.19375ZM29.2259 21.5559L31.173 20.5211C31.4395 20.3794 31.6609 20.1656 31.8118 19.9041L34.9297 14.5001L31.2983 12.403L28.1802 17.8073C28.0294 18.0686 27.9552 18.3671 27.9659 18.6686L28.0438 20.8737C28.0648 21.4678 28.7008 21.8348 29.2259 21.5559Z" fill="#93BCE8"/>
<path d="M30.3219 9.65624C30.216 9.65618 30.112 9.62824 30.0203 9.57524C29.9286 9.52224 29.8524 9.44605 29.7995 9.35431C29.7466 9.26257 29.7187 9.15851 29.7188 9.0526C29.7188 8.94669 29.7467 8.84265 29.7996 8.75093L31.7052 5.44765C32.0656 4.82304 32.6477 4.3764 33.3442 4.18984C34.041 4.00335 34.7681 4.09921 35.3927 4.45984L39.3903 6.76859C39.5272 6.84955 39.6266 6.98123 39.6669 7.13504C39.7072 7.28884 39.6853 7.45235 39.6057 7.59005C39.5262 7.72775 39.3956 7.82851 39.2422 7.87045C39.0888 7.91239 38.9251 7.89213 38.7866 7.81406L34.7889 5.50531C34.6194 5.40676 34.4321 5.34282 34.2377 5.3172C34.0433 5.29157 33.8458 5.30476 33.6566 5.35601C33.4671 5.4062 33.2895 5.49347 33.1341 5.61277C32.9786 5.73207 32.8483 5.88102 32.7508 6.05101L30.8453 9.35421C30.7923 9.44612 30.716 9.52243 30.6241 9.57546C30.5322 9.62848 30.428 9.65635 30.3219 9.65624Z" fill="#F9EE80"/>
<path d="M27.6746 30.3027C27.5917 30.3028 27.5098 30.2859 27.4338 30.253C27.3578 30.22 27.2894 30.1718 27.2329 30.1113C27.1763 30.0508 27.1328 29.9793 27.1051 29.9012C27.0774 29.8232 27.066 29.7403 27.0717 29.6577C27.0748 29.6138 27.1489 28.5709 27.4051 27.5098C27.8072 25.8445 28.4678 25 29.3687 25C30.6391 25 30.8424 26.3343 30.9771 27.2173C31.0232 27.5194 31.1071 28.0696 31.2176 28.217C31.3238 28.1941 31.4396 27.9795 31.5896 27.6834C31.8517 27.1653 32.2479 26.3825 33.2249 26.3825C34.3821 26.3825 34.7181 27.4103 34.8986 27.9625C34.9238 28.0395 34.9567 28.1405 34.987 28.2193H36.7816C36.9417 28.2193 37.0952 28.2829 37.2084 28.3961C37.3216 28.5093 37.3852 28.6628 37.3852 28.8229C37.3852 28.983 37.3216 29.1365 37.2084 29.2497C37.0952 29.3629 36.9417 29.4265 36.7816 29.4265H34.786C34.1071 29.4265 33.8928 28.7713 33.7511 28.3376C33.5403 27.6927 33.4397 27.5897 33.2249 27.5897C33.0339 27.5897 32.9296 27.7091 32.6668 28.2284C32.4253 28.7055 32.0604 29.4265 31.205 29.4265C30.0928 29.4265 29.9068 28.2064 29.7838 27.3991C29.7266 27.0237 29.6674 26.6355 29.5573 26.3878C29.477 26.2071 29.4292 26.2071 29.3689 26.2071C28.9882 26.2071 28.4091 27.8377 28.2764 29.7409C28.2657 29.8932 28.1976 30.0359 28.086 30.1402C27.9743 30.2444 27.8273 30.3025 27.6746 30.3027Z" fill="#9CDA82"/>
</g>
<defs>
<clipPath id="clip0_389_3071">
<rect width="40" height="40" fill="white"/>
</clipPath>
</defs>
</svg>
