<svg width="41" height="40" viewBox="0 0 41 40" fill="none" xmlns="http://www.w3.org/2000/svg">
<g clip-path="url(#clip0_389_3130)">
<path d="M41.0006 7.24344V31.2812C18.5355 31.1452 18.7077 9.85187 22.6151 0H33.7571L35.9681 5.23141L41.0006 7.24344Z" fill="#FFF8E6"/>
<path d="M41.0009 31.2812V33.5613C41.0009 34.8949 39.92 35.9758 38.5864 35.9758H16.0512C14.7176 35.9758 13.6367 34.8949 13.6367 33.5613V2.41445C13.6366 1.08086 14.7176 0 16.0512 0H22.6154C22.2637 5.81406 22.7313 26.3808 41.0009 31.2812Z" fill="#FFEAB7"/>
<path d="M41.0013 7.24344H35.3675C34.4785 7.24344 33.7578 6.52273 33.7578 5.63375V0L41.0013 7.24344Z" fill="#FFBE73"/>
<path d="M37.6745 31.7505H25.9239C25.7638 31.7505 25.6103 31.6869 25.4971 31.5737C25.3839 31.4605 25.3203 31.3069 25.3203 31.1469C25.3203 30.9868 25.3839 30.8332 25.4971 30.7201C25.6103 30.6069 25.7638 30.5433 25.9239 30.5433H37.6744C37.8345 30.5433 37.988 30.6069 38.1012 30.7201C38.2144 30.8332 38.278 30.9868 38.278 31.1469C38.278 31.2261 38.2624 31.3046 38.2321 31.3778C38.2018 31.4511 38.1573 31.5176 38.1013 31.5737C38.0452 31.6297 37.9787 31.6742 37.9054 31.7045C37.8322 31.7349 37.7537 31.7505 37.6745 31.7505ZM37.6745 26.9215H25.9239C25.7638 26.9215 25.6103 26.858 25.4971 26.7448C25.3839 26.6316 25.3203 26.478 25.3203 26.3179C25.3203 26.1579 25.3839 26.0043 25.4971 25.8911C25.6103 25.7779 25.7638 25.7144 25.9239 25.7144H37.6744C37.8345 25.7143 37.988 25.7779 38.1012 25.8911C38.2144 26.0043 38.278 26.1578 38.278 26.3179C38.278 26.478 38.2144 26.6315 38.1012 26.7447C37.9881 26.8579 37.8345 26.9215 37.6745 26.9215ZM37.6745 22.0926H25.9239C25.7638 22.0926 25.6103 22.029 25.4971 21.9158C25.3839 21.8026 25.3203 21.649 25.3203 21.489C25.3203 21.3289 25.3839 21.1754 25.4971 21.0622C25.6103 20.949 25.7638 20.8854 25.9239 20.8854H37.6744C37.8345 20.8854 37.988 20.9489 38.1012 21.0621C38.2144 21.1753 38.278 21.3288 38.278 21.4889C38.278 21.649 38.2144 21.8025 38.1012 21.9157C37.9881 22.0289 37.8345 22.0925 37.6745 22.0926ZM33.1673 17.2636H25.9239C25.7638 17.2636 25.6103 17.2 25.4971 17.0868C25.3839 16.9736 25.3203 16.8201 25.3203 16.66C25.3203 16.4999 25.3839 16.3464 25.4971 16.2332C25.6103 16.12 25.7638 16.0564 25.9239 16.0564H33.1673C33.3274 16.0564 33.481 16.12 33.5942 16.2332C33.7073 16.3464 33.7709 16.4999 33.7709 16.66C33.7709 16.8201 33.7073 16.9736 33.5942 17.0868C33.481 17.2 33.3274 17.2636 33.1673 17.2636ZM29.3141 9.00733C29.3146 8.63413 29.1997 8.26991 28.9852 7.96451C28.7714 7.65937 28.4689 7.42737 28.1188 7.29998L26.9282 6.86662C26.8109 6.82373 26.7096 6.74589 26.638 6.64361C26.5664 6.54134 26.5278 6.41954 26.5276 6.29467V6.28451C26.5276 5.84053 26.8744 5.47248 27.3007 5.46389C27.5195 5.46014 27.7222 5.54139 27.8752 5.69428C27.9727 5.79157 28.043 5.91285 28.0788 6.04592C28.1217 6.1987 28.2231 6.32843 28.3609 6.40702C28.4988 6.48562 28.6621 6.50677 28.8154 6.46588C28.9688 6.42499 29.0998 6.32537 29.1803 6.18856C29.2607 6.05176 29.2841 5.88878 29.2452 5.7349C29.1547 5.39661 28.9765 5.08816 28.7288 4.84061C28.5025 4.61493 28.2255 4.44673 27.9209 4.35006V4.02397C27.9209 3.86388 27.8573 3.71036 27.7441 3.59716C27.6309 3.48396 27.4773 3.42037 27.3173 3.42037C27.1572 3.42037 27.0037 3.48396 26.8905 3.59716C26.7773 3.71036 26.7137 3.86388 26.7137 4.02397V4.35193C25.9086 4.61436 25.3204 5.3867 25.3204 6.28436V6.29451C25.3204 7.05568 25.8009 7.74162 26.5158 8.00115L27.7045 8.43381C27.8224 8.47659 27.9242 8.55449 27.9964 8.65701C28.0685 8.75955 28.1071 8.88185 28.107 9.00717C28.107 9.45115 27.7602 9.8192 27.3338 9.82772C27.1156 9.83326 26.9121 9.75006 26.7587 9.59662C26.661 9.4989 26.5907 9.37724 26.5548 9.24381C26.5132 9.08921 26.4119 8.95744 26.2732 8.87751C26.1345 8.79757 25.9698 8.77601 25.8152 8.81756C25.6606 8.85911 25.5288 8.96038 25.4489 9.09909C25.3689 9.23779 25.3474 9.40257 25.3889 9.55717C25.4798 9.89492 25.6578 10.2029 25.905 10.4503C26.1359 10.6812 26.4121 10.8482 26.7137 10.9433V11.2675C26.7137 11.4276 26.7773 11.5811 26.8905 11.6943C27.0037 11.8075 27.1572 11.8711 27.3173 11.8711C27.4773 11.8711 27.6309 11.8075 27.7441 11.6943C27.8573 11.5811 27.9209 11.4276 27.9209 11.2675V10.9397C28.7259 10.6773 29.3141 9.90498 29.3141 9.00733Z" fill="#7888AF"/>
<path d="M22.7311 13.8938V36.969C4.73661 34.2456 5.69942 17.3777 7.74036 11.4793H20.3166C21.6503 11.4793 22.7311 12.5602 22.7311 13.8938Z" fill="#7FB0E4"/>
<path d="M22.7304 36.969V37.5855C22.7304 38.9191 21.6495 39.9999 20.3159 39.9999H3.41445C2.08086 40 1 38.9191 1 37.5855V13.8938C1 12.5602 2.08086 11.4793 3.41445 11.4793H7.73961C7.49172 16.6704 8.17828 32.8877 22.7304 36.969Z" fill="#68A2DF"/>
<path d="M20.3165 14.6986V20.1055C20.3165 20.5505 19.956 20.9103 19.5117 20.9103H8.57334C6.21537 18.2982 6.1113 15.8305 7.71623 13.8938H19.5118C19.6175 13.8938 19.7221 13.9146 19.8198 13.955C19.9174 13.9954 20.0062 14.0547 20.0809 14.1294C20.1557 14.2042 20.2149 14.2929 20.2554 14.3906C20.2958 14.4882 20.3166 14.5929 20.3165 14.6986Z" fill="#B0F0EF"/>
<path d="M12.8828 28.6318V24.1298C12.8828 23.6852 13.2431 23.3249 13.6877 23.3249H19.5101C19.9546 23.3249 20.3149 23.6852 20.3149 24.1298V28.6318C20.3149 29.0763 19.9546 29.4366 19.5101 29.4366H13.6877C13.2431 29.4366 12.8828 29.0762 12.8828 28.6318Z" fill="#FFF8E6"/>
<path d="M17.789 26.9844H15.4122C15.2521 26.9844 15.0986 26.9208 14.9854 26.8076C14.8722 26.6944 14.8086 26.5409 14.8086 26.3808C14.8086 26.2207 14.8722 26.0672 14.9854 25.954C15.0986 25.8408 15.2521 25.7772 15.4122 25.7772H17.789C17.9491 25.7772 18.1026 25.8408 18.2158 25.954C18.329 26.0672 18.3926 26.2207 18.3926 26.3808C18.3926 26.5409 18.329 26.6944 18.2158 26.8076C18.1026 26.9208 17.9491 26.9844 17.789 26.9844Z" fill="#7888AF"/>
<path d="M12.8828 36.7807V32.2787C12.8828 31.8341 13.2431 31.4738 13.6877 31.4738H19.5101C19.9546 31.4738 20.3149 31.8341 20.3149 32.2787V36.7807C20.3149 37.2252 19.9546 37.5855 19.5101 37.5855H13.6877C13.2431 37.5855 12.8828 37.2251 12.8828 36.7807Z" fill="#FFF8E6"/>
<path d="M17.789 34.1147H15.4122C15.2521 34.1147 15.0986 34.0511 14.9854 33.9379C14.8722 33.8247 14.8086 33.6712 14.8086 33.5111C14.8086 33.351 14.8722 33.1975 14.9854 33.0843C15.0986 32.9711 15.2521 32.9075 15.4122 32.9075H17.789C17.9491 32.9075 18.1026 32.9711 18.2158 33.0843C18.329 33.1975 18.3926 33.351 18.3926 33.5111C18.3926 33.6712 18.329 33.8247 18.2158 33.9379C18.1026 34.0511 17.9491 34.1147 17.789 34.1147ZM17.789 36.1519H15.4122C15.2521 36.1519 15.0986 36.0883 14.9854 35.9751C14.8722 35.8619 14.8086 35.7084 14.8086 35.5483C14.8086 35.3882 14.8722 35.2347 14.9854 35.1215C15.0986 35.0083 15.2521 34.9447 15.4122 34.9447H17.789C17.9491 34.9447 18.1026 35.0083 18.2158 35.1215C18.329 35.2347 18.3926 35.3882 18.3926 35.5483C18.3926 35.7084 18.329 35.8619 18.2158 35.9751C18.1026 36.0883 17.9491 36.1519 17.789 36.1519Z" fill="#7888AF"/>
<path d="M3.41406 28.6318V24.1298C3.41406 23.6852 3.77437 23.3249 4.21891 23.3249H10.0413C10.4859 23.3249 10.8462 23.6852 10.8462 24.1298V28.6318C10.8462 29.0763 10.4859 29.4366 10.0413 29.4366H4.21891C3.77445 29.4366 3.41406 29.0762 3.41406 28.6318Z" fill="#FAF0CE"/>
<path d="M8.14859 25.7767H7.73359V25.3622C7.73359 25.2021 7.67 25.0486 7.55681 24.9354C7.44361 24.8222 7.29008 24.7586 7.13 24.7586C6.96992 24.7586 6.81639 24.8222 6.70319 24.9354C6.59 25.0486 6.52641 25.2021 6.52641 25.3622V25.7767H6.11141C5.95132 25.7767 5.7978 25.8403 5.6846 25.9535C5.57141 26.0667 5.50781 26.2202 5.50781 26.3803C5.50781 26.5404 5.57141 26.6939 5.6846 26.8071C5.7978 26.9203 5.95132 26.9839 6.11141 26.9839H6.52641V27.3993C6.52641 27.5594 6.59 27.7129 6.70319 27.8261C6.81639 27.9393 6.96992 28.0029 7.13 28.0029C7.29008 28.0029 7.44361 27.9393 7.55681 27.8261C7.67 27.7129 7.73359 27.5594 7.73359 27.3993V26.9839H8.14859C8.30868 26.9839 8.4622 26.9203 8.5754 26.8071C8.68859 26.6939 8.75219 26.5404 8.75219 26.3803C8.75219 26.2202 8.68859 26.0667 8.5754 25.9535C8.4622 25.8403 8.30868 25.7767 8.14859 25.7767Z" fill="#7888AF"/>
<path d="M3.41406 36.7807V32.2787C3.41406 31.8341 3.77437 31.4738 4.21891 31.4738H10.0413C10.4859 31.4738 10.8462 31.8341 10.8462 32.2787V36.7807C10.8462 37.2252 10.4859 37.5855 10.0413 37.5855H4.21891C3.77445 37.5855 3.41406 37.2252 3.41406 36.7807Z" fill="#FAF0CE"/>
<path d="M8.5756 35.121L7.98404 34.5294L8.57521 33.9383C8.68642 33.8247 8.74831 33.6718 8.74746 33.5128C8.74661 33.3538 8.68308 33.2016 8.57066 33.0892C8.45824 32.9767 8.30601 32.9132 8.14703 32.9124C7.98805 32.9115 7.83516 32.9734 7.72154 33.0846L7.13037 33.6758L6.5388 33.0842C6.42519 32.973 6.27229 32.9111 6.11331 32.912C5.95433 32.9128 5.8021 32.9764 5.68969 33.0888C5.57727 33.2012 5.51373 33.3534 5.51288 33.5124C5.51203 33.6714 5.57393 33.8243 5.68513 33.9379L6.2767 34.5294L5.68466 35.1215C5.6286 35.1775 5.58412 35.2441 5.55378 35.3173C5.52343 35.3905 5.50781 35.469 5.50781 35.5483C5.50781 35.6276 5.52343 35.7061 5.55378 35.7793C5.58412 35.8526 5.6286 35.9191 5.68466 35.9752C5.80255 36.093 5.95701 36.1519 6.11146 36.1519C6.26591 36.1519 6.42045 36.093 6.53826 35.9752L7.13029 35.3831L7.72185 35.9747C7.83974 36.0926 7.9942 36.1515 8.14865 36.1515C8.3031 36.1515 8.45763 36.0925 8.57545 35.9747C8.63153 35.9187 8.67603 35.8521 8.70639 35.7789C8.73676 35.7057 8.75239 35.6272 8.75241 35.5479C8.75242 35.4686 8.73681 35.3901 8.70648 35.3169C8.67614 35.2436 8.63167 35.1771 8.5756 35.121Z" fill="#7888AF"/>
<path d="M8.57227 20.9102H4.21891C3.77461 20.9102 3.41406 20.5505 3.41406 20.1054V14.6985C3.41406 14.2534 3.77461 13.8937 4.21891 13.8937H7.71508C7.76258 15.8302 7.97664 18.2978 8.57227 20.9102Z" fill="#93ECEA"/>
</g>
<defs>
<clipPath id="clip0_389_3130">
<rect width="40" height="40" fill="white" transform="translate(0.5625)"/>
</clipPath>
</defs>
</svg>
