<svg width="40" height="40" viewBox="0 0 40 40" fill="none" xmlns="http://www.w3.org/2000/svg">
<g clip-path="url(#clip0_389_2973)">
<path d="M19.7166 34.078H17.5194C9.17253 32.6406 9.02042 24.8387 10.3749 21.4664H11.6683L13.0382 23.5928C13.1621 23.5219 14.4853 21.4664 14.4853 21.4664H18.9118L19.7166 34.078Z" fill="#E4996D"/>
<path d="M24.2208 34.0781H18.9141V21.4666H22.6111C23.5001 21.4666 24.2208 22.1873 24.2208 23.0763V34.0781Z" fill="#D97C41"/>
<path d="M17.5198 34.0781H7.24219V23.076C7.24219 22.1875 7.9625 21.4663 8.85187 21.4663H10.3754C10.2764 24.2036 10.7368 31.8495 17.5198 34.0781Z" fill="#DF8A57"/>
<path d="M14.007 24.8131L13.2799 24.3976C13.2191 24.3628 13.1503 24.3446 13.0803 24.3446C13.0102 24.3446 12.9414 24.3628 12.8806 24.3976L12.1535 24.8131C11.9389 24.9358 11.6719 24.7808 11.6719 24.5336V21.4666H14.4887V24.5336C14.4887 24.7808 14.2217 24.9358 14.007 24.8131Z" fill="#FFF8E6"/>
<path d="M26.0308 32.7156L21.0666 37.6789C20.6697 38.0759 20.1984 38.3908 19.6797 38.6057C19.161 38.8206 18.6051 38.9312 18.0437 38.9312H11.3958C8.97102 38.5942 6.25328 37.5991 6.15234 35.8608C8.2475 34.9817 11.1553 35.2875 14.2465 35.8608C14.2465 35.8608 19.8102 36.7807 20.4734 34.6149C20.6594 34.0073 21.176 33.7779 21.1052 32.5514L21.098 32.5417L23.4778 30.1618C24.182 29.4568 25.3257 29.4568 26.0307 30.1618C26.7359 30.8668 26.7359 32.0096 26.0308 32.7156Z" fill="#FFDDCF"/>
<path d="M21.5363 34.4995C21.3161 35.7478 20.2377 36.6542 18.9712 36.6542C18.8199 36.6542 18.6666 36.6408 18.5164 36.6141L14.2461 35.8611H17.7784L21.0976 32.542C21.1002 32.5452 21.1024 32.5484 21.1045 32.5516C21.5042 33.1224 21.6576 33.8139 21.5363 34.4995Z" fill="#FFCBBE"/>
<path d="M20.7766 34.0556C20.7766 35.0527 19.9685 35.8608 18.9714 35.8608H6.95846C5.45518 35.2164 5.30854 34.0781 5.97901 32.4161H6.24057C6.47721 32.4161 6.70659 32.338 6.89409 32.1931L7.02127 32.0949C7.95699 31.3717 9.10622 30.9794 10.2889 30.9795H11.9781C13.0793 30.9797 14.1536 31.3198 15.0542 31.9533L15.1991 32.0555C15.3791 32.1822 15.5939 32.2502 15.814 32.2502H18.9714C19.4703 32.2502 19.921 32.4523 20.2478 32.779C20.5746 33.1057 20.7766 33.5566 20.7766 34.0556Z" fill="#FFDDCF"/>
<path d="M11.3962 38.9312H2.13836C1.25289 38.9312 0.535156 38.2135 0.535156 37.328V34.0196C0.535156 33.1341 1.25281 32.4164 2.13836 32.4164H5.97805C6.05492 35.8563 8.32938 38.2001 11.3962 38.9312Z" fill="#FFCBBE"/>
<path d="M0.804844 40H3.70227C4.32453 40 4.82906 39.4955 4.82906 38.8732V32.4744C4.82906 31.8521 4.32461 31.3476 3.70227 31.3476H0.804844C0.360312 31.3476 0 31.708 0 32.1525V39.1951C0 39.6397 0.360312 40 0.804844 40Z" fill="#93ECEA"/>
<path d="M2.41609 37.7867C2.25601 37.7867 2.10248 37.7231 1.98929 37.6099C1.87609 37.4967 1.8125 37.3432 1.8125 37.1831V36.3783C1.8125 36.299 1.82811 36.2205 1.85845 36.1473C1.88878 36.0741 1.93324 36.0075 1.98929 35.9515C2.04534 35.8954 2.11188 35.851 2.18511 35.8206C2.25834 35.7903 2.33683 35.7747 2.41609 35.7747C2.49536 35.7747 2.57385 35.7903 2.64708 35.8206C2.72031 35.851 2.78685 35.8954 2.8429 35.9515C2.89895 36.0075 2.94341 36.0741 2.97374 36.1473C3.00408 36.2205 3.01969 36.299 3.01969 36.3783V37.1831C3.0197 37.2624 3.00409 37.3409 2.97376 37.4141C2.94343 37.4874 2.89897 37.5539 2.84292 37.61C2.78687 37.666 2.72033 37.7105 2.64709 37.7408C2.57386 37.7711 2.49536 37.7867 2.41609 37.7867Z" fill="#FFF8E6"/>
<path d="M39.4658 2.67204V4.13922L25.8827 4.94407C24.2722 4.40079 22.9989 3.00641 24.0919 1.06876H37.8625C38.7478 1.06883 39.4658 1.78672 39.4658 2.67204Z" fill="#FFDDCF"/>
<path d="M25.8832 4.13923H22.222L16.523 9.83821C15.8188 10.5432 14.6752 10.5432 13.9702 9.83821C13.2652 9.13313 13.2652 7.99032 13.9702 7.28446L18.9343 2.3211C19.3313 1.92409 19.8025 1.60915 20.3212 1.39427C20.8399 1.17939 21.3958 1.06878 21.9573 1.06876H24.0925C24.0852 1.83821 24.2727 3.59602 25.8832 4.13923Z" fill="#FFCBBE"/>
<path d="M28.8711 6.70257V16.866C28.8711 17.7545 28.1508 18.4757 27.2614 18.4757H19.8119C10.5428 16.1391 9.69767 8.25827 12.0623 5.09296H27.2615C28.15 5.09296 28.8711 5.81327 28.8711 6.70257Z" fill="#8DD470"/>
<path d="M19.8117 18.4752H9.555C8.66602 18.4752 7.94531 17.7545 7.94531 16.8656V6.70258C7.94531 5.8136 8.66602 5.0929 9.555 5.0929H12.0623C11.9972 8.25735 12.6698 16.1385 19.8117 18.4752Z" fill="#6DC847"/>
<path d="M26.454 8.96984V14.5996C26.454 14.7807 26.3382 14.9465 26.1643 14.9948C25.7957 15.0977 25.5051 15.3923 25.4037 15.7674C25.3555 15.9437 25.1888 16.0612 25.0062 16.0612H15.7908C11.9418 14.4338 11.0288 10.9951 12.1579 7.50742H25.0062C25.1888 7.50742 25.3555 7.62499 25.4037 7.80124C25.5051 8.17546 25.7949 8.47085 26.1643 8.57382C26.3381 8.62296 26.454 8.78874 26.454 8.96984Z" fill="#BBE5A7"/>
<path d="M15.7928 16.0612H11.8078C11.6251 16.0612 11.458 15.9435 11.4102 15.7671C11.3088 15.3927 11.0182 15.0977 10.6491 14.9948C10.4749 14.9462 10.3594 14.7804 10.3594 14.5995V8.969C10.3594 8.78814 10.4749 8.62235 10.6491 8.57376C11.0182 8.47079 11.3088 8.17595 11.4102 7.80142C11.458 7.62501 11.6251 7.50735 11.8078 7.50735H12.1598C12.4238 10.132 13.2922 13.5984 15.7928 16.0612Z" fill="#9CDA82"/>
<path d="M18.4046 13.5952C19.4047 13.5952 20.2155 12.7844 20.2155 11.7843C20.2155 10.7842 19.4047 9.97345 18.4046 9.97345C17.4045 9.97345 16.5938 10.7842 16.5938 11.7843C16.5938 12.7844 17.4045 13.5952 18.4046 13.5952Z" fill="#F9EE80"/>
<path d="M21.0318 7.74968H24.1891C24.4093 7.74968 24.6242 7.81772 24.8043 7.94452L24.949 8.0464C25.8495 8.68037 26.9239 9.02063 28.0252 9.02061H29.7144C30.8971 9.02062 32.0464 8.62828 32.9822 7.90507L33.1095 7.80671C33.2966 7.66208 33.5265 7.58361 33.763 7.58358H37.8642C38.7496 7.58358 39.4674 6.86585 39.4674 5.98038V4.13913H21.0318C20.0348 4.13913 19.2266 4.94741 19.2266 5.94444C19.2265 6.9414 20.0348 7.74968 21.0318 7.74968Z" fill="#FFDDCF"/>
<path d="M39.1961 8.65234H36.2987C35.6764 8.65234 35.1719 8.14789 35.1719 7.52555V1.1268C35.172 0.504453 35.6764 0 36.2988 0H39.1962C39.6406 0 40.0009 0.360312 40.0009 0.804844V7.8475C40.0009 8.29195 39.6406 8.65234 39.1961 8.65234Z" fill="#FF938A"/>
<path d="M37.5841 6.43905C37.424 6.43905 37.2705 6.37546 37.1573 6.26226C37.0441 6.14907 36.9805 5.99554 36.9805 5.83546V5.03053C36.9805 4.87045 37.0441 4.71693 37.1573 4.60373C37.2705 4.49053 37.424 4.42694 37.5841 4.42694C37.7441 4.42694 37.8977 4.49053 38.0109 4.60373C38.1241 4.71693 38.1877 4.87045 38.1877 5.03053V5.83538C38.1877 5.91465 38.1721 5.99315 38.1417 6.06639C38.1114 6.13963 38.0669 6.20618 38.0109 6.26223C37.9548 6.31829 37.8883 6.36276 37.8151 6.3931C37.7418 6.42343 37.6633 6.43905 37.5841 6.43905Z" fill="#FFF8E6"/>
</g>
<defs>
<clipPath id="clip0_389_2973">
<rect width="40" height="40" fill="white"/>
</clipPath>
</defs>
</svg>
