<svg width="40" height="40" viewBox="0 0 40 40" fill="none" xmlns="http://www.w3.org/2000/svg">
<g clip-path="url(#clip0_389_3051)">
<path d="M39.7495 7.24344V31.2812C17.2384 29.138 17.0268 8.40563 21.364 0H32.506L34.9205 4.82898C34.9206 5.71828 39.7495 7.24344 39.7495 7.24344Z" fill="#FFF8E6"/>
<path d="M39.7509 31.2812V33.5613C39.7509 34.8949 38.67 35.9758 37.3364 35.9758H14.8012C13.4676 35.9758 12.3867 34.8949 12.3867 33.5613V2.41445C12.3866 1.08086 13.4676 0 14.8012 0H21.3654C21.0137 5.81406 21.4813 26.3808 39.7509 31.2812Z" fill="#FFEAB7"/>
<path d="M36.487 30.8379H24.7364C24.5763 30.8379 24.4228 30.7743 24.3096 30.6611C24.1964 30.5479 24.1328 30.3944 24.1328 30.2343C24.1328 30.0742 24.1964 29.9207 24.3096 29.8075C24.4228 29.6943 24.5763 29.6307 24.7364 29.6307H36.4869C36.647 29.6307 36.8005 29.6943 36.9137 29.8074C37.0269 29.9206 37.0905 30.0742 37.0905 30.2342C37.0905 30.3943 37.0269 30.5479 36.9137 30.6611C36.8006 30.7743 36.647 30.8379 36.487 30.8379ZM36.487 26.0089H24.7364C24.5763 26.0089 24.4228 25.9453 24.3096 25.8321C24.1964 25.7189 24.1328 25.5654 24.1328 25.4053C24.1328 25.2452 24.1964 25.0917 24.3096 24.9785C24.4228 24.8653 24.5763 24.8017 24.7364 24.8017H36.4869C36.647 24.8017 36.8005 24.8653 36.9137 24.9785C37.0269 25.0917 37.0905 25.2452 37.0905 25.4053C37.0905 25.4846 37.0749 25.563 37.0446 25.6363C37.0143 25.7095 36.9698 25.7761 36.9138 25.8321C36.8577 25.8882 36.7912 25.9326 36.7179 25.963C36.6447 25.9933 36.5662 26.0089 36.487 26.0089ZM36.487 21.18H24.7364C24.5763 21.18 24.4228 21.1164 24.3096 21.0032C24.1964 20.89 24.1328 20.7365 24.1328 20.5764C24.1328 20.4163 24.1964 20.2628 24.3096 20.1496C24.4228 20.0364 24.5763 19.9728 24.7364 19.9728H36.4869C36.647 19.9728 36.8005 20.0364 36.9137 20.1496C37.0269 20.2627 37.0905 20.4163 37.0905 20.5763C37.0905 20.7364 37.0269 20.89 36.9137 21.0032C36.8006 21.1164 36.647 21.18 36.487 21.18Z" fill="#7888AF"/>
<path d="M20.1105 4.62775H16.4083C16.2482 4.62775 16.0947 4.56416 15.9815 4.45096C15.8683 4.33777 15.8047 4.18424 15.8047 4.02416C15.8047 3.86407 15.8683 3.71055 15.9815 3.59735C16.0947 3.48416 16.2482 3.42056 16.4083 3.42056H20.1105C20.2706 3.42056 20.4241 3.48416 20.5373 3.59735C20.6505 3.71055 20.7141 3.86407 20.7141 4.02416C20.7141 4.18424 20.6505 4.33777 20.5373 4.45096C20.4241 4.56416 20.2706 4.62775 20.1105 4.62775ZM25.6637 4.62775H23.6516C23.4916 4.62775 23.338 4.56416 23.2248 4.45096C23.1116 4.33777 23.048 4.18424 23.048 4.02416C23.048 3.86407 23.1116 3.71055 23.2248 3.59735C23.338 3.48416 23.4916 3.42056 23.6516 3.42056H25.6637C25.8238 3.42056 25.9774 3.48416 26.0906 3.59735C26.2038 3.71055 26.2673 3.86407 26.2673 4.02416C26.2673 4.18424 26.2038 4.33777 26.0906 4.45096C25.9774 4.56416 25.8238 4.62775 25.6637 4.62775Z" fill="#7888AF"/>
<path d="M39.7513 7.24344H34.1175C33.2285 7.24344 32.5078 6.52273 32.5078 5.63375V0L39.7513 7.24344Z" fill="#FFBE73"/>
<path d="M11.013 26.7422L13.0046 28.7337L6.74539 34.9928L4.75391 33.0013L11.013 26.7422Z" fill="#7888AF"/>
<path d="M9.11154 32.9148L6.83514 30.6384C6.36365 30.1669 5.59928 30.1669 5.12787 30.6384L0.575059 35.1912C-0.52502 36.2913 -0.52502 38.0748 0.575059 39.1749C1.67514 40.275 3.45865 40.275 4.55873 39.1749L9.11154 34.6221C9.58303 34.1507 9.58303 33.3863 9.11154 32.9148Z" fill="#7FB0E4"/>
<path d="M26.4685 27.5083C25.6677 28.3099 24.7646 28.9473 23.8013 29.4213C13.4768 26.4763 12.6549 17.3435 14.1264 11.798C17.9984 9.43821 23.1203 9.93243 26.4685 13.2813C30.3976 17.2097 30.3976 23.5798 26.4685 27.5083Z" fill="#B0F0EF"/>
<path d="M23.8035 29.4213C20.045 31.2741 15.3705 30.6358 12.2437 27.5083C8.31459 23.5799 8.31459 17.2097 12.2437 13.2813C12.824 12.701 13.4574 12.2061 14.1287 11.798C14.2985 16.7959 15.8381 25.6894 23.8035 29.4213Z" fill="#93ECEA"/>
<path d="M13.6627 22.042C13.5359 22.0421 13.4124 22.0023 13.3095 21.9283C13.2067 21.8542 13.1298 21.7497 13.0896 21.6295C13.0495 21.5093 13.0483 21.3795 13.086 21.2585C13.1238 21.1375 13.1986 21.0315 13.3 20.9555L17.899 17.5063C18.0035 17.4279 18.1306 17.3855 18.2612 17.3855C18.3918 17.3855 18.5189 17.4279 18.6234 17.5063L22.8036 20.6414L28.1244 15.3206C28.2376 15.2074 28.3911 15.1438 28.5512 15.1438H34.9009C35.0609 15.1438 35.2145 15.2074 35.3277 15.3206C35.4409 15.4338 35.5045 15.5873 35.5045 15.7474C35.5045 15.9075 35.4409 16.061 35.3277 16.1742C35.2145 16.2874 35.0609 16.351 34.9009 16.351H28.8012L23.2871 21.8652C23.1844 21.9679 23.048 22.0301 22.9031 22.0404C22.7582 22.0507 22.6144 22.0084 22.4981 21.9213L18.2613 18.7436L14.0245 21.9213C13.9202 21.9997 13.7932 22.0421 13.6627 22.042Z" fill="#7888AF"/>
<path d="M13.6623 22.8468C14.4402 22.8468 15.0708 22.2162 15.0708 21.4384C15.0708 20.6605 14.4402 20.0299 13.6623 20.0299C12.8845 20.0299 12.2539 20.6605 12.2539 21.4384C12.2539 22.2162 12.8845 22.8468 13.6623 22.8468Z" fill="#F9EE80"/>
<path d="M18.26 19.3975C19.0379 19.3975 19.6684 18.7669 19.6684 17.989C19.6684 17.2112 19.0379 16.5806 18.26 16.5806C17.4821 16.5806 16.8516 17.2112 16.8516 17.989C16.8516 18.7669 17.4821 19.3975 18.26 19.3975Z" fill="#7FB0E4"/>
<path d="M34.9652 17.7555C36.0765 17.7555 36.9773 16.8546 36.9773 15.7434C36.9773 14.6321 36.0765 13.7312 34.9652 13.7312C33.854 13.7312 32.9531 14.6321 32.9531 15.7434C32.9531 16.8546 33.854 17.7555 34.9652 17.7555Z" fill="#FF938A"/>
<path d="M22.8577 22.8468C23.6355 22.8468 24.2661 22.2162 24.2661 21.4384C24.2661 20.6605 23.6355 20.0299 22.8577 20.0299C22.0798 20.0299 21.4492 20.6605 21.4492 21.4384C21.4492 22.2162 22.0798 22.8468 22.8577 22.8468Z" fill="#FFBE73"/>
<path d="M27.8911 11.8584C24.1712 8.13844 18.6275 7.35375 14.139 9.50344V9.50422C13.5328 10.2777 13.4671 11.2328 14.1446 12.2608C17.8831 9.86079 22.9141 10.2954 26.1841 13.5654C29.9555 17.3368 29.9555 23.4519 26.1841 27.2241C25.3366 28.0716 24.37 28.7291 23.3382 29.1952C23.7546 30.3121 24.7802 30.5945 26.2187 30.3284C26.817 29.9138 27.3767 29.4462 27.8911 28.9312C32.6058 24.2165 32.6058 16.5731 27.8911 11.8584Z" fill="#FF938A"/>
<path d="M23.3372 29.1952C19.7806 30.8048 15.4483 30.148 12.5243 27.2241C8.75289 23.4519 8.75289 17.3368 12.5243 13.5654C13.0158 13.0738 13.5586 12.6364 14.1436 12.2608C14.0897 11.1485 14.1034 10.2004 14.138 9.50343C12.9372 10.0789 11.812 10.8636 10.8173 11.8584C6.10258 16.573 6.10258 24.2165 10.8173 28.9312C15.008 33.1219 21.5127 33.5879 26.2177 30.3284C25.1705 30.0241 24.2136 29.6419 23.3372 29.1952Z" fill="#FD7A6E"/>
</g>
<defs>
<clipPath id="clip0_389_3051">
<rect width="40" height="40" fill="white"/>
</clipPath>
</defs>
</svg>
