<svg width="40" height="40" viewBox="0 0 40 40" fill="none" xmlns="http://www.w3.org/2000/svg">
<g clip-path="url(#clip0_389_3114)">
<path d="M32.8224 14.6624C32.8029 14.847 32.719 15.0188 32.5854 15.1477L26.3352 21.1727C20.6813 20.7136 18.1973 17.8173 17.4219 14.6624C23.1991 12.7994 28.6042 12.0134 32.8224 14.6624Z" fill="#93ECEA"/>
<path d="M19.848 26.9487C19.7005 26.9189 19.5646 26.8476 19.4563 26.7433L7.42453 15.1453C7.29124 15.0172 7.20732 14.8462 7.1875 14.6624C7.1875 14.6624 18.221 10.8266 18.8798 13.2226C18.9646 13.5312 19.059 13.8372 19.1629 14.1399C19.1502 14.2486 19.848 26.9487 19.848 26.9487ZM26.3359 21.1727L20.5567 26.7434C20.4484 26.8477 20.3125 26.9189 20.1651 26.9487C20.1605 23.7988 21.1118 21.3391 23.5696 19.9668C24.3689 20.4662 25.2854 20.8777 26.3359 21.1727Z" fill="#76E7E7"/>
<path d="M32.8216 14.6624H26.1536C23.9228 12.3895 23.1214 9.9454 23.3127 7.38235H26.8624C27.1094 7.38248 27.353 7.44024 27.5738 7.55105C27.7946 7.66186 27.9864 7.82265 28.1341 8.02064L32.6693 14.1027C32.7891 14.2633 32.8435 14.4633 32.8216 14.6624ZM26.1536 14.6624L23.568 19.9659C19.8657 20.0912 18.4934 16.6149 19.3531 13.0767L26.1536 14.6624Z" fill="#B0F0EF"/>
<path d="M23.571 19.9659L20.1664 26.9495C20.0617 26.9701 19.954 26.9701 19.8493 26.9495L13.8593 14.6624C15.554 13.4065 17.3173 12.7758 19.3562 14.6624C20.1355 16.6724 21.4342 18.6315 23.571 19.9659ZM13.1003 7.38235H16.7C17.4837 9.49665 16.1739 11.9888 13.8591 14.6624H7.18878C7.16586 14.4638 7.21944 14.264 7.33863 14.1034L11.8246 8.02696C11.972 7.82715 12.1642 7.66472 12.3857 7.55276C12.6073 7.44079 12.8521 7.38243 13.1003 7.38235Z" fill="#93ECEA"/>
<path d="M26.1569 14.6624H19.3565C16.7104 11.7913 17.0316 8.79735 18.256 7.38235H23.3161L26.1569 14.6624Z" fill="#93ECEA"/>
<path d="M19.3563 14.6624H13.8594L16.7002 7.38235H18.2559C18.1845 8.78735 18.236 11.778 19.3563 14.6624Z" fill="#76E7E7"/>
<path d="M39.7045 17.8672V30.1978C39.7046 31.0452 39.3684 31.8579 38.7697 32.4575L31.6902 39.5354C31.3929 39.8328 30.9897 39.9999 30.5691 40H24.0153C22.7016 40 21.6367 38.9352 21.6367 37.6214V34.5681C22.1053 36.1958 32.3777 30.8035 32.3777 30.8035L35.4452 28.1046C36.3871 27.4457 35.718 23.1667 35.1534 23.0684V17.9195C35.1534 16.6431 36.1977 15.5679 37.4741 15.5925C38.7102 15.6163 39.7045 16.6248 39.7045 17.8672Z" fill="#FFDDCF"/>
<path d="M36.2398 28.1044L32.3789 30.8034L35.1552 28.0272V23.0685C35.7196 23.1665 36.2383 23.4348 36.6505 23.847C37.0135 24.2095 37.2696 24.665 37.3907 25.1635C37.6623 26.2799 37.1816 27.446 36.2398 28.1044Z" fill="#FFCBBE"/>
<path d="M35.7411 27.4409L24.5798 38.6022L21.6383 35.6606V34.4855C21.6383 33.6793 21.8139 32.8829 22.1529 32.1515C22.4919 31.4201 22.9862 30.7713 23.6013 30.2503L25.529 28.6177C26.2762 27.9849 27.1599 27.5336 28.1107 27.2993L28.5952 27.1799C29.4374 26.9724 30.2068 26.5386 30.8202 25.9254L32.5227 24.2235C32.9668 23.7784 33.5494 23.5569 34.1319 23.5569C34.7134 23.5569 35.297 23.7784 35.7411 24.2235C36.6293 25.1117 36.6293 26.5527 35.7411 27.4409ZM0.300781 17.8672V30.1978C0.300672 31.0451 0.636874 31.8579 1.23555 32.4575L8.315 39.5354C8.61233 39.8328 9.01558 39.9999 9.43609 40H15.9899C17.3037 40 18.3685 38.9352 18.3685 37.6214V34.568C17.8999 36.1958 7.62758 30.8035 7.62758 30.8035L4.56 28.1047C3.61813 27.4458 4.28727 23.1667 4.8518 23.0684V17.9195C4.8518 16.643 3.80758 15.5679 2.53109 15.5925C1.295 15.6163 0.300781 16.6248 0.300781 17.8672Z" fill="#FFDDCF"/>
<path d="M3.76528 28.1044L7.62622 30.8034L4.84997 28.0272V23.0685C4.28552 23.1665 3.76685 23.4348 3.35466 23.847C2.99163 24.2095 2.73551 24.665 2.61442 25.1635C2.34278 26.2799 2.82357 27.446 3.76528 28.1044Z" fill="#FFCBBE"/>
<path d="M4.26771 27.4409L15.429 38.6023L18.3705 35.6607V34.4855C18.3705 33.6794 18.1949 32.8829 17.8559 32.1515C17.5169 31.4202 17.0226 30.7714 16.4075 30.2504L14.4798 28.6178C13.7326 27.9849 12.8489 27.5336 11.8981 27.2994L11.4136 27.18C10.5714 26.9725 9.80206 26.5387 9.18865 25.9255L7.48615 24.2236C7.04201 23.7784 6.45943 23.5569 5.87693 23.5569C5.29545 23.5569 4.71186 23.7784 4.26771 24.2236C3.37951 25.1117 3.37951 26.5526 4.26771 27.4409Z" fill="#FFDDCF"/>
<path d="M20.0026 3.86047C19.9245 3.86048 19.8472 3.84511 19.775 3.81523C19.7029 3.78535 19.6373 3.74155 19.5821 3.68633C19.5269 3.63112 19.4831 3.56556 19.4532 3.49342C19.4233 3.42127 19.408 3.34395 19.408 3.26586V0.594609C19.408 0.436909 19.4706 0.285668 19.5821 0.174157C19.6936 0.0626462 19.8449 0 20.0026 0C20.1603 0 20.3115 0.0626462 20.423 0.174157C20.5346 0.285668 20.5972 0.436909 20.5972 0.594609V3.26578C20.5972 3.34388 20.5819 3.42121 20.552 3.49336C20.5221 3.56552 20.4783 3.63108 20.4231 3.68631C20.3679 3.74153 20.3023 3.78534 20.2302 3.81522C20.158 3.8451 20.0807 3.86048 20.0026 3.86047ZM13.2735 5.32086C13.1691 5.32096 13.0664 5.29353 12.9759 5.24133C12.8854 5.18913 12.8103 5.114 12.7581 5.02352L11.4126 2.69422C11.3337 2.55765 11.3123 2.39535 11.3531 2.243C11.3939 2.09066 11.4935 1.96076 11.6301 1.88187C11.7667 1.80299 11.929 1.78159 12.0813 1.82238C12.2337 1.86317 12.3636 1.96281 12.4424 2.09938L13.7879 4.42867C13.8401 4.51903 13.8677 4.62154 13.8677 4.72591C13.8678 4.83028 13.8404 4.93282 13.7882 5.02324C13.7361 5.11366 13.6611 5.18876 13.5708 5.241C13.4804 5.29325 13.3779 5.32079 13.2735 5.32086ZM26.7334 5.31906C26.6326 5.31906 26.5303 5.29336 26.4367 5.2393C26.3691 5.20027 26.3098 5.1483 26.2622 5.08635C26.2147 5.02441 26.1798 4.9537 26.1596 4.87827C26.1394 4.80284 26.1342 4.72417 26.1444 4.64674C26.1546 4.56932 26.1799 4.49466 26.219 4.42703L27.5635 2.09773C27.7277 1.8132 28.0913 1.71578 28.3758 1.88C28.6602 2.04422 28.7577 2.40789 28.5935 2.69227L27.249 5.02156C27.1968 5.1121 27.1217 5.18727 27.0311 5.2395C26.9406 5.29173 26.838 5.31917 26.7334 5.31906ZM32.3387 9.8557C32.2077 9.85586 32.0803 9.81276 31.9763 9.7331C31.8723 9.65343 31.7976 9.54166 31.7636 9.41514C31.7297 9.28862 31.7384 9.15443 31.7886 9.03341C31.8387 8.91238 31.9274 8.8113 32.0409 8.74586L34.3755 7.39867C34.512 7.32194 34.6732 7.30212 34.8242 7.34352C34.9752 7.38491 35.1038 7.48419 35.182 7.61979C35.2603 7.7554 35.2819 7.9164 35.2422 8.06785C35.2025 8.2193 35.1047 8.34898 34.9699 8.42875L32.6353 9.77594C32.5452 9.8282 32.4429 9.85572 32.3387 9.8557ZM7.67095 9.85922C7.57001 9.85922 7.46782 9.83352 7.37415 9.77945L5.03947 8.43141C4.97184 8.39235 4.91257 8.34036 4.86504 8.2784C4.8175 8.21644 4.78264 8.14573 4.76243 8.0703C4.74223 7.99486 4.73708 7.91619 4.74728 7.83877C4.75748 7.76134 4.78283 7.68669 4.82189 7.61906C4.86094 7.55144 4.91293 7.49217 4.97489 7.44463C5.03685 7.3971 5.10756 7.36224 5.183 7.34203C5.25843 7.32183 5.3371 7.31668 5.41453 7.32688C5.49195 7.33708 5.56661 7.36243 5.63423 7.40148L7.96892 8.74953C8.08239 8.81498 8.17108 8.91606 8.2212 9.03709C8.27132 9.15811 8.28008 9.2923 8.24611 9.41881C8.21214 9.54532 8.13734 9.65707 8.03334 9.73671C7.92933 9.81635 7.80194 9.85942 7.67095 9.85922Z" fill="#B0F0EF"/>
</g>
<defs>
<clipPath id="clip0_389_3114">
<rect width="40" height="40" fill="white"/>
</clipPath>
</defs>
</svg>
