<svg width="40" height="40" viewBox="0 0 40 40" fill="none" xmlns="http://www.w3.org/2000/svg">
<g clip-path="url(#clip0_389_3150)">
<path d="M29.254 20C29.254 20.2028 30.0532 20.4041 30.0411 20.6036C29.9034 22.9271 28.9771 25.0382 27.526 26.6736V26.6744C27.4 26.8163 26.4653 26.1498 26.3316 26.2844C26.1818 26.4352 26.832 27.3862 26.6729 27.5275C26.2666 27.8879 25.832 28.2149 25.3731 28.5054V28.5046C13.6045 27.1962 13.2609 16.2787 15.2419 11.134C16.491 10.4612 17.8987 10.0459 19.3948 9.95734C19.5944 9.94531 19.7956 10.7445 19.9984 10.7445C20.2012 10.7445 20.4025 9.94523 20.602 9.95734C22.9264 10.095 25.0374 11.0213 26.6728 12.4724C26.8237 12.606 26.1655 13.5489 26.3078 13.6912C26.4501 13.8336 27.3927 13.1755 27.5259 13.3263C28.977 14.9617 29.9034 17.0728 30.041 19.3963C30.0531 19.5959 29.254 19.7972 29.254 20Z" fill="#FFBE73"/>
<path d="M25.3744 28.5046V28.5054C23.9796 29.3891 22.3514 29.9388 20.6033 30.0427C20.4037 30.0547 20.2026 29.2555 19.9997 29.2555C19.7969 29.2555 19.5957 30.0548 19.3962 30.0427C17.0718 29.905 14.9608 28.9787 13.3254 27.5276C13.1779 27.3967 13.8392 26.4568 13.6997 26.3177C13.5544 26.1727 12.6086 26.828 12.4722 26.6744C11.0212 25.0391 10.0947 22.928 9.95717 20.6037C9.94514 20.4041 10.7443 20.2029 10.7443 20.0001C10.7443 19.7973 9.94506 19.596 9.95717 19.3965C10.0948 17.0722 11.0212 14.9611 12.4722 13.3257C12.6237 13.1552 13.5855 13.7946 13.7479 13.6348C13.8722 13.5124 13.1949 12.5884 13.3254 12.4726C13.9102 11.9535 14.5536 11.5043 15.2425 11.1341H15.2433C15.1039 14.9119 15.7413 25.6112 25.3744 28.5046Z" fill="#FFA93F"/>
<path d="M30.0445 20.6036H21.4594L27.5294 26.6736V26.6744C27.2622 26.9754 26.9773 27.2603 26.6763 27.5275L20.6055 21.4575V30.0426C20.4059 30.0547 20.2047 30.0604 20.0019 30.0604C19.7991 30.0604 19.5978 30.0548 19.3983 30.0426V21.4575L13.3275 27.5275C13.0265 27.2603 12.7416 26.9754 12.4744 26.6744L18.5444 20.6036H9.95914C9.94711 20.404 9.94141 20.2028 9.94141 20C9.94141 19.7972 9.94703 19.5959 9.95914 19.3964H18.5442L12.4742 13.3256C12.7414 13.0246 13.0263 12.7397 13.3273 12.4725L19.3981 18.5425V9.95733C19.5977 9.9453 19.7989 9.9396 20.0017 9.9396C20.2045 9.9396 20.4058 9.94522 20.6053 9.95733V18.5425L26.6761 12.4725C26.9777 12.7394 27.2626 13.0245 27.5292 13.3264L21.4592 19.3964H30.0443C30.0563 19.596 30.062 19.7972 30.062 20C30.062 20.2028 30.0565 20.4041 30.0445 20.6036Z" fill="#FFF8E6"/>
<path d="M27.4359 20C27.4359 23.3401 25.2339 26.1658 22.203 27.1042C15.8032 25.2518 14.0897 19.7017 15.3281 14.2157C16.6046 13.1823 18.2295 12.5642 20.0001 12.5642C24.1072 12.5641 27.4359 15.893 27.4359 20Z" fill="#F9EE80"/>
<path d="M22.2013 27.1044C21.4878 27.3248 20.7452 27.4366 19.9984 27.4359C15.892 27.4359 12.5625 24.1064 12.5625 20C12.5625 17.6633 13.6402 15.5787 15.326 14.2157C15.6804 18.2425 17.1448 24.0206 22.2013 27.1044Z" fill="#F9D171"/>
<path d="M22.4149 21.7695C22.4154 21.3217 22.2776 20.8846 22.0202 20.518C21.7628 20.1513 21.4037 19.8758 20.9803 19.7205L19.433 19.1573C19.0503 19.0184 18.7932 18.6513 18.7932 18.2438V18.2306C18.7932 17.5558 19.3235 16.9962 19.9754 16.9833C20.3086 16.9769 20.6196 17.1018 20.8535 17.3358C21.0028 17.4847 21.1102 17.6704 21.1649 17.8741C21.2071 18.0277 21.3083 18.1584 21.4465 18.2378C21.5847 18.3171 21.7486 18.3386 21.9026 18.2975C22.0565 18.2565 22.188 18.1562 22.2683 18.0186C22.3487 17.8811 22.3714 17.7173 22.3315 17.563C22.222 17.1541 22.0067 16.7813 21.7072 16.4821C21.3967 16.1716 21.0174 15.9565 20.6041 15.8508V15.2928C20.6023 15.1339 20.5379 14.9821 20.4249 14.8704C20.3119 14.7587 20.1593 14.696 20.0004 14.696C19.8415 14.696 19.689 14.7587 19.576 14.8704C19.463 14.9821 19.3986 15.1339 19.3968 15.2928V15.8541C18.3591 16.1294 17.5859 17.0975 17.5859 18.2306V18.2438C17.5859 19.1573 18.1627 19.9805 19.0206 20.2919L20.566 20.8544C20.7557 20.924 20.9168 21.0475 21.0313 21.2106C21.1463 21.3743 21.2079 21.5695 21.2077 21.7695C21.2077 22.4444 20.6774 23.0039 20.0255 23.0169C19.8627 23.0207 19.7008 22.9913 19.5497 22.9306C19.3986 22.8698 19.2614 22.779 19.1465 22.6636C18.9971 22.5141 18.8896 22.328 18.8347 22.124C18.8143 22.0472 18.779 21.9753 18.7307 21.9122C18.6824 21.8491 18.6222 21.7962 18.5535 21.7564C18.4847 21.7167 18.4088 21.6909 18.3301 21.6805C18.2513 21.6702 18.1713 21.6755 18.0946 21.6961C18.0179 21.7167 17.9461 21.7523 17.8831 21.8007C17.8202 21.8491 17.7675 21.9095 17.7279 21.9784C17.6884 22.0473 17.6628 22.1233 17.6527 22.202C17.6425 22.2808 17.6481 22.3608 17.6689 22.4374C17.7789 22.8457 17.994 23.218 18.2929 23.5172C18.604 23.8283 18.9832 24.0434 19.3969 24.1491V24.7072C19.3987 24.8661 19.4631 25.0179 19.5761 25.1296C19.6891 25.2413 19.8416 25.304 20.0005 25.304C20.1594 25.304 20.3119 25.2413 20.4249 25.1296C20.5379 25.0179 20.6023 24.8661 20.6041 24.7072V24.146C21.6417 23.8708 22.4149 22.9027 22.4149 21.7695Z" fill="#7888AF"/>
<path d="M38.1872 20C38.1872 24.8587 36.295 29.4262 32.86 32.8612C30.0986 35.6225 26.6065 37.3867 22.8181 37.9726H22.8173C19.5881 37.6751 19.8235 35.5465 20.9719 34.6567C28.6201 34.1545 34.6877 27.773 34.6877 20H38.1872Z" fill="#FF938A"/>
<path d="M39.5826 19.5836H38.1835C38.0788 14.8811 36.198 10.4764 32.8612 7.1389C29.4253 3.70382 24.858 1.81164 20 1.81164C18.6367 1.81164 17.295 1.96054 15.9959 2.25109C14.148 3.57133 14.5638 5.40133 17.9106 5.45914C18.6027 5.36046 19.3009 5.31096 19.9999 5.31101C27.9604 5.31101 34.4617 11.6754 34.6832 19.5835H33.3625C33.0063 19.5835 32.8143 20.0016 33.0466 20.2718L35.8406 23.5218C36.1731 23.9085 36.7719 23.9085 37.1044 23.5218L39.8984 20.2718C40.1307 20.0016 39.9388 19.5836 39.5826 19.5836Z" fill="#BBE5A7"/>
<path d="M15.9959 2.25109C12.6671 2.99554 9.61031 4.66797 7.13875 7.13882C3.80195 10.4765 1.92102 14.8812 1.81641 19.5839H5.31664C5.51867 12.3798 10.9311 6.45711 17.9106 5.45914C16.1552 4.92718 15.983 3.02453 15.9959 2.25109Z" fill="#9CDA82"/>
<path d="M20.9731 34.6567C20.6519 34.6784 20.3268 34.6889 20 34.6889C12.0396 34.6889 5.53847 28.3246 5.31699 20.4168H6.63754C6.99379 20.4168 7.18574 19.9987 6.95347 19.7285L4.15941 16.4786C3.82691 16.0919 3.22816 16.0919 2.89566 16.4786L0.101521 19.7286C-0.130745 19.9987 0.0612082 20.4169 0.417458 20.4169H1.81636C1.92136 25.1195 3.80222 29.5246 7.13886 32.8612C10.5739 36.2962 15.1421 38.1884 20 38.1884C20.9529 38.1884 21.8954 38.1152 22.8193 37.9727C21.0206 37.3803 20.9409 35.3159 20.9731 34.6567Z" fill="#FD7A6E"/>
</g>
<defs>
<clipPath id="clip0_389_3150">
<rect width="40" height="40" fill="white"/>
</clipPath>
</defs>
</svg>
