<svg width="40" height="40" viewBox="0 0 40 40" fill="none" xmlns="http://www.w3.org/2000/svg">
<path d="M18.793 14.7238H21.2074V25.9913H18.793V14.7238Z" fill="#7888AF"/>
<path d="M19.9994 0C16.4002 0 18.7921 8.93039 13.292 19.1654C13.1246 19.1679 12.9604 19.1187 12.822 19.0245C11.9922 18.4636 11.1632 18.0137 10.3335 17.6764H10.3327C4.61207 14.2049 4.41316 8.69922 6.00582 5.65391V5.65312C9.62996 2.15289 14.5636 0 19.9994 0ZM38.7808 18.4579C34.9128 16.218 31.0448 16.4072 27.1768 19.0245C27.0384 19.1187 26.8743 19.1679 26.7068 19.1654C23.9196 14.7238 22.1579 0 19.9994 0C30.2819 0 38.7648 7.70297 39.9929 17.6539C40.075 18.3219 39.3636 18.7959 38.7808 18.4579Z" fill="#7FB0E4"/>
<path d="M26.7071 19.1654C26.5471 19.1636 26.3912 19.1148 26.2588 19.0252C24.172 17.6129 22.086 16.9076 20.0001 16.9084C17.9141 16.9075 15.8281 17.6129 13.7413 19.0252C13.6089 19.1149 13.4529 19.1637 13.293 19.1654C13.4632 8.49469 16.4005 0 20.0001 0C23.5997 0 26.5369 8.49469 26.7071 19.1654Z" fill="#A8C9ED"/>
<path d="M10.3341 17.6764C7.29587 16.4378 4.25681 16.6985 1.2186 18.4579C0.635947 18.7959 -0.0755377 18.3219 0.00649359 17.6539C0.585165 12.9642 2.77587 8.77267 6.00649 5.65314C5.9236 8.15376 6.26321 14.1368 10.3341 17.6764Z" fill="#68A2DF"/>
<path d="M9.91039 29.9396H11.5201C12.1868 29.9396 12.7273 29.3991 12.7273 28.7323C12.7273 28.0656 12.1869 27.5251 11.5201 27.5251H9.91039C9.24367 27.5251 8.70312 28.0656 8.70312 28.7323C8.70312 29.3991 9.24359 29.9396 9.91039 29.9396Z" fill="#DC695C"/>
<path d="M30.0904 29.9396H28.4807C27.814 29.9396 27.2734 29.3991 27.2734 28.7323C27.2734 28.0656 27.8139 27.5251 28.4807 27.5251H30.0904C30.7571 27.5251 31.2977 28.0656 31.2977 28.7323C31.2976 29.3991 30.7571 29.9396 30.0904 29.9396Z" fill="#FD7A6E"/>
<path d="M29.0526 29.1348C25.0695 30.3356 20.7789 30.6648 16.177 30.1111C16.177 30.1111 13.1572 27.7346 15.6393 23.3803H25.9258C26.2612 23.3803 26.5881 23.485 26.8611 23.6797C27.1341 23.8745 27.3395 24.1497 27.4485 24.4668L29.0526 29.1348Z" fill="#B0F0EF"/>
<path d="M18.8697 29.1348C16.35 30.6095 13.6982 30.4843 10.9453 29.1348L12.5067 24.4781C12.6139 24.1583 12.8189 23.8803 13.0928 23.6833C13.3666 23.4863 13.6953 23.3803 14.0327 23.3803H15.6407C15.6246 24.7911 15.9522 28.0515 18.8697 29.1348Z" fill="#93ECEA"/>
<path d="M10.3438 38.3903V36.3782H14.3679V38.3903C14.3679 39.2793 13.6472 40 12.7582 40H11.9534C11.0644 40 10.3438 39.2793 10.3438 38.3903Z" fill="#687DAA"/>
<path d="M25.6328 38.3903V36.3782H29.657V38.3903C29.657 39.2793 28.9362 40 28.0473 40H27.2424C26.3535 40 25.6328 39.2793 25.6328 38.3903Z" fill="#7888AF"/>
<path d="M31.2682 32.264V35.5735C31.2682 36.4627 30.5479 37.1831 29.6586 37.1831H24.5503C18.0429 36.0628 17.59 31.2198 19.9636 29.1349H29.0549L30.8689 31.2024C31.1264 31.4961 31.2683 31.8734 31.2682 32.264Z" fill="#FF938A"/>
<path d="M24.5478 37.1831H10.3402C9.45086 37.1831 8.73047 36.4628 8.73047 35.5734V32.305C8.73047 31.9202 8.86891 31.5477 9.12 31.2555L10.9438 29.1348H19.961C19.9015 30.9087 20.2137 35.7706 24.5478 37.1831Z" fill="#FD7A6E"/>
<path d="M27.6436 34.7686H26.0339C25.3672 34.7686 24.8266 34.2281 24.8266 33.5613C24.8266 32.8946 25.3671 32.3541 26.0339 32.3541H27.6436C28.3103 32.3541 28.8509 32.8945 28.8509 33.5613C28.8508 34.2281 28.3103 34.7686 27.6436 34.7686ZM13.9615 34.7686H12.3518C11.6851 34.7686 11.1445 34.2281 11.1445 33.5613C11.1445 32.8946 11.685 32.3541 12.3518 32.3541H13.9615C14.6282 32.3541 15.1687 32.8945 15.1687 33.5613C15.1687 34.2281 14.6282 34.7686 13.9615 34.7686Z" fill="#F9EE80"/>
</svg>
