<svg width="40" height="40" viewBox="0 0 40 40" fill="none" xmlns="http://www.w3.org/2000/svg">
<path d="M29.3855 31.7951L28.7288 27.3859C28.6808 27.0638 28.2866 26.9337 28.0563 27.1639L27.4916 27.7287C27.4548 27.7655 27.4111 27.7947 27.363 27.8146C27.3149 27.8346 27.2633 27.8448 27.2113 27.8448C27.1592 27.8448 27.1076 27.8346 27.0595 27.8146C27.0114 27.7947 26.9677 27.7655 26.9309 27.7287L19.4184 20.2161C19.1088 19.9065 18.6067 19.9065 18.2971 20.2161L16.3348 22.1784C16.298 22.2152 16.2543 22.2444 16.2062 22.2643C16.1581 22.2842 16.1066 22.2945 16.0545 22.2945C16.0025 22.2945 15.9509 22.2842 15.9028 22.2643C15.8547 22.2444 15.811 22.2152 15.7742 22.1784L7.64492 14.0491L5.40234 16.2917L15.4938 26.3832C15.8034 26.6928 16.3055 26.6928 16.6151 26.3832L18.5773 24.4209C18.6141 24.3841 18.6578 24.3549 18.7059 24.335C18.754 24.315 18.8056 24.3048 18.8577 24.3048C18.9097 24.3048 18.9613 24.315 19.0094 24.335C19.0575 24.3549 19.1012 24.3841 19.138 24.4209L24.6883 29.9712C24.7251 30.008 24.7543 30.0517 24.7742 30.0998C24.7942 30.1479 24.8044 30.1995 24.8044 30.2516C24.8044 30.3036 24.7942 30.3552 24.7742 30.4033C24.7543 30.4514 24.7251 30.4951 24.6883 30.5319L24.1235 31.0966C23.8933 31.3269 24.0234 31.7211 24.3455 31.7691L28.7548 32.4258C29.1234 32.4808 29.4404 32.1638 29.3855 31.7951Z" fill="#9CDA82"/>
<path d="M25.569 36.2339V39.4054H24.2037V38.8028C20.8669 38.9294 19.841 36.7594 21.546 34.6482H23.9833C24.8594 34.6482 25.569 35.3578 25.569 36.2339Z" fill="#FF938A"/>
<path d="M24.2041 38.8027V39.4053H19.2266V36.2338C19.2266 35.3577 19.9362 34.6481 20.8123 34.6481H21.5465C21.5512 35.7645 21.8652 38.1748 24.2041 38.8027Z" fill="#FD7A6E"/>
<path d="M16.8464 31.4767V38.1978C10.5948 37.5174 11.0025 32.4337 12.8925 29.8909H15.2607C16.1368 29.891 16.8464 30.6006 16.8464 31.4767Z" fill="#FF938A"/>
<path d="M16.8468 38.1978V39.4053H10.5039V31.4767C10.5039 30.6006 11.2135 29.891 12.0896 29.891H12.8927C12.8159 31.5266 13.0102 36.3092 16.8468 38.1978Z" fill="#FD7A6E"/>
<path d="M8.1282 27.5124V35.9088C2.0668 34.9383 2.16766 29.3772 4.00531 25.9266H6.5425C7.41859 25.9266 8.1282 26.6362 8.1282 27.5124Z" fill="#FF938A"/>
<path d="M8.12813 35.9088V39.4054H1.78516V27.5124C1.78516 26.6363 2.49477 25.9267 3.37086 25.9267H4.00516C3.93305 28.0103 4.23359 33.2606 8.12813 35.9088Z" fill="#FD7A6E"/>
<path d="M26.7591 40H0.594609C0.266172 40 0 39.7338 0 39.4053C0 39.0769 0.266172 38.8107 0.594609 38.8107H26.7591C26.8378 38.8098 26.9159 38.8245 26.9888 38.854C27.0617 38.8835 27.1281 38.9271 27.184 38.9824C27.24 39.0378 27.2844 39.1036 27.3147 39.1762C27.345 39.2488 27.3606 39.3267 27.3606 39.4054C27.3606 39.484 27.345 39.5619 27.3147 39.6345C27.2844 39.7071 27.24 39.773 27.184 39.8283C27.1281 39.8836 27.0617 39.9272 26.9888 39.9567C26.9159 39.9862 26.8378 40.0009 26.7591 40Z" fill="#7888AF"/>
<path d="M30.4383 13.2495L27.8594 15.8284L36.8857 24.8548C37.5979 25.567 38.7525 25.567 39.4646 24.8548C40.1768 24.1426 40.1768 22.988 39.4646 22.2759L30.4383 13.2495Z" fill="#93BCE8"/>
<path d="M28.5835 9.32993L23.9414 13.972L26.0045 16.0352C26.5742 16.6048 27.498 16.6048 28.0677 16.0352L30.6466 13.4563C31.2162 12.8866 31.2162 11.9628 30.6466 11.3931L28.5835 9.32993Z" fill="#7888AF"/>
<path d="M32.7885 7.8628L27.1132 13.5381C20.4197 13.7712 20.7833 8.23694 22.3513 5.40491L26.341 1.41522L32.7885 7.8628Z" fill="#E4996D"/>
<path d="M27.1148 13.5381L22.4741 18.1787L16.0273 11.7312L22.3528 5.40491C22.283 7.13655 22.5542 12.2045 27.1148 13.5381Z" fill="#DF8A57"/>
<path d="M23.4254 19.1878C22.8835 19.7297 22.005 19.7297 21.4631 19.1878L15.0158 12.7405C14.4739 12.1986 14.4739 11.3201 15.0158 10.7782C15.5577 10.2363 16.4362 10.2363 16.978 10.7782L23.4254 17.2255C23.9673 17.7674 23.9673 18.6459 23.4254 19.1878Z" fill="#EAAA83"/>
<path d="M33.8004 8.81602C33.2585 9.35789 32.38 9.35789 31.8381 8.81602L25.3908 2.36867C24.8489 1.8268 24.8489 0.948281 25.3908 0.406406C25.9327 -0.135469 26.8112 -0.135469 27.353 0.406406L33.8004 6.85375C34.3422 7.39562 34.3422 8.27414 33.8004 8.81602Z" fill="#EFB899"/>
<path d="M12.4867 14.917C12.4867 16.6374 11.7557 18.1875 10.587 19.2738H10.5862C2.77873 18.5008 2.90435 12.0977 4.68178 9.26703C5.26607 9.07438 5.89092 8.97055 6.54021 8.97055C9.82427 8.97047 12.4867 11.6329 12.4867 14.917Z" fill="#F9EE80"/>
<path d="M10.587 19.2738C9.52617 20.2602 8.10375 20.8635 6.54023 20.8635C3.25617 20.8635 0.59375 18.2011 0.59375 14.917C0.59375 12.2824 2.30797 10.0473 4.6818 9.26712C4.60016 11.4372 4.96086 17.6517 10.587 19.2738Z" fill="#F9D171"/>
<path d="M8.50867 16.2583C8.50908 15.8906 8.39587 15.5318 8.18453 15.2308C7.97382 14.9304 7.67587 14.7019 7.33102 14.5763L6.15812 14.1494C6.04258 14.1072 5.94278 14.0305 5.8722 13.9297C5.80162 13.829 5.76366 13.709 5.76344 13.5859V13.5759C5.76344 13.1385 6.10508 12.7759 6.52508 12.7676C6.73977 12.764 6.94031 12.8439 7.09102 12.9946C7.18718 13.0905 7.25637 13.21 7.29164 13.3412C7.31176 13.4166 7.34655 13.4874 7.39402 13.5494C7.4415 13.6114 7.50073 13.6634 7.56832 13.7025C7.63592 13.7416 7.71057 13.7671 7.78799 13.7773C7.86541 13.7875 7.94409 13.7824 8.01953 13.7623C8.09498 13.7421 8.16572 13.7073 8.22772 13.6598C8.28972 13.6124 8.34176 13.5531 8.38086 13.4855C8.41996 13.4179 8.44537 13.3433 8.45562 13.2659C8.46588 13.1885 8.46078 13.1098 8.44063 13.0344C8.35134 12.7012 8.1759 12.3974 7.93195 12.1536C7.70892 11.9315 7.43602 11.766 7.13602 11.6708V11.3491C7.13602 11.1914 7.07337 11.0402 6.96186 10.9287C6.85035 10.8172 6.69911 10.7545 6.54141 10.7545C6.38371 10.7545 6.23246 10.8172 6.12095 10.9287C6.00944 11.0402 5.9468 11.1914 5.9468 11.3491V11.6723C5.15367 11.9308 4.57422 12.6916 4.57422 13.5759V13.5859C4.57422 14.3358 5.04766 15.0115 5.7518 15.2672L6.92289 15.6934C7.03909 15.7353 7.13952 15.8121 7.21047 15.9132C7.28142 16.0143 7.31943 16.1348 7.3193 16.2583C7.3193 16.6957 6.97766 17.0583 6.55758 17.0667C6.4526 17.0694 6.34819 17.0506 6.25076 17.0114C6.15333 16.9722 6.06493 16.9136 5.99102 16.839C5.89477 16.7426 5.82549 16.6227 5.79008 16.4912C5.74767 16.3405 5.64756 16.2126 5.51146 16.1353C5.37536 16.058 5.21425 16.0374 5.06308 16.0781C4.91192 16.1188 4.78289 16.2174 4.70399 16.3526C4.62509 16.4878 4.60269 16.6487 4.64164 16.8003C4.73123 17.1329 4.90652 17.4362 5.15 17.6799C5.3775 17.9074 5.64961 18.0719 5.94664 18.1655V18.4849C5.94664 18.6426 6.00929 18.7938 6.1208 18.9054C6.23231 19.0169 6.38355 19.0795 6.54125 19.0795C6.69895 19.0795 6.85019 19.0169 6.9617 18.9054C7.07321 18.7938 7.13586 18.6426 7.13586 18.4849V18.1619C7.92922 17.9035 8.50867 17.1426 8.50867 16.2583Z" fill="#7888AF"/>
</svg>
