<svg width="20" height="20" viewBox="0 0 20 20" fill="none" xmlns="http://www.w3.org/2000/svg">
<path d="M19.0164 11.7383C17.7264 13.8893 14.8383 17.5003 10.0003 17.5003C9.06227 17.5003 8.13727 17.3572 7.25027 17.0772C6.98627 16.9942 6.84135 16.7132 6.92435 16.4502C7.00835 16.1872 7.2913 16.0383 7.5513 16.1243C8.3413 16.3743 9.16527 16.5003 10.0003 16.5003C14.3453 16.5003 16.9772 13.1942 18.1592 11.2232C18.6152 10.4692 18.6152 9.53231 18.1602 8.77931C17.8082 8.18731 17.3784 7.58027 16.9134 7.02027C16.7364 6.80827 16.7663 6.49317 16.9783 6.31617C17.1893 6.14017 17.5062 6.16936 17.6822 6.38136C18.1802 6.98036 18.6424 7.63115 19.0174 8.26515C19.6644 9.33415 19.6644 10.6663 19.0164 11.7383ZM7.88431 12.8233L1.35428 19.3533C1.25628 19.4513 1.12827 19.4993 1.00027 19.4993C0.872274 19.4993 0.74427 19.4503 0.64627 19.3533C0.45127 19.1583 0.45127 18.8412 0.64627 18.6462L4.01321 15.2793C2.60121 14.1183 1.58618 12.7413 0.983184 11.7373C0.336184 10.6663 0.33616 9.33424 0.98416 8.26124C2.27416 6.11024 5.16227 2.49928 10.0003 2.49928C11.8513 2.49928 13.5923 3.04423 15.1873 4.10523L18.6472 0.645273C18.8422 0.450273 19.1593 0.450273 19.3543 0.645273C19.5493 0.840273 19.5493 1.1573 19.3543 1.3523L7.88919 12.8171C7.88819 12.8181 7.88824 12.8193 7.88724 12.8203C7.88624 12.8223 7.88531 12.8223 7.88431 12.8233ZM7.56229 11.7312L11.7312 7.56227C11.2312 7.20127 10.6343 7.00025 10.0003 7.00025C8.34727 7.00025 7.00125 8.34625 7.00125 10.0003C7.00125 10.6343 7.20229 11.2302 7.56229 11.7312ZM4.7222 14.5713L6.85623 12.4373C6.31223 11.7443 6.00125 10.9013 6.00125 10.0003C6.00125 7.79425 7.79527 6.00025 10.0003 6.00025C10.9013 6.00025 11.7443 6.31123 12.4383 6.85523L14.4522 4.84132C13.0722 3.96732 11.5823 3.49928 10.0013 3.49928C5.65625 3.49928 3.02431 6.80513 1.84231 8.77613C1.38631 9.53013 1.38634 10.4672 1.84134 11.2202C2.41334 12.1762 3.3782 13.4893 4.7222 14.5713ZM12.9554 10.4744C12.7594 11.7404 11.7394 12.7613 10.4744 12.9563C10.2014 12.9983 10.0142 13.2531 10.0562 13.5261C10.0942 13.7731 10.3073 13.9502 10.5493 13.9502C10.5743 13.9502 10.6013 13.9483 10.6263 13.9443C12.3173 13.6833 13.6824 12.3192 13.9434 10.6262C13.9854 10.3542 13.7982 10.0982 13.5252 10.0562C13.2562 10.0152 12.9974 10.2014 12.9554 10.4744Z" fill="#25314C"/>
</svg>
