<svg width="25" height="24" viewBox="0 0 25 24" fill="none" xmlns="http://www.w3.org/2000/svg">
<path d="M23.0005 12.2332C23.0005 11.3699 22.9291 10.7399 22.7744 10.0865H12.7148V13.9832H18.6196C18.5006 14.9515 17.8577 16.4099 16.4291 17.3898L16.4091 17.5203L19.5897 19.935L19.8101 19.9565C21.8338 18.1249 23.0005 15.4298 23.0005 12.2332Z" fill="#4285F4"/>
<path d="M12.7159 22.5C15.6088 22.5 18.0373 21.5666 19.8111 19.9566L16.4302 17.3898C15.5255 18.0082 14.3111 18.4399 12.7159 18.4399C9.88265 18.4399 7.47791 16.6082 6.62069 14.0765L6.49504 14.087L3.18778 16.5954L3.14453 16.7132C4.90641 20.1432 8.52545 22.5 12.7159 22.5Z" fill="#34A853"/>
<path d="M6.619 14.0766C6.39281 13.4233 6.26191 12.7232 6.26191 11.9999C6.26191 11.2765 6.39281 10.5766 6.6071 9.92325L6.60111 9.78411L3.25239 7.23547L3.14283 7.28655C2.41667 8.7099 2 10.3083 2 11.9999C2 13.6916 2.41667 15.2899 3.14283 16.7132L6.619 14.0766Z" fill="#FBBC05"/>
<path d="M12.716 5.55997C14.7279 5.55997 16.085 6.41163 16.8588 7.12335L19.8826 4.23C18.0256 2.53834 15.6088 1.5 12.716 1.5C8.52548 1.5 4.90642 3.85665 3.14453 7.28662L6.60881 9.92332C7.47794 7.39166 9.88268 5.55997 12.716 5.55997Z" fill="#EB4335"/>
</svg>
