<svg width="16" height="14" viewBox="0 0 16 14" fill="none" xmlns="http://www.w3.org/2000/svg">
<path d="M12.6 13.4002H3C1.0656 13.4002 0 12.3346 0 10.4002V3.2002C0 1.2658 1.0656 0.200195 3 0.200195H12.6C14.5344 0.200195 15.6 1.2658 15.6 3.2002V10.4002C15.6 12.3346 14.5344 13.4002 12.6 13.4002ZM3 1.4002C1.7384 1.4002 1.2 1.9386 1.2 3.2002V10.4002C1.2 11.6618 1.7384 12.2002 3 12.2002H12.6C13.8616 12.2002 14.4 11.6618 14.4 10.4002V3.2002C14.4 1.9386 13.8616 1.4002 12.6 1.4002H3ZM8.62324 7.3434L12.5527 4.48579C12.8207 4.29139 12.88 3.9154 12.6848 3.6474C12.4904 3.3802 12.1161 3.31939 11.8465 3.51539L7.9168 6.373C7.8464 6.4242 7.75282 6.4242 7.68242 6.373L3.75273 3.51539C3.48233 3.31939 3.10885 3.381 2.91445 3.6474C2.71925 3.9154 2.77848 4.29059 3.04648 4.48579L6.97598 7.34419C7.22238 7.52339 7.51122 7.61219 7.79922 7.61219C8.08722 7.61219 8.37764 7.5226 8.62324 7.3434Z" fill="#25314C"/>
</svg>
