<svg width="26" height="26" viewBox="0 0 26 26" fill="none" xmlns="http://www.w3.org/2000/svg">
<path d="M13.1977 3.3999C7.89591 3.3999 3.59766 7.69815 3.59766 12.9999C3.59766 18.3017 7.89591 22.5999 13.1977 22.5999C18.4994 22.5999 22.7977 18.3017 22.7977 12.9999C22.7977 7.69815 18.4994 3.3999 13.1977 3.3999Z" fill="black"/>
<path d="M13.3112 20.2875H13.307C11.1324 20.2728 9.46059 19.5558 8.33735 18.1559C7.33745 16.9103 6.82201 15.1772 6.80469 13.0052V12.9947C6.82201 10.8222 7.33745 9.08954 8.33735 7.84398C9.46006 6.4441 11.1324 5.7271 13.3064 5.7124H13.3148C14.9819 5.72343 16.3765 6.15224 17.4604 6.98579C18.4792 7.76946 19.1962 8.8864 19.5919 10.3062L18.3532 10.6516C17.6829 8.2471 15.9865 7.01781 13.3106 6.99839C11.5438 7.01099 10.208 7.56633 9.33931 8.64865C8.52575 9.6622 8.1053 11.1261 8.09008 12.9994C8.10583 14.8733 8.52624 16.3372 9.33931 17.3503C10.208 18.4326 11.5438 18.9879 13.3106 19.0005C14.9031 18.9889 15.9571 18.6178 16.8337 17.7591C17.834 16.7791 17.8157 15.5772 17.4955 14.846C17.3071 14.4151 16.9648 14.056 16.5035 13.7841C16.3875 14.604 16.1266 15.2696 15.7235 15.7709C15.186 16.4401 14.4239 16.806 13.4591 16.8579C12.729 16.8972 12.0257 16.7246 11.4798 16.3713C10.8342 15.9535 10.4563 15.3142 10.4158 14.571C10.3765 13.8482 10.6631 13.1837 11.2226 12.6997C11.7574 12.2373 12.5096 11.9659 13.3982 11.9161C14.0533 11.8793 14.6658 11.9082 15.2322 12.0027C15.1571 11.5518 15.0049 11.1944 14.7782 10.9361C14.4664 10.5808 13.984 10.3992 13.3452 10.395H13.3274C12.8145 10.395 12.118 10.5356 11.674 11.1959L10.6069 10.4784C11.201 9.595 12.1663 9.10897 13.3268 9.10897H13.3531C15.2936 9.12104 16.4489 10.3078 16.5638 12.3806C16.6299 12.4084 16.6945 12.4372 16.7585 12.4672C17.664 12.8929 18.3259 13.5375 18.6733 14.3311C19.1573 15.4375 19.2019 17.2405 17.7328 18.6787C16.6105 19.7778 15.2479 20.2738 13.3148 20.287H13.3106L13.3111 20.2875H13.3112ZM13.9201 13.1873C13.7731 13.1873 13.624 13.1915 13.4718 13.2004C12.3564 13.2634 11.6615 13.7742 11.7008 14.5016C11.7423 15.2638 12.5832 15.618 13.391 15.5745C14.1347 15.5346 15.1027 15.2454 15.2648 13.3211C14.8543 13.2335 14.403 13.1873 13.9201 13.1873V13.1873Z" fill="white"/>
</svg>
