<svg width="26" height="26" viewBox="0 0 26 26" fill="none" xmlns="http://www.w3.org/2000/svg">
<rect x="1.59961" y="1.7998" width="22.4" height="22.4" rx="4.8" fill="url(#paint0_radial_2829_20066)"/>
<rect x="1.59961" y="1.7998" width="22.4" height="22.4" rx="4.8" fill="url(#paint1_radial_2829_20066)"/>
<rect x="1.59961" y="1.7998" width="22.4" height="22.4" rx="4.8" fill="url(#paint2_radial_2829_20066)"/>
<path d="M18.4008 8.6C18.4008 9.26274 17.8635 9.8 17.2008 9.8C16.538 9.8 16.0008 9.26274 16.0008 8.6C16.0008 7.93726 16.538 7.4 17.2008 7.4C17.8635 7.4 18.4008 7.93726 18.4008 8.6Z" fill="white"/>
<path fill-rule="evenodd" clip-rule="evenodd" d="M12.8008 17C15.0099 17 16.8008 15.2091 16.8008 13C16.8008 10.7909 15.0099 9 12.8008 9C10.5916 9 8.80078 10.7909 8.80078 13C8.80078 15.2091 10.5916 17 12.8008 17ZM12.8008 15.4C14.1263 15.4 15.2008 14.3255 15.2008 13C15.2008 11.6745 14.1263 10.6 12.8008 10.6C11.4753 10.6 10.4008 11.6745 10.4008 13C10.4008 14.3255 11.4753 15.4 12.8008 15.4Z" fill="white"/>
<path fill-rule="evenodd" clip-rule="evenodd" d="M4.80078 12.68C4.80078 9.99175 4.80078 8.64762 5.32395 7.62085C5.78414 6.71767 6.51845 5.98336 7.42163 5.52317C8.4484 5 9.79253 5 12.4808 5H13.1208C15.809 5 17.1532 5 18.1799 5.52317C19.0831 5.98336 19.8174 6.71767 20.2776 7.62085C20.8008 8.64762 20.8008 9.99175 20.8008 12.68V13.32C20.8008 16.0083 20.8008 17.3524 20.2776 18.3792C19.8174 19.2823 19.0831 20.0166 18.1799 20.4768C17.1532 21 15.809 21 13.1208 21H12.4808C9.79253 21 8.4484 21 7.42163 20.4768C6.51845 20.0166 5.78414 19.2823 5.32395 18.3792C4.80078 17.3524 4.80078 16.0083 4.80078 13.32V12.68ZM12.4808 6.6H13.1208C14.4913 6.6 15.423 6.60124 16.1431 6.66008C16.8446 6.71739 17.2033 6.82128 17.4536 6.94878C18.0557 7.25557 18.5452 7.74511 18.852 8.34723C18.9795 8.59747 19.0834 8.9562 19.1407 9.65766C19.1995 10.3778 19.2008 11.3095 19.2008 12.68V13.32C19.2008 14.6905 19.1995 15.6222 19.1407 16.3423C19.0834 17.0438 18.9795 17.4025 18.852 17.6528C18.5452 18.2549 18.0557 18.7444 17.4536 19.0512C17.2033 19.1787 16.8446 19.2826 16.1431 19.3399C15.423 19.3988 14.4913 19.4 13.1208 19.4H12.4808C11.1103 19.4 10.1786 19.3988 9.45844 19.3399C8.75698 19.2826 8.39825 19.1787 8.14801 19.0512C7.54589 18.7444 7.05636 18.2549 6.74956 17.6528C6.62206 17.4025 6.51818 17.0438 6.46086 16.3423C6.40203 15.6222 6.40078 14.6905 6.40078 13.32V12.68C6.40078 11.3095 6.40203 10.3778 6.46086 9.65766C6.51818 8.9562 6.62206 8.59747 6.74956 8.34723C7.05636 7.74511 7.54589 7.25557 8.14801 6.94878C8.39825 6.82128 8.75698 6.71739 9.45844 6.66008C10.1786 6.60124 11.1103 6.6 12.4808 6.6Z" fill="white"/>
<defs>
<radialGradient id="paint0_radial_2829_20066" cx="0" cy="0" r="1" gradientUnits="userSpaceOnUse" gradientTransform="translate(9.59961 18.5998) rotate(-55.3758) scale(20.4157)">
<stop stop-color="#B13589"/>
<stop offset="0.79309" stop-color="#C62F94"/>
<stop offset="1" stop-color="#8A3AC8"/>
</radialGradient>
<radialGradient id="paint1_radial_2829_20066" cx="0" cy="0" r="1" gradientUnits="userSpaceOnUse" gradientTransform="translate(8.79961 24.9998) rotate(-65.1363) scale(18.0754)">
<stop stop-color="#E0E8B7"/>
<stop offset="0.444662" stop-color="#FB8A2E"/>
<stop offset="0.71474" stop-color="#E2425C"/>
<stop offset="1" stop-color="#E2425C" stop-opacity="0"/>
</radialGradient>
<radialGradient id="paint2_radial_2829_20066" cx="0" cy="0" r="1" gradientUnits="userSpaceOnUse" gradientTransform="translate(0.399611 2.5998) rotate(-8.1301) scale(31.1127 6.65468)">
<stop offset="0.156701" stop-color="#406ADC"/>
<stop offset="0.467799" stop-color="#6A45BE"/>
<stop offset="1" stop-color="#6A45BE" stop-opacity="0"/>
</radialGradient>
</defs>
</svg>
