<svg width="27" height="26" viewBox="0 0 27 26" fill="none" xmlns="http://www.w3.org/2000/svg">
<rect x="2.39844" y="1.7998" width="22.4" height="22.4" rx="11.2" fill="#1275B1"/>
<path d="M10.8929 7.95357C10.8929 8.70121 10.2449 9.30729 9.44547 9.30729C8.64608 9.30729 7.99805 8.70121 7.99805 7.95357C7.99805 7.20593 8.64608 6.59985 9.44547 6.59985C10.2449 6.59985 10.8929 7.20593 10.8929 7.95357Z" fill="white"/>
<path d="M8.19599 10.3023H10.6702V17.7999H8.19599V10.3023Z" fill="white"/>
<path d="M14.6537 10.3023H12.1795V17.7999H14.6537C14.6537 17.7999 14.6537 15.4395 14.6537 13.9637C14.6537 13.0779 14.9562 12.1883 16.163 12.1883C17.5269 12.1883 17.5186 13.3475 17.5123 14.2455C17.504 15.4194 17.5238 16.6173 17.5238 17.7999H19.998V13.8428C19.9771 11.3162 19.3187 10.1519 17.1527 10.1519C15.8664 10.1519 15.069 10.7359 14.6537 11.2642V10.3023Z" fill="white"/>
</svg>
