<svg width="13" height="16" viewBox="0 0 13 16" fill="none" xmlns="http://www.w3.org/2000/svg">
<path d="M6.19961 7.9394V12.2001C6.19961 12.5313 6.46841 12.8001 6.79961 12.8001C7.13081 12.8001 7.39961 12.5313 7.39961 12.2001V7.9394C9.20921 7.649 10.5996 6.08975 10.5996 4.20015C10.5996 2.10495 8.89481 0.400146 6.79961 0.400146C4.70441 0.400146 2.99961 2.10495 2.99961 4.20015C2.99961 6.08975 4.39001 7.6498 6.19961 7.9394ZM6.79961 1.60015C8.23321 1.60015 9.39961 2.76655 9.39961 4.20015C9.39961 5.63375 8.23321 6.80015 6.79961 6.80015C5.36601 6.80015 4.19961 5.63375 4.19961 4.20015C4.19961 2.76655 5.36601 1.60015 6.79961 1.60015ZM12.9996 13.0001C12.9996 14.7105 10.334 16.0001 6.79961 16.0001C3.26521 16.0001 0.599609 14.7105 0.599609 13.0001C0.599609 11.9129 1.63241 10.9882 3.43161 10.4642C3.75001 10.373 4.08281 10.5538 4.17561 10.8722C4.26841 11.1906 4.08521 11.5234 3.76761 11.6162C2.40841 12.0122 1.79961 12.5969 1.79961 13.0001C1.79961 13.7337 3.74761 14.8001 6.79961 14.8001C9.85161 14.8001 11.7996 13.7337 11.7996 13.0001C11.7996 12.5969 11.1908 12.0122 9.8316 11.6162C9.514 11.5234 9.33081 11.1906 9.42361 10.8722C9.51641 10.5538 9.85081 10.373 10.1676 10.4642C11.9668 10.9882 12.9996 11.9129 12.9996 13.0001Z" fill="#25314C"/>
</svg>
