<svg width="16" height="16" viewBox="0 0 16 16" fill="none" xmlns="http://www.w3.org/2000/svg">
<path d="M11.443 15.8016C11.0758 15.8016 10.7063 15.752 10.3415 15.652C5.40945 14.2984 1.50464 10.396 0.150243 5.46721C-0.157757 4.34641 0.0110008 3.17841 0.627001 2.18001C1.2454 1.17681 2.26225 0.468805 3.41665 0.238405C4.18465 0.0848054 4.94385 0.427211 5.33345 1.08401L6.58384 3.196C7.19104 4.2216 6.88933 5.5424 5.89653 6.2032L4.99184 6.80481C5.83744 8.54081 7.25972 9.96721 8.98852 10.812L9.59829 9.9024C10.2631 8.9112 11.5838 8.61441 12.6086 9.22481L14.7231 10.4856C15.3775 10.876 15.7158 11.64 15.567 12.3856C15.3366 13.54 14.6286 14.5568 13.6262 15.1752C12.9526 15.5896 12.203 15.8016 11.443 15.8016ZM3.78384 1.4C3.74464 1.4 3.70466 1.40401 3.66626 1.41201C2.82306 1.58081 2.09266 2.0888 1.64946 2.8096C1.21026 3.5216 1.08944 4.35281 1.30864 5.14881C2.55104 9.67121 6.13423 13.2528 10.659 14.4944C11.4558 14.7128 12.2846 14.5912 12.9958 14.1528C13.7158 13.7088 14.2247 12.9776 14.3903 12.1488C14.4399 11.9 14.3271 11.6448 14.1079 11.5144L11.9942 10.2536C11.5182 9.97039 10.9038 10.1088 10.595 10.5688L9.70298 11.9008C9.54298 12.1392 9.23428 12.2304 8.97348 12.12C6.60308 11.1288 4.67427 9.196 3.68227 6.8168C3.57187 6.5512 3.66456 6.2456 3.90376 6.0864L5.23266 5.20239C5.69346 4.89599 5.83342 4.2824 5.55102 3.8064L4.30063 1.69519C4.19103 1.50959 3.99264 1.4 3.78384 1.4Z" fill="#25314C"/>
</svg>
