<svg width="27" height="26" viewBox="0 0 27 26" fill="none" xmlns="http://www.w3.org/2000/svg">
<path d="M14.0424 12.6722L18.3631 18.8523H16.5898L13.0641 13.8093V13.809L12.5464 13.0687L8.42773 7.17725H10.201L13.5247 11.9319L14.0424 12.6722Z" fill="black"/>
<path d="M20.9242 3.3999H5.87343C4.72769 3.3999 3.79883 4.32876 3.79883 5.4745V20.5253C3.79883 21.671 4.72769 22.5999 5.87343 22.5999H20.9242C22.07 22.5999 22.9988 21.671 22.9988 20.5253V5.4745C22.9988 4.32876 22.07 3.3999 20.9242 3.3999ZM16.0452 19.6819L12.4773 14.4893L8.01031 19.6819H6.85581L11.9647 13.7435L6.85581 6.30807H10.7525L14.131 11.2251L18.3609 6.30807H19.5154L14.6438 11.9711H14.6435L19.9419 19.6819H16.0452Z" fill="black"/>
</svg>
