<svg width="26" height="26" viewBox="0 0 26 26" fill="none" xmlns="http://www.w3.org/2000/svg">
<path d="M1.99639 8.15289C2.09921 6.56986 3.37194 5.32925 4.95635 5.25076C7.25069 5.13709 10.53 5 13.0008 5C15.4716 5 18.7509 5.13709 21.0452 5.25076C22.6296 5.32925 23.9024 6.56987 24.0052 8.15289C24.1037 9.66954 24.2008 11.5357 24.2008 13C24.2008 14.4643 24.1037 16.3305 24.0052 17.8471C23.9024 19.4301 22.6296 20.6707 21.0452 20.7492C18.7509 20.8629 15.4716 21 13.0008 21C10.53 21 7.25069 20.8629 4.95635 20.7492C3.37194 20.6707 2.09921 19.4301 1.99639 17.8471C1.89787 16.3305 1.80078 14.4643 1.80078 13C1.80078 11.5357 1.89787 9.66954 1.99639 8.15289Z" fill="#FC0D1B"/>
<path d="M10.5996 9.7998V16.1998L16.9996 12.9998L10.5996 9.7998Z" fill="white"/>
</svg>
