<svg width="20" height="20" viewBox="0 0 20 20" fill="none" xmlns="http://www.w3.org/2000/svg">
<path d="M6.46997 4.53002C6.17697 4.23702 6.17697 3.76199 6.46997 3.46899L9.46997 0.468987C9.53897 0.399987 9.62211 0.345 9.71411 0.307C9.89711 0.231 10.1041 0.231 10.2871 0.307C10.3791 0.345 10.462 0.399987 10.531 0.468987L13.531 3.46899C13.824 3.76199 13.824 4.23702 13.531 4.53002C13.385 4.67602 13.193 4.74999 13.001 4.74999C12.809 4.74999 12.6169 4.67702 12.4709 4.53002L10.751 2.80999V14C10.751 14.414 10.415 14.75 10.001 14.75C9.58698 14.75 9.25098 14.414 9.25098 14V2.81097L7.53101 4.531C7.23701 4.823 6.76297 4.82302 6.46997 4.53002ZM16 7.24999C15.586 7.24999 15.25 7.58599 15.25 7.99999C15.25 8.41399 15.586 8.74999 16 8.74999C17.577 8.74999 18.25 9.42299 18.25 11V16C18.25 17.577 17.577 18.25 16 18.25H4C2.423 18.25 1.75 17.577 1.75 16V11C1.75 9.42299 2.423 8.74999 4 8.74999C4.414 8.74999 4.75 8.41399 4.75 7.99999C4.75 7.58599 4.414 7.24999 4 7.24999C1.582 7.24999 0.25 8.58199 0.25 11V16C0.25 18.418 1.582 19.75 4 19.75H16C18.418 19.75 19.75 18.418 19.75 16V11C19.75 8.58199 18.418 7.24999 16 7.24999Z" fill="#111111"/>
</svg>
