<svg width="65" height="55" viewBox="0 0 65 55" fill="none" xmlns="http://www.w3.org/2000/svg">
<path d="M42.0836 3.98682L3.956 3.9762C2.0475 3.9757 0.5 5.5227 0.5 7.4312V14.3691L1.659 16.9604L42.0848 16.9704L42.0836 3.98682Z" fill="#FFC250"/>
<path d="M53.1904 46.1775L53.1869 3.73377C53.1867 1.84439 51.6698 0.310268 49.7875 0.280518L42.9697 0.281393C42.3078 0.281536 41.6597 0.471849 41.1028 0.829691C40.5458 1.18753 40.1034 1.69784 39.8281 2.29989L36.8129 8.89564C36.5376 9.49781 36.0951 10.0082 35.538 10.3661C34.9809 10.7239 34.3327 10.9142 33.6706 10.9141H3.955C2.04687 10.9141 0.5 12.461 0.5 14.3691V46.1933C0.5 48.1018 2.0475 49.6489 3.956 49.6483L49.7364 49.6329C51.6442 49.6323 53.1906 48.0854 53.1904 46.1775Z" fill="#FFE07D"/>
<path d="M60.1168 3.7338C60.1167 1.82555 58.5695 0.278803 56.6612 0.279053L48.3285 0.280428C50.2107 0.310178 51.7277 1.8443 51.7278 3.73368L51.7313 46.1774C51.7315 48.0853 50.1852 49.6322 48.2773 49.6327H56.6662C58.5741 49.6321 60.1203 48.0853 60.1202 46.1774L60.1168 3.7338Z" fill="#FFD064"/>
<path d="M56.797 40.6971C56.797 34.5866 53.1163 29.3516 47.8863 27.1531C47.675 27.3996 47.5589 27.7137 47.5592 28.0385C47.5592 28.6226 47.188 29.1435 46.6347 29.3303C46.1287 29.5012 45.6347 29.7059 45.1562 29.9431C44.9004 30.0696 44.6114 30.1127 44.3298 30.0664C44.0482 30.02 43.7882 29.8865 43.5865 29.6846L43.5862 29.6842C43.0529 29.151 42.1883 29.151 41.655 29.6842L39.4624 31.8769C38.9292 32.4102 38.9292 33.2748 39.4624 33.8081L39.4628 33.8084C39.6647 34.0101 39.7982 34.2701 39.8446 34.5517C39.891 34.8333 39.8478 35.1223 39.7213 35.3781C39.4842 35.8566 39.2795 36.3506 39.1085 36.8566C38.9217 37.4101 38.4008 37.7811 37.8167 37.7811C37.0625 37.7811 36.4512 38.3925 36.4512 39.1466V42.2475C36.4512 43.0016 37.0625 43.6129 37.8167 43.6129C38.4008 43.6129 38.9217 43.9841 39.1085 44.5374C39.2795 45.0434 39.4842 45.5374 39.7213 46.0159C39.8479 46.2717 39.891 46.5608 39.8446 46.8424C39.7982 47.1239 39.6647 47.3839 39.4628 47.5856L39.4624 47.5859C38.9292 48.1192 38.9292 48.9838 39.4624 49.5171L41.655 51.7097C42.1883 52.243 43.0529 52.243 43.5862 51.7097L43.5865 51.7093C43.7882 51.5074 44.0482 51.3739 44.3298 51.3275C44.6114 51.2812 44.9004 51.3243 45.1562 51.4508C45.6347 51.688 46.1287 51.8927 46.6347 52.0636C47.188 52.2505 47.5592 52.7713 47.5592 53.3554C47.5592 53.4341 47.574 53.6618 47.5787 53.5859C47.58 53.5629 48.4615 53.9839 48.4615 53.9839C53.3842 51.6531 56.797 46.5809 56.797 40.6971ZM44.8524 40.6971C44.8524 37.5917 47.3698 35.0743 50.4752 35.0743C53.5805 35.0743 56.0979 37.5917 56.0979 40.6971C56.0979 43.8024 53.5805 46.3198 50.4752 46.3198C47.3698 46.3198 44.8524 43.8024 44.8524 40.6971Z" fill="#4073C8"/>
<path d="M50.4763 46.32C47.3709 46.32 44.8535 43.8026 44.8535 40.6972C44.8535 37.5918 47.3709 35.0745 50.4763 35.0745C53.5816 35.0745 56.099 37.5918 56.099 40.6972C56.099 43.8026 53.5816 46.32 50.4763 46.32Z" fill="#F2F9FF"/>
<path d="M63.1337 37.7812C62.5496 37.7812 62.0287 37.4101 61.8418 36.8567C61.6709 36.3507 61.4662 35.8568 61.2291 35.3782C61.1025 35.1224 61.0594 34.8334 61.1058 34.5518C61.1522 34.2702 61.2857 34.0103 61.4876 33.8086L61.488 33.8082C62.0212 33.275 62.0212 32.4103 61.488 31.8771L59.2952 29.6843C58.762 29.1511 57.8973 29.1511 57.3641 29.6843L57.3637 29.6847C57.162 29.8866 56.9021 30.0201 56.6205 30.0665C56.3389 30.1129 56.0499 30.0698 55.7941 29.9432C55.3155 29.7061 54.8216 29.5014 54.3156 29.3305C53.7622 29.1436 53.3911 28.6227 53.3911 28.0386C53.3911 27.2845 52.7797 26.6731 52.0256 26.6731H48.9247C48.2492 26.6731 47.6897 27.1641 47.5801 27.8083C52.5767 29.8832 56.098 34.8718 56.098 40.6971C56.098 46.5223 52.5767 51.511 47.5801 53.5858C47.6897 54.2301 48.2492 54.7211 48.9247 54.7211H52.0256C52.7797 54.7211 53.3911 54.1097 53.3911 53.3556C53.3911 52.7715 53.7622 52.2506 54.3156 52.0637C54.8216 51.8928 55.3155 51.6881 55.7941 51.451C56.0499 51.3244 56.3389 51.2813 56.6205 51.3277C56.9021 51.3741 57.162 51.5076 57.3637 51.7095L57.3641 51.7098C57.8973 52.2431 58.762 52.2431 59.2952 51.7098L61.488 49.5172C62.0212 48.984 62.0212 48.1193 61.488 47.5861L61.4876 47.5857C61.2857 47.384 61.1521 47.1241 61.1058 46.8425C61.0594 46.5609 61.1025 46.2719 61.2291 46.0161C61.4662 45.5375 61.6709 45.0436 61.8418 44.5376C62.0287 43.9842 62.5496 43.6131 63.1337 43.6131C63.8878 43.6131 64.4992 43.0017 64.4992 42.2476V39.1467C64.4992 38.3926 63.8878 37.7812 63.1337 37.7812Z" fill="#3B66C1"/>
<path d="M18.2152 23.8854H7.5302C7.27407 23.8854 7.02843 23.7837 6.84731 23.6026C6.6662 23.4215 6.56445 23.1758 6.56445 22.9197C6.56445 22.6636 6.6662 22.4179 6.84731 22.2368C7.02843 22.0557 7.27407 21.9539 7.5302 21.9539H18.2152C18.4713 21.9539 18.717 22.0557 18.8981 22.2368C19.0792 22.4179 19.181 22.6636 19.181 22.9197C19.181 23.1758 19.0792 23.4215 18.8981 23.6026C18.717 23.7837 18.4713 23.8854 18.2152 23.8854ZM18.2152 19.0851H7.5302C7.27407 19.0851 7.02843 18.9833 6.84731 18.8022C6.6662 18.6211 6.56445 18.3754 6.56445 18.1193C6.56445 17.8632 6.6662 17.6175 6.84731 17.4364C7.02843 17.2553 7.27407 17.1536 7.5302 17.1536H18.2152C18.4713 17.1536 18.717 17.2553 18.8981 17.4364C19.0792 17.6175 19.181 17.8632 19.181 18.1193C19.181 18.3754 19.0792 18.6211 18.8981 18.8022C18.717 18.9833 18.4713 19.0851 18.2152 19.0851Z" fill="#CC9675"/>
<path d="M50.4756 47.093C46.9491 47.093 44.0801 44.224 44.0801 40.6975C44.0801 37.171 46.9491 34.302 50.4756 34.302C54.0021 34.302 56.8711 37.171 56.8711 40.6975C56.8711 44.224 54.0021 47.093 50.4756 47.093ZM50.4756 36.177C47.983 36.177 45.9551 38.2049 45.9551 40.6975C45.9551 43.1901 47.983 45.218 50.4756 45.218C52.9682 45.218 54.9961 43.1901 54.9961 40.6975C54.9961 38.2049 52.9682 36.177 50.4756 36.177Z" fill="#9DC6FB"/>
</svg>
