<svg width="65" height="65" viewBox="0 0 65 65" fill="none" xmlns="http://www.w3.org/2000/svg">
<path d="M64.5 32.5C64.5 39.9075 61.9825 46.7275 57.7575 52.15C56.3668 53.9347 54.7918 55.5679 53.0588 57.0225C47.4975 61.6888 40.3275 64.5 32.5 64.5C24.6737 64.5 17.5025 61.69 11.9412 57.0225C11.0225 56.2525 14.4066 52.2458 13.5804 51.3783C12.8491 50.6095 14.2341 52.217 13.5804 51.3783C12.8329 50.4183 14.2166 52.422 13.5804 51.3783C12.5279 49.6545 3.2175 45.5875 2.50375 43.6675C1.2075 40.1912 0.5 36.4275 0.5 32.5C0.5 28.5725 1.2075 24.8088 2.50375 21.3325C3.2175 19.4137 4.11125 17.5825 5.16375 15.8575C5.8 14.815 6.49375 13.8112 7.2425 12.8512C7.46 12.5712 7.6825 12.295 7.91 12.0225C8.245 11.62 8.58875 11.2275 8.9425 10.8425C14.7913 4.48375 23.18 0.5 32.5 0.5C42.3838 0.5 51.2212 4.98125 57.09 12.0225C57.3175 12.2937 57.54 12.57 57.7575 12.85C61.9825 18.2725 64.5 25.0925 64.5 32.5Z" fill="#A185D6"/>
<path d="M16.1017 14.0739C13.1355 14.0739 10.7227 11.6609 10.7227 8.69492C10.7227 5.72892 13.1357 3.31592 16.1017 3.31592C19.0677 3.31592 21.4808 5.72892 21.4808 8.69492C21.4808 11.6609 19.0678 14.0739 16.1017 14.0739ZM16.1017 5.81579C14.5142 5.81579 13.2227 7.10729 13.2227 8.69479C13.2227 10.2823 14.5142 11.5738 16.1017 11.5738C17.6892 11.5738 18.9808 10.2823 18.9808 8.69479C18.9808 7.10729 17.6892 5.81579 16.1017 5.81579ZM48.8985 14.0739C45.9324 14.0739 43.5195 11.6609 43.5195 8.69492C43.5195 5.72892 45.9325 3.31592 48.8985 3.31592C51.8645 3.31592 54.2777 5.72879 54.2777 8.69492C54.2777 11.661 51.8647 14.0739 48.8985 14.0739ZM48.8985 5.81579C47.311 5.81579 46.0195 7.10729 46.0195 8.69479C46.0195 10.2823 47.311 11.5738 48.8985 11.5738C50.486 11.5738 51.7777 10.2823 51.7777 8.69479C51.7777 7.10729 50.486 5.81579 48.8985 5.81579Z" fill="#413D44"/>
<path d="M57.7572 12.0225V57.0225H11.9409C11.0223 56.2521 10.1476 55.4308 9.32094 54.5625C8.58969 53.7937 7.89594 52.9887 7.24219 52.15V12.0225H57.7572Z" fill="#D63C56"/>
<path d="M15.3282 51.7754H49.6725C51.0544 51.7754 52.1747 52.8956 52.1747 54.2775V57.0226H12.8262V54.2775C12.8262 52.8956 13.9463 51.7754 15.3282 51.7754Z" fill="#E54559"/>
<path d="M9.32141 12.0226V54.5626C6.36641 51.4576 4.02766 47.7613 2.50391 43.6676V12.0226C2.50391 10.9038 3.41141 9.99756 4.52891 9.99756H7.29641C7.97516 9.99756 8.57516 10.3313 8.94266 10.8426C9.18141 11.1751 9.32141 11.5813 9.32141 12.0226Z" fill="#FC5965"/>
<path d="M7.18891 9.99756C6.07016 9.99756 5.16391 10.9038 5.16391 12.0226V49.1426C4.10369 47.4071 3.21292 45.5736 2.50391 43.6676V12.0226C2.50391 10.9038 3.41016 9.99756 4.52891 9.99756H7.18891Z" fill="#E54559"/>
<path d="M60.4721 59.0473H57.7043C56.5861 59.0473 55.6797 58.1408 55.6797 57.0227V12.0222C55.6797 10.9039 56.5862 9.99756 57.7043 9.99756H60.4721C61.5903 9.99756 62.4967 10.9041 62.4967 12.0222V57.0227C62.4968 58.1408 61.5903 59.0473 60.4721 59.0473Z" fill="#FC5965"/>
<path d="M60.3647 59.0476H57.7047C56.5859 59.0476 55.6797 58.1413 55.6797 57.0226V12.0226C55.6797 10.9038 56.5859 9.99756 57.7047 9.99756H60.3647C59.2459 9.99756 58.3397 10.9038 58.3397 12.0226V57.0226C58.3397 58.1413 59.2459 59.0476 60.3647 59.0476Z" fill="#E54559"/>
<path d="M17.8237 47.9903H14.454C13.227 47.9903 12.2324 46.9957 12.2324 45.7687V18.288C12.2324 17.061 13.227 16.0664 14.454 16.0664H17.8237C19.0507 16.0664 20.0453 17.061 20.0453 18.288V45.7687C20.0453 46.9957 19.0505 47.9903 17.8237 47.9903ZM28.7314 47.9903H25.3618C24.1348 47.9903 23.1402 46.9957 23.1402 45.7687V18.288C23.1402 17.061 24.1348 16.0664 25.3618 16.0664H28.7314C29.9584 16.0664 30.953 17.061 30.953 18.288V45.7687C30.953 46.9957 29.9584 47.9903 28.7314 47.9903ZM39.6393 47.9903H36.2697C35.0427 47.9903 34.048 46.9957 34.048 45.7687V18.288C34.048 17.061 35.0427 16.0664 36.2697 16.0664H39.6393C40.8663 16.0664 41.8609 17.061 41.8609 18.288V45.7687C41.8609 46.9957 40.8662 47.9903 39.6393 47.9903ZM50.547 47.9903H47.1774C45.9504 47.9903 44.9558 46.9957 44.9558 45.7687V18.288C44.9558 17.061 45.9504 16.0664 47.1774 16.0664H50.547C51.774 16.0664 52.7687 17.061 52.7687 18.288V45.7687C52.7687 46.9957 51.774 47.9903 50.547 47.9903Z" fill="#FC5965"/>
<path d="M47.6808 16.0662H50.547C51.7745 16.0662 52.7683 17.0599 52.7683 18.2874V45.7687C52.7683 46.9949 51.7745 47.9899 50.547 47.9899H47.6808C48.907 47.9899 49.902 46.9949 49.902 45.7687V18.2874C49.902 17.0599 48.907 16.0662 47.6808 16.0662ZM36.772 16.0662H39.6395C40.8658 16.0662 41.8608 17.0599 41.8608 18.2874V45.7687C41.8608 46.9949 40.8658 47.9899 39.6395 47.9899H36.772C37.9995 47.9899 38.9945 46.9949 38.9945 45.7687V18.2874C38.9945 17.0599 37.9995 16.0662 36.772 16.0662ZM25.8645 16.0662H28.732C29.9583 16.0662 30.9533 17.0599 30.9533 18.2874V45.7687C30.9533 46.9949 29.9583 47.9899 28.732 47.9899H25.8645C27.092 47.9899 28.0858 46.9949 28.0858 45.7687V18.2874C28.0858 17.0599 27.092 16.0662 25.8645 16.0662ZM14.957 16.0662H17.8233C19.0508 16.0662 20.0458 17.0599 20.0458 18.2874V45.7687C20.0458 46.9949 19.0508 47.9899 17.8233 47.9899H14.957C16.1845 47.9899 17.1783 46.9949 17.1783 45.7687V18.2874C17.1783 17.0599 16.1845 16.0662 14.957 16.0662Z" fill="#E54559"/>
<path d="M59.1208 31.3803L10.1842 44.4928C8.61869 44.9123 7.00956 43.9833 6.59019 42.4178L3.80581 32.0265C3.38631 30.461 4.31531 28.8518 5.88081 28.4325L54.8174 15.32C56.3829 14.9005 57.9921 15.8295 58.4114 17.395L61.1958 27.7865C61.6153 29.3518 60.6863 30.961 59.1208 31.3803Z" fill="#FCF8F2"/>
<path d="M12.1485 43.967L10.1847 44.4932C8.61845 44.9132 7.0097 43.9845 6.5897 42.4182L3.80595 32.027C3.38595 30.462 4.31595 28.852 5.88095 28.4332L7.1822 28.0845C6.66595 28.8132 6.46595 29.7582 6.71595 30.6882L9.6672 41.7045C9.9922 42.9156 10.9885 43.7682 12.1485 43.967Z" fill="#E0DDDA"/>
<path d="M11.7063 31.909C11.8252 31.8771 11.9367 31.8222 12.0344 31.7472C12.132 31.6723 12.214 31.5788 12.2755 31.4722C12.3371 31.3656 12.377 31.2478 12.3931 31.1258C12.4092 31.0037 12.401 30.8797 12.3692 30.7608C12.3373 30.6418 12.2823 30.5304 12.2074 30.4327C12.1324 30.335 12.0389 30.2531 11.9323 30.1915C11.8257 30.13 11.708 30.09 11.5859 30.074C11.4639 30.0579 11.3398 30.066 11.2209 30.0979L7.61866 31.0631C7.49974 31.095 7.38826 31.15 7.29059 31.2249C7.19292 31.2999 7.11096 31.3934 7.04941 31.5C6.98785 31.6066 6.94791 31.7243 6.93184 31.8464C6.91578 31.9684 6.92392 32.0925 6.95579 32.2114L9.24654 40.7605C9.27841 40.8794 9.33339 40.9909 9.40834 41.0886C9.48329 41.1863 9.57675 41.2682 9.68337 41.3298C9.79 41.3913 9.9077 41.4313 10.0298 41.4473C10.1518 41.4634 10.2759 41.4553 10.3948 41.4234L13.997 40.4581C14.2372 40.3938 14.442 40.2366 14.5663 40.0213C14.6906 39.806 14.7243 39.5501 14.6599 39.3099C14.5955 39.0697 14.4384 38.865 14.2231 38.7406C14.0077 38.6163 13.7518 38.5827 13.5117 38.647L10.8149 39.3696L10.1548 36.9061L12.5859 36.2548C12.8261 36.1904 13.0308 36.0333 13.1552 35.8179C13.2795 35.6026 13.3132 35.3467 13.2488 35.1065C13.1844 34.8663 13.0273 34.6616 12.8119 34.5373C12.5966 34.413 12.3407 34.3793 12.1005 34.4436L9.66941 35.095L9.00929 32.6315L11.7063 31.909ZM19.6003 33.0346L21.1222 28.8901C21.1657 28.7743 21.186 28.651 21.1817 28.5274C21.1774 28.4037 21.1486 28.2821 21.0971 28.1696C21.0456 28.0571 20.9723 27.9559 20.8815 27.8718C20.7907 27.7878 20.6841 27.7226 20.5679 27.6799C20.4518 27.6372 20.3283 27.618 20.2047 27.6233C20.0811 27.6286 19.9597 27.6583 19.8476 27.7107C19.7355 27.7631 19.6349 27.8372 19.5516 27.9287C19.4683 28.0202 19.4039 28.1273 19.3622 28.2438L18.0718 31.7579L15.2007 29.3594C15.0097 29.2016 14.7639 29.1258 14.5172 29.1486C14.2705 29.1714 14.0428 29.2909 13.884 29.4811C13.7251 29.6712 13.648 29.9166 13.6695 30.1634C13.691 30.4102 13.8094 30.6385 13.9987 30.7984L17.3853 33.6275L15.5959 38.5005C15.5523 38.6163 15.5321 38.7396 15.5364 38.8633C15.5407 38.987 15.5694 39.1086 15.621 39.2211C15.6725 39.3336 15.7458 39.4348 15.8366 39.5188C15.9274 39.6029 16.034 39.6681 16.1501 39.7108C16.2663 39.7534 16.3897 39.7727 16.5134 39.7674C16.637 39.7621 16.7584 39.7324 16.8705 39.68C16.9826 39.6275 17.0832 39.5534 17.1665 39.462C17.2498 39.3705 17.3142 39.2634 17.3559 39.1469L18.9138 34.9044L22.3802 37.8001C22.4956 37.8967 22.6327 37.9641 22.7797 37.9964C22.9267 38.0288 23.0793 38.0252 23.2247 37.986C23.3904 37.9414 23.5407 37.8522 23.6592 37.7281C23.7777 37.604 23.8599 37.4497 23.8968 37.2821C23.9337 37.1145 23.9238 36.94 23.8684 36.7776C23.8129 36.6152 23.7139 36.4712 23.5822 36.3611L19.6003 33.0346ZM54.6045 18.3889L49.8397 19.6656C49.7207 19.6975 49.6093 19.7525 49.5116 19.8274C49.4139 19.9024 49.332 19.9959 49.2704 20.1025C49.2089 20.2091 49.1689 20.3268 49.1528 20.4489C49.1368 20.5709 49.1449 20.695 49.1768 20.8139C49.2087 20.9328 49.2636 21.0443 49.3386 21.142C49.4135 21.2396 49.507 21.3216 49.6136 21.3831C49.7203 21.4447 49.838 21.4846 49.96 21.5007C50.0821 21.5168 50.2061 21.5086 50.325 21.4768L51.7923 21.0836L53.8615 28.806C53.8934 28.9249 53.9484 29.0364 54.0233 29.1341C54.0983 29.2318 54.1918 29.3137 54.2984 29.3753C54.405 29.4368 54.5227 29.4768 54.6448 29.4928C54.7668 29.5089 54.8909 29.5008 55.0098 29.4689C55.1287 29.437 55.2402 29.382 55.3379 29.3071C55.4355 29.2321 55.5175 29.1387 55.579 29.0321C55.6406 28.9254 55.6805 28.8077 55.6966 28.6857C55.7127 28.5636 55.7045 28.4396 55.6727 28.3206L53.6034 20.5983L55.0899 20.2C55.3301 20.1357 55.5348 19.9785 55.6592 19.7632C55.7835 19.5478 55.8172 19.2919 55.7528 19.0518C55.6884 18.8116 55.5313 18.6068 55.3159 18.4825C55.1006 18.3582 54.8447 18.3245 54.6045 18.3889ZM49.1437 23.226C48.6785 21.4903 46.8312 20.4718 45.0254 20.9556L42.7327 21.57C42.6135 21.6019 42.5017 21.657 42.4039 21.7322C42.306 21.8073 42.224 21.9011 42.1625 22.008C42.101 22.115 42.0612 22.233 42.0454 22.3554C42.0296 22.4778 42.0382 22.6021 42.0705 22.7211L44.3788 31.3469C44.4107 31.4658 44.4656 31.5773 44.5406 31.675C44.6155 31.7726 44.709 31.8546 44.8156 31.9161C44.9223 31.9777 45.04 32.0176 45.162 32.0337C45.2841 32.0498 45.4081 32.0416 45.527 32.0098C45.646 31.9779 45.7574 31.9229 45.8551 31.848C45.9528 31.773 46.0347 31.6796 46.0963 31.5729C46.1578 31.4663 46.1978 31.3486 46.2139 31.2265C46.2299 31.1045 46.2218 30.9804 46.1899 30.8615L45.4127 27.961L49.4297 30.6346C49.5405 30.7086 49.6659 30.758 49.7974 30.7796C49.9289 30.8011 50.0635 30.7943 50.1922 30.7596C50.3663 30.7129 50.5233 30.6169 50.6442 30.4832C50.7652 30.3495 50.8451 30.1838 50.8742 30.0059C50.9034 29.8279 50.8806 29.6454 50.8087 29.4801C50.7367 29.3147 50.6186 29.1737 50.4685 29.0738L47.3624 27.0064C48.7694 26.3109 49.5499 24.7419 49.1437 23.226ZM46.2272 25.4403C45.909 25.5255 45.3414 25.6803 44.8522 25.814C44.7209 25.3344 44.2625 23.6398 44.1264 23.1376L45.5108 22.7666C46.3042 22.554 47.1384 22.9866 47.3325 23.7113C47.5268 24.4359 47.0205 25.2276 46.2272 25.4403ZM26.4389 25.9359L24.0365 26.5796C23.9174 26.6116 23.8057 26.6667 23.7079 26.7419C23.6101 26.8171 23.5281 26.9108 23.4666 27.0178C23.4051 27.1247 23.3653 27.2427 23.3494 27.3651C23.3336 27.4874 23.3421 27.6117 23.3744 27.7308L25.6855 36.3558C25.7499 36.5959 25.907 36.8007 26.1224 36.925C26.3377 37.0493 26.5936 37.083 26.8338 37.0186C27.074 36.9543 27.2787 36.7971 27.403 36.5818C27.5273 36.3665 27.561 36.1106 27.4967 35.8704L26.7338 33.0233C27.2572 32.88 27.8839 32.709 28.2292 32.6165C30.0973 32.1159 31.2157 30.2101 30.7222 28.3683C30.2284 26.5265 28.307 25.4353 26.4389 25.9359ZM27.7437 30.8055C27.2488 30.939 26.7542 31.0735 26.2599 31.209C26.1129 30.6711 25.5824 28.7096 25.4299 28.1473L26.924 27.7469C27.7788 27.5179 28.6887 28.0246 28.9108 28.8536C29.1329 29.6826 28.5984 30.5765 27.7437 30.8055ZM35.9027 23.4001C33.0245 24.1713 31.3105 27.1401 32.0817 30.0183C32.8528 32.8963 35.8217 34.6104 38.6998 33.8391C41.5779 33.068 43.2919 30.0991 42.5208 27.221C41.7495 24.343 38.7807 22.6289 35.9027 23.4001ZM38.2144 32.028C36.335 32.5316 34.3963 31.4123 33.8927 29.5329C33.389 27.6534 34.5084 25.7148 36.3878 25.2111C38.2672 24.7075 40.2059 25.8269 40.7095 27.7063C41.2132 29.5858 40.0938 31.5245 38.2144 32.028Z" fill="#434C54"/>
</svg>
