<svg width="65" height="58" viewBox="0 0 65 58" fill="none" xmlns="http://www.w3.org/2000/svg">
<path d="M10.2985 16.8259H35.7902C41.2017 16.8259 45.5887 21.2128 45.5887 26.6244V39.3479C45.5887 44.7594 41.2019 49.1464 35.7902 49.1464H22.9804L16.8484 56.1533C15.0295 58.2316 11.6064 56.9453 11.6064 54.1834V49.1464H10.2985C4.88688 49.1464 0.5 44.7596 0.5 39.3479V26.6244C0.5 21.2129 4.88688 16.8259 10.2985 16.8259Z" fill="#B3E59F"/>
<path d="M16.7318 56.2803C14.8864 58.1758 11.6066 56.8868 11.6066 54.1839V49.1463H10.2984C4.88725 49.1463 0.5 44.7589 0.5 39.3479V26.6239C0.5 21.2129 4.88725 16.8256 10.2984 16.8256H14.5763C9.16388 16.8256 4.77787 21.2128 4.77787 26.6239V39.3479C4.77787 44.7589 9.16388 49.1462 14.5763 49.1462H15.8846V54.1838C15.8845 55.0453 16.218 55.7639 16.7318 56.2803Z" fill="#95D6A4"/>
<path d="M54.7024 0.819702H29.2106C23.7991 0.819702 19.4121 5.20658 19.4121 10.6182V23.3417C19.4121 28.7532 23.799 33.1402 29.2106 33.1402H42.0204L48.1524 40.1471C49.9712 42.2253 53.3944 40.9391 53.3944 38.1772V33.1402H54.7022C60.1137 33.1402 64.5007 28.7533 64.5007 23.3417V10.6182C64.5009 5.2067 60.114 0.819702 54.7024 0.819702Z" fill="#F9F6F9"/>
<path d="M33.8669 33.14H29.2104C23.7994 33.14 19.4121 28.7527 19.4121 23.3417V10.6176C19.4121 5.20659 23.7994 0.819214 29.2104 0.819214H33.8669C28.4559 0.819214 24.0685 5.20646 24.0685 10.6176V23.3416C24.0686 28.7527 28.4559 33.14 33.8669 33.14Z" fill="#DDDAEC"/>
<path d="M18.5263 38.5403C18.2702 38.5403 18.0245 38.4386 17.8434 38.2575C17.6623 38.0764 17.5605 37.8307 17.5605 37.5746V37.514C17.5605 37.2578 17.6623 37.0122 17.8434 36.8311C18.0245 36.65 18.2702 36.5482 18.5263 36.5482C18.7824 36.5482 19.0281 36.65 19.2092 36.8311C19.3903 37.0122 19.492 37.2578 19.492 37.514V37.5746C19.492 37.8307 19.3903 38.0764 19.2092 38.2575C19.0281 38.4386 18.7824 38.5403 18.5263 38.5403ZM23.1823 38.5403C22.9262 38.5403 22.6805 38.4386 22.4994 38.2575C22.3183 38.0764 22.2165 37.8307 22.2165 37.5746V37.514C22.2165 37.2578 22.3183 37.0122 22.4994 36.8311C22.6805 36.65 22.9262 36.5482 23.1823 36.5482C23.4384 36.5482 23.6841 36.65 23.8652 36.8311C24.0463 37.0122 24.148 37.2578 24.148 37.514V37.5746C24.1481 37.7014 24.1231 37.827 24.0746 37.9442C24.026 38.0614 23.9549 38.1678 23.8652 38.2575C23.7755 38.3472 23.6691 38.4183 23.5519 38.4669C23.4347 38.5154 23.3091 38.5404 23.1823 38.5403ZM27.564 38.5403C27.3079 38.5403 27.0623 38.4386 26.8812 38.2575C26.7 38.0764 26.5983 37.8307 26.5983 37.5746V37.514C26.5983 37.2578 26.7 37.0122 26.8812 36.8311C27.0623 36.65 27.3079 36.5482 27.564 36.5482C27.8202 36.5482 28.0658 36.65 28.2469 36.8311C28.428 37.0122 28.5298 37.2578 28.5298 37.514V37.5746C28.5298 37.8307 28.428 38.0764 28.2469 38.2575C28.0658 38.4386 27.8202 38.5403 27.564 38.5403Z" fill="#5E54AC"/>
<path d="M52.1355 18.7886L50.8028 18.0199C50.835 17.7146 50.8504 17.4056 50.8504 17.094C50.8508 16.7848 50.8349 16.4757 50.8028 16.1681L52.1355 15.3981C53.1464 14.8147 53.4915 13.5232 52.9082 12.5122L51.3989 9.8995C50.8155 8.88862 49.524 8.54225 48.5144 9.12562L47.1817 9.89562C46.6812 9.53095 46.1438 9.21975 45.5784 8.96712V7.43087C45.5784 6.26425 44.6319 5.31775 43.4653 5.31775H40.4469C39.2803 5.31775 38.335 6.26425 38.335 7.43087V8.96712C37.7696 9.21965 37.2322 9.53086 36.7318 9.89562L35.399 9.12562C34.3882 8.54225 33.0965 8.88862 32.5133 9.8995L31.004 12.5122C30.4207 13.5231 30.7672 14.8147 31.7779 15.3981L33.1094 16.1681C33.0779 16.4757 33.062 16.7848 33.0618 17.094C33.0618 17.4056 33.0785 17.7146 33.1094 18.0199L31.7779 18.7886C30.767 19.372 30.4207 20.6635 31.004 21.6745L32.5133 24.2886C33.0967 25.2981 34.3882 25.6446 35.399 25.0612L36.7318 24.2925C37.2326 24.6563 37.7699 24.9671 38.335 25.2197V26.7572C38.335 27.9239 39.2802 28.8691 40.4469 28.8691H43.4653C44.6319 28.8691 45.5784 27.924 45.5784 26.7572V25.2197C46.1435 24.9671 46.6808 24.6563 47.1817 24.2925L48.5144 25.0612C49.524 25.6445 50.8155 25.2981 51.3989 24.2886L52.9082 21.6745C53.4915 20.6636 53.1464 19.372 52.1355 18.7886ZM41.956 22.057C39.2158 22.057 36.9932 19.8344 36.9932 17.0941C36.9932 14.3525 39.2158 12.1312 41.956 12.1312C44.6977 12.1312 46.9189 14.3526 46.9189 17.0941C46.9189 19.8342 44.6977 22.057 41.956 22.057Z" fill="#6B61B1"/>
<path d="M34.0019 24.2882L32.4926 21.6744C31.9093 20.6641 32.2558 19.3719 33.266 18.7885L34.5985 18.0194C34.5668 17.7151 34.5506 17.4062 34.5506 17.0935C34.5506 16.7807 34.5668 16.4717 34.5985 16.1676L33.266 15.3985C32.2558 14.8151 31.9094 13.523 32.4926 12.5126L34.0019 9.89874C34.2456 9.47515 34.6293 9.14965 35.0869 8.97811C34.1361 8.61874 33.038 8.98986 32.5133 9.89874L31.004 12.5126C30.4206 13.5229 30.7671 14.8151 31.7774 15.3985L33.1099 16.1676C33.0781 16.4719 33.062 16.7807 33.062 17.0935C33.062 17.4062 33.0781 17.7152 33.1099 18.0194L31.7774 18.7885C30.7671 19.3719 30.4208 20.664 31.004 21.6744L32.5133 24.2882C33.038 25.1971 34.1361 25.5682 35.0869 25.2089C34.6292 25.0374 34.2456 24.7119 34.0019 24.2882ZM41.9355 28.8691H40.4471C39.2805 28.8691 38.3346 27.9232 38.3346 26.7566V25.2194C37.7694 24.9669 37.2321 24.6561 36.7315 24.292L37.5238 23.8347C38.0218 24.1967 39.2548 24.9659 39.8229 25.2194V26.7566C39.8231 27.9232 40.7689 28.8691 41.9355 28.8691ZM41.9355 5.31824H40.4471C39.2805 5.31824 38.3346 6.26411 38.3346 7.43074V8.96799C37.7694 9.22045 37.2321 9.53126 36.7315 9.89536L37.5238 10.3526C38.0218 9.99061 39.2548 9.22149 39.8229 8.96799V7.43074C39.8231 6.26399 40.7689 5.31824 41.9355 5.31824Z" fill="#5E54AC"/>
</svg>
