<svg width="56" height="64" viewBox="0 0 56 64" fill="none" xmlns="http://www.w3.org/2000/svg">
<path d="M54.4283 23.5643L49.5022 22.7945C48.961 20.5465 48.0686 18.3978 46.8578 16.4279L49.8016 12.3939C50.0575 12.0431 50.1797 11.6123 50.1461 11.1794C50.1125 10.7464 49.9253 10.3397 49.6182 10.0326L45.9357 6.35012C45.6286 6.04304 45.2219 5.8558 44.789 5.82218C44.356 5.78855 43.9253 5.91076 43.5745 6.16675L39.5406 9.11038C37.5706 7.8996 35.422 7.00717 33.174 6.466L32.4042 1.53988C32.3371 1.11082 32.1189 0.719865 31.7889 0.437514C31.459 0.155163 31.039 -2.35908e-06 30.6047 0L25.3968 0C24.9626 6.60001e-06 24.5426 0.155194 24.2126 0.437572C23.8827 0.719951 23.6645 1.11093 23.5975 1.54L22.8277 6.46613C20.5797 7.00735 18.431 7.89978 16.4611 9.1105L12.4272 6.16687C12.0764 5.91088 11.6457 5.78868 11.2127 5.8223C10.7797 5.85593 10.373 6.04317 10.066 6.35025L6.38345 10.0328C6.07639 10.3398 5.88917 10.7465 5.85555 11.1795C5.82192 11.6125 5.94411 12.0432 6.20008 12.394L9.1437 16.428C7.93293 18.3979 7.0405 20.5466 6.49933 22.7946L1.5732 23.5644C1.14416 23.6314 0.753192 23.8496 0.470816 24.1795C0.18844 24.5094 0.0332395 24.9294 0.0332031 25.3636V30.5715C0.0331885 31.0058 0.188371 31.4257 0.470756 31.7557C0.753141 32.0856 1.14413 32.3037 1.5732 32.3708L6.49933 33.1405C7.04056 35.3885 7.93298 37.5372 9.1437 39.5071L6.20008 43.541C5.94409 43.8918 5.82188 44.3225 5.85551 44.7555C5.88913 45.1885 6.07637 45.5952 6.38345 45.9022L10.066 49.5848C10.373 49.8918 10.7797 50.0791 11.2127 50.1127C11.6457 50.1463 12.0764 50.0241 12.4272 49.7681L16.4611 46.8245C18.431 48.0353 20.5796 48.9277 22.8277 49.4689L23.5975 54.395C23.6645 54.8241 23.8827 55.215 24.2126 55.4974C24.5426 55.7798 24.9626 55.935 25.3968 55.935H30.6047C31.039 55.935 31.459 55.7798 31.7889 55.4974C32.1188 55.215 32.337 54.8241 32.4041 54.395L33.1738 49.4689C35.4219 48.9276 37.5705 48.0352 39.5405 46.8245L43.5743 49.7681C43.9251 50.0241 44.3559 50.1463 44.7888 50.1127C45.2218 50.0791 45.6285 49.8918 45.9356 49.5848L49.6181 45.9022C49.9251 45.5952 50.1124 45.1885 50.146 44.7555C50.1796 44.3225 50.0574 43.8918 49.8015 43.541L46.8577 39.5071C48.0685 37.5372 48.9609 35.3886 49.5021 33.1405L54.4282 32.3708C54.8573 32.3037 55.2482 32.0855 55.5306 31.7556C55.813 31.4257 55.9682 31.0058 55.9682 30.5715V25.3636C55.9683 24.9294 55.8131 24.5094 55.5307 24.1794C55.2484 23.8495 54.8574 23.6313 54.4283 23.5643ZM28.0008 44.0975C19.0925 44.0975 11.8707 36.8759 11.8707 27.9674C11.8707 19.0589 19.0925 11.8374 28.0008 11.8374C36.9092 11.8374 44.131 19.059 44.131 27.9675C44.131 36.876 36.9092 44.0975 28.0008 44.0975Z" fill="#528FD8"/>
<path d="M46.8572 39.5071C47.0075 39.2623 47.153 39.0147 47.2937 38.7642H43.8702C43.1518 38.7642 42.5694 38.1818 42.5694 37.4633V34.897C39.9772 40.3375 34.428 44.0976 28.0003 44.0976C21.5725 44.0976 16.0235 40.3375 13.4312 34.8971V37.4633C13.4312 38.1817 12.8488 38.7642 12.1303 38.7642H8.70678C8.84742 39.0147 8.99295 39.2623 9.14328 39.5071L6.19965 43.5411C5.94366 43.8919 5.82145 44.3226 5.85508 44.7556C5.8887 45.1886 6.07594 45.5953 6.38303 45.9023L10.0655 49.5849C10.3726 49.8919 10.7793 50.0792 11.2123 50.1128C11.6452 50.1464 12.076 50.0242 12.4268 49.7682L16.4607 46.8246C18.4306 48.0354 20.5792 48.9278 22.8273 49.469L23.597 54.3951C23.6641 54.8242 23.8823 55.2151 24.2122 55.4975C24.5421 55.7799 24.9621 55.9351 25.3964 55.9351H30.6043C31.0386 55.9351 31.4585 55.7799 31.7885 55.4975C32.1184 55.2151 32.3366 54.8242 32.4037 54.3951L33.1734 49.469C35.4214 48.9277 37.57 48.0353 39.54 46.8246L43.5739 49.7682C43.9247 50.0242 44.3554 50.1464 44.7884 50.1128C45.2214 50.0792 45.6281 49.8919 45.9352 49.5849L49.6177 45.9023C49.9247 45.5953 50.112 45.1886 50.1456 44.7556C50.1792 44.3226 50.057 43.8919 49.801 43.5411L46.8572 39.5071Z" fill="#0573CE"/>
<path d="M49.3338 43.916V62.7498C49.3338 63.4398 48.7738 63.9998 48.0838 63.9998H29.25C28.56 63.9998 28 63.4398 28 62.7498V43.916C28 43.226 28.56 42.666 29.25 42.666H35.8225L38.6662 44.896L41.5112 42.666H48.0838C48.7738 42.666 49.3338 43.226 49.3338 43.916Z" fill="#FED2A4"/>
<path d="M48.0832 42.6665H45.3296C45.6344 43.8531 45.785 45.074 45.7775 46.2991C45.7364 54.0571 39.3894 60.4036 31.6314 60.4441C30.4067 60.4514 29.1862 60.3009 28 59.9963V62.7499C28 63.4403 28.5596 63.9999 29.25 63.9999H48.0834C48.7737 63.9999 49.3334 63.4403 49.3334 62.7499V43.9165C49.3332 43.2261 48.7735 42.6665 48.0832 42.6665Z" fill="#FFBD86"/>
<path d="M40.1266 49.2008L39.0514 48.7528C38.9295 48.7019 38.7988 48.6758 38.6668 48.6758C38.5347 48.6758 38.404 48.7019 38.2821 48.7528L37.2069 49.2008C36.5481 49.4753 35.8223 48.9913 35.8223 48.2776V42.6665H41.5111V48.2776C41.5113 48.9913 40.7853 49.4751 40.1266 49.2008Z" fill="#EA9B58"/>
<path d="M38.6665 22.584V41.4165C38.6665 42.1077 38.1077 42.6665 37.4165 42.6665H18.584C17.8927 42.6665 17.334 42.1077 17.334 41.4165V22.584C17.334 21.8927 17.8927 21.334 18.584 21.334H25.1552L28.0002 22.699L30.8452 21.334H37.4165C38.1077 21.334 38.6665 21.8927 38.6665 22.584Z" fill="#FED2A4"/>
<path d="M37.4172 21.3334H34.6636C34.9684 22.52 35.1189 23.7409 35.1115 24.966C35.0704 32.724 28.7234 39.0705 20.9654 39.111C19.7407 39.1183 18.5202 38.9678 17.334 38.6631V41.4167C17.334 42.1071 17.8936 42.6667 18.584 42.6667H37.4174C38.1077 42.6667 38.6674 42.1071 38.6674 41.4167V22.5834C38.6672 21.893 38.1076 21.3334 37.4172 21.3334Z" fill="#FFBD86"/>
<path d="M29.4606 27.8675L28.3854 27.4195C28.2635 27.3687 28.1328 27.3425 28.0007 27.3425C27.8687 27.3425 27.738 27.3687 27.6161 27.4195L26.5409 27.8675C25.8821 28.142 25.1562 27.658 25.1562 26.9444V21.3333H30.8451V26.9444C30.8453 27.658 30.1192 28.142 29.4606 27.8675Z" fill="#EA9B58"/>
<path d="M28.0017 43.916V62.7498C28.0017 63.4398 27.4417 63.9998 26.7517 63.9998H7.91797C7.22797 63.9998 6.66797 63.4398 6.66797 62.7498V43.916C6.66797 43.226 7.22797 42.666 7.91797 42.666H14.4905L17.3355 44.896L20.1792 42.666H26.7517C27.4417 42.666 28.0017 43.226 28.0017 43.916Z" fill="#FED2A4"/>
<path d="M26.7513 42.6665H23.9977C24.3025 43.8531 24.453 45.074 24.4456 46.2991C24.4045 54.0571 18.0575 60.4036 10.2995 60.4441C9.07476 60.4514 7.85421 60.3009 6.66797 59.9963V62.7499C6.66797 63.4403 7.22759 63.9999 7.91797 63.9999H26.7513C27.4417 63.9999 28.0013 63.4403 28.0013 62.7499V43.9165C28.0013 43.2261 27.4417 42.6665 26.7513 42.6665Z" fill="#FFBD86"/>
<path d="M18.7946 49.2008L17.7194 48.7528C17.5975 48.7019 17.4668 48.6758 17.3347 48.6758C17.2027 48.6758 17.072 48.7019 16.9501 48.7528L15.8749 49.2008C15.2161 49.4753 14.4902 48.9913 14.4902 48.2776V42.6665H20.1791V48.2776C20.1792 48.9913 19.4534 49.4751 18.7946 49.2008Z" fill="#EA9B58"/>
<path d="M45.5412 57.7631H41.9857C41.4678 57.7631 41.0482 57.3434 41.0482 56.8256C41.0482 56.3077 41.4678 55.8881 41.9857 55.8881H45.5412C46.0591 55.8881 46.4787 56.3077 46.4787 56.8256C46.4787 57.3434 46.0591 57.7631 45.5412 57.7631ZM45.5412 61.1451H43.7633C43.2455 61.1451 42.8258 60.7254 42.8258 60.2076C42.8258 59.6897 43.2455 59.2701 43.7633 59.2701H45.5412C46.0591 59.2701 46.4787 59.6897 46.4787 60.2076C46.4787 60.7254 46.0591 61.1451 45.5412 61.1451ZM34.8745 36.4297H31.319C30.8011 36.4297 30.3815 36.0101 30.3815 35.4922C30.3815 34.9743 30.8011 34.5547 31.319 34.5547H34.8745C35.3923 34.5547 35.812 34.9743 35.812 35.4922C35.812 36.0101 35.3923 36.4297 34.8745 36.4297ZM34.8745 39.8117H33.0967C32.5788 39.8117 32.1592 39.3921 32.1592 38.8742C32.1592 38.3563 32.5788 37.9367 33.0967 37.9367H34.8745C35.3923 37.9367 35.812 38.3563 35.812 38.8742C35.812 39.3921 35.3923 39.8117 34.8745 39.8117ZM24.2078 57.7631H20.6523C20.1345 57.7631 19.7148 57.3434 19.7148 56.8256C19.7148 56.3077 20.1345 55.8881 20.6523 55.8881H24.2078C24.7257 55.8881 25.1453 56.3077 25.1453 56.8256C25.1453 57.3434 24.7257 57.7631 24.2078 57.7631ZM24.2078 61.1451H22.4301C21.9122 61.1451 21.4926 60.7254 21.4926 60.2076C21.4926 59.6897 21.9122 59.2701 22.4301 59.2701H24.2078C24.7257 59.2701 25.1453 59.6897 25.1453 60.2076C25.1453 60.7254 24.7257 61.1451 24.2078 61.1451Z" fill="#528FD8"/>
</svg>
