<svg width="59" height="65" viewBox="0 0 59 65" fill="none" xmlns="http://www.w3.org/2000/svg">
<path d="M34.7715 43.5266L37.5309 40.7672L52.3584 55.5947L49.599 58.3542L34.7715 43.5266Z" fill="#C4E2FF"/>
<path d="M53.5764 64.4997C56.2204 64.4997 58.3638 62.3563 58.3638 59.7123C58.3638 57.0683 56.2204 54.9249 53.5764 54.9249C50.9324 54.9249 48.7891 57.0683 48.7891 59.7123C48.7891 62.3563 50.9324 64.4997 53.5764 64.4997Z" fill="#60B7FF"/>
<path d="M5.42409 64.4997C8.06809 64.4997 10.2115 62.3563 10.2115 59.7123C10.2115 57.0683 8.06809 54.9249 5.42409 54.9249C2.7801 54.9249 0.636719 57.0683 0.636719 59.7123C0.636719 62.3563 2.7801 64.4997 5.42409 64.4997Z" fill="#60B7FF"/>
<path d="M34.7754 21.4764L49.6029 6.64893L52.3624 9.4083L37.5349 24.2358L34.7754 21.4764Z" fill="#C4E2FF"/>
<path d="M53.5764 10.0749C56.2204 10.0749 58.3638 7.93149 58.3638 5.2875C58.3638 2.6435 56.2204 0.500122 53.5764 0.500122C50.9324 0.500122 48.7891 2.6435 48.7891 5.2875C48.7891 7.93149 50.9324 10.0749 53.5764 10.0749Z" fill="#60B7FF"/>
<path d="M5.42409 10.0749C8.06809 10.0749 10.2115 7.93149 10.2115 5.2875C10.2115 2.6435 8.06809 0.500122 5.42409 0.500122C2.7801 0.500122 0.636719 2.6435 0.636719 5.2875C0.636719 7.93149 2.7801 10.0749 5.42409 10.0749Z" fill="#60B7FF"/>
<path d="M58.3638 59.7127C58.3638 62.3564 56.2211 64.5003 53.576 64.5003C53.0104 64.5003 52.4668 64.4024 51.9629 64.2221C53.813 63.5586 55.1363 61.7896 55.1363 59.7127C55.1363 57.6358 53.813 55.8668 51.9629 55.2033C52.4806 55.0184 53.0263 54.9242 53.576 54.9249C56.2211 54.9249 58.3638 57.0688 58.3638 59.7127Z" fill="#26A6FE"/>
<path d="M6.625 55.5918L21.4525 40.7643L24.212 43.5237L9.3845 58.3512L6.625 55.5918Z" fill="#D8ECFE"/>
<path d="M10.2113 59.7125C10.2113 62.3563 8.06867 64.5001 5.42492 64.5001C4.85805 64.5001 4.31567 64.4022 3.81055 64.2219C5.66067 63.5584 6.98392 61.7894 6.98392 59.7125C6.98392 57.6356 5.66067 55.8666 3.81055 55.2031C4.32867 55.0182 4.8748 54.9241 5.42492 54.9248C8.06867 54.9248 10.2113 57.0686 10.2113 59.7125ZM58.3627 5.28775C58.3627 7.9315 56.22 10.0755 53.5749 10.0755C53.0252 10.0762 52.4795 9.98206 51.9618 9.79713C53.8119 9.13363 55.1352 7.36463 55.1352 5.28775C55.1352 3.21088 53.8119 1.44188 51.9618 0.778376C52.4795 0.593555 53.0252 0.499425 53.5749 0.500126C56.22 0.500126 58.3627 2.644 58.3627 5.28775Z" fill="#26A6FE"/>
<path d="M6.62891 9.40513L9.38841 6.64563L24.2159 21.4731L21.4565 24.2326L6.62891 9.40513Z" fill="#D8ECFE"/>
<path d="M10.2113 5.28775C10.2113 7.9315 8.06867 10.0755 5.42492 10.0755C4.85805 10.0755 4.31567 9.97763 3.81055 9.79713C5.66067 9.13363 6.98392 7.36463 6.98392 5.28775C6.98392 3.21088 5.66067 1.44188 3.81055 0.778376C4.32868 0.593523 4.8748 0.499394 5.42492 0.500126C8.06867 0.500126 10.2113 2.644 10.2113 5.28775Z" fill="#26A6FE"/>
<path d="M29.5007 19.1533C29.2446 19.1533 28.9989 19.0516 28.8178 18.8705C28.6367 18.6894 28.5349 18.4437 28.5349 18.1876V8.4616C28.5349 8.20547 28.6367 7.95982 28.8178 7.77871C28.9989 7.5976 29.2446 7.49585 29.5007 7.49585C29.7568 7.49585 30.0025 7.5976 30.1836 7.77871C30.3647 7.95982 30.4664 8.20547 30.4664 8.4616V18.1876C30.4665 18.3144 30.4415 18.44 30.393 18.5572C30.3444 18.6744 30.2733 18.7808 30.1836 18.8705C30.0939 18.9602 29.9875 19.0313 29.8703 19.0799C29.7531 19.1284 29.6275 19.1534 29.5007 19.1533ZM29.5007 58.6068C29.2446 58.6068 28.9989 58.5051 28.8178 58.324C28.6367 58.1429 28.5349 57.8972 28.5349 57.6411V47.9151C28.5349 47.659 28.6367 47.4133 28.8178 47.2322C28.9989 47.0511 29.2446 46.9493 29.5007 46.9493C29.7568 46.9493 30.0025 47.0511 30.1836 47.2322C30.3647 47.4133 30.4664 47.659 30.4664 47.9151V57.6411C30.4665 57.7679 30.4415 57.8935 30.393 58.0107C30.3444 58.1279 30.2733 58.2343 30.1836 58.324C30.0939 58.4137 29.9875 58.4848 29.8703 58.5334C29.7531 58.5819 29.6275 58.6069 29.5007 58.6068ZM15.1839 34.1269H5.45794C5.2018 34.1269 4.95616 34.0251 4.77505 33.844C4.59394 33.6629 4.49219 33.4172 4.49219 33.1611C4.49219 32.905 4.59394 32.6593 4.77505 32.4782C4.95616 32.2971 5.2018 32.1953 5.45794 32.1953H15.1839C15.4401 32.1953 15.6857 32.2971 15.8668 32.4782C16.0479 32.6593 16.1497 32.905 16.1497 33.1611C16.1497 33.4172 16.0479 33.6629 15.8668 33.844C15.6857 34.0251 15.4401 34.1269 15.1839 34.1269ZM53.5434 34.1269H43.8174C43.5613 34.1269 43.3157 34.0251 43.1345 33.844C42.9534 33.6629 42.8517 33.4172 42.8517 33.1611C42.8517 32.905 42.9534 32.6593 43.1345 32.4782C43.3157 32.2971 43.5613 32.1953 43.8174 32.1953H53.5434C54.0769 32.1953 54.5092 32.6277 54.5092 33.1611C54.5092 33.6945 54.0769 34.1269 53.5434 34.1269Z" fill="#C4E2FF"/>
<path d="M33.0838 30.1696L29.9117 45.9889L29.4991 48.0471C29.2861 48.0471 29.073 47.9995 28.8765 47.9034L27.4212 47.198V47.197L15.9862 41.6501C15.7454 41.5331 15.5425 41.3506 15.4005 41.1237C15.2586 40.8967 15.1834 40.6343 15.1836 40.3666V25.8557C15.1836 25.5724 15.2673 25.3024 15.4163 25.0739L33.0838 30.1696Z" fill="#E5CAF3"/>
<path d="M29.9124 45.989L29.4998 48.0473C29.2868 48.0473 29.0736 47.9996 28.8771 47.9035L27.4219 47.1981V47.1971L29.9124 45.989Z" fill="#D9B1EE"/>
<path d="M43.5835 25.0743L37.3225 29.4851L29.4988 31.9092L15.416 25.0743C15.5573 24.8585 15.7545 24.685 15.9865 24.5722L28.8764 18.3182C29.0664 18.2262 29.2744 18.1774 29.4855 18.1755C29.6966 18.1735 29.9055 18.2184 30.0971 18.3068C30.1054 18.31 30.1138 18.3141 30.122 18.3182L43.013 24.5722C43.2451 24.6849 43.4423 24.8584 43.5835 25.0743Z" fill="#6C7FD8"/>
<path d="M38.8575 24.5719C39.0984 24.6888 39.3016 24.8713 39.4437 25.0984C39.5858 25.3254 39.6611 25.5879 39.661 25.8557V26.9777L41.2771 26.6992L43.5842 25.074C43.443 24.8581 43.2458 24.6846 43.0138 24.5719L30.1228 18.3179C30.1147 18.3137 30.1064 18.3099 30.0979 18.3065C29.9062 18.218 29.6973 18.1731 29.4862 18.1751C29.2751 18.1771 29.0671 18.2258 28.8771 18.3179L27.4219 19.0239L38.8575 24.5719Z" fill="#4F66D0"/>
<path d="M43.8177 40.3659C43.8177 40.9127 43.5061 41.4117 43.0142 41.6498L29.5 46.189V31.9087L39.6616 26.9777L43.8177 40.3659Z" fill="#CB97E7"/>
<path d="M43.5852 25.0743L39.662 26.9781V40.3665C39.662 40.9132 39.3504 41.4122 38.8585 41.6503L29.5004 46.1896V48.0472C29.7165 48.0474 29.9297 47.9982 30.1238 47.9033L43.0147 41.6503C43.2557 41.5334 43.4589 41.351 43.601 41.1239C43.7431 40.8968 43.8184 40.6343 43.8182 40.3665V25.856C43.8182 25.5723 43.7343 25.3021 43.5852 25.0743ZM19.2269 39.115C19.0212 39.115 18.8239 39.0332 18.6784 38.8878C18.5329 38.7423 18.4512 38.545 18.4512 38.3392V35.5133C18.4512 35.3076 18.5329 35.1103 18.6784 34.9648C18.8239 34.8193 19.0212 34.7376 19.2269 34.7376C19.4327 34.7376 19.63 34.8193 19.7755 34.9648C19.9209 35.1103 20.0027 35.3076 20.0027 35.5133V38.3392C20.0026 38.5449 19.9209 38.7422 19.7754 38.8877C19.6299 39.0332 19.4327 39.1149 19.2269 39.115Z" fill="#BD80E1"/>
<path d="M19.2269 33.1102C19.6554 33.1102 20.0027 32.7629 20.0027 32.3345C20.0027 31.906 19.6554 31.5587 19.2269 31.5587C18.7985 31.5587 18.4512 31.906 18.4512 32.3345C18.4512 32.7629 18.7985 33.1102 19.2269 33.1102Z" fill="#CB97E7"/>
<path d="M29.5005 8.4616C30.9666 8.4616 32.1552 7.27303 32.1552 5.80685C32.1552 4.34067 30.9666 3.1521 29.5005 3.1521C28.0343 3.1521 26.8457 4.34067 26.8457 5.80685C26.8457 7.27303 28.0343 8.4616 29.5005 8.4616Z" fill="#60B7FF"/>
<path d="M29.5005 62.9505C30.9666 62.9505 32.1552 61.7619 32.1552 60.2957C32.1552 58.8296 30.9666 57.641 29.5005 57.641C28.0343 57.641 26.8457 58.8296 26.8457 60.2957C26.8457 61.7619 28.0343 62.9505 29.5005 62.9505Z" fill="#60B7FF"/>
<path d="M2.80319 35.8158C4.26937 35.8158 5.45794 34.6273 5.45794 33.1611C5.45794 31.6949 4.26937 30.5063 2.80319 30.5063C1.33701 30.5063 0.148438 31.6949 0.148438 33.1611C0.148438 34.6273 1.33701 35.8158 2.80319 35.8158Z" fill="#60B7FF"/>
<path d="M56.1977 35.8158C57.6639 35.8158 58.8525 34.6273 58.8525 33.1611C58.8525 31.6949 57.6639 30.5063 56.1977 30.5063C54.7315 30.5063 53.543 31.6949 53.543 33.1611C53.543 34.6273 54.7315 35.8158 56.1977 35.8158Z" fill="#60B7FF"/>
</svg>
