<svg width="26" height="28" viewBox="0 0 26 28" fill="none" xmlns="http://www.w3.org/2000/svg">
<path d="M8.24809 11.5787V11.3756C8.24809 10.8607 8.66047 10.4337 9.19196 10.3982L13.0633 10.1397L18.417 18.0235V11.1041L17.039 10.9204V10.824C17.039 10.303 17.4608 9.87318 17.9991 9.84561L21.5216 9.66516V10.1721C21.5216 10.41 21.3446 10.6136 21.1021 10.6546L20.2544 10.798V22.0037L19.1906 22.3695C18.3018 22.6752 17.3124 22.348 16.8036 21.5803L11.6061 13.7372V21.223L13.2058 21.5291L13.1836 21.6775C13.1137 22.1423 12.7124 22.4939 12.227 22.5155L8.24809 22.6926C8.1955 22.1927 8.57011 21.7456 9.0869 21.6913L9.61028 21.6363V11.6552L8.24809 11.5787Z" fill="#111111"/>
<path fill-rule="evenodd" clip-rule="evenodd" d="M17.6749 0.966782L1.72347 2.05585C0.76799 2.12109 0.0273438 2.88925 0.0273438 3.81499V19.3299C0.0273438 20.1997 0.326764 21.0448 0.878435 21.7321L4.3178 26.0167C4.87388 26.7094 5.74899 27.0909 6.65435 27.0352L24.3586 25.9454C25.266 25.8895 25.9724 25.1619 25.9724 24.2832V6.64426C25.9724 6.10059 25.6979 5.59115 25.2369 5.27951L19.6325 1.49029C19.0613 1.10413 18.3702 0.91931 17.6749 0.966782ZM2.51447 4.057C2.29261 3.89274 2.3982 3.55055 2.6769 3.53056L17.7822 2.44711C18.2635 2.41259 18.7417 2.54512 19.1309 2.82088L22.1617 4.96813C22.2767 5.04965 22.2228 5.22563 22.0803 5.23338L6.08387 6.10336C5.59977 6.12969 5.12193 5.98747 4.73701 5.7025L2.51447 4.057ZM5.33357 8.83071C5.33357 8.31103 5.75341 7.88177 6.29027 7.85253L23.203 6.93145C23.7263 6.90296 24.1667 7.30534 24.1667 7.81182V23.0853C24.1667 23.604 23.7484 24.0328 23.2126 24.0633L6.40688 25.0195C5.8246 25.0527 5.33357 24.6052 5.33357 24.0415V8.83071Z" fill="#111111"/>
</svg>
