<svg width="20" height="22" viewBox="0 0 20 22" fill="none" xmlns="http://www.w3.org/2000/svg">
<path d="M4.64781 21.3252C3.97805 21.3252 3.30615 21.1519 2.68848 20.8064C1.41063 20.0909 0.648438 18.7907 0.648438 17.329V4.58463C0.648438 3.12286 1.41063 1.82375 2.68848 1.10721C3.97059 0.388548 5.48234 0.418313 6.73575 1.18481L17.4477 7.73996C18.5778 8.43098 19.2528 9.63429 19.2528 10.9568C19.2528 12.2793 18.5778 13.4816 17.4477 14.1736L6.73575 20.7288C6.08619 21.1253 5.36754 21.3252 4.64781 21.3252ZM4.64781 2.18615C4.24383 2.18615 3.83984 2.29028 3.46882 2.49865C2.70125 2.92814 2.24414 3.70863 2.24414 4.58463V17.329C2.24414 18.205 2.70231 18.9855 3.46882 19.4149C4.23851 19.8466 5.14857 19.8307 5.90338 19.3693L16.6153 12.8141C17.2681 12.4144 17.6582 11.7201 17.6582 10.9568C17.6582 10.1935 17.2681 9.4992 16.6153 9.09947L5.90338 2.54433C5.51215 2.30619 5.0805 2.18615 4.64781 2.18615Z" fill="#111111"/>
</svg>
