<svg width="659" height="736" viewBox="0 0 659 736" fill="none" xmlns="http://www.w3.org/2000/svg">
<path d="M291.412 10.2105C314.978 -3.40349 344.013 -3.4035 367.579 10.2105L620.123 156.104C643.689 169.718 658.206 194.878 658.206 222.106V513.894C658.206 541.122 643.689 566.282 620.123 579.896L367.579 725.79C344.013 739.404 314.978 739.404 291.412 725.79L38.8683 579.896C15.3024 566.282 0.785156 541.122 0.785156 513.894V222.106C0.785156 194.878 15.3024 169.718 38.8683 156.104L291.412 10.2105Z" fill="url(#paint0_linear_1117_41628)" fill-opacity="0.08"/>
<path d="M294.929 43.4932C316.32 31.1457 342.674 31.1456 364.065 43.4932L593.297 175.816C614.687 188.163 627.865 210.982 627.865 235.678V500.322C627.865 525.018 614.688 547.837 593.297 560.184L364.065 692.507C342.674 704.854 316.32 704.854 294.929 692.507L65.6967 560.184C44.3061 547.837 31.1289 525.018 31.1289 500.322V235.678C31.1289 210.982 44.3061 188.163 65.6967 175.816L294.929 43.4932Z" fill="url(#paint1_linear_1117_41628)" fill-opacity="0.08"/>
<path d="M298.173 73.7503C317.556 62.554 341.436 62.554 360.819 73.7503L568.533 193.735C587.915 204.931 599.856 225.623 599.856 248.015V487.985C599.856 510.377 587.915 531.069 568.533 542.265L360.819 662.25C341.436 673.446 317.556 673.446 298.173 662.25L90.4596 542.265C71.0769 531.069 59.1367 510.377 59.1367 487.985V248.015C59.1367 225.623 71.0769 204.931 90.4595 193.735L298.173 73.7503Z" fill="url(#paint2_linear_1117_41628)" fill-opacity="0.08"/>
<path d="M302.499 114.597C319.204 104.955 339.786 104.955 356.491 114.597L535.514 217.926C552.219 227.568 562.51 245.387 562.51 264.671V471.329C562.51 490.613 552.219 508.432 535.514 518.074L356.491 621.403C339.786 631.045 319.204 631.045 302.499 621.403L123.477 518.074C106.771 508.432 96.4805 490.613 96.4805 471.329V264.671C96.4805 245.387 106.771 227.568 123.477 217.926L302.499 114.597Z" fill="url(#paint3_linear_1117_41628)" fill-opacity="0.08"/>
<path d="M306.195 149.393C320.613 141.075 338.377 141.075 352.796 149.393L507.311 238.533C521.729 246.851 530.611 262.224 530.611 278.86V457.14C530.611 473.776 521.729 489.149 507.311 497.467L352.796 586.607C338.377 594.925 320.613 594.925 306.195 586.607L151.679 497.467C137.261 489.149 128.379 473.776 128.379 457.14V278.86C128.379 262.224 137.261 246.851 151.679 238.533L306.195 149.393Z" fill="url(#paint4_linear_1117_41628)" fill-opacity="0.08"/>
<path d="M310.52 190.24C322.261 183.476 336.727 183.476 348.468 190.24L474.292 262.724C486.033 269.488 493.266 281.988 493.266 295.516V440.484C493.266 454.012 486.033 466.512 474.292 473.276L348.468 545.76C336.727 552.524 322.261 552.524 310.52 545.76L184.697 473.276C172.956 466.512 165.723 454.012 165.723 440.484V295.516C165.723 281.988 172.955 269.488 184.697 262.724L310.52 190.24Z" fill="url(#paint5_linear_1117_41628)" fill-opacity="0.08"/>
<path d="M314.578 228.061C323.809 222.736 335.182 222.736 344.413 228.061L443.339 285.123C452.57 290.448 458.257 300.288 458.257 310.938V425.062C458.257 435.712 452.57 445.552 443.339 450.877L344.413 507.939C335.182 513.264 323.809 513.264 314.578 507.939L215.652 450.877C206.421 445.552 200.734 435.712 200.734 425.062V310.938C200.734 300.288 206.421 290.448 215.652 285.123L314.578 228.061Z" fill="url(#paint6_linear_1117_41628)" fill-opacity="0.08"/>
<path d="M318.635 265.882C325.356 261.997 333.637 261.997 340.358 265.882L412.386 307.522C419.107 311.408 423.247 318.589 423.247 326.36V409.64C423.247 417.411 419.107 424.592 412.386 428.478L340.358 470.118C333.637 474.003 325.356 474.003 318.635 470.118L246.608 428.478C239.887 424.592 235.746 417.411 235.746 409.64V326.36C235.746 318.589 239.887 311.408 246.608 307.522L318.635 265.882Z" fill="url(#paint7_linear_1117_41628)" fill-opacity="0.08"/>
<defs>
<linearGradient id="paint0_linear_1117_41628" x1="709.057" y1="747.79" x2="-228.621" y2="346.823" gradientUnits="userSpaceOnUse">
<stop stop-color="#2673B8"/>
<stop offset="0.33" stop-color="#2673B8"/>
<stop offset="1" stop-color="#2673B8"/>
</linearGradient>
<linearGradient id="paint1_linear_1117_41628" x1="674.022" y1="712.461" x2="-176.894" y2="348.308" gradientUnits="userSpaceOnUse">
<stop stop-color="#2673B8"/>
<stop offset="0.33" stop-color="#2673B8"/>
<stop offset="1" stop-color="#2673B8"/>
</linearGradient>
<linearGradient id="paint2_linear_1117_41628" x1="641.68" y1="680.343" x2="-129.525" y2="350.533" gradientUnits="userSpaceOnUse">
<stop stop-color="#2673B8"/>
<stop offset="0.33" stop-color="#2673B8"/>
<stop offset="1" stop-color="#2673B8"/>
</linearGradient>
<linearGradient id="paint3_linear_1117_41628" x1="598.557" y1="636.984" x2="-65.9571" y2="352.574" gradientUnits="userSpaceOnUse">
<stop stop-color="#2673B8"/>
<stop offset="0.33" stop-color="#2673B8"/>
<stop offset="1" stop-color="#2673B8"/>
</linearGradient>
<linearGradient id="paint4_linear_1117_41628" x1="561.724" y1="600.049" x2="-11.7357" y2="354.491" gradientUnits="userSpaceOnUse">
<stop stop-color="#2673B8"/>
<stop offset="0.33" stop-color="#2673B8"/>
<stop offset="1" stop-color="#2673B8"/>
</linearGradient>
<linearGradient id="paint5_linear_1117_41628" x1="518.601" y1="556.691" x2="51.8328" y2="356.532" gradientUnits="userSpaceOnUse">
<stop stop-color="#2673B8"/>
<stop offset="0.33" stop-color="#2673B8"/>
<stop offset="1" stop-color="#2673B8"/>
</linearGradient>
<linearGradient id="paint6_linear_1117_41628" x1="478.176" y1="516.544" x2="111.045" y2="359.314" gradientUnits="userSpaceOnUse">
<stop stop-color="#2673B8"/>
<stop offset="0.33" stop-color="#2673B8"/>
<stop offset="1" stop-color="#2673B8"/>
</linearGradient>
<linearGradient id="paint7_linear_1117_41628" x1="437.75" y1="476.397" x2="170.258" y2="362.095" gradientUnits="userSpaceOnUse">
<stop stop-color="#2673B8"/>
<stop offset="0.33" stop-color="#2673B8"/>
<stop offset="1" stop-color="#2673B8"/>
</linearGradient>
</defs>
</svg>
