<svg width="119" height="40" viewBox="0 0 119 40" fill="none" xmlns="http://www.w3.org/2000/svg">
<g clip-path="url(#clip0_4617_83997)">
<path d="M109.524 0.00013H9.48177C9.1171 0.00013 8.75681 0.00013 8.39311 0.00213C8.08866 0.00413 7.78664 0.00994 7.47926 0.01483C6.8115 0.0227318 6.14531 0.0818063 5.48648 0.19154C4.82858 0.303663 4.19128 0.515046 3.59615 0.81854C3.00175 1.1246 2.45862 1.5223 1.98648 1.9972C1.51187 2.47077 1.11623 3.01815 0.814803 3.61829C0.51254 4.21724 0.30295 4.85907 0.193271 5.52161C0.0825503 6.18332 0.0229702 6.85265 0.0150659 7.52361C0.00583743 7.83021 0.00486286 8.13783 0 8.44447V31.5587C0.00486286 31.8692 0.00583743 32.17 0.0150659 32.4806C0.0229726 33.1516 0.0825527 33.8209 0.193271 34.4825C0.302647 35.1455 0.51225 35.7877 0.814803 36.3868C1.1161 36.985 1.51178 37.5302 1.98648 38.0011C2.45683 38.4781 3.00031 38.8761 3.59615 39.1798C4.19128 39.4841 4.82851 39.6968 5.48648 39.8106C6.14542 39.9195 6.81155 39.9786 7.47926 39.9874C7.78664 39.9942 8.08866 39.9981 8.39311 39.9981C8.7568 40.0001 9.11712 40.0001 9.48177 40.0001H109.524C109.881 40.0001 110.244 40.0001 110.602 39.9981C110.905 39.9981 111.215 39.9942 111.518 39.9874C112.185 39.9791 112.85 39.92 113.507 39.8106C114.167 39.696 114.807 39.4834 115.405 39.1798C116 38.8759 116.543 38.478 117.013 38.0011C117.487 37.5284 117.883 36.9836 118.188 36.3868C118.488 35.7872 118.696 35.1451 118.804 34.4825C118.915 33.8208 118.976 33.1516 118.988 32.4806C118.992 32.17 118.992 31.8692 118.992 31.5587C119 31.1954 119 30.8341 119 30.4649V9.53626C119 9.17005 119 8.80677 118.992 8.44447C118.992 8.13783 118.992 7.83021 118.988 7.52357C118.976 6.85255 118.915 6.18337 118.804 5.52157C118.696 4.85941 118.488 4.21763 118.188 3.61825C117.574 2.41533 116.601 1.43616 115.405 0.81845C114.807 0.515697 114.167 0.30437 113.507 0.19145C112.85 0.0812328 112.185 0.0221378 111.518 0.01469C111.215 0.00981 110.905 0.00395 110.602 0.002C110.244 0 109.881 0.00013 109.524 0.00013Z" fill="#A6A6A6"/>
<path d="M8.39796 39.125C8.09498 39.125 7.79931 39.1211 7.49869 39.1143C6.87595 39.1061 6.25466 39.0516 5.63993 38.9512C5.06671 38.8519 4.51143 38.6673 3.99238 38.4033C3.47809 38.1415 3.00902 37.7983 2.60313 37.3867C2.19137 36.98 1.84856 36.5082 1.58829 35.9902C1.32514 35.4688 1.14303 34.9099 1.0483 34.333C0.945994 33.7131 0.890643 33.0863 0.882723 32.458C0.876418 32.2471 0.868164 31.5449 0.868164 31.5449V8.44434C0.868164 8.44434 0.876955 7.75293 0.882773 7.5498C0.890356 6.92248 0.945385 6.29665 1.04738 5.67773C1.14229 5.09925 1.32454 4.53875 1.58783 4.01563C1.84715 3.49794 2.18805 3.02586 2.59733 2.61768C3.00616 2.20562 3.47673 1.8606 3.99189 1.59521C4.50975 1.33209 5.06398 1.14873 5.63604 1.05127C6.25279 0.949836 6.87624 0.894996 7.50114 0.88721L8.39845 0.875H110.597L111.505 0.8877C112.124 0.895099 112.742 0.94945 113.353 1.05029C113.931 1.14898 114.491 1.33362 115.014 1.59814C116.047 2.13299 116.886 2.97916 117.416 4.01807C117.675 4.53758 117.855 5.09351 117.948 5.66699C118.051 6.29099 118.109 6.92174 118.121 7.5542C118.124 7.8374 118.124 8.1416 118.124 8.44434C118.132 8.81934 118.132 9.17627 118.132 9.53613V30.4648C118.132 30.8281 118.132 31.1826 118.124 31.54C118.124 31.8652 118.124 32.1631 118.12 32.4697C118.109 33.0909 118.052 33.7104 117.95 34.3232C117.857 34.9043 117.676 35.4675 117.413 35.9932C117.151 36.5056 116.81 36.9733 116.403 37.3789C115.997 37.7927 115.527 38.1379 115.012 38.4014C114.489 38.6674 113.93 38.8527 113.353 38.9512C112.738 39.0522 112.117 39.1067 111.494 39.1143C111.203 39.1211 110.898 39.125 110.602 39.125L109.524 39.127L8.39796 39.125Z" fill="black"/>
<path d="M24.6314 20.3008C24.6421 19.4662 24.8626 18.6478 25.2723 17.9218C25.6821 17.1959 26.2678 16.5859 26.9749 16.1488C26.5257 15.5036 25.933 14.9727 25.2441 14.5981C24.5551 14.2236 23.7887 14.0157 23.0059 13.9911C21.336 13.8148 19.7171 14.9959 18.8661 14.9959C17.9987 14.9959 16.6885 14.0086 15.2776 14.0378C14.365 14.0674 13.4757 14.3343 12.6961 14.8123C11.9166 15.2904 11.2735 15.9633 10.8295 16.7656C8.90626 20.1141 10.3408 25.0351 12.1832 27.7417C13.1049 29.0671 14.1822 30.5475 15.5918 30.495C16.9711 30.4375 17.4863 29.6105 19.1513 29.6105C20.8009 29.6105 21.2842 30.495 22.7224 30.4616C24.2025 30.4375 25.1351 29.1304 26.0245 27.7925C26.6868 26.8481 27.1964 25.8044 27.5345 24.7C26.6746 24.3343 25.9407 23.7221 25.4245 22.9398C24.9082 22.1575 24.6324 21.2397 24.6314 20.3008Z" fill="white"/>
<path d="M21.9149 12.2108C22.722 11.2366 23.1196 9.98445 23.0233 8.72021C21.7903 8.85044 20.6514 9.44299 19.8335 10.3798C19.4336 10.8375 19.1273 11.3699 18.9321 11.9467C18.737 12.5235 18.6568 13.1333 18.6961 13.7412C19.3128 13.7476 19.9229 13.6132 20.4805 13.3481C21.038 13.083 21.5285 12.6942 21.9149 12.2108Z" fill="white"/>
<path d="M42.0675 27.1397H37.3604L36.23 30.4961H34.2362L38.6947 18.0781H40.7662L45.2247 30.4961H43.1969L42.0675 27.1397ZM37.8479 25.5908H41.5791L39.7397 20.1436H39.6882L37.8479 25.5908Z" fill="white"/>
<path d="M54.8536 25.9699C54.8536 28.7834 53.3561 30.591 51.0962 30.591C50.5238 30.6211 49.9544 30.4885 49.4534 30.2084C48.9525 29.9283 48.54 29.5119 48.2634 29.007H48.2206V33.4914H46.3726V21.4426H48.1614V22.9485H48.1954C48.4848 22.446 48.9042 22.0318 49.409 21.7499C49.9138 21.4681 50.4851 21.3291 51.0622 21.3479C53.3473 21.3479 54.8536 23.1643 54.8536 25.9699ZM52.954 25.9699C52.954 24.1369 52.012 22.9319 50.5747 22.9319C49.1627 22.9319 48.2129 24.1623 48.2129 25.9699C48.2129 27.7942 49.1627 29.0158 50.5747 29.0158C52.012 29.0158 52.954 27.8196 52.954 25.9699Z" fill="white"/>
<path d="M64.7631 25.9699C64.7631 28.7834 63.2656 30.591 61.0058 30.591C60.4333 30.6211 59.864 30.4885 59.363 30.2084C58.862 29.9283 58.4496 29.5119 58.173 29.007H58.1302V33.4914H56.2821V21.4426H58.0709V22.9484H58.1049C58.3943 22.446 58.8137 22.0318 59.3185 21.7499C59.8233 21.4681 60.3947 21.3291 60.9718 21.3479C63.2569 21.3479 64.7631 23.1643 64.7631 25.9699ZM62.8636 25.9699C62.8636 24.1369 61.9216 22.9318 60.4843 22.9318C59.0722 22.9318 58.1224 24.1623 58.1224 25.9699C58.1224 27.7942 59.0722 29.0158 60.4843 29.0158C61.9216 29.0158 62.8636 27.8195 62.8636 25.9699Z" fill="white"/>
<path d="M71.3125 27.0362C71.4494 28.2676 72.6391 29.0762 74.2648 29.0762C75.8225 29.0762 76.9432 28.2676 76.9432 27.1572C76.9432 26.1934 76.2673 25.6162 74.6668 25.2207L73.0664 24.833C70.7988 24.2822 69.746 23.2158 69.746 21.4854C69.746 19.3428 71.6029 17.8711 74.2395 17.8711C76.849 17.8711 78.6378 19.3428 78.698 21.4854H76.8325C76.7208 20.2461 75.702 19.4981 74.2133 19.4981C72.7245 19.4981 71.7058 20.2549 71.7058 21.3565C71.7058 22.2344 72.3565 22.751 73.9482 23.1465L75.3087 23.4824C77.8424 24.0849 78.8952 25.1084 78.8952 26.9248C78.8952 29.248 77.0548 30.7031 74.1278 30.7031C71.3892 30.7031 69.5401 29.2822 69.4207 27.0361L71.3125 27.0362Z" fill="white"/>
<path d="M82.8837 19.2998V21.4424H84.5958V22.9141H82.8837V27.9053C82.8837 28.6807 83.2265 29.042 83.9791 29.042C84.1824 29.0384 84.3853 29.0241 84.587 28.999V30.4619C84.2487 30.5255 83.9047 30.5543 83.5605 30.5478C81.7377 30.5478 81.0268 29.8593 81.0268 28.1035V22.9141H79.7177V21.4424H81.0268V19.2998H82.8837Z" fill="white"/>
<path d="M85.5874 25.9697C85.5874 23.1211 87.2558 21.3311 89.8575 21.3311C92.4679 21.3311 94.1286 23.1211 94.1286 25.9697C94.1286 28.8262 92.4767 30.6084 89.8575 30.6084C87.2392 30.6084 85.5874 28.8262 85.5874 25.9697ZM92.2455 25.9697C92.2455 24.0156 91.355 22.8623 89.8575 22.8623C88.36 22.8623 87.4704 24.0244 87.4704 25.9697C87.4704 27.9316 88.36 29.0762 89.8575 29.0762C91.355 29.0762 92.2455 27.9316 92.2455 25.9697Z" fill="white"/>
<path d="M95.6523 21.4425H97.4149V22.9835H97.4576C97.5769 22.5022 97.8573 22.0769 98.2517 21.779C98.6461 21.4811 99.1304 21.3288 99.6233 21.3478C99.8363 21.347 100.049 21.3703 100.256 21.4171V23.1554C99.9876 23.0728 99.7071 23.0348 99.4261 23.0431C99.1576 23.0321 98.89 23.0797 98.6415 23.1826C98.3931 23.2855 98.1697 23.4412 97.9867 23.6391C97.8038 23.837 97.6656 24.0724 97.5816 24.3291C97.4977 24.5857 97.4699 24.8576 97.5003 25.1261V30.4962H95.6523L95.6523 21.4425Z" fill="white"/>
<path d="M108.777 27.8369C108.529 29.4805 106.937 30.6084 104.9 30.6084C102.281 30.6084 100.656 28.8437 100.656 26.0127C100.656 23.1729 102.29 21.3311 104.823 21.3311C107.314 21.3311 108.88 23.0518 108.88 25.7969V26.4336H102.521V26.5459C102.492 26.8791 102.533 27.2148 102.643 27.5306C102.752 27.8464 102.928 28.1352 103.157 28.3778C103.386 28.6203 103.663 28.8111 103.972 28.9374C104.28 29.0637 104.611 29.1226 104.943 29.1103C105.38 29.1515 105.818 29.0498 106.193 28.8203C106.567 28.5909 106.858 28.246 107.022 27.8369L108.777 27.8369ZM102.53 25.1348H107.031C107.048 24.8352 107.003 24.5354 106.898 24.2541C106.794 23.9729 106.634 23.7164 106.426 23.5006C106.219 23.2849 105.969 23.1145 105.693 23.0003C105.418 22.8861 105.121 22.8305 104.823 22.8369C104.522 22.8351 104.223 22.8933 103.945 23.008C103.666 23.1227 103.413 23.2918 103.2 23.5054C102.987 23.7191 102.818 23.973 102.703 24.2527C102.588 24.5323 102.529 24.8321 102.53 25.1348Z" fill="white"/>
<path d="M37.6163 8.73089C38.0037 8.70293 38.3925 8.76179 38.7546 8.90323C39.1167 9.04466 39.4431 9.26514 39.7102 9.54876C39.9773 9.83239 40.1784 10.1721 40.2991 10.5434C40.4199 10.9146 40.4572 11.3082 40.4083 11.6957C40.4083 13.602 39.3838 14.6977 37.6163 14.6977H35.473V8.73089H37.6163ZM36.3946 13.8539H37.5133C37.7902 13.8705 38.0673 13.8249 38.3244 13.7203C38.5815 13.6157 38.8121 13.4547 38.9996 13.2491C39.187 13.0436 39.3265 12.7986 39.4079 12.532C39.4893 12.2653 39.5106 11.9838 39.4702 11.7079C39.5077 11.4331 39.4843 11.1533 39.4016 10.8886C39.3189 10.624 39.1791 10.381 38.9921 10.177C38.8051 9.9731 38.5755 9.81329 38.3198 9.70905C38.0642 9.60481 37.7888 9.55873 37.5133 9.5741H36.3946V13.8539Z" fill="white"/>
<path d="M41.4494 12.4443C41.4212 12.1484 41.4549 11.8498 41.5482 11.5677C41.6415 11.2857 41.7924 11.0263 41.9913 10.8063C42.1901 10.5864 42.4325 10.4106 42.7028 10.2903C42.9732 10.17 43.2655 10.1079 43.5611 10.1079C43.8568 10.1079 44.1491 10.17 44.4195 10.2903C44.6898 10.4106 44.9322 10.5864 45.131 10.8063C45.3298 11.0263 45.4807 11.2857 45.5741 11.5677C45.6674 11.8498 45.701 12.1484 45.6729 12.4443C45.7016 12.7405 45.6683 13.0395 45.5752 13.322C45.4822 13.6045 45.3313 13.8644 45.1325 14.0848C44.9336 14.3052 44.691 14.4813 44.4204 14.6019C44.1498 14.7224 43.8571 14.7847 43.5611 14.7847C43.2652 14.7847 42.9725 14.7224 42.7018 14.6019C42.4312 14.4813 42.1887 14.3052 41.9898 14.0848C41.7909 13.8644 41.6401 13.6045 41.547 13.322C41.454 13.0395 41.4207 12.7405 41.4494 12.4443ZM44.7639 12.4443C44.7639 11.4682 44.3278 10.8974 43.5626 10.8974C42.7944 10.8974 42.3623 11.4682 42.3623 12.4443C42.3623 13.4282 42.7944 13.9946 43.5626 13.9946C44.3279 13.9946 44.7639 13.4243 44.7639 12.4443Z" fill="white"/>
<path d="M51.287 14.6978H50.3703L49.4448 11.3813H49.3749L48.4533 14.6978H47.5452L46.3109 10.1948H47.2073L48.0094 13.6308H48.0755L48.9961 10.1948H49.8439L50.7646 13.6308H50.8345L51.6328 10.1948H52.5165L51.287 14.6978Z" fill="white"/>
<path d="M53.5547 10.1949H54.4054V10.9102H54.4714C54.5834 10.6533 54.7724 10.4379 55.0119 10.2941C55.2515 10.1503 55.5297 10.0852 55.8077 10.1079C56.0256 10.0915 56.2444 10.1245 56.4478 10.2046C56.6513 10.2847 56.8342 10.4098 56.9831 10.5707C57.1319 10.7315 57.2429 10.924 57.3077 11.1338C57.3726 11.3436 57.3896 11.5654 57.3577 11.7827V14.6977H56.4739V12.0059C56.4739 11.2823 56.1612 10.9224 55.5076 10.9224C55.3597 10.9155 55.212 10.9408 55.0747 10.9966C54.9374 11.0525 54.8138 11.1375 54.7122 11.2459C54.6107 11.3543 54.5336 11.4834 54.4863 11.6246C54.4391 11.7657 54.4227 11.9154 54.4384 12.0635V14.6978H53.5547L53.5547 10.1949Z" fill="white"/>
<path d="M58.7658 8.43701H59.6495V14.6978H58.7658V8.43701Z" fill="white"/>
<path d="M60.8781 12.4444C60.8499 12.1484 60.8836 11.8499 60.977 11.5678C61.0703 11.2857 61.2212 11.0263 61.4201 10.8064C61.619 10.5864 61.8613 10.4106 62.1317 10.2903C62.4021 10.17 62.6944 10.1079 62.9901 10.1079C63.2857 10.1079 63.5781 10.17 63.8484 10.2903C64.1188 10.4106 64.3612 10.5864 64.56 10.8064C64.7589 11.0263 64.9098 11.2857 65.0032 11.5678C65.0965 11.8499 65.1302 12.1484 65.1021 12.4444C65.1307 12.7406 65.0974 13.0396 65.0043 13.3221C64.9112 13.6046 64.7604 13.8645 64.5615 14.0849C64.3626 14.3053 64.12 14.4814 63.8494 14.6019C63.5787 14.7225 63.286 14.7847 62.9901 14.7847C62.6941 14.7847 62.4014 14.7225 62.1308 14.6019C61.8601 14.4814 61.6176 14.3053 61.4187 14.0849C61.2198 13.8645 61.0689 13.6046 60.9758 13.3221C60.8827 13.0396 60.8494 12.7406 60.8781 12.4444ZM64.1926 12.4444C64.1926 11.4683 63.7565 10.8975 62.9913 10.8975C62.2231 10.8975 61.791 11.4683 61.791 12.4444C61.791 13.4283 62.2231 13.9947 62.9913 13.9947C63.7565 13.9947 64.1926 13.4244 64.1926 12.4444Z" fill="white"/>
<path d="M66.0324 13.4243C66.0324 12.6138 66.6326 12.1465 67.6979 12.0801L68.9109 12.0098V11.6211C68.9109 11.1455 68.5982 10.877 67.9941 10.877C67.5008 10.877 67.1589 11.0591 67.0609 11.3774H66.2053C66.2956 10.604 67.0191 10.1079 68.0349 10.1079C69.1576 10.1079 69.7907 10.6699 69.7907 11.6211V14.6978H68.94V14.0649H68.8701C68.7282 14.2919 68.5289 14.477 68.2926 14.6012C68.0563 14.7254 67.7914 14.7843 67.5251 14.7719C67.3371 14.7916 67.1471 14.7714 66.9673 14.7127C66.7876 14.654 66.622 14.5581 66.4814 14.4311C66.3408 14.3042 66.2282 14.149 66.1508 13.9756C66.0735 13.8021 66.0332 13.6144 66.0324 13.4243ZM68.9109 13.0395V12.6631L67.8174 12.7334C67.2007 12.7749 66.921 12.9858 66.921 13.3828C66.921 13.7881 67.2706 14.0239 67.7514 14.0239C67.8922 14.0382 68.0345 14.0239 68.1698 13.9819C68.305 13.9398 68.4305 13.8707 68.5386 13.7789C68.6468 13.6871 68.7355 13.5743 68.7995 13.4473C68.8634 13.3202 68.9013 13.1816 68.9109 13.0395Z" fill="white"/>
<path d="M70.9522 12.4444C70.9522 11.0215 71.6796 10.1201 72.811 10.1201C73.0908 10.1072 73.3686 10.1746 73.6117 10.3145C73.8549 10.4544 74.0535 10.661 74.1842 10.9101H74.2502V8.43701H75.134V14.6978H74.2871V13.9863H74.2172C74.0764 14.2338 73.8709 14.4378 73.623 14.5763C73.3752 14.7148 73.0943 14.7825 72.811 14.772C71.6718 14.772 70.9522 13.8706 70.9522 12.4444ZM71.8651 12.4444C71.8651 13.3994 72.3128 13.9741 73.0616 13.9741C73.8064 13.9741 74.2668 13.3911 74.2668 12.4483C74.2668 11.5098 73.8016 10.9185 73.0616 10.9185C72.3176 10.9185 71.8651 11.4971 71.8651 12.4444Z" fill="white"/>
<path d="M78.7903 12.4443C78.7622 12.1484 78.7958 11.8498 78.8892 11.5677C78.9825 11.2857 79.1334 11.0263 79.3322 10.8063C79.5311 10.5864 79.7734 10.4106 80.0438 10.2903C80.3141 10.17 80.6065 10.1079 80.9021 10.1079C81.1977 10.1079 81.49 10.17 81.7604 10.2903C82.0307 10.4106 82.2731 10.5864 82.4719 10.8063C82.6708 11.0263 82.8217 11.2857 82.915 11.5677C83.0083 11.8498 83.042 12.1484 83.0138 12.4443C83.0425 12.7405 83.0092 13.0395 82.9162 13.322C82.8231 13.6045 82.6723 13.8644 82.4734 14.0848C82.2745 14.3052 82.032 14.4813 81.7614 14.6019C81.4907 14.7224 81.198 14.7847 80.9021 14.7847C80.6061 14.7847 80.3134 14.7224 80.0428 14.6019C79.7722 14.4813 79.5296 14.3052 79.3308 14.0848C79.1319 13.8644 78.981 13.6045 78.888 13.322C78.7949 13.0395 78.7616 12.7405 78.7903 12.4443ZM82.1048 12.4443C82.1048 11.4682 81.6688 10.8974 80.9035 10.8974C80.1354 10.8974 79.7032 11.4682 79.7032 12.4443C79.7032 13.4282 80.1354 13.9946 80.9035 13.9946C81.6688 13.9946 82.1048 13.4243 82.1048 12.4443Z" fill="white"/>
<path d="M84.1996 10.1949H85.0503V10.9102H85.1164C85.2284 10.6533 85.4173 10.4379 85.6569 10.2941C85.8964 10.1503 86.1746 10.0852 86.4526 10.1079C86.6705 10.0915 86.8893 10.1245 87.0928 10.2046C87.2962 10.2847 87.4792 10.4098 87.628 10.5707C87.7769 10.7315 87.8878 10.924 87.9527 11.1338C88.0175 11.3436 88.0346 11.5654 88.0026 11.7827V14.6977H87.1188V12.0059C87.1188 11.2823 86.8061 10.9224 86.1526 10.9224C86.0046 10.9155 85.857 10.9408 85.7197 10.9966C85.5824 11.0525 85.4587 11.1375 85.3571 11.2459C85.2556 11.3543 85.1785 11.4834 85.1313 11.6246C85.084 11.7657 85.0677 11.9154 85.0833 12.0635V14.6978H84.1996V10.1949Z" fill="white"/>
<path d="M92.9962 9.07373V10.2153H93.9664V10.9639H92.9962V13.2793C92.9962 13.751 93.1895 13.9575 93.6294 13.9575C93.742 13.9572 93.8545 13.9503 93.9664 13.937V14.6772C93.8077 14.7058 93.6469 14.721 93.4856 14.7226C92.5029 14.7226 92.1115 14.375 92.1115 13.5068V10.9638H91.4006V10.2153H92.1115V9.07373H92.9962Z" fill="white"/>
<path d="M95.1735 8.43701H96.0495V10.9185H96.1194C96.2369 10.6591 96.431 10.4425 96.6753 10.2982C96.9197 10.1539 97.2023 10.0888 97.4848 10.1118C97.7015 10.1 97.9182 10.1364 98.1193 10.2184C98.3205 10.3004 98.5012 10.4261 98.6485 10.5864C98.7958 10.7468 98.9061 10.9378 98.9715 11.146C99.0369 11.3541 99.0558 11.5742 99.0269 11.7905V14.6978H98.1423V12.0098C98.1423 11.2905 97.8092 10.9263 97.1848 10.9263C97.0329 10.9137 96.8801 10.9347 96.7371 10.9878C96.5941 11.0408 96.4644 11.1247 96.357 11.2334C96.2496 11.3421 96.1672 11.4732 96.1154 11.6173C96.0636 11.7614 96.0438 11.9152 96.0573 12.0679V14.6977H95.1735L95.1735 8.43701Z" fill="white"/>
<path d="M104.18 13.482C104.06 13.8935 103.8 14.2495 103.445 14.4877C103.09 14.7258 102.664 14.831 102.24 14.7847C101.945 14.7926 101.651 14.7357 101.38 14.6182C101.109 14.5007 100.867 14.3253 100.67 14.1041C100.473 13.883 100.327 13.6214 100.241 13.3376C100.154 13.0538 100.131 12.7545 100.171 12.4605C100.132 12.1656 100.156 11.8657 100.242 11.581C100.328 11.2964 100.474 11.0336 100.67 10.8105C100.865 10.5874 101.106 10.4093 101.377 10.2881C101.647 10.1669 101.94 10.1054 102.236 10.108C103.482 10.108 104.233 10.964 104.233 12.378V12.6881H101.071V12.7379C101.057 12.9031 101.078 13.0695 101.132 13.2262C101.186 13.383 101.272 13.5267 101.384 13.6481C101.496 13.7696 101.632 13.8661 101.784 13.9315C101.935 13.9969 102.099 14.0297 102.264 14.0279C102.475 14.0534 102.689 14.0151 102.879 13.9179C103.069 13.8207 103.225 13.669 103.329 13.482L104.18 13.482ZM101.071 12.0308H103.333C103.344 11.8797 103.324 11.7279 103.273 11.5852C103.222 11.4425 103.143 11.312 103.039 11.2021C102.935 11.0923 102.809 11.0055 102.67 10.9473C102.531 10.8891 102.381 10.8609 102.231 10.8643C102.078 10.8624 101.926 10.8913 101.785 10.9492C101.643 11.0072 101.514 11.093 101.406 11.2017C101.298 11.3104 101.213 11.4398 101.155 11.5822C101.098 11.7246 101.069 11.8771 101.071 12.0308Z" fill="white"/>
</g>
<defs>
<clipPath id="clip0_4617_83997">
<rect width="119" height="40" fill="white"/>
</clipPath>
</defs>
</svg>
