<svg width="947" height="1684" viewBox="0 0 947 1684" fill="none" xmlns="http://www.w3.org/2000/svg">
<path d="M377.169 502.151L301.873 517.364L277.395 590.19L328.218 647.792L403.514 632.579L427.991 559.753L402.579 530.955L377.169 502.151Z" fill="white" fill-opacity="0.3"/>
<path d="M402.204 531.286L402.204 531.286L427.425 559.867L403.132 632.146L328.402 647.245L277.961 590.076L302.255 517.797L376.985 502.698L402.204 531.286Z" stroke="#2673B8" stroke-opacity="0.1"/>
<path d="M541.999 688.979L504.35 696.588L466.695 704.195L442.22 777.016L493.046 834.626L568.344 819.407L592.82 746.587L567.409 717.783L541.999 688.979Z" fill="white" fill-opacity="0.3"/>
<path d="M504.449 697.078L504.449 697.078L541.815 689.526L567.034 718.113L592.254 746.701L567.962 818.974L493.23 834.079L442.786 776.902L467.077 704.628L504.449 697.078Z" stroke="#2673B8" stroke-opacity="0.1"/>
<path d="M539.862 678.406L564.339 605.58L538.927 576.782L513.516 547.978L475.867 555.587L438.22 563.19L413.743 636.017L464.566 693.619L502.213 686.015L539.862 678.406Z" fill="white" fill-opacity="0.3"/>
<path d="M538.552 577.112L538.552 577.112L563.773 605.694L539.48 677.973L502.114 685.525L464.75 693.072L414.309 635.903L438.602 563.623L475.966 556.077L475.966 556.077L513.332 548.525L538.552 577.112Z" stroke="#2673B8" stroke-opacity="0.1"/>
<path d="M572.425 598.444L610.074 590.835L647.723 583.225L672.198 510.405L621.378 452.797L546.074 468.014L521.599 540.834L547.015 569.64L572.425 598.444Z" fill="white" fill-opacity="0.3"/>
<path d="M609.975 590.345L572.609 597.897L547.39 569.309L522.164 540.72L546.456 468.447L621.194 453.344L671.633 510.519L647.341 582.793L609.975 590.345Z" stroke="#2673B8" stroke-opacity="0.1"/>
<path d="M755.584 488.043L780.06 415.222L729.239 357.614L653.941 372.833L629.466 445.654L680.286 503.261L755.584 488.043Z" fill="white" fill-opacity="0.3"/>
<path d="M729.055 358.162L779.494 415.337L755.202 487.61L680.47 502.714L630.032 445.539L654.323 373.266L729.055 358.162Z" stroke="#2673B8" stroke-opacity="0.1"/>
<path d="M891.928 533.869L916.403 461.049L865.583 403.441L790.285 418.66L765.809 491.48L816.63 549.088L891.928 533.869Z" fill="white" fill-opacity="0.3"/>
<path d="M865.399 403.988L915.838 461.163L891.546 533.437L816.814 548.541L766.375 491.366L790.667 419.093L865.399 403.988Z" stroke="#2673B8" stroke-opacity="0.1"/>
<path d="M1028.28 579.696L1052.75 506.875L1001.93 449.265L926.629 464.484L902.153 537.305L952.974 594.912L1028.28 579.696Z" fill="white" fill-opacity="0.3"/>
<path d="M1001.74 449.813L1052.19 506.99L1027.9 579.263L953.158 594.365L902.719 537.19L927.011 464.917L1001.74 449.813Z" stroke="#2673B8" stroke-opacity="0.1"/>
<path d="M657.946 586.661L704.37 639.284L708.767 644.269L746.416 636.659L784.065 629.05L808.54 556.23L757.719 498.622L682.421 513.84L657.946 586.661Z" fill="white" fill-opacity="0.3"/>
<path d="M704.745 638.953L658.512 586.547L682.803 514.273L757.536 499.169L807.974 556.344L783.683 628.617L746.317 636.169L708.951 643.722L704.745 638.953L704.37 639.284L704.745 638.953Z" stroke="#2673B8" stroke-opacity="0.1"/>
<path d="M511.377 537.399L535.853 464.578L485.032 406.97L409.734 422.189L385.259 495.01L410.669 523.814L436.079 552.617L473.728 545.008L511.377 537.399Z" fill="white" fill-opacity="0.3"/>
<path d="M484.848 407.518L535.287 464.693L510.995 536.966L473.629 544.518L436.263 552.07L411.044 523.483L385.825 494.895L410.116 422.622L484.848 407.518Z" stroke="#2673B8" stroke-opacity="0.1"/>
<path d="M1056.75 720.701L1081.23 647.88L1030.41 590.273L955.109 605.491L930.634 678.312L956.044 707.116L981.454 735.92L1019.1 728.31L1056.75 720.701Z" fill="white" fill-opacity="0.3"/>
<path d="M1030.22 590.82L1080.66 647.995L1056.37 720.268L1019 727.82L981.638 735.372L956.419 706.785L931.2 678.198L955.491 605.924L1030.22 590.82Z" stroke="#2673B8" stroke-opacity="0.1"/>
<path d="M922.54 685.454L884.891 693.063L847.244 700.667L822.766 773.493L873.589 831.095L948.885 815.882L973.363 743.056L947.95 714.258L922.54 685.454Z" fill="white" fill-opacity="0.3"/>
<path d="M884.99 693.553L884.99 693.553L922.356 686.001L947.575 714.588L947.575 714.589L972.797 743.17L948.503 815.449L873.773 830.548L823.332 773.379L847.626 701.099L884.99 693.553Z" stroke="#2673B8" stroke-opacity="0.1"/>
<path d="M1021.24 738.889L983.591 746.493L959.114 819.319L1009.94 876.921L1085.23 861.708L1109.71 788.882L1058.89 731.28L1021.24 738.889Z" fill="white" fill-opacity="0.3"/>
<path d="M1021.34 739.379L1021.34 739.379L1058.7 731.827L1109.14 788.996L1084.85 861.275L1010.12 876.374L959.68 819.205L983.973 746.926L1021.34 739.379Z" stroke="#2673B8" stroke-opacity="0.1"/>
<path d="M920.412 674.877L944.888 602.056L894.067 544.448L818.769 559.667L794.294 632.488L819.704 661.292L845.114 690.095L882.763 682.486L920.412 674.877Z" fill="white" fill-opacity="0.3"/>
<path d="M893.883 544.996L944.322 602.171L920.03 674.444L882.664 681.996L845.298 689.548L820.079 660.961L794.86 632.373L819.151 560.1L893.883 544.996Z" stroke="#2673B8" stroke-opacity="0.1"/>
<path d="M678.337 734.803L671.821 736.121L603.039 750.022L578.563 822.843L629.384 880.45L704.682 865.232L729.157 792.411L703.747 763.607L678.337 734.803Z" fill="white" fill-opacity="0.3"/>
<path d="M671.92 736.611L671.921 736.611L678.153 735.351L703.372 763.938L728.591 792.526L704.3 864.799L629.568 879.903L579.129 822.728L603.421 750.455L671.92 736.611Z" stroke="#2673B8" stroke-opacity="0.1"/>
<path d="M786.2 639.629L748.551 647.238L710.904 654.842L686.427 727.668L711.837 756.472L737.249 785.27L812.545 770.057L837.023 697.231L811.61 668.433L786.2 639.629Z" fill="white" fill-opacity="0.3"/>
<path d="M748.65 647.729L748.65 647.729L786.016 640.176L811.235 668.764L811.235 668.764L836.457 697.345L812.163 769.624L737.433 784.723L712.212 756.141L686.993 727.554L711.286 655.275L748.65 647.729Z" stroke="#2673B8" stroke-opacity="0.1"/>
<path d="M700.679 651.404L649.856 593.802L612.207 601.412L574.56 609.015L550.083 681.842L575.493 710.646L600.906 739.443L676.202 724.231L700.679 651.404Z" fill="white" fill-opacity="0.3"/>
<path d="M612.306 601.902L612.306 601.902L649.672 594.35L700.113 651.519L675.82 723.798L601.089 738.896L575.868 710.315L550.649 681.727L574.942 609.448L612.306 601.902Z" stroke="#2673B8" stroke-opacity="0.1"/>
<path d="M464.384 924.892L389.088 940.105L364.61 1012.93L415.433 1070.53L490.729 1055.32L515.206 982.494L489.794 953.696L464.384 924.892Z" fill="white" fill-opacity="0.3"/>
<path d="M489.419 954.026L489.419 954.027L514.64 982.608L490.347 1054.89L415.617 1069.99L365.176 1012.82L389.47 940.537L464.2 925.439L489.419 954.026Z" stroke="#2673B8" stroke-opacity="0.1"/>
<path d="M629.214 1111.72L591.565 1119.33L553.91 1126.94L529.434 1199.76L580.261 1257.37L655.559 1242.15L680.034 1169.33L654.624 1140.52L629.214 1111.72Z" fill="white" fill-opacity="0.3"/>
<path d="M591.664 1119.82L591.664 1119.82L629.03 1112.27L654.249 1140.85L679.468 1169.44L655.177 1241.72L580.445 1256.82L530 1199.64L554.292 1127.37L591.664 1119.82Z" stroke="#2673B8" stroke-opacity="0.1"/>
<path d="M627.077 1101.15L651.554 1028.32L626.142 999.523L600.731 970.719L563.082 978.328L525.435 985.932L500.958 1058.76L551.781 1116.36L589.428 1108.76L627.077 1101.15Z" fill="white" fill-opacity="0.3"/>
<path d="M625.767 999.854L625.767 999.854L650.988 1028.44L626.695 1100.71L589.329 1108.27L551.965 1115.81L501.524 1058.64L525.817 986.365L563.181 978.818L563.181 978.818L600.547 971.266L625.767 999.854Z" stroke="#2673B8" stroke-opacity="0.1"/>
<path d="M659.64 1021.18L697.289 1013.58L734.938 1005.97L759.413 933.146L708.593 875.538L633.289 890.755L608.813 963.575L634.23 992.381L659.64 1021.18Z" fill="white" fill-opacity="0.3"/>
<path d="M697.19 1013.09L659.824 1020.64L634.605 992.05L609.379 963.461L633.671 891.187L708.409 876.085L758.847 933.26L734.556 1005.53L697.19 1013.09Z" stroke="#2673B8" stroke-opacity="0.1"/>
<path d="M842.799 910.783L867.275 837.963L816.454 780.355L741.156 795.574L716.681 868.394L767.501 926.002L842.799 910.783Z" fill="white" fill-opacity="0.3"/>
<path d="M816.27 780.902L866.709 838.077L842.417 910.351L767.685 925.455L717.246 868.28L741.538 796.007L816.27 780.902Z" stroke="#2673B8" stroke-opacity="0.1"/>
<path d="M979.143 956.611L1003.62 883.79L952.798 826.182L877.5 841.401L853.024 914.222L903.845 971.829L979.143 956.611Z" fill="white" fill-opacity="0.3"/>
<path d="M952.614 826.73L1003.05 883.904L978.761 956.178L904.029 971.282L853.59 914.107L877.882 841.834L952.614 826.73Z" stroke="#2673B8" stroke-opacity="0.1"/>
<path d="M745.161 1009.4L791.585 1062.02L795.982 1067.01L833.631 1059.4L871.28 1051.79L895.755 978.97L844.934 921.363L769.636 936.581L745.161 1009.4Z" fill="white" fill-opacity="0.3"/>
<path d="M791.96 1061.69L745.727 1009.29L770.018 937.014L844.75 921.91L895.189 979.085L870.898 1051.36L833.532 1058.91L796.166 1066.46L791.96 1061.69L791.585 1062.02L791.96 1061.69Z" stroke="#2673B8" stroke-opacity="0.1"/>
<path d="M598.592 960.139L623.067 887.319L572.247 829.711L496.949 844.93L472.474 917.75L497.884 946.554L523.294 975.358L560.943 967.749L598.592 960.139Z" fill="white" fill-opacity="0.3"/>
<path d="M572.063 830.258L622.502 887.433L598.21 959.707L560.844 967.259L523.478 974.811L498.259 946.223L473.039 917.636L497.331 845.363L572.063 830.258Z" stroke="#2673B8" stroke-opacity="0.1"/>
<path d="M1009.75 1108.2L972.106 1115.8L934.459 1123.41L909.981 1196.23L960.804 1253.84L1036.1 1238.62L1060.58 1165.8L1035.16 1137L1009.75 1108.2Z" fill="white" fill-opacity="0.3"/>
<path d="M972.205 1116.29L972.205 1116.29L1009.57 1108.74L1034.79 1137.33L1034.79 1137.33L1060.01 1165.91L1035.72 1238.19L960.988 1253.29L910.547 1196.12L934.841 1123.84L972.205 1116.29Z" stroke="#2673B8" stroke-opacity="0.1"/>
<path d="M1007.63 1097.62L1032.1 1024.8L981.282 967.19L905.984 982.408L881.509 1055.23L906.919 1084.03L932.329 1112.84L969.978 1105.23L1007.63 1097.62Z" fill="white" fill-opacity="0.3"/>
<path d="M981.098 967.737L1031.54 1024.91L1007.25 1097.19L969.879 1104.74L932.513 1112.29L907.294 1083.7L882.075 1055.11L906.366 982.841L981.098 967.737Z" stroke="#2673B8" stroke-opacity="0.1"/>
<path d="M765.552 1157.54L759.036 1158.86L690.254 1172.76L665.778 1245.58L716.599 1303.19L791.897 1287.97L816.372 1215.15L790.962 1186.35L765.552 1157.54Z" fill="white" fill-opacity="0.3"/>
<path d="M759.135 1159.35L759.135 1159.35L765.368 1158.09L790.587 1186.68L815.806 1215.27L791.515 1287.54L716.783 1302.64L666.344 1245.47L690.635 1173.2L759.135 1159.35Z" stroke="#2673B8" stroke-opacity="0.1"/>
<path d="M873.415 1062.37L835.766 1069.98L798.119 1077.58L773.641 1150.41L799.052 1179.21L824.464 1208.01L899.76 1192.8L924.237 1119.97L898.825 1091.17L873.415 1062.37Z" fill="white" fill-opacity="0.3"/>
<path d="M835.865 1070.47L835.865 1070.47L873.231 1062.92L898.45 1091.5L898.45 1091.51L923.672 1120.09L899.378 1192.37L824.648 1207.46L799.427 1178.88L774.207 1150.3L798.501 1078.02L835.865 1070.47Z" stroke="#2673B8" stroke-opacity="0.1"/>
<path d="M787.894 1074.14L737.071 1016.54L699.422 1024.15L661.775 1031.76L637.298 1104.58L662.708 1133.39L688.12 1162.18L763.416 1146.97L787.894 1074.14Z" fill="white" fill-opacity="0.3"/>
<path d="M699.521 1024.64L699.521 1024.64L736.887 1017.09L787.328 1074.26L763.034 1146.54L688.304 1161.64L663.083 1133.06L637.864 1104.47L662.157 1032.19L699.521 1024.64Z" stroke="#2673B8" stroke-opacity="0.1"/>
</svg>
