<svg width="65" height="59" viewBox="0 0 65 59" fill="none" xmlns="http://www.w3.org/2000/svg">
<path fill-rule="evenodd" clip-rule="evenodd" d="M0.564265 21.1676L18.3196 0.635501C18.3645 0.584792 18.4276 0.553755 18.4951 0.549079C18.5627 0.544402 18.6294 0.566461 18.6809 0.610501L44.982 23.3533C45.0327 23.399 45.0637 23.4626 45.0683 23.5307C45.073 23.5988 45.051 23.6661 45.007 23.7183L27.2521 44.25C27.2066 44.3009 27.143 44.3321 27.0748 44.3369C27.0067 44.3417 26.9394 44.3197 26.8871 44.2756L0.589765 21.5325C0.563863 21.5104 0.542634 21.4833 0.527323 21.4529C0.512013 21.4225 0.502927 21.3893 0.500599 21.3553C0.498271 21.3213 0.502747 21.2872 0.513765 21.255C0.524783 21.2228 0.542121 21.1931 0.564765 21.1676H0.564265Z" fill="#006694"/>
<path fill-rule="evenodd" clip-rule="evenodd" d="M12.3468 11.502L24.7421 5.85022L44.9825 23.3535C45.0332 23.3992 45.0641 23.4628 45.0688 23.5309C45.0735 23.599 45.0515 23.6663 45.0075 23.7185L27.2526 44.2502C27.2071 44.3012 27.1435 44.3323 27.0753 44.3371C27.0071 44.3419 26.9398 44.3199 26.8876 44.2758L25.6288 43.1848L11.8215 12.9068C11.7053 12.6509 11.6954 12.3593 11.7938 12.096C11.8922 11.8327 12.0909 11.6191 12.3465 11.502H12.3468Z" fill="#005C85"/>
<path fill-rule="evenodd" clip-rule="evenodd" d="M12.6779 12.2316L37.377 0.971236C37.439 0.943571 37.5094 0.941469 37.5729 0.965385C37.6365 0.989302 37.688 1.03731 37.7164 1.09899L52.1404 32.7347C52.155 32.7654 52.1634 32.7986 52.165 32.8325C52.1667 32.8664 52.1616 32.9002 52.1501 32.9322C52.1385 32.9641 52.1208 32.9934 52.0978 33.0184C52.0749 33.0433 52.0472 33.0635 52.0164 33.0777L27.3171 44.3376C27.2545 44.365 27.1838 44.3669 27.1198 44.3431C27.0558 44.3193 27.0036 44.2715 26.9741 44.2099L12.5501 12.5751C12.5221 12.5126 12.5198 12.4416 12.5437 12.3774C12.5677 12.3133 12.6158 12.2611 12.6779 12.2321V12.2316Z" fill="#60B7FF"/>
<path fill-rule="evenodd" clip-rule="evenodd" d="M27.3394 8.35657H41.0269L52.1408 32.7347C52.1554 32.7653 52.1637 32.7985 52.1654 32.8324C52.1671 32.8663 52.162 32.9002 52.1504 32.9321C52.1389 32.964 52.1211 32.9933 52.0982 33.0183C52.0752 33.0433 52.0476 33.0635 52.0168 33.0777L27.3175 44.3376C27.2549 44.3649 27.1842 44.3669 27.1202 44.3431C27.0562 44.3192 27.0039 44.2714 26.9745 44.2098L26.2813 42.6848V9.41832C26.281 9.27911 26.3081 9.14121 26.3611 9.01249C26.4142 8.88378 26.492 8.76677 26.5903 8.66817C26.6886 8.56956 26.8053 8.49129 26.9338 8.43783C27.0624 8.38436 27.2002 8.35675 27.3394 8.35657Z" fill="#56A5E6"/>
<path fill-rule="evenodd" clip-rule="evenodd" d="M27.3394 9.1593H47.5541L54.7424 16.3476V44.1851C54.7421 44.2537 54.7147 44.3194 54.6662 44.3679C54.6177 44.4165 54.552 44.4439 54.4834 44.4442H27.3394C27.3056 44.444 27.2722 44.4371 27.241 44.4239C27.2099 44.4108 27.1817 44.3916 27.1579 44.3676C27.1342 44.3435 27.1155 44.315 27.1028 44.2837C27.0901 44.2524 27.0837 44.2188 27.084 44.1851V9.4183C27.0837 9.38452 27.0901 9.35101 27.1028 9.31969C27.1155 9.28838 27.1342 9.25988 27.1579 9.23582C27.1817 9.21176 27.2099 9.19262 27.241 9.17949C27.2722 9.16636 27.3056 9.1595 27.3394 9.1593Z" fill="#EAF6FF"/>
<path fill-rule="evenodd" clip-rule="evenodd" d="M47.5547 9.1593V14.7343C47.5555 15.1617 47.7257 15.5714 48.0279 15.8736C48.3301 16.1758 48.7398 16.346 49.1672 16.3468H54.7422L47.5547 9.1593Z" fill="#BEC7CF"/>
<path fill-rule="evenodd" clip-rule="evenodd" d="M33.5573 33.6723H54.7683C55.8435 33.6756 56.8736 34.1041 57.6338 34.8643C58.394 35.6246 58.8226 36.6547 58.8258 37.7298V54.3942C58.8232 55.4695 58.3949 56.5 57.6345 57.2604C56.8742 58.0208 55.8437 58.4492 54.7683 58.4518H17.1631C16.0879 58.4486 15.0578 58.02 14.2975 57.2598C13.5373 56.4995 13.1087 55.4693 13.1055 54.3942V29.6147C13.1078 28.7312 13.4601 27.8847 14.0852 27.2604C14.7102 26.636 15.5571 26.2847 16.4406 26.2833H23.523C24.698 26.2833 25.4971 27.0058 26.3362 27.8232L30.7441 32.1325C31.5833 32.9535 32.3825 33.6723 33.5573 33.6723Z" fill="#FFBA57"/>
<path d="M31.5028 16.249C31.2656 16.2462 31.0391 16.1501 30.8723 15.9813C30.7056 15.8126 30.6121 15.5849 30.6121 15.3477C30.6121 15.1105 30.7056 14.8828 30.8723 14.7141C31.0391 14.5454 31.2656 14.4492 31.5028 14.4464H43.4201C43.6573 14.4492 43.8838 14.5454 44.0506 14.7141C44.2173 14.8828 44.3108 15.1105 44.3108 15.3477C44.3108 15.5849 44.2173 15.8126 44.0506 15.9813C43.8838 16.1501 43.6573 16.2462 43.4201 16.249H31.5028ZM31.5028 29.399C31.2638 29.399 31.0346 29.3041 30.8655 29.1351C30.6965 28.9661 30.6016 28.7368 30.6016 28.4978C30.6016 28.2588 30.6965 28.0295 30.8655 27.8605C31.0346 27.6915 31.2638 27.5965 31.5028 27.5965H50.3237C50.5627 27.5965 50.792 27.6915 50.961 27.8605C51.13 28.0295 51.2249 28.2588 51.2249 28.4978C51.2249 28.7368 51.13 28.9661 50.961 29.1351C50.792 29.3041 50.5627 29.399 50.3237 29.399H31.5028ZM31.5028 25.0168C31.2656 25.014 31.0391 24.9178 30.8723 24.7491C30.7056 24.5804 30.6121 24.3527 30.6121 24.1155C30.6121 23.8783 30.7056 23.6506 30.8723 23.4819C31.0391 23.3131 31.2656 23.217 31.5028 23.2142H50.3237C50.4429 23.2128 50.5613 23.235 50.6719 23.2797C50.7825 23.3244 50.8831 23.3905 50.9679 23.4744C51.0527 23.5582 51.1201 23.658 51.166 23.7681C51.212 23.8781 51.2357 23.9962 51.2357 24.1155C51.2357 24.2347 51.212 24.3528 51.166 24.4629C51.1201 24.5729 51.0527 24.6728 50.9679 24.7566C50.8831 24.8404 50.7825 24.9066 50.6719 24.9513C50.5613 24.9959 50.4429 25.0182 50.3237 25.0168H31.5028ZM31.5028 20.6344C31.3845 20.6344 31.2673 20.6111 31.1579 20.5658C31.0486 20.5205 30.9492 20.4541 30.8655 20.3704C30.7818 20.2868 30.7155 20.1874 30.6702 20.0781C30.6249 19.9687 30.6016 19.8515 30.6016 19.7332C30.6016 19.6148 30.6249 19.4976 30.6702 19.3883C30.7155 19.2789 30.7818 19.1796 30.8655 19.0959C30.9492 19.0122 31.0486 18.9458 31.1579 18.9005C31.2673 18.8552 31.3845 18.8319 31.5028 18.8319H50.3237C50.442 18.8319 50.5592 18.8552 50.6686 18.9005C50.7779 18.9458 50.8773 19.0122 50.961 19.0959C51.0447 19.1796 51.111 19.2789 51.1563 19.3883C51.2016 19.4976 51.2249 19.6148 51.2249 19.7332C51.2249 19.8515 51.2016 19.9687 51.1563 20.0781C51.111 20.1874 51.0447 20.2868 50.961 20.3704C50.8773 20.4541 50.7779 20.5205 50.6686 20.5658C50.5592 20.6111 50.442 20.6344 50.3237 20.6344H31.5028Z" fill="#BEC7CF"/>
<path d="M18.8309 47.5707C18.5919 47.5707 18.3627 47.4757 18.1937 47.3067C18.0246 47.1377 17.9297 46.9085 17.9297 46.6694C17.9297 46.4304 18.0246 46.2012 18.1937 46.0322C18.3627 45.8631 18.5919 45.7682 18.8309 45.7682H27.6211C27.8601 45.7682 28.0893 45.8631 28.2583 46.0322C28.4274 46.2012 28.5223 46.4304 28.5223 46.6694C28.5223 46.9085 28.4274 47.1377 28.2583 47.3067C28.0893 47.4757 27.8601 47.5707 27.6211 47.5707H18.8309ZM18.8309 53.7263C18.5919 53.7263 18.3627 53.6314 18.1937 53.4623C18.0246 53.2933 17.9297 53.0641 17.9297 52.8251C17.9297 52.586 18.0246 52.3568 18.1937 52.1878C18.3627 52.0188 18.5919 51.9238 18.8309 51.9238H53.1011C53.3401 51.9238 53.5693 52.0188 53.7383 52.1878C53.9074 52.3568 54.0023 52.586 54.0023 52.8251C54.0023 53.0641 53.9074 53.2933 53.7383 53.4623C53.5693 53.6314 53.3401 53.7263 53.1011 53.7263H18.8309Z" fill="#CF9646"/>
<path fill-rule="evenodd" clip-rule="evenodd" d="M54.7434 34.3546C55.3001 34.7245 55.7569 35.226 56.0733 35.8148C56.3896 36.4035 56.5558 37.0612 56.5571 37.7296V54.3942C56.5544 55.4695 56.126 56.5 55.3657 57.2604C54.6053 58.0208 53.5748 58.4492 52.4994 58.4518H54.7691C55.8444 58.4492 56.8749 58.0208 57.6352 57.2604C58.3956 56.5 58.8239 55.4695 58.8266 54.3942V37.7298C58.8274 37.1974 58.7219 36.6702 58.5164 36.1791C58.2078 35.4389 57.6876 34.8062 57.021 34.3602C56.3544 33.9143 55.5711 33.675 54.7691 33.6723H52.4994C53.2985 33.6722 54.0796 33.9097 54.7434 34.3546ZM30.7448 32.1325L27.0851 28.5566L26.3369 27.8232C25.4978 27.0058 24.6987 26.2833 23.5237 26.2833H21.2578C22.4291 26.2833 23.2282 27.0058 24.0674 27.8232L27.0851 30.7715L28.4789 32.1325C29.3144 32.9535 30.1136 33.6723 31.2886 33.6723H33.5581C32.3831 33.6723 31.5841 32.9535 30.7448 32.1325Z" fill="#E6A74E"/>
<path fill-rule="evenodd" clip-rule="evenodd" d="M56.8195 45.6514C58.3387 45.6514 59.8237 45.2009 61.0868 44.357C62.3499 43.513 63.3344 42.3134 63.9158 40.9099C64.4971 39.5064 64.6492 37.962 64.3528 36.4721C64.0565 34.9821 63.3249 33.6135 62.2507 32.5394C61.1766 31.4652 59.808 30.7336 58.318 30.4373C56.8281 30.1409 55.2837 30.293 53.8802 30.8743C52.4767 31.4557 51.2771 32.4402 50.4331 33.7033C49.5892 34.9664 49.1387 36.4514 49.1387 37.9705C49.1425 40.0065 49.9529 41.9579 51.3925 43.3976C52.8322 44.8372 54.7836 45.6476 56.8195 45.6514Z" fill="#25C73B"/>
<path d="M52.2296 39.0144C52.1437 38.9312 52.0752 38.8318 52.0281 38.7219C51.981 38.6121 51.9562 38.4939 51.9551 38.3744C51.9541 38.2548 51.9768 38.1363 52.022 38.0256C52.0672 37.9149 52.134 37.8143 52.2184 37.7297C52.3028 37.6451 52.4032 37.578 52.5138 37.5326C52.6243 37.4871 52.7428 37.464 52.8624 37.4648C52.9819 37.4655 53.1001 37.49 53.2101 37.5369C53.3201 37.5837 53.4197 37.6519 53.5031 37.7376L55.2326 39.4671L60.1326 34.5671C60.3014 34.3982 60.5305 34.3034 60.7693 34.3033C61.0081 34.3033 61.2371 34.3982 61.406 34.5671C61.5749 34.7359 61.6698 34.9649 61.6698 35.2038C61.6698 35.4426 61.5749 35.6716 61.4061 35.8405L55.8674 41.3789C55.6983 41.5471 55.4694 41.6416 55.2308 41.6416C54.9922 41.6416 54.7633 41.5471 54.5941 41.3789L52.2296 39.0144Z" fill="#EAF6FF"/>
<path fill-rule="evenodd" clip-rule="evenodd" d="M56.1661 30.3152C58.0507 30.475 59.81 31.3243 61.1073 32.7005C62.4046 34.0767 63.1487 35.8831 63.1971 37.7738C63.2454 39.6644 62.5947 41.5065 61.3694 42.9472C60.1442 44.388 58.4305 45.3261 56.5566 45.582C56.4269 45.6005 56.2967 45.6151 56.1661 45.6258C56.2975 45.6368 56.4253 45.644 56.5566 45.6478C56.6441 45.6514 56.7316 45.6514 56.8191 45.6514C57.497 45.6527 58.172 45.5631 58.826 45.385C60.6231 44.8986 62.1823 43.7759 63.2137 42.2259C64.2451 40.6759 64.6784 38.8041 64.433 36.9585C64.1877 35.113 63.2803 33.4194 61.8798 32.1927C60.4793 30.966 58.6809 30.2897 56.8191 30.2897C56.6001 30.2897 56.3816 30.2969 56.166 30.3147L56.1661 30.3152Z" fill="#21B335"/>
<path fill-rule="evenodd" clip-rule="evenodd" d="M53.1016 16.3473V31.2457C53.6209 30.9586 54.1719 30.7333 54.7436 30.5743V16.3473H53.1016Z" fill="#D3DDE6"/>
</svg>
