<svg width="65" height="65" viewBox="0 0 65 65" fill="none" xmlns="http://www.w3.org/2000/svg">
<path d="M51.5258 11.6756V50.627C51.5258 50.7048 51.5246 50.7825 51.5206 50.8603C51.3987 53.5278 49.1966 55.6548 46.4966 55.6548H18.2244C15.4467 55.6548 13.1953 53.4033 13.1953 50.6269V5.52913C13.1953 3.14163 14.8583 1.14288 17.0891 0.628252C17.4615 0.542729 17.8423 0.499705 18.2244 0.500002H40.6819C41.4454 0.500002 42.1907 0.673752 42.8659 1.00038C44.2246 1.65425 44.6072 2.48063 47.0487 4.977C49.8576 8.02688 50.5282 8.3395 51.1006 9.66013C51.3814 10.2949 51.5263 10.9815 51.5258 11.6756Z" fill="#FFC477"/>
<path d="M51.525 11.6756V50.627C51.525 50.7047 51.5238 50.7825 51.5198 50.8602C51.1473 50.9459 50.7664 50.9889 50.3843 50.9886H22.1121C19.3344 50.9886 17.083 48.7371 17.083 45.9607V0.862876C17.083 0.783751 17.0843 0.706001 17.0881 0.628251C17.4606 0.542736 17.8415 0.499711 18.2236 0.500001H40.6811C41.4446 0.500001 42.1899 0.673751 42.8651 1.00038C43.4256 1.2705 43.931 1.64235 44.3558 2.097L47.0479 4.97713L50.1301 8.202C50.5373 8.62669 50.8656 9.12048 51.0996 9.66025C51.3806 10.295 51.5255 10.9815 51.525 11.6756Z" fill="#FFDAAA"/>
<path d="M64.4278 29.1182V57.393C64.4278 58.9652 63.9171 60.4196 63.0513 61.5965C61.759 63.3567 59.6735 64.5 57.321 64.5H38.853C34.9281 64.5 31.7461 61.3179 31.7461 57.3931V29.1182C31.7461 26.185 33.5245 23.6665 36.0611 22.5816C36.9434 22.2041 37.8934 22.01 38.8531 22.0112H57.321C61.2471 22.0114 64.4278 25.1935 64.4278 29.1182Z" fill="#4CBA68"/>
<path d="M64.4278 29.1182V57.393C64.4278 58.9652 63.9171 60.4196 63.0513 61.5965C62.169 61.974 61.219 62.1681 60.2593 62.1669H41.7914C37.8666 62.1669 34.6846 58.9847 34.6846 55.06V26.7851C34.6846 25.2129 35.1953 23.7585 36.0611 22.5816C36.9434 22.2041 37.8934 22.01 38.8531 22.0112H57.3209C61.2471 22.0114 64.4278 25.1935 64.4278 29.1182Z" fill="#7CCC92"/>
<path d="M50.8099 47.708V51.0288C50.8099 51.6159 50.3342 52.0916 49.7483 52.0916H46.4262C46.2866 52.0917 46.1484 52.0642 46.0194 52.0108C45.8904 51.9574 45.7733 51.8791 45.6746 51.7804C45.5759 51.6817 45.4976 51.5645 45.4442 51.4355C45.3907 51.3066 45.3633 51.1684 45.3633 51.0288V47.708C45.3633 47.5684 45.3907 47.4302 45.4442 47.3013C45.4976 47.1723 45.5759 47.0551 45.6746 46.9564C45.7733 46.8577 45.8904 46.7794 46.0194 46.726C46.1484 46.6726 46.2866 46.6451 46.4262 46.6451H49.7483C50.3343 46.6451 50.8099 47.1209 50.8099 47.708Z" fill="#2C733F"/>
<path d="M59.5436 28.452V32.01C59.5436 33.2751 58.5184 34.3016 57.252 34.3016H38.9215C37.6564 34.3016 36.6299 33.275 36.6299 32.01V28.452C36.6299 27.1869 37.6565 26.1604 38.9215 26.1604H57.252C58.5184 26.1604 59.5436 27.187 59.5436 28.452Z" fill="#1E81CE"/>
<path d="M59.5438 28.452V32.01C59.5438 33.2751 58.5186 34.3016 57.2522 34.3016H42.8102C41.5451 34.3016 40.5186 33.275 40.5186 32.01V28.452C40.5186 27.1869 41.5452 26.1604 42.8102 26.1604H57.2522C58.5186 26.1604 59.5438 27.187 59.5438 28.452Z" fill="#3D9AE2"/>
<path d="M42.0778 47.7079V51.0287C42.0778 51.1683 42.0503 51.3065 41.9969 51.4355C41.9435 51.5644 41.8652 51.6816 41.7665 51.7803C41.6678 51.879 41.5506 51.9573 41.4216 52.0107C41.2927 52.0641 41.1545 52.0916 41.0149 52.0916H37.6928C37.1069 52.0916 36.6299 51.6158 36.6299 51.0287V47.7079C36.6299 47.1208 37.1069 46.6451 37.6928 46.6451H41.0149C41.1545 46.645 41.2927 46.6725 41.4217 46.7259C41.5506 46.7793 41.6678 46.8576 41.7665 46.9563C41.8652 47.055 41.9435 47.1722 41.9969 47.3012C42.0503 47.4301 42.0778 47.5684 42.0778 47.7079ZM50.8101 39.0236V42.3443C50.8101 42.9314 50.3344 43.4072 49.7485 43.4072H46.4264C46.2868 43.4072 46.1486 43.3797 46.0196 43.3263C45.8907 43.2729 45.7735 43.1946 45.6748 43.0959C45.5761 42.9972 45.4978 42.88 45.4444 42.7511C45.391 42.6221 45.3635 42.4839 45.3635 42.3443V39.0236C45.3635 38.884 45.391 38.7458 45.4444 38.6168C45.4978 38.4878 45.5761 38.3707 45.6748 38.272C45.7735 38.1733 45.8907 38.095 46.0196 38.0416C46.1486 37.9882 46.2868 37.9607 46.4264 37.9607H49.7485C50.3345 37.9607 50.8101 38.4364 50.8101 39.0236Z" fill="#2C733F"/>
<path d="M59.6486 39.0236V42.3443C59.6487 42.4839 59.6212 42.6221 59.5678 42.7511C59.5144 42.88 59.4361 42.9972 59.3374 43.0959C59.2387 43.1946 59.1215 43.2729 58.9925 43.3263C58.8636 43.3797 58.7254 43.4072 58.5858 43.4072H55.265C55.1254 43.4072 54.9872 43.3797 54.8583 43.3263C54.7293 43.2729 54.6121 43.1946 54.5134 43.0959C54.4147 42.9972 54.3364 42.88 54.283 42.7511C54.2296 42.6221 54.2021 42.4839 54.2021 42.3443V39.0236C54.2021 38.884 54.2296 38.7458 54.283 38.6168C54.3364 38.4878 54.4147 38.3707 54.5134 38.272C54.6121 38.1733 54.7293 38.095 54.8583 38.0416C54.9872 37.9882 55.1254 37.9607 55.265 37.9607H58.5858C58.7254 37.9607 58.8636 37.9881 58.9926 38.0415C59.1215 38.0949 59.2387 38.1732 59.3374 38.2719C59.4361 38.3706 59.5144 38.4878 59.5678 38.6168C59.6212 38.7458 59.6487 38.884 59.6486 39.0236Z" fill="#EE8700"/>
<path d="M42.0778 39.0236V42.3443C42.0778 42.4839 42.0503 42.6221 41.9969 42.7511C41.9435 42.88 41.8652 42.9972 41.7665 43.0959C41.6678 43.1946 41.5506 43.2729 41.4216 43.3263C41.2927 43.3797 41.1545 43.4072 41.0149 43.4072H37.6928C37.1069 43.4072 36.6299 42.9314 36.6299 42.3443V39.0236C36.6299 38.4364 37.1069 37.9607 37.6928 37.9607H41.0149C41.1545 37.9607 41.2927 37.9881 41.4217 38.0415C41.5506 38.0949 41.6678 38.1732 41.7665 38.2719C41.8652 38.3706 41.9435 38.4878 41.9969 38.6168C42.0503 38.7458 42.0778 38.884 42.0778 39.0236ZM50.8101 55.9659V59.2881C50.8101 59.8752 50.3344 60.3509 49.7485 60.3509H46.4264C46.2868 60.351 46.1486 60.3235 46.0196 60.2701C45.8907 60.2167 45.7735 60.1384 45.6748 60.0397C45.5761 59.941 45.4978 59.8238 45.4444 59.6948C45.391 59.5659 45.3635 59.4277 45.3635 59.2881V55.9659C45.3635 55.3801 45.8393 54.9043 46.4264 54.9043H49.7485C50.3345 54.9043 50.8101 55.3801 50.8101 55.9659ZM42.0778 55.9659V59.2881C42.0778 59.4277 42.0503 59.5659 41.9969 59.6948C41.9435 59.8238 41.8652 59.941 41.7665 60.0397C41.6678 60.1384 41.5506 60.2167 41.4216 60.2701C41.2927 60.3235 41.1545 60.351 41.0149 60.3509H37.6928C37.1069 60.3509 36.6299 59.8752 36.6299 59.2881V55.9659C36.6299 55.3801 37.1069 54.9043 37.6928 54.9043H41.0149C41.6021 54.9043 42.0778 55.3801 42.0778 55.9659Z" fill="#2C733F"/>
<path d="M59.6485 48.2239V58.5375C59.6485 59.5395 58.8371 60.3509 57.8365 60.3509H56.0141C55.0135 60.3509 54.2021 59.5395 54.2021 58.5375V48.2239C54.2021 47.3515 54.9099 46.6451 55.7809 46.6451H58.0699C58.9421 46.6451 59.6485 47.3516 59.6485 48.2239Z" fill="#EE8700"/>
<path d="M50.8101 47.7079V48.6956C50.8101 49.2827 50.3344 49.7584 49.7485 49.7584H46.4264C46.2868 49.7585 46.1486 49.731 46.0196 49.6776C45.8907 49.6242 45.7735 49.5459 45.6748 49.4472C45.5761 49.3485 45.4978 49.2313 45.4444 49.1023C45.391 48.9734 45.3635 48.8352 45.3635 48.6956V47.7079C45.3635 47.5684 45.391 47.4301 45.4444 47.3012C45.4978 47.1722 45.5761 47.055 45.6748 46.9563C45.7735 46.8576 45.8907 46.7793 46.0196 46.7259C46.1486 46.6725 46.2868 46.6451 46.4264 46.6451H49.7485C50.3345 46.6451 50.8101 47.1208 50.8101 47.7079ZM42.0778 47.7079V48.6956C42.0778 48.8352 42.0503 48.9734 41.9969 49.1023C41.9435 49.2313 41.8652 49.3485 41.7665 49.4472C41.6678 49.5459 41.5506 49.6242 41.4216 49.6776C41.2927 49.731 41.1545 49.7585 41.0149 49.7584H37.6928C37.1069 49.7584 36.6299 49.2827 36.6299 48.6956V47.7079C36.6299 47.1208 37.1069 46.6451 37.6928 46.6451H41.0149C41.1545 46.645 41.2927 46.6725 41.4217 46.7259C41.5506 46.7793 41.6678 46.8576 41.7665 46.9563C41.8652 47.055 41.9435 47.1722 41.9969 47.3012C42.0503 47.4301 42.0778 47.5684 42.0778 47.7079ZM50.8101 39.0236V40.0112C50.8101 40.5983 50.3344 41.0741 49.7485 41.0741H46.4264C46.2868 41.0741 46.1486 41.0466 46.0196 40.9932C45.8907 40.9398 45.7735 40.8615 45.6748 40.7628C45.5761 40.6641 45.4978 40.5469 45.4444 40.418C45.391 40.289 45.3635 40.1508 45.3635 40.0112V39.0236C45.3635 38.884 45.391 38.7458 45.4444 38.6168C45.4978 38.4878 45.5761 38.3707 45.6748 38.272C45.7735 38.1733 45.8907 38.095 46.0196 38.0416C46.1486 37.9882 46.2868 37.9607 46.4264 37.9607H49.7485C50.3345 37.9607 50.8101 38.4364 50.8101 39.0236Z" fill="#317F46"/>
<path d="M59.6486 39.0236V40.0112C59.6487 40.1508 59.6212 40.289 59.5678 40.418C59.5144 40.5469 59.4361 40.6641 59.3374 40.7628C59.2387 40.8615 59.1215 40.9398 58.9925 40.9932C58.8636 41.0466 58.7254 41.0741 58.5858 41.0741H55.265C55.1254 41.0741 54.9872 41.0466 54.8583 40.9932C54.7293 40.9398 54.6121 40.8615 54.5134 40.7628C54.4147 40.6641 54.3364 40.5469 54.283 40.418C54.2296 40.289 54.2021 40.1508 54.2021 40.0112V39.0236C54.2021 38.884 54.2296 38.7458 54.283 38.6168C54.3364 38.4878 54.4147 38.3707 54.5134 38.272C54.6121 38.1733 54.7293 38.095 54.8583 38.0416C54.9872 37.9882 55.1254 37.9607 55.265 37.9607H58.5858C58.7254 37.9607 58.8636 37.9881 58.9926 38.0415C59.1215 38.0949 59.2387 38.1732 59.3374 38.2719C59.4361 38.3706 59.5144 38.4878 59.5678 38.6168C59.6212 38.7458 59.6487 38.884 59.6486 39.0236Z" fill="#FF9811"/>
<path d="M42.0778 39.0236V40.0112C42.0778 40.1508 42.0503 40.289 41.9969 40.418C41.9435 40.5469 41.8652 40.6641 41.7665 40.7628C41.6678 40.8615 41.5506 40.9398 41.4216 40.9932C41.2927 41.0466 41.1545 41.0741 41.0149 41.0741H37.6928C37.1069 41.0741 36.6299 40.5983 36.6299 40.0112V39.0236C36.6299 38.4364 37.1069 37.9607 37.6928 37.9607H41.0149C41.1545 37.9607 41.2927 37.9881 41.4217 38.0415C41.5506 38.0949 41.6678 38.1732 41.7665 38.2719C41.8652 38.3706 41.9435 38.4878 41.9969 38.6168C42.0503 38.7458 42.0778 38.884 42.0778 39.0236ZM50.8101 55.9659V56.9549C50.8101 57.5421 50.3344 58.0178 49.7485 58.0178H46.4264C46.2868 58.0178 46.1486 57.9904 46.0196 57.9369C45.8907 57.8835 45.7735 57.8052 45.6748 57.7065C45.5761 57.6078 45.4978 57.4907 45.4444 57.3617C45.391 57.2327 45.3635 57.0945 45.3635 56.9549V55.9659C45.3635 55.3801 45.8393 54.9043 46.4264 54.9043H49.7485C50.3345 54.9043 50.8101 55.3801 50.8101 55.9659ZM42.0778 55.9659V56.9549C42.0778 57.0945 42.0503 57.2327 41.9969 57.3617C41.9435 57.4907 41.8652 57.6078 41.7665 57.7065C41.6678 57.8052 41.5506 57.8835 41.4216 57.9369C41.2927 57.9904 41.1545 58.0178 41.0149 58.0178H37.6928C37.1069 58.0178 36.6299 57.5421 36.6299 56.9549V55.9659C36.6299 55.3801 37.1069 54.9043 37.6928 54.9043H41.0149C41.6021 54.9043 42.0778 55.3801 42.0778 55.9659Z" fill="#317F46"/>
<path d="M59.6485 48.2239V56.2044C59.6485 57.2064 58.8371 58.0178 57.8365 58.0178H56.0141C55.0135 58.0178 54.2021 57.2064 54.2021 56.2044V48.2239C54.2021 47.3515 54.9099 46.6451 55.7809 46.6451H58.0699C58.9421 46.6451 59.6485 47.3516 59.6485 48.2239Z" fill="#FF9811"/>
<path d="M51.1005 9.65999H44.7986C43.7309 9.65999 42.8652 8.79437 42.8652 7.72662V1.00037C43.4257 1.27023 43.9311 1.64182 44.3559 2.09624L47.049 4.97662L50.1309 8.20199C50.5377 8.62689 50.8659 9.12053 51.1005 9.65999Z" fill="#FFB655"/>
<path d="M24.5562 27.701C23.3708 27.2655 22.5146 26.9509 22.5146 25.8528C22.5146 24.852 23.1792 24.3445 24.4901 24.3445C25.371 24.3445 25.8677 24.6002 26.1972 24.7695C26.3927 24.87 26.5616 24.9569 26.7465 24.9569C27.28 24.9569 27.5751 24.3908 27.5751 23.9993C27.5751 23.1894 26.2541 22.7878 25.0731 22.6819V21.9517C25.0731 21.4437 24.6598 21.0304 24.1518 21.0304C23.6438 21.0304 23.2306 21.4437 23.2306 21.9517V22.798C21.6158 23.1814 20.7286 24.2968 20.7286 25.9493C20.7286 28.2119 22.3943 28.8378 23.733 29.341C25.0437 29.8335 26.0791 30.2225 26.0791 31.719C26.0791 32.955 25.3927 33.5818 24.0391 33.5818C22.8131 33.5818 22.3246 33.0553 21.9681 32.6709C21.7556 32.4418 21.5722 32.244 21.2835 32.244C20.8155 32.244 20.4385 32.7679 20.4385 33.2017C20.4385 33.9677 21.5793 34.9745 23.2307 35.236V35.9417C23.2307 36.4497 23.644 36.8629 24.152 36.8629C24.66 36.8629 25.0732 36.4497 25.0732 35.9417V35.2172C26.8495 34.8829 27.8655 33.5785 27.8655 31.6223C27.8651 28.9168 26.0303 28.2428 24.5562 27.701ZM41.6955 14.6924H44.1373C44.6742 14.6924 45.1095 14.2573 45.1095 13.7203C45.1095 13.1833 44.6742 12.7482 44.1373 12.7482H41.6955C41.1586 12.7482 40.7233 13.1833 40.7233 13.7203C40.7233 14.2573 41.1586 14.6924 41.6955 14.6924ZM20.5678 14.6924H37.807C38.3438 14.6924 38.7791 14.2573 38.7791 13.7203C38.7791 13.1833 38.3438 12.7482 37.807 12.7482H20.5678C20.031 12.7482 19.5957 13.1833 19.5957 13.7203C19.5957 14.2573 20.031 14.6924 20.5678 14.6924ZM23.6578 19.5177C24.1947 19.5177 24.63 19.0825 24.63 18.5455C24.63 18.0085 24.1947 17.5734 23.6578 17.5734H20.5678C20.031 17.5734 19.5957 18.0085 19.5957 18.5455C19.5957 19.0825 20.031 19.5177 20.5678 19.5177H23.6578ZM44.1373 17.5734H27.5463C27.0095 17.5734 26.5742 18.0085 26.5742 18.5455C26.5742 19.0825 27.0095 19.5177 27.5463 19.5177H44.1373C44.6742 19.5177 45.1095 19.0825 45.1095 18.5455C45.1095 18.0085 44.6742 17.5734 44.1373 17.5734Z" fill="#4E901E"/>
<path d="M28.429 61.4436C28.429 62.1215 28.1516 62.7358 27.7058 63.1831C27.2586 63.629 26.6441 63.9063 25.9663 63.9063H10.8788C9.52427 63.9063 8.41602 62.7981 8.41602 61.4436C8.41602 60.7657 8.69339 60.1513 9.13927 59.7041C9.58639 59.2582 10.2009 58.9808 10.8788 58.9808H25.9663C27.3209 58.9808 28.429 60.0891 28.429 61.4436Z" fill="#AA6100"/>
<path d="M28.429 56.5182C28.429 57.196 28.1516 57.8104 27.7058 58.2577C27.2586 58.7035 26.6441 58.9809 25.9663 58.9809H10.8788C9.52427 58.9809 8.41602 57.8727 8.41602 56.5182C8.41602 55.8403 8.69339 55.2259 9.13927 54.7787C9.58639 54.3328 10.2009 54.0554 10.8788 54.0554H25.9663C27.3209 54.0554 28.429 55.1637 28.429 56.5182Z" fill="#CC7400"/>
<path d="M28.429 51.5926C28.429 52.2705 28.1516 52.8849 27.7058 53.3321C27.2586 53.778 26.6441 54.0554 25.9663 54.0554H10.8788C9.52427 54.0554 8.41602 52.9471 8.41602 51.5926C8.41602 50.9148 8.69339 50.3004 9.13927 49.8531C9.58639 49.4073 10.2009 49.1299 10.8788 49.1299H25.9663C27.3209 49.13 28.429 50.2381 28.429 51.5926Z" fill="#EE8700"/>
<path d="M28.429 46.6672C28.429 47.3451 28.1516 47.9595 27.7058 48.4067C27.2586 48.8526 26.6441 49.13 25.9663 49.13H10.8788C9.52427 49.13 8.41602 48.0217 8.41602 46.6672C8.41602 46.1851 8.55727 45.734 8.79964 45.3528C8.89666 45.1989 9.01057 45.0563 9.13927 44.9277C9.58639 44.4818 10.2009 44.2045 10.8788 44.2045H25.9663C27.3209 44.2045 28.429 45.3127 28.429 46.6672Z" fill="#FF9811"/>
<path d="M25.9656 44.2047H10.8788C9.52427 44.2047 8.41602 43.0964 8.41602 41.7419C8.41602 40.3874 9.52427 39.2792 10.8788 39.2792H25.9658C27.3203 39.2792 28.4285 40.3874 28.4285 41.7419C28.4284 43.0964 27.3203 44.2047 25.9656 44.2047Z" fill="#FFA733"/>
<path d="M11.4136 48.1541V64.1867H8.96027C6.79389 64.2798 4.79027 63.5028 3.28814 62.1676C-2.16336 57.3297 1.15489 48.4627 8.27377 48.1541H11.4136Z" fill="#CC7400"/>
<path d="M19.7661 56.4605C19.6217 60.6067 16.3054 64.0059 12.0917 64.1863C7.66495 64.3755 3.92282 60.9403 3.73357 56.5136C3.73282 56.4956 3.73195 56.4784 3.73195 56.4605C3.57195 52.0559 6.99757 48.3432 11.4063 48.1547C15.8331 47.9654 19.5752 51.4007 19.7644 55.8283C19.7734 56.0411 19.7742 56.2515 19.7661 56.4605Z" fill="#FFC477"/>
<path d="M13.0761 62.0255C12.9782 62.0475 12.8809 62.0671 12.7832 62.0842C9.65057 62.6358 6.60457 60.6335 5.89294 57.4976C5.16019 54.2637 7.18706 51.0488 10.4208 50.3152C11.2 50.1377 12.0067 50.1177 12.7937 50.2565C15.1013 50.6661 17.0524 52.414 17.6032 54.8431C18.3367 58.0768 16.3098 61.2927 13.0761 62.0255Z" fill="#CC7400"/>
<path d="M13.0764 62.0255C12.9785 62.0475 12.8812 62.0671 12.7835 62.0842C10.4767 61.6746 8.52487 59.926 7.974 57.4976C7.24125 54.2637 9.26812 51.0488 12.5019 50.3152C12.5988 50.2933 12.6962 50.2737 12.794 50.2565C15.1016 50.6661 17.0527 52.414 17.6035 54.8431C18.337 58.0768 16.3101 61.2927 13.0764 62.0255Z" fill="#EE8700"/>
<path d="M19.7656 56.4604C19.6212 60.6066 16.3049 64.0058 12.0912 64.1862C7.66444 64.3755 3.92232 60.9402 3.73307 56.5135C3.73232 56.4955 3.73145 56.4783 3.73145 56.4604H5.75007C5.76771 56.8096 5.81551 57.1566 5.89295 57.4976C6.62657 60.7314 9.84232 62.7591 13.0761 62.0255C15.7664 61.4158 17.6211 59.0887 17.7459 56.4604H19.7656Z" fill="#FFA733"/>
<path d="M12.4689 54.9514L12.3182 54.8958C11.4645 54.582 11.3776 54.4825 11.3776 54.1931C11.3776 53.9495 11.4674 53.8795 11.5515 53.8329C11.6825 53.7604 11.8881 53.7204 12.1304 53.7204C12.5539 53.7204 12.7671 53.8303 12.9571 53.9279C13.1025 54.0026 13.2674 54.0873 13.4819 54.0873C14.0364 54.0873 14.4089 53.568 14.4089 53.083C14.4089 52.4919 13.8802 52.0845 12.9104 51.9176V51.8566C12.9104 51.315 12.4696 50.8743 11.928 50.8743C11.3864 50.8743 10.9456 51.315 10.9456 51.8566V52.043C9.98862 52.3901 9.44712 53.1796 9.44712 54.2509C9.44712 55.9043 10.6484 56.3556 11.5257 56.6854C12.3622 56.9998 12.6516 57.1374 12.6516 57.7065C12.6516 58.0623 12.5559 58.3914 11.8605 58.3914C11.314 58.3914 11.1217 58.1841 10.9356 57.9834C10.7905 57.8268 10.5709 57.5904 10.21 57.5904C9.67387 57.5904 9.27325 58.1205 9.27325 58.5945C9.27325 59.2661 9.97162 59.9035 10.9457 60.1621V60.2356C10.9457 60.7773 11.3865 61.218 11.9281 61.218C12.4697 61.218 12.9105 60.7773 12.9105 60.2356V60.1364C13.9644 59.7975 14.5829 58.8901 14.5829 57.6486C14.5822 55.7394 13.2076 55.2268 12.4689 54.9514ZM5.0535 51.749C4.65556 52.3502 4.34075 53.0025 4.11762 53.688H0.986872C1.20987 52.9858 1.5475 52.312 1.92137 51.749H5.0535ZM3.788 57.1768H0.655872C0.574912 56.5332 0.571849 55.8821 0.646747 55.2378H3.78012C3.705 55.8674 3.70662 56.5219 3.788 57.1768ZM5.16337 60.7535H2.03C1.6127 60.1556 1.27954 59.5032 1.03987 58.8145H4.172C4.41147 59.5035 4.74509 60.156 5.16337 60.7535Z" fill="#AA6100"/>
</svg>
