<svg width="65" height="65" viewBox="0 0 65 65" fill="none" xmlns="http://www.w3.org/2000/svg">
<path d="M64.5 32.5C64.5 36.4275 63.7925 40.1912 62.4963 43.6675C61.4637 46.4412 52.8465 44.8727 51.1278 47.2215C50.9378 47.4803 50.7453 47.7365 50.5465 47.9902C49.894 48.829 50.0945 49.7366 49.3619 50.5054C48.5356 51.3729 53.9774 56.2525 53.0586 57.0226C47.4975 61.69 40.3262 64.5 32.5 64.5C24.6725 64.5 17.5025 61.6888 11.9412 57.0225C10.2082 55.5679 8.63323 53.9347 7.2425 52.15C3.0175 46.7275 0.5 39.9075 0.5 32.5C0.5 25.0925 3.0175 18.2725 7.2425 12.85C7.46 12.57 7.6825 12.2937 7.91 12.0225C13.7787 4.98125 22.6162 0.5 32.5 0.5C41.82 0.5 50.2087 4.48375 56.0575 10.8425C56.4112 11.2275 56.755 11.62 57.09 12.0225C57.3175 12.295 57.54 12.5712 57.7575 12.8512C59.761 15.4197 61.3592 18.28 62.4963 21.3325C63.7925 24.8088 64.5 28.5725 64.5 32.5Z" fill="#FFE04A"/>
<path d="M16.1017 14.0739C13.1355 14.0739 10.7227 11.6609 10.7227 8.69492C10.7227 5.72892 13.1357 3.31592 16.1017 3.31592C19.0677 3.31592 21.4808 5.72892 21.4808 8.69492C21.4808 11.6609 19.0678 14.0739 16.1017 14.0739ZM16.1017 5.81579C14.5142 5.81579 13.2227 7.10729 13.2227 8.69479C13.2227 10.2823 14.5142 11.5738 16.1017 11.5738C17.6892 11.5738 18.9808 10.2823 18.9808 8.69479C18.9808 7.10729 17.6892 5.81579 16.1017 5.81579ZM48.8985 14.0739C45.9324 14.0739 43.5195 11.6609 43.5195 8.69492C43.5195 5.72892 45.9325 3.31592 48.8985 3.31592C51.8645 3.31592 54.2777 5.72879 54.2777 8.69492C54.2777 11.661 51.8647 14.0739 48.8985 14.0739ZM48.8985 5.81579C47.311 5.81579 46.0195 7.10729 46.0195 8.69479C46.0195 10.2823 47.311 11.5738 48.8985 11.5738C50.486 11.5738 51.7777 10.2823 51.7777 8.69479C51.7777 7.10729 50.486 5.81579 48.8985 5.81579Z" fill="#5A565E"/>
<path d="M57.7572 12.0225V52.1487C57.105 52.9875 56.4112 53.7931 55.6784 54.5625C54.8518 55.4308 53.9771 56.2521 53.0584 57.0225H7.24219V12.0225H57.7572Z" fill="#3DB777"/>
<path d="M15.3282 51.7754H49.6725C51.0544 51.7754 52.1747 52.8956 52.1747 54.2775V57.0226H12.8262V54.2775C12.8262 52.8956 13.9463 51.7754 15.3282 51.7754Z" fill="#4AC688"/>
<path d="M7.29628 59.0473H4.52853C3.41028 59.0473 2.50391 58.1408 2.50391 57.0227V12.0222C2.50391 10.9039 3.41041 9.99756 4.52853 9.99756H7.29628C8.41453 9.99756 9.32091 10.9041 9.32091 12.0222V57.0227C9.32091 58.1408 8.41441 59.0473 7.29628 59.0473Z" fill="#5BD89D"/>
<path d="M7.18891 59.0473H4.52891C3.41016 59.0473 2.50391 58.1411 2.50391 57.0223V12.0223C2.50391 10.9036 3.41016 9.99731 4.52891 9.99731H7.18891C6.07016 9.99731 5.16391 10.9036 5.16391 12.0223V57.0223C5.16391 58.1411 6.07016 59.0473 7.18891 59.0473Z" fill="#4AC688"/>
<path d="M62.4972 12.0226V43.6676C60.9734 47.7613 58.6347 51.4576 55.6797 54.5626V12.0226C55.6797 11.5813 55.8197 11.1751 56.0584 10.8426C56.4259 10.3313 57.0259 9.99756 57.7047 9.99756H60.4722C61.5897 9.99756 62.4972 10.9038 62.4972 12.0226Z" fill="#5BD89D"/>
<path d="M60.3647 9.99756C59.2459 9.99756 58.3397 10.9038 58.3397 12.0226V51.3801C57.5227 52.4972 56.6341 53.5603 55.6797 54.5626V12.0226C55.6797 11.5813 55.8197 11.1751 56.0584 10.8426C56.4259 10.3313 57.0259 9.99756 57.7047 9.99756H60.3647Z" fill="#4AC688"/>
<path d="M17.8237 47.9903H14.454C13.227 47.9903 12.2324 46.9957 12.2324 45.7687V18.288C12.2324 17.061 13.227 16.0664 14.454 16.0664H17.8237C19.0507 16.0664 20.0453 17.061 20.0453 18.288V45.7687C20.0453 46.9957 19.0505 47.9903 17.8237 47.9903ZM28.7314 47.9903H25.3618C24.1348 47.9903 23.1402 46.9957 23.1402 45.7687V18.288C23.1402 17.061 24.1348 16.0664 25.3618 16.0664H28.7314C29.9584 16.0664 30.953 17.061 30.953 18.288V45.7687C30.953 46.9957 29.9584 47.9903 28.7314 47.9903ZM39.6393 47.9903H36.2697C35.0427 47.9903 34.048 46.9957 34.048 45.7687V18.288C34.048 17.061 35.0427 16.0664 36.2697 16.0664H39.6393C40.8663 16.0664 41.8609 17.061 41.8609 18.288V45.7687C41.8609 46.9957 40.8662 47.9903 39.6393 47.9903ZM50.547 47.9903H47.1774C45.9504 47.9903 44.9558 46.9957 44.9558 45.7687V18.288C44.9558 17.061 45.9504 16.0664 47.1774 16.0664H50.547C51.774 16.0664 52.7687 17.061 52.7687 18.288V45.7687C52.7687 46.9957 51.774 47.9903 50.547 47.9903Z" fill="#5BD89D"/>
<path d="M47.6808 16.0662H50.547C51.7745 16.0662 52.7683 17.0599 52.7683 18.2874V45.7687C52.7683 46.9949 51.7745 47.9899 50.547 47.9899H47.6808C48.907 47.9899 49.902 46.9949 49.902 45.7687V18.2874C49.902 17.0599 48.907 16.0662 47.6808 16.0662ZM36.772 16.0662H39.6395C40.8658 16.0662 41.8608 17.0599 41.8608 18.2874V45.7687C41.8608 46.9949 40.8658 47.9899 39.6395 47.9899H36.772C37.9995 47.9899 38.9945 46.9949 38.9945 45.7687V18.2874C38.9945 17.0599 37.9995 16.0662 36.772 16.0662ZM25.8645 16.0662H28.732C29.9583 16.0662 30.9533 17.0599 30.9533 18.2874V45.7687C30.9533 46.9949 29.9583 47.9899 28.732 47.9899H25.8645C27.092 47.9899 28.0858 46.9949 28.0858 45.7687V18.2874C28.0858 17.0599 27.092 16.0662 25.8645 16.0662ZM14.957 16.0662H17.8233C19.0508 16.0662 20.0458 17.0599 20.0458 18.2874V45.7687C20.0458 46.9949 19.0508 47.9899 17.8233 47.9899H14.957C16.1845 47.9899 17.1783 46.9949 17.1783 45.7687V18.2874C17.1783 17.0599 16.1845 16.0662 14.957 16.0662Z" fill="#4AC688"/>
<path d="M59.1208 34.5449L10.1842 47.6574C8.61869 48.0769 7.00956 47.1479 6.59019 45.5824L3.80581 35.191C3.38631 33.6255 4.31531 32.0164 5.88081 31.597L54.8174 18.4845C56.3829 18.065 57.9921 18.994 58.4114 20.5595L61.1958 30.951C61.6153 32.5164 60.6863 34.1254 59.1208 34.5449Z" fill="#FCF8F2"/>
<path d="M12.1485 47.131L10.1847 47.6573C8.61845 48.0773 7.0097 47.1485 6.5897 45.5823L3.80595 35.191C3.38595 33.626 4.31595 32.016 5.88095 31.5973L7.1822 31.2485C6.66595 31.9773 6.46595 32.9223 6.71595 33.8523L9.6672 44.8685C9.9922 46.0798 10.9885 46.9323 12.1485 47.131Z" fill="#E0DDDA"/>
<path d="M20.2548 31.6584C20.1421 31.433 19.9581 31.2512 19.7313 31.1414C19.5045 31.0315 19.2478 30.9997 19.0011 31.051C18.7485 31.1035 18.5212 31.24 18.3563 31.4382C18.1913 31.6365 18.0984 31.8849 18.0928 32.1428L17.9888 38.6879L14.5602 33.0793C14.424 32.86 14.2176 32.6934 13.9746 32.6065C13.7316 32.5196 13.4664 32.5176 13.2221 32.6008C12.7317 32.768 12.4151 33.2458 12.4531 33.7734L13.1949 42.6658C13.2052 42.7884 13.2395 42.9079 13.2959 43.0173C13.3523 43.1268 13.4297 43.224 13.5237 43.3035C13.6177 43.383 13.7265 43.4433 13.8437 43.4807C13.961 43.5182 14.0845 43.5323 14.2072 43.522C14.3299 43.5118 14.4494 43.4775 14.5588 43.421C14.6682 43.3646 14.7655 43.2872 14.845 43.1932C14.9245 43.0992 14.9847 42.9905 15.0222 42.8732C15.0597 42.7559 15.0737 42.6324 15.0634 42.5098L14.5792 36.7054L17.7127 41.8314C17.8416 42.0398 18.0343 42.2011 18.2622 42.2913C18.4901 42.3815 18.7409 42.3957 18.9776 42.332L18.9831 42.3305C19.2204 42.266 19.4305 42.1264 19.5819 41.9325C19.7333 41.7387 19.8179 41.501 19.8231 41.2551L19.9182 35.2681L22.4669 40.5358C22.5753 40.7595 22.7681 40.9311 23.0029 41.0128C23.2377 41.0945 23.4954 41.0796 23.7192 40.9714C23.83 40.9178 23.9292 40.8429 24.0111 40.7509C24.0929 40.659 24.1559 40.5518 24.1963 40.4355C24.2368 40.3193 24.2539 40.1962 24.2468 40.0733C24.2396 39.9504 24.2083 39.8301 24.1547 39.7193L20.2548 31.6584ZM8.04444 33.9849C7.92552 34.0168 7.81404 34.0717 7.71637 34.1467C7.6187 34.2216 7.53674 34.3151 7.47519 34.4217C7.41364 34.5283 7.37369 34.6461 7.35762 34.7681C7.34156 34.8902 7.3497 35.0142 7.38157 35.1331L9.71544 43.8434C9.74731 43.9623 9.8023 44.0738 9.87725 44.1715C9.9522 44.2691 10.0457 44.3511 10.1523 44.4126C10.2589 44.4742 10.3766 44.5141 10.4987 44.5302C10.6207 44.5463 10.7448 44.5381 10.8637 44.5063C10.9826 44.4744 11.0941 44.4194 11.1918 44.3445C11.2894 44.2695 11.3714 44.176 11.4329 44.0694C11.4945 43.9628 11.5344 43.8451 11.5505 43.723C11.5666 43.601 11.5584 43.4769 11.5266 43.358L9.19269 34.6478C9.16083 34.5288 9.10585 34.4174 9.03089 34.3197C8.95594 34.222 8.86248 34.1401 8.75586 34.0785C8.64923 34.017 8.53153 33.977 8.40946 33.9609C8.2874 33.9449 8.16336 33.953 8.04444 33.9849ZM54.1352 21.6349L49.3251 22.9238C49.2062 22.9556 49.0947 23.0106 48.997 23.0856C48.8993 23.1605 48.8174 23.254 48.7558 23.3606C48.6315 23.5759 48.5978 23.8318 48.6622 24.072C48.6941 24.1909 48.749 24.3024 48.824 24.4001C48.8989 24.4978 48.9924 24.5797 49.099 24.6413C49.3144 24.7656 49.5703 24.7992 49.8104 24.7349L51.3002 24.3356L53.3914 32.1403C53.4233 32.2592 53.4783 32.3707 53.5532 32.4683C53.6282 32.566 53.7217 32.648 53.8283 32.7095C53.9349 32.7711 54.0526 32.811 54.1747 32.8271C54.2967 32.8431 54.4208 32.835 54.5397 32.8031C54.6586 32.7713 54.7701 32.7163 54.8678 32.6413C54.9654 32.5664 55.0474 32.4729 55.1089 32.3663C55.1705 32.2597 55.2104 32.142 55.2265 32.0199C55.2426 31.8978 55.2344 31.7738 55.2026 31.6549L53.1113 23.8503L54.6206 23.4459C54.7405 23.415 54.8531 23.3606 54.9519 23.2859C55.0507 23.2111 55.1337 23.1176 55.1962 23.0106C55.2586 22.9036 55.2992 22.7854 55.3156 22.6626C55.3321 22.5398 55.3241 22.415 55.292 22.2954C55.2599 22.1757 55.2045 22.0636 55.1288 21.9656C55.0532 21.8675 54.9589 21.7854 54.8513 21.7239C54.7437 21.6625 54.6251 21.623 54.5022 21.6078C54.3792 21.5925 54.2545 21.6017 54.1352 21.6349ZM49.0181 26.4028C48.5498 24.6553 46.6897 23.6299 44.8716 24.117L42.5569 24.7373C42.4377 24.7691 42.326 24.8242 42.2281 24.8994C42.1303 24.9745 42.0482 25.0683 41.9867 25.1752C41.9252 25.2822 41.8854 25.4003 41.8696 25.5226C41.8539 25.645 41.8624 25.7693 41.8948 25.8884L44.2251 34.5964C44.2569 34.7153 44.3119 34.8268 44.3869 34.9245C44.4618 35.0221 44.5553 35.1041 44.6619 35.1656C44.7685 35.2272 44.8862 35.2671 45.0083 35.2832C45.1304 35.2993 45.2544 35.2911 45.3733 35.2593C45.4922 35.2274 45.6037 35.1724 45.7014 35.0975C45.7991 35.0225 45.881 34.929 45.9426 34.8224C46.0041 34.7158 46.0441 34.5981 46.0601 34.476C46.0762 34.354 46.0681 34.2299 46.0362 34.111L45.2454 31.1599L49.3203 33.8723C49.4312 33.9462 49.5565 33.9956 49.6881 34.0172C49.8196 34.0388 49.9542 34.032 50.0828 33.9973C50.257 33.9505 50.4139 33.8545 50.5349 33.7208C50.6559 33.5872 50.7357 33.4214 50.7649 33.2435C50.7941 33.0656 50.7713 32.883 50.6993 32.7177C50.6274 32.5523 50.5093 32.4113 50.3592 32.3114L47.2107 30.2156C48.6359 29.519 49.4283 27.9339 49.0181 26.4028ZM46.0847 28.6445C45.7616 28.7311 45.1837 28.8886 44.6878 29.0241C44.5548 28.5379 44.0884 26.8139 43.9507 26.305L45.3569 25.9283C46.1626 25.7124 47.0097 26.152 47.2069 26.8881C47.4042 27.6243 46.8902 28.4286 46.0847 28.6445ZM26.3083 29.0911L23.8831 29.741C23.7639 29.773 23.6522 29.8281 23.5544 29.9033C23.4566 29.9785 23.3746 30.0722 23.313 30.1792C23.2515 30.2862 23.2117 30.4042 23.1959 30.5265C23.1801 30.6489 23.1886 30.7732 23.2209 30.8923L25.5541 39.5995C25.5859 39.7184 25.6409 39.8299 25.7159 39.9276C25.7908 40.0253 25.8843 40.1072 25.9909 40.1688C26.0975 40.2303 26.2152 40.2703 26.3373 40.2863C26.4594 40.3024 26.5834 40.2943 26.7023 40.2624C26.8212 40.2305 26.9327 40.1755 27.0304 40.1006C27.1281 40.0256 27.21 39.9322 27.2716 39.8255C27.3331 39.7189 27.3731 39.6012 27.3891 39.4792C27.4052 39.3571 27.3971 39.2331 27.3652 39.1141L26.5927 36.2314C27.1228 36.0863 27.7604 35.9123 28.1109 35.8184C29.9922 35.3143 31.1184 33.3953 30.6214 31.5406C30.1244 29.686 28.1896 28.587 26.3083 29.0911ZM27.6256 34.0071C27.2777 34.1004 26.6479 34.2721 26.1192 34.4168C25.9702 33.8721 25.4308 31.8781 25.2766 31.3086L26.7936 30.9021C27.6612 30.6696 28.5847 31.1841 28.8102 32.0258C29.0357 32.8674 28.4931 33.7748 27.6256 34.0071ZM35.4003 26.6549C32.4996 27.4321 30.7721 30.4244 31.5493 33.3251C32.3266 36.2259 35.3188 37.9535 38.2194 37.1763C41.1202 36.399 42.8477 33.4068 42.0704 30.506C41.2932 27.6053 38.3009 25.8776 35.4003 26.6549ZM37.7342 35.3651C35.8322 35.8748 33.8701 34.742 33.3604 32.8399C32.8508 30.9378 33.9836 28.9758 35.8856 28.466C37.7876 27.9564 39.7497 29.0891 40.2593 30.9913C40.7689 32.8934 39.6362 34.8555 37.7342 35.3651Z" fill="#434C54"/>
</svg>
