<svg width="63" height="64" viewBox="0 0 63 64" fill="none" xmlns="http://www.w3.org/2000/svg">
<path d="M47.6207 64.0001H7.65933C6.70945 64.0001 5.93945 63.2301 5.93945 62.2803V7.12588C5.93945 6.17601 6.70945 5.40601 7.65933 5.40601H47.6207C48.5706 5.40601 49.3405 6.17601 49.3405 7.12588V62.2804C49.3406 63.2301 48.5706 64.0001 47.6207 64.0001Z" fill="#F2FBFF"/>
<path d="M47.6213 5.40601H42.4629L44.1833 56.8744L44.1828 62.2803C44.1828 63.2301 43.4128 64.0001 42.4629 64.0001H47.6213C48.5711 64.0001 49.3411 63.2301 49.3411 62.2803V7.12588C49.3411 6.17601 48.5711 5.40601 47.6213 5.40601Z" fill="#DFF6FD"/>
<path d="M42.4625 58.5942H2.50113C1.55125 58.5942 0.78125 57.8242 0.78125 56.8745V1.72C0.78125 0.770122 1.55125 0.00012207 2.50113 0.00012207H42.4626C43.4125 0.00012207 44.1824 0.770122 44.1824 1.72V56.8745C44.1824 57.8242 43.4124 58.5942 42.4625 58.5942Z" fill="#DFF6FD"/>
<path d="M42.4618 0.00012207H37.4922C38.4421 0.00012207 39.2119 0.770122 39.2119 1.72V4.23925L37.9936 8.30687L39.2118 12.8536L39.2119 56.8745C39.2119 57.8244 38.4419 58.5944 37.4922 58.5944H42.4618C43.4117 58.5944 44.1817 57.8244 44.1817 56.8745V1.72C44.1817 0.770122 43.4117 0.00012207 42.4618 0.00012207Z" fill="#C8EFFE"/>
<path d="M30.03 23.808H17.8041C17.548 23.808 17.3024 23.7063 17.1212 23.5252C16.9401 23.3441 16.8384 23.0984 16.8384 22.8423C16.8384 22.5861 16.9401 22.3405 17.1212 22.1594C17.3024 21.9783 17.548 21.8765 17.8041 21.8765H30.03C30.2861 21.8765 30.5318 21.9783 30.7129 22.1594C30.894 22.3405 30.9957 22.5861 30.9957 22.8423C30.9957 23.0984 30.894 23.3441 30.7129 23.5252C30.5318 23.7063 30.2861 23.808 30.03 23.808ZM40.0926 27.636C40.0927 27.7629 40.0678 27.8885 40.0192 28.0057C39.9707 28.1229 39.8996 28.2294 39.8099 28.3191C39.7202 28.4088 39.6137 28.4799 39.4965 28.5284C39.3793 28.5769 39.2537 28.6018 39.1269 28.6018H4.16887C3.63575 28.6018 3.20312 28.1692 3.20312 27.636C3.20312 27.1029 3.63575 26.6703 4.16887 26.6703H39.1268C39.2536 26.6702 39.3792 26.6951 39.4964 26.7436C39.6137 26.7921 39.7202 26.8633 39.8099 26.953C39.8996 27.0426 39.9707 27.1491 40.0192 27.2663C40.0678 27.3836 40.0927 27.5092 40.0926 27.636ZM39.4398 32.4303C39.4398 32.6659 39.3548 32.8823 39.2131 33.0497C39.123 33.1582 39.01 33.2456 38.8823 33.3054C38.7545 33.3653 38.6151 33.3962 38.474 33.396H4.16887C3.63575 33.396 3.20312 32.9634 3.20312 32.4303C3.20312 31.8972 3.63575 31.4645 4.16887 31.4645H38.4739C38.615 31.4643 38.7544 31.4953 38.8821 31.5551C39.0099 31.615 39.1229 31.7023 39.213 31.8109C39.3597 31.9839 39.4401 32.2035 39.4398 32.4303ZM40.1789 18.1519C40.1789 18.2787 40.154 18.4044 40.1055 18.5216C40.057 18.6388 39.9859 18.7453 39.8962 18.8349C39.8065 18.9246 39.7 18.9958 39.5828 19.0443C39.4656 19.0928 39.34 19.1177 39.2131 19.1177H4.16887C3.63575 19.1177 3.20312 18.685 3.20312 18.1519C3.20312 17.6188 3.63575 17.1862 4.16887 17.1862H39.2131C39.34 17.1861 39.4656 17.211 39.5828 17.2595C39.7 17.308 39.8065 17.3792 39.8962 17.4689C39.9859 17.5586 40.057 17.6651 40.1055 17.7823C40.154 17.8995 40.1789 18.0251 40.1789 18.1519Z" fill="#8EBAC5"/>
<path d="M39.2129 31.8109C39.3545 31.9783 39.4395 32.1947 39.4395 32.4303C39.4395 32.6659 39.3545 32.8823 39.2129 33.0497V31.8109ZM41.3311 27.636C41.3312 27.7629 41.3063 27.8885 41.2578 28.0057C41.2092 28.1229 41.1381 28.2294 41.0484 28.3191C40.9587 28.4088 40.8522 28.4799 40.735 28.5284C40.6178 28.5769 40.4922 28.6018 40.3654 28.6018H39.2129V26.6702H40.3654C40.4922 26.6701 40.6178 26.6951 40.735 26.7436C40.8522 26.7921 40.9587 26.8633 41.0484 26.953C41.1381 27.0427 41.2092 27.1492 41.2577 27.2664C41.3062 27.3836 41.3312 27.5092 41.3311 27.636ZM40.4516 19.1178H39.2129V17.1862H40.4516C40.5785 17.1861 40.7041 17.2111 40.8213 17.2596C40.9385 17.3081 41.045 17.3792 41.1346 17.4689C41.2243 17.5586 41.2955 17.6651 41.344 17.7823C41.3925 17.8995 41.4174 18.0251 41.4174 18.1519C41.4175 18.2788 41.3926 18.4044 41.344 18.5216C41.2955 18.6388 41.2244 18.7453 41.1347 18.835C41.045 18.9247 40.9385 18.9959 40.8213 19.0444C40.7041 19.0929 40.5785 19.1178 40.4516 19.1178Z" fill="#7CA1B1"/>
<path d="M45.2465 40.858L35.6128 31.2244C34.9363 30.5479 34.9363 29.451 35.6128 28.7745L36.1731 28.2144L48.5581 39.6617L45.2465 40.858Z" fill="#8EBAC5"/>
<path d="M46.2679 29.2973L41.5233 26.6054C41.3448 26.7233 41.2164 26.8321 41.0593 26.9894L39.8164 28.2323L48.2553 37.8138C48.2552 37.8135 47.5254 30.5548 46.2679 29.2973ZM60.972 16.0866C59.1493 14.2639 56.1368 14.4695 54.5787 16.5233L49.1638 23.6605L50.3464 26.6704L53.3983 27.895L60.5355 22.4801C62.589 20.9219 62.7948 17.9094 60.972 16.0866Z" fill="#E19974"/>
<path d="M60.972 16.0866C59.6541 14.7687 57.7146 14.5118 56.1524 15.2463C56.5958 15.4554 56.9997 15.7396 57.3461 16.0866C59.1689 17.9093 58.9632 20.9218 56.9095 22.48L51.834 26.3307L52.0624 27.3588L53.3981 27.8948L60.5354 22.48C62.5891 20.9218 62.7947 17.9093 60.972 16.0866Z" fill="#D77F4A"/>
<path d="M49.9572 31.3345L47.1785 30.3074L45.7227 27.1L49.1624 23.6604L51.8327 26.3307L49.9572 31.3345Z" fill="#FEF48B"/>
<path d="M49.7713 27.8948L48.1445 29.5216L48.4688 30.7842L49.9575 31.3344L53.3973 27.8948L51.833 26.3306L49.7713 27.8948Z" fill="#FEE45A"/>
<path d="M50.0696 31.4454L45.6134 26.9892C44.5008 25.8766 42.7771 25.7491 41.5234 26.6052C41.6898 26.7185 41.8451 26.847 41.9874 26.9892L46.4436 31.4454C47.5042 32.506 47.6703 34.1225 46.9417 35.3572L48.2553 37.8135L50.0694 35.9994C51.3271 34.7419 51.3271 32.7029 50.0696 31.4454Z" fill="#D77F4A"/>
<path d="M49.4315 37.848L39.2099 27.6264C38.5334 26.9499 37.4365 26.9499 36.76 27.6264L36.1719 28.2144L45.8055 37.848C46.482 38.5245 46.482 39.6214 45.8055 40.2979L45.2454 40.858L45.8334 41.446C46.5099 42.1225 47.6067 42.1225 48.2832 41.446L49.4315 40.2978C50.108 39.6213 50.108 38.5245 49.4315 37.848Z" fill="#7CA1B1"/>
<path d="M5.59786 51.947C5.43162 51.9469 5.26822 51.9038 5.12348 51.822C4.97874 51.7403 4.85756 51.6225 4.77167 51.4802C4.68579 51.3378 4.6381 51.1757 4.63323 51.0095C4.62836 50.8434 4.66646 50.6787 4.74386 50.5316C5.07061 49.91 5.73861 49.3114 6.57649 48.8895C7.11499 48.6184 8.15436 48.2137 9.06461 48.5515C9.17686 48.5932 9.36574 48.679 9.55849 48.8357C10.1389 48.4016 10.835 48.1921 11.5549 48.4004C11.7768 48.4649 11.9844 48.5714 12.1664 48.714C12.3649 48.5561 12.574 48.4117 12.792 48.282C13.7589 47.7022 14.8396 47.4022 15.3977 47.275C15.6457 47.2228 15.9042 47.2701 16.1176 47.4068C16.331 47.5434 16.4822 47.7584 16.5385 48.0055C16.5948 48.2525 16.5518 48.5118 16.4188 48.7275C16.2858 48.9431 16.0733 49.0979 15.8272 49.1584C14.2235 49.5241 12.9617 50.289 12.8256 50.978L12.8252 50.9797C12.801 51.1043 12.7525 51.2228 12.6825 51.3285C12.6124 51.4343 12.5222 51.5252 12.417 51.5961C12.3118 51.667 12.1937 51.7164 12.0694 51.7416C11.945 51.7668 11.817 51.7672 11.6925 51.7429C11.568 51.7186 11.4495 51.6701 11.3438 51.6C11.238 51.53 11.1471 51.4398 11.0763 51.3346C11.0054 51.2294 10.956 51.1113 10.9307 50.9869C10.9055 50.8626 10.9051 50.7346 10.9294 50.6101L10.9296 50.6087C10.9626 50.4387 10.9604 50.3284 10.9521 50.2644C10.7667 50.3096 10.3516 50.5575 10.076 51.2665C9.98734 51.4937 9.81598 51.679 9.59633 51.7852C9.37669 51.8913 9.12503 51.9103 8.8919 51.8386C8.65876 51.7668 8.46143 51.6094 8.33953 51.3981C8.21763 51.1868 8.18019 50.9372 8.23474 50.6995C8.27261 50.5351 8.28274 50.4224 8.28324 50.35C7.82736 50.3552 6.73499 50.8946 6.45349 51.4304C6.37157 51.5863 6.24854 51.7169 6.09772 51.808C5.9469 51.899 5.77404 51.9471 5.59786 51.947Z" fill="#FE99A0"/>
<path d="M39.2128 44.8414C39.0349 44.7931 38.8512 44.7688 38.6668 44.7693H36.9181C35.7295 42.0883 33.0678 40.3318 30.088 40.3318C28.6422 40.3305 27.2272 40.7492 26.0149 41.537C24.8027 42.3247 23.8453 43.4477 23.2592 44.7693H21.5105C20.3567 44.7693 19.418 45.708 19.418 46.8618V49.0638C19.418 50.2175 20.3567 51.1563 21.5105 51.1563H23.258C23.8445 52.4779 24.8022 53.6007 26.0146 54.3884C27.2271 55.1762 28.6422 55.5949 30.0881 55.5938C33.0678 55.5938 35.7296 53.8373 36.9182 51.1563H38.667C38.8562 51.1563 39.0391 51.1318 39.213 51.0842L39.9862 47.324L39.2128 44.8414ZM30.088 42.2633C31.0085 42.2624 31.9147 42.491 32.7246 42.9286C33.5345 43.3661 34.2225 43.9987 34.7263 44.7692H25.4496C25.9536 43.9989 26.6417 43.3665 27.4515 42.929C28.2614 42.4914 29.1675 42.2627 30.088 42.2633ZM30.088 53.6623C29.1675 53.6629 28.2614 53.4341 27.4515 52.9966C26.6417 52.5591 25.9536 51.9266 25.4496 51.1564H34.7277C34.2235 51.9268 33.5353 52.5593 32.7252 52.9969C31.9151 53.4344 31.0087 53.6631 30.088 53.6623ZM38.8278 49.0638C38.8278 49.1527 38.7557 49.2248 38.6668 49.2248H21.5105C21.4678 49.2248 21.4268 49.2078 21.3966 49.1776C21.3664 49.1474 21.3495 49.1065 21.3495 49.0638V46.8618C21.3495 46.7729 21.4216 46.7008 21.5105 46.7008H38.6668C38.7557 46.7008 38.8278 46.7729 38.8278 46.8618V49.0638Z" fill="#A274BF"/>
<path d="M40.7594 46.8618V49.0638C40.7594 50.0283 40.1026 50.8434 39.2129 51.0842V44.8414C40.1026 45.0822 40.7594 45.8973 40.7594 46.8618Z" fill="#925CB4"/>
<path d="M26.5759 4.03272C26.4919 3.81173 26.3425 3.62158 26.1477 3.4876C25.9529 3.35362 25.7219 3.28215 25.4854 3.28272H25.4841C25.2483 3.28247 25.018 3.35383 24.8237 3.48736C24.6293 3.62088 24.4801 3.81028 24.3958 4.03047L21.0483 12.8197C20.9571 13.0591 20.9648 13.3248 21.0696 13.5586C21.1744 13.7923 21.3677 13.9748 21.6071 14.066C21.7256 14.1111 21.8518 14.1325 21.9786 14.1288C22.1054 14.1252 22.2302 14.0966 22.346 14.0447C22.4617 13.9928 22.5661 13.9186 22.6531 13.8264C22.7402 13.7341 22.8082 13.6256 22.8533 13.5071L23.4501 11.9402H27.4952L28.0856 13.5045C28.1549 13.6881 28.2785 13.8463 28.4399 13.9579C28.6014 14.0696 28.793 14.1294 28.9893 14.1295C29.1026 14.1295 29.2178 14.1093 29.3301 14.067C29.4487 14.0222 29.5574 13.9545 29.6499 13.8677C29.7424 13.7809 29.8169 13.6768 29.8692 13.5612C29.9214 13.4456 29.9504 13.3209 29.9544 13.1941C29.9585 13.0673 29.9375 12.941 29.8927 12.8223L26.5759 4.03272ZM24.1858 10.0085L25.4821 6.60509L26.7664 10.0085H24.1858ZM39.2114 4.23909C39.209 3.98461 39.1062 3.74137 38.9254 3.56226C38.7446 3.38315 38.5004 3.28265 38.2459 3.28259H38.2364C37.9803 3.28507 37.7356 3.38919 37.5562 3.57206C37.3769 3.75493 37.2775 4.00157 37.2799 4.25772L37.2538 10.1753L33.0197 3.71634C32.9027 3.54681 32.7346 3.41912 32.5399 3.35193C32.3452 3.28473 32.1341 3.28154 31.9374 3.34283C31.7408 3.40412 31.5689 3.52668 31.4469 3.6926C31.3248 3.85852 31.259 4.05912 31.2591 4.26509V13.1632C31.2591 13.4194 31.3608 13.665 31.5419 13.8461C31.723 14.0272 31.9687 14.129 32.2248 14.129C32.4809 14.129 32.7266 14.0272 32.9077 13.8461C33.0888 13.665 33.1906 13.4194 33.1906 13.1632V7.36322L37.2203 13.5265C37.5102 13.945 37.9908 14.1241 38.4454 13.9816C38.9106 13.8363 39.2112 13.3972 39.2112 12.8536L39.2114 4.23909ZM8.67344 12.19H8.66794C7.91956 12.1942 7.11469 12.1971 6.51744 12.1975V4.24859C6.51744 3.99246 6.41569 3.74682 6.23458 3.5657C6.05346 3.38459 5.80782 3.28284 5.55169 3.28284C5.29555 3.28284 5.04991 3.38459 4.8688 3.5657C4.68769 3.74682 4.58594 3.99246 4.58594 4.24859V13.1558C4.58593 13.3835 4.66638 13.6039 4.81308 13.7781C4.95978 13.9522 5.16329 14.0689 5.38769 14.1076C5.45656 14.1196 5.51556 14.1297 6.50244 14.1297C6.97769 14.1297 7.66831 14.1273 8.67869 14.1217C8.93483 14.1203 9.17991 14.0171 9.36001 13.835C9.54012 13.6528 9.64049 13.4066 9.63906 13.1505C9.63767 12.8953 9.53533 12.651 9.3544 12.471C9.17346 12.291 8.92864 12.19 8.67344 12.19ZM15.1922 3.28284C12.2018 3.28284 9.76906 5.71572 9.76906 8.70597C9.76906 11.6962 12.2019 14.1291 15.1922 14.1291C18.1826 14.1291 20.6154 11.6962 20.6154 8.70597C20.6154 5.71572 18.1826 3.28284 15.1922 3.28284ZM15.1922 12.1975C13.2669 12.1975 11.7006 10.6312 11.7006 8.70584C11.7006 6.78047 13.2669 5.21422 15.1922 5.21422C17.1174 5.21422 18.6838 6.78047 18.6838 8.70584C18.6838 10.6312 17.1174 12.1975 15.1922 12.1975Z" fill="#A274BF"/>
</svg>
