<svg width="56" height="64" viewBox="0 0 56 64" fill="none" xmlns="http://www.w3.org/2000/svg">
<path d="M50.2266 32L28.2266 38L6.22656 32V9.21937C6.22656 7.44137 7.66781 6 9.44581 6H47.0072C48.7852 6 50.2266 7.44137 50.2266 9.21937V32Z" fill="#26A6FE"/>
<path d="M45.5828 60H10.8704C10.7859 60 10.7021 59.9834 10.624 59.951C10.5459 59.9187 10.4749 59.8712 10.4151 59.8115C10.3553 59.7517 10.3079 59.6807 10.2755 59.6025C10.2432 59.5244 10.2265 59.4407 10.2266 59.3561V10.6439C10.2265 10.5593 10.2432 10.4756 10.2755 10.3975C10.3079 10.3193 10.3553 10.2483 10.4151 10.1886C10.4749 10.1288 10.5459 10.0813 10.624 10.049C10.7021 10.0166 10.7859 9.99998 10.8704 10H45.5827C45.6672 9.99998 45.751 10.0166 45.8291 10.049C45.9072 10.0813 45.9782 10.1288 46.038 10.1886C46.0978 10.2483 46.1452 10.3193 46.1776 10.3975C46.2099 10.4756 46.2266 10.5593 46.2266 10.6439V59.3561C46.2266 59.4407 46.2099 59.5244 46.1776 59.6025C46.1453 59.6806 46.0978 59.7516 46.0381 59.8114C45.9783 59.8712 45.9073 59.9186 45.8292 59.951C45.7511 59.9833 45.6674 60 45.5828 60Z" fill="#EAF6FF"/>
<path d="M45.5827 10H43.6511V26.7806C43.6511 28.5586 42.2097 30 40.4317 30L35.8041 33.3644L33.0266 30H10.2266V59.3561C10.2265 59.4407 10.2432 59.5244 10.2755 59.6025C10.3079 59.6807 10.3553 59.7517 10.4151 59.8115C10.4749 59.8712 10.5459 59.9187 10.624 59.951C10.7021 59.9834 10.7859 60 10.8704 60H45.5827C45.6672 60 45.751 59.9834 45.8291 59.951C45.9072 59.9187 45.9782 59.8712 46.038 59.8115C46.0978 59.7517 46.1452 59.6807 46.1776 59.6025C46.2099 59.5244 46.2266 59.4407 46.2266 59.3561V10.6439C46.2266 10.4731 46.1587 10.3093 46.038 10.1886C45.9172 10.0678 45.7535 10 45.5827 10Z" fill="#D8ECFE"/>
<path d="M32.8258 4C32.5092 4 32.2324 3.77075 32.1899 3.45688C31.9249 1.50463 30.2514 0 28.2266 0C26.2017 0 24.5281 1.50463 24.2631 3.45688C24.2204 3.77063 23.9438 4 23.6272 4H16.8704C16.7859 3.99998 16.7021 4.01663 16.624 4.04898C16.5459 4.08133 16.4749 4.12876 16.4151 4.18855C16.3553 4.24834 16.3079 4.31933 16.2755 4.39746C16.2432 4.47558 16.2265 4.55932 16.2266 4.64388V12C16.2266 13.0667 17.0913 13.9316 18.1582 13.9316H38.2951C39.3618 13.9316 40.2267 13.0669 40.2267 12V4.64388C40.2267 4.55932 40.2101 4.47558 40.1777 4.39746C40.1454 4.31933 40.0979 4.24834 40.0381 4.18855C39.9783 4.12876 39.9074 4.08133 39.8292 4.04898C39.7511 4.01663 39.6674 3.99998 39.5828 4H32.8258Z" fill="#B3DAFE"/>
<path d="M32.2179 18.2048L26.8188 23.6039C26.7533 23.6694 26.6644 23.7062 26.5717 23.7062C26.479 23.7062 26.3901 23.6694 26.3246 23.6039L23.5014 20.7808C23.4366 20.7158 23.3595 20.6643 23.2747 20.6292C23.1899 20.5941 23.099 20.576 23.0073 20.576C22.9155 20.576 22.8246 20.5941 22.7398 20.6292C22.655 20.6643 22.578 20.7158 22.5131 20.7808L20.4313 22.8625C20.3664 22.9274 20.3149 23.0044 20.2798 23.0892C20.2446 23.174 20.2266 23.2649 20.2266 23.3567C20.2266 23.4485 20.2446 23.5394 20.2798 23.6242C20.3149 23.709 20.3664 23.786 20.4313 23.8509L26.0776 29.4971C26.1425 29.562 26.2195 29.6135 26.3043 29.6487C26.3891 29.6838 26.48 29.7019 26.5718 29.7019C26.6635 29.7019 26.7544 29.6838 26.8392 29.6487C26.924 29.6135 27.0011 29.562 27.0659 29.4971L35.2882 21.2749C35.3531 21.21 35.4046 21.133 35.4397 21.0482C35.4749 20.9634 35.4929 20.8725 35.4929 20.7807C35.4929 20.6889 35.4749 20.598 35.4397 20.5132C35.4046 20.4284 35.3531 20.3514 35.2882 20.2865L33.2063 18.2048C33.1414 18.1398 33.0644 18.0883 32.9796 18.0532C32.8948 18.0181 32.8039 18 32.7121 18C32.6203 18 32.5295 18.0181 32.4447 18.0532C32.3599 18.0883 32.2828 18.1398 32.2179 18.2048Z" fill="#46CC8D"/>
<path d="M33.0266 30H55.4493C55.7361 30 55.8798 30.3468 55.6769 30.5496L50.2266 36L38.2266 38L26.2266 36L31.6608 30.5658C31.8402 30.3864 32.0531 30.2441 32.2874 30.147C32.5218 30.05 32.7729 30 33.0266 30Z" fill="#ECA026"/>
<path d="M19.4265 30H0.549146C0.262396 30 0.118646 30.3468 0.321521 30.5496L5.7719 36L14.2265 38L26.2265 36L20.7923 30.5658C20.6129 30.3864 20.4 30.2441 20.1657 30.147C19.9313 30.05 19.6802 30 19.4265 30ZM49.5828 64H26.2266L24.2266 44L26.2266 36H50.2266V63.3561C50.2266 63.5269 50.1588 63.6907 50.0381 63.8114C49.9173 63.9322 49.7535 64 49.5828 64Z" fill="#FEB237"/>
<path d="M6.41536 64H26.2261V36H5.77148V63.3561C5.77148 63.5269 5.83932 63.6907 5.96007 63.8114C6.08082 63.9322 6.24459 64 6.41536 64Z" fill="#FFC344"/>
<path d="M45.9046 60H40.5484C40.4631 60 40.3812 59.9661 40.3208 59.9057C40.2605 59.8454 40.2266 59.7635 40.2266 59.6781V56.322C40.2266 56.2366 40.2605 56.1548 40.3208 56.0944C40.3812 56.034 40.4631 56.0001 40.5484 56.0001H45.9046C45.9899 56.0001 46.0718 56.034 46.1322 56.0944C46.1925 56.1548 46.2264 56.2366 46.2264 56.322V59.6781C46.2264 59.7635 46.1925 59.8454 46.1322 59.9057C46.0718 59.9661 45.9899 60 45.9046 60Z" fill="#EAF6FF"/>
<path d="M36.2275 10.9658H20.2275C20.1006 10.9658 19.9751 10.9408 19.8579 10.8923C19.7407 10.8438 19.6343 10.7726 19.5446 10.6829C19.4549 10.5933 19.3838 10.4868 19.3352 10.3696C19.2867 10.2525 19.2617 10.1269 19.2617 10.0001C19.2617 9.87323 19.2867 9.74765 19.3352 9.63048C19.3838 9.5133 19.4549 9.40684 19.5446 9.31716C19.6343 9.22749 19.7407 9.15635 19.8579 9.10781C19.9751 9.05928 20.1006 9.0343 20.2275 9.0343H36.2275C36.3543 9.0343 36.4799 9.05928 36.597 9.10781C36.7142 9.15635 36.8207 9.22749 36.9104 9.31716C37 9.40684 37.0712 9.5133 37.1197 9.63048C37.1682 9.74765 37.1932 9.87323 37.1932 10.0001C37.1932 10.1269 37.1682 10.2525 37.1197 10.3696C37.0712 10.4868 37 10.5933 36.9104 10.6829C36.8207 10.7726 36.7142 10.8438 36.597 10.8923C36.4799 10.9408 36.3543 10.9658 36.2275 10.9658Z" fill="#8AC9FE"/>
<path d="M28.2275 4.9658C28.7608 4.9658 29.1932 4.53342 29.1932 4.00005C29.1932 3.46668 28.7608 3.0343 28.2275 3.0343C27.6941 3.0343 27.2617 3.46668 27.2617 4.00005C27.2617 4.53342 27.6941 4.9658 28.2275 4.9658Z" fill="#8AC9FE"/>
</svg>
