<svg width="1802" height="917" viewBox="0 0 1802 917" fill="none" xmlns="http://www.w3.org/2000/svg">
<path d="M24.2329 715.171C20.5289 712.287 15.6526 711.302 11.1046 712.498C6.74415 713.647 3.04009 716.882 1.23495 721.009C-0.640524 725.323 -0.359205 730.341 1.93825 734.42C4.16537 738.36 8.22108 741.15 12.6988 741.83C17.3171 742.533 22.0292 741.032 25.4285 737.797C28.359 735.007 30 731.044 30 727.011C30 722.416 27.8432 718.008 24.2095 715.171H24.2329ZM22.5684 738.195C18.8409 740.728 13.9178 741.22 9.76835 739.462C5.68919 737.726 2.68844 734.045 1.77415 729.708C0.83641 725.3 2.31333 720.634 5.45475 717.445C8.61961 714.256 13.3083 712.873 17.6922 713.764C22.0527 714.655 25.6864 717.703 27.4447 721.759C28.148 723.401 28.4762 725.206 28.4762 726.988C28.4762 731.443 26.2491 735.663 22.545 738.172L22.5684 738.195Z" fill="#67E7EF"/>
<path d="M899.64 173.292C899.676 172.88 899.538 172.407 899.461 172C899.368 171.494 899.301 170.984 899.208 170.478C898.896 168.585 898.585 166.692 898.273 164.798C900.637 164.409 902.986 164.01 905.35 163.621C905.895 163.535 906.515 163.525 906.975 163.223C907.38 162.968 907.608 162.564 907.7 162.105C907.884 161.098 906.918 160.286 905.979 160.372C905.979 160.372 905.94 160.365 905.915 160.369C903.205 160.813 900.484 161.272 897.773 161.716C897.473 159.897 897.177 158.102 896.877 156.283C896.803 155.812 896.729 155.342 896.644 154.885C896.57 154.415 896.527 153.901 896.403 153.438C896.197 152.696 895.506 152.26 894.751 152.304C894.006 152.333 893.431 153.034 893.364 153.731C893.327 154.143 893.465 154.616 893.542 155.023C893.635 155.529 893.703 156.039 893.795 156.545C894.107 158.438 894.419 160.332 894.73 162.225C892.912 162.527 891.118 162.825 889.299 163.127C888.828 163.202 888.358 163.277 887.901 163.362C887.431 163.437 886.917 163.481 886.454 163.605C885.712 163.812 885.276 164.504 885.319 165.259C885.347 166.004 886.048 166.578 886.744 166.645C887.156 166.681 887.629 166.542 888.036 166.465L889.557 166.21C891.45 165.896 893.343 165.583 895.236 165.269C895.536 167.088 895.832 168.882 896.132 170.701C896.207 171.172 896.281 171.643 896.366 172.099C896.44 172.57 896.483 173.083 896.607 173.546C896.813 174.288 897.504 174.724 898.259 174.68C899.003 174.651 899.578 173.95 899.646 173.253L899.64 173.292ZM898.198 173.89C897.423 174.051 897.349 173.098 897.271 172.603C897.123 171.75 896.986 170.883 896.839 170.03C896.561 168.271 896.259 166.516 895.981 164.757C895.946 164.534 895.73 164.377 895.493 164.402C893.774 164.689 892.054 164.975 890.334 165.261C889.467 165.399 888.615 165.548 887.748 165.685C887.167 165.79 886.27 166.06 886.113 165.222C885.952 164.447 886.905 164.372 887.401 164.293C888.253 164.145 889.12 164.007 889.973 163.858C891.717 163.568 893.487 163.274 895.245 162.994C895.468 162.959 895.625 162.743 895.6 162.506C895.316 160.786 895.031 159.066 894.747 157.346C894.61 156.479 894.463 155.626 894.326 154.759C894.221 154.179 893.953 153.282 894.791 153.123C895.566 152.961 895.64 153.915 895.718 154.41C895.866 155.263 896.003 156.13 896.15 156.983C896.438 158.728 896.73 160.497 897.018 162.242C897.054 162.465 897.269 162.621 897.506 162.596C900.365 162.129 903.21 161.651 906.069 161.183C906.742 161.101 907.162 161.911 906.679 162.394C906.382 162.683 905.857 162.652 905.475 162.725C904.969 162.819 904.459 162.887 903.953 162.98C901.887 163.322 899.82 163.663 897.754 164.005C897.531 164.04 897.375 164.255 897.399 164.493C897.684 166.213 897.968 167.933 898.252 169.653C898.389 170.52 898.537 171.373 898.673 172.24C898.778 172.82 899.046 173.717 898.208 173.876L898.198 173.89Z" fill="#67E7EF"/>
<path d="M459.029 899.478C458.459 899.211 457.711 899.162 457.089 899.061C456.318 898.93 455.554 898.761 454.783 898.63C451.915 898.09 449.047 897.551 446.18 897.011C446.858 893.431 447.515 889.867 448.193 886.288C448.354 885.465 448.664 884.573 448.473 883.758C448.32 883.048 447.861 882.512 447.253 882.141C445.91 881.354 444.247 882.312 443.879 883.698C443.879 883.698 443.85 883.75 443.842 883.788C443.061 887.891 442.296 892.017 441.515 896.12C438.759 895.602 436.041 895.092 433.286 894.574C432.574 894.435 431.863 894.296 431.167 894.18C430.455 894.041 429.699 893.835 428.973 893.771C427.805 893.68 426.821 894.44 426.49 895.541C426.144 896.62 426.845 897.806 427.805 898.266C428.375 898.532 429.123 898.581 429.744 898.683C430.516 898.814 431.279 898.982 432.051 899.113C434.918 899.653 437.786 900.193 440.654 900.733C440.136 903.488 439.625 906.206 439.107 908.962C438.969 909.673 438.83 910.384 438.714 911.081C438.575 911.792 438.369 912.549 438.305 913.275C438.214 914.442 438.974 915.426 440.075 915.757C441.154 916.104 442.34 915.402 442.799 914.443C443.066 913.873 443.115 913.124 443.216 912.503L443.647 910.197C444.187 907.329 444.727 904.461 445.266 901.593C448.022 902.111 450.74 902.622 453.495 903.14C454.207 903.279 454.918 903.417 455.614 903.534C456.326 903.673 457.082 903.878 457.808 903.942C458.976 904.034 459.96 903.274 460.291 902.172C460.638 901.093 459.936 899.907 458.976 899.448L459.029 899.478ZM459.13 901.849C458.956 903.039 457.555 902.649 456.807 902.503C455.511 902.27 454.201 902.014 452.905 901.781C450.247 901.263 447.582 900.782 444.923 900.263C444.586 900.198 444.251 900.424 444.163 900.776C443.674 903.381 443.185 905.987 442.697 908.593C442.441 909.903 442.208 911.199 441.952 912.509C441.799 913.393 441.716 914.814 440.436 914.604C439.246 914.43 439.636 913.029 439.782 912.28C440.015 910.985 440.27 909.674 440.504 908.379C441 905.736 441.503 903.055 442.021 900.397C442.087 900.06 441.861 899.724 441.509 899.636C438.903 899.148 436.298 898.659 433.692 898.17C432.382 897.914 431.086 897.681 429.776 897.426C428.892 897.273 427.471 897.19 427.681 895.91C427.855 894.719 429.256 895.109 430.005 895.255C431.3 895.488 432.611 895.744 433.906 895.977C436.549 896.473 439.23 896.977 441.873 897.473C442.21 897.538 442.545 897.312 442.633 896.96C443.458 892.632 444.26 888.319 445.085 883.991C445.32 882.988 446.695 882.809 447.134 883.75C447.391 884.325 447.073 885.059 446.978 885.643C446.847 886.414 446.679 887.178 446.548 887.949C445.957 891.079 445.366 894.209 444.775 897.339C444.709 897.676 444.935 898.012 445.287 898.1C447.893 898.588 450.499 899.077 453.104 899.566C454.415 899.821 455.71 900.055 457.02 900.31C457.904 900.463 459.326 900.546 459.115 901.826L459.13 901.849Z" fill="#67E7EF"/>
<path d="M1700.03 868.478C1699.46 868.211 1698.71 868.162 1698.09 868.061C1697.32 867.93 1696.55 867.761 1695.78 867.63C1692.91 867.09 1690.05 866.551 1687.18 866.011C1687.86 862.431 1688.51 858.867 1689.19 855.288C1689.35 854.465 1689.66 853.573 1689.47 852.758C1689.32 852.048 1688.86 851.512 1688.25 851.141C1686.91 850.354 1685.25 851.312 1684.88 852.698C1684.88 852.698 1684.85 852.75 1684.84 852.788C1684.06 856.891 1683.29 861.017 1682.51 865.12C1679.76 864.602 1677.04 864.092 1674.28 863.574C1673.57 863.435 1672.86 863.296 1672.17 863.18C1671.45 863.041 1670.7 862.835 1669.97 862.771C1668.8 862.68 1667.82 863.44 1667.49 864.541C1667.14 865.62 1667.84 866.806 1668.8 867.266C1669.37 867.532 1670.12 867.581 1670.74 867.683C1671.51 867.814 1672.28 867.982 1673.05 868.113C1675.92 868.653 1678.79 869.193 1681.65 869.733C1681.14 872.488 1680.62 875.206 1680.11 877.962C1679.97 878.673 1679.83 879.384 1679.71 880.081C1679.57 880.792 1679.37 881.549 1679.3 882.275C1679.21 883.442 1679.97 884.426 1681.07 884.757C1682.15 885.104 1683.34 884.402 1683.8 883.443C1684.06 882.873 1684.11 882.124 1684.22 881.503L1684.65 879.197C1685.19 876.329 1685.73 873.461 1686.27 870.593C1689.02 871.111 1691.74 871.622 1694.49 872.14C1695.21 872.279 1695.92 872.417 1696.61 872.534C1697.32 872.673 1698.08 872.878 1698.81 872.942C1699.97 873.034 1700.96 872.274 1701.29 871.172C1701.64 870.093 1700.94 868.907 1699.98 868.448L1700.03 868.478ZM1700.13 870.849C1699.96 872.039 1698.55 871.649 1697.81 871.503C1696.51 871.27 1695.2 871.014 1693.9 870.781C1691.25 870.263 1688.58 869.782 1685.92 869.263C1685.59 869.198 1685.25 869.424 1685.16 869.776C1684.67 872.381 1684.18 874.987 1683.7 877.593C1683.44 878.903 1683.21 880.199 1682.95 881.509C1682.8 882.393 1682.72 883.814 1681.44 883.604C1680.24 883.43 1680.63 882.029 1680.78 881.28C1681.01 879.985 1681.27 878.674 1681.5 877.379C1682 874.736 1682.5 872.055 1683.02 869.397C1683.09 869.06 1682.86 868.724 1682.51 868.636C1679.9 868.148 1677.3 867.659 1674.69 867.17C1673.38 866.914 1672.09 866.681 1670.77 866.426C1669.89 866.273 1668.47 866.19 1668.68 864.91C1668.85 863.719 1670.26 864.109 1671 864.255C1672.3 864.488 1673.61 864.744 1674.9 864.977C1677.55 865.473 1680.23 865.977 1682.87 866.473C1683.21 866.538 1683.54 866.312 1683.63 865.96C1684.46 861.632 1685.26 857.319 1686.08 852.991C1686.32 851.988 1687.69 851.809 1688.13 852.75C1688.39 853.325 1688.07 854.059 1687.98 854.643C1687.85 855.414 1687.68 856.178 1687.55 856.949C1686.96 860.079 1686.36 863.209 1685.77 866.339C1685.71 866.676 1685.93 867.012 1686.29 867.1C1688.89 867.588 1691.5 868.077 1694.1 868.566C1695.41 868.821 1696.71 869.055 1698.02 869.31C1698.9 869.463 1700.32 869.546 1700.11 870.826L1700.13 870.849Z" fill="#67E7EF"/>
<path d="M223.399 85.1834C223.09 84.643 222.511 84.2184 222.087 83.7938C221.546 83.2534 221.006 82.7515 220.504 82.2111C218.535 80.2425 216.528 78.3124 214.559 76.3438C216.991 73.8733 219.423 71.4028 221.855 68.9323C222.395 68.3533 223.129 67.8129 223.438 67.0795C223.708 66.4232 223.631 65.767 223.322 65.1494C222.666 63.7984 220.851 63.6826 219.809 64.5704C219.809 64.5704 219.771 64.5704 219.732 64.6476C216.914 67.5041 214.135 70.322 211.317 73.1785C209.425 71.3256 207.534 69.4341 205.643 67.5813C205.141 67.0795 204.678 66.6163 204.176 66.1144C203.674 65.6126 203.211 65.0722 202.632 64.609C201.744 63.9142 200.586 63.9914 199.737 64.6862C198.887 65.3424 198.81 66.6549 199.312 67.5427C199.621 68.0831 200.2 68.5077 200.624 68.9323C201.165 69.4727 201.705 69.9746 202.207 70.515C204.176 72.4836 206.183 74.4137 208.152 76.3824C206.299 78.2738 204.407 80.1653 202.554 82.0567C202.053 82.5585 201.589 83.0218 201.088 83.5236C200.586 84.0254 200.045 84.4886 199.621 85.0676C198.926 85.9554 199.003 87.1135 199.698 87.9627C200.393 88.8119 201.667 88.8891 202.554 88.3873C203.095 88.0785 203.519 87.4995 203.944 87.0749C204.485 86.5345 204.986 85.9941 205.527 85.4922C207.495 83.5236 209.425 81.5163 211.394 79.5476C213.286 81.4005 215.177 83.292 217.069 85.1448C217.57 85.6466 218.034 86.1098 218.535 86.6117C219.037 87.1135 219.5 87.6539 220.079 88.1171C220.967 88.8119 222.125 88.7347 222.974 88.0399C223.824 87.3451 223.901 86.0712 223.399 85.1834ZM222.202 87.1135C221.43 87.9627 220.543 86.9205 220.002 86.3801C219.114 85.4922 218.188 84.6044 217.3 83.7166C215.447 81.9023 213.633 80.0881 211.78 78.2738C211.549 78.0422 211.163 78.0422 210.931 78.2738C209.155 80.0881 207.38 81.8637 205.604 83.678C204.716 84.5658 203.828 85.4922 202.94 86.3801C202.361 86.9977 201.512 88.0785 200.624 87.2293C199.775 86.4573 200.817 85.5694 201.358 85.029C202.246 84.1412 203.133 83.2148 204.021 82.3269C205.836 80.4741 207.65 78.6598 209.464 76.807C209.696 76.5754 209.696 76.1893 209.464 75.9577C207.65 74.1821 205.874 72.4064 204.06 70.6308C203.172 69.743 202.246 68.8551 201.358 67.9673C200.74 67.3883 199.659 66.539 200.509 65.6512C201.281 64.802 202.168 65.8442 202.709 66.3846L205.411 69.0481C207.264 70.8624 209.078 72.6766 210.931 74.4909C211.163 74.7225 211.549 74.7225 211.78 74.4909C214.714 71.5186 217.686 68.5077 220.62 65.5354C221.315 64.8792 222.511 65.4582 222.357 66.4618C222.241 67.0409 221.623 67.4655 221.237 67.8515C220.697 68.3919 220.195 68.9323 219.655 69.4341C217.532 71.5958 215.37 73.7575 213.247 75.9191C213.015 76.1507 213.015 76.5368 213.247 76.7684C215.061 78.544 216.837 80.3197 218.651 82.0953C219.539 82.9832 220.465 83.871 221.353 84.7588C221.971 85.3764 223.052 86.1871 222.202 87.0749V87.1135Z" fill="#67E7EF"/>
<path d="M21.1149 3.66711C18.8374 1.31244 15.5949 0.0386012 12.3524 0C9.10988 0 5.98319 1.31244 3.66712 3.58991C1.31244 5.86738 0.0386012 9.10988 0 12.3524C0 12.6998 0.270211 12.97 0.617622 12.97H24.0871C24.4345 12.97 24.7048 12.6998 24.7048 12.3524C24.7048 9.10988 23.3923 5.98318 21.1149 3.66711ZM1.23524 11.7348C1.38965 9.03268 2.50908 6.485 4.43914 4.51634C6.5236 2.39327 9.38009 1.23524 12.3138 1.23524C15.2475 1.23524 18.0268 2.39327 20.1498 4.43914C22.1185 6.3692 23.2765 8.99408 23.4309 11.6962H1.23524V11.7348Z" fill="#67E7EF"/>
<path d="M24.1148 432.667C21.8374 430.312 18.5949 429.039 15.3524 429C12.1099 429 8.98317 430.312 6.6671 432.59C4.31243 434.867 3.0386 438.11 3 441.352C3 441.7 3.27021 441.97 3.61762 441.97H27.0871C27.4345 441.97 27.7048 441.7 27.7048 441.352C27.7048 438.11 26.3923 434.983 24.1148 432.667ZM4.23524 440.735C4.38964 438.033 5.50907 435.485 7.43913 433.516C9.52359 431.393 12.3801 430.235 15.3138 430.235C18.2475 430.235 21.0267 431.393 23.1498 433.439C25.1185 435.369 26.2765 437.994 26.4309 440.696H4.23524V440.735Z" fill="#67E7EF"/>
<path d="M950.662 789.959C950.121 789.033 949.118 788.299 948.384 787.566C947.458 786.64 946.531 785.713 945.605 784.825C942.131 781.39 938.657 777.954 935.183 774.557C939.429 770.234 943.714 765.911 947.96 761.587C948.925 760.622 950.199 759.657 950.739 758.345C951.202 757.225 951.048 756.067 950.546 754.987C949.427 752.671 946.223 752.439 944.447 753.983C944.408 753.983 944.37 754.06 944.331 754.099C939.429 759.078 934.526 764.058 929.586 769.037C926.266 765.756 922.946 762.475 919.626 759.194C918.777 758.345 917.928 757.496 917.04 756.646C916.152 755.797 915.342 754.794 914.377 754.06C912.833 752.825 910.787 752.979 909.281 754.176C907.814 755.373 907.66 757.65 908.548 759.194C909.088 760.121 910.092 760.854 910.825 761.587C911.752 762.514 912.678 763.44 913.605 764.328C917.079 767.764 920.553 771.199 924.027 774.596C920.746 777.916 917.465 781.235 914.184 784.555C913.334 785.404 912.485 786.254 911.636 787.141C910.787 788.029 909.783 788.84 909.05 789.805C907.814 791.349 907.969 793.395 909.166 794.9C910.362 796.367 912.64 796.521 914.184 795.634C915.11 795.093 915.844 794.09 916.577 793.356C917.503 792.43 918.43 791.503 919.318 790.577C922.753 787.103 926.189 783.629 929.586 780.155C932.905 783.436 936.225 786.717 939.545 789.998C940.394 790.847 941.243 791.696 942.131 792.546C943.019 793.395 943.829 794.398 944.794 795.132C946.338 796.367 948.384 796.213 949.89 795.016C951.357 793.819 951.511 791.542 950.623 789.998L950.662 789.959ZM948.577 793.318C947.226 794.784 945.682 792.97 944.756 792.044C943.173 790.5 941.629 788.956 940.046 787.373C936.843 784.208 933.6 781.004 930.396 777.838C929.972 777.414 929.315 777.414 928.891 777.838C925.764 781.004 922.676 784.13 919.549 787.296C918.005 788.878 916.423 790.461 914.878 792.005C913.836 793.047 912.408 794.939 910.825 793.511C909.359 792.16 911.173 790.615 912.099 789.689C913.643 788.106 915.187 786.562 916.77 784.98C919.935 781.776 923.101 778.533 926.304 775.329C926.729 774.905 926.729 774.249 926.304 773.824C923.139 770.697 920.012 767.609 916.847 764.482C915.265 762.938 913.682 761.356 912.138 759.812C911.096 758.769 909.204 757.341 910.632 755.759C911.983 754.292 913.527 756.106 914.454 757.032C916.037 758.576 917.581 760.121 919.163 761.703C922.367 764.868 925.61 768.034 928.814 771.238C929.238 771.662 929.894 771.662 930.319 771.238C935.492 766.027 940.625 760.777 945.798 755.566C947.033 754.408 949.156 755.411 948.848 757.148C948.655 758.152 947.574 758.924 946.879 759.619C945.952 760.545 945.026 761.472 944.138 762.398C940.394 766.181 936.65 769.964 932.905 773.747C932.481 774.171 932.481 774.828 932.905 775.252C936.071 778.379 939.197 781.467 942.363 784.594C943.945 786.138 945.528 787.72 947.072 789.264C948.114 790.307 950.006 791.735 948.577 793.318Z" fill="#67E7EF"/>
<path d="M1796.93 389.598C1793.88 387.244 1789.87 386.433 1786.12 387.398C1782.53 388.363 1779.48 390.988 1778.02 394.424C1776.47 397.975 1776.7 402.105 1778.6 405.463C1780.41 408.706 1783.77 410.983 1787.44 411.562C1791.26 412.141 1795.12 410.906 1797.9 408.243C1800.29 405.927 1801.64 402.684 1801.68 399.365C1801.68 395.582 1799.9 391.953 1796.93 389.598ZM1795.54 408.552C1792.49 410.636 1788.44 411.022 1785 409.594C1781.65 408.166 1779.17 405.155 1778.4 401.565C1777.63 397.936 1778.83 394.115 1781.45 391.49C1784.08 388.865 1787.9 387.746 1791.53 388.44C1795.12 389.174 1798.09 391.683 1799.56 395.041C1800.14 396.392 1800.41 397.859 1800.41 399.326C1800.41 402.993 1798.55 406.467 1795.5 408.552H1795.54Z" fill="#67E7EF"/>
<path d="M1475.49 424.07C1475.49 424.07 1475.41 424.07 1475.37 424.07H1469.35V420.326C1469.35 418.975 1469.58 417.585 1468.62 416.504C1467.65 415.462 1466.03 415.732 1464.76 415.732H1460.7V411.679C1460.7 410.29 1460.97 408.745 1459.85 407.703C1458.85 406.738 1457.19 407.047 1455.92 407.047H1450.97C1449.66 407.047 1448.39 406.931 1447.5 408.089C1446.73 409.093 1446.88 410.444 1447.73 411.37C1448.66 412.413 1450.28 412.142 1451.52 412.142H1455.65V416.196C1455.65 417.547 1455.41 418.975 1456.38 420.056C1457.34 421.098 1458.97 420.828 1460.24 420.828H1464.29V425.807C1464.29 426.386 1464.25 426.965 1464.45 427.506C1464.79 428.471 1465.64 429.011 1466.65 429.166C1467.23 429.243 1467.84 429.166 1468.42 429.166H1474.33C1475.41 429.166 1476.37 429.166 1477.19 428.393C1478.77 426.849 1477.53 424.302 1475.49 424.147V424.07ZM1475.33 427.66C1473.36 427.737 1471.39 427.66 1469.43 427.66C1468.5 427.66 1467.57 427.66 1466.65 427.66C1465.87 427.66 1465.72 426.772 1465.72 426.193V420.094C1465.72 419.708 1465.37 419.361 1464.99 419.361H1458.77C1458.27 419.361 1457.81 419.399 1457.42 419.052C1457.04 418.705 1457.11 418.164 1457.11 417.662V411.448C1457.11 411.062 1456.77 410.714 1456.38 410.714H1450.7C1450.2 410.714 1449.51 410.83 1449.04 410.598C1448.35 410.251 1448.23 409.247 1448.89 408.784C1449.28 408.514 1449.7 408.552 1450.16 408.552H1458C1458.46 408.552 1458.81 408.668 1459.08 409.054C1459.35 409.44 1459.24 410.019 1459.24 410.444V416.466C1459.24 416.852 1459.58 417.199 1459.97 417.199H1465.99C1466.49 417.199 1467.07 417.083 1467.46 417.431C1467.88 417.778 1467.88 418.203 1467.88 418.705V424.804C1467.88 425.19 1468.23 425.537 1468.62 425.537H1475.37C1476.76 425.614 1476.72 427.621 1475.37 427.66H1475.33Z" fill="#67E7EF"/>
<path d="M1464.19 869.112C1464.19 869.112 1464.11 869.112 1464.03 869.112H1456.78V864.635C1456.78 863.013 1457.05 861.315 1455.89 860.041C1454.77 858.767 1452.76 859.153 1451.26 859.153H1446.39V854.289C1446.39 852.63 1446.7 850.777 1445.39 849.542C1444.15 848.384 1442.18 848.77 1440.64 848.77H1434.7C1433.11 848.77 1431.57 848.615 1430.53 850.005C1429.6 851.201 1429.79 852.823 1430.8 853.942C1431.92 855.177 1433.85 854.83 1435.35 854.83H1440.29V859.694C1440.29 861.315 1440.02 863.052 1441.18 864.326C1442.3 865.6 1444.31 865.214 1445.81 865.214H1450.68V871.158C1450.68 871.853 1450.64 872.548 1450.87 873.204C1451.29 874.362 1452.34 875.018 1453.49 875.173C1454.19 875.25 1454.92 875.173 1455.62 875.173H1462.68C1463.99 875.173 1465.11 875.173 1466.12 874.246C1468.01 872.393 1466.5 869.344 1464.11 869.151L1464.19 869.112ZM1463.99 873.397C1461.64 873.474 1459.28 873.397 1456.93 873.397C1455.81 873.397 1454.69 873.436 1453.57 873.397C1452.65 873.358 1452.49 872.316 1452.49 871.621V864.287C1452.49 863.824 1452.1 863.399 1451.6 863.399H1444.15C1443.54 863.399 1442.99 863.477 1442.49 863.013C1442.03 862.589 1442.11 861.933 1442.11 861.354V853.865C1442.11 853.402 1441.72 852.977 1441.22 852.977H1434.43C1433.81 852.977 1433 853.131 1432.42 852.861C1431.57 852.437 1431.45 851.24 1432.23 850.7C1432.69 850.352 1433.23 850.429 1433.73 850.429H1443.15C1443.69 850.429 1444.15 850.545 1444.46 851.047C1444.77 851.51 1444.65 852.205 1444.65 852.745V859.964C1444.65 860.427 1445.04 860.852 1445.54 860.852H1452.76C1453.34 860.852 1454.03 860.736 1454.54 861.122C1455.04 861.508 1455.04 862.048 1455.04 862.627V869.962C1455.04 870.425 1455.42 870.849 1455.93 870.849H1464.03C1465.69 870.927 1465.65 873.358 1464.03 873.397H1463.99Z" fill="#67E7EF"/>
<path d="M1503.9 98.22C1497.8 93.4721 1489.77 91.8508 1482.28 93.8195C1475.1 95.711 1469.01 101.038 1466.03 107.832C1462.95 114.934 1463.41 123.195 1467.19 129.912C1470.86 136.397 1477.54 140.99 1484.91 142.11C1492.51 143.268 1500.27 140.797 1505.87 135.47C1510.69 130.877 1513.4 124.353 1513.4 117.714C1513.4 110.148 1509.85 102.891 1503.86 98.22H1503.9ZM1501.16 136.126C1495.02 140.295 1486.92 141.106 1480.08 138.211C1473.37 135.354 1468.43 129.294 1466.92 122.153C1465.38 114.896 1467.81 107.214 1472.98 101.964C1478.19 96.7146 1485.91 94.4371 1493.13 95.904C1500.31 97.3708 1506.29 102.389 1509.19 109.067C1510.35 111.769 1510.89 114.741 1510.89 117.675C1510.89 125.009 1507.22 131.957 1501.12 136.088L1501.16 136.126Z" fill="#67E7EF"/>
</svg>
