<svg width="60" height="65" viewBox="0 0 60 65" fill="none" xmlns="http://www.w3.org/2000/svg">
<path d="M22.0524 56.9544H31.931C33.5655 56.9544 35.1943 56.7623 36.7839 56.3821L37.6233 56.1814C37.6839 56.1669 37.7379 56.1324 37.7765 56.0835C37.815 56.0346 37.836 55.9741 37.836 55.9117L37.8522 54.6151C37.8549 54.3936 37.842 54.1715 37.8028 53.9534C37.4373 51.9229 35.8075 50.3324 33.7367 50.0394L23.6338 48.8761C21.3033 48.5464 20.1387 47.7654 18.107 46.5769C15.3333 44.9543 12.1777 44.0991 8.96417 44.0991H5.3418V51.4079L18.5472 56.3231C19.6687 56.7406 20.8557 56.9544 22.0524 56.9544Z" fill="#FFECE3"/>
<path d="M54.4259 48.6071L37.8359 55.9118L36.7838 56.1635C35.1942 56.5436 33.5654 56.7357 31.9309 56.7357H22.0524C20.8557 56.7357 19.6687 56.5219 18.5472 56.1044L5.3418 51.1892V58.9536L18.5472 63.8688C19.6687 64.2863 20.8557 64.5001 22.0524 64.5001H35.6615C37.566 64.5001 39.4313 63.9588 41.04 62.9394L58.0799 53.3259C59.2042 52.3277 59.4125 50.6501 58.5668 49.4071C57.6414 48.0469 56.1105 47.8106 54.4259 48.6071Z" fill="#FFCBB4"/>
<path d="M7.34864 60.958C7.34864 61.9185 6.57002 62.6973 5.60939 62.6973H2.65527C1.69477 62.6973 0.916016 61.9187 0.916016 60.958V42.092C0.916016 41.1315 1.69464 40.3528 2.65527 40.3528H5.60939C6.56989 40.3528 7.34864 41.1314 7.34864 42.092V60.958Z" fill="#7C8B96"/>
<path d="M13.9913 35.2109H38.3895C41.5098 31.5251 43.3913 26.7573 43.3913 21.5496C43.3913 11.3779 36.213 2.88414 26.6463 0.853763C26.4901 0.820617 26.3289 0.818409 26.1718 0.847263C16.3745 2.64789 8.95117 11.2319 8.95117 21.5496C8.95117 26.7655 10.8483 31.5384 13.9902 35.2158L13.9913 35.2109Z" fill="#F5F5F5"/>
<path d="M43.1385 21.5497C43.1385 25.1167 42.2512 28.4764 40.6853 31.4201C40.7643 31.4406 40.8425 31.4613 40.9197 31.4823C41.5682 31.6579 42.1648 31.8533 42.6532 32.0683C44.1472 32.7259 45.273 33.9519 45.8275 35.4261C45.8264 35.4277 45.8257 35.4295 45.8254 35.4314C49.0785 31.7259 51.051 26.8682 51.051 21.5497C51.0509 9.92425 41.6267 0.5 30.0012 0.5C28.6487 0.5 27.3265 0.629125 26.0449 0.872875C35.7789 2.72425 43.1385 11.2767 43.1385 21.5497Z" fill="#EAEAEA"/>
<path d="M35.1652 30.4299C34.8698 30.393 34.5979 30.2498 34.4004 30.0271C34.203 29.8044 34.0933 29.5174 34.092 29.2197L34.0684 23.6172L25.5082 23.6533L25.5318 29.2558C25.533 29.5535 25.4258 29.8414 25.2302 30.0658C25.0346 30.2902 24.764 30.4356 24.4689 30.4751C24.4689 30.4751 22.8883 35.8773 29.8398 35.8481C36.7913 35.8188 35.1652 30.4299 35.1652 30.4299Z" fill="#FFECE3"/>
<path d="M35.1661 30.4298C34.8707 30.3929 34.5989 30.2497 34.4014 30.027C34.2039 29.8043 34.0943 29.5172 34.093 29.2196L34.0694 23.6171L28.5625 23.6403L28.585 34.1927C28.5863 34.4904 28.696 34.7774 28.8934 35.0001C29.0909 35.2228 29.3628 35.366 29.6581 35.4029C29.6581 35.4029 29.7086 35.5711 29.7539 35.8472C29.7831 35.8473 29.8112 35.8481 29.8407 35.8479C36.7922 35.8187 35.1661 30.4298 35.1661 30.4298Z" fill="#FFCBB4"/>
<path d="M37.8693 15.7844L37.3515 15.7865L37.3489 15.1785L37.3428 13.725C37.3342 11.6727 36.4833 9.68774 34.9224 8.35524C33.6988 7.31049 31.981 6.40137 29.7169 6.38574C27.453 6.42049 25.743 7.34412 24.5282 8.39912C22.9787 9.74474 22.1445 11.7369 22.1532 13.7891L22.1593 15.2426L22.1619 15.8507L21.6442 15.8529C20.885 15.8561 20.2722 16.4741 20.2754 17.2332L20.2818 18.7565C20.285 19.5156 20.903 20.1285 21.6622 20.1252L22.182 20.123C22.2333 22.1177 23.0797 24.0342 24.5997 25.332C25.8234 26.3767 27.541 27.2859 29.8052 27.3015C32.069 27.2667 33.779 26.3431 34.9939 25.2881C36.5029 23.9777 37.333 22.054 37.3675 20.059L37.8874 20.0567C38.6465 20.0535 39.2594 19.4355 39.2562 18.6764L39.2498 17.1531C39.2464 16.394 38.6284 15.7812 37.8693 15.7844Z" fill="#FFECE3"/>
<path d="M39.2488 17.1531C39.2456 16.394 38.6276 15.7811 37.8685 15.7844L37.3506 15.7865L37.3481 15.1784L37.342 13.7249C37.3333 11.6726 36.4823 9.68762 34.9216 8.35512C33.698 7.31037 31.9802 6.40125 29.7161 6.38562C29.6483 6.38662 29.5826 6.391 29.5158 6.39362L29.534 20.0587C29.4996 22.0539 28.6693 23.9775 27.1603 25.2879C26.7555 25.6405 26.3186 25.9545 25.8555 26.226C26.9193 26.8465 28.2292 27.2902 29.8042 27.3012C32.0681 27.2665 33.7781 26.3429 34.993 25.2879C36.502 23.9775 37.3322 22.0537 37.3666 20.0587L37.8865 20.0566C38.6456 20.0534 39.2585 19.4354 39.2552 18.6762L39.2488 17.1531Z" fill="#FFCBB4"/>
<path d="M40.9184 31.4824C38.9629 30.9527 36.5339 30.6019 35.1651 30.4302L29.8311 33.7977L24.4689 30.4752C22.6481 30.7193 18.9501 31.2968 16.9961 32.1765C15.6266 32.7933 14.5726 33.8884 13.9902 35.2112C17.0542 38.799 21.3012 41.3459 26.1284 42.244C26.3136 42.2785 26.5046 42.2759 26.6889 42.2364C32.8599 40.9132 38.0326 36.8994 40.9184 31.4824Z" fill="#DDEAFB"/>
<path d="M42.655 32.0695C42.1082 31.8289 41.4261 31.6128 40.6871 31.4214C37.7432 36.9554 32.403 41.0204 26.0488 42.2289L26.1157 42.2415C26.45 42.3041 26.7491 42.3516 27.0936 42.3988L32.6701 42.4335C37.7845 41.7868 42.3268 39.3049 45.6167 35.6685C45.6881 35.5878 45.759 35.5074 45.8291 35.4273C45.275 33.953 44.1491 32.7271 42.655 32.0695Z" fill="#BED8FB"/>
<path d="M32.6723 5.92095L26.7024 5.94608C25.6126 5.9507 24.6893 6.6532 24.3533 7.62845C24.2273 7.99395 23.8801 8.23683 23.4933 8.23845C22.1039 8.24433 20.9824 9.37533 20.9883 10.7647L21.0104 16.0103C21.0104 16.0103 23.2177 15.9748 23.9674 16.708C24.1251 16.8621 24.3898 16.7518 24.3888 16.5313L24.3743 13.083C24.3693 11.8856 25.3358 10.911 26.5331 10.9058L26.5592 10.9057C26.9179 10.9042 27.2728 10.9581 27.6124 11.0635C28.2586 11.264 28.9271 11.383 29.6036 11.3801L29.8714 11.379C30.5479 11.3761 31.2154 11.2515 31.8598 11.0455C32.1999 10.9366 32.5546 10.8804 32.9117 10.8788L32.9377 10.8787C34.1351 10.8737 35.1097 11.8402 35.1148 13.0375L35.1293 16.4858C35.1302 16.7063 36.4442 16.81 36.6004 16.6545C37.3439 15.915 38.5032 15.9363 38.5032 15.9363L38.4853 11.685C38.4718 8.4882 35.8692 5.90745 32.6723 5.92095Z" fill="#AA8080"/>
<path d="M38.4854 11.6852C38.4719 8.4882 35.8694 5.90745 32.6724 5.92095L29.5156 5.9342L29.5229 11.3786C29.5499 11.3788 29.5766 11.3802 29.6036 11.3801L29.8715 11.379C30.548 11.3761 31.2155 11.2515 31.8599 11.0455C32.2 10.9366 32.5547 10.8804 32.9117 10.8788L32.9377 10.8787C34.135 10.8737 35.1097 11.8402 35.1149 13.0375L35.1294 16.4858C35.1303 16.7063 36.4443 16.81 36.6005 16.6545C37.344 15.915 38.5033 15.9363 38.5033 15.9363L38.4854 11.6852Z" fill="#9D6B6B"/>
<path d="M20.7715 31.0898L24.2539 34.8946C24.571 35.2411 24.9934 35.4736 25.4558 35.5564C25.9182 35.6391 26.395 35.5674 26.8126 35.3523L29.831 33.7978L24.4687 30.4753C23.556 30.5975 22.1715 30.8037 20.7715 31.0898ZM38.8674 31.0134L35.4192 34.8533C35.1047 35.2036 34.6833 35.4405 34.2205 35.5271C33.7577 35.6137 33.2792 35.5453 32.8592 35.3324L29.831 33.7977L35.165 30.4302C36.0787 30.5448 37.465 30.7393 38.8674 31.0134Z" fill="#BED8FB"/>
<path d="M32.8596 35.3321L29.8314 33.7974L26.813 35.3519C26.8076 35.3546 26.8023 35.3566 26.7969 35.3594L28.1489 37.8397L31.5447 37.8254L32.878 35.3406C32.872 35.3375 32.8657 35.3352 32.8596 35.3321ZM32.592 42.4414L32.6675 42.432L32.0874 40.0755C30.5409 40.9122 28.8951 41.5504 27.1889 41.9752L27.0909 42.3984C27.1056 42.4004 27.1156 42.4021 27.1353 42.4047C28.0847 42.5344 29.0419 42.5995 30.0002 42.5994C30.8777 42.5995 31.7426 42.5457 32.592 42.4414Z" fill="#FB636F"/>
<path d="M32.088 40.0756L31.5455 37.8253L28.1496 37.8397L27.1895 41.9754C28.8957 41.5506 30.5415 40.9123 32.088 40.0756Z" fill="#FC8086"/>
</svg>
