<svg width="18" height="21" viewBox="0 0 18 21" fill="none" xmlns="http://www.w3.org/2000/svg">
<path d="M4.01196 20.253C3.38196 20.253 2.74994 20.0899 2.16895 19.7649C0.966945 19.0919 0.25 17.8689 0.25 16.4939V4.50613C0.25 3.13113 0.966945 1.90913 2.16895 1.23513C3.37494 0.559131 4.79695 0.587129 5.97595 1.30813L16.052 7.47415C17.115 8.12415 17.75 9.25603 17.75 10.5C17.75 11.744 17.115 12.8749 16.052 13.5259L5.97595 19.6919C5.36495 20.0649 4.68896 20.253 4.01196 20.253ZM4.01196 2.25002C3.63196 2.25002 3.25195 2.34797 2.90295 2.54397C2.18095 2.94797 1.75098 3.68213 1.75098 4.50613V16.4939C1.75098 17.3179 2.18195 18.0521 2.90295 18.4561C3.62695 18.8621 4.48299 18.8471 5.19299 18.4131L15.269 12.2471C15.883 11.8711 16.25 11.218 16.25 10.5C16.25 9.78203 15.883 9.12895 15.269 8.75295L5.19299 2.58694C4.82499 2.36294 4.41896 2.25002 4.01196 2.25002Z" fill="#111111"/>
</svg>
