<svg width="135" height="41" viewBox="0 0 135 41" fill="none" xmlns="http://www.w3.org/2000/svg">
<path d="M130.001 40.0495H4.99985C2.26614 40.0777 0.0284509 37.8851 0.000268326 35.1514C0.000268326 35.1176 0.000268326 35.0838 0.000268326 35.05V5.04965C-0.0279142 2.31595 2.16751 0.0782559 4.89839 0.0500734C4.93221 0.0500734 4.96603 0.0500734 4.99985 0.0500734H130.001C132.734 0.0218908 134.972 2.21449 135 4.9482C135 4.98202 135 5.01584 135 5.04965V35.05C135.028 37.7837 132.833 40.0214 130.102 40.0495C130.068 40.0495 130.034 40.0495 130.001 40.0495Z" fill="black"/>
<path d="M47.4004 10.2495C47.4455 10.9823 47.1947 11.7037 46.7015 12.2505C45.4953 13.4651 43.5338 13.4736 42.3163 12.2674C41.7273 11.6812 41.3976 10.8836 41.4004 10.0522C41.3863 8.35564 42.7503 6.96624 44.4469 6.95215C44.4638 6.95215 44.4835 6.95215 44.5005 6.95215C44.9176 6.95778 45.329 7.05924 45.701 7.25088C46.0589 7.40025 46.369 7.64262 46.6001 7.94981L46.1012 8.44864C45.7179 7.9639 45.1177 7.7018 44.5005 7.74971C43.8889 7.72435 43.2971 7.98363 42.8997 8.44864C42.4121 8.8742 42.1529 9.50267 42.2008 10.148C42.1557 10.7934 42.4149 11.4219 42.8997 11.8475C43.3365 12.2589 43.9002 12.5069 44.5005 12.5464C45.143 12.5746 45.763 12.3181 46.1999 11.8475C46.524 11.5318 46.7043 11.0978 46.6987 10.6469H44.4976V9.84649H47.3976V10.2495H47.4004Z" fill="white" stroke="white" stroke-width="0.00563651" stroke-miterlimit="10"/>
<path d="M51.9998 7.7496H49.3V9.6491H51.7997V10.348H49.3V12.2475H51.9998V13.0479H48.4996V7.04785H51.9998V7.7496Z" fill="white" stroke="white" stroke-width="0.00563651" stroke-miterlimit="10"/>
<path d="M55.3 13.048H54.4996V7.74971H52.8002V7.05078H56.9994V7.74971H55.3V13.048Z" fill="white" stroke="white" stroke-width="0.00563651" stroke-miterlimit="10"/>
<path d="M59.8994 13.0479V7.04785H60.6998V13.0479H59.8994Z" fill="white" stroke="white" stroke-width="0.00563651" stroke-miterlimit="10"/>
<path d="M64.1014 13.048H63.301V7.74971H61.6016V7.05078H65.7022V7.74971H64.0028V13.0508H64.1014V13.048Z" fill="white" stroke="white" stroke-width="0.00563651" stroke-miterlimit="10"/>
<path d="M73.5989 12.2475C72.3927 13.4622 70.4312 13.4707 69.2137 12.2644C68.6247 11.6782 68.295 10.8807 68.2978 10.0493C68.2978 8.3358 69.6872 6.94922 71.3979 6.94922C73.1086 6.94922 74.498 8.3358 74.498 10.0493C74.5233 10.875 74.1964 11.6754 73.5989 12.2475ZM69.7999 11.7487C70.2255 12.1771 70.7976 12.4279 71.4007 12.4476C72.0123 12.473 72.6041 12.2137 73.0015 11.7487C73.4496 11.2978 73.7004 10.6862 73.7004 10.0493C73.7455 9.40392 73.4862 8.77545 73.0015 8.34989C72.5759 7.92152 72.0038 7.67069 71.4007 7.65096C70.7891 7.6256 70.1973 7.88488 69.7999 8.34989C69.3518 8.80081 69.101 9.41237 69.101 10.0493C69.0531 10.6947 69.3124 11.3231 69.7999 11.7487Z" fill="white" stroke="white" stroke-width="0.00563651" stroke-miterlimit="10"/>
<path d="M75.5999 13.0479V7.04785H76.4989L79.3989 11.7487V7.04785H80.1992V13.0479H79.3989L76.2988 8.14697V13.0479H75.5999Z" fill="white" stroke="white" stroke-width="0.00563651" stroke-miterlimit="10"/>
<path d="M68.1005 21.8493C65.7783 21.7986 63.8534 23.6389 63.7999 25.9611C63.7971 26.0232 63.7971 26.0852 63.7999 26.15C63.783 28.506 65.6797 30.4309 68.0357 30.4506C68.0555 30.4506 68.078 30.4506 68.1005 30.4506C70.4228 30.5014 72.3477 28.661 72.4012 26.3388C72.404 26.2768 72.404 26.2148 72.4012 26.15C72.4857 23.8587 70.6962 21.9339 68.4077 21.8493C68.3035 21.8437 68.202 21.8437 68.1005 21.8493ZM68.1005 28.6498C66.6632 28.537 65.5923 27.2801 65.705 25.8456C65.8065 24.5661 66.8211 23.5515 68.1005 23.4501C69.4392 23.4585 70.5158 24.5492 70.5073 25.8879C70.5073 25.9414 70.5045 25.995 70.5017 26.0513C70.5665 27.421 69.5097 28.5849 68.1428 28.6498C68.1259 28.6469 68.1146 28.6469 68.1005 28.6498ZM58.8003 21.8493C56.4781 21.7986 54.5532 23.6389 54.4997 25.9611C54.4968 26.0232 54.4968 26.0852 54.4997 26.15C54.4827 28.506 56.3794 30.4309 58.7355 30.4506C58.7552 30.4506 58.7778 30.4506 58.8003 30.4506C61.1226 30.5014 63.0474 28.661 63.101 26.3388C63.1038 26.2768 63.1038 26.2148 63.101 26.15C63.1855 23.8587 61.3959 21.9339 59.1075 21.8493C59.0032 21.8437 58.9018 21.8437 58.8003 21.8493ZM58.8003 28.6498C57.363 28.537 56.2921 27.2801 56.4048 25.8456C56.5063 24.5661 57.5208 23.5515 58.8003 23.4501C60.139 23.4585 61.2156 24.5492 61.2071 25.8879C61.2071 25.9414 61.2043 25.995 61.2015 26.0513C61.2663 27.421 60.2094 28.5849 58.8426 28.6498C58.8285 28.6469 58.8144 28.6469 58.8003 28.6498ZM47.6992 23.1485V24.9494H51.9999C51.9379 25.8061 51.5856 26.6178 50.9994 27.2491C50.1285 28.1227 48.9336 28.5934 47.6992 28.5483C45.129 28.5737 43.0237 26.5107 42.9984 23.9376C42.9984 23.8728 42.9984 23.8108 43.0012 23.746C42.9561 21.1419 45.0303 18.9916 47.6344 18.9465C47.6569 18.9465 47.6795 18.9465 47.702 18.9465C48.9252 18.9578 50.1004 19.42 51.0022 20.2457L52.3014 18.9465C51.0952 17.7798 49.4803 17.1344 47.8007 17.1457C44.1482 17.1682 41.1806 20.0935 41.1017 23.746C41.1806 27.3956 44.151 30.321 47.8007 30.3464C49.5424 30.4422 51.2361 29.7432 52.4001 28.4468C53.4569 27.3055 54.029 25.8005 54.0008 24.2477C54.0206 23.8785 53.9867 23.5064 53.8994 23.1485H47.6992ZM93.1013 24.5492C92.5968 22.9738 91.1539 21.8916 89.5024 21.8493C87.2788 21.8606 85.4835 23.6727 85.492 25.8963C85.492 25.9809 85.4948 26.0654 85.5004 26.15C85.4356 28.4609 87.259 30.3858 89.57 30.4478C89.6151 30.4478 89.6574 30.4506 89.7025 30.4506C91.12 30.4647 92.4418 29.7461 93.2027 28.5511L91.8021 27.5506C91.3652 28.2947 90.5648 28.7512 89.7025 28.7512C88.8006 28.7963 87.9636 28.2806 87.6029 27.452L93.3042 25.0509L93.1013 24.5492ZM87.3013 25.9471C87.259 24.6619 88.2229 23.5685 89.5024 23.4473C90.1618 23.4247 90.779 23.7714 91.1031 24.3463L87.3013 25.9471ZM82.6005 30.0476H84.5V17.5487H82.6005V30.0476ZM79.599 22.7483C78.9959 22.1255 78.1673 21.7648 77.2993 21.7479C75.0024 21.855 73.1959 23.7488 73.1988 26.0485C73.1649 28.3341 74.9912 30.2139 77.2796 30.2477C77.2852 30.2477 77.2937 30.2477 77.2993 30.2477C78.1448 30.2533 78.948 29.8898 79.5004 29.2472H79.6018V29.8475C79.7287 31.096 78.8184 32.212 77.5699 32.3389C76.5299 32.4431 75.5548 31.8287 75.2025 30.848L73.6018 31.5469C74.2528 33.066 75.7493 34.0495 77.4008 34.0467C79.6018 34.0467 81.3999 32.7475 81.3999 29.6474V22.0494H79.599V22.7483ZM77.4008 28.6469C75.9635 28.5342 74.8925 27.2773 75.0053 25.8428C75.1067 24.5633 76.1213 23.5487 77.4008 23.4473C78.7282 23.5008 79.7597 24.6225 79.7061 25.9499C79.7061 25.9837 79.7033 26.0147 79.7005 26.0485C79.8076 27.3731 78.824 28.5342 77.4994 28.6413C77.4656 28.6441 77.4318 28.6469 77.4008 28.6469ZM101.801 17.5487H97.3005V30.0476H99.2V25.3468H101.801C103.954 25.3468 105.702 23.5995 105.702 21.4463C105.699 19.2932 103.954 17.5487 101.801 17.5487ZM101.9 23.5487H99.2V19.2481H101.9C103.078 19.2481 104.047 20.1725 104.101 21.3477C104.053 22.5426 103.095 23.5008 101.9 23.5487ZM113.401 21.7479C112.015 21.6379 110.701 22.3932 110.101 23.6474L111.8 24.3463C112.139 23.7375 112.807 23.3853 113.5 23.4473C114.483 23.374 115.357 24.0729 115.501 25.048V25.1495C114.92 24.8254 114.266 24.6535 113.601 24.6507C111.8 24.6507 110.002 25.6511 110.002 27.452C110.07 29.0697 111.437 30.3238 113.054 30.2533C113.071 30.2533 113.086 30.2505 113.102 30.2505C114.055 30.2815 114.957 29.8306 115.504 29.05H115.605V30.0504H117.406V25.2509C117.248 23.1852 115.467 21.6267 113.401 21.7479ZM113.201 28.6469C112.601 28.6469 111.702 28.3482 111.702 27.5478C111.702 26.5473 112.801 26.2486 113.703 26.2486C114.292 26.2514 114.875 26.3867 115.402 26.6488C115.241 27.7564 114.32 28.5962 113.201 28.6469ZM123.699 22.0466L121.599 27.4464H121.498L119.3 22.0466H117.299L120.599 29.6474L118.699 33.8466H120.599L125.7 22.0466H123.699ZM106.899 30.0476H108.799V17.5487H106.899V30.0476Z" fill="white"/>
<path d="M10.3996 7.54932C10.0924 7.94669 9.94871 8.44834 9.99944 8.94999V31.0507C9.97689 31.5637 10.1573 32.0681 10.4983 32.4514L10.5997 32.5529L23 20.1525V19.9524L10.3996 7.54932Z" fill="url(#paint0_linear_4618_84092)"/>
<path d="M26.9991 24.349L22.9014 20.2484V19.9497L26.9991 15.8491L27.1006 15.9506L32.0015 18.7519C33.4022 19.5523 33.4022 20.8515 32.0015 21.6519L26.9991 24.349Z" fill="url(#paint1_linear_4618_84092)"/>
<path d="M27.1006 24.2475L22.9014 20.0483L10.4025 32.5473C10.9013 33.0461 11.603 33.0461 12.5021 32.6487L27.1006 24.2475Z" fill="url(#paint2_linear_4618_84092)"/>
<path d="M27.1006 15.8492L12.4993 7.54945C11.8708 7.0619 10.9802 7.10417 10.3997 7.65091L22.8986 20.0512L27.1006 15.8492Z" fill="url(#paint3_linear_4618_84092)"/>
<path opacity="0.2" d="M26.9991 24.1489L12.4992 32.35C11.9102 32.8066 11.0873 32.8066 10.4982 32.35L10.3968 32.4515L10.4982 32.553C11.0873 33.0095 11.9102 33.0095 12.4992 32.553L26.9991 24.1489Z" fill="black"/>
<path opacity="0.12" d="M10.3996 32.3475C10.0924 31.9501 9.94871 31.4484 9.99944 30.9468V31.0482C9.97689 31.5612 10.1573 32.0656 10.4983 32.4489V32.3475H10.3996Z" fill="black"/>
<path opacity="0.12" d="M32.0015 21.3476L27.002 24.1489L27.1034 24.2504L32.0044 21.449C32.5708 21.2038 32.9569 20.6655 33.0048 20.0483C32.9992 20.55 32.599 20.9474 32.0015 21.3476Z" fill="black"/>
<path opacity="0.25" d="M12.4992 7.64791L31.9987 18.749C32.599 19.1492 32.9992 19.5494 32.9992 20.0482C32.9513 19.431 32.568 18.8927 31.9987 18.6475L12.4992 7.54927C11.0986 6.74888 9.99945 7.34917 9.99945 8.94994V9.0514C9.99945 7.54927 11.1014 6.84752 12.4992 7.64791Z" fill="white"/>
<defs>
<linearGradient id="paint0_linear_4618_84092" x1="52.0899" y1="61.5451" x2="32.2015" y2="56.1573" gradientUnits="userSpaceOnUse">
<stop stop-color="#00A0FF"/>
<stop offset="0.007" stop-color="#00A1FF"/>
<stop offset="0.26" stop-color="#00BEFF"/>
<stop offset="0.512" stop-color="#00D2FF"/>
<stop offset="0.76" stop-color="#00DFFF"/>
<stop offset="1" stop-color="#00E3FF"/>
</linearGradient>
<linearGradient id="paint1_linear_4618_84092" x1="33.8316" y1="20.1015" x2="9.63426" y2="20.1015" gradientUnits="userSpaceOnUse">
<stop stop-color="#FFE000"/>
<stop offset="0.409" stop-color="#FFBD00"/>
<stop offset="0.775" stop-color="#FFA500"/>
<stop offset="1" stop-color="#FF9C00"/>
</linearGradient>
<linearGradient id="paint2_linear_4618_84092" x1="103.354" y1="112.949" x2="87.3837" y2="86.153" gradientUnits="userSpaceOnUse">
<stop stop-color="#FF3A44"/>
<stop offset="1" stop-color="#C31162"/>
</linearGradient>
<linearGradient id="paint3_linear_4618_84092" x1="-92.5173" y1="122.992" x2="-85.4291" y2="111.001" gradientUnits="userSpaceOnUse">
<stop stop-color="#32A071"/>
<stop offset="0.068" stop-color="#2DA771"/>
<stop offset="0.476" stop-color="#15CF74"/>
<stop offset="0.801" stop-color="#06E775"/>
<stop offset="1" stop-color="#00F076"/>
</linearGradient>
</defs>
</svg>
