<svg width="36" height="40" viewBox="0 0 36 40" fill="none" xmlns="http://www.w3.org/2000/svg">
<path d="M8.02393 39.5059C6.76393 39.5059 5.49989 39.1798 4.33789 38.5298C1.93389 37.1838 0.5 34.7378 0.5 31.9878V8.01225C0.5 5.26225 1.93389 2.81826 4.33789 1.47026C6.74989 0.118261 9.5939 0.174257 11.9519 1.61626L32.104 13.9483C34.23 15.2483 35.5 17.512 35.5 20C35.5 22.488 34.23 24.7498 32.104 26.0518L11.9519 38.3838C10.7299 39.1298 9.37793 39.5059 8.02393 39.5059ZM8.02393 3.50005C7.26393 3.50005 6.50391 3.69594 5.80591 4.08794C4.36191 4.89594 3.50195 6.36425 3.50195 8.01225V31.9878C3.50195 33.6358 4.36391 35.1042 5.80591 35.9122C7.25391 36.7242 8.96599 36.6942 10.386 35.8262L30.5381 23.4942C31.7661 22.7422 32.5 21.436 32.5 20C32.5 18.564 31.7661 17.2579 30.5381 16.5059L10.386 4.17388C9.64999 3.72588 8.83793 3.50005 8.02393 3.50005Z" fill="white"/>
</svg>
