<svg width="113" height="126" viewBox="0 0 113 126" fill="none" xmlns="http://www.w3.org/2000/svg">
<path d="M50.0514 2.4859C54.0396 0.18333 58.9532 0.183327 62.9414 2.4859L105.681 27.1614C109.669 29.464 112.126 33.7193 112.126 38.3245V87.6755C112.126 92.2806 109.669 96.536 105.681 98.8386L62.9414 123.514C58.9532 125.817 54.0396 125.817 50.0514 123.514L7.31219 98.8386C3.32401 96.536 0.867188 92.2807 0.867188 87.6755V38.3245C0.867188 33.7193 3.324 29.464 7.31218 27.1614L50.0514 2.4859Z" fill="#E6F8FA"/>
<path d="M50.3014 2.91892C54.1349 0.705658 58.8579 0.705657 62.6914 2.91891L105.431 27.5944C109.264 29.8077 111.626 33.898 111.626 38.3245V87.6755C111.626 92.102 109.264 96.1923 105.431 98.4055L62.6914 123.081C58.8579 125.294 54.1349 125.294 50.3014 123.081L7.56219 98.4056C3.72871 96.1923 1.36719 92.102 1.36719 87.6755V38.3245C1.36719 33.898 3.72871 29.8077 7.56218 27.5944L50.3014 2.91892Z" stroke="#2673B8" stroke-opacity="0.7"/>
</svg>
