<svg width="65" height="65" viewBox="0 0 65 65" fill="none" xmlns="http://www.w3.org/2000/svg">
<path d="M62.2274 19.5213V14.8673C62.2274 14.5638 62.1069 14.2728 61.8923 14.0581C61.6776 13.8435 61.3866 13.723 61.0831 13.723H58.6969C58.2161 13.723 57.7827 13.4237 57.6224 12.9703C57.4754 12.5543 57.3065 12.1463 57.1166 11.748C56.9094 11.3137 57.0037 10.7957 57.3438 10.4556L59.0308 8.76859C59.2454 8.55398 59.366 8.26291 59.366 7.95941C59.366 7.6559 59.2454 7.36483 59.0308 7.15022L55.7399 3.85934C55.5253 3.64474 55.2343 3.52417 54.9307 3.52417C54.6272 3.52417 54.3362 3.64474 54.1216 3.85934L52.4346 5.54634C52.0944 5.88647 51.5763 5.98072 51.1422 5.77359C50.7439 5.58363 50.3359 5.41477 49.9198 5.26772C49.4664 5.10747 49.1672 4.67409 49.1672 4.19322V1.80709C49.1672 1.50359 49.0466 1.21251 48.832 0.997899C48.6174 0.783287 48.3263 0.66272 48.0228 0.66272H43.3688C43.0653 0.66272 42.7742 0.783287 42.5596 0.997899C42.345 1.21251 42.2244 1.50359 42.2244 1.80709V4.19322C42.2244 4.67409 41.9252 5.10747 41.4718 5.26772C41.0558 5.41477 40.6477 5.58363 40.2494 5.77359C39.8152 5.98072 39.2972 5.88647 38.9571 5.54634L37.2701 3.85934C37.0555 3.64474 36.7644 3.52417 36.4609 3.52417C36.1574 3.52417 35.8663 3.64474 35.6517 3.85934L32.3607 7.15022C32.1461 7.36483 32.0255 7.6559 32.0255 7.95941C32.0255 8.26291 32.1461 8.55398 32.3607 8.76859L34.0477 10.4556C34.3878 10.7957 34.4821 11.3138 34.2749 11.748C34.085 12.1463 33.9161 12.5543 33.7691 12.9703C33.6088 13.4237 33.1754 13.723 32.6946 13.723H30.3084C30.0049 13.723 29.7139 13.8435 29.4992 14.0581C29.2846 14.2728 29.1641 14.5638 29.1641 14.8673V19.5213C29.1641 19.8249 29.2846 20.1159 29.4992 20.3305C29.7139 20.5452 30.0049 20.6657 30.3084 20.6657H32.6946C33.1754 20.6657 33.6088 20.965 33.7691 21.4183C33.9161 21.8344 34.085 22.2424 34.2749 22.6407C34.4821 23.075 34.3878 23.593 34.0477 23.9331L32.3607 25.6201C32.1461 25.8347 32.0255 26.1258 32.0255 26.4293C32.0255 26.7328 32.1461 27.0239 32.3607 27.2385L35.6516 30.5293C35.8662 30.744 36.1572 30.8645 36.4607 30.8645C36.7643 30.8645 37.0553 30.744 37.2699 30.5293L38.9569 28.8423C39.2971 28.5022 39.8152 28.408 40.2493 28.6151C40.6476 28.8051 41.0556 28.9739 41.4717 29.121C41.9251 29.2812 42.2243 29.7146 42.2243 30.1955V32.5816C42.2243 32.8851 42.3449 33.1762 42.5595 33.3908C42.7741 33.6054 43.0652 33.726 43.3687 33.726H48.0227C48.3262 33.726 48.6173 33.6054 48.8319 33.3908C49.0465 33.1762 49.1671 32.8851 49.1671 32.5816V30.1955C49.1671 29.7146 49.4663 29.2812 49.9197 29.121C50.3357 28.9739 50.7438 28.8051 51.1421 28.6151C51.5763 28.408 52.0943 28.5022 52.4344 28.8423L54.1214 30.5293C54.3361 30.744 54.6271 30.8645 54.9306 30.8645C55.2341 30.8645 55.5252 30.744 55.7398 30.5293L59.0307 27.2385C59.2453 27.0239 59.3659 26.7328 59.3659 26.4293C59.3659 26.1258 59.2453 25.8347 59.0307 25.6201L57.3437 23.9331C57.0036 23.593 56.9093 23.075 57.1164 22.6407C57.3064 22.2424 57.4753 21.8344 57.6223 21.4183C57.7826 20.965 58.2159 20.6657 58.6968 20.6657H61.0829C61.2332 20.6658 61.3821 20.6362 61.5209 20.5787C61.6598 20.5212 61.786 20.4369 61.8923 20.3306C61.9985 20.2243 62.0828 20.0982 62.1404 19.9593C62.1979 19.8205 62.2275 19.6716 62.2274 19.5213Z" fill="#C5D3DD"/>
<path d="M49.8628 28.9888L50.0815 29.2076C50.0275 29.2282 49.9748 29.2475 49.9207 29.2667C49.4678 29.4276 49.168 29.8598 49.168 30.341V32.7276C49.168 33.0309 49.0475 33.3218 48.8331 33.5363C48.6186 33.7508 48.3276 33.8713 48.0243 33.8713H45.4512C45.7545 33.8713 46.0454 33.7508 46.2599 33.5363C46.4744 33.3218 46.5949 33.0309 46.5949 32.7276V30.3411C46.5949 29.86 46.8947 29.4276 47.3475 29.2668C47.7635 29.1198 48.1715 28.9511 48.5698 28.7612C49.0047 28.554 49.5219 28.6478 49.8628 28.9888ZM49.9208 5.26734C49.9748 5.28659 50.0289 5.30597 50.0829 5.32647L49.8629 5.54647C49.5219 5.88609 49.0048 5.98009 48.5699 5.77297C48.1716 5.58312 47.7637 5.41435 47.3477 5.26734C46.8948 5.10784 46.595 4.67422 46.595 4.19309V1.80647C46.595 1.50313 46.4745 1.21221 46.2601 0.997716C46.0456 0.783222 45.7546 0.66272 45.4513 0.66272H48.0244C48.3278 0.66272 48.6187 0.783222 48.8332 0.997716C49.0477 1.21221 49.1682 1.50313 49.1682 1.80647V4.19309C49.168 4.67422 49.4679 5.10784 49.9208 5.26734ZM62.2283 14.8667V19.5216C62.2283 19.8249 62.1078 20.1159 61.8933 20.3303C61.6788 20.5448 61.3879 20.6653 61.0845 20.6653H58.6979C58.2168 20.6653 57.7832 20.9651 57.6237 21.418C57.4767 21.834 57.3079 22.2419 57.118 22.6402C56.9109 23.0751 57.0048 23.5923 57.3444 23.9332L59.0324 25.62C59.4789 26.0665 59.4789 26.7921 59.0324 27.2385L55.7413 30.5296C55.2935 30.9761 54.5692 30.9761 54.1228 30.5296L53.6454 30.0522L56.4592 27.2385C56.9057 26.792 56.9057 26.0663 56.4592 25.62L54.7712 23.9332C54.4315 23.5922 54.3376 23.0751 54.5448 22.6402C54.7346 22.2419 54.9034 21.834 55.0504 21.418C55.2099 20.9651 55.6435 20.6653 56.1247 20.6653H58.5113C58.8146 20.6653 59.1056 20.5448 59.3201 20.3303C59.5345 20.1159 59.655 19.8249 59.655 19.5216V14.8667C59.655 14.5634 59.5345 14.2725 59.3201 14.058C59.1056 13.8435 58.8146 13.723 58.5113 13.723H56.1247C55.6435 13.723 55.2099 13.4232 55.0504 12.9703C54.9034 12.5543 54.7346 12.1464 54.5448 11.7481C54.3377 11.3132 54.4315 10.796 54.7712 10.4551L56.4592 8.76834C56.9057 8.32185 56.9057 7.59759 56.4592 7.14984L53.6454 4.33609L54.1228 3.85872C54.5693 3.41222 55.2935 3.41222 55.7413 3.85872L59.0324 7.14984C59.4789 7.59759 59.4789 8.32197 59.0324 8.76834L57.3444 10.4551C57.0048 10.7961 56.9108 11.3132 57.118 11.7481C57.3079 12.1464 57.4767 12.5543 57.6237 12.9703C57.7832 13.4232 58.2168 13.723 58.6979 13.723H61.0845C61.2348 13.723 61.3835 13.7525 61.5223 13.81C61.661 13.8675 61.7871 13.9517 61.8933 14.0579C61.9995 14.1641 62.0838 14.2902 62.1413 14.429C62.1987 14.5678 62.2283 14.7165 62.2283 14.8667Z" fill="#B6C4CF"/>
<path d="M45.6955 25.3115C50.1786 25.3115 53.8129 21.6773 53.8129 17.1942C53.8129 12.7111 50.1786 9.07678 45.6955 9.07678C41.2124 9.07678 37.5781 12.7111 37.5781 17.1942C37.5781 21.6773 41.2124 25.3115 45.6955 25.3115Z" fill="#FAF7F7"/>
<path d="M53.8133 17.1942C53.8133 21.6779 50.1787 25.3113 45.6962 25.3113C44.1613 25.3113 42.7255 24.8854 41.502 24.1457C42.0569 24.2633 42.6227 24.3224 43.19 24.3219C47.6725 24.3219 51.3071 20.6885 51.3071 16.2048C51.3071 13.2572 49.7348 10.675 47.383 9.2533C51.0562 10.0292 53.8133 13.2907 53.8133 17.1942Z" fill="#EDE1DD"/>
<path d="M45.269 46.4053H16.7773V18.9219C16.7773 18.6545 16.8836 18.3981 17.0727 18.209C17.2617 18.0199 17.5182 17.9137 17.7856 17.9137H27.6217L31.0231 18.6166L34.4246 17.9137H44.2606C44.528 17.9137 44.7845 18.0199 44.9735 18.209C45.1626 18.3981 45.2688 18.6545 45.2688 18.9219L45.269 46.4053Z" fill="#FCCD7F"/>
<path d="M45.27 18.9216V46.4058H42.6968V18.9216C42.6968 18.3658 42.2452 17.9142 41.6895 17.9142H44.2626C44.8185 17.9142 45.27 18.3658 45.27 18.9216Z" fill="#FBC56D"/>
<path d="M27.623 17.9137V25.4797C27.623 25.9277 28.0968 26.2173 28.4955 26.0129L30.7512 24.8567C30.9228 24.7687 31.1262 24.7687 31.2978 24.8567L33.5534 26.0129C33.9522 26.2173 34.4259 25.9278 34.4259 25.4797V17.9137H27.623Z" fill="#D8AA5E"/>
<path d="M34.4268 17.9142V25.4793C34.4268 25.9271 33.952 26.2178 33.5531 26.0133L31.8535 25.1423V17.9142H34.4268Z" fill="#C99C56"/>
<path d="M35.8224 41.6144H26.2239C26.0707 41.6144 25.9239 41.5536 25.8156 41.4453C25.7073 41.3371 25.6465 41.1902 25.6465 41.0371V36.9183C25.6465 36.7652 25.7073 36.6183 25.8156 36.5101C25.9239 36.4018 26.0707 36.3409 26.2239 36.3409H35.8224C35.8982 36.3409 35.9733 36.3559 36.0433 36.3849C36.1134 36.4139 36.177 36.4564 36.2306 36.5101C36.2842 36.5637 36.3268 36.6273 36.3558 36.6974C36.3848 36.7674 36.3997 36.8425 36.3997 36.9183V41.0371C36.3997 41.1902 36.3389 41.3371 36.2306 41.4453C36.1223 41.5536 35.9755 41.6144 35.8224 41.6144Z" fill="#D8AA5E"/>
<path d="M36.4002 36.9181V41.0365C36.4002 41.1123 36.3853 41.1874 36.3563 41.2575C36.3273 41.3276 36.2847 41.3913 36.2311 41.445C36.1774 41.4986 36.1138 41.5412 36.0437 41.5702C35.9736 41.5993 35.8985 41.6142 35.8226 41.6142H33.1992C33.2751 41.6142 33.3502 41.5993 33.4203 41.5703C33.4904 41.5412 33.5541 41.4987 33.6077 41.445C33.6614 41.3914 33.7039 41.3277 33.7329 41.2576C33.762 41.1875 33.7769 41.1123 33.7768 41.0365V36.9181C33.7769 36.8422 33.7619 36.7671 33.7329 36.697C33.7039 36.6269 33.6613 36.5632 33.6077 36.5096C33.5541 36.456 33.4904 36.4134 33.4203 36.3844C33.3502 36.3554 33.2751 36.3404 33.1992 36.3405H35.8226C35.8985 36.3404 35.9736 36.3554 36.0437 36.3844C36.1138 36.4134 36.1774 36.456 36.2311 36.5096C36.2847 36.5632 36.3273 36.6269 36.3563 36.697C36.3853 36.7671 36.4002 36.8422 36.4002 36.9181Z" fill="#C99C56"/>
<path d="M55.3877 64.3373H9.61187C4.5795 64.3373 0.5 60.2577 0.5 55.2253C0.5 50.1929 4.5795 46.1134 9.61187 46.1134H55.3877C60.4201 46.1134 64.4996 50.1929 64.4996 55.2253C64.4998 60.2577 60.4201 64.3373 55.3877 64.3373Z" fill="#C5D3DD"/>
<path d="M64.4992 55.2255C64.4992 57.7421 63.479 60.0194 61.8309 61.6688C60.1815 63.3169 57.9042 64.3371 55.3876 64.3371H52.5996C55.1149 64.3371 57.3935 63.3169 59.0429 61.6688C60.691 60.0194 61.7112 57.7421 61.7112 55.2255C61.7112 50.1924 57.6315 46.1139 52.5996 46.1139H55.3876C60.4195 46.1139 64.4992 50.1924 64.4992 55.2255Z" fill="#B6C4CF"/>
<path d="M12.4086 58.8661C14.4194 58.8661 16.0496 57.236 16.0496 55.2251C16.0496 53.2142 14.4194 51.5841 12.4086 51.5841C10.3977 51.5841 8.76758 53.2142 8.76758 55.2251C8.76758 57.236 10.3977 58.8661 12.4086 58.8661Z" fill="#8D9CA8"/>
<path d="M25.8031 58.8661C27.814 58.8661 29.4441 57.236 29.4441 55.2251C29.4441 53.2142 27.814 51.5841 25.8031 51.5841C23.7922 51.5841 22.1621 53.2142 22.1621 55.2251C22.1621 57.236 23.7922 58.8661 25.8031 58.8661Z" fill="#8D9CA8"/>
<path d="M39.1957 58.8661C41.2066 58.8661 42.8367 57.236 42.8367 55.2251C42.8367 53.2142 41.2066 51.5841 39.1957 51.5841C37.1848 51.5841 35.5547 53.2142 35.5547 55.2251C35.5547 57.236 37.1848 58.8661 39.1957 58.8661Z" fill="#8D9CA8"/>
<path d="M52.5902 58.8661C54.6011 58.8661 56.2312 57.236 56.2312 55.2251C56.2312 53.2142 54.6011 51.5841 52.5902 51.5841C50.5794 51.5841 48.9492 53.2142 48.9492 55.2251C48.9492 57.236 50.5794 58.8661 52.5902 58.8661Z" fill="#8D9CA8"/>
<path d="M16.051 55.2255C16.051 57.2364 14.4209 58.8665 12.4099 58.8665C11.8805 58.8672 11.3575 58.7521 10.8774 58.5292C10.3973 58.3062 9.97181 57.9809 9.63086 57.576C9.78011 57.5966 9.93323 57.6069 10.0889 57.6069C12.0999 57.6069 13.7299 55.9767 13.7299 53.9659C13.7299 53.0704 13.4056 52.2496 12.8679 51.6152C14.6627 51.8391 16.051 53.3702 16.051 55.2255ZM29.4444 55.2255C29.4444 57.2364 27.8142 58.8665 25.8034 58.8665C25.274 58.8673 24.7509 58.7521 24.2709 58.5292C23.7908 58.3062 23.3653 57.9809 23.0244 57.576C23.1749 57.5966 23.328 57.6069 23.4837 57.6069C25.4947 57.6069 27.1247 55.9767 27.1247 53.9659C27.1247 53.0704 26.8005 52.2496 26.2627 51.6152C28.0575 51.8391 29.4444 53.3702 29.4444 55.2255ZM42.8379 55.2255C42.8379 57.2364 41.2077 58.8665 39.1969 58.8665C38.6675 58.8672 38.1445 58.7521 37.6644 58.5292C37.1843 58.3062 36.7588 57.9809 36.4179 57.576C36.5684 57.5966 36.7215 57.6069 36.8771 57.6069C38.8881 57.6069 40.5181 55.9767 40.5181 53.9659C40.5181 53.0704 40.1939 52.2496 39.6561 51.6152C41.4509 51.8391 42.8379 53.3702 42.8379 55.2255ZM56.2314 55.2255C56.2314 57.2364 54.6012 58.8665 52.5904 58.8665C52.061 58.8673 51.5379 58.7521 51.0579 58.5292C50.5778 58.3062 50.1523 57.9809 49.8114 57.576C49.9619 57.5966 50.115 57.6069 50.2707 57.6069C52.2817 57.6069 53.9117 55.9767 53.9117 53.9659C53.9117 53.0704 53.5875 52.2496 53.0497 51.6152C54.8444 51.8391 56.2314 53.3702 56.2314 55.2255Z" fill="#7A8C98"/>
</svg>
