<svg width="490" height="431" viewBox="0 0 490 431" fill="none" xmlns="http://www.w3.org/2000/svg">
<path d="M367.545 389.553C347.421 422.788 178.843 413.81 115.766 382.94C52.6884 352.071 46.3589 87.232 76.3636 47.698C106.417 8.18817 296.881 -4.4347 374.961 38.4541C453.065 81.3429 394.312 345.337 367.545 389.553Z" fill="#E5F6FF" fill-opacity="0.7"/>
<path d="M74.7446 30.2964C74.5755 14.0773 38.048 -4.50706 17.006 0.995841C-4.03595 6.49874 -7.29733 78.9536 24.7367 81.343C56.7707 83.7324 74.9378 50.5219 74.7446 30.2964Z" fill="#E5F6FF" fill-opacity="0.7"/>
<path d="M407.091 372.948C409.894 360.784 400.496 347.847 391.896 350.092C383.295 352.336 373.535 392.86 386.653 393.825C399.747 394.815 405.255 381.009 407.115 372.948H407.091Z" fill="#E5F6FF" fill-opacity="0.7"/>
<path d="M312.728 25.4934C312.728 25.4934 332.537 39.6851 340.582 71.4233C348.603 103.162 302.46 63.9654 302.46 63.9654L312.752 25.4934H312.728Z" fill="url(#paint0_linear_1117_42507)"/>
<path d="M330.17 58.6315C330.17 58.6315 315.071 20.5457 301.18 14.5118C287.289 8.47793 266.609 20.3526 266.609 20.3526L330.17 58.6315Z" fill="url(#paint1_linear_1117_42507)"/>
<path d="M158.403 187.612C194.737 226.036 334.18 206.389 353.675 179.937C361.43 169.414 365.272 156.742 365.755 143.227V143.178C367.808 85.2772 308.741 11.157 235.613 16.8771C186.065 20.7629 153.258 68.6478 144.609 114.674C139.173 143.444 143.159 171.489 158.403 187.588V187.612Z" fill="url(#paint2_linear_1117_42507)"/>
<path d="M189.52 203.469C207.977 207.644 235.034 209.768 252.742 208.73C285.646 206.824 309.128 201.755 322.077 195.697C330.605 191.691 334.567 187.322 333.697 183.074C333.19 180.492 326.594 178.585 316.327 177.306C286.153 173.613 224.259 175.52 191.235 182.471C188.384 183.074 185.751 183.702 183.383 184.378C182.852 184.522 182.393 184.667 181.91 184.812C181.813 184.812 181.741 184.836 181.644 184.884C175.967 186.622 172.005 188.577 170.314 190.798C169.879 191.353 169.589 191.908 169.468 192.487C168.453 196.856 177.03 200.621 189.52 203.445V203.469Z" fill="url(#paint3_linear_1117_42507)"/>
<path style="mix-blend-mode:multiply" opacity="0.3" d="M158.404 187.612C194.739 226.036 334.181 206.389 353.677 179.937C361.432 169.414 365.273 156.743 365.756 143.227V143.178C365.756 143.178 357.421 162.004 329.18 167.097C300.963 172.189 217.762 172.793 200.223 161.328C182.684 149.864 185.872 92.5662 185.872 92.5662L144.634 114.674C139.199 143.444 143.185 171.489 158.429 187.588L158.404 187.612Z" fill="url(#paint4_linear_1117_42507)"/>
<path style="mix-blend-mode:multiply" opacity="0.5" d="M189.519 203.469C203.338 196.493 243.827 178.15 277.432 183.702C318.646 190.484 322.052 195.721 322.052 195.721C330.58 191.715 334.542 187.346 333.672 183.098C333.165 180.516 326.57 178.609 316.303 177.33C286.129 173.637 224.235 175.544 191.21 182.495C187.756 183.315 184.639 184.112 181.885 184.86C181.789 184.86 181.716 184.884 181.62 184.932C175.942 186.67 171.98 188.625 170.289 190.846C169.854 191.401 169.565 191.956 169.444 192.535C168.429 196.904 177.005 200.669 189.495 203.493L189.519 203.469Z" fill="url(#paint5_linear_1117_42507)"/>
<path d="M183.384 184.402C191.573 191.377 229.236 195.673 250.496 194.418C288.593 192.173 311.375 184.836 316.327 177.306C283.568 173.299 213.34 175.906 183.384 184.402Z" fill="url(#paint6_linear_1117_42507)"/>
<path d="M366.263 145.809C361.311 163.5 240.881 176.775 208.219 148.271C175.557 119.767 198.773 16.9978 263.204 22.5007C324.638 27.7381 375.226 113.757 366.263 145.809Z" fill="#DFE3FB"/>
<path d="M365.756 143.203C360.803 160.894 240.374 174.169 207.711 145.664C175.049 117.136 198.265 14.3914 262.696 19.8943C324.131 25.1317 374.718 111.151 365.756 143.203Z" fill="url(#paint7_linear_1117_42507)"/>
<path d="M197.879 37.4404C197.879 37.4404 204.111 96.9344 167.294 117.788C167.294 117.788 149.248 119.646 138.835 108.64C138.835 108.64 155.07 124.039 172.367 108.182C189.665 92.3004 185.727 48.3014 172.73 33.9166C159.732 19.5318 140.841 23.2004 140.841 23.2004L148.426 16.4425C148.426 16.4425 176.257 10.9154 197.879 37.4162V37.4404Z" fill="url(#paint8_linear_1117_42507)"/>
<path d="M148.426 16.4668C148.426 16.4668 168.864 14.6807 183.021 38.4542C198.047 63.6758 186.814 107.12 168.357 113.636C149.9 120.153 131.636 49.6772 131.636 49.6772L142.483 21.7283C142.483 21.7283 144.633 17.8183 148.402 16.4426L148.426 16.4668Z" fill="url(#paint9_linear_1117_42507)"/>
<path d="M121.707 76.2745C124.267 89.8869 129.751 101.013 137.12 108.061L137.168 108.109L139.221 109.944C145.188 114.819 152.267 117.16 159.949 116.219C184.832 113.178 188.36 77.2158 185.533 56.7972C182.247 33.2168 162.148 18.9768 146.082 20.9559C126.973 23.3212 116.633 49.6289 121.658 76.2745H121.707Z" fill="url(#paint10_linear_1117_42507)"/>
<path d="M366.431 126.983C366.431 126.983 383.801 130.917 400.253 144.385C416.681 157.853 421.005 174.289 400.736 172.817L391.339 167.314C391.339 167.314 403.442 169.003 401.847 156.694C400.229 144.385 366.866 129.228 366.866 129.228L366.431 126.959V126.983Z" fill="url(#paint11_linear_1117_42507)"/>
<path d="M404.312 162.752C410.4 168.931 398.538 174.554 388.585 176.171C377.424 178.006 357.3 176.775 357.88 165.407C358.46 154.039 390.035 148.271 404.312 162.728V162.752Z" fill="url(#paint12_linear_1117_42507)"/>
<path d="M403.612 163.983C404.047 165.818 363.968 168.424 362.639 161.401C361.31 154.377 400.205 149.816 403.612 163.983Z" fill="url(#paint13_linear_1117_42507)"/>
<path d="M262.139 91.842C263.009 93.0247 246.316 82.2844 219.766 92.5903C217.132 93.6039 245.084 68.5271 262.139 91.842Z" fill="url(#paint14_linear_1117_42507)"/>
<path d="M345.897 91.9626C346.766 93.1452 337.997 84.6978 314.66 90.3455C311.93 90.9972 330.556 71.1819 345.897 91.9626Z" fill="url(#paint15_linear_1117_42507)"/>
<path style="mix-blend-mode:screen" opacity="0.5" d="M332.247 69.3236C329.517 73.4507 306.688 61.6002 281.587 64.1344C256.487 66.6687 228.994 91.2869 208.411 88.2217C192.08 85.784 213.63 27.1106 255.23 21.8731C296.831 16.6357 334.977 65.2205 332.271 69.3236H332.247Z" fill="url(#paint16_linear_1117_42507)"/>
<path style="mix-blend-mode:screen" opacity="0.5" d="M339.664 148.512C339.664 148.512 313.525 141.585 281.249 145.182C248.974 148.778 243.756 152.205 244.359 155.246C244.963 158.287 268.445 164.514 298.064 161.352C327.682 158.215 339.688 148.512 339.688 148.512H339.664Z" fill="url(#paint17_linear_1117_42507)"/>
<path style="mix-blend-mode:screen" opacity="0.5" d="M364.837 138.496C364.837 138.496 368.146 115.76 347.612 83.6119C347.612 83.6119 343.191 78.5676 341.185 80.3777C339.156 82.1879 359.715 105.527 364.837 138.496Z" fill="url(#paint18_linear_1117_42507)"/>
<path style="mix-blend-mode:screen" opacity="0.72" d="M181.378 85.5183C181.378 85.5183 178.624 107.578 162.365 112.26C146.107 116.943 132.965 105.165 128.906 88.5835C128.906 88.5835 133.931 102.896 155.069 99.348C176.208 95.8 181.354 85.5183 181.354 85.5183H181.378Z" fill="url(#paint19_linear_1117_42507)"/>
<path style="mix-blend-mode:screen" opacity="0.72" d="M178.6 43.7882C178.382 47.8912 148.643 39.2024 139.149 40.4092C129.679 41.616 125.572 53.201 124.074 52.9356C122.576 52.6701 126.732 25.5176 144.343 23.6109C161.954 21.7042 178.72 40.9402 178.575 43.7882H178.6Z" fill="url(#paint20_linear_1117_42507)"/>
<path d="M318.501 114.698C318.501 114.698 288.907 115.736 272.117 111.512C272.117 111.512 276.079 139.22 295.309 139.22C314.539 139.22 318.501 114.674 318.501 114.674V114.698Z" fill="#2F95CD"/>
<path d="M319.686 278.385C319.686 278.385 369.38 306.551 381.072 305.417C392.765 304.283 387.571 277.734 387.571 277.734C386.025 275.899 384.286 274.017 382.425 272.062C363.751 252.343 331.862 227.242 313.55 215.271C305.843 210.227 300.528 207.523 299.635 208.537C292.846 216.067 319.758 278.385 319.758 278.385H319.686Z" fill="url(#paint21_linear_1117_42507)"/>
<path d="M387.547 277.734C387.547 277.734 381.048 272.279 373.004 279.616C364.959 286.953 373.245 304.548 381.048 305.417C388.852 306.286 393.514 289.15 387.547 277.734Z" fill="url(#paint22_linear_1117_42507)"/>
<path style="mix-blend-mode:multiply" opacity="0.3" d="M319.686 278.385C319.686 278.385 369.38 306.551 381.072 305.417C392.765 304.283 387.571 277.734 387.571 277.734C386.025 275.899 384.286 274.017 382.425 272.062C382.425 272.062 370.274 279.206 347.903 275.779C325.508 272.351 313.55 215.271 313.55 215.271C305.843 210.227 300.528 207.523 299.635 208.537C292.846 216.067 319.758 278.385 319.758 278.385H319.686Z" fill="url(#paint23_linear_1117_42507)"/>
<path d="M261.657 370.245C260.908 380.792 272.359 416.706 283.931 427.736C283.931 427.736 283.931 427.752 283.931 427.784C286.178 429.884 288.4 431.091 290.551 430.994C300.141 430.632 311.423 386.73 315.675 361.701C317.318 352.023 317.898 345.192 316.931 344.758C308.814 341.234 262.551 357.67 261.633 370.221L261.657 370.245Z" fill="url(#paint24_linear_1117_42507)"/>
<path d="M261.151 373.648C261.151 373.648 271.635 381.613 290.865 375.386C305.892 370.511 318.696 349.175 316.956 344.782C315.217 340.389 257.164 356.512 261.151 373.648Z" fill="url(#paint25_linear_1117_42507)"/>
<path style="mix-blend-mode:multiply" opacity="0.3" d="M261.657 370.245C260.908 380.792 272.36 416.706 283.931 427.736C275.911 415.089 279.051 392.257 286.83 382.771C292.701 375.579 308.404 365.949 315.7 361.701C317.342 352.023 317.922 345.192 316.956 344.758C308.839 341.234 262.575 357.67 261.657 370.221V370.245Z" fill="url(#paint26_linear_1117_42507)"/>
<path d="M298.185 386.126C301.133 385.909 299.176 393.874 298.596 394.308C298.016 394.743 296.663 392.064 296.543 389.892C296.422 387.961 297.122 386.199 298.161 386.126H298.185Z" fill="white"/>
<path d="M192.733 306.141C189.834 345.675 206.334 367.928 244.601 378.74C282.095 389.336 317.076 355.739 319.178 304.693C320.507 272.11 319.589 242.568 308.693 221.111V221.039C302.533 208.899 293.135 199.389 279.172 193.355C268.131 188.601 256.825 191.907 246.147 200.089C218.365 221.401 195.028 275.658 192.757 306.141H192.733Z" fill="url(#paint27_linear_1117_42507)"/>
<path style="mix-blend-mode:multiply" opacity="0.3" d="M233.513 242.399C233.513 242.399 220.902 270.155 215.153 289.463C208.34 312.344 214.766 338.434 214.766 338.434L192.42 312.826C192.42 312.826 191.55 296.269 197.469 281.354C203.387 266.438 206.721 259.801 206.721 259.801L233.537 242.399H233.513Z" fill="url(#paint28_linear_1117_42507)"/>
<path d="M319.661 311.161C319.661 311.161 319.347 280.533 292.507 272.544C260.352 262.987 228.101 292.046 222.834 316.712C217.592 341.379 218.22 366.142 248.321 376.134C248.321 376.134 305.601 391.798 319.661 311.161Z" fill="url(#paint29_linear_1117_42507)"/>
<path d="M318.333 314.492C318.333 314.492 318.019 283.864 291.179 275.875C259.024 266.317 226.773 295.376 221.506 320.043C216.264 344.709 216.892 369.473 246.993 379.465C246.993 379.465 304.273 395.129 318.333 314.492Z" fill="url(#paint30_radial_1117_42507)"/>
<path d="M209.451 268.803C210.852 269.213 212.688 268.489 214.79 266.945C224.187 259.994 238.996 236.22 243.2 221.811C244.819 216.236 244.867 212.061 242.354 210.805C238.272 208.778 225.25 220.653 214.935 239.744C208.967 250.87 203.484 267.017 209.426 268.779L209.451 268.803Z" fill="url(#paint31_linear_1117_42507)"/>
<path d="M214.766 266.945C224.163 259.994 238.972 236.22 243.176 221.811C237.329 226.011 229.091 235.641 222.061 248.626C219.017 254.274 216.094 261.249 214.741 266.945H214.766Z" fill="#6340A2"/>
<path style="mix-blend-mode:multiply" opacity="0.5" d="M246.51 199.872C246.51 199.872 281.419 226.373 297.001 229.149C312.124 231.852 309.25 221.449 309.08 220.87V220.798C302.92 208.658 293.522 199.148 279.559 193.114C268.518 188.36 257.212 191.666 246.534 199.848L246.51 199.872Z" fill="url(#paint32_linear_1117_42507)"/>
<path style="mix-blend-mode:screen" opacity="0.72" d="M315.675 310.92C309.321 317.412 297.194 303.051 277.722 299.624C258.25 296.197 245.156 303.124 240.542 298.804C235.928 294.459 261.367 271.41 290.622 278.892C313.984 284.853 317.825 308.723 315.675 310.92Z" fill="url(#paint33_linear_1117_42507)"/>
<path style="mix-blend-mode:screen" opacity="0.72" d="M273.761 374.614C273.761 374.614 263.493 380.261 250.279 376.834C237.064 373.407 234.6 365.804 234.6 365.804C234.6 365.804 241.147 365.008 249.82 369.545C258.493 374.107 267.262 375.386 273.737 374.638L273.761 374.614Z" fill="url(#paint34_linear_1117_42507)"/>
<path d="M264.919 230.38C267.19 231.128 264.557 254.515 262.503 254.708C260.45 254.901 259.363 249.447 259.725 241.627C260.087 233.807 262.721 229.656 264.919 230.38Z" fill="white"/>
<path d="M104.676 299.914C101.125 314.758 115.04 324.798 121.152 324.339C126.467 323.929 144.054 317.944 167.174 301.58C167.198 301.58 167.222 301.555 167.247 301.555C170.653 299.142 174.156 296.511 177.78 293.663C206.045 271.265 246.1 222.874 233.441 218.167C233.441 218.167 233.441 218.167 233.368 218.167C196.623 204.531 108.228 285.119 104.652 299.938L104.676 299.914Z" fill="url(#paint35_linear_1117_42507)"/>
<path d="M133.014 320.84C133.014 320.84 139.706 309.183 131.903 299.07C124.1 288.957 106.15 296.705 106.15 296.705C106.15 296.705 98.3469 309.617 112.045 318.04C125.743 326.488 133.014 320.84 133.014 320.84Z" fill="url(#paint36_linear_1117_42507)"/>
<path style="mix-blend-mode:multiply" opacity="0.3" d="M104.676 299.914C101.125 314.758 115.04 324.798 121.152 324.339C126.467 323.929 144.055 317.943 167.174 301.58C165.072 302.883 149.78 312.103 143.257 308.241C136.276 304.066 134.343 276.623 172.223 243.992C208.92 212.351 231.967 217.781 233.368 218.143C196.623 204.507 108.228 285.095 104.652 299.914H104.676Z" fill="url(#paint37_linear_1117_42507)"/>
<path d="M126.443 303.8C121.563 298.78 109.677 298.007 103.71 300.807C97.7428 303.607 78.0537 318.595 67.4241 346.785C67.4241 346.785 69.2601 363.366 80.4696 366.625C88.9975 369.111 103.831 348.185 115.113 333.776C126.395 319.343 134.464 312.054 126.443 303.8Z" fill="url(#paint38_linear_1117_42507)"/>
<path d="M78.6577 366.48C78.6577 366.48 105.498 313.261 131.202 317.389C131.202 317.389 126.37 325.74 110.788 342.465C95.2062 359.191 84.1416 368.146 78.6577 366.48Z" fill="url(#paint39_linear_1117_42507)"/>
<path style="mix-blend-mode:multiply" opacity="0.5" d="M96.7275 339.304C96.7275 339.304 96.341 349.803 98.7568 353.35C101.173 356.898 104.603 357.598 104.603 357.598L108.444 327.26C108.444 327.26 99.9406 334.139 96.7275 339.304Z" fill="url(#paint40_linear_1117_42507)"/>
<path d="M108.445 327.26C108.445 327.26 120.79 316.157 131.057 318.812C131.057 318.812 133.038 331.483 110.305 358.201C110.305 358.201 102.212 360.567 100.424 350.888C100.424 350.888 102.695 337.71 108.421 327.26H108.445Z" fill="url(#paint41_linear_1117_42507)"/>
<path d="M116.393 326.005C113.712 324.026 108.977 338.893 110.595 339.666C112.19 340.414 118.64 327.67 116.393 326.005Z" fill="white"/>
<path d="M199.425 261.032C202.686 266.97 192.298 271.386 189.544 270.469C186.79 269.552 197.202 256.977 199.425 261.032Z" fill="white"/>
<path d="M187.395 272.665C188.385 273.414 184.158 277.155 183.143 277.782C181.186 278.989 177.248 279.52 177.079 278.796C176.886 278.072 186.283 271.821 187.419 272.69L187.395 272.665Z" fill="white"/>
<path d="M364.645 259.053C364.113 260.742 352.421 255.481 352.372 250.437C352.348 245.392 365.394 256.615 364.645 259.053Z" fill="white"/>
<path d="M154.418 419.192C156.472 421.268 160.385 421.195 165.314 419.675C170.701 417.985 177.369 414.558 184.254 410.286C184.278 410.286 184.302 410.262 184.302 410.262L184.375 410.214C203.605 398.315 224.743 379.875 225.879 374.517C229.768 355.909 210.9 332.015 198.894 320.188C194.207 315.578 190.535 312.803 189.714 312.899C186.694 313.237 143.74 408.524 154.418 419.192Z" fill="url(#paint42_linear_1117_42507)"/>
<path style="mix-blend-mode:multiply" opacity="0.3" d="M154.418 419.192C156.471 421.267 160.385 421.195 165.313 419.675L184.253 410.286C182.465 411.058 162.124 419.168 169.009 389.867C176.184 359.215 199.594 322.553 199.594 322.553L198.893 320.212C194.206 315.602 190.534 312.827 189.713 312.923C186.693 313.261 143.74 408.548 154.418 419.216V419.192Z" fill="url(#paint43_linear_1117_42507)"/>
<path d="M210.9 368.29C215.418 371.066 204.16 380.575 202.904 380.648C201.623 380.696 202.469 375.362 204.595 372.055C206.479 369.111 209.33 367.325 210.924 368.29H210.9Z" fill="white"/>
<path d="M201.261 381.661C201.938 382.723 198.435 385.668 197.927 384.606C197.42 383.544 198.266 381.685 198.99 381.227C199.715 380.792 200.947 381.154 201.261 381.661Z" fill="white"/>
<path d="M422.599 282.44C422.454 284.443 408.273 277.879 408.273 275.489C408.273 273.1 422.817 279.037 422.599 282.44Z" fill="white"/>
<path d="M450.625 307.179C450.625 307.179 450.432 311.572 447.943 316.35C447.943 316.35 441.058 321.081 427.554 320.55C414.049 320.019 386.34 305.9 382.474 303.317C378.633 300.735 376.58 292.866 376.58 292.866L450.625 307.203V307.179Z" fill="url(#paint44_linear_1117_42507)"/>
<path d="M377.666 278.458C384.503 275.706 402.066 279.471 412.816 283.43C423.567 287.364 441.13 299.504 450.648 307.179C450.648 307.179 450.455 314.492 436.395 316.206C422.335 317.919 384.527 302.014 378.222 295.111C371.892 288.184 377.69 278.458 377.69 278.458H377.666Z" fill="url(#paint45_linear_1117_42507)"/>
<path d="M426.371 290.26C426.371 290.26 402.503 287.05 390.327 277.927C390.327 277.927 410.861 277.058 426.371 290.26Z" fill="url(#paint46_linear_1117_42507)"/>
<path d="M393.924 278.458C393.924 278.458 407.911 286.543 422.696 287.171C422.696 287.171 437.674 287.364 438.52 285.626C439.341 283.888 439.824 277.299 435.959 275.634C432.094 273.969 406.196 271.048 393.924 278.458Z" fill="url(#paint47_linear_1117_42507)"/>
<path d="M424.098 289.922C424.098 289.922 406.148 291.129 386.942 301.024L384.671 299.769C384.671 299.769 398.635 289.946 424.098 289.922Z" fill="url(#paint48_linear_1117_42507)"/>
<path d="M456.349 161.425C456.349 161.425 445.719 159.566 434.486 165.19C434.486 165.19 410.182 179.671 412.284 226.687C414.41 274.258 435.307 284.516 435.307 284.516C435.307 284.516 451.276 291.225 459.586 287.702C467.897 284.178 456.349 161.425 456.349 161.425Z" fill="url(#paint49_linear_1117_42507)"/>
<path d="M456.349 287.702C438.271 287.702 423.615 259.434 423.615 224.563C423.615 189.693 438.271 161.425 456.349 161.425C474.428 161.425 489.084 189.693 489.084 224.563C489.084 259.434 474.428 287.702 456.349 287.702Z" fill="#FF7AE8"/>
<path d="M457.412 287.702C439.921 287.702 425.741 259.434 425.741 224.563C425.741 189.693 439.921 161.425 457.412 161.425C474.904 161.425 489.084 189.693 489.084 224.563C489.084 259.434 474.904 287.702 457.412 287.702Z" fill="url(#paint50_linear_1117_42507)"/>
<path d="M431.804 224.563C431.804 252.005 443.134 274.258 457.146 274.258C459.055 274.258 460.891 273.848 462.678 273.051C474.009 268.104 482.488 248.264 482.488 224.563C482.488 197.121 471.134 174.868 457.122 174.868C454.15 174.868 451.3 175.858 448.667 177.716C438.834 184.547 431.78 202.962 431.78 224.563H431.804Z" fill="url(#paint51_linear_1117_42507)"/>
<path d="M431.805 224.563C431.805 252.005 443.135 274.258 457.147 274.258C459.055 274.258 460.891 273.848 462.679 273.052C472.487 266.197 479.518 247.83 479.518 226.229C479.518 198.787 468.163 176.534 454.151 176.534C452.267 176.534 450.431 176.944 448.667 177.716C438.835 184.547 431.781 202.962 431.781 224.563H431.805Z" fill="url(#paint52_linear_1117_42507)"/>
<path style="mix-blend-mode:screen" opacity="0.3" d="M488.673 234.507L429.727 187.829C429.727 187.829 424.798 200.476 424.194 212.519L486.523 249.133C486.523 249.133 488.407 239.069 488.697 234.507H488.673Z" fill="url(#paint53_linear_1117_42507)"/>
<path style="mix-blend-mode:screen" opacity="0.72" d="M429.749 187.829L418.274 186.863C418.274 186.863 412.959 199.945 412.573 211.409L424.241 212.543C424.241 212.543 426.101 196.131 429.773 187.853L429.749 187.829Z" fill="url(#paint54_linear_1117_42507)"/>
<g style="mix-blend-mode:multiply" opacity="0.5">
<path d="M432.673 268.152L421.995 268.924C421.995 268.924 428.277 281.04 435.307 284.516L445.453 284.13C445.453 284.13 436.49 278.409 432.673 268.152Z" fill="#C44FE5"/>
</g>
<path style="mix-blend-mode:screen" opacity="0.72" d="M443.57 166.421C443.57 166.421 433.906 167.7 428.978 169.921C428.978 169.921 432.24 166.421 434.051 165.48C435.863 164.538 444.053 160.556 456.35 161.425C456.35 161.425 449.44 161.835 443.57 166.421Z" fill="url(#paint55_linear_1117_42507)"/>
<path d="M424.727 310.993C424.727 310.993 416.634 306.262 408.323 306.696C408.323 306.696 419.653 311.91 424.727 310.993Z" fill="white"/>
<defs>
<linearGradient id="paint0_linear_1117_42507" x1="325.1" y1="86.1344" x2="313.398" y2="25.3653" gradientUnits="userSpaceOnUse">
<stop stop-color="#45FFCD"/>
<stop offset="1" stop-color="#22E0FF"/>
</linearGradient>
<linearGradient id="paint1_linear_1117_42507" x1="303.087" y1="63.852" x2="293.096" y2="11.9707" gradientUnits="userSpaceOnUse">
<stop stop-color="#B9ACF4"/>
<stop offset="1" stop-color="#E1D1F5"/>
</linearGradient>
<linearGradient id="paint2_linear_1117_42507" x1="277.587" y1="211.595" x2="215.484" y2="21.1013" gradientUnits="userSpaceOnUse">
<stop stop-color="#CBC1F7"/>
<stop offset="1" stop-color="#E8DCF7"/>
</linearGradient>
<linearGradient id="paint3_linear_1117_42507" x1="332.314" y1="175.936" x2="171.966" y2="206.873" gradientUnits="userSpaceOnUse">
<stop stop-color="#8879EA"/>
<stop offset="1" stop-color="#9E8CEF"/>
</linearGradient>
<linearGradient id="paint4_linear_1117_42507" x1="266.267" y1="209.278" x2="241.721" y2="81.8142" gradientUnits="userSpaceOnUse">
<stop stop-color="#9D68C2"/>
<stop offset="1" stop-color="#CCEDFF"/>
</linearGradient>
<linearGradient id="paint5_linear_1117_42507" x1="255.445" y1="208.534" x2="248.306" y2="171.466" gradientUnits="userSpaceOnUse">
<stop stop-color="#8DA4E5"/>
<stop offset="1" stop-color="#755CBB"/>
</linearGradient>
<linearGradient id="paint6_linear_1117_42507" x1="252.686" y1="196.261" x2="248.198" y2="171.883" gradientUnits="userSpaceOnUse">
<stop stop-color="#5E36CC"/>
<stop offset="1" stop-color="#6C4A96"/>
</linearGradient>
<linearGradient id="paint7_linear_1117_42507" x1="288.524" y1="166.008" x2="260.068" y2="18.233" gradientUnits="userSpaceOnUse">
<stop stop-color="#0665BD"/>
<stop offset="1" stop-color="#1A1F77"/>
</linearGradient>
<linearGradient id="paint8_linear_1117_42507" x1="168.346" y1="117.904" x2="168.861" y2="16.0297" gradientUnits="userSpaceOnUse">
<stop stop-color="#B9ACF4"/>
<stop offset="1" stop-color="#E1D1F5"/>
</linearGradient>
<linearGradient id="paint9_linear_1117_42507" x1="160.538" y1="114.003" x2="161.031" y2="16.473" gradientUnits="userSpaceOnUse">
<stop stop-color="#BE9DEA"/>
<stop offset="1" stop-color="#9E8CEF"/>
</linearGradient>
<linearGradient id="paint10_linear_1117_42507" x1="153.157" y1="116.404" x2="153.641" y2="20.78" gradientUnits="userSpaceOnUse">
<stop stop-color="#45FFCD"/>
<stop offset="1" stop-color="#22E0FF"/>
</linearGradient>
<linearGradient id="paint11_linear_1117_42507" x1="399.959" y1="175.102" x2="382.561" y2="121.742" gradientUnits="userSpaceOnUse">
<stop stop-color="#BE9DEA"/>
<stop offset="1" stop-color="#9E8CEF"/>
</linearGradient>
<linearGradient id="paint12_linear_1117_42507" x1="385.16" y1="177.528" x2="378.007" y2="153.139" gradientUnits="userSpaceOnUse">
<stop stop-color="#DD1A8F"/>
<stop offset="1" stop-color="#FE117E"/>
</linearGradient>
<linearGradient id="paint13_linear_1117_42507" x1="383.303" y1="166.277" x2="382.672" y2="154.661" gradientUnits="userSpaceOnUse">
<stop stop-color="#D93DE3"/>
<stop offset="1" stop-color="#FF6DBA"/>
</linearGradient>
<linearGradient id="paint14_linear_1117_42507" x1="241.563" y1="95.9041" x2="238.952" y2="82.3472" gradientUnits="userSpaceOnUse">
<stop stop-color="#45FFCD"/>
<stop offset="1" stop-color="#22E0FF"/>
</linearGradient>
<linearGradient id="paint15_linear_1117_42507" x1="330.913" y1="94.9697" x2="328.49" y2="82.3846" gradientUnits="userSpaceOnUse">
<stop stop-color="#45FFCD"/>
<stop offset="1" stop-color="#22E0FF"/>
</linearGradient>
<linearGradient id="paint16_linear_1117_42507" x1="326.772" y1="39.4551" x2="199.656" y2="63.98" gradientUnits="userSpaceOnUse">
<stop/>
<stop offset="1" stop-color="#6A9BFF"/>
</linearGradient>
<linearGradient id="paint17_linear_1117_42507" x1="338.709" y1="143.538" x2="245.561" y2="161.509" gradientUnits="userSpaceOnUse">
<stop/>
<stop offset="1" stop-color="#6A9BFF"/>
</linearGradient>
<linearGradient id="paint18_linear_1117_42507" x1="359.726" y1="139.49" x2="348.047" y2="78.8398" gradientUnits="userSpaceOnUse">
<stop/>
<stop offset="1" stop-color="#6A9BFF"/>
</linearGradient>
<linearGradient id="paint19_linear_1117_42507" x1="155.009" y1="113.275" x2="155.15" y2="85.3508" gradientUnits="userSpaceOnUse">
<stop stop-color="#D4E2FF"/>
<stop offset="1"/>
</linearGradient>
<linearGradient id="paint20_linear_1117_42507" x1="178.629" y1="38.4049" x2="123.863" y2="38.1274" gradientUnits="userSpaceOnUse">
<stop/>
<stop offset="1" stop-color="#D4E2FF"/>
</linearGradient>
<linearGradient id="paint21_linear_1117_42507" x1="350.995" y1="309.206" x2="337.733" y2="203.61" gradientUnits="userSpaceOnUse">
<stop stop-color="#CBC1F7"/>
<stop offset="1" stop-color="#D4BEF1"/>
</linearGradient>
<linearGradient id="paint22_linear_1117_42507" x1="378.343" y1="305.151" x2="381.333" y2="275.706" gradientUnits="userSpaceOnUse">
<stop stop-color="#BE9DEA"/>
<stop offset="1" stop-color="#9E8CEF"/>
</linearGradient>
<linearGradient id="paint23_linear_1117_42507" x1="343.579" y1="305.465" x2="343.579" y2="208.344" gradientUnits="userSpaceOnUse">
<stop stop-color="#9D68C2"/>
<stop offset="1" stop-color="#CCEDFF"/>
</linearGradient>
<linearGradient id="paint24_linear_1117_42507" x1="287.634" y1="430.909" x2="289.937" y2="343.639" gradientUnits="userSpaceOnUse">
<stop stop-color="#CBC1F7"/>
<stop offset="1" stop-color="#E8DCF7"/>
</linearGradient>
<linearGradient id="paint25_linear_1117_42507" x1="314.42" y1="363.892" x2="263.264" y2="356.093" gradientUnits="userSpaceOnUse">
<stop stop-color="#8879EA"/>
<stop offset="1" stop-color="#9E8CEF"/>
</linearGradient>
<linearGradient id="paint26_linear_1117_42507" x1="279.381" y1="427.017" x2="292.488" y2="340.877" gradientUnits="userSpaceOnUse">
<stop stop-color="#9D68C2"/>
<stop offset="1" stop-color="#CCEDFF"/>
</linearGradient>
<linearGradient id="paint27_linear_1117_42507" x1="243.978" y1="378.994" x2="275.003" y2="191.882" gradientUnits="userSpaceOnUse">
<stop stop-color="#CBC1F7"/>
<stop offset="1" stop-color="#E8DCF7"/>
</linearGradient>
<linearGradient id="paint28_linear_1117_42507" x1="198.889" y1="333.726" x2="226.65" y2="240.397" gradientUnits="userSpaceOnUse">
<stop stop-color="#9D68C2"/>
<stop offset="1" stop-color="#CCEDFF"/>
</linearGradient>
<linearGradient id="paint29_linear_1117_42507" x1="313.022" y1="337.028" x2="224.518" y2="310.653" gradientUnits="userSpaceOnUse">
<stop stop-color="#BE9DEA"/>
<stop offset="1" stop-color="#9E8CEF"/>
</linearGradient>
<radialGradient id="paint30_radial_1117_42507" cx="0" cy="0" r="1" gradientUnits="userSpaceOnUse" gradientTransform="translate(254.926 363.742) rotate(-163.435) scale(69.8124 69.757)">
<stop stop-color="#45FFCD"/>
<stop offset="1" stop-color="#22E0FF"/>
</radialGradient>
<linearGradient id="paint31_linear_1117_42507" x1="236.843" y1="243.077" x2="214.063" y2="236.288" gradientUnits="userSpaceOnUse">
<stop stop-color="#8879EA"/>
<stop offset="1" stop-color="#9E8CEF"/>
</linearGradient>
<linearGradient id="paint32_linear_1117_42507" x1="274.799" y1="222.712" x2="283.318" y2="194.071" gradientUnits="userSpaceOnUse">
<stop stop-color="#8DA4E5"/>
<stop offset="1" stop-color="#755CBB"/>
</linearGradient>
<linearGradient id="paint33_linear_1117_42507" x1="317.672" y1="304.592" x2="244.239" y2="282.707" gradientUnits="userSpaceOnUse">
<stop/>
<stop offset="1" stop-color="#D4E2FF"/>
</linearGradient>
<linearGradient id="paint34_linear_1117_42507" x1="252.037" y1="377.413" x2="254.556" y2="368.945" gradientUnits="userSpaceOnUse">
<stop stop-color="#D4E2FF"/>
<stop offset="1"/>
</linearGradient>
<linearGradient id="paint35_linear_1117_42507" x1="139.233" y1="333.172" x2="196.443" y2="201.977" gradientUnits="userSpaceOnUse">
<stop stop-color="#CBC1F7"/>
<stop offset="1" stop-color="#E8DCF7"/>
</linearGradient>
<linearGradient id="paint36_linear_1117_42507" x1="113.519" y1="318.906" x2="127.49" y2="295.391" gradientUnits="userSpaceOnUse">
<stop stop-color="#BE9DEA"/>
<stop offset="1" stop-color="#9E8CEF"/>
</linearGradient>
<linearGradient id="paint37_linear_1117_42507" x1="126.814" y1="329.528" x2="203.551" y2="200.372" gradientUnits="userSpaceOnUse">
<stop stop-color="#9D68C2"/>
<stop offset="1" stop-color="#CCEDFF"/>
</linearGradient>
<linearGradient id="paint38_linear_1117_42507" x1="69.8613" y1="358.551" x2="124.214" y2="301.631" gradientUnits="userSpaceOnUse">
<stop stop-color="#CBC1F7"/>
<stop offset="1" stop-color="#E8DCF7"/>
</linearGradient>
<linearGradient id="paint39_linear_1117_42507" x1="83.0707" y1="369.687" x2="125.173" y2="312.839" gradientUnits="userSpaceOnUse">
<stop stop-color="#BE9DEA"/>
<stop offset="1" stop-color="#9E8CEF"/>
</linearGradient>
<linearGradient id="paint40_linear_1117_42507" x1="97.264" y1="352.949" x2="113.544" y2="330.966" gradientUnits="userSpaceOnUse">
<stop stop-color="#8DA4E5"/>
<stop offset="1" stop-color="#755CBB"/>
</linearGradient>
<linearGradient id="paint41_linear_1117_42507" x1="99.5019" y1="353.013" x2="131.684" y2="319.336" gradientUnits="userSpaceOnUse">
<stop stop-color="#CBC1F7"/>
<stop offset="1" stop-color="#E8DCF7"/>
</linearGradient>
<linearGradient id="paint42_linear_1117_42507" x1="181.976" y1="425.889" x2="205.273" y2="316.192" gradientUnits="userSpaceOnUse">
<stop stop-color="#CBC1F7"/>
<stop offset="1" stop-color="#E8DCF7"/>
</linearGradient>
<linearGradient id="paint43_linear_1117_42507" x1="162.779" y1="422.623" x2="199.681" y2="316.315" gradientUnits="userSpaceOnUse">
<stop stop-color="#9D68C2"/>
<stop offset="1" stop-color="#CCEDFF"/>
</linearGradient>
<linearGradient id="paint44_linear_1117_42507" x1="402.308" y1="317.992" x2="424.603" y2="287.898" gradientUnits="userSpaceOnUse">
<stop stop-color="#BE9DEA"/>
<stop offset="1" stop-color="#9E8CEF"/>
</linearGradient>
<linearGradient id="paint45_linear_1117_42507" x1="415.595" y1="318.812" x2="409.976" y2="274.04" gradientUnits="userSpaceOnUse">
<stop stop-color="#E8DCF7"/>
<stop offset="1" stop-color="#CBC1F7"/>
</linearGradient>
<linearGradient id="paint46_linear_1117_42507" x1="404.894" y1="288.74" x2="411.843" y2="279.369" gradientUnits="userSpaceOnUse">
<stop stop-color="#BE9DEA"/>
<stop offset="1" stop-color="#9E8CEF"/>
</linearGradient>
<linearGradient id="paint47_linear_1117_42507" x1="417.623" y1="288.86" x2="415.67" y2="273.244" gradientUnits="userSpaceOnUse">
<stop stop-color="#CBC1F7"/>
<stop offset="1" stop-color="#E8DCF7"/>
</linearGradient>
<linearGradient id="paint48_linear_1117_42507" x1="419.532" y1="283.719" x2="389.257" y2="305.975" gradientUnits="userSpaceOnUse">
<stop stop-color="#BE9DEA"/>
<stop offset="1" stop-color="#9E8CEF"/>
</linearGradient>
<linearGradient id="paint49_linear_1117_42507" x1="437.385" y1="288.74" x2="437.385" y2="161.135" gradientUnits="userSpaceOnUse">
<stop stop-color="#DD1A8F"/>
<stop offset="1" stop-color="#FE117E"/>
</linearGradient>
<linearGradient id="paint50_linear_1117_42507" x1="469.564" y1="285.602" x2="445.281" y2="163.516" gradientUnits="userSpaceOnUse">
<stop stop-color="#D93DE3"/>
<stop offset="1" stop-color="#FF6DBA"/>
</linearGradient>
<linearGradient id="paint51_linear_1117_42507" x1="466.737" y1="272.617" x2="447.614" y2="176.502" gradientUnits="userSpaceOnUse">
<stop stop-color="#DD1A8F"/>
<stop offset="1" stop-color="#FE117E"/>
</linearGradient>
<linearGradient id="paint52_linear_1117_42507" x1="465.143" y1="272.931" x2="446.238" y2="177.854" gradientUnits="userSpaceOnUse">
<stop stop-color="#D93DE3"/>
<stop offset="1" stop-color="#E652AD"/>
</linearGradient>
<linearGradient id="paint53_linear_1117_42507" x1="488.673" y1="218.481" x2="424.219" y2="218.481" gradientUnits="userSpaceOnUse">
<stop/>
<stop offset="1" stop-color="#FF955C"/>
</linearGradient>
<linearGradient id="paint54_linear_1117_42507" x1="429.749" y1="199.703" x2="412.549" y2="199.703" gradientUnits="userSpaceOnUse">
<stop/>
<stop offset="1" stop-color="#FF955C"/>
</linearGradient>
<linearGradient id="paint55_linear_1117_42507" x1="456.35" y1="165.6" x2="428.978" y2="165.6" gradientUnits="userSpaceOnUse">
<stop/>
<stop offset="1" stop-color="#FF955C"/>
</linearGradient>
</defs>
</svg>
