<svg width="64" height="63" viewBox="0 0 64 63" fill="none" xmlns="http://www.w3.org/2000/svg">
<path d="M6.88773 48.458H4.21048C3.50248 48.458 2.92286 48.9931 2.92286 49.647C2.92286 50.3009 2.34323 50.8355 1.63523 50.8355H1.12148C0.413109 50.8355 -0.166016 51.4155 -0.166016 52.124V57.3154C-0.166016 58.0239 0.413109 58.6035 1.12148 58.6035H1.63523C2.34323 58.6035 2.92273 59.1386 2.92273 59.7925C2.92273 60.4463 3.50248 60.981 4.21048 60.981H6.88773V48.458Z" fill="#FFB98A"/>
<path d="M10.8648 59.1391V57.9106C10.8648 57.269 11.3863 56.7471 12.0273 56.7471V56.4971C11.3863 56.4971 10.8648 55.9756 10.8648 55.334V54.1055C10.8648 53.4639 11.3863 52.9419 12.0273 52.9419V52.6919C11.3863 52.6919 10.8648 52.1699 10.8648 51.5288V50.2998C10.8648 49.6588 11.3863 49.1368 12.0273 49.1368H13.5454L6.76367 46.5171V48.583H8.10992C8.75105 48.583 9.27242 49.105 9.27242 49.7466V54.0234C9.27242 54.6646 8.75105 55.1865 8.10992 55.1865H6.91067C6.86092 55.1865 6.81155 55.1821 6.76367 55.1763V62.3579C6.76367 62.7124 7.0533 63.0025 7.4073 63.0025H11.2954C11.6494 63.0025 11.9859 62.7163 12.0429 62.3668L12.3784 60.3023H12.0274C11.3862 60.3028 10.8648 59.7808 10.8648 59.1391ZM39.6724 35.624V45.8745C41.8149 45.166 43.3619 43.1401 43.3619 40.7495C43.3619 38.3589 41.815 36.3325 39.6724 35.624Z" fill="#9EA7AF"/>
<path d="M51.7894 50.9542C51.6666 50.9544 51.545 50.9303 51.4315 50.8835C51.318 50.8367 51.2148 50.7679 51.1278 50.6812C50.7611 50.3159 50.7591 49.7222 51.1243 49.3556C55.8451 44.6104 55.8451 36.8893 51.1243 32.1436C50.9491 31.9672 50.8511 31.7285 50.8518 31.4799C50.8526 31.2313 50.952 30.9932 51.1283 30.8179C51.4949 30.4527 52.0887 30.4547 52.4539 30.8213C57.8997 36.2964 57.8997 45.2042 52.4539 50.6778C52.3669 50.7654 52.2633 50.8349 52.1493 50.8823C52.0352 50.9297 51.9129 50.9541 51.7894 50.9541V50.9542Z" fill="#C5CCD3"/>
<path d="M47.0646 47.9155C46.9419 47.9157 46.8203 47.8917 46.7068 47.8449C46.5933 47.798 46.4902 47.7293 46.4034 47.6426C46.316 47.5558 46.2467 47.4526 46.1993 47.339C46.1518 47.2254 46.1273 47.1035 46.127 46.9804C46.1266 46.8573 46.1506 46.7353 46.1974 46.6215C46.2443 46.5076 46.3131 46.4041 46.4 46.3169C49.4537 43.2471 49.4542 38.2519 46.4005 35.1816C46.3137 35.0943 46.2449 34.9908 46.1982 34.877C46.1514 34.7631 46.1275 34.6412 46.1278 34.5181C46.1282 34.395 46.1527 34.2732 46.2002 34.1597C46.2476 34.0461 46.3169 33.943 46.4042 33.8562C46.4914 33.7694 46.5949 33.7006 46.7088 33.6538C46.8226 33.6071 46.9446 33.5832 47.0676 33.5835C47.1907 33.5838 47.3125 33.6084 47.4261 33.6558C47.5397 33.7033 47.6428 33.7726 47.7296 33.8599C51.5084 37.6591 51.5084 43.8404 47.7291 47.6391C47.6421 47.7268 47.5386 47.7964 47.4245 47.8438C47.3105 47.8913 47.1881 47.9156 47.0646 47.9155Z" fill="#B3B3B3"/>
<path d="M4.24662 37.457H0.7875C0.079625 37.457 -0.5 38.0367 -0.5 38.7452V42.7539C-0.5 43.4624 0.079625 44.042 0.7875 44.042H4.24662V37.457Z" fill="#9EA7AF"/>
<path d="M17.1895 33.334V48.1645L38.0473 59.5502V21.9487L17.1895 33.334Z" fill="#FB8276"/>
<path d="M38.0463 21.9487L33.3926 24.4892V57.0097L38.0463 59.5502V21.9487Z" fill="#EF5050"/>
<path d="M16.7128 31.0043L4.72209 35.6362C4.39159 35.7637 4.12109 36.1582 4.12109 36.5122V44.9863C4.12109 45.3408 4.39159 45.7348 4.72209 45.8627L13.1977 49.1367H15.1552C15.7963 49.1367 16.3177 49.6587 16.3177 50.2997V50.3417L16.7128 50.4946C17.0435 50.6221 17.3135 50.4365 17.3135 50.0825V31.416C17.3135 31.062 17.043 30.8765 16.7128 31.0043Z" fill="#C0272D"/>
<path d="M12.6694 38.5375H9.54492C9.29628 38.5375 9.05782 38.4387 8.88201 38.2629C8.70619 38.0871 8.60742 37.8486 8.60742 37.6C8.60742 37.3513 8.70619 37.1129 8.88201 36.9371C9.05782 36.7612 9.29628 36.6625 9.54492 36.6625H12.6694C12.9181 36.6625 13.1565 36.7612 13.3323 36.9371C13.5082 37.1129 13.6069 37.3513 13.6069 37.6C13.6069 37.8486 13.5082 38.0871 13.3323 38.2629C13.1565 38.4387 12.9181 38.5375 12.6694 38.5375ZM12.6694 41.687H9.54492C9.0273 41.687 8.60742 41.267 8.60742 40.7495C8.60742 40.232 9.0273 39.812 9.54492 39.812H12.6694C13.1869 39.812 13.6069 40.232 13.6069 40.7495C13.6069 41.267 13.1869 41.687 12.6694 41.687ZM12.6694 44.8364H9.54492C9.29628 44.8364 9.05782 44.7376 8.88201 44.5618C8.70619 44.3859 8.60742 44.1475 8.60742 43.8989C8.60742 43.6502 8.70619 43.4118 8.88201 43.2359C9.05782 43.0601 9.29628 42.9614 9.54492 42.9614H12.6694C12.9181 42.9614 13.1565 43.0601 13.3323 43.2359C13.5082 43.4118 13.6069 43.6502 13.6069 43.8989C13.6069 44.1475 13.5082 44.3859 13.3323 44.5618C13.1565 44.7376 12.9181 44.8364 12.6694 44.8364Z" fill="#EF5050"/>
<path d="M38.8594 63.876C38.3419 63.876 37.9219 63.456 37.9219 62.9385V18.5605C37.9219 18.3119 38.0206 18.0734 38.1965 17.8976C38.3723 17.7218 38.6107 17.623 38.8594 17.623C39.108 17.623 39.3465 17.7218 39.5223 17.8976C39.6981 18.0734 39.7969 18.3119 39.7969 18.5605V62.9385C39.7969 63.1872 39.6981 63.4256 39.5223 63.6015C39.3465 63.7773 39.108 63.876 38.8594 63.876Z" fill="#C0272D"/>
<path d="M63.4995 8.80074C63.4995 8.44674 63.21 8.15674 62.8555 8.15674H43.8623C43.5083 8.15674 43.2188 8.44674 43.2188 8.80074V23.1932C43.2188 23.5479 43.5083 23.8374 43.8623 23.8374H46.4194C46.7739 23.8374 47.0635 24.1274 47.0635 24.4819V27.8061C47.0635 28.1606 47.269 28.2466 47.5205 27.9971L51.2564 24.291C51.5077 24.042 52.0034 23.8379 52.3574 23.8379H62.8555C63.21 23.8379 63.4995 23.5479 63.4995 23.1939V8.80074Z" fill="#0291C9"/>
<path d="M58.875 13.3081H47.8457C47.5971 13.3081 47.3586 13.2093 47.1828 13.0335C47.007 12.8577 46.9082 12.6192 46.9082 12.3706C46.9082 12.122 47.007 11.8835 47.1828 11.7077C47.3586 11.5319 47.5971 11.4331 47.8457 11.4331H58.875C59.1236 11.4331 59.362 11.5319 59.5379 11.7077C59.7137 11.8835 59.8125 12.122 59.8125 12.3706C59.8125 12.8886 59.3931 13.3081 58.875 13.3081ZM58.875 16.9346H47.8457C47.3282 16.9346 46.9082 16.5146 46.9082 15.9971C46.9082 15.4795 47.3282 15.0596 47.8457 15.0596H58.875C59.1236 15.0596 59.362 15.1584 59.5379 15.3342C59.7137 15.51 59.8125 15.7485 59.8125 15.9971C59.8125 16.2457 59.7137 16.4842 59.5379 16.66C59.362 16.8358 59.1236 16.9346 58.875 16.9346ZM52.774 20.561H47.8457C47.3282 20.561 46.9082 20.141 46.9082 19.6235C46.9082 19.106 47.3282 18.686 47.8457 18.686H52.774C53.2915 18.686 53.7115 19.106 53.7115 19.6235C53.7115 20.141 53.2915 20.561 52.774 20.561Z" fill="#08375E"/>
<path d="M15.123 0.644C15.123 0.29 15.4127 0 15.7667 0H34.7598C35.1143 0 35.4038 0.29 35.4038 0.644V15.0366C35.4034 15.2073 35.3354 15.3708 35.2147 15.4915C35.094 15.6122 34.9305 15.6802 34.7598 15.6806H32.2027C31.8487 15.6806 31.5592 15.9706 31.5592 16.3253V19.6499C31.5592 20.0039 31.353 20.0899 31.1017 19.8404L27.3663 16.1343C27.1143 15.8853 26.6192 15.6811 26.2647 15.6811H15.7667C15.4127 15.6811 15.123 15.3911 15.123 15.0371V0.644Z" fill="#FFC502"/>
<path d="M30.7779 5.15125H19.748C19.6249 5.15125 19.503 5.127 19.3893 5.07988C19.2755 5.03277 19.1722 4.96371 19.0851 4.87666C18.9981 4.7896 18.929 4.68625 18.8819 4.57251C18.8348 4.45877 18.8105 4.33686 18.8105 4.21375C18.8105 4.09063 18.8348 3.96872 18.8819 3.85498C18.929 3.74124 18.9981 3.63789 19.0851 3.55083C19.1722 3.46378 19.2755 3.39472 19.3893 3.34761C19.503 3.30049 19.6249 3.27625 19.748 3.27625H30.7779C30.901 3.27625 31.0229 3.30049 31.1367 3.34761C31.2504 3.39472 31.3538 3.46378 31.4408 3.55083C31.5279 3.63789 31.5969 3.74124 31.6441 3.85498C31.6912 3.96872 31.7154 4.09063 31.7154 4.21375C31.7154 4.33686 31.6912 4.45877 31.6441 4.57251C31.5969 4.68625 31.5279 4.7896 31.4408 4.87666C31.3538 4.96371 31.2504 5.03277 31.1367 5.07988C31.0229 5.127 30.901 5.15125 30.7779 5.15125ZM30.7779 8.77787H19.748C19.2305 8.77787 18.8105 8.35787 18.8105 7.84037C18.8105 7.32287 19.2305 6.90287 19.748 6.90287H30.7779C31.2954 6.90287 31.7154 7.32275 31.7154 7.84037C31.7154 8.358 31.2954 8.77787 30.7779 8.77787ZM24.6763 12.4042H19.748C19.4994 12.4042 19.2609 12.3055 19.0851 12.1297C18.9093 11.9538 18.8105 11.7154 18.8105 11.4667C18.8105 11.2181 18.9093 10.9796 19.0851 10.8038C19.2609 10.628 19.4994 10.5292 19.748 10.5292H24.6763C24.9249 10.5292 25.1634 10.628 25.3392 10.8038C25.515 10.9796 25.6138 11.2181 25.6138 11.4667C25.6138 11.9849 25.1944 12.4042 24.6763 12.4042Z" fill="#775436"/>
<path d="M4.21048 48.458C3.50248 48.458 2.92286 48.9931 2.92286 49.647C2.92286 50.3009 2.34323 50.8355 1.63523 50.8355H1.12148C0.413109 50.8355 -0.166016 51.4155 -0.166016 52.124V53.563H3.85348C4.62098 53.563 5.28661 53.1299 5.62211 52.4955V54.0235C5.62211 54.7319 6.20161 55.3115 6.90961 55.3115H8.10886C8.81736 55.3115 9.39699 54.7319 9.39699 54.0234V49.7466C9.39699 49.0381 8.81736 48.458 8.10886 48.458H4.21048Z" fill="#FFC7A1"/>
<path d="M16.4429 51.5287V50.2997C16.4429 49.5912 15.8633 49.0117 15.1554 49.0117H12.0264C11.3179 49.0117 10.7383 49.5912 10.7383 50.2997V51.5287C10.7383 52.2372 11.3179 52.8168 12.0264 52.8168C11.3179 52.8168 10.7383 53.3968 10.7383 54.1055V55.334C10.7383 56.0425 11.3179 56.6221 12.0264 56.6221C11.3179 56.6221 10.7383 57.2021 10.7383 57.9106V59.1391C10.7383 59.8476 11.3179 60.4277 12.0264 60.4277H15.1553C15.8633 60.4277 16.4428 59.8477 16.4428 59.1391V57.9106C16.4428 57.2021 15.8633 56.6221 15.1553 56.6221C15.8633 56.6221 16.4428 56.0425 16.4428 55.334V54.1055C16.4428 53.3965 15.8633 52.8168 15.1553 52.8168C15.8633 52.8168 16.4429 52.2372 16.4429 51.5287Z" fill="#FFB98A"/>
<path d="M16.4429 55.334C16.4429 56.0425 15.8633 56.6221 15.1554 56.6221H12.0264C11.3179 56.6221 10.7383 56.0425 10.7383 55.334V54.1055C10.7383 53.3965 11.3179 52.8169 12.0264 52.8169H15.1553C15.8633 52.8169 16.4428 53.3969 16.4428 54.1055L16.4429 55.334Z" fill="#FFC7A1"/>
</svg>
