<svg width="57" height="64" viewBox="0 0 57 64" fill="none" xmlns="http://www.w3.org/2000/svg">
<path d="M42.5958 23.3789L27.6582 31.7274V48.5258L28.5003 49.2423C28.8032 49.2423 29.1061 49.1639 29.3776 49.0073L42.7905 41.2634C43.0572 41.1094 43.2787 40.888 43.4326 40.6213C43.5866 40.3545 43.6677 40.052 43.6677 39.744V24.2562C43.6677 23.9428 43.5841 23.6413 43.4327 23.3789H42.5958Z" fill="#E39B74"/>
<path d="M49.936 17.6556C49.7667 17.6556 49.6004 17.6109 49.454 17.5259L30.6531 6.67145C30.5432 6.60805 30.447 6.52363 30.3697 6.42302C30.2925 6.3224 30.2359 6.20756 30.2031 6.08505C30.1702 5.96254 30.1619 5.83477 30.1784 5.70902C30.195 5.58328 30.2362 5.46203 30.2996 5.3522C30.363 5.24236 30.4474 5.14609 30.548 5.06889C30.6487 4.99168 30.7635 4.93505 30.886 4.90222C31.0085 4.86939 31.1363 4.86102 31.262 4.87757C31.3878 4.89413 31.509 4.93529 31.6188 4.9987L50.4196 15.8533C50.6039 15.9596 50.748 16.1237 50.8295 16.3202C50.9109 16.5168 50.9252 16.7347 50.8701 16.9402C50.8149 17.1457 50.6934 17.3272 50.5245 17.4566C50.3556 17.5859 50.1487 17.6559 49.936 17.6556ZM52.4781 43.8256C52.222 43.8256 51.9763 43.7238 51.7952 43.5427C51.6141 43.3616 51.5123 43.116 51.5123 42.8598V21.2261C51.5123 20.9699 51.6141 20.7243 51.7952 20.5432C51.9763 20.3621 52.222 20.2603 52.4781 20.2603C52.7342 20.2603 52.9799 20.3621 53.161 20.5432C53.3421 20.7243 53.4438 20.9699 53.4438 21.2261V42.8598C53.4438 43.116 53.3421 43.3616 53.161 43.5427C52.9799 43.7238 52.7342 43.8256 52.4781 43.8256ZM31.1368 59.1308C30.9671 59.131 30.8004 59.0864 30.6534 59.0016C30.5064 58.9168 30.3844 58.7947 30.2996 58.6477C30.2362 58.5379 30.195 58.4166 30.1784 58.2909C30.1619 58.1651 30.1702 58.0374 30.2031 57.9148C30.2359 57.7923 30.2925 57.6775 30.3697 57.5769C30.447 57.4763 30.5432 57.3918 30.6531 57.3284L49.4538 46.4738C49.5637 46.4104 49.6849 46.3692 49.8107 46.3527C49.9364 46.3361 50.0642 46.3445 50.1867 46.3773C50.3092 46.4101 50.424 46.4668 50.5247 46.544C50.6253 46.6212 50.7097 46.7175 50.7731 46.8273C50.8365 46.9372 50.8777 47.0584 50.8943 47.1842C50.9108 47.3099 50.9024 47.4377 50.8696 47.5602C50.8368 47.6827 50.7802 47.7975 50.7029 47.8981C50.6257 47.9988 50.5294 48.0832 50.4196 48.1466L31.6188 59.0012C31.4724 59.0861 31.3061 59.1308 31.1368 59.1308ZM26.2417 59.3481C26.0724 59.3481 25.9062 59.3034 25.7597 59.2184L6.76572 48.2523C6.30372 47.9857 6.14547 47.395 6.41222 46.9331C6.67897 46.4712 7.26959 46.3127 7.73147 46.5796L26.7255 57.5457C26.8353 57.6091 26.9316 57.6935 27.0088 57.7941C27.086 57.8947 27.1427 58.0096 27.1755 58.1321C27.2083 58.2546 27.2167 58.3824 27.2001 58.5081C27.1836 58.6339 27.1424 58.7551 27.079 58.865C26.9942 59.012 26.8721 59.134 26.7251 59.2188C26.5782 59.3036 26.4114 59.3482 26.2417 59.3481ZM4.52434 43.8256C4.26821 43.8256 4.02257 43.7238 3.84146 43.5427C3.66034 43.3616 3.55859 43.116 3.55859 42.8598V21.2261C3.55859 21.0993 3.58357 20.9737 3.63211 20.8565C3.68064 20.7393 3.75178 20.6329 3.84146 20.5432C3.93113 20.4535 4.0376 20.3824 4.15477 20.3338C4.27194 20.2853 4.39752 20.2603 4.52434 20.2603C4.65117 20.2603 4.77675 20.2853 4.89392 20.3338C5.01109 20.3824 5.11755 20.4535 5.20723 20.5432C5.29691 20.6329 5.36805 20.7393 5.41658 20.8565C5.46511 20.9737 5.49009 21.0993 5.49009 21.2261V42.8598C5.49009 43.116 5.38835 43.3616 5.20723 43.5427C5.02612 43.7238 4.78048 43.8256 4.52434 43.8256ZM7.24959 17.5499C7.07989 17.5501 6.91313 17.5055 6.76614 17.4207C6.61915 17.3359 6.49712 17.2138 6.41234 17.0668C6.34891 16.957 6.30774 16.8357 6.29118 16.71C6.27462 16.5843 6.28299 16.4565 6.31581 16.334C6.34864 16.2115 6.40528 16.0966 6.4825 15.996C6.55971 15.8954 6.656 15.811 6.76584 15.7476L25.3836 4.99857C25.4934 4.93514 25.6147 4.89397 25.7404 4.87741C25.8662 4.86085 25.9939 4.86922 26.1164 4.90204C26.239 4.93487 26.3538 4.99151 26.4544 5.06873C26.555 5.14594 26.6394 5.24223 26.7028 5.35207C26.7663 5.4619 26.8074 5.58315 26.824 5.7089C26.8406 5.83464 26.8322 5.96242 26.7994 6.08493C26.7665 6.20743 26.7099 6.32228 26.6327 6.42289C26.5555 6.52351 26.4592 6.60792 26.3493 6.67132L7.73159 17.4204C7.58511 17.5053 7.41885 17.5499 7.24959 17.5499Z" fill="#DBEDFF"/>
<path d="M18.1007 25.3542L17.8278 25.5185L17.4844 26.2866V43.1541L27.6222 49.0072C27.8889 49.1613 28.1915 49.2423 28.4995 49.2422V31.7274L28.1725 30.9649L18.1007 25.3542Z" fill="#DA7E4A"/>
<path d="M17.8822 42.8299V26.7288C17.8822 26.2664 18.0579 25.8297 18.3611 25.4982L14.5566 23.3788H13.5691C13.415 23.6455 13.3339 23.948 13.334 24.256V39.7439C13.334 40.3707 13.6684 40.9499 14.2112 41.2633L17.9897 43.4448C17.9188 43.2475 17.8825 43.0395 17.8822 42.8299Z" fill="#CB6C35"/>
<path d="M28.5014 8.62775C30.8839 8.62775 32.8152 6.69636 32.8152 4.31388C32.8152 1.93139 30.8839 0 28.5014 0C26.1189 0 24.1875 1.93139 24.1875 4.31388C24.1875 6.69636 26.1189 8.62775 28.5014 8.62775Z" fill="#FF5595"/>
<path d="M28.5014 64.0001C30.8839 64.0001 32.8152 62.0687 32.8152 59.6862C32.8152 57.3037 30.8839 55.3723 28.5014 55.3723C26.1189 55.3723 24.1875 57.3037 24.1875 59.6862C24.1875 62.0687 26.1189 64.0001 28.5014 64.0001Z" fill="#60B9FE"/>
<path d="M4.52286 22.4709C6.90535 22.4709 8.83673 20.5395 8.83673 18.157C8.83673 15.7745 6.90535 13.8431 4.52286 13.8431C2.14037 13.8431 0.208984 15.7745 0.208984 18.157C0.208984 20.5395 2.14037 22.4709 4.52286 22.4709Z" fill="#938493"/>
<path d="M52.4779 50.1569C54.8604 50.1569 56.7918 48.2255 56.7918 45.843C56.7918 43.4606 54.8604 41.5292 52.4779 41.5292C50.0955 41.5292 48.1641 43.4606 48.1641 45.843C48.1641 48.2255 50.0955 50.1569 52.4779 50.1569Z" fill="#A2E82D"/>
<path d="M4.52286 50.1569C6.90535 50.1569 8.83673 48.2255 8.83673 45.843C8.83673 43.4606 6.90535 41.5292 4.52286 41.5292C2.14037 41.5292 0.208984 43.4606 0.208984 45.843C0.208984 48.2255 2.14037 50.1569 4.52286 50.1569Z" fill="#8479C2"/>
<path d="M52.4779 22.4709C54.8604 22.4709 56.7918 20.5395 56.7918 18.157C56.7918 15.7745 54.8604 13.8431 52.4779 13.8431C50.0955 13.8431 48.1641 15.7745 48.1641 18.157C48.1641 20.5395 50.0955 22.4709 52.4779 22.4709Z" fill="#FFC365"/>
<path d="M28.5014 4.31388C28.5014 2.71738 29.3693 1.3245 30.6584 0.578503C30.003 0.198764 29.2588 -0.000822298 28.5014 2.54632e-06C26.1189 2.54632e-06 24.1875 1.93138 24.1875 4.31388C24.1875 6.69638 26.1189 8.62775 28.5014 8.62775C29.2874 8.62775 30.0236 8.4165 30.6584 8.04925C29.3693 7.30325 28.5014 5.91038 28.5014 4.31388Z" fill="#FF3581"/>
<path d="M28.5014 59.6861C28.5014 58.0896 29.3693 56.6967 30.6584 55.9507C30.003 55.5709 29.2588 55.3713 28.5014 55.3722C26.1189 55.3722 24.1875 57.3036 24.1875 59.6861C24.1875 62.0686 26.1189 63.9999 28.5014 63.9999C29.2874 63.9999 30.0236 63.7887 30.6584 63.4213C29.3693 62.6754 28.5014 61.2826 28.5014 59.6861Z" fill="#1CA8FF"/>
<path d="M5.10152 16.0001C5.47948 15.3437 6.02443 14.799 6.68102 14.4214C6.68088 14.4213 6.68071 14.4212 6.68052 14.4212C4.61714 13.2299 1.97889 13.9369 0.787644 16.0002C-0.403606 18.0634 0.303394 20.7018 2.36664 21.8931C3.74927 22.6913 5.38939 22.6361 6.68002 21.8927C4.61702 20.7012 3.91027 18.0632 5.10152 16.0001Z" fill="#7B6C79"/>
<path d="M53.0547 43.6861C53.4326 43.0297 53.9776 42.4851 54.6342 42.1075C54.634 42.1074 54.6339 42.1073 54.6337 42.1073C52.5704 40.916 49.932 41.6229 48.7408 43.6863C47.5495 45.7495 48.2564 48.3879 50.3198 49.5791C51.7024 50.3774 53.3425 50.3221 54.6332 49.5788C52.5702 48.3873 51.8635 45.7493 53.0547 43.6861Z" fill="#98D829"/>
<path d="M5.10155 48C3.91042 45.9369 4.61717 43.2989 6.68005 42.1075C5.38942 41.3641 3.7493 41.309 2.36667 42.1071C0.303297 43.2984 -0.403578 45.9367 0.787672 48C1.97892 50.0632 4.6173 50.7702 6.68055 49.579L6.68105 49.5786C6.02446 49.201 5.4795 48.6564 5.10155 48Z" fill="#6E60B8"/>
<path d="M53.0546 20.3138C51.8635 18.2507 52.5703 15.6127 54.6331 14.4213C53.3425 13.678 51.7024 13.6228 50.3198 14.421C48.2565 15.6122 47.5495 18.2506 48.7408 20.3138C49.932 22.3771 52.5704 23.0841 54.6336 21.8928L54.6341 21.8925C53.9775 21.5149 53.4326 20.9702 53.0546 20.3138Z" fill="#FFB640"/>
<path d="M42.7905 22.7367L32.4133 16.7455L17.8286 25.5185L17.7148 25.773L27.6193 31.4914C27.8872 31.646 28.1911 31.7274 28.5004 31.7274C28.8097 31.7274 29.1136 31.646 29.3815 31.4914L43.4326 23.3789C43.2787 23.1121 43.0572 22.8906 42.7905 22.7367Z" fill="#DD8858"/>
<path d="M18.7934 25.1492L32.7372 17.0987C32.7872 17.0698 32.8385 17.0445 32.8902 17.0208L29.3776 14.9928C29.1109 14.8389 28.8084 14.7578 28.5004 14.7578C28.1925 14.7578 27.8899 14.8389 27.6232 14.9928L23.2486 17.5185L23.0954 17.8833L19.9481 19.815L19.0474 19.9442L14.2105 22.7368C13.9438 22.8908 13.7223 23.1123 13.5684 23.379L18.0496 25.9662C18.2069 25.6234 18.4668 25.3379 18.7934 25.1492Z" fill="#DA7E4A"/>
<path d="M38.3961 26.2866H37.9277L34.4509 28.2334L34.1934 28.713V35.1842C34.1934 35.537 34.5752 35.7575 34.8807 35.5811L37.9629 33.8016C38.095 33.7253 38.2048 33.6156 38.2811 33.4834C38.3574 33.3513 38.3975 33.2013 38.3975 33.0487V26.2872L38.3961 26.2866Z" fill="#938493"/>
<path d="M38.3959 26.2866L27.2638 19.8429L23.1484 22.3183L34.1932 28.7115V28.7131L38.3959 26.2866Z" fill="#7B6C79"/>
<path d="M27.6234 20.0511L23.2482 17.5186L19.0469 19.9442L23.422 22.4767L27.6234 20.0511Z" fill="#665E68"/>
</svg>
