<svg width="59" height="24" viewBox="0 0 59 24" fill="none" xmlns="http://www.w3.org/2000/svg">
<path fill-rule="evenodd" clip-rule="evenodd" d="M8.20489 4.45339C9.28771 4.54473 10.3705 3.90534 11.0473 3.09469C11.7128 2.26119 12.1527 1.14226 12.0399 0.000488281C11.0811 0.0461591 9.8968 0.63988 9.22003 1.47337C8.59967 2.19269 8.06954 3.35729 8.20489 4.45339ZM21.0898 19.1594V1.35922H27.6883C31.0947 1.35922 33.4746 3.7341 33.4746 7.20508C33.4746 10.6761 31.0495 13.0738 27.598 13.0738H23.8195V19.1594H21.0898ZM12.0322 4.67036C11.0782 4.61479 10.2078 4.96077 9.50474 5.24023C9.0523 5.42007 8.66916 5.57236 8.37767 5.57236C8.05057 5.57236 7.65161 5.41193 7.20368 5.23179C6.61674 4.99577 5.9457 4.72592 5.242 4.73887C3.62905 4.7617 2.12889 5.68654 1.3055 7.15942C-0.386408 10.1052 0.865604 14.4667 2.50111 16.8645C3.30195 18.0519 4.2607 19.3535 5.52399 19.3078C6.07976 19.2866 6.47955 19.1149 6.8933 18.9372C7.36963 18.7326 7.86446 18.52 8.6371 18.52C9.38295 18.52 9.85614 18.727 10.3104 18.9257C10.7423 19.1147 11.157 19.2961 11.7728 19.285C13.0812 19.2622 13.9046 18.0976 14.7054 16.9101C15.5696 15.6357 15.9494 14.3919 16.0071 14.2031L16.0138 14.1813C16.0124 14.1799 16.0018 14.175 15.9829 14.1662C15.694 14.0323 13.4859 13.009 13.4647 10.265C13.4434 7.96183 15.2161 6.79488 15.4952 6.61118L15.4952 6.61118L15.4953 6.61113L15.4954 6.61106C15.5123 6.59995 15.5236 6.59245 15.5288 6.58853C14.4009 4.89872 12.6413 4.71603 12.0322 4.67036ZM38.465 19.2963C40.1794 19.2963 41.7698 18.4171 42.4917 17.0242H42.5481V19.1593H45.0747V10.2992C45.0747 7.73018 43.0444 6.07462 39.92 6.07462C37.0212 6.07462 34.8781 7.75302 34.7992 10.0594H37.2581C37.4611 8.96329 38.465 8.24398 39.8411 8.24398C41.5104 8.24398 42.4466 9.0318 42.4466 10.4818V11.4638L39.0402 11.6693C35.8707 11.8634 34.1562 13.1764 34.1562 15.46C34.1562 17.7663 35.9271 19.2963 38.465 19.2963ZM39.1885 17.1841C37.7335 17.1841 36.8086 16.4762 36.8086 15.3915C36.8086 14.2726 37.6997 13.6218 39.4029 13.519L42.437 13.3249V14.3297C42.437 15.9967 41.0384 17.1841 39.1885 17.1841ZM53.4531 19.8558C52.359 22.9729 51.107 24.0005 48.4451 24.0005C48.2421 24.0005 47.5653 23.9776 47.4074 23.9319V21.7968C47.5766 21.8197 47.9939 21.8425 48.2082 21.8425C49.4151 21.8425 50.0919 21.3287 50.5092 19.9928L50.7574 19.205L46.1328 6.24594H48.9865L52.2011 16.7616H52.2575L55.4721 6.24594H58.2469L53.4531 19.8558ZM23.8164 3.68835H26.9634C29.332 3.68835 30.6856 4.96714 30.6856 7.21642C30.6856 9.46571 29.332 10.7559 26.9521 10.7559H23.8164V3.68835Z" fill="black"/>
</svg>
