<svg width="8" height="16" viewBox="0 0 8 16" fill="none" xmlns="http://www.w3.org/2000/svg">
<path d="M5.83906 8.00008L0.326563 13.5126C0.139063 13.7001 0.0484376 13.9188 0.0546875 14.1688C0.0609374 14.4188 0.157812 14.6376 0.345312 14.8251C0.532812 15.0126 0.751562 15.1063 1.00156 15.1063C1.25156 15.1063 1.47031 15.0126 1.65781 14.8251L7.43281 9.06883C7.58281 8.91883 7.69531 8.75008 7.77031 8.56258C7.84531 8.37508 7.88281 8.18758 7.88281 8.00008C7.88281 7.81258 7.84531 7.62508 7.77031 7.43758C7.69531 7.25008 7.58281 7.08133 7.43281 6.93133L1.65781 1.15633C1.47031 0.968833 1.24844 0.878208 0.992188 0.884458C0.735938 0.890708 0.514063 0.987583 0.326563 1.17508C0.139063 1.36258 0.0453129 1.58133 0.0453129 1.83133C0.0453129 2.08133 0.139063 2.30008 0.326563 2.48758L5.83906 8.00008Z" fill="#111111"/>
</svg>
