<svg width="230" height="24" viewBox="0 0 230 24" fill="none" xmlns="http://www.w3.org/2000/svg">
<rect x="0.5" y="0.500061" width="34" height="23" rx="3.5" fill="white" stroke="#E6E6E6"/>
<path fill-rule="evenodd" clip-rule="evenodd" d="M10.6253 16.2583H8.50494L6.91495 10.1924C6.83949 9.91341 6.67925 9.66673 6.44354 9.55046C5.85531 9.25829 5.20712 9.02577 4.5 8.90849V8.67496H7.91567C8.38708 8.67496 8.74064 9.02577 8.79957 9.43319L9.62454 13.8087L11.7438 8.67496H13.8052L10.6253 16.2583ZM14.9838 16.2583H12.9813L14.6302 8.67496H16.6327L14.9838 16.2583ZM19.2234 10.7758C19.2823 10.3673 19.6359 10.1338 20.0483 10.1338C20.6965 10.0752 21.4026 10.1924 21.9919 10.4836L22.3454 8.85087C21.7562 8.61733 21.108 8.50006 20.5198 8.50006C18.5762 8.50006 17.162 9.55047 17.162 11.0083C17.162 12.1173 18.1637 12.6997 18.8708 13.0505C19.6359 13.4003 19.9305 13.6338 19.8716 13.9836C19.8716 14.5083 19.2823 14.7418 18.6941 14.7418C17.9869 14.7418 17.2798 14.5669 16.6327 14.2748L16.2791 15.9085C16.9862 16.1997 17.7512 16.3169 18.4584 16.3169C20.6376 16.3746 21.9919 15.3252 21.9919 13.7501C21.9919 11.7665 19.2234 11.6503 19.2234 10.7758ZM29 16.2583L27.41 8.67496H25.7022C25.3486 8.67496 24.9951 8.90849 24.8772 9.25829L21.9329 16.2583H23.9943L24.4058 15.1503H26.9386L27.1743 16.2583H29ZM25.9968 10.7171L26.585 13.5752H24.9361L25.9968 10.7171Z" fill="#172B85"/>
<rect x="39.5" y="0.500061" width="34" height="23" rx="3.5" fill="white" stroke="#E6E6E6"/>
<path d="M58.045 19.5C61.9425 19.5188 65.5 16.2922 65.5 12.367C65.5 8.07499 61.9425 5.1079 58.045 5.1095H54.6906C50.7467 5.1079 47.5 8.07579 47.5 12.367C47.5 16.293 50.7467 19.5188 54.6906 19.5H58.045Z" fill="#0079BE"/>
<path d="M54.7054 5.70428C51.1011 5.70549 48.1809 8.65335 48.1797 12.2917C48.1809 15.9297 51.1011 18.8776 54.7054 18.8788C58.3102 18.8776 61.2316 15.9297 61.232 12.2917C61.2316 8.65335 58.3106 5.70549 54.7054 5.70428ZM50.5692 12.2917C50.5685 11.4505 50.8215 10.6286 51.2953 9.93348C51.769 9.23835 52.4415 8.70231 53.2247 8.39541V16.1876C52.4414 15.8809 51.7689 15.345 51.2951 14.6499C50.8213 13.9548 50.5683 13.1329 50.5692 12.2917ZM56.1858 16.1892V8.39501C56.9696 8.70147 57.6426 9.23747 58.1167 9.93283C58.5909 10.6282 58.8439 11.4505 58.8429 12.2921C58.8438 13.1337 58.5906 13.9559 58.1165 14.6513C57.6425 15.3466 56.9695 15.8826 56.1858 16.1892Z" fill="white"/>
<path d="M58.045 19.5C61.9425 19.5188 65.5 16.2922 65.5 12.367C65.5 8.07499 61.9425 5.1079 58.045 5.1095H54.6906C50.7467 5.1079 47.5 8.07579 47.5 12.367C47.5 16.293 50.7467 19.5188 54.6906 19.5H58.045Z" fill="#0079BE"/>
<path d="M54.7054 5.70428C51.1011 5.70549 48.1809 8.65335 48.1797 12.2917C48.1809 15.9297 51.1011 18.8776 54.7054 18.8788C58.3102 18.8776 61.2316 15.9297 61.232 12.2917C61.2316 8.65335 58.3106 5.70549 54.7054 5.70428ZM50.5692 12.2917C50.5685 11.4505 50.8215 10.6286 51.2953 9.93348C51.769 9.23835 52.4415 8.70231 53.2247 8.39541V16.1876C52.4414 15.8809 51.7689 15.345 51.2951 14.6499C50.8213 13.9548 50.5683 13.1329 50.5692 12.2917ZM56.1858 16.1892V8.39501C56.9696 8.70147 57.6426 9.23747 58.1167 9.93283C58.5909 10.6282 58.8439 11.4505 58.8429 12.2921C58.8438 13.1337 58.5906 13.9559 58.1165 14.6513C57.6425 15.3466 56.9695 15.8826 56.1858 16.1892Z" fill="white"/>
<rect x="78.5" y="0.500061" width="34" height="23" rx="3.5" fill="#1F72CD" stroke="#E6E6E6"/>
<path fill-rule="evenodd" clip-rule="evenodd" d="M84.6811 8.50006L81.5 15.7468H85.3082L85.7803 14.5914H86.8595L87.3316 15.7468H91.5234V14.8649L91.8969 15.7468H94.0652L94.4387 14.8463V15.7468H103.157L104.217 14.6214L105.209 15.7468L109.687 15.7561L106.496 12.1437L109.687 8.50006H105.279L104.247 9.60469L103.285 8.50006H93.8016L92.9872 10.3705L92.1537 8.50006H88.3534V9.35192L87.9307 8.50006H84.6811ZM97.6994 9.52911H102.706L104.237 11.2317L105.817 9.52911H107.348L105.022 12.1426L107.348 14.7261H105.748L104.217 13.0037L102.628 14.7261H97.6994V9.52911ZM98.9356 11.555V10.6058V10.6049H102.059L103.422 12.123L101.999 13.6494H98.9356V12.6131H101.667V11.555H98.9356ZM85.418 9.52911H87.2743L89.3843 14.4432V9.52911H91.4178L93.0476 13.0525L94.5496 9.52911H96.573V14.7291H95.3418L95.3317 10.6544L93.5368 14.7291H92.4355L90.6305 10.6544V14.7291H88.0977L87.6176 13.5634H85.0234L84.5442 14.7281H83.1872L85.418 9.52911ZM85.4663 12.4857L86.321 10.4089L87.1747 12.4857H85.4663Z" fill="white"/>
<rect x="117.5" y="0.500061" width="34" height="23" rx="3.5" fill="white" stroke="#E6E6E6"/>
<path d="M132 23.0001L151 17.2501V20.0001C151 21.6569 149.657 23.0001 148 23.0001H132Z" fill="#FD6020"/>
<path fill-rule="evenodd" clip-rule="evenodd" d="M147.394 9.1109C148.439 9.1109 149.014 9.59444 149.014 10.5078C149.066 11.2063 148.596 11.7972 147.969 11.9047L149.38 13.8926H148.282L147.08 11.9584H146.976V13.8926H146.087V9.1109H147.394ZM146.976 11.3137H147.237C147.812 11.3137 148.073 11.0451 148.073 10.5615C148.073 10.1317 147.812 9.8631 147.237 9.8631H146.976V11.3137ZM143.003 13.8926H145.512V13.0867H143.892V11.7972H145.46V10.9913H143.892V9.91681H145.512V9.1109H143.003V13.8926ZM140.39 12.3345L139.188 9.1109H138.247L140.181 14.0001H140.652L142.585 9.1109H141.645L140.39 12.3345ZM129.78 11.5286C129.78 12.8718 130.826 14.0001 132.132 14.0001C132.551 14.0001 132.916 13.8926 133.282 13.7314V12.6569C133.021 12.9793 132.655 13.1942 132.237 13.1942C131.401 13.1942 130.721 12.5494 130.721 11.6898V11.5823C130.669 10.7227 131.348 9.97054 132.185 9.91681C132.603 9.91681 133.021 10.1317 133.282 10.4541V9.37954C132.969 9.16464 132.551 9.11091 132.185 9.11091C130.826 9.00346 129.78 10.1317 129.78 11.5286ZM128.16 10.9376C127.638 10.7227 127.481 10.6153 127.481 10.3466C127.533 10.0243 127.794 9.75563 128.108 9.80936C128.369 9.80936 128.631 9.97054 128.84 10.1854L129.31 9.54072C128.944 9.21836 128.474 9.00345 128.003 9.00345C127.272 8.94973 126.645 9.54072 126.592 10.2929V10.3466C126.592 10.9914 126.854 11.3674 127.69 11.6361C127.899 11.6898 128.108 11.7973 128.317 11.9047C128.474 12.0122 128.578 12.1733 128.578 12.3883C128.578 12.7643 128.265 13.0867 127.951 13.0867H127.899C127.481 13.0867 127.115 12.8181 126.958 12.442L126.383 13.033C126.697 13.624 127.324 13.9463 127.951 13.9463C128.787 14.0001 129.467 13.3553 129.519 12.4957V12.3345C129.467 11.6898 129.206 11.3674 128.16 10.9376ZM125.129 13.8926H126.017V9.1109H125.129V13.8926ZM121 9.11092H122.307H122.568C123.822 9.16464 124.815 10.2392 124.763 11.5286C124.763 12.2271 124.449 12.8718 123.927 13.3553C123.456 13.7314 122.882 13.9463 122.307 13.8926H121V9.11092ZM122.15 13.0867C122.568 13.1404 123.038 12.9792 123.352 12.7106C123.666 12.3882 123.822 11.9584 123.822 11.4749C123.822 11.0451 123.666 10.6153 123.352 10.2929C123.038 10.0243 122.568 9.86308 122.15 9.9168H121.889V13.0867H122.15Z" fill="black"/>
<path fill-rule="evenodd" clip-rule="evenodd" d="M135.947 9.00006C134.641 9.00006 133.543 10.0746 133.543 11.4715C133.543 12.8147 134.588 13.9429 135.947 13.9967C137.306 14.0504 138.351 12.9221 138.404 11.5252C138.351 10.1283 137.306 9.00006 135.947 9.00006V9.00006Z" fill="#FD6020"/>
<rect x="156.5" y="0.500061" width="34" height="23" rx="3.5" fill="white" stroke="#E6E6E6"/>
<path fill-rule="evenodd" clip-rule="evenodd" d="M173.75 17.157C172.558 18.1853 171.013 18.806 169.324 18.806C165.555 18.806 162.5 15.7155 162.5 11.903C162.5 8.09063 165.555 5.00006 169.324 5.00006C171.013 5.00006 172.558 5.62081 173.75 6.64909C174.942 5.62081 176.487 5.00006 178.176 5.00006C181.945 5.00006 185 8.09063 185 11.903C185 15.7155 181.945 18.806 178.176 18.806C176.487 18.806 174.942 18.1853 173.75 17.157Z" fill="#ED0006"/>
<path fill-rule="evenodd" clip-rule="evenodd" d="M173.75 17.157C175.217 15.8909 176.148 14.0069 176.148 11.903C176.148 9.79923 175.217 7.91523 173.75 6.64909C174.942 5.62081 176.487 5.00006 178.176 5.00006C181.945 5.00006 185 8.09063 185 11.903C185 15.7155 181.945 18.806 178.176 18.806C176.487 18.806 174.942 18.1853 173.75 17.157Z" fill="#F9A000"/>
<path fill-rule="evenodd" clip-rule="evenodd" d="M173.749 6.64911C175.216 7.91524 176.147 9.79923 176.147 11.903C176.147 14.0068 175.216 15.8908 173.749 17.157C172.282 15.8908 171.352 14.0068 171.352 11.903C171.352 9.79923 172.282 7.91524 173.749 6.64911Z" fill="#FF5E00"/>
<rect x="195.5" y="0.500061" width="34" height="23" rx="3.5" fill="white" stroke="#E6E6E6"/>
<path d="M215.097 12.127C215.097 15.9394 212.042 19.03 208.273 19.03C204.504 19.03 201.449 15.9394 201.449 12.127C201.449 8.3146 204.504 5.22403 208.273 5.22403C212.042 5.22403 215.097 8.3146 215.097 12.127Z" fill="#ED0006"/>
<path d="M223.948 12.127C223.948 15.9394 220.893 19.03 217.125 19.03C213.356 19.03 210.301 15.9394 210.301 12.127C210.301 8.3146 213.356 5.22403 217.125 5.22403C220.893 5.22403 223.948 8.3146 223.948 12.127Z" fill="#0099DF"/>
<path fill-rule="evenodd" clip-rule="evenodd" d="M212.698 6.87308C214.165 8.13921 215.096 10.0232 215.096 12.127C215.096 14.2308 214.165 16.1148 212.698 17.3809C211.231 16.1148 210.301 14.2308 210.301 12.127C210.301 10.0232 211.231 8.13921 212.698 6.87308Z" fill="#6C6BBD"/>
</svg>
