<svg width="23" height="16" viewBox="0 0 23 16" fill="none" xmlns="http://www.w3.org/2000/svg">
<path d="M1.25941 2.41943L1.25971 2.41879C1.71436 1.43874 2.66454 0.833313 3.75277 0.833313H19.2476C20.3349 0.833313 21.2839 1.43796 21.7406 2.41868C22.1931 3.39458 22.0462 4.50315 21.3544 5.32657C21.3542 5.32684 21.354 5.32711 21.3538 5.32739L14.0527 13.9812L14.052 13.982C13.4185 14.7352 12.4906 15.1666 11.501 15.1666C10.512 15.1666 9.58358 14.734 8.94951 13.9815L8.94924 13.9812L1.64816 5.32685C1.64811 5.32679 1.64806 5.32672 1.648 5.32666C0.954008 4.50264 0.806053 3.39428 1.25941 2.41943Z" stroke="#111111" stroke-width="1.5"/>
</svg>
