<svg width="17" height="12" viewBox="0 0 17 12" fill="none" xmlns="http://www.w3.org/2000/svg">
<path d="M5.88566 9.15L14.3607 0.675C14.5607 0.475 14.7982 0.375 15.0732 0.375C15.3482 0.375 15.5857 0.475 15.7857 0.675C15.9857 0.875 16.0857 1.1125 16.0857 1.3875C16.0857 1.6625 15.9857 1.9 15.7857 2.1L6.58566 11.3C6.38566 11.5 6.15232 11.6 5.88566 11.6C5.61899 11.6 5.38566 11.5 5.18566 11.3L0.885656 7C0.685656 6.8 0.589823 6.5625 0.598156 6.2875C0.60649 6.0125 0.710656 5.775 0.910656 5.575C1.11066 5.375 1.34816 5.275 1.62316 5.275C1.89816 5.275 2.13566 5.375 2.33566 5.575L5.88566 9.15Z" fill="#2673B8"/>
</svg>
