<svg width="14" height="14" viewBox="0 0 14 14" fill="none" xmlns="http://www.w3.org/2000/svg">
<path d="M7.33672 8.39999L2.43672 13.3C2.25339 13.4833 2.02005 13.575 1.73672 13.575C1.45339 13.575 1.22005 13.4833 1.03672 13.3C0.853385 13.1167 0.761719 12.8833 0.761719 12.6C0.761719 12.3167 0.853385 12.0833 1.03672 11.9L5.93672 6.99999L1.03672 2.09999C0.853385 1.91665 0.761719 1.68332 0.761719 1.39999C0.761719 1.11665 0.853385 0.883321 1.03672 0.699988C1.22005 0.516654 1.45339 0.424988 1.73672 0.424988C2.02005 0.424988 2.25339 0.516654 2.43672 0.699988L7.33672 5.59999L12.2367 0.699988C12.4201 0.516654 12.6534 0.424988 12.9367 0.424988C13.2201 0.424988 13.4534 0.516654 13.6367 0.699988C13.8201 0.883321 13.9117 1.11665 13.9117 1.39999C13.9117 1.68332 13.8201 1.91665 13.6367 2.09999L8.73672 6.99999L13.6367 11.9C13.8201 12.0833 13.9117 12.3167 13.9117 12.6C13.9117 12.8833 13.8201 13.1167 13.6367 13.3C13.4534 13.4833 13.2201 13.575 12.9367 13.575C12.6534 13.575 12.4201 13.4833 12.2367 13.3L7.33672 8.39999Z" fill="#999999"/>
</svg>
