<svg width="92" height="72" viewBox="0 0 92 72" fill="none" xmlns="http://www.w3.org/2000/svg">
<mask id="mask0_516_150918" style="mask-type:luminance" maskUnits="userSpaceOnUse" x="0" y="47" width="48" height="25">
<path d="M45.775 47.16H1.433C0.641576 47.16 0 47.8016 0 48.593V70.023C0 70.8144 0.641576 71.456 1.433 71.456H45.775C46.5664 71.456 47.208 70.8144 47.208 70.023V48.593C47.208 47.8016 46.5664 47.16 45.775 47.16Z" fill="white"/>
</mask>
<g mask="url(#mask0_516_150918)">
<path d="M45.775 47.16H1.433C0.641576 47.16 0 47.8016 0 48.593V70.023C0 70.8144 0.641576 71.456 1.433 71.456H45.775C46.5664 71.456 47.208 70.8144 47.208 70.023V48.593C47.208 47.8016 46.5664 47.16 45.775 47.16Z" stroke="#111111" stroke-width="5.73"/>
</g>
<mask id="mask1_516_150918" style="mask-type:luminance" maskUnits="userSpaceOnUse" x="8" y="42" width="13" height="9">
<path d="M8.58594 44.306C8.58594 43.514 9.22794 42.873 10.0189 42.873H18.5989C19.3889 42.873 20.0309 43.514 20.0309 44.306V50.019H8.58594V44.306Z" fill="white"/>
</mask>
<g mask="url(#mask1_516_150918)">
<path d="M8.58594 44.306C8.58594 43.514 9.22794 42.873 10.0189 42.873H18.5989C19.3889 42.873 20.0309 43.514 20.0309 44.306V50.019H8.58594V44.306Z" stroke="#111111" stroke-width="5.73"/>
</g>
<mask id="mask2_516_150918" style="mask-type:luminance" maskUnits="userSpaceOnUse" x="26" y="42" width="13" height="9">
<path d="M26.7969 44.306C26.7969 43.514 27.4369 42.873 28.2289 42.873H36.8089C37.5989 42.873 38.2409 43.514 38.2409 44.306V50.019H26.7969V44.306Z" fill="white"/>
</mask>
<g mask="url(#mask2_516_150918)">
<path d="M26.7969 44.306C26.7969 43.514 27.4369 42.873 28.2289 42.873H36.8089C37.5989 42.873 38.2409 43.514 38.2409 44.306V50.019H26.7969V44.306Z" stroke="#111111" stroke-width="5.73"/>
</g>
<mask id="mask3_516_150918" style="mask-type:luminance" maskUnits="userSpaceOnUse" x="18" y="4" width="48" height="25">
<path d="M64.3688 4.28711H20.0268C19.2353 4.28711 18.5938 4.92868 18.5938 5.72011V27.1501C18.5938 27.9415 19.2353 28.5831 20.0268 28.5831H64.3688C65.1602 28.5831 65.8018 27.9415 65.8018 27.1501V5.72011C65.8018 4.92868 65.1602 4.28711 64.3688 4.28711Z" fill="white"/>
</mask>
<g mask="url(#mask3_516_150918)">
<path d="M64.3688 4.28711H20.0268C19.2353 4.28711 18.5938 4.92868 18.5938 5.72011V27.1501C18.5938 27.9415 19.2353 28.5831 20.0268 28.5831H64.3688C65.1602 28.5831 65.8018 27.9415 65.8018 27.1501V5.72011C65.8018 4.92868 65.1602 4.28711 64.3688 4.28711Z" stroke="#111111" stroke-width="5.73"/>
</g>
<mask id="mask4_516_150918" style="mask-type:luminance" maskUnits="userSpaceOnUse" x="27" y="0" width="12" height="8">
<path d="M27.1797 1.433C27.1797 0.64 27.8217 0 28.6137 0H37.1937C37.9837 0 38.6257 0.641 38.6257 1.433V7.146H27.1797V1.433Z" fill="white"/>
</mask>
<g mask="url(#mask4_516_150918)">
<path d="M27.1797 1.433C27.1797 0.64 27.8217 0 28.6137 0H37.1937C37.9837 0 38.6257 0.641 38.6257 1.433V7.146H27.1797V1.433Z" stroke="#111111" stroke-width="5.73"/>
</g>
<mask id="mask5_516_150918" style="mask-type:luminance" maskUnits="userSpaceOnUse" x="45" y="0" width="13" height="8">
<path d="M45.7734 1.433C45.7734 0.64 46.4144 0 47.2054 0H55.7854C56.5764 0 57.2174 0.641 57.2174 1.433V7.146H45.7734V1.433Z" fill="white"/>
</mask>
<g mask="url(#mask5_516_150918)">
<path d="M45.7734 1.433C45.7734 0.64 46.4144 0 47.2054 0H55.7854C56.5764 0 57.2174 0.641 57.2174 1.433V7.146H45.7734V1.433Z" stroke="#111111" stroke-width="5.73"/>
</g>
<mask id="mask6_516_150918" style="mask-type:luminance" maskUnits="userSpaceOnUse" x="44" y="25" width="48" height="26">
<path d="M90.1188 25.7227H45.7767C44.9853 25.7227 44.3438 26.3642 44.3438 27.1557V48.5857C44.3438 49.3771 44.9853 50.0187 45.7767 50.0187H90.1188C90.9102 50.0187 91.5518 49.3771 91.5518 48.5857V27.1557C91.5518 26.3642 90.9102 25.7227 90.1188 25.7227Z" fill="white"/>
</mask>
<g mask="url(#mask6_516_150918)">
<path d="M90.1188 25.7227H45.7767C44.9853 25.7227 44.3438 26.3642 44.3438 27.1557V48.5857C44.3438 49.3771 44.9853 50.0187 45.7767 50.0187H90.1188C90.9102 50.0187 91.5518 49.3771 91.5518 48.5857V27.1557C91.5518 26.3642 90.9102 25.7227 90.1188 25.7227Z" stroke="#111111" stroke-width="5.73"/>
</g>
<mask id="mask7_516_150918" style="mask-type:luminance" maskUnits="userSpaceOnUse" x="44" y="47" width="48" height="25">
<path d="M90.1188 47.1602H45.7767C44.9853 47.1602 44.3438 47.8017 44.3438 48.5932V70.0232C44.3438 70.8146 44.9853 71.4562 45.7767 71.4562H90.1188C90.9102 71.4562 91.5518 70.8146 91.5518 70.0232V48.5932C91.5518 47.8017 90.9102 47.1602 90.1188 47.1602Z" fill="white"/>
</mask>
<g mask="url(#mask7_516_150918)">
<path d="M90.1188 47.1602H45.7767C44.9853 47.1602 44.3438 47.8017 44.3438 48.5932V70.0232C44.3438 70.8146 44.9853 71.4562 45.7767 71.4562H90.1188C90.9102 71.4562 91.5518 70.8146 91.5518 70.0232V48.5932C91.5518 47.8017 90.9102 47.1602 90.1188 47.1602Z" stroke="#111111" stroke-width="5.73"/>
</g>
<mask id="mask8_516_150918" style="mask-type:luminance" maskUnits="userSpaceOnUse" x="71" y="21" width="12" height="8">
<path d="M71.5244 22.8675C71.5244 22.0765 72.1644 21.4355 72.9564 21.4355H81.5364C82.3264 21.4355 82.9684 22.0755 82.9684 22.8675V28.5805H71.5234L71.5244 22.8675Z" fill="white"/>
</mask>
<g mask="url(#mask8_516_150918)">
<path d="M71.5244 22.8675C71.5244 22.0765 72.1644 21.4355 72.9564 21.4355H81.5364C82.3264 21.4355 82.9684 22.0755 82.9684 22.8675V28.5805H71.5234L71.5244 22.8675Z" stroke="#111111" stroke-width="5.73"/>
</g>
</svg>
