<svg xmlns="http://www.w3.org/2000/svg" xmlns:xlink="http://www.w3.org/1999/xlink" fill="none" version="1.1" width="24" height="24" viewBox="0 0 24 24"><g><g><path d="M18,20.75C18,20.75,6,20.75,6,20.75C3.582,20.75,2.25,19.418,2.25,17C2.25,17,2.25,8,2.25,8C2.25,5.582,3.582,4.25,6,4.25C6,4.25,18,4.25,18,4.25C20.418,4.25,21.75,5.582,21.75,8C21.75,8,21.75,17,21.75,17C21.75,19.418,20.418,20.75,18,20.75ZM6,5.75C4.423,5.75,3.75,6.423,3.75,8C3.75,8,3.75,17,3.75,17C3.75,18.576999999999998,4.423,19.25,6,19.25C6,19.25,18,19.25,18,19.25C19.577,19.25,20.25,18.576999999999998,20.25,17C20.25,17,20.25,8,20.25,8C20.25,6.423,19.577,5.75,18,5.75C18,5.75,6,5.75,6,5.75ZM13.0291,13.179C13.0291,13.179,17.9409,9.60699,17.9409,9.60699C18.2759,9.363990000000001,18.35,8.89401,18.106,8.55901C17.863,8.225010000000001,17.3951,8.149000000000001,17.0581,8.394C17.0581,8.394,12.146,11.966000000000001,12.146,11.966000000000001C12.058,12.030000000000001,11.94103,12.030000000000001,11.85303,11.966000000000001C11.85303,11.966000000000001,6.94092,8.394,6.94092,8.394C6.60292,8.149000000000001,6.13607,8.22601,5.89307,8.55901C5.64907,8.89401,5.72311,9.36299,6.05811,9.60699C6.05811,9.60699,10.96997,13.17999,10.96997,13.17999C11.27797,13.40399,11.63902,13.515,11.99902,13.515C12.359,13.515,12.7221,13.403,13.0291,13.179Z" fill="#25314C" fill-opacity="1"/></g></g></svg>