<svg width="20" height="16" viewBox="0 0 20 16" fill="none" xmlns="http://www.w3.org/2000/svg">
<path d="M19.0221 6.26709C17.7351 4.11309 14.8531 0.5 10.0011 0.5C5.14911 0.5 2.26711 4.11309 0.980113 6.26709C0.340113 7.33609 0.340137 8.66389 0.979137 9.73389C2.26614 11.8879 5.14813 15.501 10.0001 15.501C14.8521 15.501 17.7341 11.8879 19.0211 9.73389C19.6611 8.66389 19.6611 7.33609 19.0221 6.26709ZM18.1642 9.22095C18.1632 9.22095 18.1632 9.22095 18.1642 9.22095C16.9862 11.1929 14.3591 14.5 10.0011 14.5C5.64311 14.5 3.01602 11.1919 1.83802 9.22095C1.38902 8.46795 1.389 7.53303 1.839 6.78003C3.016 4.80803 5.64311 1.50098 10.0011 1.50098C14.3591 1.50098 16.9862 4.80903 18.1642 6.78003C18.6132 7.53203 18.6132 8.46795 18.1642 9.22095ZM10.0011 4C7.79511 4 6.00111 5.794 6.00111 8C6.00111 10.206 7.79511 12 10.0011 12C12.2071 12 14.0011 10.206 14.0011 8C14.0011 5.794 12.2071 4 10.0011 4ZM10.0011 11C8.34711 11 7.00111 9.654 7.00111 8C7.00111 6.346 8.34711 5 10.0011 5C11.6551 5 13.0011 6.346 13.0011 8C13.0011 9.654 11.6551 11 10.0011 11Z" fill="#25314C"/>
</svg>
