<svg xmlns="http://www.w3.org/2000/svg" xmlns:xlink="http://www.w3.org/1999/xlink" fill="none" version="1.1" width="32" height="32" viewBox="0 0 32 32"><defs><linearGradient x1="0.5" y1="3.0525370044428025e-17" x2="0.5" y2="0.9970341920852661" id="master_svg0_0_22625"><stop offset="0%" stop-color="#18ACFE" stop-opacity="1"/><stop offset="100%" stop-color="#0163E0" stop-opacity="1"/></linearGradient></defs><g><g><ellipse cx="16" cy="16" rx="14" ry="14" fill="url(#master_svg0_0_22625)" fill-opacity="1"/></g><g><path d="M21.2137,20.281599999999997C21.2137,20.281599999999997,21.8356,16.3301,21.8356,16.3301C21.8356,16.3301,17.94522,16.3301,17.94522,16.3301C17.94522,16.3301,17.94522,13.76699,17.94522,13.76699C17.94522,12.6857,18.48767,11.63107,20.2302,11.63107C20.2302,11.63107,22,11.63107,22,11.63107C22,11.63107,22,8.26699,22,8.26699C22,8.26699,20.3945,8,18.86027,8C15.65484,8,13.56166,9.89294,13.56166,13.31845C13.56166,13.31845,13.56166,16.3301,13.56166,16.3301C13.56166,16.3301,10,16.3301,10,16.3301C10,16.3301,10,20.281599999999997,10,20.281599999999997C10,20.281599999999997,13.56166,20.281599999999997,13.56166,20.281599999999997C13.56166,20.281599999999997,13.56166,29.8345,13.56166,29.8345C14.27671,29.944,15.00824,30,15.753440000000001,30C16.49864,30,17.23017,29.944,17.94522,29.8345C17.94522,29.8345,17.94522,20.281599999999997,17.94522,20.281599999999997C17.94522,20.281599999999997,21.2137,20.281599999999997,21.2137,20.281599999999997Z" fill="#FFFFFF" fill-opacity="1"/></g></g></svg>