<svg width="58" height="24" viewBox="0 0 58 24" fill="none" xmlns="http://www.w3.org/2000/svg">
<path fill-rule="evenodd" clip-rule="evenodd" d="M26.8838 18.7735V11.7303H30.5189C32.0085 11.7303 33.2657 11.2312 34.2907 10.2468L34.5367 9.99727C36.4089 7.95919 36.2859 4.78422 34.2907 2.89866C33.2931 1.90042 31.9265 1.3597 30.5189 1.38743H24.6836V18.7735H26.8838ZM26.8867 9.59525V3.52261H30.5771C31.3698 3.52261 32.1216 3.82763 32.682 4.38221C33.8711 5.54683 33.8984 7.48785 32.7503 8.69406C32.1899 9.29024 31.3972 9.62298 30.5771 9.59525H26.8867ZM44.794 7.80669C43.8511 6.93323 42.5665 6.48956 40.9403 6.48956C38.8494 6.48956 37.2778 7.26597 36.2392 8.80493L38.1798 10.0389C38.8904 8.98517 39.8607 8.45832 41.0906 8.45832C41.8695 8.45832 42.6212 8.74947 43.2088 9.27632C43.7827 9.77544 44.1107 10.4964 44.1107 11.2589V11.7719C43.2634 11.3005 42.1975 11.051 40.8856 11.051C39.355 11.051 38.1251 11.4115 37.2095 12.1463C36.2939 12.8811 35.8292 13.8516 35.8292 15.0855C35.8019 16.2086 36.2802 17.2761 37.1275 17.9971C37.9884 18.7735 39.0817 19.1617 40.3663 19.1617C41.8832 19.1617 43.0858 18.4823 44.0014 17.1236H44.0971V18.7735H46.2016V11.4392C46.2016 9.90022 45.737 8.68015 44.794 7.80669ZM38.8221 16.5828C38.371 16.25 38.0977 15.7093 38.0977 15.127C38.0977 14.4754 38.3984 13.9347 38.9861 13.5049C39.5875 13.0751 40.3392 12.8532 41.2276 12.8532C42.4577 12.8394 43.4145 13.1167 44.0979 13.6713C44.0979 14.614 43.7289 15.432 43.0045 16.1253C42.3484 16.7908 41.46 17.1651 40.5306 17.1651C39.9155 17.179 39.3141 16.971 38.8221 16.5828ZM50.9375 24.0005L58.2897 6.87784H55.8982L52.4954 15.4184H52.4544L48.9696 6.87784H46.5781L51.4022 18.011L48.669 24.0005H50.9375Z" fill="#3C4043"/>
<path d="M19.2868 10.2052C19.2868 9.52585 19.2322 8.84649 19.1228 8.181H9.84375V12.0215H15.1598C14.9411 13.2554 14.2305 14.3646 13.1919 15.0578V17.5534H16.3623C18.2209 15.8203 19.2868 13.2554 19.2868 10.2052Z" fill="#4285F4"/>
<path d="M9.84181 19.9658C12.493 19.9658 14.7342 19.0785 16.3604 17.5534L13.1899 15.0578C12.3017 15.6678 11.1674 16.0144 9.84181 16.0144C7.27264 16.0144 5.09977 14.2536 4.32082 11.8967H1.05469V14.4755C2.72192 17.8445 6.12471 19.9658 9.84181 19.9658Z" fill="#34A853"/>
<path d="M4.32251 11.8967C3.91247 10.6627 3.91247 9.31787 4.32251 8.07007V5.50514H1.05585C-0.351951 8.31963 -0.351951 11.6471 1.05585 14.4616L4.32251 11.8967Z" fill="#FBBC04"/>
<path d="M9.84181 3.95234C11.2494 3.92462 12.6023 4.46533 13.6136 5.44971L16.4287 2.59363C14.6385 0.90216 12.288 -0.0267593 9.84181 0.000969606C6.12471 0.000969606 2.72192 2.1361 1.05469 5.50517L4.32082 8.08396C5.09977 5.71313 7.27264 3.95234 9.84181 3.95234Z" fill="#EA4335"/>
</svg>
