<svg xmlns="http://www.w3.org/2000/svg" xmlns:xlink="http://www.w3.org/1999/xlink" fill="none" version="1.1" width="32" height="32" viewBox="0 0 32 32"><defs><radialGradient cx="0" cy="0" r="1" gradientUnits="userSpaceOnUse" id="master_svg0_0_22630" gradientTransform="translate(11.999998569488525 23.000001668930054) rotate(124.62415566988847) scale(25.519602447461917 25.519602447461917)"><stop offset="0%" stop-color="#B13589" stop-opacity="1"/><stop offset="79.3090283870697%" stop-color="#C62F94" stop-opacity="1"/><stop offset="100%" stop-color="#8A3AC8" stop-opacity="1"/></radialGradient><radialGradient cx="0" cy="0" r="1" gradientUnits="userSpaceOnUse" id="master_svg1_0_22633" gradientTransform="translate(10.99999988079071 30.999999523162842) rotate(114.86369638444012) scale(22.594246364222165 22.594246364222165)"><stop offset="0%" stop-color="#E0E8B7" stop-opacity="1"/><stop offset="44.466206431388855%" stop-color="#FB8A2E" stop-opacity="1"/><stop offset="71.47404551506042%" stop-color="#E2425C" stop-opacity="1"/><stop offset="100%" stop-color="#E2425C" stop-opacity="0"/></radialGradient><radialGradient cx="0" cy="0" r="1" gradientUnits="userSpaceOnUse" id="master_svg2_0_22636" gradientTransform="translate(0.5000016540288925 2.999999836087227) rotate(171.869896820012) scale(38.890870411161096 8.318355568627602)"><stop offset="0%" stop-color="#406ADC" stop-opacity="1"/><stop offset="15.670102834701538%" stop-color="#406ADC" stop-opacity="1"/><stop offset="46.779924631118774%" stop-color="#6A45BE" stop-opacity="1"/><stop offset="100%" stop-color="#6A45BE" stop-opacity="0"/></radialGradient></defs><g><g><rect x="2" y="2" width="28" height="28" rx="6" fill="url(#master_svg0_0_22630)" fill-opacity="1"/></g><g><rect x="2" y="2" width="28" height="28" rx="6" fill="url(#master_svg1_0_22633)" fill-opacity="1"/></g><g><rect x="2" y="2" width="28" height="28" rx="6" fill="url(#master_svg2_0_22636)" fill-opacity="1"/></g><g><path d="M6.653961,9.276060000000001C6,10.559529999999999,6,12.23969,6,15.6L6,16.4C6,19.7603,6,21.4405,6.653961,22.7239C7.2292000000000005,23.8529,8.147079999999999,24.7708,9.276060000000001,25.346C10.559529999999999,26,12.23969,26,15.6,26L16.4,26C19.7603,26,21.4405,26,22.7239,25.346C23.8529,24.7708,24.7708,23.8529,25.346,22.7239C26,21.4405,26,19.7603,26,16.4L26,15.6C26,12.23969,26,10.559529999999999,25.346,9.276060000000001C24.7708,8.147079999999999,23.8529,7.2292000000000005,22.7239,6.653961C21.4405,6,19.7603,6,16.4,6L15.6,6C12.23969,6,10.559529999999999,6,9.276060000000001,6.653961C8.147079999999999,7.2292000000000005,7.2292000000000005,8.147079999999999,6.653961,9.276060000000001ZM16.4,8L15.6,8C13.88684,8,12.722249999999999,8.00156,11.82208,8.075099999999999C10.94524,8.14674,10.496839999999999,8.27659,10.18404,8.435970000000001C9.43139,8.819469999999999,8.819469999999999,9.43139,8.435970000000001,10.18404C8.27659,10.496839999999999,8.14674,10.94524,8.075099999999999,11.82208C8.00156,12.722249999999999,8,13.88684,8,15.6L8,16.4C8,18.1132,8.00156,19.2777,8.075099999999999,20.1779C8.14674,21.0548,8.27659,21.5032,8.435970000000001,21.816000000000003C8.819469999999999,22.5686,9.43139,23.1805,10.18404,23.564C10.496839999999999,23.7234,10.94524,23.8533,11.82208,23.9249C12.722249999999999,23.9984,13.88684,24,15.6,24L16.4,24C18.1132,24,19.2777,23.9984,20.1779,23.9249C21.0548,23.8533,21.5032,23.7234,21.816000000000003,23.564C22.5686,23.1805,23.1805,22.5686,23.564,21.816000000000003C23.7234,21.5032,23.8533,21.0548,23.9249,20.1779C23.9984,19.2777,24,18.1132,24,16.4L24,15.6C24,13.88684,23.9984,12.722249999999999,23.9249,11.82208C23.8533,10.94524,23.7234,10.496839999999999,23.564,10.18404C23.1805,9.43139,22.5686,8.819469999999999,21.816000000000003,8.435970000000001C21.5032,8.27659,21.0548,8.14674,20.1779,8.075099999999999C19.2777,8.00156,18.1132,8,16.4,8ZM23,10.5C23,11.32843,22.3284,12,21.5,12C20.671599999999998,12,20,11.32843,20,10.5C20,9.67157,20.671599999999998,9,21.5,9C22.3284,9,23,9.67157,23,10.5ZM16,21C18.761400000000002,21,21,18.761400000000002,21,16C21,13.238579999999999,18.761400000000002,11,16,11C13.238579999999999,11,11,13.238579999999999,11,16C11,18.761400000000002,13.238579999999999,21,16,21ZM16,19C17.6569,19,19,17.6569,19,16C19,14.34315,17.6569,13,16,13C14.34315,13,13,14.34315,13,16C13,17.6569,14.34315,19,16,19Z" fill-rule="evenodd" fill="#FFFFFF" fill-opacity="1"/></g></g></svg>