<svg xmlns="http://www.w3.org/2000/svg" xmlns:xlink="http://www.w3.org/1999/xlink" fill="none" version="1.1" width="32" height="32" viewBox="0 0 32 32"><g><g><rect x="2" y="2" width="28" height="28" rx="14" fill="#1275B1" fill-opacity="1"/></g><g><path d="M12.61856,9.69215C12.61856,10.6267,11.80852,11.3843,10.80928,11.3843C9.810041,11.3843,9,10.6267,9,9.69215C9,8.757601,9.810041,8,10.80928,8C11.80852,8,12.61856,8.757601,12.61856,9.69215ZM9.247423,12.6281C9.247423,12.6281,12.340209999999999,12.6281,12.340209999999999,12.6281C12.340209999999999,12.6281,12.340209999999999,22,12.340209999999999,22C12.340209999999999,22,9.247423,22,9.247423,22C9.247423,22,9.247423,12.6281,9.247423,12.6281ZM17.319589999999998,12.6281C17.319589999999998,12.6281,14.2268,12.6281,14.2268,12.6281C14.2268,12.6281,14.2268,22,14.2268,22C14.2268,22,17.319589999999998,22,17.319589999999998,22C17.319589999999998,22,17.319589999999998,19.049599999999998,17.319589999999998,17.20486C17.319589999999998,16.09762,17.69766,14.98554,19.206200000000003,14.98554C20.911,14.98554,20.9008,16.434530000000002,20.8928,17.557090000000002C20.8824,19.0244,20.9072,20.521900000000002,20.9072,22C20.9072,22,24,22,24,22C24,22,24,17.05372,24,17.05372C23.9738,13.89538,23.1508,12.44008,20.4433,12.44008C18.8354,12.44008,17.83871,13.17006,17.319589999999998,13.830490000000001C17.319589999999998,13.830490000000001,17.319589999999998,12.6281,17.319589999999998,12.6281Z" fill="#FFFFFF" fill-opacity="1"/></g></g></svg>