<svg xmlns="http://www.w3.org/2000/svg" xmlns:xlink="http://www.w3.org/1999/xlink" fill="none" version="1.1" width="40" height="40" viewBox="0 0 40 40"><g><g><g><path d="M14.24104,4.601296L14.2397,4.601864Q9.49103,6.60814,6.74514,10.92967Q3.91075,15.3905,4.292606,20.6872Q4.716662,26.7634,9.24254,31.1163Q13.76161,35.462599999999995,19.9197,35.7339Q24.1775,35.918800000000005,27.9572,34.0706Q31.6093,32.2849,33.9885,29.0232Q35.208600000000004,27.369,34.5113,26.2261Q33.8065,25.071,31.7655,25.4441Q30.312,25.7048,28.8174,25.6424Q23.6227,25.4296,19.9187,21.6335Q16.217399999999998,17.84,16.196199999999997,12.71219Q16.1755,10.01651,17.2564,7.5419Q18.070999999999998,5.668202,17.0702,4.725596Q16.1003,3.81217,14.24104,4.601296ZM8.01118,11.734110000000001Q10.50638,7.80714,14.82471,5.983084L14.82605,5.982517Q15.7847,5.57541,16.0417,5.817546Q16.274900000000002,6.03717,15.8818,6.94148Q14.67305,9.70872,14.69617,12.71839Q14.71988,18.4531,18.845100000000002,22.681Q22.9655,26.904,28.7549,27.1411Q30.4143,27.2104,32.0352,26.9196Q33.0627,26.7318,33.2308,27.0074Q33.403099999999995,27.2898,32.7766,28.1392Q28.0737,34.586600000000004,19.9857,34.235299999999995Q14.3933,33.989000000000004,10.28234,30.0352Q6.17281,26.0827,5.788723,20.5793Q5.44249,15.7768,8.01118,11.734110000000001Z" fill-rule="evenodd" fill="#111111" fill-opacity="1"/></g><g transform="matrix(-1,-1.2246469849340659e-16,1.2246469849340659e-16,-1,80,80)" style="opacity:0;"></g></g></g></svg>