<svg width="28" height="24" viewBox="0 0 28 24" fill="none" xmlns="http://www.w3.org/2000/svg">
<path fill-rule="evenodd" clip-rule="evenodd" d="M3.30711 16.6567H1.16354C1.01685 16.6567 0.892094 16.7633 0.869219 16.908L0.00224866 22.4048C-0.0149831 22.5133 0.0690153 22.6111 0.179035 22.6111H1.2024C1.34908 22.6111 1.47384 22.5045 1.49671 22.3594L1.73055 20.8769C1.7531 20.7317 1.87816 20.6252 2.02455 20.6252H2.70313C4.11517 20.6252 4.93006 19.9419 5.14299 18.5879C5.23887 17.9955 5.14705 17.53 4.86957 17.2039C4.56497 16.8461 4.02452 16.6567 3.30711 16.6567ZM3.55442 18.6643C3.43722 19.4335 2.84951 19.4335 2.28125 19.4335H1.95778L2.18471 17.9969C2.19818 17.9102 2.2734 17.8462 2.36117 17.8462H2.50943C2.89652 17.8462 3.26171 17.8462 3.45042 18.0668C3.56283 18.1985 3.59735 18.3941 3.55442 18.6643ZM9.71478 18.6396H8.68826C8.6008 18.6396 8.52523 18.7036 8.51174 18.7905L8.46634 19.0775L8.39454 18.9735C8.17233 18.6509 7.67684 18.5432 7.18223 18.5432C6.0478 18.5432 5.07902 19.4023 4.89031 20.6075C4.79226 21.2086 4.93165 21.7834 5.27266 22.1843C5.58553 22.5529 6.03315 22.7065 6.56562 22.7065C7.47958 22.7065 7.98652 22.1188 7.98652 22.1188L7.94068 22.4041C7.92342 22.5132 8.00741 22.6109 8.11677 22.6109H9.04146C9.18854 22.6109 9.31256 22.5043 9.33576 22.3593L9.89057 18.8459C9.90812 18.7378 9.82443 18.6396 9.71478 18.6396ZM8.28387 20.6375C8.1848 21.224 7.71934 21.6176 7.1258 21.6176C6.82773 21.6176 6.58941 21.522 6.43653 21.3409C6.28481 21.161 6.22708 20.9049 6.27538 20.6197C6.36792 20.0382 6.84122 19.6318 7.42576 19.6318C7.71717 19.6318 7.95417 19.7285 8.11025 19.9113C8.26661 20.0959 8.32869 20.3535 8.28387 20.6375ZM14.1502 18.6395H15.1818C15.3263 18.6395 15.4105 18.8015 15.3284 18.92L11.8976 23.8723C11.8421 23.9525 11.7505 24.0002 11.6528 24.0002H10.6225C10.4774 24.0002 10.3927 23.8369 10.4767 23.7181L11.545 22.2102L10.4088 18.8758C10.3695 18.7599 10.4551 18.6395 10.5784 18.6395H11.592C11.7237 18.6395 11.8399 18.7259 11.8779 18.852L12.4809 20.8658L13.9036 18.7702C13.9593 18.6884 14.0519 18.6395 14.1502 18.6395Z" fill="#253B80"/>
<path fill-rule="evenodd" clip-rule="evenodd" d="M25.3375 22.4048L26.2172 16.8075C26.2307 16.7206 26.306 16.6567 26.3935 16.6564H27.3839C27.4932 16.6564 27.5772 16.7544 27.56 16.8629L26.6924 22.3594C26.6698 22.5044 26.545 22.6111 26.3981 22.6111H25.5136C25.4042 22.6111 25.3203 22.5133 25.3375 22.4048ZM18.6002 16.6567H16.4562C16.3098 16.6567 16.1851 16.7633 16.1622 16.908L15.2952 22.4048C15.278 22.5133 15.3619 22.6111 15.4715 22.6111H16.5715C16.6738 22.6111 16.7612 22.5365 16.7772 22.435L17.0232 20.8769C17.0458 20.7317 17.1708 20.6252 17.3172 20.6252H17.9954C19.4078 20.6252 20.2225 19.9419 20.4356 18.5878C20.5318 17.9955 20.4394 17.53 20.162 17.2039C19.8576 16.8461 19.3176 16.6567 18.6002 16.6567ZM18.8475 18.6643C18.7306 19.4335 18.1428 19.4335 17.5742 19.4335H17.2511L17.4783 17.9969C17.4918 17.9102 17.5664 17.8462 17.6544 17.8462H17.8027C18.1895 17.8462 18.555 17.8462 18.7436 18.0668C18.8562 18.1985 18.8904 18.3941 18.8475 18.6643ZM25.0072 18.6396H23.9815C23.8933 18.6396 23.8184 18.7036 23.8052 18.7905L23.7598 19.0775L23.6877 18.9735C23.4655 18.6509 22.9703 18.5432 22.4757 18.5432C21.3413 18.5432 20.3728 19.4023 20.1841 20.6075C20.0863 21.2086 20.2251 21.7834 20.5661 22.1843C20.8796 22.5529 21.3266 22.7065 21.8591 22.7065C22.7731 22.7065 23.2799 22.1188 23.2799 22.1188L23.2342 22.4041C23.2169 22.5131 23.3009 22.6109 23.411 22.6109H24.3352C24.4816 22.6109 24.6063 22.5043 24.6292 22.3592L25.1843 18.8459C25.2013 18.7378 25.1173 18.6396 25.0072 18.6396ZM23.5765 20.6375C23.478 21.224 23.012 21.6176 22.4183 21.6176C22.1208 21.6176 21.882 21.522 21.729 21.3409C21.5773 21.161 21.5203 20.9048 21.568 20.6197C21.661 20.0382 22.1337 19.6318 22.7182 19.6318C23.0098 19.6318 23.2466 19.7285 23.4029 19.9113C23.5598 20.0959 23.6219 20.3535 23.5765 20.6375Z" fill="#179BD7"/>
<path d="M11.2398 14.6902L11.5034 13.0164L10.9163 13.0027H8.11328L10.0613 0.65094C10.0672 0.613648 10.087 0.57888 10.1157 0.554193C10.1444 0.529505 10.1812 0.5159 10.2195 0.5159H14.9459C16.5151 0.5159 17.5979 0.842419 18.1633 1.48688C18.4283 1.78922 18.5971 2.10515 18.6788 2.45283C18.7643 2.81766 18.7659 3.25352 18.6822 3.78512L18.6762 3.82392V4.16454L18.9413 4.31471C19.1645 4.43311 19.3418 4.56866 19.4778 4.72386C19.7047 4.98235 19.8513 5.31089 19.9133 5.70039C19.9772 6.10098 19.9561 6.57765 19.8513 7.11732C19.7304 7.73811 19.5348 8.27878 19.2709 8.7212C19.0279 9.12884 18.7185 9.46688 18.3512 9.72898C18.0005 9.97788 17.5838 10.1669 17.1127 10.2879C16.6561 10.4066 16.1356 10.4667 15.5647 10.4667H15.1969C14.9339 10.4667 14.6783 10.5614 14.4779 10.7313C14.2768 10.9046 14.1437 11.1413 14.1029 11.4004L14.0752 11.5511L13.6096 14.5012L13.5884 14.6096C13.5829 14.6439 13.5733 14.6611 13.5593 14.6727C13.5467 14.6831 13.5285 14.6902 13.5108 14.6902H11.2398Z" fill="#253B80"/>
<path d="M19.1907 3.8634C19.1766 3.95359 19.1605 4.0458 19.1424 4.14053C18.519 7.34072 16.3866 8.44626 13.663 8.44626H12.2764C11.9433 8.44626 11.6627 8.68811 11.6107 9.01664L10.9007 13.5194L10.6997 14.7957C10.6659 15.0114 10.8323 15.2059 11.0498 15.2059H13.5094C13.8007 15.2059 14.048 14.9943 14.0938 14.7071L14.118 14.5821L14.5812 11.6434L14.6109 11.4822C14.6562 11.194 14.9041 10.9824 15.1953 10.9824H15.5632C17.946 10.9824 19.8115 10.0149 20.3567 7.21526C20.5845 6.04573 20.4665 5.06921 19.8639 4.3824C19.6815 4.1753 19.4553 4.00348 19.1907 3.8634Z" fill="#179BD7"/>
<path d="M18.5373 3.60361C18.4422 3.57589 18.3438 3.55069 18.243 3.52802C18.1418 3.50586 18.0379 3.4862 17.9312 3.46907C17.5572 3.4086 17.1476 3.37988 16.7087 3.37988H13.0042C12.9129 3.37988 12.8263 3.40054 12.7487 3.43783C12.5779 3.51996 12.4509 3.68171 12.4202 3.87973L11.632 8.87125L11.6094 9.01686C11.6613 8.68833 11.942 8.44646 12.275 8.44646H13.6617C16.3852 8.44646 18.5177 7.34043 19.141 4.14075C19.1596 4.04602 19.1753 3.95381 19.1893 3.86362C19.0317 3.77997 18.8608 3.70842 18.6769 3.64744C18.6316 3.63233 18.5848 3.61772 18.5373 3.60361Z" fill="#222D65"/>
<path d="M12.4224 3.87961C12.4532 3.68157 12.5802 3.51983 12.751 3.4382C12.8291 3.40091 12.9153 3.38025 13.0064 3.38025H16.7111C17.15 3.38025 17.5596 3.40897 17.9334 3.46944C18.0403 3.48657 18.1442 3.50622 18.2454 3.52839C18.3462 3.55107 18.4444 3.57627 18.5397 3.60397C18.587 3.61809 18.6338 3.63269 18.6797 3.64731C18.8636 3.70828 19.0345 3.78034 19.1921 3.86348C19.3777 2.68086 19.1907 1.87565 18.5513 1.14652C17.8464 0.343832 16.574 0.000183105 14.946 0.000183105H10.2194C9.88684 0.000183105 9.60327 0.242037 9.55177 0.57108L7.58318 13.0498C7.5443 13.2967 7.73475 13.5195 7.98366 13.5195H10.9017L11.6344 8.87111L12.4224 3.87961Z" fill="#253B80"/>
</svg>
