<svg xmlns="http://www.w3.org/2000/svg" xmlns:xlink="http://www.w3.org/1999/xlink" fill="none" version="1.1" width="24" height="24" viewBox="0 0 24 24"><g><g><path d="M16.553800000000003,21.75194140625C16.0948,21.75194140625,15.6328,21.68994140625,15.1768,21.56494140625C9.01182,19.87294140625,4.1308,14.99494140625,2.437804,8.833921406249999C2.052804,7.43292140625,2.263751,5.97292140625,3.033751,4.72492140625C3.80675,3.47092140625,5.0778099999999995,2.58591540625,6.52081,2.29791520625C7.48081,2.10591540625,8.42981,2.53392240625,8.91681,3.35492140625C8.91681,3.35492140625,10.4798,5.9949014062499995,10.4798,5.9949014062499995C11.2388,7.27690140625,10.86166,8.92791140625,9.62067,9.753911406250001C9.62067,9.753911406250001,8.48981,10.50592140625,8.48981,10.50592140625C9.54681,12.67594140625,11.32465,14.45894140625,13.4857,15.51494140625C13.4857,15.51494140625,14.2479,14.37794140625,14.2479,14.37794140625C15.0789,13.13894140625,16.729799999999997,12.76794140625,18.0108,13.53094140625C18.0108,13.53094140625,20.6539,15.10694140625,20.6539,15.10694140625C21.4719,15.59494140625,21.8948,16.54994140625,21.7088,17.48194140625C21.4208,18.92494140625,20.5358,20.19594140625,19.2828,20.96894140625C18.4408,21.48694140625,17.5038,21.75194140625,16.553800000000003,21.75194140625ZM6.9798,3.74991140625C6.9308,3.74991140625,6.88082,3.7549214062500003,6.83282,3.76492140625C5.77882,3.97592140625,4.86583,4.61090140625,4.3118300000000005,5.51190140625C3.76283,6.40190140625,3.6117999999999997,7.44091140625,3.8857999999999997,8.43591140625C5.4388000000000005,14.08894140625,9.91779,18.56594140625,15.5738,20.11794140625C16.5698,20.39094140625,17.6057,20.23894140625,18.4947,19.69094140625C19.3947,19.13594140625,20.0309,18.22194140625,20.2379,17.185941406250002C20.2999,16.874941406250002,20.1588,16.55594140625,19.8848,16.39294140625C19.8848,16.39294140625,17.2427,14.81694140625,17.2427,14.81694140625C16.6477,14.46294140625,15.8797,14.63594140625,15.4937,15.21094140625C15.4937,15.21094140625,14.3787,16.87594140625,14.3787,16.87594140625C14.1787,17.17394140625,13.7929,17.28794140625,13.4669,17.14994140625C10.50386,15.91094140625,8.092839999999999,13.49494140625,6.85284,10.52091140625C6.71484,10.18891140625,6.8307,9.80691140625,7.1297,9.60791140625C7.1297,9.60791140625,8.79083,8.50290140625,8.79083,8.50290140625C9.36683,8.119901406250001,9.54178,7.35290140625,9.188780000000001,6.75791140625C9.188780000000001,6.75791140625,7.62579,4.11890140625,7.62579,4.11890140625C7.48879,3.88690140625,7.2408,3.74991140625,6.9798,3.74991140625Z" fill="#25314C" fill-opacity="1"/></g></g></svg>