<svg xmlns="http://www.w3.org/2000/svg" xmlns:xlink="http://www.w3.org/1999/xlink" fill="none" version="1.1" width="17.40514373779297" height="16.472726821899414" viewBox="0 0 17.40514373779297 16.472726821899414"><g><path d="M8.70257,12.5617C8.70257,12.5617,12.484,11.6034,12.484,11.6034C12.484,11.6034,14.064,16.4727,14.064,16.4727C14.064,16.4727,8.70257,12.5617,8.70257,12.5617ZM17.4051,6.26792C17.4051,6.26792,10.7487,6.26792,10.7487,6.26792C10.7487,6.26792,8.70257,0,8.70257,0C8.70257,0,6.65643,6.26792,6.65643,6.26792C6.65643,6.26792,0,6.26792,0,6.26792C0,6.26792,5.38731,10.153,5.38731,10.153C5.38731,10.153,3.34116,16.4209,3.34116,16.4209C3.34116,16.4209,8.72847,12.5358,8.72847,12.5358C8.72847,12.5358,12.0437,10.153,12.0437,10.153C12.0437,10.153,17.4051,6.26792,17.4051,6.26792Z" fill="#219653" fill-opacity="1"/></g></svg>