<svg xmlns="http://www.w3.org/2000/svg" xmlns:xlink="http://www.w3.org/1999/xlink" fill="none" version="1.1" width="19.218181610107422" height="19.218181610107422" viewBox="0 0 19.218181610107422 19.218181610107422"><g><path d="M9.60909,14.6554C9.60909,14.6554,13.7845,13.5373,13.7845,13.5373C13.7845,13.5373,15.529,19.2182,15.529,19.2182C15.529,19.2182,9.60909,14.6554,9.60909,14.6554ZM19.2182,7.31258C19.2182,7.31258,11.8684,7.31258,11.8684,7.31258C11.8684,7.31258,9.60909,0,9.60909,0C9.60909,0,7.34981,7.31258,7.34981,7.31258C7.34981,7.31258,0,7.31258,0,7.31258C0,7.31258,5.94849,11.8452,5.94849,11.8452C5.94849,11.8452,3.6892,19.1577,3.6892,19.1577C3.6892,19.1577,9.63769,14.6252,9.63769,14.6252C9.63769,14.6252,13.2983,11.8452,13.2983,11.8452C13.2983,11.8452,19.2182,7.31258,19.2182,7.31258Z" fill="#FFFFFF" fill-opacity="1"/></g></svg>