<?xml version="1.0" encoding="UTF-8"?>
<svg version="1.1" xmlns="http://www.w3.org/2000/svg" width="25" height="25">
<path d="M0 0 C8.25 0 16.5 0 25 0 C25 8.25 25 16.5 25 25 C16.75 25 8.5 25 0 25 C0 16.75 0 8.5 0 0 Z " fill="#228F51" transform="translate(0,0)"/>
<path d="M0 0 C0.66 0 1.32 0 2 0 C2.33 1.98 2.66 3.96 3 6 C5.31 6 7.62 6 10 6 C8 8 6 10 4 12 C4.66 12.33 5.32 12.66 6 13 C6.625 15.5625 6.625 15.5625 7 18 C6.29875 17.46375 5.5975 16.9275 4.875 16.375 C2.00303974 14.62820892 2.00303974 14.62820892 -1.3125 15.8125 C-2.199375 16.204375 -3.08625 16.59625 -4 17 C-3.9175 15.9275 -3.835 14.855 -3.75 13.75 C-3.63762783 9.95990735 -3.63762783 9.95990735 -6 7.5625 C-6.66 7.046875 -7.32 6.53125 -8 6 C-5.69 6 -3.38 6 -1 6 C-0.67 4.02 -0.34 2.04 0 0 Z " fill="#E8F4ED" transform="translate(11,4)"/>
</svg>
