<svg width="60" height="24" viewBox="0 0 60 24" fill="none" xmlns="http://www.w3.org/2000/svg">
<path d="M58.6751 12.4016C58.6751 8.30041 56.6881 5.06326 52.8916 5.06326C49.0952 5.06326 46.7713 8.29934 46.7713 12.3696C46.7713 17.1916 49.4951 19.6277 53.4017 19.6277C55.3085 19.6277 56.7501 19.2 57.8398 18.5861V15.3779C56.7501 15.9222 55.501 16.2591 53.9151 16.2591C52.3612 16.2591 50.9827 15.7147 50.8073 13.824H58.6419C58.643 13.6186 58.6751 12.7856 58.6751 12.4016ZM50.7613 10.8799C50.7613 9.06932 51.8671 8.31324 52.8767 8.31324C53.8541 8.31324 54.8957 9.06183 54.8957 10.8799H50.7613ZM40.5868 5.06326C39.4181 5.05892 38.2929 5.5069 37.447 6.31342L37.2385 5.31992H33.7094V24.0006L37.7144 23.1515L37.7304 18.6171C38.3068 19.0342 39.156 19.6267 40.5665 19.6267C43.4347 19.6267 46.0462 17.3199 46.0462 12.2412C46.0334 7.59458 43.3898 5.06326 40.5868 5.06326ZM39.6244 16.1018C38.679 16.1018 38.1186 15.765 37.7336 15.3532L37.7176 9.4094C38.1347 8.94527 38.7111 8.62444 39.6244 8.62444C41.082 8.62444 42.0915 10.2585 42.0915 12.3578C42.0926 14.4999 41.098 16.1018 39.6244 16.1018ZM28.2018 4.11789L32.2229 3.25273V0.000610352L28.2018 0.849733V4.11789ZM28.2018 5.33596H32.2229V19.355H28.2018V5.33596ZM23.8921 6.52089L23.6333 5.33596H20.1748V19.354H24.1797V9.85321C25.1251 8.61909 26.7271 8.84367 27.2233 9.02013V5.33596C26.7121 5.14347 24.8374 4.79056 23.8921 6.52089ZM15.881 1.85927L11.9766 2.69663L11.9605 15.5297C11.9605 17.9006 13.739 19.647 16.1099 19.647C17.4231 19.647 18.3845 19.4064 18.9139 19.1187V15.8623C18.4017 16.0708 15.8703 16.8077 15.8703 14.4368V8.74849H18.9139V5.33596H15.865L15.881 1.85927ZM5.05097 9.40512C5.05097 8.78058 5.56323 8.53996 6.41235 8.53996C7.79827 8.56904 9.15843 8.92015 10.3853 9.56553V5.79795C9.12154 5.30019 7.77371 5.05074 6.41556 5.06326C3.16344 5.06326 1 6.7615 1 9.59762C1 14.0197 7.08823 13.3149 7.08823 15.2206C7.08823 15.9575 6.44657 16.1981 5.5504 16.1981C4.2211 16.1981 2.52179 15.6538 1.17645 14.9148V18.7283C2.55751 19.326 4.0456 19.6367 5.5504 19.6416C8.88272 19.6416 11.1734 17.9915 11.1734 15.1233C11.1552 10.3505 5.05097 11.1996 5.05097 9.40512Z" fill="#635BFF"/>
</svg>
