<svg xmlns="http://www.w3.org/2000/svg" xmlns:xlink="http://www.w3.org/1999/xlink" fill="none" version="1.1" width="40" height="40" viewBox="0 0 40 40"><g><g><g><g><path d="M28.190665077209474,11.809345077209473Q24.797965077209472,8.416665077209473,19.999965077209474,8.416665077209473Q15.202025077209473,8.416666077209472,11.809345077209473,11.809345077209473Q8.416665077209473,15.202025077209473,8.416666077209472,19.999965077209474Q8.416666077209472,24.797965077209472,11.809345077209473,28.190665077209474Q15.202025077209473,31.58336507720947,19.999965077209474,31.58336507720947Q24.797965077209472,31.58336507720947,28.190665077209474,28.190665077209474Q31.58336507720947,24.797965077209472,31.58336507720947,19.999965077209474Q31.58336507720947,15.202025077209473,28.190665077209474,11.809345077209473ZM12.870005077209473,12.870005077209473Q15.823345077209472,9.916665077209473,19.999965077209474,9.916666077209472Q24.17666507720947,9.916665077209473,27.129965077209473,12.870005077209473Q30.08336507720947,15.823345077209472,30.08336507720947,19.999965077209474Q30.08336507720947,24.17666507720947,27.129965077209473,27.129965077209473Q24.17666507720947,30.08336507720947,19.999965077209474,30.08336507720947Q15.823345077209472,30.08336507720947,12.870005077209473,27.129965077209473Q9.916665077209473,24.17666507720947,9.916666077209472,19.999965077209474Q9.916665077209473,15.823345077209472,12.870005077209473,12.870005077209473Z" fill-rule="evenodd" fill="#111111" fill-opacity="1"/></g><g><path d="M20.00003349227905,2.3333334922790527Q19.901533492279054,2.3333334922790527,19.80493349227905,2.3525484922790527Q19.708333492279053,2.3717634922790527,19.61733349227905,2.409454492279053Q19.526333492279054,2.447145492279053,19.444433492279053,2.501863492279053Q19.362533492279052,2.5565824922790528,19.292933492279055,2.6262264922790526Q19.223233492279054,2.695870492279053,19.168533492279053,2.777763492279053Q19.113833492279053,2.8596554922790527,19.076133492279055,2.9506504922790526Q19.038433492279054,3.041644492279053,19.019233492279053,3.1382434922790527Q19.00003349227905,3.234842092279053,19.00003349227905,3.3333334922790527L19.00003349227905,3.4666664922790527Q19.00003349227905,3.565158492279053,19.019233492279053,3.661757492279053Q19.038433492279054,3.758355492279053,19.076133492279055,3.8493504922790525Q19.113833492279053,3.9403444922790527,19.168533492279053,4.0222364922790526Q19.223233492279054,4.1041294922790525,19.292933492279055,4.173773492279053Q19.362533492279052,4.243417492279053,19.444433492279053,4.298136492279053Q19.526333492279054,4.352853492279053,19.61733349227905,4.390543492279052Q19.708333492279053,4.428233492279053,19.80493349227905,4.4474534922790525Q19.901533492279054,4.466663492279053,20.00003349227905,4.466663492279053Q20.098533492279053,4.466663492279053,20.19513349227905,4.4474534922790525Q20.291733492279054,4.428233492279053,20.38273349227905,4.390543492279052Q20.473633492279053,4.352853492279053,20.555533492279054,4.298136492279053Q20.63743349227905,4.243417492279053,20.707133492279052,4.173773492279053Q20.776733492279053,4.1041294922790525,20.831433492279054,4.0222364922790526Q20.886233492279054,3.9403444922790527,20.92383349227905,3.8493504922790525Q20.961533492279052,3.758355492279053,20.980833492279054,3.661757492279053Q21.00003349227905,3.565158492279053,21.00003349227905,3.4666664922790527L21.00003349227905,3.3333334922790527Q21.00003349227905,3.234842092279053,20.980833492279054,3.1382434922790527Q20.961533492279052,3.041644492279053,20.92383349227905,2.9506504922790526Q20.886233492279054,2.8596554922790527,20.831433492279054,2.777763492279053Q20.776733492279053,2.695870492279053,20.707133492279052,2.6262264922790526Q20.63743349227905,2.5565824922790528,20.555533492279054,2.501863492279053Q20.473633492279053,2.447145492279053,20.38273349227905,2.409454492279053Q20.291733492279054,2.3717634922790527,20.19513349227905,2.3525484922790527Q20.098533492279053,2.3333334922790527,20.00003349227905,2.3333334922790527ZM31.900033492279054,7.100003492279052Q31.70113349227905,7.100003492279052,31.517333492279054,7.176123492279053Q31.333533492279052,7.252243492279053,31.192933492279053,7.392893492279053L30.976233492279054,7.609563492279053Q30.906633492279052,7.679213492279053,30.851833492279052,7.7611034922790525Q30.797133492279052,7.842993492279053,30.759433492279054,7.933993492279053Q30.721733492279053,8.024983492279052,30.702533492279052,8.121583492279052Q30.683333492279054,8.218183492279053,30.683333492279054,8.316673492279053Q30.683333492279054,8.415163492279053,30.702533492279052,8.511763492279051Q30.721733492279053,8.608363492279054,30.759433492279054,8.699353492279052Q30.797133492279052,8.790353492279053,30.851833492279052,8.872243492279052Q30.906633492279052,8.954133492279052,30.976233492279054,9.023773492279052Q31.04583349227905,9.093423492279053,31.127733492279052,9.148143492279052Q31.209633492279053,9.202853492279052,31.300633492279054,9.240553492279052Q31.391633492279052,9.278243492279053,31.488233492279054,9.297453492279054Q31.584833492279053,9.316663492279051,31.683333492279054,9.316663492279051Q31.781833492279052,9.316663492279051,31.878433492279054,9.297453492279054Q31.975033492279053,9.278233492279053,32.066033492279054,9.240543492279052Q32.157033492279055,9.202853492279052,32.23893349227905,9.148133492279053Q32.32083349227905,9.093413492279053,32.39043349227905,9.023773492279052L32.607133492279054,8.807103492279053Q32.74773349227905,8.666453492279054,32.82393349227905,8.482683492279053Q32.90003349227905,8.298913492279052,32.90003349227905,8.099993492279053Q32.90003349227905,7.901083492279053,32.82383349227905,7.717313492279053Q32.74773349227905,7.533543492279053,32.607133492279054,7.392893492279053Q32.46643349227905,7.252243492279053,32.282633492279054,7.176123492279053Q32.09893349227905,7.100003492279052,31.900033492279054,7.100003492279052ZM7.392893492279053,7.392893492279053Q7.323253492279052,7.462533492279053,7.268533492279053,7.544433492279053Q7.213813492279053,7.626323492279052,7.176123492279053,7.717313492279053Q7.138433492279052,7.808313492279053,7.119213492279053,7.904913492279053Q7.100003492279052,8.001513492279052,7.100003492279052,8.100003492279054Q7.100003492279052,8.198493492279052,7.119213492279053,8.295093492279053Q7.138433492279052,8.391693492279053,7.176123492279053,8.482683492279053Q7.213813492279053,8.573683492279052,7.268533492279053,8.655573492279053Q7.323253492279052,8.737463492279053,7.392893492279053,8.807103492279053L7.609563492279053,9.023773492279052Q7.679203492279052,9.093413492279053,7.761093492279053,9.148133492279053Q7.842993492279053,9.202853492279052,7.933983492279053,9.240543492279052Q8.024973492279052,9.278233492279053,8.121573492279053,9.297453492279054Q8.218173492279053,9.316663492279051,8.316663492279051,9.316663492279051Q8.415163492279053,9.316663492279051,8.511753492279052,9.297453492279054Q8.608353492279052,9.278233492279053,8.699353492279052,9.240543492279052Q8.790343492279053,9.202853492279052,8.872233492279053,9.148133492279053Q8.954133492279052,9.093413492279053,9.023773492279052,9.023773492279052Q9.093413492279053,8.954133492279052,9.148133492279053,8.872233492279053Q9.202853492279052,8.790343492279053,9.240543492279052,8.699353492279052Q9.278233492279053,8.608353492279052,9.297453492279054,8.511753492279052Q9.316663492279051,8.415163492279053,9.316663492279051,8.316663492279051Q9.316663492279051,8.218173492279053,9.297453492279054,8.121573492279053Q9.278233492279053,8.024973492279052,9.240543492279052,7.933983492279053Q9.202853492279052,7.842993492279053,9.148133492279053,7.761093492279053Q9.093413492279053,7.679203492279052,9.023773492279052,7.609563492279053L8.807103492279053,7.392893492279053Q8.737463492279053,7.323253492279052,8.655573492279053,7.268533492279053Q8.573683492279052,7.213813492279053,8.482683492279053,7.176123492279053Q8.391693492279053,7.138433492279052,8.295093492279053,7.119213492279053Q8.198493492279052,7.100003492279052,8.100003492279054,7.100003492279052Q8.001513492279052,7.100003492279052,7.904913492279053,7.119213492279053Q7.808313492279053,7.138433492279052,7.717313492279053,7.176123492279053Q7.626323492279052,7.213813492279053,7.544433492279053,7.268533492279053Q7.462533492279053,7.323253492279052,7.392893492279053,7.392893492279053ZM2.3333334922790527,20.00003349227905Q2.3333334922790527,20.098533492279053,2.3525484922790527,20.19513349227905Q2.3717634922790527,20.291733492279054,2.409454492279053,20.38273349227905Q2.447145492279053,20.473633492279053,2.501863492279053,20.555533492279054Q2.5565824922790528,20.63743349227905,2.6262264922790526,20.707133492279052Q2.695870492279053,20.776733492279053,2.777763492279053,20.831433492279054Q2.8596554922790527,20.886233492279054,2.9506504922790526,20.92383349227905Q3.041644492279053,20.961533492279052,3.1382434922790527,20.980833492279054Q3.234842092279053,21.00003349227905,3.3333334922790527,21.00003349227905L3.4666664922790527,21.00003349227905Q3.565158492279053,21.00003349227905,3.661757492279053,20.980833492279054Q3.758355492279053,20.961533492279052,3.8493504922790525,20.92383349227905Q3.9403444922790527,20.886233492279054,4.0222364922790526,20.831433492279054Q4.1041294922790525,20.776733492279053,4.173773492279053,20.707133492279052Q4.243417492279053,20.63743349227905,4.298136492279053,20.555533492279054Q4.352853492279053,20.473633492279053,4.390543492279052,20.38273349227905Q4.428233492279053,20.291733492279054,4.4474534922790525,20.19513349227905Q4.466663492279053,20.098533492279053,4.466663492279053,20.00003349227905Q4.466663492279053,19.901533492279054,4.4474534922790525,19.80493349227905Q4.428233492279053,19.708333492279053,4.390543492279052,19.61733349227905Q4.352853492279053,19.526333492279054,4.298136492279053,19.444433492279053Q4.243417492279053,19.362533492279052,4.173773492279053,19.292933492279055Q4.1041294922790525,19.223233492279054,4.0222364922790526,19.168533492279053Q3.9403444922790527,19.113833492279053,3.8493504922790525,19.076133492279055Q3.758355492279053,19.038433492279054,3.661757492279053,19.019233492279053Q3.565158492279053,19.00003349227905,3.4666664922790527,19.00003349227905L3.3333334922790527,19.00003349227905Q3.234842092279053,19.00003349227905,3.1382434922790527,19.019233492279053Q3.041644492279053,19.038433492279054,2.9506504922790526,19.076133492279055Q2.8596554922790527,19.113833492279053,2.777763492279053,19.168533492279053Q2.695870492279053,19.223233492279054,2.6262264922790526,19.292933492279055Q2.5565824922790528,19.362533492279052,2.501863492279053,19.444433492279053Q2.447145492279053,19.526333492279054,2.409454492279053,19.61733349227905Q2.3717634922790527,19.708333492279053,2.3525484922790527,19.80493349227905Q2.3333334922790527,19.901533492279054,2.3333334922790527,20.00003349227905ZM35.533333492279056,20.00003349227905Q35.533333492279056,20.098533492279053,35.55253349227905,20.19513349227905Q35.57173349227905,20.291733492279054,35.60943349227905,20.38273349227905Q35.64713349227905,20.473633492279053,35.70183349227905,20.555533492279054Q35.75663349227905,20.63743349227905,35.82623349227905,20.707133492279052Q35.89583349227905,20.776733492279053,35.97773349227905,20.831433492279054Q36.059633492279055,20.886233492279054,36.150633492279056,20.92383349227905Q36.24163349227905,20.961533492279052,36.33823349227905,20.980833492279054Q36.434833492279054,21.00003349227905,36.533333492279056,21.00003349227905L36.666633492279054,21.00003349227905Q36.765133492279055,21.00003349227905,36.86173349227905,20.980833492279054Q36.95833349227905,20.961533492279052,37.049333492279054,20.92383349227905Q37.140333492279055,20.886233492279054,37.22223349227905,20.831433492279054Q37.30413349227905,20.776733492279053,37.37373349227905,20.707133492279052Q37.443433492279055,20.63743349227905,37.49813349227905,20.555533492279054Q37.55283349227905,20.473633492279053,37.59053349227905,20.38273349227905Q37.62823349227905,20.291733492279054,37.647433492279056,20.19513349227905Q37.666633492279054,20.098533492279053,37.666633492279054,20.00003349227905Q37.666633492279054,19.901533492279054,37.647433492279056,19.80493349227905Q37.62823349227905,19.708333492279053,37.59053349227905,19.61733349227905Q37.55283349227905,19.526333492279054,37.49813349227905,19.444433492279053Q37.443433492279055,19.362533492279052,37.37373349227905,19.292933492279055Q37.30413349227905,19.223233492279054,37.22223349227905,19.168533492279053Q37.140333492279055,19.113833492279053,37.049333492279054,19.076133492279055Q36.95833349227905,19.038433492279054,36.86173349227905,19.019233492279053Q36.765133492279055,19.00003349227905,36.666633492279054,19.00003349227905L36.533333492279056,19.00003349227905Q36.434833492279054,19.00003349227905,36.33823349227905,19.019233492279053Q36.24163349227905,19.038433492279054,36.150633492279056,19.076133492279055Q36.059633492279055,19.113833492279053,35.97773349227905,19.168533492279053Q35.89583349227905,19.223233492279054,35.82623349227905,19.292933492279055Q35.75663349227905,19.362533492279052,35.70183349227905,19.444433492279053Q35.64713349227905,19.526333492279054,35.60943349227905,19.61733349227905Q35.57173349227905,19.708333492279053,35.55253349227905,19.80493349227905Q35.533333492279056,19.901533492279054,35.533333492279056,20.00003349227905ZM32.39043349227905,30.976233492279054L32.607133492279054,31.192933492279053Q32.74773349227905,31.333533492279052,32.82393349227905,31.517333492279054Q32.90003349227905,31.70113349227905,32.90003349227905,31.900033492279054Q32.90003349227905,31.99853349227905,32.88083349227905,32.095133492279054Q32.86153349227905,32.191733492279056,32.82383349227905,32.28273349227905Q32.78623349227905,32.373633492279055,32.73143349227905,32.45553349227905Q32.676733492279055,32.53743349227905,32.607133492279054,32.607133492279054Q32.53743349227905,32.676733492279055,32.45553349227905,32.73143349227905Q32.373633492279055,32.78623349227905,32.28273349227905,32.82383349227905Q32.191733492279056,32.86153349227905,32.095133492279054,32.88083349227905Q31.99853349227905,32.90003349227905,31.900033492279054,32.90003349227905Q31.70113349227905,32.90003349227905,31.517333492279054,32.82393349227905Q31.333533492279052,32.74773349227905,31.192933492279053,32.607133492279054L30.976233492279054,32.39043349227905Q30.83553349227905,32.24983349227905,30.759433492279054,32.066033492279054Q30.683333492279054,31.882233492279052,30.683333492279054,31.683333492279054Q30.683333492279054,31.584833492279053,30.702533492279052,31.488233492279054Q30.721733492279053,31.391633492279052,30.759433492279054,31.300633492279054Q30.797133492279052,31.209633492279053,30.851833492279052,31.127733492279052Q30.906633492279052,31.04583349227905,30.976233492279054,30.976233492279054Q31.04583349227905,30.906633492279052,31.127733492279052,30.851833492279052Q31.209633492279053,30.797133492279052,31.300633492279054,30.759433492279054Q31.391633492279052,30.721733492279053,31.488233492279054,30.702533492279052Q31.584833492279053,30.683333492279054,31.683333492279054,30.683333492279054Q31.882233492279052,30.683333492279054,32.066033492279054,30.759433492279054Q32.24983349227905,30.83553349227905,32.39043349227905,30.976233492279054ZM9.023773492279052,30.976233492279054Q8.954133492279052,30.906633492279052,8.872243492279052,30.851833492279052Q8.790353492279053,30.797133492279052,8.699353492279052,30.759433492279054Q8.608363492279054,30.721733492279053,8.511763492279051,30.702533492279052Q8.415163492279053,30.683333492279054,8.316673492279053,30.683333492279054Q8.218183492279053,30.683333492279054,8.121583492279052,30.702533492279052Q8.024983492279052,30.721733492279053,7.933993492279053,30.759433492279054Q7.842993492279053,30.797133492279052,7.7611034922790525,30.851833492279052Q7.679213492279053,30.906633492279052,7.609563492279053,30.976233492279054L7.392893492279053,31.192933492279053Q7.252243492279053,31.333533492279052,7.176123492279053,31.517333492279054Q7.100003492279052,31.70113349227905,7.100003492279052,31.900033492279054Q7.100003492279052,32.09893349227905,7.176123492279053,32.28273349227905Q7.252243492279053,32.46643349227905,7.392893492279053,32.607133492279054Q7.533543492279053,32.74773349227905,7.717313492279053,32.82383349227905Q7.901083492279053,32.90003349227905,8.099993492279053,32.90003349227905Q8.298913492279052,32.90003349227905,8.482683492279053,32.82393349227905Q8.666453492279054,32.74773349227905,8.807103492279053,32.607133492279054L9.023773492279052,32.39043349227905Q9.093413492279053,32.32083349227905,9.148133492279053,32.23893349227905Q9.202853492279052,32.157033492279055,9.240543492279052,32.066033492279054Q9.278233492279053,31.975033492279053,9.297453492279054,31.878433492279054Q9.316663492279051,31.781833492279052,9.316663492279051,31.683333492279054Q9.316663492279051,31.584833492279053,9.297453492279054,31.488233492279054Q9.278243492279053,31.391633492279052,9.240553492279052,31.300633492279054Q9.202853492279052,31.209633492279053,9.148143492279052,31.127733492279052Q9.093423492279053,31.04583349227905,9.023773492279052,30.976233492279054ZM20.00003349227905,35.533333492279056Q19.901533492279054,35.533333492279056,19.80493349227905,35.55253349227905Q19.708333492279053,35.57173349227905,19.61733349227905,35.60943349227905Q19.526333492279054,35.64713349227905,19.444433492279053,35.70183349227905Q19.362533492279052,35.75663349227905,19.292933492279055,35.82623349227905Q19.223233492279054,35.89583349227905,19.168533492279053,35.97773349227905Q19.113833492279053,36.059633492279055,19.076133492279055,36.150633492279056Q19.038433492279054,36.24163349227905,19.019233492279053,36.33823349227905Q19.00003349227905,36.434833492279054,19.00003349227905,36.533333492279056L19.00003349227905,36.666633492279054Q19.00003349227905,36.765133492279055,19.019233492279053,36.86173349227905Q19.038433492279054,36.95833349227905,19.076133492279055,37.049333492279054Q19.113833492279053,37.140333492279055,19.168533492279053,37.22223349227905Q19.223233492279054,37.30413349227905,19.292933492279055,37.37373349227905Q19.362533492279052,37.443433492279055,19.444433492279053,37.49813349227905Q19.526333492279054,37.55283349227905,19.61733349227905,37.59053349227905Q19.708333492279053,37.62823349227905,19.80493349227905,37.647433492279056Q19.901533492279054,37.666633492279054,20.00003349227905,37.666633492279054Q20.098533492279053,37.666633492279054,20.19513349227905,37.647433492279056Q20.291733492279054,37.62823349227905,20.38273349227905,37.59053349227905Q20.473633492279053,37.55283349227905,20.555533492279054,37.49813349227905Q20.63743349227905,37.443433492279055,20.707133492279052,37.37373349227905Q20.776733492279053,37.30413349227905,20.831433492279054,37.22223349227905Q20.886233492279054,37.140333492279055,20.92383349227905,37.049333492279054Q20.961533492279052,36.95833349227905,20.980833492279054,36.86173349227905Q21.00003349227905,36.765133492279055,21.00003349227905,36.666633492279054L21.00003349227905,36.533333492279056Q21.00003349227905,36.434833492279054,20.980833492279054,36.33823349227905Q20.961533492279052,36.24163349227905,20.92383349227905,36.150633492279056Q20.886233492279054,36.059633492279055,20.831433492279054,35.97773349227905Q20.776733492279053,35.89583349227905,20.707133492279052,35.82623349227905Q20.63743349227905,35.75663349227905,20.555533492279054,35.70183349227905Q20.473633492279053,35.64713349227905,20.38273349227905,35.60943349227905Q20.291733492279054,35.57173349227905,20.19513349227905,35.55253349227905Q20.098533492279053,35.533333492279056,20.00003349227905,35.533333492279056Z" fill-rule="evenodd" fill="#111111" fill-opacity="1"/></g><g transform="matrix(-1,-1.2246469849340659e-16,1.2246469849340659e-16,-1,80,80)" style="opacity:0;"></g></g></g></g></svg>