<svg xmlns="http://www.w3.org/2000/svg" xmlns:xlink="http://www.w3.org/1999/xlink" fill="none" version="1.1" width="32" height="32" viewBox="0 0 32 32"><defs><clipPath id="master_svg0_0_22645"><rect x="0" y="0" width="32" height="32" rx="0"/></clipPath></defs><g clip-path="url(#master_svg0_0_22645)"><g><g><path d="M28,16Q28,16.294600000000003,27.9855,16.5888Q27.9711,16.883,27.9422,17.1762Q27.9133,17.4694,27.8701,17.7608Q27.8269,18.0522,27.7694,18.3411Q27.712,18.630000000000003,27.6404,18.9158Q27.5688,19.2015,27.4833,19.4834Q27.3978,19.7653,27.2985,20.0427Q27.1993,20.32,27.0866,20.5922Q26.9738,20.8644,26.8479,21.1307Q26.7219,21.397,26.5831,21.6568Q26.4442,21.9166,26.2927,22.1692Q26.1413,22.4219,25.9776,22.6668Q25.814,22.9118,25.6385,23.1484Q25.463,23.385,25.2761,23.6127Q25.0892,23.8404,24.8914,24.0587Q24.6936,24.277,24.4853,24.4853Q24.277,24.6936,24.0587,24.8914Q23.8404,25.0892,23.6127,25.2761Q23.385,25.463,23.1484,25.6385Q22.9118,25.814,22.6668,25.9776Q22.4219,26.1413,22.1692,26.2927Q21.9166,26.4442,21.6568,26.5831Q21.397,26.7219,21.1307,26.8479Q20.8644,26.9738,20.5922,27.0866Q20.32,27.1993,20.0427,27.2985Q19.7653,27.3978,19.4834,27.4833Q19.2015,27.5688,18.9158,27.6404Q18.630000000000003,27.712,18.3411,27.7694Q18.0522,27.8269,17.7608,27.8701Q17.4694,27.9133,17.1762,27.9422Q16.883,27.9711,16.5888,27.9855Q16.294600000000003,28,16,28Q15.7054,28,15.4112,27.9855Q15.117,27.9711,14.8238,27.9422Q14.5306,27.9133,14.2392,27.8701Q13.94784,27.8269,13.65892,27.7694Q13.36999,27.712,13.08424,27.6404Q12.79848,27.5688,12.51658,27.4833Q12.23468,27.3978,11.95732,27.2985Q11.679960000000001,27.1993,11.4078,27.0866Q11.13564,26.9738,10.869340000000001,26.8479Q10.60304,26.7219,10.34324,26.5831Q10.08344,26.4442,9.830770000000001,26.2927Q9.57809,26.1413,9.33316,25.9776Q9.08822,25.814,8.85161,25.6385Q8.615,25.463,8.38728,25.2761Q8.159559999999999,25.0892,7.94129,24.8914Q7.72302,24.6936,7.5147200000000005,24.4853Q7.30642,24.277,7.1085899999999995,24.0587Q6.91076,23.8404,6.72387,23.6127Q6.536989999999999,23.385,6.36151,23.1484Q6.186030000000001,22.9118,6.02236,22.6668Q5.8587,22.4219,5.70726,22.1692Q5.55581,21.9166,5.41694,21.6568Q5.27808,21.397,5.15213,21.1307Q5.02618,20.8644,4.913446,20.5922Q4.800713,20.32,4.701471,20.0427Q4.602229,19.7653,4.516716,19.4834Q4.431203,19.2015,4.359625,18.9158Q4.288047,18.630000000000003,4.230577,18.3411Q4.173106,18.0522,4.129882,17.7608Q4.0866575,17.4694,4.0577833,17.1762Q4.028909,16.883,4.0144545,16.5888Q4,16.294600000000003,4,16Q4,15.7054,4.0144545,15.4112Q4.028909,15.117,4.0577833,14.8238Q4.0866575,14.5306,4.129882,14.2392Q4.173106,13.94784,4.230577,13.65892Q4.288047,13.36999,4.359625,13.08424Q4.431203,12.79848,4.516716,12.51658Q4.602229,12.23468,4.701471,11.95732Q4.800713,11.679960000000001,4.913446,11.4078Q5.02618,11.13564,5.15213,10.869340000000001Q5.27808,10.60304,5.41694,10.34324Q5.55581,10.08344,5.70726,9.830770000000001Q5.8587,9.57809,6.02236,9.33316Q6.186030000000001,9.08822,6.36151,8.85161Q6.536989999999999,8.615,6.72387,8.38728Q6.91076,8.159559999999999,7.1085899999999995,7.94129Q7.30642,7.72302,7.5147200000000005,7.5147200000000005Q7.72302,7.30642,7.94129,7.1085899999999995Q8.159559999999999,6.91076,8.38728,6.72387Q8.615,6.536989999999999,8.85161,6.36151Q9.08822,6.186030000000001,9.33316,6.02236Q9.57809,5.8587,9.830770000000001,5.70726Q10.08344,5.55581,10.34324,5.41694Q10.60304,5.27808,10.869340000000001,5.15213Q11.13564,5.02618,11.4078,4.913446Q11.679960000000001,4.800713,11.95732,4.701471Q12.23468,4.602229,12.51658,4.516716Q12.79848,4.431203,13.08424,4.359625Q13.36999,4.288047,13.65892,4.230577Q13.94784,4.173106,14.2392,4.129882Q14.5306,4.0866575,14.8238,4.0577833Q15.117,4.028909,15.4112,4.0144545Q15.7054,4,16,4Q16.294600000000003,4,16.5888,4.0144545Q16.883,4.028909,17.1762,4.0577833Q17.4694,4.0866575,17.7608,4.129882Q18.0522,4.173106,18.3411,4.230577Q18.630000000000003,4.288047,18.9158,4.359625Q19.2015,4.431203,19.4834,4.516716Q19.7653,4.602229,20.0427,4.701471Q20.32,4.800713,20.5922,4.913446Q20.8644,5.02618,21.1307,5.15213Q21.397,5.27808,21.6568,5.41694Q21.9166,5.55581,22.1692,5.70726Q22.4219,5.8587,22.6668,6.02236Q22.9118,6.186030000000001,23.1484,6.36151Q23.385,6.536989999999999,23.6127,6.72387Q23.8404,6.91076,24.0587,7.1085899999999995Q24.277,7.30642,24.4853,7.5147200000000005Q24.6936,7.72302,24.8914,7.94129Q25.0892,8.159559999999999,25.2761,8.38728Q25.463,8.615,25.6385,8.85161Q25.814,9.08822,25.9776,9.33316Q26.1413,9.57809,26.2927,9.830770000000001Q26.4442,10.08344,26.5831,10.34324Q26.7219,10.60304,26.8479,10.869340000000001Q26.9738,11.13564,27.0866,11.4078Q27.1993,11.679960000000001,27.2985,11.95732Q27.3978,12.23468,27.4833,12.51658Q27.5688,12.79848,27.6404,13.08424Q27.712,13.36999,27.7694,13.65892Q27.8269,13.94784,27.8701,14.2392Q27.9133,14.5306,27.9422,14.8238Q27.9711,15.117,27.9855,15.4112Q28,15.7054,28,16Z" fill="#000000" fill-opacity="1"/></g><g><path d="M16.1409025,25.1094029296875C16.1409025,25.1094029296875,16.1356525,25.1094029296875,16.1356525,25.1094029296875C13.4174225,25.0909029296875,11.3276925,24.1947029296875,9.9236425,22.4449029296875C8.6737655,20.8879029296875,8.0294688,18.7215029296875,8.0078125,16.0065229296875C8.0078125,16.0065229296875,8.0078125,15.9933429296875,8.0078125,15.9933429296875C8.0294688,13.277732929687499,8.6737655,11.1119229296875,9.9236425,9.5549729296875C11.3270325,7.8051279296875,13.4174225,6.9088779296875,16.1350025,6.8905029296875C16.1350025,6.8905029296875,16.1455025,6.8905029296875,16.1455025,6.8905029296875C18.2293125,6.9042842296875,19.9725125,7.4402999296875,21.3274125,8.4822329296875C22.6009125,9.4618329296875,23.4971125,10.8580029296875,23.9918125,12.632782929687501C23.9918125,12.632782929687501,22.4434125,13.0645029296875,22.4434125,13.0645029296875C21.6056125,10.058882929687499,19.4851125,8.5222729296875,16.1402025,8.4979829296875C13.931732499999999,8.5137329296875,12.2619525,9.2079129296875,11.1760925,10.5608129296875C10.1591425,11.827752929687499,9.6335825,13.6576629296875,9.6145425,15.9993029296875C9.6342325,18.3416029296875,10.1597525,20.1715029296875,11.1760925,21.4378029296875C12.2619525,22.790702929687498,13.931732499999999,23.4848029296875,16.1402025,23.5006029296875C18.130812499999998,23.4861029296875,19.4483125,23.0223029296875,20.5440125,21.9489029296875C21.7945125,20.723902929687497,21.7716125,19.2214029296875,21.371312500000002,18.3075029296875C21.1358125,17.7688029296875,20.708012500000002,17.3200029296875,20.1313125,16.9802029296875C19.9863125,18.0050029296875,19.6602125,18.8370029296875,19.1563125,19.4636029296875C18.4845125,20.300102929687498,17.5318325,20.7574029296875,16.3258725,20.8224029296875C15.4132225,20.8715029296875,14.5340325,20.6558029296875,13.8516725,20.214202929687502C13.0446725,19.6919029296875,12.5722625,18.892702929687502,12.521732499999999,17.9637029296875C12.4725125,17.060302929687502,12.8307825,16.2295929296875,13.5301525,15.6246329296875C14.1987325,15.0466129296875,15.1389525,14.7074229296875,16.2497525,14.6450829296875C17.0685625,14.599142929687499,17.8342225,14.6352329296875,18.542212499999998,14.753362929687501C18.4483125,14.1897829296875,18.2581125,13.7429729296875,17.974652499999998,13.4201429296875C17.584892500000002,12.9759529296875,16.9819325,12.7489429296875,16.1834725,12.7436929296875C16.1834725,12.7436929296875,16.1611525,12.7436929296875,16.1611525,12.7436929296875C15.5201425,12.7436929296875,14.649482500000001,12.9195229296875,14.0943925,13.7448929296875C14.0943925,13.7448929296875,12.7605125,12.8479829296875,12.7605125,12.8479829296875C13.5032525,11.7437529296875,14.7098125,11.1362029296875,16.160452499999998,11.1362029296875C16.160452499999998,11.1362029296875,16.1932625,11.1362029296875,16.1932625,11.1362029296875C18.6189125,11.1513029296875,20.0630125,12.634752929687501,20.206712500000002,15.2257229296875C20.2893125,15.2605529296875,20.370112499999998,15.2965529296875,20.4501125,15.3340029296875C21.5819125,15.8661329296875,22.4093125,16.6718629296875,22.8436125,17.663902929687502C23.4486125,19.046902929687498,23.504312499999997,21.3007029296875,21.6679125,23.0984029296875C20.2651125,24.4722029296875,18.561812500000002,25.0923029296875,16.1454025,25.1087029296875C16.1454025,25.1087029296875,16.1401525,25.1087029296875,16.1401525,25.1087029296875C16.1401525,25.1087029296875,16.1408125,25.1094029296875,16.1408125,25.1094029296875C16.1408125,25.1094029296875,16.1409025,25.1094029296875,16.1409025,25.1094029296875ZM16.902012499999998,16.2341429296875C16.7183125,16.2341429296875,16.5319425,16.2393929296875,16.3416725,16.2505529296875C14.9474725,16.3293029296875,14.078782499999999,16.967702929687498,14.128002500000001,17.8770029296875C14.1798425,18.8297029296875,15.2309225,19.272502929687498,16.2406525,19.2181029296875C17.1703325,19.1682029296875,18.380312500000002,18.8067029296875,18.5829125,16.4013929296875C18.069812499999998,16.2918929296875,17.5056725,16.2340929296875,16.902012499999998,16.2340929296875C16.902012499999998,16.2340929296875,16.902012499999998,16.2341429296875,16.902012499999998,16.2341429296875Z" fill="#FFFFFF" fill-opacity="1"/></g></g></g></svg>