<svg xmlns="http://www.w3.org/2000/svg" xmlns:xlink="http://www.w3.org/1999/xlink" fill="none" version="1.1" width="32" height="32" viewBox="0 0 32 32"><defs><clipPath id="master_svg0_0_22641"><rect x="0" y="0" width="32" height="32" rx="0"/></clipPath></defs><g clip-path="url(#master_svg0_0_22641)"><g><g><path d="M16.80344625,15.590085546874999C16.80344625,15.590085546874999,22.20435625,23.315235546875,22.20435625,23.315235546875C22.20435625,23.315235546875,19.98775625,23.315235546875,19.98775625,23.315235546875C19.98775625,23.315235546875,15.58055625,17.011505546875,15.58055625,17.011505546875C15.58055625,17.011505546875,15.58055625,17.011115546875,15.58055625,17.011115546875C15.58055625,17.011115546875,14.93351625,16.085735546875,14.93351625,16.085735546875C14.93351625,16.085735546875,9.78515625,8.721435546875,9.78515625,8.721435546875C9.78515625,8.721435546875,12.00168625,8.721435546875,12.00168625,8.721435546875C12.00168625,8.721435546875,16.15640625,14.664715546875,16.15640625,14.664715546875C16.15640625,14.664715546875,16.80344625,15.590085546874999,16.80344625,15.590085546874999Z" fill="#000000" fill-opacity="1"/></g><g><path d="M25.4067,4C25.4067,4,6.593249999999999,4,6.593249999999999,4C5.16108,4,4,5.16108,4,6.593249999999999C4,6.593249999999999,4,25.4067,4,25.4067C4,26.8389,5.16108,28,6.593249999999999,28C6.593249999999999,28,25.4067,28,25.4067,28C26.8389,28,28,26.8389,28,25.4067C28,25.4067,28,6.593249999999999,28,6.593249999999999C28,5.16108,26.8389,4,25.4067,4ZM19.308,24.3525C19.308,24.3525,14.8481,17.8617,14.8481,17.8617C14.8481,17.8617,9.26435,24.3525,9.26435,24.3525C9.26435,24.3525,7.82122,24.3525,7.82122,24.3525C7.82122,24.3525,14.2073,16.9295,14.2073,16.9295C14.2073,16.9295,7.82122,7.63521,7.82122,7.63521C7.82122,7.63521,12.69203,7.63521,12.69203,7.63521C12.69203,7.63521,16.9152,13.78152,16.9152,13.78152C16.9152,13.78152,22.2026,7.63521,22.2026,7.63521C22.2026,7.63521,23.6458,7.63521,23.6458,7.63521C23.6458,7.63521,17.5562,14.7139,17.5562,14.7139C17.5562,14.7139,17.555799999999998,14.7139,17.555799999999998,14.7139C17.555799999999998,14.7139,24.1788,24.3525,24.1788,24.3525C24.1788,24.3525,19.308,24.3525,19.308,24.3525Z" fill="#000000" fill-opacity="1"/></g></g></g></svg>