<svg xmlns="http://www.w3.org/2000/svg" xmlns:xlink="http://www.w3.org/1999/xlink" fill="none" version="1.1" width="32" height="32" viewBox="0 0 32 32"><g><g><path d="M2.244506,9.94111C2.373037,7.96233,3.96395,6.411566,5.94447,6.313446C8.81239,6.171362,12.9115,6,16,6C19.0885,6,23.1876,6.171362,26.0555,6.313446C28.0361,6.411566,29.627,7.96233,29.7555,9.94111C29.8786,11.836929999999999,30,14.16966,30,16C30,17.8303,29.8786,20.1631,29.7555,22.0589C29.627,24.0377,28.0361,25.5884,26.0555,25.6866C23.1876,25.8286,19.0885,26,16,26C12.9115,26,8.81239,25.8286,5.94447,25.6866C3.96395,25.5884,2.373037,24.0377,2.244506,22.0589C2.121364,20.1631,2,17.8303,2,16C2,14.16966,2.121364,11.836929999999999,2.244506,9.94111Z" fill="#FC0D1B" fill-opacity="1"/></g><g><path d="M13,20C13,20,13,12,13,12C13,12,21,16,21,16C21,16,13,20,13,20Z" fill="#FFFFFF" fill-opacity="1"/></g></g></svg>