<svg width="20" height="21" viewBox="0 0 20 21" fill="none" xmlns="http://www.w3.org/2000/svg">
<path d="M8.87871 12.37C8.68671 12.37 8.49492 12.297 8.34892 12.15C6.69492 10.495 6.4948 7.93199 7.8748 6.05499C7.9788 5.89399 8.14195 5.69699 8.34795 5.48999L11.7078 2.129C12.5978 1.239 13.7799 0.748993 15.0379 0.748993C16.2949 0.748993 17.4767 1.23899 18.3667 2.12799C20.2027 3.96499 20.2027 6.952 18.3667 8.789L16.5269 10.629C16.2339 10.922 15.7589 10.922 15.4659 10.629C15.1729 10.336 15.1729 9.86099 15.4659 9.56799L17.3057 7.728C18.5567 6.477 18.5567 4.43999 17.3057 3.18799C16.0917 1.97499 13.9799 1.97599 12.7679 3.18799L9.40874 6.548C9.27774 6.68 9.17971 6.79701 9.10771 6.90601C8.14571 8.21701 8.28274 9.96101 9.40874 11.087C9.70174 11.38 9.70174 11.855 9.40874 12.148C9.26274 12.297 9.06971 12.37 8.87871 12.37ZM4.95976 20.25C3.70276 20.25 2.52091 19.76 1.63091 18.871C-0.205094 17.034 -0.205094 14.047 1.63091 12.21L3.47075 10.37C3.76375 10.077 4.23879 10.077 4.53179 10.37C4.82479 10.663 4.82479 11.138 4.53179 11.431L2.69194 13.271C1.44094 14.522 1.44094 16.559 2.69194 17.811C3.90594 19.024 6.01778 19.023 7.22978 17.811L10.5889 14.451C10.9349 14.105 11.1929 13.694 11.3379 13.263C11.7639 12.076 11.4749 10.798 10.5889 9.91101C10.2959 9.61801 10.2959 9.14301 10.5889 8.85001C10.8829 8.55701 11.3577 8.55801 11.6497 8.85001C12.9307 10.132 13.3649 12.057 12.7549 13.754C12.5429 14.389 12.1577 15.002 11.6497 15.511L8.29082 18.871C7.39982 19.76 6.21776 20.25 4.95976 20.25Z" fill="#2D5B78"/>
</svg>
