<svg width="19" height="21" viewBox="0 0 19 21" fill="none" xmlns="http://www.w3.org/2000/svg">
<path d="M8.00513 9.25C10.3491 9.25 12.2551 7.343 12.2551 5C12.2551 2.657 10.3491 0.75 8.00513 0.75C5.66113 0.75 3.75513 2.657 3.75513 5C3.75513 7.343 5.66113 9.25 8.00513 9.25ZM8.00513 2.25C9.52213 2.25 10.7551 3.483 10.7551 5C10.7551 6.517 9.52213 7.75 8.00513 7.75C6.48813 7.75 5.25513 6.517 5.25513 5C5.25513 3.483 6.48813 2.25 8.00513 2.25ZM1.74609 16.52C1.74609 18.083 2.41909 18.75 3.99609 18.75H10.9961C11.4101 18.75 11.7461 19.086 11.7461 19.5C11.7461 19.914 11.4101 20.25 10.9961 20.25H3.99609C1.57809 20.25 0.246094 18.925 0.246094 16.52C0.246094 13.858 1.75209 10.75 5.99609 10.75H9.99609C11.5051 10.75 12.7591 11.142 13.7251 11.915C14.0481 12.174 14.101 12.645 13.842 12.969C13.583 13.293 13.1111 13.3441 12.7871 13.0861C12.0951 12.5321 11.1551 12.251 9.99609 12.251H5.99609C2.05309 12.25 1.74609 15.519 1.74609 16.52ZM18.7461 17.5C18.7461 17.914 18.4101 18.25 17.9961 18.25H16.7461V19.5C16.7461 19.914 16.4101 20.25 15.9961 20.25C15.5821 20.25 15.2461 19.914 15.2461 19.5V18.25H13.9961C13.5821 18.25 13.2461 17.914 13.2461 17.5C13.2461 17.086 13.5821 16.75 13.9961 16.75H15.2461V15.5C15.2461 15.086 15.5821 14.75 15.9961 14.75C16.4101 14.75 16.7461 15.086 16.7461 15.5V16.75H17.9961C18.4101 16.75 18.7461 17.086 18.7461 17.5Z" fill="#999999"/>
</svg>
