<svg width="358" height="499" viewBox="0 0 358 499" fill="none" xmlns="http://www.w3.org/2000/svg">
<g filter="url(#filter0_f_898_49170)">
<path d="M64.0853 387.918C83.3849 419.81 245.057 411.194 305.551 381.572C366.044 351.95 361.248 141.816 332.45 103.902C303.651 65.9654 133.522 3.06175 58.6174 44.2178C-16.2873 85.3738 38.3911 345.488 64.0621 387.918H64.0853Z" fill="#D3EBF3"/>
</g>
<path d="M267.693 31.1786C267.855 15.6148 312.455 -3.88629 332.635 1.37112C352.838 6.62854 355.943 76.1792 325.221 78.4721C294.499 80.765 267.484 50.5638 267.693 31.1554V31.1786Z" fill="#D3EBF3"/>
<path d="M0.441426 371.127C-3.35826 354.66 18.7448 333.399 30.3987 336.433C42.0526 339.467 55.2357 394.357 37.5115 395.677C19.7642 396.997 2.96683 382.036 0.464595 371.127H0.441426Z" fill="#D3EBF3"/>
<path style="mix-blend-mode:multiply" opacity="0.5" d="M183.428 498.023C235.609 498.023 277.91 488.608 277.91 476.993C277.91 465.379 235.609 455.964 183.428 455.964C131.247 455.964 88.9453 465.379 88.9453 476.993C88.9453 488.608 131.247 498.023 183.428 498.023Z" fill="url(#paint0_radial_898_49170)"/>
<path d="M167.513 433.776C165.103 434.679 82.7847 443.04 73.0306 433.776C63.5082 424.72 128.589 384.398 138.135 385.116C140.475 385.278 142.329 387.594 145.827 392.666C156.647 408.23 167.513 433.776 167.513 433.776Z" fill="url(#paint1_linear_898_49170)"/>
<path d="M138.134 385.116C133.894 385.672 148.768 428.264 167.512 433.776C167.512 433.776 149.324 383.68 138.134 385.116Z" fill="url(#paint2_linear_898_49170)"/>
<path style="mix-blend-mode:multiply" opacity="0.3" d="M167.512 433.776C165.102 434.679 83.2236 442.531 73.0293 433.776C73.0293 433.776 97.1712 437.806 119.205 430.186C141.261 422.543 141.655 403.343 141.655 403.343L142.999 387.131C153.819 402.695 167.512 433.799 167.512 433.799V433.776Z" fill="url(#paint3_linear_898_49170)"/>
<path d="M80.6749 362.952C80.6749 362.952 76.6667 343.891 94.0433 323.579C116.563 297.246 163.55 277.745 171.404 281.381C179.258 285.017 153.564 326.358 153.564 326.358C153.564 326.358 121.035 334.557 103.89 354.521C86.7451 374.462 80.6749 362.952 80.6749 362.952Z" fill="url(#paint4_linear_898_49170)"/>
<path d="M247.281 388.289C245.057 406.771 236.508 421.316 222.027 429.237C212.32 434.517 199.924 436.857 185.004 435.351C162.878 433.128 149.393 416.568 143.439 394.01C143.439 393.987 143.416 393.964 143.416 393.94C140.751 383.866 139.616 372.563 139.848 360.821C140.682 322.745 160.839 292.753 174.717 283.419C197.7 267.971 230.183 276.888 233.82 304.032C236.74 325.872 251.035 357.393 247.281 388.312V388.289Z" fill="url(#paint5_linear_898_49170)"/>
<path d="M226.825 289.348C222.956 287.796 220.708 323.672 236.579 344.609C236.579 344.609 243.808 340 240.703 322.398C237.598 304.796 232.038 291.455 226.825 289.348Z" fill="url(#paint6_linear_898_49170)"/>
<path d="M223.998 302.457C223.998 302.457 238.386 322.861 233.729 340.416C233.729 340.416 224.6 326.705 223.998 302.457Z" fill="#6340A2"/>
<path d="M222.027 429.237C212.319 434.517 199.924 436.856 185.003 435.351C162.877 433.127 149.393 416.568 143.438 394.01C143.438 393.986 143.415 393.963 143.415 393.94C137.229 369.043 148.443 335.854 182.13 335.854C215.818 335.854 232.337 370.432 234.005 394.681C234.654 404.362 233.542 423.562 222.05 429.237H222.027Z" fill="url(#paint7_radial_898_49170)"/>
<path d="M289.774 421.802C290.191 431.182 285.094 437.991 275.896 439.89C271.17 440.863 260.767 440.817 250.642 439.751C250.248 439.728 250.04 439.705 250.04 439.705C237.807 438.385 226.13 435.629 225.527 431.46C225.11 428.658 224.948 425.739 225.018 422.798C225.296 398.433 239.429 371.011 248.441 372.887C254.002 374.045 262.088 379.419 269.617 386.691C275.827 392.62 281.642 399.846 285.395 406.979C288.199 412.306 289.612 417.355 289.751 421.825L289.774 421.802Z" fill="url(#paint8_linear_898_49170)"/>
<path style="mix-blend-mode:multiply" opacity="0.5" d="M269.639 386.668C269.639 386.668 252.424 381.781 238.847 392.967C229.232 400.888 226.498 417.541 225.016 422.775C225.294 398.41 239.427 370.988 248.439 372.864C254 374.022 262.086 379.395 269.616 386.668H269.639Z" fill="url(#paint9_linear_898_49170)"/>
<path d="M285.372 349.588C283.796 358.204 265.331 370.849 234.123 368.603C234.123 368.603 219.225 356.606 220.685 343.451C220.685 343.451 222.028 342.918 223.882 341.991C227.543 340.162 239.173 335.715 240.332 331.778C242.533 324.32 234.632 313.967 229.883 303.105C225.481 293.077 228.84 284.299 231.157 283.813C233.474 283.326 248.534 288.56 263.454 302.434C264.983 303.846 266.42 305.282 267.74 306.695H267.764C284.306 324.297 286.832 341.598 285.372 349.565V349.588Z" fill="url(#paint10_linear_898_49170)"/>
<path d="M228.299 347.356C228.299 347.356 225.24 331.23 221.198 321.706C221.198 321.706 213.209 316.554 208.535 318.977C203.862 321.432 211.84 342.562 211.84 342.562L228.315 347.339L228.299 347.356Z" fill="url(#paint11_linear_898_49170)"/>
<path d="M91.8672 351.3C91.8672 351.3 90.4088 333.901 94.7607 328.779C99.1127 323.656 102.916 322.22 104.461 322.671C106.026 323.11 109.322 328.154 109.71 333.495C110.098 338.837 104.243 348.821 104.243 348.821L91.8548 351.281L91.8672 351.3Z" fill="url(#paint12_linear_898_49170)"/>
<path d="M88.0671 340.416C88.0671 340.416 102.316 339.49 118.997 351.719C118.997 351.719 123.654 368.788 114.039 379.419C114.039 379.419 106.857 383.518 96.5469 385.093C86.2367 386.668 88.0671 340.416 88.0671 340.416Z" fill="url(#paint13_linear_898_49170)"/>
<path d="M220.707 343.474C220.707 343.474 233.519 343.474 240.563 354.359C246.471 363.507 237.365 368.811 237.365 368.811C237.365 368.811 221.726 367.746 220.707 343.497V343.474Z" fill="url(#paint14_linear_898_49170)"/>
<path d="M88.0664 340.416C81.4864 340 76.482 371.359 83.0619 380.878C89.6419 390.397 105.93 382.684 108.895 379.28C111.861 375.875 116.425 360.913 114.711 354.799C112.996 348.685 104.192 341.436 88.0664 340.393V340.416Z" fill="url(#paint15_linear_898_49170)"/>
<path style="mix-blend-mode:multiply" opacity="0.5" d="M143.439 288.746C143.439 288.746 157.201 311.026 183.938 310.007C210.698 309.011 224.97 285.666 224.97 285.666L147.123 287.125L143.416 288.746H143.439Z" fill="url(#paint16_linear_898_49170)"/>
<path d="M252.01 119.86C252.01 119.86 266.49 107.353 284.238 105.199C284.238 105.199 289.659 107.863 295.938 127.387C302.217 146.911 290.632 185.52 290.632 185.52L252.01 119.883V119.86Z" fill="url(#paint17_linear_898_49170)"/>
<path d="M284.236 105.199C284.236 105.199 269.895 120.578 269.895 145.359L275.432 148.857L291.604 115.413C291.604 115.413 286.229 104.921 284.236 105.199Z" fill="url(#paint18_linear_898_49170)"/>
<path d="M274.923 147.143C274.923 147.143 271.1 125.974 285.047 110.434C285.047 110.434 300.779 117.845 307.313 145.337C313.823 172.828 296.864 189.341 296.864 189.341L274.923 147.143Z" fill="url(#paint19_linear_898_49170)"/>
<path d="M266.814 111.36C264.126 112.796 264.358 115.691 269.895 114.973C275.433 114.255 278.445 109.901 277.842 109.067C277.24 108.233 269.803 109.739 266.814 111.36Z" fill="white"/>
<path d="M130.442 122.986C130.442 122.986 115.961 110.48 98.2141 108.326C98.2141 108.326 92.7926 110.989 86.5138 130.514C80.2351 150.038 91.8195 188.646 91.8195 188.646L130.442 123.01V122.986Z" fill="url(#paint20_linear_898_49170)"/>
<path d="M98.2134 108.326C98.2134 108.326 112.555 123.704 112.555 148.486L107.018 151.983L90.8457 118.54C90.8457 118.54 96.2209 108.048 98.2134 108.326Z" fill="url(#paint21_linear_898_49170)"/>
<path d="M107.551 150.293C107.551 150.293 111.374 129.124 97.4263 113.583C97.4263 113.583 81.6947 120.995 75.1611 148.486C68.6275 175.978 87.4174 194.274 87.4174 194.274L107.528 150.316L107.551 150.293Z" fill="url(#paint22_linear_898_49170)"/>
<path d="M115.637 114.487C118.325 115.923 118.093 118.818 112.556 118.1C107.019 117.382 104.007 113.028 104.609 112.194C105.212 111.36 112.649 112.866 115.637 114.487Z" fill="white"/>
<path d="M89.7357 256.854C111.931 308.038 278.075 292.081 297.931 250.021C319.64 204.025 269.711 90.3767 190.103 95.6805C122.844 100.174 61.2149 191.055 89.7357 256.854Z" fill="url(#paint23_linear_898_49170)"/>
<path d="M98.8873 244.301C120.11 286.291 265.147 279.343 286.323 240.757C304.302 207.985 261.834 108.187 188.968 111.731C116.102 115.297 78.4988 204.002 98.8873 244.301Z" fill="url(#paint24_linear_898_49170)"/>
<path d="M213.55 105.176C212.044 106.983 229.653 114.626 232.016 113.56C234.379 112.495 218.624 99.1315 213.55 105.176Z" fill="white"/>
<path style="mix-blend-mode:screen" opacity="0.5" d="M124.465 153.767C122.797 163.772 141.749 162.637 172.077 161.618C208.498 160.414 245.105 191.773 266.42 169.261C269.942 165.555 235.05 116.872 192.952 117.961C150.854 119.049 125.925 145.082 124.488 153.767H124.465Z" fill="url(#paint25_linear_898_49170)"/>
<path style="mix-blend-mode:screen" opacity="0.5" d="M143.232 258.128C141.309 265.377 156.484 272.626 193.763 270.796C238.849 268.596 248.418 259.147 246.217 256.53C244.896 254.955 231.389 263.455 194.342 255.348C169.876 249.998 145.247 250.508 143.232 258.128Z" fill="url(#paint26_linear_898_49170)"/>
<path style="mix-blend-mode:screen" opacity="0.2" d="M102.941 235.592C102.941 235.592 101.365 225.078 103.219 210.973C105.073 196.868 108.849 187.766 111.12 189.04C113.367 190.314 113.019 204.141 114.363 217.736C115.406 228.32 117.445 238.279 117.445 238.279C117.445 238.279 107.691 247.589 102.941 235.592Z" fill="url(#paint27_linear_898_49170)"/>
<path style="mix-blend-mode:multiply" opacity="0.5" d="M106.045 274.108C106.045 274.108 108.292 271.676 120.317 264.613C128.38 259.865 136.859 254.26 138.064 252.199C139.848 247.358 103.52 250.207 103.52 250.207L89.7109 256.831C89.7109 256.831 95.2019 267.67 106.045 274.085V274.108Z" fill="url(#paint28_linear_898_49170)"/>
<path d="M78.2891 167.038C78.2891 167.038 87.6724 173.059 81.5095 187.025C81.5095 187.025 37.7205 210.857 40.269 236.843C42.3774 258.521 102.871 248.03 102.871 248.03L105.049 255.256C105.049 255.256 53.6606 265.307 35.9365 253.217C35.9365 253.217 29.9126 238.904 44.8565 213.104C59.8235 187.303 78.2891 167.038 78.2891 167.038Z" fill="url(#paint29_linear_898_49170)"/>
<path d="M95.2257 246.015C89.7116 252.245 101.412 259.077 111.027 260.119C121.824 261.301 140.984 257.016 139.826 246.154C138.667 235.291 108.154 231.4 95.2257 246.015Z" fill="url(#paint30_linear_898_49170)"/>
<path d="M95.9454 247.173C95.621 248.956 134.151 249.373 135.054 242.564C135.958 235.755 98.494 233.416 95.9454 247.173Z" fill="url(#paint31_linear_898_49170)"/>
<path style="mix-blend-mode:screen" opacity="0.72" d="M297.813 122.848C297.813 122.848 292.716 116.525 285.742 118.216C278.791 119.906 278.328 141.816 282.475 142.349C286.645 142.881 288.406 130.236 291.58 128.244C294.778 126.252 300.338 127.017 300.338 127.017L297.79 122.848H297.813Z" fill="url(#paint32_linear_898_49170)"/>
<path style="mix-blend-mode:screen" opacity="0.72" d="M81 132.205C81 132.205 83.6876 129.171 89.7115 130.143C95.7354 131.139 99.2107 143.507 102.315 142.256C105.397 141.006 103.149 120.972 94.9708 115.066C94.9708 115.066 84.4522 124.029 81 132.181V132.205Z" fill="url(#paint33_linear_898_49170)"/>
<path d="M69.8796 181.096C69.8796 181.096 48.935 205.391 50.2788 207.082C51.5994 208.773 71.2002 183.551 69.8796 181.096Z" fill="url(#paint34_linear_898_49170)"/>
<path d="M219.85 204.835C223.65 212.872 256.735 213.914 262.064 201.222C266.86 189.827 252.009 159.649 232.223 162.382C217.256 164.467 213.433 191.263 219.827 204.835H219.85Z" fill="url(#paint35_radial_898_49170)"/>
<path d="M163.41 204.835C159.611 212.872 126.526 213.914 121.197 201.222C116.401 189.828 130.441 160.831 151.038 162.382C166.098 163.517 169.828 191.263 163.434 204.835H163.41Z" fill="url(#paint36_radial_898_49170)"/>
<path d="M180.787 230.312C180.787 230.312 191.978 219.542 200.318 220.191C208.659 220.839 202.728 231.655 202.728 231.655C202.728 231.655 192.696 233.786 180.787 230.312Z" fill="#2F95CD"/>
<path style="mix-blend-mode:multiply" opacity="0.3" d="M285.372 349.588C283.796 358.204 265.331 370.849 234.122 368.603C234.122 368.603 219.225 356.606 220.685 343.45C220.685 343.45 219.179 344.47 221.032 343.543L227.218 344.608C227.218 344.608 246.749 349.657 267.833 346.044C288.917 342.408 274.112 315.542 267.74 306.741C284.283 324.32 286.808 341.621 285.349 349.588H285.372Z" fill="url(#paint37_linear_898_49170)"/>
<path d="M225.541 376.664C225.541 376.664 225.348 376.619 225.246 376.606C225.053 376.561 224.77 376.483 224.404 376.405C224.34 376.418 224.288 376.411 224.25 376.386C222.695 376.043 219.869 375.434 216.418 374.798C214.767 374.474 212.955 374.182 211.073 373.87C203.427 372.63 193.225 372.412 192.608 372.418C192.589 372.405 192.576 372.424 192.576 372.424C192.576 372.424 183.102 356.996 187.917 348.202C191.259 342.101 200.431 335.999 208.101 333.797C211.498 332.808 214.616 332.609 216.806 333.46C223.913 336.292 228.693 343.839 228.693 343.839C228.693 343.839 237.894 349.661 236.027 361.125C234.161 372.59 225.58 376.69 225.58 376.69L225.541 376.664Z" fill="url(#paint38_linear_898_49170)"/>
<path d="M225.542 376.665C225.542 376.665 225.349 376.62 225.247 376.607C225.002 376.555 224.701 376.464 224.405 376.406C224.341 376.419 224.289 376.412 224.251 376.387C222.632 376.14 220.376 375.885 217.85 375.701C208.711 374.939 195.888 374.64 195.888 374.64L192.558 372.412C192.558 372.412 192.571 372.393 192.59 372.406C198.977 369.207 205.258 369.032 210.571 370.05C219.354 371.716 225.555 376.646 225.555 376.646L225.542 376.665Z" fill="url(#paint39_linear_898_49170)"/>
<path style="mix-blend-mode:screen" opacity="0.72" d="M161.117 419.972C161.117 419.972 169.736 431.668 187.414 432.919C205.092 434.17 213.108 429.213 213.108 429.213C213.108 429.213 210.235 423.724 202.682 422.474C195.129 421.223 186.51 427.662 178.193 426.55C169.875 425.438 161.117 419.972 161.117 419.972Z" fill="url(#paint40_linear_898_49170)"/>
<path style="mix-blend-mode:multiply" opacity="0.3" d="M289.773 421.802C290.19 431.182 285.093 437.991 275.895 439.89C271.168 440.863 260.765 440.817 250.641 439.751C253.722 439.983 268.04 440.909 271.261 437.111C274.898 432.873 275.107 425.809 279.208 422.775C283.309 419.741 287.201 421.987 288.498 421.779C288.73 421.733 289.194 421.756 289.796 421.802H289.773Z" fill="url(#paint41_linear_898_49170)"/>
<path d="M266.606 416.336C266.004 418.097 272.097 423.146 275.572 421.849C279.048 420.552 276.337 415.503 274.669 414.437C273.001 413.372 267.116 414.9 266.606 416.336Z" fill="white"/>
<path d="M85.5642 419.973C85.3557 421.594 94.9012 417.703 96.5925 414.646C98.2839 411.588 98.8631 408.045 98.2839 407.837C97.7278 407.628 85.8654 417.494 85.541 419.973H85.5642Z" fill="white"/>
<path d="M215.288 335.429C213.967 336.441 215.487 346.101 217.454 346.163C219.434 346.205 221.165 341.174 219.252 338.082C217.32 334.977 216.048 334.878 215.307 335.442L215.288 335.429Z" fill="white"/>
<path d="M250.318 323.579C248.395 324.065 248.65 326.984 246.981 329.647C245.313 332.287 242.209 334.256 242.556 334.858C242.904 335.46 250.758 335.321 252.125 331.315C253.492 327.308 251.407 323.301 250.318 323.579Z" fill="white"/>
<path d="M248.256 320.591C247.631 320.452 245.592 316.469 246.078 315.172C246.565 313.875 248.766 315.38 249.16 316.677C249.554 317.974 249.252 320.8 248.256 320.591Z" fill="white"/>
<path d="M87.9262 342.871C88.1115 345.72 98.6765 346.299 99.7423 344.794C100.808 343.288 98.8387 341.968 95.3402 341.366C91.8417 340.764 87.8798 342.153 87.9262 342.871Z" fill="white"/>
<path style="mix-blend-mode:multiply" opacity="0.3" d="M217.815 375.707C208.676 374.945 195.853 374.646 195.853 374.646L192.523 372.418C192.523 372.418 183.049 356.99 187.864 348.196C191.206 342.095 200.378 335.993 208.047 333.791C207.292 337.161 203.347 355.544 206.402 363.833C207.263 366.165 208.761 368.255 210.523 370.075C212.349 371.966 214.415 373.543 216.352 374.811C216.853 375.146 217.347 375.449 217.783 375.713L217.815 375.707Z" fill="url(#paint42_linear_898_49170)"/>
<path d="M120.11 304.634C119.971 306.07 134.22 302.457 132.714 297.871C131.764 294.953 120.365 302.063 120.11 304.634Z" fill="white"/>
<defs>
<filter id="filter0_f_898_49170" x="15.6543" y="25.7644" width="342.354" height="387.385" filterUnits="userSpaceOnUse" color-interpolation-filters="sRGB">
<feFlood flood-opacity="0" result="BackgroundImageFix"/>
<feBlend mode="normal" in="SourceGraphic" in2="BackgroundImageFix" result="shape"/>
<feGaussianBlur stdDeviation="2.5" result="effect1_foregroundBlur_898_49170"/>
</filter>
<radialGradient id="paint0_radial_898_49170" cx="0" cy="0" r="1" gradientUnits="userSpaceOnUse" gradientTransform="translate(183.428 477.456) scale(94.5056 20.7837)">
<stop stop-color="#BE9DEA"/>
<stop offset="0.39" stop-color="#E0BFF5"/>
<stop offset="1" stop-color="white"/>
</radialGradient>
<linearGradient id="paint1_linear_898_49170" x1="118.673" y1="441.512" x2="125.943" y2="383.587" gradientUnits="userSpaceOnUse">
<stop stop-color="#DAD3F9"/>
<stop offset="1" stop-color="#BE9DEA"/>
</linearGradient>
<linearGradient id="paint2_linear_898_49170" x1="152.452" y1="433.776" x2="152.452" y2="385.093" gradientUnits="userSpaceOnUse">
<stop stop-color="#BE9DEA"/>
<stop offset="1" stop-color="#9E8CEF"/>
</linearGradient>
<linearGradient id="paint3_linear_898_49170" x1="120.271" y1="437.876" x2="120.271" y2="387.131" gradientUnits="userSpaceOnUse">
<stop stop-color="#9D68C2"/>
<stop offset="1" stop-color="#CCEDFF"/>
</linearGradient>
<linearGradient id="paint4_linear_898_49170" x1="120.27" y1="370.525" x2="132.101" y2="276.238" gradientUnits="userSpaceOnUse">
<stop stop-color="#DAD3F9"/>
<stop offset="1" stop-color="#BE9DEA"/>
</linearGradient>
<linearGradient id="paint5_linear_898_49170" x1="185.629" y1="435.444" x2="205.61" y2="276.33" gradientUnits="userSpaceOnUse">
<stop stop-color="#CBC1F7"/>
<stop offset="1" stop-color="#E8DCF7"/>
</linearGradient>
<linearGradient id="paint6_linear_898_49170" x1="229.188" y1="343.682" x2="235.856" y2="290.459" gradientUnits="userSpaceOnUse">
<stop stop-color="#BE9DEA"/>
<stop offset="1" stop-color="#9E8CEF"/>
</linearGradient>
<radialGradient id="paint7_radial_898_49170" cx="0" cy="0" r="1" gradientUnits="userSpaceOnUse" gradientTransform="translate(189.521 419.181) scale(68.626 70.6592)">
<stop stop-color="#45FFCD"/>
<stop offset="1" stop-color="#22E0FF"/>
</radialGradient>
<linearGradient id="paint8_linear_898_49170" x1="255.067" y1="440.354" x2="263.31" y2="374.716" gradientUnits="userSpaceOnUse">
<stop stop-color="#CBC1F7"/>
<stop offset="1" stop-color="#E8DCF7"/>
</linearGradient>
<linearGradient id="paint9_linear_898_49170" x1="247.327" y1="422.775" x2="247.327" y2="372.771" gradientUnits="userSpaceOnUse">
<stop stop-color="#8DA4E5"/>
<stop offset="1" stop-color="#755CBB"/>
</linearGradient>
<linearGradient id="paint10_linear_898_49170" x1="250.04" y1="370.618" x2="260.481" y2="287.425" gradientUnits="userSpaceOnUse">
<stop stop-color="#CBC1F7"/>
<stop offset="1" stop-color="#E8DCF7"/>
</linearGradient>
<linearGradient id="paint11_linear_898_49170" x1="209.824" y1="340.116" x2="225.67" y2="327.239" gradientUnits="userSpaceOnUse">
<stop stop-color="#DAD3F9"/>
<stop offset="1" stop-color="#BE9DEA"/>
</linearGradient>
<linearGradient id="paint12_linear_898_49170" x1="104.405" y1="348.773" x2="94.1074" y2="326.676" gradientUnits="userSpaceOnUse">
<stop stop-color="#CBC1F7"/>
<stop offset="1" stop-color="#E8DCF7"/>
</linearGradient>
<linearGradient id="paint13_linear_898_49170" x1="104.03" y1="385.116" x2="104.03" y2="340.393" gradientUnits="userSpaceOnUse">
<stop stop-color="#BE9DEA"/>
<stop offset="1" stop-color="#9E8CEF"/>
</linearGradient>
<linearGradient id="paint14_linear_898_49170" x1="231.62" y1="368.811" x2="231.62" y2="343.474" gradientUnits="userSpaceOnUse">
<stop stop-color="#BE9DEA"/>
<stop offset="1" stop-color="#9E8CEF"/>
</linearGradient>
<linearGradient id="paint15_linear_898_49170" x1="94.3915" y1="385.811" x2="99.9017" y2="341.806" gradientUnits="userSpaceOnUse">
<stop stop-color="#CBC1F7"/>
<stop offset="1" stop-color="#E8DCF7"/>
</linearGradient>
<linearGradient id="paint16_linear_898_49170" x1="184.216" y1="310.053" x2="184.216" y2="285.666" gradientUnits="userSpaceOnUse">
<stop stop-color="#8DA4E5"/>
<stop offset="1" stop-color="#755CBB"/>
</linearGradient>
<linearGradient id="paint17_linear_898_49170" x1="274.924" y1="185.497" x2="274.924" y2="105.199" gradientUnits="userSpaceOnUse">
<stop stop-color="#B9ACF4"/>
<stop offset="1" stop-color="#E1D1F5"/>
</linearGradient>
<linearGradient id="paint18_linear_898_49170" x1="280.738" y1="148.833" x2="280.738" y2="105.176" gradientUnits="userSpaceOnUse">
<stop stop-color="#BE9DEA"/>
<stop offset="1" stop-color="#9E8CEF"/>
</linearGradient>
<linearGradient id="paint19_linear_898_49170" x1="291.604" y1="189.341" x2="291.604" y2="110.434" gradientUnits="userSpaceOnUse">
<stop stop-color="#45FFCD"/>
<stop offset="1" stop-color="#22E0FF"/>
</linearGradient>
<linearGradient id="paint20_linear_898_49170" x1="107.551" y1="188.623" x2="107.551" y2="108.326" gradientUnits="userSpaceOnUse">
<stop stop-color="#B9ACF4"/>
<stop offset="1" stop-color="#E1D1F5"/>
</linearGradient>
<linearGradient id="paint21_linear_898_49170" x1="101.712" y1="151.983" x2="101.712" y2="108.326" gradientUnits="userSpaceOnUse">
<stop stop-color="#BE9DEA"/>
<stop offset="1" stop-color="#9E8CEF"/>
</linearGradient>
<linearGradient id="paint22_linear_898_49170" x1="90.9159" y1="194.251" x2="90.9159" y2="113.56" gradientUnits="userSpaceOnUse">
<stop stop-color="#45FFCD"/>
<stop offset="1" stop-color="#22E0FF"/>
</linearGradient>
<linearGradient id="paint23_linear_898_49170" x1="184.033" y1="291.548" x2="208.528" y2="96.512" gradientUnits="userSpaceOnUse">
<stop stop-color="#CBC1F7"/>
<stop offset="1" stop-color="#E8DCF7"/>
</linearGradient>
<linearGradient id="paint24_linear_898_49170" x1="191.933" y1="272.858" x2="191.933" y2="111.638" gradientUnits="userSpaceOnUse">
<stop stop-color="#0665BD"/>
<stop offset="1" stop-color="#1A1F77"/>
</linearGradient>
<linearGradient id="paint25_linear_898_49170" x1="124.372" y1="147.699" x2="266.652" y2="147.699" gradientUnits="userSpaceOnUse">
<stop/>
<stop offset="1" stop-color="#6A9BFF"/>
</linearGradient>
<linearGradient id="paint26_linear_898_49170" x1="143.069" y1="261.44" x2="246.518" y2="261.44" gradientUnits="userSpaceOnUse">
<stop/>
<stop offset="1" stop-color="#6A9BFF"/>
</linearGradient>
<linearGradient id="paint27_linear_898_49170" x1="109.039" y1="241.68" x2="112.643" y2="189.067" gradientUnits="userSpaceOnUse">
<stop/>
<stop offset="1" stop-color="#00E3FF"/>
</linearGradient>
<linearGradient id="paint28_linear_898_49170" x1="113.922" y1="274.108" x2="113.922" y2="249.373" gradientUnits="userSpaceOnUse">
<stop stop-color="#8DA4E5"/>
<stop offset="1" stop-color="#755CBB"/>
</linearGradient>
<linearGradient id="paint29_linear_898_49170" x1="68.4191" y1="260.444" x2="80.1342" y2="167.268" gradientUnits="userSpaceOnUse">
<stop stop-color="#BE9DEA"/>
<stop offset="1" stop-color="#9E8CEF"/>
</linearGradient>
<linearGradient id="paint30_linear_898_49170" x1="113.882" y1="261.002" x2="119.9" y2="235.437" gradientUnits="userSpaceOnUse">
<stop stop-color="#DD1A8F"/>
<stop offset="1" stop-color="#FE117E"/>
</linearGradient>
<linearGradient id="paint31_linear_898_49170" x1="115.523" y1="248.285" x2="115.523" y2="237.121" gradientUnits="userSpaceOnUse">
<stop stop-color="#D93DE3"/>
<stop offset="1" stop-color="#FF6DBA"/>
</linearGradient>
<linearGradient id="paint32_linear_898_49170" x1="279.834" y1="130.143" x2="300.361" y2="130.143" gradientUnits="userSpaceOnUse">
<stop/>
<stop offset="1" stop-color="#D4E2FF"/>
</linearGradient>
<linearGradient id="paint33_linear_898_49170" x1="81" y1="128.707" x2="103.636" y2="128.707" gradientUnits="userSpaceOnUse">
<stop stop-color="#D4E2FF"/>
<stop offset="1"/>
</linearGradient>
<linearGradient id="paint34_linear_898_49170" x1="60.0792" y1="207.175" x2="60.0792" y2="181.096" gradientUnits="userSpaceOnUse">
<stop stop-color="#CBC1F7"/>
<stop offset="1" stop-color="#E8DCF7"/>
</linearGradient>
<radialGradient id="paint35_radial_898_49170" cx="0" cy="0" r="1" gradientUnits="userSpaceOnUse" gradientTransform="translate(240.702 203.284) scale(34.2898 34.2774)">
<stop stop-color="#45FFCD"/>
<stop offset="1" stop-color="#22E0FF"/>
</radialGradient>
<radialGradient id="paint36_radial_898_49170" cx="0" cy="0" r="1" gradientUnits="userSpaceOnUse" gradientTransform="translate(142.558 203.307) rotate(180) scale(34.313 34.3006)">
<stop stop-color="#45FFCD"/>
<stop offset="1" stop-color="#22E0FF"/>
</radialGradient>
<linearGradient id="paint37_linear_898_49170" x1="252.936" y1="368.881" x2="252.936" y2="306.741" gradientUnits="userSpaceOnUse">
<stop stop-color="#9D68C2"/>
<stop offset="1" stop-color="#CCEDFF"/>
</linearGradient>
<linearGradient id="paint38_linear_898_49170" x1="195.949" y1="375.377" x2="226.389" y2="340.309" gradientUnits="userSpaceOnUse">
<stop stop-color="#CBC1F7"/>
<stop offset="1" stop-color="#E8DCF7"/>
</linearGradient>
<linearGradient id="paint39_linear_898_49170" x1="204.901" y1="380.698" x2="213.174" y2="368.334" gradientUnits="userSpaceOnUse">
<stop stop-color="#BE9DEA"/>
<stop offset="1" stop-color="#9E8CEF"/>
</linearGradient>
<linearGradient id="paint40_linear_898_49170" x1="187.136" y1="433.128" x2="187.136" y2="419.972" gradientUnits="userSpaceOnUse">
<stop stop-color="#D4E2FF"/>
<stop offset="1"/>
</linearGradient>
<linearGradient id="paint41_linear_898_49170" x1="270.218" y1="440.585" x2="270.218" y2="421.177" gradientUnits="userSpaceOnUse">
<stop stop-color="#9D68C2"/>
<stop offset="1" stop-color="#CCEDFF"/>
</linearGradient>
<linearGradient id="paint42_linear_898_49170" x1="194.775" y1="373.924" x2="217.428" y2="340.067" gradientUnits="userSpaceOnUse">
<stop stop-color="#9D68C2"/>
<stop offset="1" stop-color="#CCEDFF"/>
</linearGradient>
</defs>
</svg>
