<svg width="26" height="23" viewBox="0 0 26 23" fill="none" xmlns="http://www.w3.org/2000/svg">
<path d="M21 22.6667H5C1.776 22.6667 0 20.8907 0 17.6667V5.66675C0 2.44275 1.776 0.666748 5 0.666748H21C24.224 0.666748 26 2.44275 26 5.66675V17.6667C26 20.8907 24.224 22.6667 21 22.6667ZM5 2.66675C2.89733 2.66675 2 3.56408 2 5.66675V17.6667C2 19.7694 2.89733 20.6667 5 20.6667H21C23.1027 20.6667 24 19.7694 24 17.6667V5.66675C24 3.56408 23.1027 2.66675 21 2.66675H5ZM14.3721 12.5721L20.9212 7.80941C21.3679 7.48541 21.4666 6.85876 21.1413 6.41209C20.8173 5.96676 20.1935 5.86541 19.7441 6.19208L13.1947 10.9548C13.0773 11.0401 12.9214 11.0401 12.804 10.9548L6.25456 6.19208C5.80389 5.86541 5.18142 5.96809 4.85742 6.41209C4.53209 6.85876 4.63081 7.48407 5.07747 7.80941L11.6266 12.5734C12.0373 12.8721 12.5187 13.0201 12.9987 13.0201C13.4787 13.0201 13.9627 12.8707 14.3721 12.5721Z" fill="#2673B8"/>
</svg>
