<svg width="26" height="26" viewBox="0 0 26 26" fill="none" xmlns="http://www.w3.org/2000/svg">
<path d="M1 26C0.870667 26 0.741188 25.9747 0.617188 25.924C0.243854 25.7693 0 25.404 0 25V5C0 1.776 1.776 0 5 0H21C24.224 0 26 1.776 26 5V17C26 20.224 24.224 22 21 22H5.41471L1.70801 25.7067C1.51601 25.8987 1.26 26 1 26ZM5 2C2.89733 2 2 2.89733 2 5V22.5853L4.29329 20.292C4.48129 20.104 4.73467 19.9987 5 19.9987H21C23.1027 19.9987 24 19.1014 24 16.9987V4.9987C24 2.89603 23.1027 1.9987 21 1.9987H5V2ZM14.36 11C14.36 10.264 13.764 9.66667 13.0267 9.66667H13.0133C12.2773 9.66667 11.6865 10.264 11.6865 11C11.6865 11.736 12.2907 12.3333 13.0267 12.3333C13.7627 12.3333 14.36 11.736 14.36 11ZM19.6934 11C19.6934 10.264 19.0974 9.66667 18.36 9.66667H18.3467C17.6107 9.66667 17.0199 10.264 17.0199 11C17.0199 11.736 17.624 12.3333 18.36 12.3333C19.096 12.3333 19.6934 11.736 19.6934 11ZM9.02669 11C9.02669 10.264 8.43069 9.66667 7.69336 9.66667H7.68001C6.94401 9.66667 6.35319 10.264 6.35319 11C6.35319 11.736 6.95736 12.3333 7.69336 12.3333C8.42936 12.3333 9.02669 11.736 9.02669 11Z" fill="#2673B8"/>
</svg>
