<svg width="26" height="26" viewBox="0 0 26 26" fill="none" xmlns="http://www.w3.org/2000/svg">
<path d="M1 26C0.870667 26 0.741188 25.9747 0.617188 25.924C0.243854 25.7693 0 25.404 0 25V5C0 1.776 1.776 0 5 0H21C24.224 0 26 1.776 26 5V17C26 20.224 24.224 22 21 22H5.41471L1.70801 25.7067C1.51601 25.8987 1.26 26 1 26ZM5 2C2.89733 2 2 2.89733 2 5V22.5853L4.29329 20.292C4.48129 20.104 4.73467 19.9987 5 19.9987H21C23.1027 19.9987 24 19.1014 24 16.9987V4.9987C24 2.89603 23.1027 1.9987 21 1.9987H5V2Z" fill="#2673B8"/>
</svg>
