<svg width="22" height="26" viewBox="0 0 22 26" fill="none" xmlns="http://www.w3.org/2000/svg">
<path d="M11.0133 11.3333C7.88801 11.3333 5.34668 8.79067 5.34668 5.66667C5.34668 2.54267 7.88801 0 11.0133 0C14.1387 0 16.68 2.54267 16.68 5.66667C16.68 8.79067 14.1387 11.3333 11.0133 11.3333ZM11.0133 2C8.99068 2 7.34668 3.644 7.34668 5.66667C7.34668 7.68933 8.99068 9.33333 11.0133 9.33333C13.036 9.33333 14.68 7.68933 14.68 5.66667C14.68 3.644 13.0347 2 11.0133 2ZM16.3306 26H5.67204C2.44537 26 0.667969 24.2334 0.667969 21.0254C0.667969 17.4774 2.67597 13.3333 8.33463 13.3333H13.668C19.3266 13.3333 21.3346 17.4761 21.3346 21.0254C21.3346 24.2334 19.5572 26 16.3306 26ZM8.33463 15.3333C3.0773 15.3333 2.66797 19.6894 2.66797 21.0254C2.66797 23.1107 3.5667 24 5.67204 24H16.3306C18.4359 24 19.3346 23.1107 19.3346 21.0254C19.3346 19.6907 18.9253 15.3333 13.668 15.3333H8.33463Z" fill="#2673B8"/>
</svg>
