<svg width="52" height="51" viewBox="0 0 52 51" fill="none" xmlns="http://www.w3.org/2000/svg">
<g clip-path="url(#clip0_829_57960)">
<path d="M8.71443 15.799H29.0282C33.3405 15.799 36.8363 19.2948 36.8363 23.6072V33.7462C36.8363 38.0585 33.3406 41.5544 29.0282 41.5544H18.8203L13.9339 47.138C12.4844 48.7941 9.75664 47.7691 9.75664 45.5683V41.5544H8.71443C4.40204 41.5544 0.90625 38.0586 0.90625 33.7462V23.6072C0.90625 19.2949 4.40204 15.799 8.71443 15.799Z" fill="#B3E59F"/>
<path d="M13.8409 47.2391C12.3704 48.7496 9.75684 47.7224 9.75684 45.5685V41.5542H8.71433C4.40234 41.5542 0.90625 38.058 0.90625 33.7461V23.6067C0.90625 19.2948 4.40234 15.7986 8.71433 15.7986H12.1233C7.81028 15.7986 4.31518 19.2947 4.31518 23.6067V33.7461C4.31518 38.058 7.81028 41.5541 12.1233 41.5541H13.1659V45.5684C13.1658 46.255 13.4315 46.8276 13.8409 47.2391Z" fill="#95D6A4"/>
<path d="M44.0985 3.04401H23.7847C19.4725 3.04401 15.9766 6.5398 15.9766 10.8522V20.9912C15.9766 25.3035 19.4724 28.7994 23.7847 28.7994H33.9925L38.879 34.383C40.3284 36.0391 43.0562 35.0141 43.0562 32.8133V28.7994H44.0984C48.4107 28.7994 51.9066 25.3036 51.9066 20.9912V10.8522C51.9067 6.5399 48.4109 3.04401 44.0985 3.04401Z" fill="#F9F6F9"/>
<path d="M27.4952 28.7991H23.7845C19.4727 28.7991 15.9766 25.303 15.9766 20.9911V10.8516C15.9766 6.53971 19.4727 3.04352 23.7845 3.04352H27.4952C23.1833 3.04352 19.6871 6.53961 19.6871 10.8516V20.991C19.6872 25.303 23.1833 28.7991 27.4952 28.7991Z" fill="#DDDAEC"/>
<path d="M15.2696 33.1027C15.0655 33.1027 14.8697 33.0216 14.7254 32.8773C14.5811 32.7329 14.5 32.5372 14.5 32.3331V32.2848C14.5 32.0807 14.5811 31.8849 14.7254 31.7406C14.8697 31.5963 15.0655 31.5152 15.2696 31.5152C15.4737 31.5152 15.6694 31.5963 15.8138 31.7406C15.9581 31.8849 16.0392 32.0807 16.0392 32.2848V32.3331C16.0392 32.5372 15.9581 32.7329 15.8138 32.8773C15.6694 33.0216 15.4737 33.1027 15.2696 33.1027ZM18.9798 33.1027C18.7757 33.1027 18.58 33.0216 18.4357 32.8773C18.2913 32.7329 18.2103 32.5372 18.2103 32.3331V32.2848C18.2103 32.0807 18.2913 31.8849 18.4357 31.7406C18.58 31.5963 18.7757 31.5152 18.9798 31.5152C19.1839 31.5152 19.3797 31.5963 19.524 31.7406C19.6683 31.8849 19.7494 32.0807 19.7494 32.2848V32.3331C19.7494 32.4342 19.7295 32.5342 19.6909 32.6276C19.6522 32.721 19.5955 32.8058 19.524 32.8773C19.4526 32.9488 19.3677 33.0054 19.2744 33.0441C19.181 33.0828 19.0809 33.1027 18.9798 33.1027ZM22.4715 33.1027C22.2674 33.1027 22.0717 33.0216 21.9274 32.8773C21.783 32.7329 21.702 32.5372 21.702 32.3331V32.2848C21.702 32.0807 21.783 31.8849 21.9274 31.7406C22.0717 31.5963 22.2674 31.5152 22.4715 31.5152C22.6756 31.5152 22.8714 31.5963 23.0157 31.7406C23.16 31.8849 23.2411 32.0807 23.2411 32.2848V32.3331C23.2411 32.5372 23.16 32.7329 23.0157 32.8773C22.8714 33.0216 22.6756 33.1027 22.4715 33.1027Z" fill="#5E54AC"/>
<path d="M42.0532 17.3628L40.9912 16.7502C41.0169 16.507 41.0291 16.2608 41.0291 16.0124C41.0294 15.766 41.0168 15.5197 40.9912 15.2746L42.0532 14.661C42.8588 14.1962 43.1338 13.167 42.6689 12.3614L41.4662 10.2793C41.0013 9.47378 39.9722 9.19776 39.1676 9.66264L38.1056 10.2762C37.7068 9.98563 37.2786 9.73764 36.828 9.53633V8.31213C36.828 7.38248 36.0738 6.62823 35.1441 6.62823H32.7388C31.8092 6.62823 31.0559 7.38248 31.0559 8.31213V9.53633C30.6054 9.73757 30.1771 9.98556 29.7784 10.2762L28.7163 9.66264C27.9108 9.19776 26.8815 9.47378 26.4167 10.2793L25.2141 12.3614C24.7492 13.1669 25.0253 14.1962 25.8307 14.661L26.8918 15.2746C26.8667 15.5198 26.854 15.766 26.8538 16.0124C26.8538 16.2608 26.8672 16.507 26.8918 16.7502L25.8307 17.3628C25.0252 17.8277 24.7492 18.8569 25.2141 19.6625L26.4167 21.7457C26.8816 22.5501 27.9108 22.8262 28.7163 22.3613L29.7784 21.7487C30.1775 22.0387 30.6056 22.2863 31.0559 22.4876V23.7128C31.0559 24.6425 31.8091 25.3957 32.7388 25.3957H35.1441C36.0738 25.3957 36.828 24.6426 36.828 23.7128V22.4876C37.2783 22.2863 37.7065 22.0387 38.1056 21.7487L39.1676 22.3613C39.9722 22.8261 41.0013 22.5501 41.4662 21.7457L42.6689 19.6625C43.1338 18.857 42.8588 17.8277 42.0532 17.3628ZM33.9414 19.9673C31.7578 19.9673 29.9866 18.1962 29.9866 16.0125C29.9866 13.8278 31.7578 12.0577 33.9414 12.0577C36.1262 12.0577 37.8962 13.8279 37.8962 16.0125C37.8962 18.1961 36.1262 19.9673 33.9414 19.9673Z" fill="#6B61B1"/>
<path d="M27.601 21.7454L26.3983 19.6625C25.9335 18.8575 26.2096 17.8277 27.0146 17.3628L28.0765 16.7499C28.0512 16.5075 28.0383 16.2613 28.0383 16.0121C28.0383 15.7629 28.0512 15.5167 28.0765 15.2743L27.0146 14.6614C26.2096 14.1965 25.9336 13.1669 26.3983 12.3617L27.601 10.2788C27.7953 9.94126 28.101 9.68188 28.4656 9.54519C27.708 9.25881 26.8329 9.55455 26.4148 10.2788L25.2121 12.3617C24.7472 13.1668 25.0233 14.1965 25.8284 14.6614L26.8902 15.2743C26.8649 15.5168 26.8521 15.7629 26.8521 16.0121C26.8521 16.2613 26.8649 16.5076 26.8902 16.7499L25.8284 17.3628C25.0233 17.8277 24.7473 18.8574 25.2121 19.6625L26.4148 21.7454C26.8329 22.4697 27.708 22.7654 28.4656 22.4791C28.1009 22.3424 27.7952 22.083 27.601 21.7454ZM33.9231 25.3958H32.7371C31.8074 25.3958 31.0537 24.6421 31.0537 23.7124V22.4874C30.6033 22.2863 30.1751 22.0386 29.7762 21.7484L30.4075 21.3841C30.8044 21.6725 31.7869 22.2854 32.2396 22.4874V23.7124C32.2398 24.6421 32.9935 25.3958 33.9231 25.3958ZM33.9231 6.62872H32.7371C31.8074 6.62872 31.0537 7.38247 31.0537 8.31212V9.53712C30.6033 9.7383 30.1751 9.98598 29.7762 10.2761L30.4075 10.6405C30.8044 10.352 31.7869 9.73913 32.2396 9.53712V8.31212C32.2398 7.38237 32.9935 6.62872 33.9231 6.62872Z" fill="#5E54AC"/>
</g>
<defs>
<clipPath id="clip0_829_57960">
<rect width="51" height="51" fill="white" transform="translate(0.90625)"/>
</clipPath>
</defs>
</svg>
