<svg width="74" height="73" viewBox="0 0 74 73" fill="none" xmlns="http://www.w3.org/2000/svg">
<g clip-path="url(#clip0_829_57807)">
<path d="M43.0938 48.6659L46.2141 45.5455L62.9815 62.3129L59.8611 65.4334L43.0938 48.6659Z" fill="#C4E2FF"/>
<path d="M64.359 72.3829C67.3489 72.3829 69.7727 69.9591 69.7727 66.9692C69.7727 63.9793 67.3489 61.5555 64.359 61.5555C61.3691 61.5555 58.9453 63.9793 58.9453 66.9692C58.9453 69.9591 61.3691 72.3829 64.359 72.3829Z" fill="#60B7FF"/>
<path d="M9.90588 72.3829C12.8958 72.3829 15.3196 69.9591 15.3196 66.9692C15.3196 63.9793 12.8958 61.5555 9.90588 61.5555C6.91598 61.5555 4.49219 63.9793 4.49219 66.9692C4.49219 69.9591 6.91598 72.3829 9.90588 72.3829Z" fill="#60B7FF"/>
<path d="M43.0977 23.7308L59.865 6.9635L62.9855 10.0839L46.2182 26.8512L43.0977 23.7308Z" fill="#C4E2FF"/>
<path d="M64.359 10.838C67.3489 10.838 69.7727 8.41421 69.7727 5.42431C69.7727 2.43441 67.3489 0.0106201 64.359 0.0106201C61.3691 0.0106201 58.9453 2.43441 58.9453 5.42431C58.9453 8.41421 61.3691 10.838 64.359 10.838Z" fill="#60B7FF"/>
<path d="M9.90588 10.838C12.8958 10.838 15.3196 8.41421 15.3196 5.42431C15.3196 2.43441 12.8958 0.0106201 9.90588 0.0106201C6.91598 0.0106201 4.49219 2.43441 4.49219 5.42431C4.49219 8.41421 6.91598 10.838 9.90588 10.838Z" fill="#60B7FF"/>
<path d="M69.7773 66.9697C69.7773 69.9593 67.3544 72.3836 64.3632 72.3836C63.7236 72.3836 63.1089 72.273 62.5391 72.069C64.6312 71.3187 66.1276 69.3182 66.1276 66.9697C66.1276 64.6211 64.6312 62.6206 62.5391 61.8703C63.1245 61.6613 63.7416 61.5548 64.3632 61.5555C67.3544 61.5555 69.7773 63.9799 69.7773 66.9697Z" fill="#26A6FE"/>
<path d="M11.2656 62.3097L28.033 45.5424L31.1535 48.6627L14.3861 65.4301L11.2656 62.3097Z" fill="#D8ECFE"/>
<path d="M15.3241 66.9696C15.3241 69.9592 12.9011 72.3835 9.91152 72.3835C9.27048 72.3835 8.65715 72.2728 8.08594 72.0689C10.1781 71.3186 11.6745 69.3181 11.6745 66.9696C11.6745 64.621 10.1781 62.6205 8.08594 61.8702C8.67185 61.6612 9.28942 61.5547 9.91152 61.5554C12.9011 61.5554 15.3241 63.9798 15.3241 66.9696ZM69.7749 5.4246C69.7749 8.41422 67.352 10.8387 64.3608 10.8387C63.7392 10.8395 63.1221 10.733 62.5367 10.5239C64.6288 9.77362 66.1252 7.77318 66.1252 5.4246C66.1252 3.07601 64.6288 1.07558 62.5367 0.325277C63.1221 0.116277 63.7392 0.00983173 64.3608 0.0106245C67.352 0.0106245 69.7749 2.43498 69.7749 5.4246Z" fill="#26A6FE"/>
<path d="M11.2695 10.0806L14.39 6.96008L31.1574 23.7274L28.037 26.8479L11.2695 10.0806Z" fill="#D8ECFE"/>
<path d="M15.3241 5.4246C15.3241 8.41422 12.9011 10.8387 9.91152 10.8387C9.27048 10.8387 8.65715 10.728 8.08594 10.5239C10.1781 9.77362 11.6745 7.77318 11.6745 5.4246C11.6745 3.07601 10.1781 1.07558 8.08594 0.325277C8.67185 0.11624 9.28943 0.00979668 9.91152 0.0106249C12.9011 0.0106249 15.3241 2.43498 15.3241 5.4246Z" fill="#26A6FE"/>
<path d="M37.1318 21.1046C36.8422 21.1046 36.5644 20.9895 36.3596 20.7847C36.1548 20.5799 36.0397 20.3022 36.0397 20.0125V9.01409C36.0397 8.72445 36.1548 8.44667 36.3596 8.24186C36.5644 8.03706 36.8422 7.922 37.1318 7.922C37.4215 7.922 37.6993 8.03706 37.9041 8.24186C38.1089 8.44667 38.2239 8.72445 38.2239 9.01409V20.0125C38.224 20.1559 38.1957 20.298 38.1408 20.4305C38.086 20.563 38.0055 20.6834 37.9041 20.7848C37.8027 20.8862 37.6823 20.9666 37.5498 21.0215C37.4173 21.0764 37.2753 21.1046 37.1318 21.1046ZM37.1318 65.7197C36.8422 65.7197 36.5644 65.6046 36.3596 65.3998C36.1548 65.195 36.0397 64.9172 36.0397 64.6276V53.6292C36.0397 53.3395 36.1548 53.0617 36.3596 52.8569C36.5644 52.6521 36.8422 52.5371 37.1318 52.5371C37.4215 52.5371 37.6993 52.6521 37.9041 52.8569C38.1089 53.0617 38.2239 53.3395 38.2239 53.6292V64.6276C38.224 64.771 38.1957 64.913 38.1408 65.0455C38.086 65.178 38.0055 65.2984 37.9041 65.3998C37.8027 65.5013 37.6823 65.5817 37.5498 65.6366C37.4173 65.6915 37.2753 65.7197 37.1318 65.7197ZM20.9421 38.037H9.94366C9.65402 38.037 9.37624 37.922 9.17143 37.7172C8.96662 37.5124 8.85156 37.2346 8.85156 36.9449C8.85156 36.6553 8.96662 36.3775 9.17143 36.1727C9.37624 35.9679 9.65402 35.8528 9.94366 35.8528H20.9421C21.2317 35.8528 21.5095 35.9679 21.7143 36.1727C21.9191 36.3775 22.0342 36.6553 22.0342 36.9449C22.0342 37.2346 21.9191 37.5124 21.7143 37.7172C21.5095 37.922 21.2317 38.037 20.9421 38.037ZM64.32 38.037H53.3216C53.032 38.037 52.7542 37.922 52.5494 37.7172C52.3446 37.5124 52.2295 37.2346 52.2295 36.9449C52.2295 36.6553 52.3446 36.3775 52.5494 36.1727C52.7542 35.9679 53.032 35.8528 53.3216 35.8528H64.32C64.9233 35.8528 65.4121 36.3418 65.4121 36.9449C65.4121 37.5481 64.9233 38.037 64.32 38.037Z" fill="#C4E2FF"/>
<path d="M41.1874 33.5616L37.6003 51.4504L37.1337 53.778C36.8928 53.778 36.6518 53.7241 36.4296 53.6154L34.7839 52.8177V52.8166L21.8529 46.5441C21.5807 46.4117 21.3511 46.2054 21.1906 45.9487C21.0301 45.6921 20.9451 45.3954 20.9453 45.0926V28.6834C20.9453 28.3629 21.04 28.0576 21.2085 27.7992L41.1874 33.5616Z" fill="#E5CAF3"/>
<path d="M37.5976 51.4503L37.131 53.7778C36.8901 53.7778 36.6491 53.724 36.4269 53.6153L34.7812 52.8176V52.8165L37.5976 51.4503Z" fill="#D9B1EE"/>
<path d="M53.0557 27.7997L45.9756 32.7875L37.1283 35.5287L21.2031 27.7997C21.3629 27.5556 21.5859 27.3593 21.8483 27.2318L36.4245 20.1597C36.6393 20.0556 36.8746 20.0005 37.1133 19.9982C37.352 19.996 37.5882 20.0468 37.8049 20.1468C37.8143 20.1503 37.8237 20.155 37.8331 20.1597L52.4105 27.2318C52.673 27.3593 52.896 27.5555 53.0557 27.7997Z" fill="#6C7FD8"/>
<path d="M47.713 27.2318C47.9854 27.3641 48.2152 27.5705 48.3758 27.8272C48.5365 28.084 48.6217 28.3808 48.6216 28.6837V29.9525L50.4491 29.6375L53.0581 27.7997C52.8983 27.5556 52.6754 27.3593 52.413 27.2318L37.8355 20.1597C37.8263 20.1549 37.8169 20.1506 37.8073 20.1468C37.5906 20.0468 37.3544 19.996 37.1157 19.9982C36.877 20.0005 36.6417 20.0556 36.4269 20.1597L34.7812 20.958L47.713 27.2318Z" fill="#4F66D0"/>
<path d="M53.3237 45.0919C53.3237 45.7102 52.9713 46.2745 52.4151 46.5438L37.1328 51.6769V35.5283L48.6238 29.9521L53.3237 45.0919Z" fill="#CB97E7"/>
<path d="M53.0628 27.7994L48.6264 29.9523V45.0922C48.6264 45.7105 48.2741 46.2747 47.7178 46.544L37.1354 51.6771V53.7778C37.3797 53.778 37.6208 53.7223 37.8403 53.6151L52.4177 46.544C52.6902 46.4118 52.92 46.2055 53.0807 45.9487C53.2414 45.6919 53.3265 45.3951 53.3263 45.0922V28.6833C53.3263 28.3626 53.2315 28.057 53.0628 27.7994ZM25.5179 43.677C25.2852 43.677 25.0621 43.5845 24.8976 43.42C24.733 43.2555 24.6406 43.0324 24.6406 42.7997V39.6041C24.6406 39.3715 24.733 39.1484 24.8976 38.9838C25.0621 38.8193 25.2852 38.7269 25.5179 38.7269C25.7505 38.7269 25.9737 38.8193 26.1382 38.9838C26.3027 39.1484 26.3951 39.3715 26.3951 39.6041V42.7997C26.3951 43.0324 26.3026 43.2555 26.1381 43.42C25.9736 43.5845 25.7505 43.6769 25.5179 43.677Z" fill="#BD80E1"/>
<path d="M25.5179 36.8869C26.0023 36.8869 26.3951 36.4942 26.3951 36.0097C26.3951 35.5252 26.0023 35.1324 25.5179 35.1324C25.0334 35.1324 24.6406 35.5252 24.6406 36.0097C24.6406 36.4942 25.0334 36.8869 25.5179 36.8869Z" fill="#CB97E7"/>
<path d="M37.1349 9.01401C38.7929 9.01401 40.1369 7.66994 40.1369 6.01195C40.1369 4.35396 38.7929 3.00989 37.1349 3.00989C35.4769 3.00989 34.1328 4.35396 34.1328 6.01195C34.1328 7.66994 35.4769 9.01401 37.1349 9.01401Z" fill="#60B7FF"/>
<path d="M37.1349 70.631C38.7929 70.631 40.1369 69.2869 40.1369 67.6289C40.1369 65.9709 38.7929 64.6268 37.1349 64.6268C35.4769 64.6268 34.1328 65.9709 34.1328 67.6289C34.1328 69.2869 35.4769 70.631 37.1349 70.631Z" fill="#60B7FF"/>
<path d="M6.94347 39.9467C8.60146 39.9467 9.94553 38.6027 9.94553 36.9447C9.94553 35.2867 8.60146 33.9426 6.94347 33.9426C5.28548 33.9426 3.94141 35.2867 3.94141 36.9447C3.94141 38.6027 5.28548 39.9467 6.94347 39.9467Z" fill="#60B7FF"/>
<path d="M67.3224 39.9466C68.9804 39.9466 70.3244 38.6026 70.3244 36.9446C70.3244 35.2866 68.9804 33.9425 67.3224 33.9425C65.6644 33.9425 64.3203 35.2866 64.3203 36.9446C64.3203 38.6026 65.6644 39.9466 67.3224 39.9466Z" fill="#60B7FF"/>
</g>
<defs>
<clipPath id="clip0_829_57807">
<rect width="72.3729" height="72.3729" fill="white" transform="translate(0.945312 0.0107422)"/>
</clipPath>
</defs>
</svg>
