<svg width="53" height="52" viewBox="0 0 53 52" fill="none" xmlns="http://www.w3.org/2000/svg">
<g clip-path="url(#clip0_829_57890)">
<path d="M5.8718 40.1846H3.69653C3.12128 40.1846 2.65034 40.6194 2.65034 41.1506C2.65034 41.6819 2.17939 42.1163 1.60414 42.1163H1.18672C0.611164 42.1163 0.140625 42.5875 0.140625 43.1632V47.3812C0.140625 47.9568 0.611164 48.4278 1.18672 48.4278H1.60414C2.17939 48.4278 2.65023 48.8626 2.65023 49.3939C2.65023 49.925 3.12128 50.3595 3.69653 50.3595H5.8718V40.1846Z" fill="#FFB98A"/>
<path d="M9.1056 48.8629V47.8647C9.1056 47.3434 9.52932 46.9194 10.0501 46.9194V46.7162C9.52932 46.7162 9.1056 46.2925 9.1056 45.7712V44.7731C9.1056 44.2517 9.52932 43.8276 10.0501 43.8276V43.6245C9.52932 43.6245 9.1056 43.2004 9.1056 42.6794V41.6809C9.1056 41.1601 9.52932 40.7359 10.0501 40.7359H11.2836L5.77344 38.6075V40.286H6.86727C7.38818 40.286 7.8118 40.7101 7.8118 41.2315V44.7063C7.8118 45.2273 7.38818 45.6514 6.86727 45.6514H5.89287C5.85245 45.6514 5.81234 45.6478 5.77344 45.643V51.4781C5.77344 51.7661 6.00876 52.0019 6.29638 52.0019H9.45548C9.74311 52.0019 10.0165 51.7693 10.0628 51.4853L10.3354 49.8079H10.0502C9.52922 49.8083 9.1056 49.3842 9.1056 48.8629ZM32.5118 29.7568V38.0854C34.2526 37.5097 35.5095 35.8637 35.5095 33.9213C35.5095 31.9789 34.2527 30.3325 32.5118 29.7568Z" fill="#9EA7AF"/>
<path d="M42.3558 42.2127C42.256 42.2128 42.1572 42.1933 42.0649 42.1553C41.9727 42.1172 41.8889 42.0613 41.8182 41.9909C41.5202 41.6941 41.5186 41.2117 41.8154 40.9138C45.651 37.0584 45.651 30.785 41.8154 26.9291C41.673 26.7858 41.5934 26.5918 41.594 26.3899C41.5946 26.1879 41.6754 25.9944 41.8186 25.852C42.1165 25.5552 42.5989 25.5569 42.8957 25.8547C47.3204 30.3033 47.3204 37.5408 42.8957 41.9881C42.8249 42.0593 42.7408 42.1158 42.6482 42.1543C42.5555 42.1928 42.4561 42.2126 42.3558 42.2126V42.2127Z" fill="#C5CCD3"/>
<path d="M38.5197 39.7439C38.4199 39.744 38.3211 39.7245 38.2289 39.6865C38.1368 39.6484 38.053 39.5926 37.9824 39.5221C37.9114 39.4516 37.8551 39.3678 37.8166 39.2755C37.778 39.1832 37.7581 39.0842 37.7578 38.9841C37.7576 38.8841 37.777 38.785 37.8151 38.6925C37.8531 38.6 37.9091 38.5159 37.9796 38.445C40.4608 35.9508 40.4612 31.8922 37.9801 29.3976C37.9095 29.3267 37.8537 29.2426 37.8157 29.1501C37.7777 29.0576 37.7582 28.9585 37.7585 28.8585C37.7588 28.7585 37.7788 28.6595 37.8173 28.5673C37.8558 28.475 37.9121 28.3912 37.983 28.3207C38.054 28.2501 38.1381 28.1943 38.2306 28.1563C38.323 28.1183 38.4221 28.0988 38.5221 28.0991C38.6221 28.0994 38.7211 28.1194 38.8134 28.1579C38.9057 28.1964 38.9894 28.2528 39.06 28.3237C42.1302 31.4106 42.1302 36.4328 39.0596 39.5193C38.9889 39.5906 38.9048 39.6471 38.8121 39.6856C38.7194 39.7242 38.62 39.744 38.5197 39.7439Z" fill="#B3B3B3"/>
<path d="M3.72773 31.2462H0.917188C0.342039 31.2462 -0.128906 31.7172 -0.128906 32.2928V35.55C-0.128906 36.1256 0.342039 36.5966 0.917188 36.5966H3.72773V31.2462Z" fill="#9EA7AF"/>
<path d="M14.2422 27.8965V39.9463L31.1892 49.1972V18.646L14.2422 27.8965Z" fill="#FB8276"/>
<path d="M31.1913 18.6458L27.4102 20.7099V47.1328L31.1913 49.197V18.6458Z" fill="#EF5050"/>
<path d="M13.8558 26.0036L4.11331 29.767C3.84478 29.8706 3.625 30.1911 3.625 30.4787V37.364C3.625 37.652 3.84478 37.9721 4.11331 38.076L10.9998 40.7361H12.5902C13.1111 40.7361 13.5348 41.1603 13.5348 41.6811V41.7152L13.8558 41.8394C14.1244 41.943 14.3438 41.7922 14.3438 41.5046V26.338C14.3438 26.0504 14.124 25.8997 13.8558 26.0036Z" fill="#C0272D"/>
<path d="M10.5699 32.1243H8.03125C7.82923 32.1243 7.63548 32.044 7.49263 31.9012C7.34978 31.7583 7.26953 31.5646 7.26953 31.3625C7.26953 31.1605 7.34978 30.9668 7.49263 30.8239C7.63548 30.6811 7.82923 30.6008 8.03125 30.6008H10.5699C10.7719 30.6008 10.9657 30.6811 11.1085 30.8239C11.2514 30.9668 11.3316 31.1605 11.3316 31.3625C11.3316 31.5646 11.2514 31.7583 11.1085 31.9012C10.9657 32.044 10.7719 32.1243 10.5699 32.1243ZM10.5699 34.6832H8.03125C7.61068 34.6832 7.26953 34.342 7.26953 33.9215C7.26953 33.5011 7.61068 33.1598 8.03125 33.1598H10.5699C10.9904 33.1598 11.3316 33.5011 11.3316 33.9215C11.3316 34.342 10.9904 34.6832 10.5699 34.6832ZM10.5699 37.2421H8.03125C7.82923 37.2421 7.63548 37.1619 7.49263 37.019C7.34978 36.8762 7.26953 36.6824 7.26953 36.4804C7.26953 36.2784 7.34978 36.0846 7.49263 35.9418C7.63548 35.7989 7.82923 35.7187 8.03125 35.7187H10.5699C10.7719 35.7187 10.9657 35.7989 11.1085 35.9418C11.2514 36.0846 11.3316 36.2784 11.3316 36.4804C11.3316 36.6824 11.2514 36.8762 11.1085 37.019C10.9657 37.1619 10.7719 37.2421 10.5699 37.2421Z" fill="#EF5050"/>
<path d="M31.8516 52.7119C31.4311 52.7119 31.0898 52.3707 31.0898 51.9502V15.8931C31.0898 15.691 31.1701 15.4973 31.3129 15.3545C31.4558 15.2116 31.6495 15.1313 31.8516 15.1313C32.0536 15.1313 32.2473 15.2116 32.3902 15.3545C32.533 15.4973 32.6133 15.691 32.6133 15.8931V51.9502C32.6133 52.1522 32.533 52.346 32.3902 52.4888C32.2473 52.6317 32.0536 52.7119 31.8516 52.7119Z" fill="#C0272D"/>
<path d="M51.8687 7.96295C51.8687 7.67532 51.6335 7.4397 51.3455 7.4397H35.9135C35.6258 7.4397 35.3906 7.67532 35.3906 7.96295V19.6569C35.3906 19.945 35.6258 20.1802 35.9135 20.1802H37.9911C38.2792 20.1802 38.5145 20.4158 38.5145 20.7039V23.4048C38.5145 23.6928 38.6815 23.7627 38.8858 23.56L41.9212 20.5488C42.1254 20.3465 42.5281 20.1806 42.8158 20.1806H51.3455C51.6335 20.1806 51.8687 19.945 51.8687 19.6574V7.96295Z" fill="#0291C9"/>
<path d="M48.1136 11.6253H39.1523C38.9503 11.6253 38.7566 11.5451 38.6137 11.4022C38.4709 11.2594 38.3906 11.0656 38.3906 10.8636C38.3906 10.6616 38.4709 10.4678 38.6137 10.325C38.7566 10.1821 38.9503 10.1019 39.1523 10.1019H48.1136C48.3156 10.1019 48.5094 10.1821 48.6522 10.325C48.7951 10.4678 48.8753 10.6616 48.8753 10.8636C48.8753 11.2845 48.5346 11.6253 48.1136 11.6253ZM48.1136 14.5718H39.1523C38.7319 14.5718 38.3906 14.2306 38.3906 13.8101C38.3906 13.3895 38.7319 13.0484 39.1523 13.0484H48.1136C48.3156 13.0484 48.5094 13.1287 48.6522 13.2715C48.7951 13.4144 48.8753 13.6081 48.8753 13.8101C48.8753 14.0121 48.7951 14.2059 48.6522 14.3487C48.5094 14.4916 48.3156 14.5718 48.1136 14.5718ZM43.1565 17.5183H39.1523C38.7319 17.5183 38.3906 17.177 38.3906 16.7565C38.3906 16.3361 38.7319 15.9948 39.1523 15.9948H43.1565C43.577 15.9948 43.9183 16.3361 43.9183 16.7565C43.9183 17.177 43.577 17.5183 43.1565 17.5183Z" fill="#08375E"/>
<path d="M12.5625 1.33575C12.5625 1.04812 12.7978 0.8125 13.0854 0.8125H28.5174C28.8054 0.8125 29.0406 1.04812 29.0406 1.33575V13.0298C29.0403 13.1684 28.985 13.3013 28.887 13.3994C28.7889 13.4974 28.656 13.5527 28.5174 13.553H26.4397C26.1521 13.553 25.9169 13.7886 25.9169 14.0768V16.778C25.9169 17.0656 25.7494 17.1355 25.5451 16.9328L22.5101 13.9216C22.3054 13.7193 21.9031 13.5534 21.6151 13.5534H13.0854C12.7978 13.5534 12.5625 13.3178 12.5625 13.0302V1.33575Z" fill="#FFC502"/>
<path d="M25.286 4.99805H16.3242C16.2242 4.99805 16.1251 4.97834 16.0327 4.94006C15.9403 4.90178 15.8563 4.84568 15.7856 4.77494C15.7149 4.70421 15.6588 4.62024 15.6205 4.52783C15.5822 4.43541 15.5625 4.33636 15.5625 4.23633C15.5625 4.1363 15.5822 4.03725 15.6205 3.94483C15.6588 3.85242 15.7149 3.76844 15.7856 3.69771C15.8563 3.62698 15.9403 3.57087 16.0327 3.53259C16.1251 3.49431 16.2242 3.47461 16.3242 3.47461H25.286C25.386 3.47461 25.4851 3.49431 25.5775 3.53259C25.6699 3.57087 25.7539 3.62698 25.8246 3.69771C25.8953 3.76844 25.9514 3.85242 25.9897 3.94483C26.028 4.03725 26.0477 4.1363 26.0477 4.23633C26.0477 4.33636 26.028 4.43541 25.9897 4.52783C25.9514 4.62024 25.8953 4.70421 25.8246 4.77494C25.7539 4.84568 25.6699 4.90178 25.5775 4.94006C25.4851 4.97834 25.386 4.99805 25.286 4.99805ZM25.286 7.94468H16.3242C15.9038 7.94468 15.5625 7.60343 15.5625 7.18296C15.5625 6.76249 15.9038 6.42124 16.3242 6.42124H25.286C25.7065 6.42124 26.0477 6.76239 26.0477 7.18296C26.0477 7.60353 25.7065 7.94468 25.286 7.94468ZM20.3284 10.8911H16.3242C16.1222 10.8911 15.9285 10.8109 15.7856 10.668C15.6428 10.5252 15.5625 10.3314 15.5625 10.1294C15.5625 9.92737 15.6428 9.73362 15.7856 9.59078C15.9285 9.44793 16.1222 9.36767 16.3242 9.36767H20.3284C20.5304 9.36767 20.7242 9.44793 20.867 9.59078C21.0099 9.73362 21.0901 9.92737 21.0901 10.1294C21.0901 10.5504 20.7494 10.8911 20.3284 10.8911Z" fill="#775436"/>
<path d="M3.69653 40.1846C3.12128 40.1846 2.65034 40.6194 2.65034 41.1506C2.65034 41.6819 2.17939 42.1163 1.60414 42.1163H1.18672C0.611164 42.1163 0.140625 42.5875 0.140625 43.1632V44.3324H3.40647C4.03006 44.3324 4.57088 43.9805 4.84348 43.465V44.7065C4.84348 45.2821 5.31432 45.753 5.88957 45.753H6.86396C7.43962 45.753 7.91056 45.2821 7.91056 44.7064V41.2316C7.91056 40.6559 7.43962 40.1846 6.86396 40.1846H3.69653Z" fill="#FFC7A1"/>
<path d="M13.6389 42.6796V41.681C13.6389 41.1054 13.168 40.6345 12.5928 40.6345H10.0505C9.47485 40.6345 9.00391 41.1054 9.00391 41.681V42.6796C9.00391 43.2552 9.47485 43.7262 10.0505 43.7262C9.47485 43.7262 9.00391 44.1974 9.00391 44.7732V45.7713C9.00391 46.347 9.47485 46.818 10.0505 46.818C9.47485 46.818 9.00391 47.2892 9.00391 47.8649V48.863C9.00391 49.4387 9.47485 49.91 10.0505 49.91H12.5927C13.168 49.91 13.6388 49.4388 13.6388 48.863V47.8649C13.6388 47.2892 13.168 46.818 12.5927 46.818C13.168 46.818 13.6388 46.347 13.6388 45.7713V44.7732C13.6388 44.1971 13.168 43.7262 12.5927 43.7262C13.168 43.7262 13.6389 43.2552 13.6389 42.6796Z" fill="#FFB98A"/>
<path d="M13.6389 45.7715C13.6389 46.3471 13.168 46.8181 12.5928 46.8181H10.0505C9.47485 46.8181 9.00391 46.3471 9.00391 45.7715V44.7733C9.00391 44.1973 9.47485 43.7263 10.0505 43.7263H12.5927C13.168 43.7263 13.6388 44.1976 13.6388 44.7733L13.6389 45.7715Z" fill="#FFC7A1"/>
</g>
<defs>
<clipPath id="clip0_829_57890">
<rect width="52" height="52" fill="white" transform="translate(0.683594)"/>
</clipPath>
</defs>
</svg>
