<svg width="61" height="62" viewBox="0 0 61 62" fill="none" xmlns="http://www.w3.org/2000/svg">
<path d="M48.5812 11.2335V47.9905C48.5812 48.0638 48.58 48.1372 48.5763 48.2106C48.4612 50.7278 46.3832 52.735 43.8353 52.735H17.156C14.5347 52.735 12.4102 50.6103 12.4102 47.9903V5.4333C12.4102 3.1803 13.9795 1.29416 16.0845 0.808526C16.436 0.727822 16.7954 0.687221 17.156 0.687501H38.3483C39.0687 0.687501 39.772 0.851463 40.4092 1.15969C41.6913 1.77672 42.0524 2.55654 44.3563 4.91228C47.0069 7.79033 47.6398 8.08534 48.1799 9.33157C48.4449 9.9306 48.5816 10.5785 48.5812 11.2335Z" fill="#FFC477"/>
<path d="M48.5836 11.2335V47.9905C48.5836 48.0638 48.5825 48.1372 48.5787 48.2106C48.2273 48.2914 47.8678 48.332 47.5072 48.3317H20.8278C18.2066 48.3317 16.082 46.2071 16.082 43.5871V1.02993C16.082 0.955266 16.0832 0.881896 16.0869 0.808526C16.4383 0.727828 16.7978 0.687228 17.1584 0.687501H38.3507C39.0712 0.687501 39.7744 0.851463 40.4116 1.15969C40.9405 1.4146 41.4175 1.76549 41.8183 2.19453L44.3588 4.9124L47.2674 7.95559C47.6516 8.35635 47.9614 8.82232 48.1822 9.33168C48.4474 9.93065 48.5841 10.5785 48.5836 11.2335Z" fill="#FFDAAA"/>
<path d="M60.7585 27.6937V54.3755C60.7585 55.8592 60.2765 57.2316 59.4596 58.3422C58.24 60.0033 56.272 61.0821 54.052 61.0821H36.6245C32.9207 61.0821 29.918 58.0792 29.918 54.3756V27.6937C29.918 24.9257 31.5962 22.5491 33.9899 21.5253C34.8225 21.1691 35.7189 20.9859 36.6246 20.9871H54.052C57.757 20.9872 60.7585 23.99 60.7585 27.6937Z" fill="#4CBA68"/>
<path d="M60.7551 27.6937V54.3755C60.7551 55.8592 60.2731 57.2316 59.4561 58.3422C58.6235 58.6984 57.7271 58.8815 56.8214 58.8804H39.394C35.6902 58.8804 32.6875 55.8776 32.6875 52.1739V25.492C32.6875 24.0083 33.1695 22.6359 33.9865 21.5253C34.8191 21.1691 35.7155 20.9859 36.6212 20.9871H54.0486C57.7535 20.9872 60.7551 23.99 60.7551 27.6937Z" fill="#7CCC92"/>
<path d="M47.9054 45.2357V48.3693C47.9054 48.9234 47.4565 49.3723 46.9036 49.3723H43.7686C43.6369 49.3723 43.5065 49.3464 43.3848 49.296C43.2631 49.2456 43.1525 49.1717 43.0594 49.0786C42.9662 48.9854 42.8923 48.8749 42.8419 48.7532C42.7915 48.6315 42.7656 48.501 42.7656 48.3693V45.2357C42.7656 45.1039 42.7915 44.9735 42.8419 44.8518C42.8923 44.7301 42.9662 44.6195 43.0594 44.5264C43.1525 44.4333 43.2631 44.3594 43.3848 44.309C43.5065 44.2586 43.6369 44.2327 43.7686 44.2327H46.9036C47.4566 44.2327 47.9054 44.6816 47.9054 45.2357Z" fill="#2C733F"/>
<path d="M56.1502 27.0649V30.4224C56.1502 31.6163 55.1827 32.5849 53.9877 32.5849H36.6899C35.496 32.5849 34.5273 31.6161 34.5273 30.4224V27.0649C34.5273 25.871 35.4961 24.9023 36.6899 24.9023H53.9877C55.1827 24.9023 56.1502 25.8711 56.1502 27.0649Z" fill="#1E81CE"/>
<path d="M56.1487 27.065V30.4225C56.1487 31.6164 55.1812 32.5851 53.9862 32.5851H40.3578C39.164 32.5851 38.1953 31.6163 38.1953 30.4225V27.065C38.1953 25.8711 39.1641 24.9025 40.3578 24.9025H53.9862C55.1812 24.9025 56.1487 25.8713 56.1487 27.065Z" fill="#3D9AE2"/>
<path d="M39.6683 45.236V48.3696C39.6683 48.5013 39.6424 48.6318 39.592 48.7535C39.5416 48.8752 39.4677 48.9857 39.3746 49.0789C39.2814 49.172 39.1708 49.2459 39.0491 49.2963C38.9275 49.3467 38.797 49.3726 38.6653 49.3726H35.5303C34.9775 49.3726 34.5273 48.9237 34.5273 48.3696V45.236C34.5273 44.6819 34.9775 44.233 35.5303 44.233H38.6653C38.797 44.2329 38.9275 44.2588 39.0492 44.3092C39.1709 44.3596 39.2815 44.4335 39.3746 44.5267C39.4677 44.6198 39.5416 44.7304 39.592 44.8521C39.6424 44.9738 39.6683 45.1042 39.6683 45.236ZM47.9087 37.0408V40.1745C47.9087 40.7286 47.4598 41.1775 46.9069 41.1775H43.7719C43.6402 41.1775 43.5098 41.1516 43.3881 41.1012C43.2664 41.0508 43.1558 40.9769 43.0627 40.8838C42.9695 40.7906 42.8957 40.68 42.8453 40.5584C42.7949 40.4367 42.7689 40.3062 42.7689 40.1745V37.0408C42.7689 36.9091 42.7949 36.7787 42.8453 36.657C42.8957 36.5353 42.9695 36.4247 43.0627 36.3316C43.1558 36.2384 43.2664 36.1646 43.3881 36.1142C43.5098 36.0638 43.6402 36.0378 43.7719 36.0378H46.9069C47.4599 36.0378 47.9087 36.4868 47.9087 37.0408Z" fill="#2C733F"/>
<path d="M56.249 37.0407V40.1744C56.249 40.3061 56.2231 40.4365 56.1727 40.5582C56.1223 40.6799 56.0484 40.7905 55.9553 40.8836C55.8622 40.9768 55.7516 41.0507 55.6299 41.1011C55.5082 41.1515 55.3778 41.1774 55.246 41.1774H52.1124C51.9806 41.1774 51.8502 41.1515 51.7285 41.1011C51.6068 41.0507 51.4963 40.9768 51.4031 40.8836C51.31 40.7905 51.2361 40.6799 51.1857 40.5582C51.1353 40.4365 51.1094 40.3061 51.1094 40.1744V37.0407C51.1094 36.909 51.1353 36.7786 51.1857 36.6569C51.2361 36.5352 51.31 36.4246 51.4031 36.3315C51.4963 36.2383 51.6068 36.1644 51.7285 36.114C51.8502 36.0636 51.9806 36.0377 52.1124 36.0377H55.246C55.3778 36.0377 55.5082 36.0636 55.6299 36.114C55.7516 36.1644 55.8622 36.2383 55.9553 36.3314C56.0485 36.4246 56.1224 36.5351 56.1727 36.6568C56.2231 36.7785 56.2491 36.909 56.249 37.0407Z" fill="#EE8700"/>
<path d="M39.6683 37.0408V40.1745C39.6683 40.3062 39.6424 40.4367 39.592 40.5584C39.5416 40.68 39.4677 40.7906 39.3746 40.8838C39.2814 40.9769 39.1708 41.0508 39.0491 41.1012C38.9275 41.1516 38.797 41.1775 38.6653 41.1775H35.5303C34.9775 41.1775 34.5273 40.7286 34.5273 40.1745V37.0408C34.5273 36.4868 34.9775 36.0378 35.5303 36.0378H38.6653C38.797 36.0378 38.9275 36.0637 39.0492 36.1141C39.1709 36.1645 39.2815 36.2384 39.3746 36.3315C39.4677 36.4247 39.5416 36.5353 39.592 36.657C39.6424 36.7787 39.6683 36.9091 39.6683 37.0408ZM47.9087 53.0287V56.1637C47.9087 56.7177 47.4598 57.1667 46.9069 57.1667H43.7719C43.6402 57.1667 43.5098 57.1408 43.3881 57.0904C43.2664 57.04 43.1558 56.9661 43.0627 56.8729C42.9695 56.7798 42.8957 56.6692 42.8453 56.5475C42.7949 56.4258 42.7689 56.2954 42.7689 56.1637V53.0287C42.7689 52.4758 43.2179 52.0269 43.7719 52.0269H46.9069C47.4599 52.0269 47.9087 52.4758 47.9087 53.0287ZM39.6683 53.0287V56.1637C39.6683 56.2954 39.6424 56.4258 39.592 56.5475C39.5416 56.6692 39.4677 56.7798 39.3746 56.8729C39.2814 56.9661 39.1708 57.04 39.0491 57.0904C38.9275 57.1408 38.797 57.1667 38.6653 57.1667H35.5303C34.9775 57.1667 34.5273 56.7177 34.5273 56.1637V53.0287C34.5273 52.4758 34.9775 52.0269 35.5303 52.0269H38.6653C39.2195 52.0269 39.6683 52.4758 39.6683 53.0287Z" fill="#2C733F"/>
<path d="M56.2489 45.7229V55.4555C56.2489 56.401 55.4832 57.1667 54.539 57.1667H52.8193C51.875 57.1667 51.1094 56.401 51.1094 55.4555V45.7229C51.1094 44.8997 51.7772 44.2331 52.5992 44.2331H54.7592C55.5823 44.2331 56.2489 44.8998 56.2489 45.7229Z" fill="#EE8700"/>
<path d="M47.9087 45.236V46.1679C47.9087 46.722 47.4598 47.1709 46.9069 47.1709H43.7719C43.6402 47.1709 43.5098 47.145 43.3881 47.0946C43.2664 47.0442 43.1558 46.9703 43.0627 46.8772C42.9695 46.7841 42.8957 46.6735 42.8453 46.5518C42.7949 46.4301 42.7689 46.2997 42.7689 46.1679V45.236C42.7689 45.1042 42.7949 44.9738 42.8453 44.8521C42.8957 44.7304 42.9695 44.6198 43.0627 44.5267C43.1558 44.4336 43.2664 44.3597 43.3881 44.3093C43.5098 44.2589 43.6402 44.2329 43.7719 44.233H46.9069C47.4599 44.233 47.9087 44.6819 47.9087 45.236ZM39.6683 45.236V46.1679C39.6683 46.2997 39.6424 46.4301 39.592 46.5518C39.5416 46.6735 39.4677 46.7841 39.3746 46.8772C39.2814 46.9703 39.1708 47.0442 39.0491 47.0946C38.9275 47.145 38.797 47.1709 38.6653 47.1709H35.5303C34.9775 47.1709 34.5273 46.722 34.5273 46.1679V45.236C34.5273 44.6819 34.9775 44.233 35.5303 44.233H38.6653C38.797 44.2329 38.9275 44.2588 39.0492 44.3092C39.1709 44.3596 39.2815 44.4335 39.3746 44.5267C39.4677 44.6198 39.5416 44.7304 39.592 44.8521C39.6424 44.9738 39.6683 45.1042 39.6683 45.236ZM47.9087 37.0408V37.9728C47.9087 38.5269 47.4598 38.9758 46.9069 38.9758H43.7719C43.6402 38.9758 43.5098 38.9499 43.3881 38.8995C43.2664 38.8491 43.1558 38.7752 43.0627 38.6821C42.9695 38.5889 42.8957 38.4784 42.8453 38.3567C42.7949 38.235 42.7689 38.1045 42.7689 37.9728V37.0408C42.7689 36.9091 42.7949 36.7787 42.8453 36.657C42.8957 36.5353 42.9695 36.4247 43.0627 36.3316C43.1558 36.2384 43.2664 36.1646 43.3881 36.1142C43.5098 36.0638 43.6402 36.0378 43.7719 36.0378H46.9069C47.4599 36.0378 47.9087 36.4868 47.9087 37.0408Z" fill="#317F46"/>
<path d="M56.249 37.0407V37.9727C56.249 38.1044 56.2231 38.2349 56.1727 38.3565C56.1223 38.4782 56.0484 38.5888 55.9553 38.682C55.8622 38.7751 55.7516 38.849 55.6299 38.8994C55.5082 38.9498 55.3778 38.9757 55.246 38.9757H52.1124C51.9806 38.9757 51.8502 38.9498 51.7285 38.8994C51.6068 38.849 51.4963 38.7751 51.4031 38.682C51.31 38.5888 51.2361 38.4782 51.1857 38.3565C51.1353 38.2349 51.1094 38.1044 51.1094 37.9727V37.0407C51.1094 36.909 51.1353 36.7786 51.1857 36.6569C51.2361 36.5352 51.31 36.4246 51.4031 36.3315C51.4963 36.2383 51.6068 36.1644 51.7285 36.114C51.8502 36.0636 51.9806 36.0377 52.1124 36.0377H55.246C55.3778 36.0377 55.5082 36.0636 55.6299 36.114C55.7516 36.1644 55.8622 36.2383 55.9553 36.3314C56.0485 36.4246 56.1224 36.5351 56.1727 36.6568C56.2231 36.7785 56.2491 36.909 56.249 37.0407Z" fill="#FF9811"/>
<path d="M39.6683 37.0408V37.9728C39.6683 38.1045 39.6424 38.235 39.592 38.3567C39.5416 38.4784 39.4677 38.5889 39.3746 38.6821C39.2814 38.7752 39.1708 38.8491 39.0491 38.8995C38.9275 38.9499 38.797 38.9758 38.6653 38.9758H35.5303C34.9775 38.9758 34.5273 38.5269 34.5273 37.9728V37.0408C34.5273 36.4868 34.9775 36.0378 35.5303 36.0378H38.6653C38.797 36.0378 38.9275 36.0637 39.0492 36.1141C39.1709 36.1645 39.2815 36.2384 39.3746 36.3315C39.4677 36.4247 39.5416 36.5353 39.592 36.657C39.6424 36.7787 39.6683 36.9091 39.6683 37.0408ZM47.9087 53.0287V53.962C47.9087 54.516 47.4598 54.965 46.9069 54.965H43.7719C43.6402 54.965 43.5098 54.9391 43.3881 54.8887C43.2664 54.8383 43.1558 54.7644 43.0627 54.6713C42.9695 54.5781 42.8957 54.4675 42.8453 54.3458C42.7949 54.2241 42.7689 54.0937 42.7689 53.962V53.0287C42.7689 52.4758 43.2179 52.0269 43.7719 52.0269H46.9069C47.4599 52.0269 47.9087 52.4758 47.9087 53.0287ZM39.6683 53.0287V53.962C39.6683 54.0937 39.6424 54.2241 39.592 54.3458C39.5416 54.4675 39.4677 54.5781 39.3746 54.6713C39.2814 54.7644 39.1708 54.8383 39.0491 54.8887C38.9275 54.9391 38.797 54.965 38.6653 54.965H35.5303C34.9775 54.965 34.5273 54.516 34.5273 53.962V53.0287C34.5273 52.4758 34.9775 52.0269 35.5303 52.0269H38.6653C39.2195 52.0269 39.6683 52.4758 39.6683 53.0287Z" fill="#317F46"/>
<path d="M56.2489 45.7229V53.2538C56.2489 54.1993 55.4832 54.965 54.539 54.965H52.8193C51.875 54.965 51.1094 54.1993 51.1094 53.2538V45.7229C51.1094 44.8997 51.7772 44.2331 52.5992 44.2331H54.7592C55.5823 44.2331 56.2489 44.8998 56.2489 45.7229Z" fill="#FF9811"/>
<path d="M48.1814 9.33143H42.2346C41.227 9.33143 40.4102 8.51457 40.4102 7.50698V1.15967C40.939 1.41432 41.416 1.76498 41.8168 2.1938L44.3582 4.91191L47.2665 7.95557C47.6503 8.35653 47.9601 8.82236 48.1814 9.33143Z" fill="#FFB655"/>
<path d="M23.1303 26.3563C22.0117 25.9453 21.2037 25.6484 21.2037 24.6122C21.2037 23.6678 21.8308 23.1889 23.0679 23.1889C23.8991 23.1889 24.3679 23.4301 24.6788 23.59C24.8633 23.6848 25.0227 23.7668 25.1971 23.7668C25.7006 23.7668 25.9791 23.2326 25.9791 22.8631C25.9791 22.0989 24.7325 21.7199 23.618 21.62V20.9308C23.618 20.4515 23.228 20.0615 22.7487 20.0615C22.2693 20.0615 21.8793 20.4515 21.8793 20.9308V21.7295C20.3555 22.0913 19.5183 23.1439 19.5183 24.7033C19.5183 26.8384 21.0902 27.429 22.3534 27.9039C23.5903 28.3687 24.5673 28.7358 24.5673 30.1479C24.5673 31.3143 23.9196 31.9058 22.6423 31.9058C21.4853 31.9058 21.0244 31.4089 20.6879 31.0462C20.4874 30.83 20.3144 30.6434 20.0419 30.6434C19.6003 30.6434 19.2445 31.1377 19.2445 31.547C19.2445 32.2699 20.3211 33.22 21.8794 33.4668V34.1327C21.8794 34.6121 22.2694 35.002 22.7488 35.002C23.2282 35.002 23.6181 34.6121 23.6181 34.1327V33.449C25.2943 33.1336 26.2531 31.9027 26.2531 30.0566C26.2527 27.5036 24.5213 26.8675 23.1303 26.3563ZM39.3039 14.0806H41.6082C42.1149 14.0806 42.5256 13.67 42.5256 13.1632C42.5256 12.6565 42.1149 12.2458 41.6082 12.2458H39.3039C38.7973 12.2458 38.3866 12.6565 38.3866 13.1632C38.3866 13.67 38.7973 14.0806 39.3039 14.0806ZM19.3666 14.0806H35.6345C36.1411 14.0806 36.5519 13.67 36.5519 13.1632C36.5519 12.6565 36.1411 12.2458 35.6345 12.2458H19.3666C18.8599 12.2458 18.4492 12.6565 18.4492 13.1632C18.4492 13.67 18.8599 14.0806 19.3666 14.0806ZM22.2825 18.634C22.7891 18.634 23.1999 18.2234 23.1999 17.7166C23.1999 17.2099 22.7891 16.7993 22.2825 16.7993H19.3666C18.8599 16.7993 18.4492 17.2099 18.4492 17.7166C18.4492 18.2234 18.8599 18.634 19.3666 18.634H22.2825ZM41.6082 16.7993H25.9519C25.4453 16.7993 25.0346 17.2099 25.0346 17.7166C25.0346 18.2234 25.4453 18.634 25.9519 18.634H41.6082C42.1149 18.634 42.5256 18.2234 42.5256 17.7166C42.5256 17.2099 42.1149 16.7993 41.6082 16.7993Z" fill="#4E901E"/>
<path d="M26.7879 58.1978C26.7879 58.8375 26.5261 59.4172 26.1054 59.8393C25.6834 60.26 25.1035 60.5218 24.4639 60.5218H10.2263C8.94816 60.5218 7.90234 59.476 7.90234 58.1978C7.90234 57.5581 8.16409 56.9783 8.58485 56.5563C9.00678 56.1355 9.58666 55.8738 10.2263 55.8738H24.4639C25.7422 55.8738 26.7879 56.9196 26.7879 58.1978Z" fill="#AA6100"/>
<path d="M26.7879 53.5498C26.7879 54.1895 26.5261 54.7693 26.1054 55.1913C25.6834 55.6121 25.1035 55.8738 24.4639 55.8738H10.2263C8.94816 55.8738 7.90234 54.828 7.90234 53.5498C7.90234 52.9101 8.16409 52.3304 8.58485 51.9083C9.00678 51.4876 9.58666 51.2258 10.2263 51.2258H24.4639C25.7422 51.2258 26.7879 52.2716 26.7879 53.5498Z" fill="#CC7400"/>
<path d="M26.7879 48.9019C26.7879 49.5416 26.5261 50.1213 26.1054 50.5434C25.6834 50.9641 25.1035 51.2259 24.4639 51.2259H10.2263C8.94816 51.2259 7.90234 50.1801 7.90234 48.9019C7.90234 48.2622 8.16409 47.6824 8.58485 47.2604C9.00678 46.8396 9.58666 46.5779 10.2263 46.5779H24.4639C25.7422 46.578 26.7879 47.6237 26.7879 48.9019Z" fill="#EE8700"/>
<path d="M26.7879 44.2539C26.7879 44.8936 26.5261 45.4734 26.1054 45.8954C25.6834 46.3162 25.1035 46.5779 24.4639 46.5779H10.2263C8.94816 46.5779 7.90234 45.5321 7.90234 44.2539C7.90234 43.799 8.03564 43.3733 8.26436 43.0136C8.35591 42.8684 8.4634 42.7338 8.58485 42.6124C9.00678 42.1917 9.58666 41.9299 10.2263 41.9299H24.4639C25.7422 41.9299 26.7879 42.9757 26.7879 44.2539Z" fill="#FF9811"/>
<path d="M24.4633 41.93H10.2263C8.94816 41.93 7.90234 40.8842 7.90234 39.606C7.90234 38.3278 8.94816 37.282 10.2263 37.282H24.4634C25.7416 37.282 26.7874 38.3278 26.7874 39.606C26.7873 40.8842 25.7416 41.93 24.4633 41.93Z" fill="#FFA733"/>
<path d="M10.7297 45.657V60.7864H8.41452C6.37019 60.8742 4.47945 60.141 3.06195 58.881C-2.08242 54.3157 1.04888 45.9482 7.7667 45.657H10.7297Z" fill="#CC7400"/>
<path d="M18.6124 53.4956C18.4762 57.4082 15.3468 60.6159 11.3704 60.7861C7.19307 60.9647 3.66176 57.723 3.48318 53.5456C3.48247 53.5286 3.48164 53.5125 3.48164 53.4956C3.33066 49.3391 6.56329 45.8356 10.7237 45.6577C14.901 45.4791 18.4323 48.7208 18.6109 52.899C18.6194 53.0997 18.6201 53.2984 18.6124 53.4956Z" fill="#FFC477"/>
<path d="M12.2987 58.7469C12.2063 58.7677 12.1146 58.7862 12.0223 58.8024C9.06617 59.3229 6.19178 57.4334 5.52024 54.4742C4.82878 51.4225 6.74146 48.3887 9.79303 47.6964C10.5283 47.5289 11.2896 47.5101 12.0322 47.641C14.2098 48.0275 16.051 49.6769 16.5708 51.9692C17.2629 55.0208 15.3503 58.0555 12.2987 58.7469Z" fill="#CC7400"/>
<path d="M12.3 58.7471C12.2076 58.7678 12.1159 58.7864 12.0236 58.8025C9.84684 58.416 8.00493 56.7659 7.48509 54.4743C6.79362 51.4226 8.70631 48.3888 11.7579 47.6966C11.8493 47.6759 11.9412 47.6574 12.0335 47.6411C14.2112 48.0277 16.0524 49.6771 16.5721 51.9693C17.2643 55.0209 15.3516 58.0556 12.3 58.7471Z" fill="#EE8700"/>
<path d="M18.6113 53.4951C18.475 57.4077 15.3456 60.6154 11.3692 60.7856C7.19189 60.9642 3.66059 57.7225 3.482 53.5451C3.48129 53.5281 3.48047 53.512 3.48047 53.4951H5.38537C5.40201 53.8246 5.44712 54.1521 5.5202 54.4738C6.21249 57.5255 9.24707 59.4389 12.2986 58.7466C14.8374 58.1713 16.5876 55.9753 16.7054 53.4951H18.6113Z" fill="#FFA733"/>
<path d="M11.7266 52.0713L11.5844 52.0188C10.7788 51.7227 10.6968 51.6288 10.6968 51.3558C10.6968 51.1259 10.7815 51.0598 10.8609 51.0158C10.9845 50.9474 11.1785 50.9097 11.4071 50.9097C11.8068 50.9097 12.008 51.0133 12.1873 51.1055C12.3245 51.176 12.4801 51.2559 12.6825 51.2559C13.2057 51.2559 13.5573 50.7659 13.5573 50.3082C13.5573 49.7504 13.0584 49.3659 12.1432 49.2085V49.1509C12.1432 48.6398 11.7273 48.2239 11.2162 48.2239C10.705 48.2239 10.2891 48.6398 10.2891 49.1509V49.3268C9.38604 49.6544 8.87505 50.3994 8.87505 51.4103C8.87505 52.9705 10.0086 53.3964 10.8366 53.7076C11.6259 54.0043 11.899 54.1342 11.899 54.6712C11.899 55.0069 11.8087 55.3175 11.1525 55.3175C10.6367 55.3175 10.4553 55.1219 10.2797 54.9325C10.1427 54.7847 9.93549 54.5616 9.59494 54.5616C9.08902 54.5616 8.71097 55.0619 8.71097 55.5092C8.71097 56.143 9.37 56.7444 10.2892 56.9885V57.0579C10.2892 57.569 10.7052 57.9849 11.2163 57.9849C11.7274 57.9849 12.1433 57.569 12.1433 57.0579V56.9642C13.1378 56.6444 13.7215 55.7882 13.7215 54.6166C13.7209 52.8149 12.4237 52.3312 11.7266 52.0713ZM4.72895 49.0493C4.35343 49.6167 4.05636 50.2322 3.8458 50.8791H0.891427C1.10186 50.2164 1.42047 49.5806 1.77328 49.0493H4.72895ZM3.53474 54.1713H0.579075C0.502677 53.564 0.499785 52.9496 0.570464 52.3415H3.52731C3.45642 52.9357 3.45795 53.5533 3.53474 54.1713ZM4.83263 57.5466H1.87578C1.482 56.9823 1.16761 56.3666 0.941441 55.7168H3.89711C4.12309 56.3669 4.43791 56.9827 4.83263 57.5466Z" fill="#AA6100"/>
</svg>
