<svg width="59" height="51" viewBox="0 0 59 51" fill="none" xmlns="http://www.w3.org/2000/svg">
<path d="M38.3349 3.82342L3.186 3.81363C1.4266 3.81317 0 5.23931 0 6.99871V13.3946L1.06845 15.7835L38.3359 15.7927L38.3349 3.82342Z" fill="#FFC250"/>
<path d="M48.5739 42.718L48.5707 3.59014C48.5706 1.84837 47.1721 0.434103 45.4369 0.406677L39.1518 0.407484C38.5415 0.407616 37.9441 0.583061 37.4307 0.912946C36.9172 1.24283 36.5094 1.71327 36.2556 2.26829L33.4759 8.34875C33.2221 8.90387 32.8142 9.37439 32.3006 9.70428C31.7871 10.0342 31.1896 10.2096 30.5792 10.2096H3.18508C1.42603 10.2096 0 11.6356 0 13.3946V42.7325C0 44.4919 1.4266 45.9181 3.186 45.9176L45.3898 45.9034C47.1486 45.9028 48.5742 44.4768 48.5739 42.718Z" fill="#FFE07D"/>
<path d="M54.9614 3.59021C54.9613 1.83105 53.5349 0.405135 51.7758 0.405365L44.094 0.406633C45.8292 0.434059 47.2277 1.84833 47.2278 3.5901L47.231 42.7179C47.2311 44.4768 45.8057 45.9028 44.0469 45.9032H51.7804C53.5392 45.9027 54.9646 44.4768 54.9645 42.7179L54.9614 3.59021Z" fill="#FFD064"/>
<path d="M51.897 37.6659C51.897 32.0328 48.5038 27.2068 43.6824 25.18C43.4876 25.4073 43.3806 25.6969 43.3808 25.9962C43.3808 26.5347 43.0387 27.0149 42.5285 27.1872C42.0621 27.3447 41.6067 27.5334 41.1655 27.7521C40.9297 27.8687 40.6633 27.9085 40.4037 27.8657C40.1441 27.823 39.9045 27.6999 39.7185 27.5137L39.7182 27.5134C39.2266 27.0218 38.4295 27.0218 37.9379 27.5134L35.9166 29.5348C35.425 30.0264 35.425 30.8235 35.9166 31.3151L35.917 31.3154C36.1031 31.5014 36.2262 31.741 36.2689 32.0006C36.3117 32.2602 36.2719 32.5266 36.1553 32.7624C35.9367 33.2036 35.7479 33.659 35.5904 34.1254C35.4181 34.6357 34.9379 34.9777 34.3994 34.9777C33.7042 34.9777 33.1406 35.5413 33.1406 36.2365V39.0952C33.1406 39.7904 33.7042 40.354 34.3994 40.354C34.9379 40.354 35.4181 40.6961 35.5904 41.2062C35.7479 41.6727 35.9367 42.1281 36.1553 42.5692C36.2719 42.805 36.3117 43.0715 36.269 43.3311C36.2262 43.5907 36.1031 43.8303 35.917 44.0162L35.9166 44.0166C35.425 44.5082 35.425 45.3052 35.9166 45.7968L37.9379 47.8182C38.4295 48.3098 39.2266 48.3098 39.7182 47.8182L39.7185 47.8178C39.9045 47.6317 40.1441 47.5086 40.4037 47.4659C40.6633 47.4231 40.9297 47.4629 41.1655 47.5795C41.6067 47.7981 42.0621 47.9868 42.5285 48.1444C43.0387 48.3167 43.3808 48.7968 43.3808 49.3353C43.3808 49.4078 43.3945 49.6178 43.3988 49.5478C43.4001 49.5266 44.2127 49.9147 44.2127 49.9147C48.7507 47.766 51.897 43.0901 51.897 37.6659ZM40.8855 37.6659C40.8855 34.8031 43.2062 32.4824 46.069 32.4824C48.9318 32.4824 51.2525 34.8031 51.2525 37.6659C51.2525 40.5287 48.9318 42.8494 46.069 42.8494C43.2062 42.8494 40.8855 40.5287 40.8855 37.6659Z" fill="#4073C8"/>
<path d="M46.0741 42.8495C43.2113 42.8495 40.8906 40.5288 40.8906 37.666C40.8906 34.8032 43.2113 32.4825 46.0741 32.4825C48.9369 32.4825 51.2576 34.8032 51.2576 37.666C51.2576 40.5288 48.9369 42.8495 46.0741 42.8495Z" fill="#F2F9FF"/>
<path d="M57.7408 34.9777C57.2023 34.9777 56.7222 34.6356 56.5499 34.1254C56.3923 33.659 56.2036 33.2036 55.985 32.7624C55.8684 32.5266 55.8286 32.2602 55.8714 32.0006C55.9141 31.741 56.0372 31.5014 56.2233 31.3154L56.2237 31.3151C56.7153 30.8235 56.7153 30.0264 56.2237 29.5348L54.2022 27.5134C53.7106 27.0218 52.9136 27.0218 52.422 27.5134L52.4216 27.5137C52.2357 27.6998 51.996 27.8229 51.7365 27.8657C51.4769 27.9085 51.2104 27.8687 50.9746 27.752C50.5335 27.5334 50.0781 27.3447 49.6116 27.1872C49.1015 27.0149 48.7594 26.5347 48.7594 25.9962C48.7594 25.301 48.1957 24.7374 47.5005 24.7374H44.6419C44.0192 24.7374 43.5034 25.19 43.4023 25.784C48.0086 27.6967 51.2548 32.2956 51.2548 37.6658C51.2548 43.0359 48.0086 47.6348 43.4023 49.5476C43.5034 50.1415 44.0192 50.5941 44.6419 50.5941H47.5005C48.1957 50.5941 48.7594 50.0305 48.7594 49.3353C48.7594 48.7968 49.1015 48.3167 49.6116 48.1444C50.0781 47.9868 50.5335 47.7981 50.9746 47.5795C51.2104 47.4628 51.4769 47.4231 51.7365 47.4658C51.996 47.5086 52.2357 47.6317 52.4216 47.8178L52.422 47.8182C52.9136 48.3097 53.7106 48.3097 54.2022 47.8182L56.2237 45.7968C56.7153 45.3052 56.7153 44.5082 56.2237 44.0166L56.2233 44.0162C56.0372 43.8303 55.9141 43.5907 55.8713 43.3311C55.8286 43.0715 55.8683 42.805 55.985 42.5692C56.2036 42.1281 56.3923 41.6727 56.5499 41.2062C56.7222 40.6961 57.2023 40.354 57.7408 40.354C58.436 40.354 58.9997 39.7903 58.9997 39.0951V36.2365C58.9997 35.5413 58.436 34.9777 57.7408 34.9777Z" fill="#3B66C1"/>
<path d="M16.3343 22.1675H6.48405C6.24793 22.1675 6.02148 22.0737 5.85451 21.9067C5.68755 21.7397 5.59375 21.5133 5.59375 21.2772C5.59375 21.041 5.68755 20.8146 5.85451 20.6476C6.02148 20.4807 6.24793 20.3869 6.48405 20.3869H16.3343C16.5704 20.3869 16.7969 20.4807 16.9638 20.6476C17.1308 20.8146 17.2246 21.041 17.2246 21.2772C17.2246 21.5133 17.1308 21.7397 16.9638 21.9067C16.7969 22.0737 16.5704 22.1675 16.3343 22.1675ZM16.3343 17.7421H6.48405C6.24793 17.7421 6.02148 17.6483 5.85451 17.4814C5.68755 17.3144 5.59375 17.0879 5.59375 16.8518C5.59375 16.6157 5.68755 16.3892 5.85451 16.2223C6.02148 16.0553 6.24793 15.9615 6.48405 15.9615H16.3343C16.5704 15.9615 16.7969 16.0553 16.9638 16.2223C17.1308 16.3892 17.2246 16.6157 17.2246 16.8518C17.2246 17.0879 17.1308 17.3144 16.9638 17.4814C16.7969 17.6483 16.5704 17.7421 16.3343 17.7421Z" fill="#CC9675"/>
<path d="M46.0716 43.5621C42.8206 43.5621 40.1758 40.9172 40.1758 37.6662C40.1758 34.4152 42.8206 31.7704 46.0716 31.7704C49.3226 31.7704 51.9675 34.4152 51.9675 37.6662C51.9675 40.9172 49.3226 43.5621 46.0716 43.5621ZM46.0716 33.4989C43.7737 33.4989 41.9043 35.3683 41.9043 37.6662C41.9043 39.9641 43.7737 41.8335 46.0716 41.8335C48.3695 41.8335 50.239 39.9641 50.239 37.6662C50.239 35.3683 48.3695 33.4989 46.0716 33.4989Z" fill="#9DC6FB"/>
</svg>
