<svg width="62" height="69" viewBox="0 0 62 69" fill="none" xmlns="http://www.w3.org/2000/svg">
<path d="M59.5237 25.4055L54.2127 24.5756C53.6292 22.1519 52.667 19.8354 51.3617 17.7115L54.5354 13.3624C54.8114 12.9842 54.9431 12.5198 54.9069 12.053C54.8706 11.5862 54.6688 11.1477 54.3377 10.8167L50.3675 6.84647C50.0365 6.5154 49.598 6.31353 49.1312 6.27728C48.6644 6.24103 48.2 6.37278 47.8218 6.64877L43.4728 9.82237C41.3489 8.517 39.0325 7.55486 36.6088 6.9714L35.7789 1.66042C35.7065 1.19785 35.4713 0.776349 35.1155 0.471939C34.7598 0.167529 34.307 0.000241597 33.8388 0.000244141L28.2241 0.000244141C27.7559 0.000251256 27.3031 0.167563 26.9474 0.472002C26.5916 0.776441 26.3564 1.19797 26.2841 1.66056L25.4542 6.97154C23.0306 7.55505 20.7141 8.51719 18.5902 9.8225L14.2412 6.64891C13.863 6.37292 13.3986 6.24116 12.9318 6.27741C12.465 6.31367 12.0265 6.51553 11.6955 6.84661L7.72527 10.8168C7.39422 11.1479 7.19237 11.5864 7.15612 12.0531C7.11987 12.5199 7.25161 12.9843 7.52757 13.3625L10.7012 17.7117C9.3958 19.8355 8.43365 22.152 7.8502 24.5757L2.53922 25.4056C2.07665 25.4779 1.65514 25.7131 1.35071 26.0688C1.04627 26.4245 0.878945 26.8772 0.878906 27.3454V32.9601C0.87889 33.4283 1.0462 33.8811 1.35064 34.2368C1.65509 34.5925 2.07663 34.8277 2.53922 34.9L7.8502 35.7298C8.43371 38.1535 9.39585 40.47 10.7012 42.5939L7.52757 46.9429C7.25158 47.3211 7.11983 47.7855 7.15608 48.2523C7.19233 48.7191 7.3942 49.1575 7.72527 49.4886L11.6955 53.4588C12.0265 53.7899 12.465 53.9918 12.9318 54.028C13.3986 54.0643 13.863 53.9325 14.2412 53.6565L18.5902 50.4829C20.7141 51.7883 23.0305 52.7504 25.4542 53.3339L26.2841 58.6449C26.3564 59.1074 26.5916 59.529 26.9474 59.8334C27.3031 60.1379 27.7559 60.3052 28.2241 60.3052H33.8388C34.307 60.3052 34.7598 60.1379 35.1155 59.8334C35.4712 59.529 35.7065 59.1074 35.7788 58.6449L36.6086 53.3339C39.0323 52.7503 41.3488 51.7882 43.4727 50.4829L47.8217 53.6565C48.1999 53.9325 48.6643 54.0643 49.1311 54.028C49.5979 53.9918 50.0363 53.7899 50.3674 53.4588L54.3376 49.4886C54.6687 49.1575 54.8705 48.7191 54.9068 48.2523C54.943 47.7855 54.8113 47.3211 54.5353 46.9429L51.3616 42.5939C52.6669 40.47 53.6291 38.1535 54.2125 35.7298L59.5235 34.9C59.9861 34.8277 60.4076 34.5925 60.712 34.2368C61.0165 33.8811 61.1838 33.4283 61.1838 32.9601V27.3454C61.1839 26.8772 61.0166 26.4244 60.7122 26.0687C60.4078 25.713 59.9862 25.4777 59.5237 25.4055ZM31.0315 47.5429C21.4272 47.5429 13.6412 39.757 13.6412 30.1526C13.6412 20.5481 21.4272 12.7624 31.0315 12.7624C40.6358 12.7624 48.4218 20.5482 48.4218 30.1527C48.4218 39.7572 40.6358 47.5429 31.0315 47.5429Z" fill="#528FD8"/>
<path d="M51.3597 42.5938C51.5218 42.33 51.6787 42.0629 51.8303 41.7929H48.1393C47.3648 41.7929 46.737 41.165 46.737 40.3904V37.6235C43.9422 43.4891 37.9595 47.543 31.0296 47.543C24.0997 47.543 18.1172 43.4891 15.3223 37.6237V40.3904C15.3223 41.1649 14.6944 41.7929 13.9198 41.7929H10.2288C10.3805 42.0629 10.5374 42.3299 10.6994 42.5938L7.52583 46.943C7.24984 47.3212 7.11808 47.7856 7.15433 48.2524C7.19059 48.7192 7.39245 49.1576 7.72353 49.4887L11.6937 53.4589C12.0248 53.79 12.4633 53.9918 12.9301 54.0281C13.3969 54.0643 13.8612 53.9326 14.2394 53.6566L18.5885 50.483C20.7123 51.7884 23.0288 52.7505 25.4525 53.334L26.2824 58.645C26.3547 59.1075 26.5899 59.5291 26.9456 59.8335C27.3013 60.138 27.7541 60.3053 28.2223 60.3053H33.8371C34.3053 60.3053 34.7581 60.138 35.1138 59.8335C35.4695 59.5291 35.7047 59.1075 35.777 58.645L36.6069 53.334C39.0306 52.7504 41.347 51.7883 43.4709 50.483L47.8199 53.6566C48.1982 53.9326 48.6625 54.0643 49.1293 54.0281C49.5961 53.9918 50.0346 53.79 50.3657 53.4589L54.3359 49.4887C54.6669 49.1576 54.8688 48.7192 54.9051 48.2524C54.9413 47.7856 54.8096 47.3212 54.5336 46.943L51.3597 42.5938Z" fill="#0573CE"/>
<path d="M54.0317 47.3472V67.6523C54.0317 68.3962 53.428 69 52.684 69H32.3789C31.635 69 31.0312 68.3962 31.0312 67.6523V47.3472C31.0312 46.6033 31.635 45.9995 32.3789 45.9995H39.4649L42.5308 48.4037L45.5981 45.9995H52.684C53.428 45.9995 54.0317 46.6033 54.0317 47.3472Z" fill="#FED2A4"/>
<path d="M52.6835 45.9998H49.7148C50.0434 47.2791 50.2057 48.5954 50.1976 49.9162C50.1533 58.2803 43.3104 65.1226 34.9463 65.1663C33.626 65.1741 32.3101 65.0119 31.0312 64.6834V67.6521C31.0312 68.3965 31.6346 68.9998 32.3789 68.9998H52.6836C53.4279 68.9998 54.0313 68.3965 54.0313 67.6521V47.3474C54.0312 46.6031 53.4277 45.9998 52.6835 45.9998Z" fill="#FFBD86"/>
<path d="M44.1055 53.0445L42.9462 52.5615C42.8149 52.5067 42.6739 52.4785 42.5316 52.4785C42.3892 52.4785 42.2483 52.5067 42.1169 52.5615L40.9576 53.0445C40.2474 53.3404 39.4648 52.8186 39.4648 52.0492V45.9998H45.5982V52.0492C45.5983 52.8186 44.8156 53.3403 44.1055 53.0445Z" fill="#EA9B58"/>
<path d="M42.5303 24.3486V44.6524C42.5303 45.3976 41.9279 46 41.1827 46H20.8789C20.1337 46 19.5312 45.3976 19.5312 44.6524V24.3486C19.5312 23.6033 20.1337 23.0009 20.8789 23.0009H27.9635L31.0308 24.4726L34.0981 23.0009H41.1827C41.9279 23.0009 42.5303 23.6033 42.5303 24.3486Z" fill="#FED2A4"/>
<path d="M41.1835 23.0004H38.2148C38.5434 24.2797 38.7057 25.596 38.6976 26.9168C38.6533 35.2809 31.8104 42.1232 23.4463 42.1669C22.126 42.1748 20.8101 42.0125 19.5312 41.684V44.6528C19.5312 45.3971 20.1346 46.0004 20.8789 46.0004H41.1836C41.928 46.0004 42.5313 45.3971 42.5313 44.6528V24.348C42.5312 23.6037 41.9278 23.0004 41.1835 23.0004Z" fill="#FFBD86"/>
<path d="M32.6055 30.045L31.4462 29.562C31.3149 29.5072 31.1739 29.479 31.0316 29.479C30.8892 29.479 30.7483 29.5072 30.6169 29.562L29.4576 30.045C28.7474 30.3409 27.9648 29.8191 27.9648 29.0497V23.0002H34.0982V29.0497C34.0983 29.8191 33.3156 30.3409 32.6055 30.045Z" fill="#EA9B58"/>
<path d="M31.0317 47.3472V67.6523C31.0317 68.3962 30.4279 69 29.684 69H9.37891C8.635 69 8.03125 68.3962 8.03125 67.6523V47.3472C8.03125 46.6033 8.635 45.9995 9.37891 45.9995H16.4649L19.5321 48.4037L22.5981 45.9995H29.684C30.4279 45.9995 31.0317 46.6033 31.0317 47.3472Z" fill="#FED2A4"/>
<path d="M29.6836 45.9998H26.7149C27.0435 47.2791 27.2058 48.5954 27.1978 49.9162C27.1534 58.2803 20.3106 65.1226 11.9465 65.1663C10.6261 65.1741 9.31016 65.0118 8.03125 64.6834V67.6521C8.03125 68.3965 8.6346 68.9998 9.37891 68.9998H29.6836C30.4279 68.9998 31.0313 68.3965 31.0313 67.6521V47.3474C31.0313 46.6031 30.4279 45.9998 29.6836 45.9998Z" fill="#FFBD86"/>
<path d="M21.1094 53.0445L19.9501 52.5615C19.8188 52.5067 19.6778 52.4785 19.5355 52.4785C19.3931 52.4785 19.2522 52.5067 19.1208 52.5615L17.9615 53.0445C17.2513 53.3404 16.4688 52.8186 16.4688 52.0492V45.9998H22.6021V52.0492C22.6022 52.8186 21.8196 53.3403 21.1094 53.0445Z" fill="#EA9B58"/>
<path d="M49.9456 62.2759H46.1123C45.554 62.2759 45.1016 61.8235 45.1016 61.2652C45.1016 60.7069 45.554 60.2544 46.1123 60.2544H49.9456C50.504 60.2544 50.9564 60.7069 50.9564 61.2652C50.9564 61.8235 50.504 62.2759 49.9456 62.2759ZM49.9456 65.9221H48.0288C47.4705 65.9221 47.0181 65.4697 47.0181 64.9114C47.0181 64.3531 47.4705 63.9007 48.0288 63.9007H49.9456C50.504 63.9007 50.9564 64.3531 50.9564 64.9114C50.9564 65.4697 50.504 65.9221 49.9456 65.9221ZM38.4455 39.2759H34.6123C34.0539 39.2759 33.6015 38.8235 33.6015 38.2651C33.6015 37.7068 34.0539 37.2544 34.6123 37.2544H38.4455C39.0039 37.2544 39.4563 37.7068 39.4563 38.2651C39.4563 38.8235 39.0039 39.2759 38.4455 39.2759ZM38.4455 42.9221H36.5289C35.9706 42.9221 35.5182 42.4697 35.5182 41.9114C35.5182 41.353 35.9706 40.9006 36.5289 40.9006H38.4455C39.0039 40.9006 39.4563 41.353 39.4563 41.9114C39.4563 42.4697 39.0039 42.9221 38.4455 42.9221ZM26.9456 62.2759H23.1123C22.554 62.2759 22.1016 61.8235 22.1016 61.2652C22.1016 60.7069 22.554 60.2544 23.1123 60.2544H26.9456C27.5039 60.2544 27.9563 60.7069 27.9563 61.2652C27.9563 61.8235 27.5039 62.2759 26.9456 62.2759ZM26.9456 65.9221H25.0289C24.4706 65.9221 24.0182 65.4697 24.0182 64.9114C24.0182 64.3531 24.4706 63.9007 25.0289 63.9007H26.9456C27.5039 63.9007 27.9563 64.3531 27.9563 64.9114C27.9563 65.4697 27.5039 65.9221 26.9456 65.9221Z" fill="#528FD8"/>
</svg>
