<svg width="44" height="44" viewBox="0 0 44 44" fill="none" xmlns="http://www.w3.org/2000/svg">
<path d="M6.73647 13.6305H24.262C27.9825 13.6305 30.9985 16.6465 30.9985 20.367V29.1144C30.9985 32.8348 27.9825 35.8508 24.262 35.8508H15.4553L11.2395 40.6681C9.98903 42.0969 7.63563 41.2126 7.63563 39.3138V35.8508H6.73647C3.01598 35.8508 0 32.8349 0 29.1144V20.367C0 16.6466 3.01598 13.6305 6.73647 13.6305Z" fill="#B3E59F"/>
<path d="M11.1593 40.7553C9.89063 42.0584 7.6358 41.1722 7.6358 39.314V35.8506H6.73638C3.01623 35.8506 0 32.8343 0 29.1143V20.3665C0 16.6464 3.01623 13.6301 6.73638 13.6301H9.67742C5.95641 13.6301 2.94104 16.6464 2.94104 20.3665V29.1143C2.94104 32.8343 5.95641 35.8506 9.67742 35.8506H10.5769V39.3139C10.5768 39.9062 10.8061 40.4003 11.1593 40.7553Z" fill="#95D6A4"/>
<path d="M37.2621 2.6261H19.7365C16.0161 2.6261 13 5.64208 13 9.36257V18.11C13 21.8304 16.016 24.8464 19.7365 24.8464H28.5432L32.7589 29.6637C34.0094 31.0925 36.3628 30.2082 36.3628 28.3094V24.8464H37.262C40.9824 24.8464 43.9984 21.8305 43.9984 18.11V9.36257C43.9985 5.64216 40.9825 2.6261 37.2621 2.6261Z" fill="#F9F6F9"/>
<path d="M22.9376 24.8464H19.7363C16.0162 24.8464 13 21.8301 13 18.1101V9.36224C13 5.64218 16.0162 2.62585 19.7363 2.62585H22.9376C19.2176 2.62585 16.2013 5.64209 16.2013 9.36224V18.11C16.2013 21.8301 19.2176 24.8464 22.9376 24.8464Z" fill="#DDDAEC"/>
<path d="M12.3944 28.5592C12.2183 28.5592 12.0495 28.4892 11.9249 28.3647C11.8004 28.2402 11.7305 28.0713 11.7305 27.8952V27.8535C11.7305 27.6774 11.8004 27.5086 11.9249 27.384C12.0495 27.2595 12.2183 27.1896 12.3944 27.1896C12.5705 27.1896 12.7394 27.2595 12.8639 27.384C12.9884 27.5086 13.0584 27.6774 13.0584 27.8535V27.8952C13.0584 28.0713 12.9884 28.2402 12.8639 28.3647C12.7394 28.4892 12.5705 28.5592 12.3944 28.5592ZM15.5954 28.5592C15.4193 28.5592 15.2505 28.4892 15.1259 28.3647C15.0014 28.2402 14.9315 28.0713 14.9315 27.8952V27.8535C14.9315 27.6774 15.0014 27.5086 15.1259 27.384C15.2505 27.2595 15.4193 27.1896 15.5954 27.1896C15.7715 27.1896 15.9404 27.2595 16.0649 27.384C16.1894 27.5086 16.2594 27.6774 16.2594 27.8535V27.8952C16.2594 27.9824 16.2422 28.0687 16.2089 28.1493C16.1755 28.2299 16.1266 28.3031 16.0649 28.3647C16.0033 28.4264 15.9301 28.4753 15.8495 28.5086C15.769 28.542 15.6826 28.5592 15.5954 28.5592ZM18.6079 28.5592C18.4318 28.5592 18.2629 28.4892 18.1384 28.3647C18.0139 28.2402 17.9439 28.0713 17.9439 27.8952V27.8535C17.9439 27.6774 18.0139 27.5086 18.1384 27.384C18.2629 27.2595 18.4318 27.1896 18.6079 27.1896C18.784 27.1896 18.9528 27.2595 19.0774 27.384C19.2019 27.5086 19.2718 27.6774 19.2718 27.8535V27.8952C19.2718 28.0713 19.2019 28.2402 19.0774 28.3647C18.9528 28.4892 18.784 28.5592 18.6079 28.5592Z" fill="#5E54AC"/>
<path d="M35.5 14.9797L34.5838 14.4512C34.6059 14.2414 34.6165 14.0289 34.6165 13.8147C34.6168 13.6021 34.6059 13.3896 34.5838 13.1781L35.5 12.6488C36.195 12.2477 36.4323 11.3598 36.0312 10.6647L34.9936 8.86846C34.5925 8.17348 33.7046 7.93535 33.0105 8.33642L32.0943 8.8658C31.7502 8.61508 31.3807 8.40113 30.992 8.22745V7.17128C30.992 6.36922 30.3413 5.71851 29.5392 5.71851H27.4641C26.6621 5.71851 26.0122 6.36922 26.0122 7.17128V8.22745C25.6235 8.40107 25.254 8.61502 24.91 8.8658L23.9937 8.33642C23.2987 7.93535 22.4107 8.17348 22.0097 8.86846L20.9721 10.6647C20.5711 11.3597 20.8093 12.2477 21.5042 12.6488L22.4196 13.1781C22.3979 13.3896 22.387 13.6021 22.3868 13.8147C22.3868 14.0289 22.3983 14.2414 22.4196 14.4512L21.5042 14.9797C20.8092 15.3808 20.5711 16.2687 20.9721 16.9638L22.0097 18.761C22.4108 19.455 23.2987 19.6932 23.9937 19.2922L24.91 18.7636C25.2543 19.0138 25.6237 19.2274 26.0122 19.4011V20.4582C26.0122 21.2602 26.662 21.9101 27.4641 21.9101H29.5392C30.3413 21.9101 30.992 21.2603 30.992 20.4582V19.4011C31.3805 19.2274 31.7499 19.0138 32.0943 18.7636L33.0105 19.2922C33.7046 19.6931 34.5925 19.455 34.9936 18.761L36.0312 16.9638C36.4323 16.2688 36.195 15.3808 35.5 14.9797ZM28.5016 17.2267C26.6177 17.2267 25.0897 15.6987 25.0897 13.8148C25.0897 11.9299 26.6177 10.4028 28.5016 10.4028C30.3865 10.4028 31.9136 11.93 31.9136 13.8148C31.9136 15.6986 30.3865 17.2267 28.5016 17.2267Z" fill="#6B61B1"/>
<path d="M23.0332 18.761L21.9956 16.964C21.5945 16.2694 21.8327 15.381 22.5272 14.9799L23.4433 14.4511C23.4215 14.242 23.4104 14.0296 23.4104 13.8146C23.4104 13.5996 23.4215 13.3871 23.4433 13.1781L22.5272 12.6493C21.8327 12.2482 21.5946 11.3599 21.9956 10.6652L23.0332 8.86821C23.2007 8.577 23.4645 8.35321 23.7791 8.23528C23.1255 7.98821 22.3705 8.24336 22.0097 8.86821L20.9721 10.6652C20.5711 11.3598 20.8093 12.2482 21.5038 12.6493L22.4199 13.1781C22.3981 13.3872 22.387 13.5996 22.387 13.8146C22.387 14.0296 22.3981 14.2421 22.4199 14.4511L21.5038 14.9799C20.8093 15.381 20.5711 16.2693 20.9721 16.964L22.0097 18.761C22.3705 19.3858 23.1255 19.641 23.7791 19.3939C23.4645 19.276 23.2007 19.0522 23.0332 18.761ZM28.4875 21.9103H27.4643C26.6622 21.9103 26.0119 21.2601 26.0119 20.458V19.4011C25.6233 19.2276 25.254 19.0139 24.9098 18.7636L25.4545 18.4492C25.7968 18.6981 26.6445 19.2269 27.0351 19.4011V20.458C27.0353 21.2601 27.6855 21.9103 28.4875 21.9103ZM28.4875 5.71912H27.4643C26.6622 5.71912 26.0119 6.36941 26.0119 7.17146V8.22832C25.6233 8.40189 25.254 8.61557 24.9098 8.86589L25.4545 9.18025C25.7968 8.93137 26.6445 8.4026 27.0351 8.22832V7.17146C27.0353 6.36932 27.6855 5.71912 28.4875 5.71912Z" fill="#5E54AC"/>
</svg>
